M48
; DRILL file {KiCad (6.0.9)} date Sun Nov 20 11:02:13 2022
; FORMAT={-:-/ absolute / inch / decimal}
; #@! TF.CreationDate,2022-11-20T11:02:13-05:00
; #@! TF.GenerationSoftware,Kicad,Pcbnew,(6.0.9)
; #@! TF.FileFunction,Plated,1,2,PTH
FMAT,2
INCH
; #@! TA.AperFunction,Plated,PTH,ViaDrill
T1C0.0157
; #@! TA.AperFunction,Plated,PTH,ComponentDrill
T2C0.0394
%
G90
G05
T1
X2.937Y-2.2307
X3.3232Y-2.235
X3.6669Y-1.7989
T2
X0.9Y-1.1
X0.9Y-1.1
X0.9Y-1.2
X0.9Y-1.2
X0.9Y-1.3
X0.9Y-1.3
X0.9Y-1.4
X0.9Y-1.4
X0.9Y-1.5
X0.9Y-1.5
X0.9Y-1.6
X0.9Y-1.6
X0.9Y-1.7
X0.9Y-1.7
X0.9Y-1.8
X0.9Y-1.8
X0.9Y-1.9
X0.9Y-1.9
X0.9Y-2.0
X0.9Y-2.0
X0.9Y-2.1
X0.9Y-2.1
X1.0Y-1.1
X1.0Y-1.1
X1.0Y-1.2
X1.0Y-1.2
X1.0Y-1.3
X1.0Y-1.3
X1.0Y-1.4
X1.0Y-1.4
X1.0Y-1.5
X1.0Y-1.5
X1.0Y-1.6
X1.0Y-1.6
X1.0Y-1.7
X1.0Y-1.7
X1.0Y-1.8
X1.0Y-1.8
X1.0Y-1.9
X1.0Y-1.9
X1.0Y-2.0
X1.0Y-2.0
X1.0Y-2.1
X1.0Y-2.1
X1.1Y-1.1
X1.1Y-1.1
X1.1Y-1.2
X1.1Y-1.2
X1.1Y-1.3
X1.1Y-1.3
X1.1Y-1.4
X1.1Y-1.4
X1.1Y-1.5
X1.1Y-1.5
X1.1Y-1.6
X1.1Y-1.6
X1.1Y-1.7
X1.1Y-1.7
X1.1Y-1.8
X1.1Y-1.8
X1.1Y-1.9
X1.1Y-1.9
X1.1Y-2.0
X1.1Y-2.0
X1.1Y-2.1
X1.1Y-2.1
X1.1778Y-2.3081
X1.2Y-1.1
X1.2Y-1.1
X1.2Y-1.2
X1.2Y-1.2
X1.2Y-1.3
X1.2Y-1.3
X1.2Y-1.4
X1.2Y-1.4
X1.2Y-1.5
X1.2Y-1.5
X1.2Y-1.6
X1.2Y-1.6
X1.2Y-1.7
X1.2Y-1.7
X1.2Y-1.8
X1.2Y-1.8
X1.2Y-1.9
X1.2Y-1.9
X1.2Y-2.0
X1.2Y-2.0
X1.2Y-2.1
X1.2Y-2.1
X1.2778Y-2.3081
X1.3Y-1.1
X1.3Y-1.1
X1.3Y-1.2
X1.3Y-1.2
X1.3Y-1.3
X1.3Y-1.3
X1.3Y-1.4
X1.3Y-1.4
X1.3Y-1.5
X1.3Y-1.5
X1.3Y-1.6
X1.3Y-1.6
X1.3Y-1.7
X1.3Y-1.7
X1.3Y-1.8
X1.3Y-1.8
X1.3Y-1.9
X1.3Y-1.9
X1.3Y-2.0
X1.3Y-2.0
X1.3Y-2.1
X1.3Y-2.1
X1.3778Y-2.3081
X1.4Y-1.1
X1.4Y-1.1
X1.4Y-1.2
X1.4Y-1.2
X1.4Y-1.3
X1.4Y-1.3
X1.4Y-1.4
X1.4Y-1.4
X1.4Y-1.5
X1.4Y-1.5
X1.4Y-1.6
X1.4Y-1.6
X1.4Y-1.7
X1.4Y-1.7
X1.4Y-1.8
X1.4Y-1.8
X1.4Y-1.9
X1.4Y-1.9
X1.4Y-2.0
X1.4Y-2.0
X1.4Y-2.1
X1.4Y-2.1
X1.4778Y-2.3081
X1.5Y-1.1
X1.5Y-1.1
X1.5Y-1.2
X1.5Y-1.2
X1.5Y-1.3
X1.5Y-1.3
X1.5Y-1.4
X1.5Y-1.4
X1.5Y-1.5
X1.5Y-1.5
X1.5Y-1.6
X1.5Y-1.6
X1.5Y-1.7
X1.5Y-1.7
X1.5Y-1.8
X1.5Y-1.8
X1.5Y-1.9
X1.5Y-1.9
X1.5Y-2.0
X1.5Y-2.0
X1.5Y-2.1
X1.5Y-2.1
X1.5778Y-2.3081
X1.6Y-1.1
X1.6Y-1.1
X1.6Y-1.2
X1.6Y-1.2
X1.6Y-1.3
X1.6Y-1.3
X1.6Y-1.4
X1.6Y-1.4
X1.6Y-1.5
X1.6Y-1.5
X1.6Y-1.6
X1.6Y-1.6
X1.6Y-1.7
X1.6Y-1.7
X1.6Y-1.8
X1.6Y-1.8
X1.6Y-1.9
X1.6Y-1.9
X1.6Y-2.0
X1.6Y-2.0
X1.6Y-2.1
X1.6Y-2.1
X1.7Y-1.1
X1.7Y-1.1
X1.7Y-1.2
X1.7Y-1.2
X1.7Y-1.3
X1.7Y-1.3
X1.7Y-1.4
X1.7Y-1.4
X1.7Y-1.5
X1.7Y-1.5
X1.7Y-1.6
X1.7Y-1.6
X1.7Y-1.7
X1.7Y-1.7
X1.7Y-1.8
X1.7Y-1.8
X1.7Y-1.9
X1.7Y-1.9
X1.7Y-2.0
X1.7Y-2.0
X1.7Y-2.1
X1.7Y-2.1
X1.8Y-1.1
X1.8Y-1.1
X1.8Y-1.2
X1.8Y-1.2
X1.8Y-1.3
X1.8Y-1.3
X1.8Y-1.4
X1.8Y-1.4
X1.8Y-1.5
X1.8Y-1.5
X1.8Y-1.6
X1.8Y-1.6
X1.8Y-1.7
X1.8Y-1.7
X1.8Y-1.8
X1.8Y-1.8
X1.8Y-1.9
X1.8Y-1.9
X1.8Y-2.0
X1.8Y-2.0
X1.8Y-2.1
X1.8Y-2.1
X1.9Y-1.1
X1.9Y-1.1
X1.9Y-1.2
X1.9Y-1.2
X1.9Y-1.3
X1.9Y-1.3
X1.9Y-1.4
X1.9Y-1.4
X1.9Y-1.5
X1.9Y-1.5
X1.9Y-1.6
X1.9Y-1.6
X1.9Y-1.7
X1.9Y-1.7
X1.9Y-1.8
X1.9Y-1.8
X1.9Y-1.9
X1.9Y-1.9
X1.9Y-2.0
X1.9Y-2.0
X1.9Y-2.1
X1.9Y-2.1
X2.0Y-1.1
X2.0Y-1.1
X2.0Y-1.2
X2.0Y-1.2
X2.0Y-1.3
X2.0Y-1.3
X2.0Y-1.4
X2.0Y-1.4
X2.0Y-1.5
X2.0Y-1.5
X2.0Y-1.6
X2.0Y-1.6
X2.0Y-1.7
X2.0Y-1.7
X2.0Y-1.8
X2.0Y-1.8
X2.0Y-1.9
X2.0Y-1.9
X2.0Y-2.0
X2.0Y-2.0
X2.0Y-2.1
X2.0Y-2.1
X2.1422Y-2.296
X2.2422Y-2.296
X2.3422Y-2.296
X2.4422Y-2.296
X2.5422Y-2.296
X3.5215Y-2.3081
X3.6215Y-2.3081
X3.7215Y-2.3081
T0
M30
