%TF.GenerationSoftware,KiCad,Pcbnew,(6.0.9)*%
%TF.CreationDate,2022-11-20T11:02:00-05:00*%
%TF.ProjectId,PicoBoard,5069636f-426f-4617-9264-2e6b69636164,rev?*%
%TF.SameCoordinates,Original*%
%TF.FileFunction,Copper,L1,Top*%
%TF.FilePolarity,Positive*%
%FSLAX46Y46*%
G04 Gerber Fmt 4.6, Leading zero omitted, Abs format (unit mm)*
G04 Created by KiCad (PCBNEW (6.0.9)) date 2022-11-20 11:02:00*
%MOMM*%
%LPD*%
G01*
G04 APERTURE LIST*
G04 Aperture macros list*
%AMRoundRect*
0 Rectangle with rounded corners*
0 $1 Rounding radius*
0 $2 $3 $4 $5 $6 $7 $8 $9 X,Y pos of 4 corners*
0 Add a 4 corners polygon primitive as box body*
4,1,4,$2,$3,$4,$5,$6,$7,$8,$9,$2,$3,0*
0 Add four circle primitives for the rounded corners*
1,1,$1+$1,$2,$3*
1,1,$1+$1,$4,$5*
1,1,$1+$1,$6,$7*
1,1,$1+$1,$8,$9*
0 Add four rect primitives between the rounded corners*
20,1,$1+$1,$2,$3,$4,$5,0*
20,1,$1+$1,$4,$5,$6,$7,0*
20,1,$1+$1,$6,$7,$8,$9,0*
20,1,$1+$1,$8,$9,$2,$3,0*%
G04 Aperture macros list end*
%TA.AperFunction,ComponentPad*%
%ADD10R,1.700000X1.700000*%
%TD*%
%TA.AperFunction,ComponentPad*%
%ADD11O,1.700000X1.700000*%
%TD*%
%TA.AperFunction,SMDPad,CuDef*%
%ADD12RoundRect,0.250000X-0.450000X0.262500X-0.450000X-0.262500X0.450000X-0.262500X0.450000X0.262500X0*%
%TD*%
%TA.AperFunction,SMDPad,CuDef*%
%ADD13RoundRect,0.150000X0.587500X0.150000X-0.587500X0.150000X-0.587500X-0.150000X0.587500X-0.150000X0*%
%TD*%
%TA.AperFunction,SMDPad,CuDef*%
%ADD14R,1.700000X3.500000*%
%TD*%
%TA.AperFunction,SMDPad,CuDef*%
%ADD15R,3.500000X1.700000*%
%TD*%
%TA.AperFunction,SMDPad,CuDef*%
%ADD16RoundRect,0.250000X0.450000X-0.262500X0.450000X0.262500X-0.450000X0.262500X-0.450000X-0.262500X0*%
%TD*%
%TA.AperFunction,ViaPad*%
%ADD17C,0.800000*%
%TD*%
%TA.AperFunction,Conductor*%
%ADD18C,0.250000*%
%TD*%
%TA.AperFunction,Conductor*%
%ADD19C,0.200000*%
%TD*%
G04 APERTURE END LIST*
D10*
%TO.P,,1*%
%TO.N,N/C*%
X27940000Y-27940000D03*
X27940000Y-27940000D03*
%TD*%
%TO.P,,1*%
%TO.N,N/C*%
X25400000Y-27940000D03*
X25400000Y-27940000D03*
%TD*%
%TO.P,,1*%
%TO.N,N/C*%
X40640000Y-27940000D03*
X40640000Y-27940000D03*
%TD*%
%TO.P,,1*%
%TO.N,N/C*%
X45720000Y-27940000D03*
X45720000Y-27940000D03*
%TD*%
%TO.P,,1*%
%TO.N,N/C*%
X22860000Y-27940000D03*
X22860000Y-27940000D03*
%TD*%
%TO.P,,1*%
%TO.N,N/C*%
X33020000Y-27940000D03*
X33020000Y-27940000D03*
%TD*%
%TO.P,,1*%
%TO.N,N/C*%
X35560000Y-27940000D03*
X35560000Y-27940000D03*
%TD*%
%TO.P,,1*%
%TO.N,N/C*%
X50800000Y-27940000D03*
X50800000Y-27940000D03*
%TD*%
%TO.P,,1*%
%TO.N,N/C*%
X43180000Y-27940000D03*
X43180000Y-27940000D03*
%TD*%
%TO.P,,1*%
%TO.N,N/C*%
X38100000Y-27940000D03*
X38100000Y-27940000D03*
%TD*%
%TO.P,,1*%
%TO.N,N/C*%
X48260000Y-27940000D03*
X48260000Y-27940000D03*
%TD*%
%TO.P,,1*%
%TO.N,N/C*%
X30480000Y-27940000D03*
X30480000Y-27940000D03*
%TD*%
%TO.P,,1*%
%TO.N,N/C*%
X48260000Y-30480000D03*
X48260000Y-30480000D03*
%TD*%
%TO.P,,1*%
%TO.N,N/C*%
X38100000Y-30480000D03*
X38100000Y-30480000D03*
%TD*%
%TO.P,,1*%
%TO.N,N/C*%
X43180000Y-30480000D03*
X43180000Y-30480000D03*
%TD*%
%TO.P,,1*%
%TO.N,N/C*%
X50800000Y-30480000D03*
X50800000Y-30480000D03*
%TD*%
%TO.P,,1*%
%TO.N,N/C*%
X22860000Y-30480000D03*
X22860000Y-30480000D03*
%TD*%
%TO.P,,1*%
%TO.N,N/C*%
X30480000Y-30480000D03*
X30480000Y-30480000D03*
%TD*%
%TO.P,,1*%
%TO.N,N/C*%
X33020000Y-30480000D03*
X33020000Y-30480000D03*
%TD*%
%TO.P,,1*%
%TO.N,N/C*%
X40640000Y-30480000D03*
X40640000Y-30480000D03*
%TD*%
%TO.P,,1*%
%TO.N,N/C*%
X27940000Y-30480000D03*
X27940000Y-30480000D03*
%TD*%
%TO.P,,1*%
%TO.N,N/C*%
X45720000Y-30480000D03*
X45720000Y-30480000D03*
%TD*%
%TO.P,,1*%
%TO.N,N/C*%
X25400000Y-30480000D03*
X25400000Y-30480000D03*
%TD*%
%TO.P,,1*%
%TO.N,N/C*%
X35560000Y-30480000D03*
X35560000Y-30480000D03*
%TD*%
%TO.P,,1*%
%TO.N,N/C*%
X33020000Y-33020000D03*
X33020000Y-33020000D03*
%TD*%
%TO.P,,1*%
%TO.N,N/C*%
X40640000Y-33020000D03*
X40640000Y-33020000D03*
%TD*%
%TO.P,,1*%
%TO.N,N/C*%
X50800000Y-33020000D03*
X50800000Y-33020000D03*
%TD*%
%TO.P,,1*%
%TO.N,N/C*%
X45720000Y-33020000D03*
X45720000Y-33020000D03*
%TD*%
%TO.P,,1*%
%TO.N,N/C*%
X35560000Y-33020000D03*
X35560000Y-33020000D03*
%TD*%
%TO.P,,1*%
%TO.N,N/C*%
X22860000Y-33020000D03*
X22860000Y-33020000D03*
%TD*%
%TO.P,,1*%
%TO.N,N/C*%
X43180000Y-33020000D03*
X43180000Y-33020000D03*
%TD*%
%TO.P,,1*%
%TO.N,N/C*%
X48260000Y-33020000D03*
X48260000Y-33020000D03*
%TD*%
%TO.P,,1*%
%TO.N,N/C*%
X27940000Y-33020000D03*
X27940000Y-33020000D03*
%TD*%
%TO.P,,1*%
%TO.N,N/C*%
X38100000Y-33020000D03*
X38100000Y-33020000D03*
%TD*%
%TO.P,,1*%
%TO.N,N/C*%
X25400000Y-33020000D03*
X25400000Y-33020000D03*
%TD*%
%TO.P,,1*%
%TO.N,N/C*%
X30480000Y-33020000D03*
X30480000Y-33020000D03*
%TD*%
%TO.P,,1*%
%TO.N,N/C*%
X45720000Y-35560000D03*
X45720000Y-35560000D03*
%TD*%
%TO.P,,1*%
%TO.N,N/C*%
X38100000Y-35560000D03*
X38100000Y-35560000D03*
%TD*%
%TO.P,,1*%
%TO.N,N/C*%
X25400000Y-35560000D03*
X25400000Y-35560000D03*
%TD*%
%TO.P,,1*%
%TO.N,N/C*%
X33020000Y-35560000D03*
X33020000Y-35560000D03*
%TD*%
%TO.P,,1*%
%TO.N,N/C*%
X27940000Y-35560000D03*
X27940000Y-35560000D03*
%TD*%
%TO.P,,1*%
%TO.N,N/C*%
X48260000Y-35560000D03*
X48260000Y-35560000D03*
%TD*%
%TO.P,,1*%
%TO.N,N/C*%
X40640000Y-35560000D03*
X40640000Y-35560000D03*
%TD*%
%TO.P,,1*%
%TO.N,N/C*%
X35560000Y-35560000D03*
X35560000Y-35560000D03*
%TD*%
%TO.P,,1*%
%TO.N,N/C*%
X50800000Y-35560000D03*
X50800000Y-35560000D03*
%TD*%
%TO.P,,1*%
%TO.N,N/C*%
X30480000Y-35560000D03*
X30480000Y-35560000D03*
%TD*%
%TO.P,,1*%
%TO.N,N/C*%
X22860000Y-35560000D03*
X22860000Y-35560000D03*
%TD*%
%TO.P,,1*%
%TO.N,N/C*%
X43180000Y-35560000D03*
X43180000Y-35560000D03*
%TD*%
%TO.P,,1*%
%TO.N,N/C*%
X35560000Y-38100000D03*
X35560000Y-38100000D03*
%TD*%
%TO.P,,1*%
%TO.N,N/C*%
X27940000Y-38100000D03*
X27940000Y-38100000D03*
%TD*%
%TO.P,,1*%
%TO.N,N/C*%
X45720000Y-38100000D03*
X45720000Y-38100000D03*
%TD*%
%TO.P,,1*%
%TO.N,N/C*%
X40640000Y-38100000D03*
X40640000Y-38100000D03*
%TD*%
%TO.P,,1*%
%TO.N,N/C*%
X48260000Y-38100000D03*
X48260000Y-38100000D03*
%TD*%
%TO.P,,1*%
%TO.N,N/C*%
X43180000Y-38100000D03*
X43180000Y-38100000D03*
%TD*%
%TO.P,,1*%
%TO.N,N/C*%
X25400000Y-38100000D03*
X25400000Y-38100000D03*
%TD*%
%TO.P,,1*%
%TO.N,N/C*%
X33020000Y-38100000D03*
X33020000Y-38100000D03*
%TD*%
%TO.P,,1*%
%TO.N,N/C*%
X50800000Y-38100000D03*
X50800000Y-38100000D03*
%TD*%
%TO.P,,1*%
%TO.N,N/C*%
X22860000Y-38100000D03*
X22860000Y-38100000D03*
%TD*%
%TO.P,,1*%
%TO.N,N/C*%
X30480000Y-38100000D03*
X30480000Y-38100000D03*
%TD*%
%TO.P,,1*%
%TO.N,N/C*%
X38100000Y-38100000D03*
X38100000Y-38100000D03*
%TD*%
%TO.P,,1*%
%TO.N,N/C*%
X27940000Y-40640000D03*
X27940000Y-40640000D03*
%TD*%
%TO.P,,1*%
%TO.N,N/C*%
X35560000Y-40640000D03*
X35560000Y-40640000D03*
%TD*%
%TO.P,,1*%
%TO.N,N/C*%
X33020000Y-40640000D03*
X33020000Y-40640000D03*
%TD*%
%TO.P,,1*%
%TO.N,N/C*%
X25400000Y-40640000D03*
X25400000Y-40640000D03*
%TD*%
%TO.P,,1*%
%TO.N,N/C*%
X40640000Y-40640000D03*
X40640000Y-40640000D03*
%TD*%
%TO.P,,1*%
%TO.N,N/C*%
X50800000Y-40640000D03*
X50800000Y-40640000D03*
%TD*%
%TO.P,,1*%
%TO.N,N/C*%
X30480000Y-40640000D03*
X30480000Y-40640000D03*
%TD*%
%TO.P,,1*%
%TO.N,N/C*%
X45720000Y-40640000D03*
X45720000Y-40640000D03*
%TD*%
%TO.P,,1*%
%TO.N,N/C*%
X48260000Y-40640000D03*
X48260000Y-40640000D03*
%TD*%
%TO.P,,1*%
%TO.N,N/C*%
X43180000Y-40640000D03*
X43180000Y-40640000D03*
%TD*%
%TO.P,,1*%
%TO.N,N/C*%
X22860000Y-40640000D03*
X22860000Y-40640000D03*
%TD*%
%TO.P,,1*%
%TO.N,N/C*%
X38100000Y-40640000D03*
X38100000Y-40640000D03*
%TD*%
%TO.P,,1*%
%TO.N,N/C*%
X22860000Y-43180000D03*
X22860000Y-43180000D03*
%TD*%
%TO.P,,1*%
%TO.N,N/C*%
X45720000Y-43180000D03*
X45720000Y-43180000D03*
%TD*%
%TO.P,,1*%
%TO.N,N/C*%
X48260000Y-43180000D03*
X48260000Y-43180000D03*
%TD*%
%TO.P,,1*%
%TO.N,N/C*%
X38100000Y-43180000D03*
X38100000Y-43180000D03*
%TD*%
%TO.P,,1*%
%TO.N,N/C*%
X40640000Y-43180000D03*
X40640000Y-43180000D03*
%TD*%
%TO.P,,1*%
%TO.N,N/C*%
X27940000Y-43180000D03*
X27940000Y-43180000D03*
%TD*%
%TO.P,,1*%
%TO.N,N/C*%
X33020000Y-43180000D03*
X33020000Y-43180000D03*
%TD*%
%TO.P,,1*%
%TO.N,N/C*%
X25400000Y-43180000D03*
X25400000Y-43180000D03*
%TD*%
%TO.P,,1*%
%TO.N,N/C*%
X50800000Y-43180000D03*
X50800000Y-43180000D03*
%TD*%
%TO.P,,1*%
%TO.N,N/C*%
X35560000Y-43180000D03*
X35560000Y-43180000D03*
%TD*%
%TO.P,,1*%
%TO.N,N/C*%
X43180000Y-43180000D03*
X43180000Y-43180000D03*
%TD*%
%TO.P,,1*%
%TO.N,N/C*%
X30480000Y-43180000D03*
X30480000Y-43180000D03*
%TD*%
%TO.P,,1*%
%TO.N,N/C*%
X35560000Y-45720000D03*
X35560000Y-45720000D03*
%TD*%
%TO.P,,1*%
%TO.N,N/C*%
X27940000Y-45720000D03*
X27940000Y-45720000D03*
%TD*%
%TO.P,,1*%
%TO.N,N/C*%
X45720000Y-45720000D03*
X45720000Y-45720000D03*
%TD*%
%TO.P,,1*%
%TO.N,N/C*%
X38100000Y-45720000D03*
X38100000Y-45720000D03*
%TD*%
%TO.P,,1*%
%TO.N,N/C*%
X25400000Y-45720000D03*
X25400000Y-45720000D03*
%TD*%
%TO.P,,1*%
%TO.N,N/C*%
X22860000Y-45720000D03*
X22860000Y-45720000D03*
%TD*%
%TO.P,,1*%
%TO.N,N/C*%
X50800000Y-45720000D03*
X50800000Y-45720000D03*
%TD*%
%TO.P,,1*%
%TO.N,N/C*%
X33020000Y-45720000D03*
X33020000Y-45720000D03*
%TD*%
%TO.P,,1*%
%TO.N,N/C*%
X40640000Y-45720000D03*
X40640000Y-45720000D03*
%TD*%
%TO.P,,1*%
%TO.N,N/C*%
X30480000Y-45720000D03*
X30480000Y-45720000D03*
%TD*%
%TO.P,,1*%
%TO.N,N/C*%
X48260000Y-45720000D03*
X48260000Y-45720000D03*
%TD*%
%TO.P,,1*%
%TO.N,N/C*%
X43180000Y-45720000D03*
X43180000Y-45720000D03*
%TD*%
%TO.P,,1*%
%TO.N,N/C*%
X50800000Y-48260000D03*
X50800000Y-48260000D03*
%TD*%
%TO.P,,1*%
%TO.N,N/C*%
X33020000Y-48260000D03*
X33020000Y-48260000D03*
%TD*%
%TO.P,,1*%
%TO.N,N/C*%
X30480000Y-48260000D03*
X30480000Y-48260000D03*
%TD*%
%TO.P,,1*%
%TO.N,N/C*%
X25400000Y-48260000D03*
X25400000Y-48260000D03*
%TD*%
%TO.P,,1*%
%TO.N,N/C*%
X35560000Y-48260000D03*
X35560000Y-48260000D03*
%TD*%
%TO.P,,1*%
%TO.N,N/C*%
X27940000Y-48260000D03*
X27940000Y-48260000D03*
%TD*%
%TO.P,,1*%
%TO.N,N/C*%
X38100000Y-48260000D03*
X38100000Y-48260000D03*
%TD*%
%TO.P,,1*%
%TO.N,N/C*%
X45720000Y-48260000D03*
X45720000Y-48260000D03*
%TD*%
%TO.P,,1*%
%TO.N,N/C*%
X40640000Y-48260000D03*
X40640000Y-48260000D03*
%TD*%
%TO.P,,1*%
%TO.N,N/C*%
X48260000Y-48260000D03*
X48260000Y-48260000D03*
%TD*%
%TO.P,,1*%
%TO.N,N/C*%
X22860000Y-48260000D03*
X22860000Y-48260000D03*
%TD*%
%TO.P,,1*%
%TO.N,N/C*%
X43180000Y-48260000D03*
X43180000Y-48260000D03*
%TD*%
%TO.P,,1*%
%TO.N,N/C*%
X30480000Y-50800000D03*
X30480000Y-50800000D03*
%TD*%
%TO.P,,1*%
%TO.N,N/C*%
X40640000Y-50800000D03*
X40640000Y-50800000D03*
%TD*%
%TO.P,,1*%
%TO.N,N/C*%
X50800000Y-50800000D03*
X50800000Y-50800000D03*
%TD*%
%TO.P,,1*%
%TO.N,N/C*%
X45720000Y-50800000D03*
X45720000Y-50800000D03*
%TD*%
%TO.P,,1*%
%TO.N,N/C*%
X33020000Y-50800000D03*
X33020000Y-50800000D03*
%TD*%
%TO.P,,1*%
%TO.N,N/C*%
X25400000Y-50800000D03*
X25400000Y-50800000D03*
%TD*%
%TO.P,,1*%
%TO.N,N/C*%
X48260000Y-50800000D03*
X48260000Y-50800000D03*
%TD*%
%TO.P,,1*%
%TO.N,N/C*%
X43180000Y-50800000D03*
X43180000Y-50800000D03*
%TD*%
%TO.P,,1*%
%TO.N,N/C*%
X35560000Y-50800000D03*
X35560000Y-50800000D03*
%TD*%
%TO.P,,1*%
%TO.N,N/C*%
X38100000Y-50800000D03*
X38100000Y-50800000D03*
%TD*%
%TO.P,,1*%
%TO.N,N/C*%
X27940000Y-50800000D03*
X27940000Y-50800000D03*
%TD*%
%TO.P,,1*%
%TO.N,N/C*%
X22860000Y-50800000D03*
X22860000Y-50800000D03*
%TD*%
%TO.P,,1*%
%TO.N,N/C*%
X22860000Y-53340000D03*
X22860000Y-53340000D03*
%TD*%
%TO.P,,1*%
%TO.N,N/C*%
X25400000Y-53340000D03*
X25400000Y-53340000D03*
%TD*%
%TO.P,,1*%
%TO.N,N/C*%
X27940000Y-53340000D03*
X27940000Y-53340000D03*
%TD*%
%TO.P,,1*%
%TO.N,N/C*%
X30480000Y-53340000D03*
X30480000Y-53340000D03*
%TD*%
%TO.P,,1*%
%TO.N,N/C*%
X33020000Y-53340000D03*
X33020000Y-53340000D03*
%TD*%
%TO.P,,1*%
%TO.N,N/C*%
X35560000Y-53340000D03*
X35560000Y-53340000D03*
%TD*%
%TO.P,,1*%
%TO.N,N/C*%
X38100000Y-53340000D03*
X38100000Y-53340000D03*
%TD*%
%TO.P,,1*%
%TO.N,N/C*%
X40640000Y-53340000D03*
X40640000Y-53340000D03*
%TD*%
%TO.P,,1*%
%TO.N,N/C*%
X43180000Y-53340000D03*
X43180000Y-53340000D03*
%TD*%
%TO.P,,1*%
%TO.N,N/C*%
X45720000Y-53340000D03*
X45720000Y-53340000D03*
%TD*%
%TO.P,,1*%
%TO.N,N/C*%
X48260000Y-53340000D03*
X48260000Y-53340000D03*
%TD*%
%TO.P,,1*%
%TO.N,N/C*%
X50800000Y-53340000D03*
X50800000Y-53340000D03*
%TD*%
D11*
%TO.P,J1,1,Pin_1*%
%TO.N,unconnected-(J1-Pad1)*%
X94525000Y-58625000D03*
%TO.P,J1,2,Pin_2*%
%TO.N,Net-(J1-Pad2)*%
X91985000Y-58625000D03*
D10*
%TO.P,J1,3,Pin_3*%
%TO.N,Earth*%
X89445000Y-58625000D03*
%TD*%
D11*
%TO.P,J3,5,Pin_5*%
%TO.N,Net-(J2-Pad5)*%
X40075000Y-58625000D03*
%TO.P,J3,4,Pin_4*%
%TO.N,+5V*%
X37535000Y-58625000D03*
%TO.P,J3,3,Pin_3*%
%TO.N,Net-(J2-Pad3)*%
X34995000Y-58625000D03*
%TO.P,J3,2,Pin_2*%
%TO.N,unconnected-(J3-Pad2)*%
X32455000Y-58625000D03*
D10*
%TO.P,J3,1,Pin_1*%
%TO.N,Earth*%
X29915000Y-58625000D03*
%TD*%
D12*
%TO.P,R1,1*%
%TO.N,Net-(U1-Pad32)*%
X77920000Y-54940000D03*
%TO.P,R1,2*%
%TO.N,Earth*%
X77920000Y-56765000D03*
%TD*%
D13*
%TO.P,Q1,1,G*%
%TO.N,Net-(Q1-Pad1)*%
X101937500Y-56950000D03*
%TO.P,Q1,2,S*%
%TO.N,+5V*%
X101937500Y-55050000D03*
%TO.P,Q1,3,D*%
%TO.N,Net-(J1-Pad2)*%
X100062500Y-56000000D03*
%TD*%
D14*
%TO.P,U1,1*%
%TO.N,N/C*%
X103130000Y-29210000D03*
%TO.P,U1,2*%
X100590000Y-29210000D03*
%TO.P,U1,3*%
X98050000Y-29210000D03*
%TO.P,U1,4*%
X95510000Y-29210000D03*
%TO.P,U1,5*%
X92970000Y-29210000D03*
%TO.P,U1,6*%
X90430000Y-29210000D03*
%TO.P,U1,7*%
X87890000Y-29210000D03*
%TO.P,U1,8*%
X85350000Y-29210000D03*
%TO.P,U1,9*%
X82810000Y-29210000D03*
%TO.P,U1,10*%
X80270000Y-29210000D03*
%TO.P,U1,11*%
X77730000Y-29210000D03*
%TO.P,U1,12*%
X75190000Y-29210000D03*
%TO.P,U1,13*%
X72650000Y-29210000D03*
%TO.P,U1,14*%
X70110000Y-29210000D03*
%TO.P,U1,15*%
X67570000Y-29210000D03*
%TO.P,U1,16*%
X65030000Y-29210000D03*
%TO.P,U1,17*%
X62490000Y-29210000D03*
%TO.P,U1,18*%
X59950000Y-29210000D03*
%TO.P,U1,19*%
X57410000Y-29210000D03*
%TO.P,U1,20*%
X54870000Y-29210000D03*
%TO.P,U1,21*%
X54870000Y-48790000D03*
%TO.P,U1,22*%
X57410000Y-48790000D03*
%TO.P,U1,23*%
X59950000Y-48790000D03*
%TO.P,U1,24*%
X62490000Y-48790000D03*
%TO.P,U1,25*%
X65030000Y-48790000D03*
%TO.P,U1,26*%
X67570000Y-48790000D03*
%TO.P,U1,27*%
X70110000Y-48790000D03*
%TO.P,U1,28*%
X72650000Y-48790000D03*
%TO.P,U1,29*%
X75190000Y-48790000D03*
%TO.P,U1,30*%
X77730000Y-48790000D03*
%TO.P,U1,31*%
%TO.N,Net-(R3-Pad2)*%
X80270000Y-48790000D03*
%TO.P,U1,32*%
%TO.N,Net-(U1-Pad32)*%
X82810000Y-48790000D03*
%TO.P,U1,33*%
%TO.N,N/C*%
X85350000Y-48790000D03*
%TO.P,U1,34*%
X87890000Y-48790000D03*
%TO.P,U1,35*%
X90430000Y-48790000D03*
%TO.P,U1,36*%
X92970000Y-48790000D03*
%TO.P,U1,37*%
X95510000Y-48790000D03*
%TO.P,U1,38*%
%TO.N,Earth*%
X98050000Y-48790000D03*
%TO.P,U1,39*%
%TO.N,+5V*%
X100590000Y-48790000D03*
%TO.P,U1,40*%
%TO.N,Net-(Q1-Pad1)*%
X103130000Y-48790000D03*
D15*
%TO.P,U1,41*%
%TO.N,N/C*%
X54200000Y-36460000D03*
%TO.P,U1,42*%
X54200000Y-39000000D03*
%TO.P,U1,43*%
X54200000Y-41540000D03*
%TD*%
D12*
%TO.P,R4,1*%
%TO.N,Net-(R3-Pad2)*%
X68139875Y-54827250D03*
%TO.P,R4,2*%
%TO.N,Earth*%
X68139875Y-56652250D03*
%TD*%
D16*
%TO.P,R3,1*%
%TO.N,Net-(J2-Pad3)*%
X73049875Y-56662500D03*
%TO.P,R3,2*%
%TO.N,Net-(R3-Pad2)*%
X73049875Y-54837500D03*
%TD*%
%TO.P,R2,1*%
%TO.N,Net-(J2-Pad5)*%
X82820000Y-56765000D03*
%TO.P,R2,2*%
%TO.N,Net-(U1-Pad32)*%
X82820000Y-54940000D03*
%TD*%
D10*
%TO.P,J2,1,Pin_1*%
%TO.N,Earth*%
X64571000Y-58319000D03*
D11*
%TO.P,J2,2,Pin_2*%
%TO.N,unconnected-(J2-Pad2)*%
X62031000Y-58319000D03*
%TO.P,J2,3,Pin_3*%
%TO.N,Net-(J2-Pad3)*%
X59491000Y-58319000D03*
%TO.P,J2,4,Pin_4*%
%TO.N,+5V*%
X56951000Y-58319000D03*
%TO.P,J2,5,Pin_5*%
%TO.N,Net-(J2-Pad5)*%
X54411000Y-58319000D03*
%TD*%
D17*
%TO.N,*%
X93140080Y-45691360D03*
%TO.N,Net-(J2-Pad3)*%
X74600000Y-56660000D03*
%TO.N,Net-(J2-Pad5)*%
X84410000Y-56770000D03*
%TD*%
D18*
%TO.N,*%
X50800000Y-40640000D02*
X50800000Y-38100000D01*
X50800000Y-43180000D02*
X50800000Y-40640000D01*
X93140080Y-45691360D02*
X93140080Y-47719920D01*
X93140080Y-47719920D02*
X92970000Y-47890000D01*
D19*
X50800000Y-48260000D02*
X50800000Y-45720000D01*
X50800000Y-50800000D02*
X50800000Y-48260000D01*
X50800000Y-53340000D02*
X50800000Y-50800000D01*
X59950000Y-47890000D02*
X59950000Y-52521040D01*
X59950000Y-52521040D02*
X59131040Y-53340000D01*
X59131040Y-53340000D02*
X50800000Y-53340000D01*
X87890000Y-47890000D02*
X74268520Y-34268520D01*
X74268520Y-34268520D02*
X52091480Y-34268520D01*
X52091480Y-34268520D02*
X50800000Y-35560000D01*
X95510000Y-30110000D02*
X95510000Y-31898600D01*
X95510000Y-31898600D02*
X94388600Y-33020000D01*
X94388600Y-33020000D02*
X50800000Y-33020000D01*
X52720800Y-27239080D02*
X52720800Y-29875120D01*
X100590000Y-26780880D02*
X100169520Y-26360400D01*
X100590000Y-30110000D02*
X100590000Y-26780880D01*
X100169520Y-26360400D02*
X53599480Y-26360400D01*
X53599480Y-26360400D02*
X52720800Y-27239080D01*
X52720800Y-29875120D02*
X52115920Y-30480000D01*
X52115920Y-30480000D02*
X50800000Y-30480000D01*
X103130000Y-30110000D02*
X103130000Y-25806160D01*
X50800000Y-26523840D02*
X50800000Y-27940000D01*
X103130000Y-25806160D02*
X102805560Y-25481720D01*
X102805560Y-25481720D02*
X51842120Y-25481720D01*
X51842120Y-25481720D02*
X50800000Y-26523840D01*
D18*
%TO.N,Net-(J1-Pad2)*%
X91985000Y-58625000D02*
X94610000Y-56000000D01*
X94610000Y-56000000D02*
X100062500Y-56000000D01*
%TO.N,Earth*%
X70201000Y-58319000D02*
X64571000Y-58319000D01*
X89445000Y-58625000D02*
X74775000Y-58625000D01*
X77920000Y-56765000D02*
X77920000Y-58602500D01*
X74469000Y-58319000D02*
X71371000Y-58319000D01*
X74775000Y-58625000D02*
X74469000Y-58319000D01*
X71371000Y-58319000D02*
X70201000Y-58319000D01*
X29915000Y-58225000D02*
X29915000Y-58625000D01*
X93350000Y-54720000D02*
X95660000Y-54720000D01*
X95660000Y-54720000D02*
X98050000Y-52330000D01*
X98050000Y-52330000D02*
X98050000Y-47890000D01*
X32720000Y-55420000D02*
X29915000Y-58225000D01*
X89445000Y-58625000D02*
X93350000Y-54720000D01*
X61672000Y-55420000D02*
X32720000Y-55420000D01*
X68139875Y-56652250D02*
X68139875Y-58307750D01*
X70200000Y-58318000D02*
X70201000Y-58319000D01*
X64571000Y-58319000D02*
X61672000Y-55420000D01*
%TO.N,Net-(J2-Pad3)*%
X34995000Y-58625000D02*
X37310000Y-56310000D01*
X73052375Y-56660000D02*
X73049875Y-56662500D01*
X37310000Y-56310000D02*
X57482000Y-56310000D01*
X57482000Y-56310000D02*
X59491000Y-58319000D01*
X74600000Y-56660000D02*
X73052375Y-56660000D01*
%TO.N,+5V*%
X59700000Y-61090000D02*
X59700000Y-61068000D01*
X96381751Y-61090000D02*
X59700000Y-61090000D01*
X101937500Y-55050000D02*
X101937500Y-55534251D01*
X100590000Y-52330000D02*
X100590000Y-47890000D01*
X39016000Y-57144000D02*
X37535000Y-58625000D01*
X55776000Y-57144000D02*
X39016000Y-57144000D01*
X56951000Y-58319000D02*
X55776000Y-57144000D01*
X59700000Y-61068000D02*
X56951000Y-58319000D01*
X101937500Y-55050000D02*
X101937500Y-53677500D01*
X101937500Y-55534251D02*
X96381751Y-61090000D01*
X101937500Y-53677500D02*
X100590000Y-52330000D01*
%TO.N,Net-(Q1-Pad1)*%
X103130000Y-55757500D02*
X101937500Y-56950000D01*
X103130000Y-47890000D02*
X103130000Y-55757500D01*
%TO.N,Net-(J2-Pad5)*%
X41360000Y-59910000D02*
X52820000Y-59910000D01*
X84410000Y-56770000D02*
X82825000Y-56770000D01*
X40075000Y-58625000D02*
X41360000Y-59910000D01*
X82825000Y-56770000D02*
X82820000Y-56765000D01*
X52820000Y-59910000D02*
X54411000Y-58319000D01*
%TO.N,Net-(U1-Pad32)*%
X82820000Y-54940000D02*
X77920000Y-54940000D01*
X82820000Y-54940000D02*
X82820000Y-47900000D01*
X82820000Y-47900000D02*
X82810000Y-47890000D01*
%TO.N,Net-(R3-Pad2)*%
X78540000Y-52570000D02*
X80270000Y-50840000D01*
X75317375Y-52570000D02*
X78540000Y-52570000D01*
X68790250Y-54837500D02*
X68780000Y-54827250D01*
X80270000Y-50840000D02*
X80270000Y-47890000D01*
X73049875Y-54837500D02*
X68150125Y-54837500D01*
X73049875Y-54837500D02*
X75317375Y-52570000D01*
%TD*%
M02*
