%TF.GenerationSoftware,KiCad,Pcbnew,(6.0.9)*%
%TF.CreationDate,2022-11-20T11:02:21-05:00*%
%TF.ProjectId,RadarProject,52616461-7250-4726-9f6a-6563742e6b69,rev?*%
%TF.SameCoordinates,Original*%
%TF.FileFunction,Legend,Top*%
%TF.FilePolarity,Positive*%
%FSLAX46Y46*%
G04 Gerber Fmt 4.6, Leading zero omitted, Abs format (unit mm)*
G04 Created by KiCad (PCBNEW (6.0.9)) date 2022-11-20 11:02:21*
%MOMM*%
%LPD*%
G01*
G04 APERTURE LIST*
%ADD10C,0.150000*%
%ADD11C,0.200000*%
%ADD12C,0.381000*%
%ADD13C,0.300000*%
%ADD14C,0.177800*%
%ADD15C,0.120000*%
%ADD16C,0.010000*%
G04 APERTURE END LIST*
D10*
X39721780Y-63570000D02*
G75*
G03*
X39721780Y-63570000I-281780J0D01*
G01*
X30876056Y-52410000D02*
G75*
G03*
X30876056Y-52410000I-36056J0D01*
G01*
X82260000Y-26210000D02*
G75*
G03*
X82260000Y-26210000I-30000J0D01*
G01*
X45160000Y-66880000D02*
X44440000Y-66880000D01*
D11*
X53221904Y-67342380D02*
X52888571Y-66866190D01*
X52650476Y-67342380D02*
X52650476Y-66342380D01*
X53031428Y-66342380D01*
X53126666Y-66390000D01*
X53174285Y-66437619D01*
X53221904Y-66532857D01*
X53221904Y-66675714D01*
X53174285Y-66770952D01*
X53126666Y-66818571D01*
X53031428Y-66866190D01*
X52650476Y-66866190D01*
X54031428Y-67294761D02*
X53936190Y-67342380D01*
X53745714Y-67342380D01*
X53650476Y-67294761D01*
X53602857Y-67199523D01*
X53602857Y-66818571D01*
X53650476Y-66723333D01*
X53745714Y-66675714D01*
X53936190Y-66675714D01*
X54031428Y-66723333D01*
X54079047Y-66818571D01*
X54079047Y-66913809D01*
X53602857Y-67009047D01*
X54412380Y-66675714D02*
X54650476Y-67342380D01*
X54888571Y-66675714D01*
X55269523Y-67342380D02*
X55269523Y-66675714D01*
X55269523Y-66342380D02*
X55221904Y-66390000D01*
X55269523Y-66437619D01*
X55317142Y-66390000D01*
X55269523Y-66342380D01*
X55269523Y-66437619D01*
X55698095Y-67294761D02*
X55793333Y-67342380D01*
X55983809Y-67342380D01*
X56079047Y-67294761D01*
X56126666Y-67199523D01*
X56126666Y-67151904D01*
X56079047Y-67056666D01*
X55983809Y-67009047D01*
X55840952Y-67009047D01*
X55745714Y-66961428D01*
X55698095Y-66866190D01*
X55698095Y-66818571D01*
X55745714Y-66723333D01*
X55840952Y-66675714D01*
X55983809Y-66675714D01*
X56079047Y-66723333D01*
X56555238Y-67342380D02*
X56555238Y-66675714D01*
X56555238Y-66342380D02*
X56507619Y-66390000D01*
X56555238Y-66437619D01*
X56602857Y-66390000D01*
X56555238Y-66342380D01*
X56555238Y-66437619D01*
X57174285Y-67342380D02*
X57079047Y-67294761D01*
X57031428Y-67247142D01*
X56983809Y-67151904D01*
X56983809Y-66866190D01*
X57031428Y-66770952D01*
X57079047Y-66723333D01*
X57174285Y-66675714D01*
X57317142Y-66675714D01*
X57412380Y-66723333D01*
X57460000Y-66770952D01*
X57507619Y-66866190D01*
X57507619Y-67151904D01*
X57460000Y-67247142D01*
X57412380Y-67294761D01*
X57317142Y-67342380D01*
X57174285Y-67342380D01*
X57936190Y-66675714D02*
X57936190Y-67342380D01*
X57936190Y-66770952D02*
X57983809Y-66723333D01*
X58079047Y-66675714D01*
X58221904Y-66675714D01*
X58317142Y-66723333D01*
X58364761Y-66818571D01*
X58364761Y-67342380D01*
X59602857Y-67342380D02*
X59602857Y-66342380D01*
X59936190Y-67056666D01*
X60269523Y-66342380D01*
X60269523Y-67342380D01*
X60745714Y-67342380D02*
X60745714Y-66342380D01*
X60840952Y-66961428D02*
X61126666Y-67342380D01*
X61126666Y-66675714D02*
X60745714Y-67056666D01*
X61555238Y-67247142D02*
X61602857Y-67294761D01*
X61555238Y-67342380D01*
X61507619Y-67294761D01*
X61555238Y-67247142D01*
X61555238Y-67342380D01*
X62793333Y-67342380D02*
X62793333Y-66342380D01*
X63269523Y-67342380D02*
X63269523Y-66342380D01*
D10*
X90499523Y-51767142D02*
X90451904Y-51814761D01*
X90309047Y-51862380D01*
X90213809Y-51862380D01*
X90070952Y-51814761D01*
X89975714Y-51719523D01*
X89928095Y-51624285D01*
X89880476Y-51433809D01*
X89880476Y-51290952D01*
X89928095Y-51100476D01*
X89975714Y-51005238D01*
X90070952Y-50910000D01*
X90213809Y-50862380D01*
X90309047Y-50862380D01*
X90451904Y-50910000D01*
X90499523Y-50957619D01*
X91499523Y-51862380D02*
X91166190Y-51386190D01*
X90928095Y-51862380D02*
X90928095Y-50862380D01*
X91309047Y-50862380D01*
X91404285Y-50910000D01*
X91451904Y-50957619D01*
X91499523Y-51052857D01*
X91499523Y-51195714D01*
X91451904Y-51290952D01*
X91404285Y-51338571D01*
X91309047Y-51386190D01*
X90928095Y-51386190D01*
X91928095Y-51862380D02*
X91928095Y-50862380D01*
X92356666Y-51814761D02*
X92499523Y-51862380D01*
X92737619Y-51862380D01*
X92832857Y-51814761D01*
X92880476Y-51767142D01*
X92928095Y-51671904D01*
X92928095Y-51576666D01*
X92880476Y-51481428D01*
X92832857Y-51433809D01*
X92737619Y-51386190D01*
X92547142Y-51338571D01*
X92451904Y-51290952D01*
X92404285Y-51243333D01*
X92356666Y-51148095D01*
X92356666Y-51052857D01*
X92404285Y-50957619D01*
X92451904Y-50910000D01*
X92547142Y-50862380D01*
X92785238Y-50862380D01*
X92928095Y-50910000D01*
X93356666Y-51862380D02*
X93356666Y-50862380D01*
X93737619Y-50862380D01*
X93832857Y-50910000D01*
X93880476Y-50957619D01*
X93928095Y-51052857D01*
X93928095Y-51195714D01*
X93880476Y-51290952D01*
X93832857Y-51338571D01*
X93737619Y-51386190D01*
X93356666Y-51386190D01*
X94928095Y-51862380D02*
X94594761Y-51386190D01*
X94356666Y-51862380D02*
X94356666Y-50862380D01*
X94737619Y-50862380D01*
X94832857Y-50910000D01*
X94880476Y-50957619D01*
X94928095Y-51052857D01*
X94928095Y-51195714D01*
X94880476Y-51290952D01*
X94832857Y-51338571D01*
X94737619Y-51386190D01*
X94356666Y-51386190D01*
X96118571Y-51862380D02*
X96118571Y-50862380D01*
X96451904Y-51576666D01*
X96785238Y-50862380D01*
X96785238Y-51862380D01*
X97261428Y-51338571D02*
X97594761Y-51338571D01*
X97737619Y-51862380D02*
X97261428Y-51862380D01*
X97261428Y-50862380D01*
X97737619Y-50862380D01*
X92356666Y-53424761D02*
X92499523Y-53472380D01*
X92737619Y-53472380D01*
X92832857Y-53424761D01*
X92880476Y-53377142D01*
X92928095Y-53281904D01*
X92928095Y-53186666D01*
X92880476Y-53091428D01*
X92832857Y-53043809D01*
X92737619Y-52996190D01*
X92547142Y-52948571D01*
X92451904Y-52900952D01*
X92404285Y-52853333D01*
X92356666Y-52758095D01*
X92356666Y-52662857D01*
X92404285Y-52567619D01*
X92451904Y-52520000D01*
X92547142Y-52472380D01*
X92785238Y-52472380D01*
X92928095Y-52520000D01*
X93547142Y-52472380D02*
X93737619Y-52472380D01*
X93832857Y-52520000D01*
X93928095Y-52615238D01*
X93975714Y-52805714D01*
X93975714Y-53139047D01*
X93928095Y-53329523D01*
X93832857Y-53424761D01*
X93737619Y-53472380D01*
X93547142Y-53472380D01*
X93451904Y-53424761D01*
X93356666Y-53329523D01*
X93309047Y-53139047D01*
X93309047Y-52805714D01*
X93356666Y-52615238D01*
X93451904Y-52520000D01*
X93547142Y-52472380D01*
X94404285Y-53472380D02*
X94404285Y-52472380D01*
X94737619Y-53186666D01*
X95070952Y-52472380D01*
X95070952Y-53472380D01*
X95547142Y-52948571D02*
X95880476Y-52948571D01*
X96023333Y-53472380D02*
X95547142Y-53472380D01*
X95547142Y-52472380D01*
X96023333Y-52472380D01*
X91213809Y-54987142D02*
X91166190Y-55034761D01*
X91023333Y-55082380D01*
X90928095Y-55082380D01*
X90785238Y-55034761D01*
X90690000Y-54939523D01*
X90642380Y-54844285D01*
X90594761Y-54653809D01*
X90594761Y-54510952D01*
X90642380Y-54320476D01*
X90690000Y-54225238D01*
X90785238Y-54130000D01*
X90928095Y-54082380D01*
X91023333Y-54082380D01*
X91166190Y-54130000D01*
X91213809Y-54177619D01*
X91594761Y-54796666D02*
X92070952Y-54796666D01*
X91499523Y-55082380D02*
X91832857Y-54082380D01*
X92166190Y-55082380D01*
X92356666Y-54082380D02*
X92928095Y-54082380D01*
X92642380Y-55082380D02*
X92642380Y-54082380D01*
X94023333Y-54558571D02*
X94356666Y-54558571D01*
X94499523Y-55082380D02*
X94023333Y-55082380D01*
X94023333Y-54082380D01*
X94499523Y-54082380D01*
X94880476Y-54796666D02*
X95356666Y-54796666D01*
X94785238Y-55082380D02*
X95118571Y-54082380D01*
X95451904Y-55082380D01*
X96356666Y-55082380D02*
X96023333Y-54606190D01*
X95785238Y-55082380D02*
X95785238Y-54082380D01*
X96166190Y-54082380D01*
X96261428Y-54130000D01*
X96309047Y-54177619D01*
X96356666Y-54272857D01*
X96356666Y-54415714D01*
X96309047Y-54510952D01*
X96261428Y-54558571D01*
X96166190Y-54606190D01*
X95785238Y-54606190D01*
X96737619Y-55034761D02*
X96880476Y-55082380D01*
X97118571Y-55082380D01*
X97213809Y-55034761D01*
X97261428Y-54987142D01*
X97309047Y-54891904D01*
X97309047Y-54796666D01*
X97261428Y-54701428D01*
X97213809Y-54653809D01*
X97118571Y-54606190D01*
X96928095Y-54558571D01*
X96832857Y-54510952D01*
X96785238Y-54463333D01*
X96737619Y-54368095D01*
X96737619Y-54272857D01*
X96785238Y-54177619D01*
X96832857Y-54130000D01*
X96928095Y-54082380D01*
X97166190Y-54082380D01*
X97309047Y-54130000D01*
X97737619Y-54987142D02*
X97785238Y-55034761D01*
X97737619Y-55082380D01*
X97690000Y-55034761D01*
X97737619Y-54987142D01*
X97737619Y-55082380D01*
X97737619Y-54701428D02*
X97690000Y-54130000D01*
X97737619Y-54082380D01*
X97785238Y-54130000D01*
X97737619Y-54701428D01*
X97737619Y-54082380D01*
D12*
X38749333Y-54499666D02*
X39003333Y-54584333D01*
X39426666Y-54584333D01*
X39596000Y-54499666D01*
X39680666Y-54415000D01*
X39765333Y-54245666D01*
X39765333Y-54076333D01*
X39680666Y-53907000D01*
X39596000Y-53822333D01*
X39426666Y-53737666D01*
X39088000Y-53653000D01*
X38918666Y-53568333D01*
X38834000Y-53483666D01*
X38749333Y-53314333D01*
X38749333Y-53145000D01*
X38834000Y-52975666D01*
X38918666Y-52891000D01*
X39088000Y-52806333D01*
X39511333Y-52806333D01*
X39765333Y-52891000D01*
X41289333Y-54499666D02*
X41120000Y-54584333D01*
X40781333Y-54584333D01*
X40612000Y-54499666D01*
X40527333Y-54415000D01*
X40442666Y-54245666D01*
X40442666Y-53737666D01*
X40527333Y-53568333D01*
X40612000Y-53483666D01*
X40781333Y-53399000D01*
X41120000Y-53399000D01*
X41289333Y-53483666D01*
X42051333Y-54584333D02*
X42051333Y-52806333D01*
X42220666Y-53907000D02*
X42728666Y-54584333D01*
X42728666Y-53399000D02*
X42051333Y-54076333D01*
X43321333Y-53399000D02*
X44252666Y-53399000D01*
X43321333Y-54584333D01*
X44252666Y-54584333D01*
X45184000Y-54584333D02*
X45014666Y-54499666D01*
X44930000Y-54415000D01*
X44845333Y-54245666D01*
X44845333Y-53737666D01*
X44930000Y-53568333D01*
X45014666Y-53483666D01*
X45184000Y-53399000D01*
X45438000Y-53399000D01*
X45607333Y-53483666D01*
X45692000Y-53568333D01*
X45776666Y-53737666D01*
X45776666Y-54245666D01*
X45692000Y-54415000D01*
X45607333Y-54499666D01*
X45438000Y-54584333D01*
X45184000Y-54584333D01*
X46538666Y-54584333D02*
X46538666Y-53399000D01*
X46538666Y-53737666D02*
X46623333Y-53568333D01*
X46708000Y-53483666D01*
X46877333Y-53399000D01*
X47046666Y-53399000D01*
X47724000Y-52806333D02*
X47554666Y-53145000D01*
X48401333Y-54499666D02*
X48570666Y-54584333D01*
X48909333Y-54584333D01*
X49078666Y-54499666D01*
X49163333Y-54330333D01*
X49163333Y-54245666D01*
X49078666Y-54076333D01*
X48909333Y-53991666D01*
X48655333Y-53991666D01*
X48486000Y-53907000D01*
X48401333Y-53737666D01*
X48401333Y-53653000D01*
X48486000Y-53483666D01*
X48655333Y-53399000D01*
X48909333Y-53399000D01*
X49078666Y-53483666D01*
X51195333Y-52975666D02*
X51280000Y-52891000D01*
X51449333Y-52806333D01*
X51872666Y-52806333D01*
X52042000Y-52891000D01*
X52126666Y-52975666D01*
X52211333Y-53145000D01*
X52211333Y-53314333D01*
X52126666Y-53568333D01*
X51110666Y-54584333D01*
X52211333Y-54584333D01*
X52973333Y-54415000D02*
X53058000Y-54499666D01*
X52973333Y-54584333D01*
X52888666Y-54499666D01*
X52973333Y-54415000D01*
X52973333Y-54584333D01*
X54582000Y-53399000D02*
X54582000Y-54584333D01*
X54158666Y-52721666D02*
X53735333Y-53991666D01*
X54836000Y-53991666D01*
X56444666Y-52891000D02*
X56275333Y-52806333D01*
X56021333Y-52806333D01*
X55767333Y-52891000D01*
X55598000Y-53060333D01*
X55513333Y-53229666D01*
X55428666Y-53568333D01*
X55428666Y-53822333D01*
X55513333Y-54161000D01*
X55598000Y-54330333D01*
X55767333Y-54499666D01*
X56021333Y-54584333D01*
X56190666Y-54584333D01*
X56444666Y-54499666D01*
X56529333Y-54415000D01*
X56529333Y-53822333D01*
X56190666Y-53822333D01*
X57291333Y-54584333D02*
X57291333Y-52806333D01*
X57291333Y-53653000D02*
X58307333Y-53653000D01*
X58307333Y-54584333D02*
X58307333Y-52806333D01*
X58984666Y-53399000D02*
X59916000Y-53399000D01*
X58984666Y-54584333D01*
X59916000Y-54584333D01*
X62964000Y-54584333D02*
X62371333Y-53737666D01*
X61948000Y-54584333D02*
X61948000Y-52806333D01*
X62625333Y-52806333D01*
X62794666Y-52891000D01*
X62879333Y-52975666D01*
X62964000Y-53145000D01*
X62964000Y-53399000D01*
X62879333Y-53568333D01*
X62794666Y-53653000D01*
X62625333Y-53737666D01*
X61948000Y-53737666D01*
X64488000Y-54584333D02*
X64488000Y-53653000D01*
X64403333Y-53483666D01*
X64234000Y-53399000D01*
X63895333Y-53399000D01*
X63726000Y-53483666D01*
X64488000Y-54499666D02*
X64318666Y-54584333D01*
X63895333Y-54584333D01*
X63726000Y-54499666D01*
X63641333Y-54330333D01*
X63641333Y-54161000D01*
X63726000Y-53991666D01*
X63895333Y-53907000D01*
X64318666Y-53907000D01*
X64488000Y-53822333D01*
X66096666Y-54584333D02*
X66096666Y-52806333D01*
X66096666Y-54499666D02*
X65927333Y-54584333D01*
X65588666Y-54584333D01*
X65419333Y-54499666D01*
X65334666Y-54415000D01*
X65250000Y-54245666D01*
X65250000Y-53737666D01*
X65334666Y-53568333D01*
X65419333Y-53483666D01*
X65588666Y-53399000D01*
X65927333Y-53399000D01*
X66096666Y-53483666D01*
X67705333Y-54584333D02*
X67705333Y-53653000D01*
X67620666Y-53483666D01*
X67451333Y-53399000D01*
X67112666Y-53399000D01*
X66943333Y-53483666D01*
X67705333Y-54499666D02*
X67536000Y-54584333D01*
X67112666Y-54584333D01*
X66943333Y-54499666D01*
X66858666Y-54330333D01*
X66858666Y-54161000D01*
X66943333Y-53991666D01*
X67112666Y-53907000D01*
X67536000Y-53907000D01*
X67705333Y-53822333D01*
X68552000Y-54584333D02*
X68552000Y-53399000D01*
X68552000Y-53737666D02*
X68636666Y-53568333D01*
X68721333Y-53483666D01*
X68890666Y-53399000D01*
X69060000Y-53399000D01*
D10*
X85277142Y-65932380D02*
X85848571Y-65932380D01*
X85562857Y-66932380D02*
X85562857Y-65932380D01*
X86181904Y-66932380D02*
X86181904Y-65932380D01*
X86610476Y-66932380D02*
X86610476Y-66408571D01*
X86562857Y-66313333D01*
X86467619Y-66265714D01*
X86324761Y-66265714D01*
X86229523Y-66313333D01*
X86181904Y-66360952D01*
X87086666Y-66932380D02*
X87086666Y-66265714D01*
X87086666Y-65932380D02*
X87039047Y-65980000D01*
X87086666Y-66027619D01*
X87134285Y-65980000D01*
X87086666Y-65932380D01*
X87086666Y-66027619D01*
X87515238Y-66884761D02*
X87610476Y-66932380D01*
X87800952Y-66932380D01*
X87896190Y-66884761D01*
X87943809Y-66789523D01*
X87943809Y-66741904D01*
X87896190Y-66646666D01*
X87800952Y-66599047D01*
X87658095Y-66599047D01*
X87562857Y-66551428D01*
X87515238Y-66456190D01*
X87515238Y-66408571D01*
X87562857Y-66313333D01*
X87658095Y-66265714D01*
X87800952Y-66265714D01*
X87896190Y-66313333D01*
X89134285Y-66932380D02*
X89134285Y-66265714D01*
X89134285Y-65932380D02*
X89086666Y-65980000D01*
X89134285Y-66027619D01*
X89181904Y-65980000D01*
X89134285Y-65932380D01*
X89134285Y-66027619D01*
X89562857Y-66884761D02*
X89658095Y-66932380D01*
X89848571Y-66932380D01*
X89943809Y-66884761D01*
X89991428Y-66789523D01*
X89991428Y-66741904D01*
X89943809Y-66646666D01*
X89848571Y-66599047D01*
X89705714Y-66599047D01*
X89610476Y-66551428D01*
X89562857Y-66456190D01*
X89562857Y-66408571D01*
X89610476Y-66313333D01*
X89705714Y-66265714D01*
X89848571Y-66265714D01*
X89943809Y-66313333D01*
X91610476Y-66265714D02*
X91610476Y-66932380D01*
X91181904Y-66265714D02*
X91181904Y-66789523D01*
X91229523Y-66884761D01*
X91324761Y-66932380D01*
X91467619Y-66932380D01*
X91562857Y-66884761D01*
X91610476Y-66837142D01*
X92086666Y-66265714D02*
X92086666Y-66932380D01*
X92086666Y-66360952D02*
X92134285Y-66313333D01*
X92229523Y-66265714D01*
X92372380Y-66265714D01*
X92467619Y-66313333D01*
X92515238Y-66408571D01*
X92515238Y-66932380D01*
X92991428Y-66932380D02*
X92991428Y-65932380D01*
X93420000Y-66932380D02*
X93420000Y-66408571D01*
X93372380Y-66313333D01*
X93277142Y-66265714D01*
X93134285Y-66265714D01*
X93039047Y-66313333D01*
X92991428Y-66360952D01*
X94277142Y-66884761D02*
X94181904Y-66932380D01*
X93991428Y-66932380D01*
X93896190Y-66884761D01*
X93848571Y-66789523D01*
X93848571Y-66408571D01*
X93896190Y-66313333D01*
X93991428Y-66265714D01*
X94181904Y-66265714D01*
X94277142Y-66313333D01*
X94324761Y-66408571D01*
X94324761Y-66503809D01*
X93848571Y-66599047D01*
X95181904Y-66932380D02*
X95181904Y-66408571D01*
X95134285Y-66313333D01*
X95039047Y-66265714D01*
X94848571Y-66265714D01*
X94753333Y-66313333D01*
X95181904Y-66884761D02*
X95086666Y-66932380D01*
X94848571Y-66932380D01*
X94753333Y-66884761D01*
X94705714Y-66789523D01*
X94705714Y-66694285D01*
X94753333Y-66599047D01*
X94848571Y-66551428D01*
X95086666Y-66551428D01*
X95181904Y-66503809D01*
X95800952Y-66932380D02*
X95705714Y-66884761D01*
X95658095Y-66789523D01*
X95658095Y-65932380D01*
X96039047Y-66265714D02*
X96420000Y-66265714D01*
X96181904Y-65932380D02*
X96181904Y-66789523D01*
X96229523Y-66884761D01*
X96324761Y-66932380D01*
X96420000Y-66932380D01*
X96753333Y-66932380D02*
X96753333Y-65932380D01*
X97181904Y-66932380D02*
X97181904Y-66408571D01*
X97134285Y-66313333D01*
X97039047Y-66265714D01*
X96896190Y-66265714D01*
X96800952Y-66313333D01*
X96753333Y-66360952D01*
X97562857Y-66265714D02*
X97800952Y-66932380D01*
X98039047Y-66265714D02*
X97800952Y-66932380D01*
X97705714Y-67170476D01*
X97658095Y-67218095D01*
X97562857Y-67265714D01*
X98420000Y-66837142D02*
X98467619Y-66884761D01*
X98420000Y-66932380D01*
X98372380Y-66884761D01*
X98420000Y-66837142D01*
X98420000Y-66932380D01*
D13*
X27867142Y-21752857D02*
X28081428Y-21824285D01*
X28152857Y-21895714D01*
X28224285Y-22038571D01*
X28224285Y-22252857D01*
X28152857Y-22395714D01*
X28081428Y-22467142D01*
X27938571Y-22538571D01*
X27367142Y-22538571D01*
X27367142Y-21038571D01*
X27867142Y-21038571D01*
X28010000Y-21110000D01*
X28081428Y-21181428D01*
X28152857Y-21324285D01*
X28152857Y-21467142D01*
X28081428Y-21610000D01*
X28010000Y-21681428D01*
X27867142Y-21752857D01*
X27367142Y-21752857D01*
X29438571Y-22467142D02*
X29295714Y-22538571D01*
X29010000Y-22538571D01*
X28867142Y-22467142D01*
X28795714Y-22324285D01*
X28795714Y-21752857D01*
X28867142Y-21610000D01*
X29010000Y-21538571D01*
X29295714Y-21538571D01*
X29438571Y-21610000D01*
X29510000Y-21752857D01*
X29510000Y-21895714D01*
X28795714Y-22038571D01*
X30152857Y-22538571D02*
X30152857Y-21038571D01*
X30795714Y-22538571D02*
X30795714Y-21752857D01*
X30724285Y-21610000D01*
X30581428Y-21538571D01*
X30367142Y-21538571D01*
X30224285Y-21610000D01*
X30152857Y-21681428D01*
X31724285Y-22538571D02*
X31581428Y-22467142D01*
X31510000Y-22395714D01*
X31438571Y-22252857D01*
X31438571Y-21824285D01*
X31510000Y-21681428D01*
X31581428Y-21610000D01*
X31724285Y-21538571D01*
X31938571Y-21538571D01*
X32081428Y-21610000D01*
X32152857Y-21681428D01*
X32224285Y-21824285D01*
X32224285Y-22252857D01*
X32152857Y-22395714D01*
X32081428Y-22467142D01*
X31938571Y-22538571D01*
X31724285Y-22538571D01*
X33081428Y-22538571D02*
X32938571Y-22467142D01*
X32867142Y-22324285D01*
X32867142Y-21038571D01*
X34295714Y-22538571D02*
X34295714Y-21038571D01*
X34295714Y-22467142D02*
X34152857Y-22538571D01*
X33867142Y-22538571D01*
X33724285Y-22467142D01*
X33652857Y-22395714D01*
X33581428Y-22252857D01*
X33581428Y-21824285D01*
X33652857Y-21681428D01*
X33724285Y-21610000D01*
X33867142Y-21538571D01*
X34152857Y-21538571D01*
X34295714Y-21610000D01*
X35081428Y-22467142D02*
X35081428Y-22538571D01*
X35010000Y-22681428D01*
X34938571Y-22752857D01*
X36867142Y-22538571D02*
X36867142Y-21538571D01*
X36867142Y-21681428D02*
X36938571Y-21610000D01*
X37081428Y-21538571D01*
X37295714Y-21538571D01*
X37438571Y-21610000D01*
X37510000Y-21752857D01*
X37510000Y-22538571D01*
X37510000Y-21752857D02*
X37581428Y-21610000D01*
X37724285Y-21538571D01*
X37938571Y-21538571D01*
X38081428Y-21610000D01*
X38152857Y-21752857D01*
X38152857Y-22538571D01*
X38724285Y-21538571D02*
X39081428Y-22538571D01*
X39438571Y-21538571D02*
X39081428Y-22538571D01*
X38938571Y-22895714D01*
X38867142Y-22967142D01*
X38724285Y-23038571D01*
X41367142Y-22538571D02*
X41224285Y-22467142D01*
X41152857Y-22324285D01*
X41152857Y-21038571D01*
X42581428Y-22538571D02*
X42581428Y-21752857D01*
X42510000Y-21610000D01*
X42367142Y-21538571D01*
X42081428Y-21538571D01*
X41938571Y-21610000D01*
X42581428Y-22467142D02*
X42438571Y-22538571D01*
X42081428Y-22538571D01*
X41938571Y-22467142D01*
X41867142Y-22324285D01*
X41867142Y-22181428D01*
X41938571Y-22038571D01*
X42081428Y-21967142D01*
X42438571Y-21967142D01*
X42581428Y-21895714D01*
X43081428Y-21538571D02*
X43652857Y-21538571D01*
X43295714Y-21038571D02*
X43295714Y-22324285D01*
X43367142Y-22467142D01*
X43510000Y-22538571D01*
X43652857Y-22538571D01*
X44724285Y-22467142D02*
X44581428Y-22538571D01*
X44295714Y-22538571D01*
X44152857Y-22467142D01*
X44081428Y-22324285D01*
X44081428Y-21752857D01*
X44152857Y-21610000D01*
X44295714Y-21538571D01*
X44581428Y-21538571D01*
X44724285Y-21610000D01*
X44795714Y-21752857D01*
X44795714Y-21895714D01*
X44081428Y-22038571D01*
X45367142Y-22467142D02*
X45510000Y-22538571D01*
X45795714Y-22538571D01*
X45938571Y-22467142D01*
X46010000Y-22324285D01*
X46010000Y-22252857D01*
X45938571Y-22110000D01*
X45795714Y-22038571D01*
X45581428Y-22038571D01*
X45438571Y-21967142D01*
X45367142Y-21824285D01*
X45367142Y-21752857D01*
X45438571Y-21610000D01*
X45581428Y-21538571D01*
X45795714Y-21538571D01*
X45938571Y-21610000D01*
X46438571Y-21538571D02*
X47010000Y-21538571D01*
X46652857Y-21038571D02*
X46652857Y-22324285D01*
X46724285Y-22467142D01*
X46867142Y-22538571D01*
X47010000Y-22538571D01*
X48438571Y-21538571D02*
X49010000Y-21538571D01*
X48652857Y-22538571D02*
X48652857Y-21252857D01*
X48724285Y-21110000D01*
X48867142Y-21038571D01*
X49010000Y-21038571D01*
X49510000Y-22538571D02*
X49510000Y-21538571D01*
X49510000Y-21038571D02*
X49438571Y-21110000D01*
X49510000Y-21181428D01*
X49581428Y-21110000D01*
X49510000Y-21038571D01*
X49510000Y-21181428D01*
X50224285Y-22538571D02*
X50224285Y-21538571D01*
X50224285Y-21824285D02*
X50295714Y-21681428D01*
X50367142Y-21610000D01*
X50510000Y-21538571D01*
X50652857Y-21538571D01*
X51724285Y-22467142D02*
X51581428Y-22538571D01*
X51295714Y-22538571D01*
X51152857Y-22467142D01*
X51081428Y-22324285D01*
X51081428Y-21752857D01*
X51152857Y-21610000D01*
X51295714Y-21538571D01*
X51581428Y-21538571D01*
X51724285Y-21610000D01*
X51795714Y-21752857D01*
X51795714Y-21895714D01*
X51081428Y-22038571D01*
X53581428Y-22538571D02*
X53581428Y-21038571D01*
X54224285Y-22538571D02*
X54224285Y-21752857D01*
X54152857Y-21610000D01*
X54010000Y-21538571D01*
X53795714Y-21538571D01*
X53652857Y-21610000D01*
X53581428Y-21681428D01*
X55581428Y-22538571D02*
X55581428Y-21752857D01*
X55510000Y-21610000D01*
X55367142Y-21538571D01*
X55081428Y-21538571D01*
X54938571Y-21610000D01*
X55581428Y-22467142D02*
X55438571Y-22538571D01*
X55081428Y-22538571D01*
X54938571Y-22467142D01*
X54867142Y-22324285D01*
X54867142Y-22181428D01*
X54938571Y-22038571D01*
X55081428Y-21967142D01*
X55438571Y-21967142D01*
X55581428Y-21895714D01*
X56152857Y-21538571D02*
X56938571Y-21538571D01*
X56152857Y-22538571D01*
X56938571Y-22538571D01*
X58152857Y-22538571D02*
X58152857Y-21752857D01*
X58081428Y-21610000D01*
X57938571Y-21538571D01*
X57652857Y-21538571D01*
X57510000Y-21610000D01*
X58152857Y-22467142D02*
X58010000Y-22538571D01*
X57652857Y-22538571D01*
X57510000Y-22467142D01*
X57438571Y-22324285D01*
X57438571Y-22181428D01*
X57510000Y-22038571D01*
X57652857Y-21967142D01*
X58010000Y-21967142D01*
X58152857Y-21895714D01*
X58867142Y-22538571D02*
X58867142Y-21538571D01*
X58867142Y-21824285D02*
X58938571Y-21681428D01*
X59010000Y-21610000D01*
X59152857Y-21538571D01*
X59295714Y-21538571D01*
X60438571Y-22538571D02*
X60438571Y-21038571D01*
X60438571Y-22467142D02*
X60295714Y-22538571D01*
X60010000Y-22538571D01*
X59867142Y-22467142D01*
X59795714Y-22395714D01*
X59724285Y-22252857D01*
X59724285Y-21824285D01*
X59795714Y-21681428D01*
X59867142Y-21610000D01*
X60010000Y-21538571D01*
X60295714Y-21538571D01*
X60438571Y-21610000D01*
X61152857Y-22395714D02*
X61224285Y-22467142D01*
X61152857Y-22538571D01*
X61081428Y-22467142D01*
X61152857Y-22395714D01*
X61152857Y-22538571D01*
X61152857Y-21967142D02*
X61081428Y-21110000D01*
X61152857Y-21038571D01*
X61224285Y-21110000D01*
X61152857Y-21967142D01*
X61152857Y-21038571D01*
D10*
X35578095Y-43135000D02*
X35482857Y-43087380D01*
X35340000Y-43087380D01*
X35197142Y-43135000D01*
X35101904Y-43230238D01*
X35054285Y-43325476D01*
X35006666Y-43515952D01*
X35006666Y-43658809D01*
X35054285Y-43849285D01*
X35101904Y-43944523D01*
X35197142Y-44039761D01*
X35340000Y-44087380D01*
X35435238Y-44087380D01*
X35578095Y-44039761D01*
X35625714Y-43992142D01*
X35625714Y-43658809D01*
X35435238Y-43658809D01*
X36197142Y-44087380D02*
X36101904Y-44039761D01*
X36054285Y-43992142D01*
X36006666Y-43896904D01*
X36006666Y-43611190D01*
X36054285Y-43515952D01*
X36101904Y-43468333D01*
X36197142Y-43420714D01*
X36340000Y-43420714D01*
X36435238Y-43468333D01*
X36482857Y-43515952D01*
X36530476Y-43611190D01*
X36530476Y-43896904D01*
X36482857Y-43992142D01*
X36435238Y-44039761D01*
X36340000Y-44087380D01*
X36197142Y-44087380D01*
X37387619Y-44087380D02*
X37387619Y-43087380D01*
X37387619Y-44039761D02*
X37292380Y-44087380D01*
X37101904Y-44087380D01*
X37006666Y-44039761D01*
X36959047Y-43992142D01*
X36911428Y-43896904D01*
X36911428Y-43611190D01*
X36959047Y-43515952D01*
X37006666Y-43468333D01*
X37101904Y-43420714D01*
X37292380Y-43420714D01*
X37387619Y-43468333D01*
X38768571Y-44087380D02*
X38673333Y-44039761D01*
X38625714Y-43944523D01*
X38625714Y-43087380D01*
X39149523Y-44087380D02*
X39149523Y-43420714D01*
X39149523Y-43087380D02*
X39101904Y-43135000D01*
X39149523Y-43182619D01*
X39197142Y-43135000D01*
X39149523Y-43087380D01*
X39149523Y-43182619D01*
X39625714Y-44087380D02*
X39625714Y-43087380D01*
X39720952Y-43706428D02*
X40006666Y-44087380D01*
X40006666Y-43420714D02*
X39625714Y-43801666D01*
X40816190Y-44039761D02*
X40720952Y-44087380D01*
X40530476Y-44087380D01*
X40435238Y-44039761D01*
X40387619Y-43944523D01*
X40387619Y-43563571D01*
X40435238Y-43468333D01*
X40530476Y-43420714D01*
X40720952Y-43420714D01*
X40816190Y-43468333D01*
X40863809Y-43563571D01*
X40863809Y-43658809D01*
X40387619Y-43754047D01*
X41244761Y-44039761D02*
X41340000Y-44087380D01*
X41530476Y-44087380D01*
X41625714Y-44039761D01*
X41673333Y-43944523D01*
X41673333Y-43896904D01*
X41625714Y-43801666D01*
X41530476Y-43754047D01*
X41387619Y-43754047D01*
X41292380Y-43706428D01*
X41244761Y-43611190D01*
X41244761Y-43563571D01*
X41292380Y-43468333D01*
X41387619Y-43420714D01*
X41530476Y-43420714D01*
X41625714Y-43468333D01*
X35101904Y-45649761D02*
X35006666Y-45697380D01*
X34816190Y-45697380D01*
X34720952Y-45649761D01*
X34673333Y-45554523D01*
X34673333Y-45173571D01*
X34720952Y-45078333D01*
X34816190Y-45030714D01*
X35006666Y-45030714D01*
X35101904Y-45078333D01*
X35149523Y-45173571D01*
X35149523Y-45268809D01*
X34673333Y-45364047D01*
X35720952Y-45697380D02*
X35625714Y-45649761D01*
X35578095Y-45554523D01*
X35578095Y-44697380D01*
X36482857Y-45649761D02*
X36387619Y-45697380D01*
X36197142Y-45697380D01*
X36101904Y-45649761D01*
X36054285Y-45554523D01*
X36054285Y-45173571D01*
X36101904Y-45078333D01*
X36197142Y-45030714D01*
X36387619Y-45030714D01*
X36482857Y-45078333D01*
X36530476Y-45173571D01*
X36530476Y-45268809D01*
X36054285Y-45364047D01*
X36959047Y-45030714D02*
X36959047Y-46030714D01*
X36959047Y-45078333D02*
X37054285Y-45030714D01*
X37244761Y-45030714D01*
X37340000Y-45078333D01*
X37387619Y-45125952D01*
X37435238Y-45221190D01*
X37435238Y-45506904D01*
X37387619Y-45602142D01*
X37340000Y-45649761D01*
X37244761Y-45697380D01*
X37054285Y-45697380D01*
X36959047Y-45649761D01*
X37863809Y-45697380D02*
X37863809Y-44697380D01*
X38292380Y-45697380D02*
X38292380Y-45173571D01*
X38244761Y-45078333D01*
X38149523Y-45030714D01*
X38006666Y-45030714D01*
X37911428Y-45078333D01*
X37863809Y-45125952D01*
X39197142Y-45697380D02*
X39197142Y-45173571D01*
X39149523Y-45078333D01*
X39054285Y-45030714D01*
X38863809Y-45030714D01*
X38768571Y-45078333D01*
X39197142Y-45649761D02*
X39101904Y-45697380D01*
X38863809Y-45697380D01*
X38768571Y-45649761D01*
X38720952Y-45554523D01*
X38720952Y-45459285D01*
X38768571Y-45364047D01*
X38863809Y-45316428D01*
X39101904Y-45316428D01*
X39197142Y-45268809D01*
X39673333Y-45030714D02*
X39673333Y-45697380D01*
X39673333Y-45125952D02*
X39720952Y-45078333D01*
X39816190Y-45030714D01*
X39959047Y-45030714D01*
X40054285Y-45078333D01*
X40101904Y-45173571D01*
X40101904Y-45697380D01*
X40435238Y-45030714D02*
X40816190Y-45030714D01*
X40578095Y-44697380D02*
X40578095Y-45554523D01*
X40625714Y-45649761D01*
X40720952Y-45697380D01*
X40816190Y-45697380D01*
X41101904Y-45649761D02*
X41197142Y-45697380D01*
X41387619Y-45697380D01*
X41482857Y-45649761D01*
X41530476Y-45554523D01*
X41530476Y-45506904D01*
X41482857Y-45411666D01*
X41387619Y-45364047D01*
X41244761Y-45364047D01*
X41149523Y-45316428D01*
X41101904Y-45221190D01*
X41101904Y-45173571D01*
X41149523Y-45078333D01*
X41244761Y-45030714D01*
X41387619Y-45030714D01*
X41482857Y-45078333D01*
X42006666Y-45649761D02*
X42006666Y-45697380D01*
X41959047Y-45792619D01*
X41911428Y-45840238D01*
X34935238Y-47307380D02*
X34935238Y-46783571D01*
X34887619Y-46688333D01*
X34792380Y-46640714D01*
X34601904Y-46640714D01*
X34506666Y-46688333D01*
X34935238Y-47259761D02*
X34840000Y-47307380D01*
X34601904Y-47307380D01*
X34506666Y-47259761D01*
X34459047Y-47164523D01*
X34459047Y-47069285D01*
X34506666Y-46974047D01*
X34601904Y-46926428D01*
X34840000Y-46926428D01*
X34935238Y-46878809D01*
X35411428Y-46640714D02*
X35411428Y-47307380D01*
X35411428Y-46735952D02*
X35459047Y-46688333D01*
X35554285Y-46640714D01*
X35697142Y-46640714D01*
X35792380Y-46688333D01*
X35840000Y-46783571D01*
X35840000Y-47307380D01*
X36744761Y-47307380D02*
X36744761Y-46307380D01*
X36744761Y-47259761D02*
X36649523Y-47307380D01*
X36459047Y-47307380D01*
X36363809Y-47259761D01*
X36316190Y-47212142D01*
X36268571Y-47116904D01*
X36268571Y-46831190D01*
X36316190Y-46735952D01*
X36363809Y-46688333D01*
X36459047Y-46640714D01*
X36649523Y-46640714D01*
X36744761Y-46688333D01*
X37982857Y-47307380D02*
X37982857Y-46307380D01*
X39363809Y-47307380D02*
X39268571Y-47259761D01*
X39220952Y-47164523D01*
X39220952Y-46307380D01*
X39744761Y-47307380D02*
X39744761Y-46640714D01*
X39744761Y-46307380D02*
X39697142Y-46355000D01*
X39744761Y-46402619D01*
X39792380Y-46355000D01*
X39744761Y-46307380D01*
X39744761Y-46402619D01*
X40220952Y-47307380D02*
X40220952Y-46307380D01*
X40316190Y-46926428D02*
X40601904Y-47307380D01*
X40601904Y-46640714D02*
X40220952Y-47021666D01*
X41411428Y-47259761D02*
X41316190Y-47307380D01*
X41125714Y-47307380D01*
X41030476Y-47259761D01*
X40982857Y-47164523D01*
X40982857Y-46783571D01*
X41030476Y-46688333D01*
X41125714Y-46640714D01*
X41316190Y-46640714D01*
X41411428Y-46688333D01*
X41459047Y-46783571D01*
X41459047Y-46878809D01*
X40982857Y-46974047D01*
X35340000Y-48869761D02*
X35244761Y-48917380D01*
X35054285Y-48917380D01*
X34959047Y-48869761D01*
X34911428Y-48774523D01*
X34911428Y-48393571D01*
X34959047Y-48298333D01*
X35054285Y-48250714D01*
X35244761Y-48250714D01*
X35340000Y-48298333D01*
X35387619Y-48393571D01*
X35387619Y-48488809D01*
X34911428Y-48584047D01*
X35959047Y-48917380D02*
X35863809Y-48869761D01*
X35816190Y-48774523D01*
X35816190Y-47917380D01*
X36720952Y-48869761D02*
X36625714Y-48917380D01*
X36435238Y-48917380D01*
X36340000Y-48869761D01*
X36292380Y-48774523D01*
X36292380Y-48393571D01*
X36340000Y-48298333D01*
X36435238Y-48250714D01*
X36625714Y-48250714D01*
X36720952Y-48298333D01*
X36768571Y-48393571D01*
X36768571Y-48488809D01*
X36292380Y-48584047D01*
X37197142Y-48250714D02*
X37197142Y-49250714D01*
X37197142Y-48298333D02*
X37292380Y-48250714D01*
X37482857Y-48250714D01*
X37578095Y-48298333D01*
X37625714Y-48345952D01*
X37673333Y-48441190D01*
X37673333Y-48726904D01*
X37625714Y-48822142D01*
X37578095Y-48869761D01*
X37482857Y-48917380D01*
X37292380Y-48917380D01*
X37197142Y-48869761D01*
X38101904Y-48917380D02*
X38101904Y-47917380D01*
X38530476Y-48917380D02*
X38530476Y-48393571D01*
X38482857Y-48298333D01*
X38387619Y-48250714D01*
X38244761Y-48250714D01*
X38149523Y-48298333D01*
X38101904Y-48345952D01*
X39435238Y-48917380D02*
X39435238Y-48393571D01*
X39387619Y-48298333D01*
X39292380Y-48250714D01*
X39101904Y-48250714D01*
X39006666Y-48298333D01*
X39435238Y-48869761D02*
X39340000Y-48917380D01*
X39101904Y-48917380D01*
X39006666Y-48869761D01*
X38959047Y-48774523D01*
X38959047Y-48679285D01*
X39006666Y-48584047D01*
X39101904Y-48536428D01*
X39340000Y-48536428D01*
X39435238Y-48488809D01*
X39911428Y-48250714D02*
X39911428Y-48917380D01*
X39911428Y-48345952D02*
X39959047Y-48298333D01*
X40054285Y-48250714D01*
X40197142Y-48250714D01*
X40292380Y-48298333D01*
X40340000Y-48393571D01*
X40340000Y-48917380D01*
X40673333Y-48250714D02*
X41054285Y-48250714D01*
X40816190Y-47917380D02*
X40816190Y-48774523D01*
X40863809Y-48869761D01*
X40959047Y-48917380D01*
X41054285Y-48917380D01*
X41340000Y-48869761D02*
X41435238Y-48917380D01*
X41625714Y-48917380D01*
X41720952Y-48869761D01*
X41768571Y-48774523D01*
X41768571Y-48726904D01*
X41720952Y-48631666D01*
X41625714Y-48584047D01*
X41482857Y-48584047D01*
X41387619Y-48536428D01*
X41340000Y-48441190D01*
X41340000Y-48393571D01*
X41387619Y-48298333D01*
X41482857Y-48250714D01*
X41625714Y-48250714D01*
X41720952Y-48298333D01*
X84659523Y-34597380D02*
X84564285Y-34549761D01*
X84516666Y-34502142D01*
X84469047Y-34406904D01*
X84469047Y-34121190D01*
X84516666Y-34025952D01*
X84564285Y-33978333D01*
X84659523Y-33930714D01*
X84802380Y-33930714D01*
X84897619Y-33978333D01*
X84945238Y-34025952D01*
X84992857Y-34121190D01*
X84992857Y-34406904D01*
X84945238Y-34502142D01*
X84897619Y-34549761D01*
X84802380Y-34597380D01*
X84659523Y-34597380D01*
X85421428Y-33930714D02*
X85421428Y-34597380D01*
X85421428Y-34025952D02*
X85469047Y-33978333D01*
X85564285Y-33930714D01*
X85707142Y-33930714D01*
X85802380Y-33978333D01*
X85850000Y-34073571D01*
X85850000Y-34597380D01*
X86945238Y-33930714D02*
X87326190Y-33930714D01*
X87088095Y-33597380D02*
X87088095Y-34454523D01*
X87135714Y-34549761D01*
X87230952Y-34597380D01*
X87326190Y-34597380D01*
X87659523Y-34597380D02*
X87659523Y-33597380D01*
X88088095Y-34597380D02*
X88088095Y-34073571D01*
X88040476Y-33978333D01*
X87945238Y-33930714D01*
X87802380Y-33930714D01*
X87707142Y-33978333D01*
X87659523Y-34025952D01*
X88945238Y-34549761D02*
X88850000Y-34597380D01*
X88659523Y-34597380D01*
X88564285Y-34549761D01*
X88516666Y-34454523D01*
X88516666Y-34073571D01*
X88564285Y-33978333D01*
X88659523Y-33930714D01*
X88850000Y-33930714D01*
X88945238Y-33978333D01*
X88992857Y-34073571D01*
X88992857Y-34168809D01*
X88516666Y-34264047D01*
X90326190Y-34597380D02*
X90230952Y-34549761D01*
X90183333Y-34454523D01*
X90183333Y-33597380D01*
X90707142Y-34597380D02*
X90707142Y-33930714D01*
X90707142Y-33597380D02*
X90659523Y-33645000D01*
X90707142Y-33692619D01*
X90754761Y-33645000D01*
X90707142Y-33597380D01*
X90707142Y-33692619D01*
X91183333Y-33930714D02*
X91183333Y-34597380D01*
X91183333Y-34025952D02*
X91230952Y-33978333D01*
X91326190Y-33930714D01*
X91469047Y-33930714D01*
X91564285Y-33978333D01*
X91611904Y-34073571D01*
X91611904Y-34597380D01*
X92469047Y-34549761D02*
X92373809Y-34597380D01*
X92183333Y-34597380D01*
X92088095Y-34549761D01*
X92040476Y-34454523D01*
X92040476Y-34073571D01*
X92088095Y-33978333D01*
X92183333Y-33930714D01*
X92373809Y-33930714D01*
X92469047Y-33978333D01*
X92516666Y-34073571D01*
X92516666Y-34168809D01*
X92040476Y-34264047D01*
X94135714Y-34597380D02*
X94135714Y-34073571D01*
X94088095Y-33978333D01*
X93992857Y-33930714D01*
X93802380Y-33930714D01*
X93707142Y-33978333D01*
X94135714Y-34549761D02*
X94040476Y-34597380D01*
X93802380Y-34597380D01*
X93707142Y-34549761D01*
X93659523Y-34454523D01*
X93659523Y-34359285D01*
X93707142Y-34264047D01*
X93802380Y-34216428D01*
X94040476Y-34216428D01*
X94135714Y-34168809D01*
X94469047Y-33930714D02*
X94850000Y-33930714D01*
X94611904Y-33597380D02*
X94611904Y-34454523D01*
X94659523Y-34549761D01*
X94754761Y-34597380D01*
X94850000Y-34597380D01*
X95183333Y-34502142D02*
X95230952Y-34549761D01*
X95183333Y-34597380D01*
X95135714Y-34549761D01*
X95183333Y-34502142D01*
X95183333Y-34597380D01*
X95183333Y-33978333D02*
X95230952Y-34025952D01*
X95183333Y-34073571D01*
X95135714Y-34025952D01*
X95183333Y-33978333D01*
X95183333Y-34073571D01*
X85088095Y-35540714D02*
X85278571Y-36207380D01*
X85469047Y-35731190D01*
X85659523Y-36207380D01*
X85850000Y-35540714D01*
X86135714Y-35540714D02*
X86326190Y-36207380D01*
X86516666Y-35731190D01*
X86707142Y-36207380D01*
X86897619Y-35540714D01*
X87183333Y-35540714D02*
X87373809Y-36207380D01*
X87564285Y-35731190D01*
X87754761Y-36207380D01*
X87945238Y-35540714D01*
X88326190Y-36112142D02*
X88373809Y-36159761D01*
X88326190Y-36207380D01*
X88278571Y-36159761D01*
X88326190Y-36112142D01*
X88326190Y-36207380D01*
X88754761Y-36159761D02*
X88850000Y-36207380D01*
X89040476Y-36207380D01*
X89135714Y-36159761D01*
X89183333Y-36064523D01*
X89183333Y-36016904D01*
X89135714Y-35921666D01*
X89040476Y-35874047D01*
X88897619Y-35874047D01*
X88802380Y-35826428D01*
X88754761Y-35731190D01*
X88754761Y-35683571D01*
X88802380Y-35588333D01*
X88897619Y-35540714D01*
X89040476Y-35540714D01*
X89135714Y-35588333D01*
X90040476Y-36159761D02*
X89945238Y-36207380D01*
X89754761Y-36207380D01*
X89659523Y-36159761D01*
X89611904Y-36112142D01*
X89564285Y-36016904D01*
X89564285Y-35731190D01*
X89611904Y-35635952D01*
X89659523Y-35588333D01*
X89754761Y-35540714D01*
X89945238Y-35540714D01*
X90040476Y-35588333D01*
X90469047Y-36207380D02*
X90469047Y-35207380D01*
X90564285Y-35826428D02*
X90850000Y-36207380D01*
X90850000Y-35540714D02*
X90469047Y-35921666D01*
X91183333Y-35540714D02*
X91707142Y-35540714D01*
X91183333Y-36207380D01*
X91707142Y-36207380D01*
X92088095Y-36112142D02*
X92135714Y-36159761D01*
X92088095Y-36207380D01*
X92040476Y-36159761D01*
X92088095Y-36112142D01*
X92088095Y-36207380D01*
X92707142Y-36207380D02*
X92611904Y-36159761D01*
X92564285Y-36112142D01*
X92516666Y-36016904D01*
X92516666Y-35731190D01*
X92564285Y-35635952D01*
X92611904Y-35588333D01*
X92707142Y-35540714D01*
X92850000Y-35540714D01*
X92945238Y-35588333D01*
X92992857Y-35635952D01*
X93040476Y-35731190D01*
X93040476Y-36016904D01*
X92992857Y-36112142D01*
X92945238Y-36159761D01*
X92850000Y-36207380D01*
X92707142Y-36207380D01*
X93469047Y-36207380D02*
X93469047Y-35540714D01*
X93469047Y-35731190D02*
X93516666Y-35635952D01*
X93564285Y-35588333D01*
X93659523Y-35540714D01*
X93754761Y-35540714D01*
X94516666Y-35540714D02*
X94516666Y-36350238D01*
X94469047Y-36445476D01*
X94421428Y-36493095D01*
X94326190Y-36540714D01*
X94183333Y-36540714D01*
X94088095Y-36493095D01*
X94516666Y-36159761D02*
X94421428Y-36207380D01*
X94230952Y-36207380D01*
X94135714Y-36159761D01*
X94088095Y-36112142D01*
X94040476Y-36016904D01*
X94040476Y-35731190D01*
X94088095Y-35635952D01*
X94135714Y-35588333D01*
X94230952Y-35540714D01*
X94421428Y-35540714D01*
X94516666Y-35588333D01*
D14*
X62176190Y-48949548D02*
X62321333Y-48997929D01*
X62369714Y-49046310D01*
X62418095Y-49143072D01*
X62418095Y-49288215D01*
X62369714Y-49384977D01*
X62321333Y-49433358D01*
X62224571Y-49481739D01*
X61837523Y-49481739D01*
X61837523Y-48465739D01*
X62176190Y-48465739D01*
X62272952Y-48514120D01*
X62321333Y-48562500D01*
X62369714Y-48659262D01*
X62369714Y-48756024D01*
X62321333Y-48852786D01*
X62272952Y-48901167D01*
X62176190Y-48949548D01*
X61837523Y-48949548D01*
X63288952Y-49481739D02*
X63288952Y-48949548D01*
X63240571Y-48852786D01*
X63143809Y-48804405D01*
X62950285Y-48804405D01*
X62853523Y-48852786D01*
X63288952Y-49433358D02*
X63192190Y-49481739D01*
X62950285Y-49481739D01*
X62853523Y-49433358D01*
X62805142Y-49336596D01*
X62805142Y-49239834D01*
X62853523Y-49143072D01*
X62950285Y-49094691D01*
X63192190Y-49094691D01*
X63288952Y-49046310D01*
X63772761Y-49481739D02*
X63772761Y-48804405D01*
X63772761Y-48997929D02*
X63821142Y-48901167D01*
X63869523Y-48852786D01*
X63966285Y-48804405D01*
X64063047Y-48804405D01*
X64256571Y-48804405D02*
X64643619Y-48804405D01*
X64401714Y-49481739D02*
X64401714Y-48610881D01*
X64450095Y-48514120D01*
X64546857Y-48465739D01*
X64643619Y-48465739D01*
X65417714Y-48804405D02*
X65417714Y-49481739D01*
X64982285Y-48804405D02*
X64982285Y-49336596D01*
X65030666Y-49433358D01*
X65127428Y-49481739D01*
X65272571Y-49481739D01*
X65369333Y-49433358D01*
X65417714Y-49384977D01*
X65901523Y-48804405D02*
X65901523Y-49481739D01*
X65901523Y-48901167D02*
X65949904Y-48852786D01*
X66046666Y-48804405D01*
X66191809Y-48804405D01*
X66288571Y-48852786D01*
X66336952Y-48949548D01*
X66336952Y-49481739D01*
X66820761Y-49481739D02*
X66820761Y-48465739D01*
X66917523Y-49094691D02*
X67207809Y-49481739D01*
X67207809Y-48804405D02*
X66820761Y-49191453D01*
X68030285Y-49433358D02*
X67933523Y-49481739D01*
X67740000Y-49481739D01*
X67643238Y-49433358D01*
X67594857Y-49336596D01*
X67594857Y-48949548D01*
X67643238Y-48852786D01*
X67740000Y-48804405D01*
X67933523Y-48804405D01*
X68030285Y-48852786D01*
X68078666Y-48949548D01*
X68078666Y-49046310D01*
X67594857Y-49143072D01*
X68659238Y-49481739D02*
X68562476Y-49433358D01*
X68514095Y-49336596D01*
X68514095Y-48465739D01*
X61958476Y-50585308D02*
X62297142Y-50585308D01*
X62442285Y-51117499D02*
X61958476Y-51117499D01*
X61958476Y-50101499D01*
X62442285Y-50101499D01*
X62877714Y-50440165D02*
X62877714Y-51117499D01*
X62877714Y-50536927D02*
X62926095Y-50488546D01*
X63022857Y-50440165D01*
X63168000Y-50440165D01*
X63264761Y-50488546D01*
X63313142Y-50585308D01*
X63313142Y-51117499D01*
X64232380Y-51117499D02*
X64232380Y-50101499D01*
X64232380Y-51069118D02*
X64135619Y-51117499D01*
X63942095Y-51117499D01*
X63845333Y-51069118D01*
X63796952Y-51020737D01*
X63748571Y-50923975D01*
X63748571Y-50633689D01*
X63796952Y-50536927D01*
X63845333Y-50488546D01*
X63942095Y-50440165D01*
X64135619Y-50440165D01*
X64232380Y-50488546D01*
X64861333Y-51117499D02*
X64764571Y-51069118D01*
X64716190Y-51020737D01*
X64667809Y-50923975D01*
X64667809Y-50633689D01*
X64716190Y-50536927D01*
X64764571Y-50488546D01*
X64861333Y-50440165D01*
X65006476Y-50440165D01*
X65103238Y-50488546D01*
X65151619Y-50536927D01*
X65200000Y-50633689D01*
X65200000Y-50923975D01*
X65151619Y-51020737D01*
X65103238Y-51069118D01*
X65006476Y-51117499D01*
X64861333Y-51117499D01*
X65635428Y-51117499D02*
X65635428Y-50440165D01*
X65635428Y-50633689D02*
X65683809Y-50536927D01*
X65732190Y-50488546D01*
X65828952Y-50440165D01*
X65925714Y-50440165D01*
X66699809Y-51069118D02*
X66603047Y-51117499D01*
X66409523Y-51117499D01*
X66312761Y-51069118D01*
X66264380Y-51020737D01*
X66216000Y-50923975D01*
X66216000Y-50633689D01*
X66264380Y-50536927D01*
X66312761Y-50488546D01*
X66409523Y-50440165D01*
X66603047Y-50440165D01*
X66699809Y-50488546D01*
X67522285Y-51069118D02*
X67425523Y-51117499D01*
X67232000Y-51117499D01*
X67135238Y-51069118D01*
X67086857Y-50972356D01*
X67086857Y-50585308D01*
X67135238Y-50488546D01*
X67232000Y-50440165D01*
X67425523Y-50440165D01*
X67522285Y-50488546D01*
X67570666Y-50585308D01*
X67570666Y-50682070D01*
X67086857Y-50778832D01*
X68441523Y-51117499D02*
X68441523Y-50101499D01*
X68441523Y-51069118D02*
X68344761Y-51117499D01*
X68151238Y-51117499D01*
X68054476Y-51069118D01*
X68006095Y-51020737D01*
X67957714Y-50923975D01*
X67957714Y-50633689D01*
X68006095Y-50536927D01*
X68054476Y-50488546D01*
X68151238Y-50440165D01*
X68344761Y-50440165D01*
X68441523Y-50488546D01*
D10*
X100416190Y-48344761D02*
X101559047Y-48344761D01*
X100987619Y-50344761D02*
X100987619Y-48344761D01*
X102035238Y-48344761D02*
X103368571Y-50344761D01*
X103368571Y-48344761D02*
X102035238Y-50344761D01*
X101606666Y-40604761D02*
X100940000Y-39652380D01*
X100463809Y-40604761D02*
X100463809Y-38604761D01*
X101225714Y-38604761D01*
X101416190Y-38700000D01*
X101511428Y-38795238D01*
X101606666Y-38985714D01*
X101606666Y-39271428D01*
X101511428Y-39461904D01*
X101416190Y-39557142D01*
X101225714Y-39652380D01*
X100463809Y-39652380D01*
X102273333Y-38604761D02*
X103606666Y-40604761D01*
X103606666Y-38604761D02*
X102273333Y-40604761D01*
D14*
X40645714Y-57431739D02*
X40645714Y-56415739D01*
X40887619Y-56415739D01*
X41032761Y-56464120D01*
X41129523Y-56560881D01*
X41177904Y-56657643D01*
X41226285Y-56851167D01*
X41226285Y-56996310D01*
X41177904Y-57189834D01*
X41129523Y-57286596D01*
X41032761Y-57383358D01*
X40887619Y-57431739D01*
X40645714Y-57431739D01*
X42097142Y-57431739D02*
X42097142Y-56899548D01*
X42048761Y-56802786D01*
X41952000Y-56754405D01*
X41758476Y-56754405D01*
X41661714Y-56802786D01*
X42097142Y-57383358D02*
X42000380Y-57431739D01*
X41758476Y-57431739D01*
X41661714Y-57383358D01*
X41613333Y-57286596D01*
X41613333Y-57189834D01*
X41661714Y-57093072D01*
X41758476Y-57044691D01*
X42000380Y-57044691D01*
X42097142Y-56996310D01*
X42580952Y-56754405D02*
X42580952Y-57431739D01*
X42580952Y-56851167D02*
X42629333Y-56802786D01*
X42726095Y-56754405D01*
X42871238Y-56754405D01*
X42968000Y-56802786D01*
X43016380Y-56899548D01*
X43016380Y-57431739D01*
X44225904Y-57383358D02*
X44371047Y-57431739D01*
X44612952Y-57431739D01*
X44709714Y-57383358D01*
X44758095Y-57334977D01*
X44806476Y-57238215D01*
X44806476Y-57141453D01*
X44758095Y-57044691D01*
X44709714Y-56996310D01*
X44612952Y-56947929D01*
X44419428Y-56899548D01*
X44322666Y-56851167D01*
X44274285Y-56802786D01*
X44225904Y-56706024D01*
X44225904Y-56609262D01*
X44274285Y-56512500D01*
X44322666Y-56464120D01*
X44419428Y-56415739D01*
X44661333Y-56415739D01*
X44806476Y-56464120D01*
X45628952Y-57383358D02*
X45532190Y-57431739D01*
X45338666Y-57431739D01*
X45241904Y-57383358D01*
X45193523Y-57286596D01*
X45193523Y-56899548D01*
X45241904Y-56802786D01*
X45338666Y-56754405D01*
X45532190Y-56754405D01*
X45628952Y-56802786D01*
X45677333Y-56899548D01*
X45677333Y-56996310D01*
X45193523Y-57093072D01*
X46548190Y-57431739D02*
X46548190Y-56899548D01*
X46499809Y-56802786D01*
X46403047Y-56754405D01*
X46209523Y-56754405D01*
X46112761Y-56802786D01*
X46548190Y-57383358D02*
X46451428Y-57431739D01*
X46209523Y-57431739D01*
X46112761Y-57383358D01*
X46064380Y-57286596D01*
X46064380Y-57189834D01*
X46112761Y-57093072D01*
X46209523Y-57044691D01*
X46451428Y-57044691D01*
X46548190Y-56996310D01*
X47177142Y-57431739D02*
X47080380Y-57383358D01*
X47032000Y-57286596D01*
X47032000Y-56415739D01*
X48483428Y-57431739D02*
X48386666Y-57383358D01*
X48338285Y-57334977D01*
X48289904Y-57238215D01*
X48289904Y-56947929D01*
X48338285Y-56851167D01*
X48386666Y-56802786D01*
X48483428Y-56754405D01*
X48628571Y-56754405D01*
X48725333Y-56802786D01*
X48773714Y-56851167D01*
X48822095Y-56947929D01*
X48822095Y-57238215D01*
X48773714Y-57334977D01*
X48725333Y-57383358D01*
X48628571Y-57431739D01*
X48483428Y-57431739D01*
X49112380Y-56754405D02*
X49499428Y-56754405D01*
X49257523Y-57431739D02*
X49257523Y-56560881D01*
X49305904Y-56464120D01*
X49402666Y-56415739D01*
X49499428Y-56415739D01*
X41952000Y-58777213D02*
X42435809Y-58777213D01*
X41855238Y-59067499D02*
X42193904Y-58051499D01*
X42532571Y-59067499D01*
X42871238Y-58390165D02*
X42871238Y-59406165D01*
X42871238Y-58438546D02*
X42968000Y-58390165D01*
X43161523Y-58390165D01*
X43258285Y-58438546D01*
X43306666Y-58486927D01*
X43355047Y-58583689D01*
X43355047Y-58873975D01*
X43306666Y-58970737D01*
X43258285Y-59019118D01*
X43161523Y-59067499D01*
X42968000Y-59067499D01*
X42871238Y-59019118D01*
X43790476Y-58390165D02*
X43790476Y-59406165D01*
X43790476Y-58438546D02*
X43887238Y-58390165D01*
X44080761Y-58390165D01*
X44177523Y-58438546D01*
X44225904Y-58486927D01*
X44274285Y-58583689D01*
X44274285Y-58873975D01*
X44225904Y-58970737D01*
X44177523Y-59019118D01*
X44080761Y-59067499D01*
X43887238Y-59067499D01*
X43790476Y-59019118D01*
X44709714Y-59067499D02*
X44709714Y-58390165D01*
X44709714Y-58583689D02*
X44758095Y-58486927D01*
X44806476Y-58438546D01*
X44903238Y-58390165D01*
X45000000Y-58390165D01*
X45483809Y-59067499D02*
X45387047Y-59019118D01*
X45338666Y-58970737D01*
X45290285Y-58873975D01*
X45290285Y-58583689D01*
X45338666Y-58486927D01*
X45387047Y-58438546D01*
X45483809Y-58390165D01*
X45628952Y-58390165D01*
X45725714Y-58438546D01*
X45774095Y-58486927D01*
X45822476Y-58583689D01*
X45822476Y-58873975D01*
X45774095Y-58970737D01*
X45725714Y-59019118D01*
X45628952Y-59067499D01*
X45483809Y-59067499D01*
X46161142Y-58390165D02*
X46403047Y-59067499D01*
X46644952Y-58390165D01*
X47467428Y-59067499D02*
X47467428Y-58535308D01*
X47419047Y-58438546D01*
X47322285Y-58390165D01*
X47128761Y-58390165D01*
X47032000Y-58438546D01*
X47467428Y-59019118D02*
X47370666Y-59067499D01*
X47128761Y-59067499D01*
X47032000Y-59019118D01*
X46983619Y-58922356D01*
X46983619Y-58825594D01*
X47032000Y-58728832D01*
X47128761Y-58680451D01*
X47370666Y-58680451D01*
X47467428Y-58632070D01*
X48096380Y-59067499D02*
X47999619Y-59019118D01*
X47951238Y-58922356D01*
X47951238Y-58051499D01*
D10*
X67839047Y-31427380D02*
X68029523Y-31427380D01*
X68124761Y-31475000D01*
X68220000Y-31570238D01*
X68267619Y-31760714D01*
X68267619Y-32094047D01*
X68220000Y-32284523D01*
X68124761Y-32379761D01*
X68029523Y-32427380D01*
X67839047Y-32427380D01*
X67743809Y-32379761D01*
X67648571Y-32284523D01*
X67600952Y-32094047D01*
X67600952Y-31760714D01*
X67648571Y-31570238D01*
X67743809Y-31475000D01*
X67839047Y-31427380D01*
X68696190Y-32427380D02*
X68696190Y-31760714D01*
X68696190Y-31951190D02*
X68743809Y-31855952D01*
X68791428Y-31808333D01*
X68886666Y-31760714D01*
X68981904Y-31760714D01*
X69743809Y-32427380D02*
X69743809Y-31427380D01*
X69743809Y-32379761D02*
X69648571Y-32427380D01*
X69458095Y-32427380D01*
X69362857Y-32379761D01*
X69315238Y-32332142D01*
X69267619Y-32236904D01*
X69267619Y-31951190D01*
X69315238Y-31855952D01*
X69362857Y-31808333D01*
X69458095Y-31760714D01*
X69648571Y-31760714D01*
X69743809Y-31808333D01*
X70600952Y-32379761D02*
X70505714Y-32427380D01*
X70315238Y-32427380D01*
X70220000Y-32379761D01*
X70172380Y-32284523D01*
X70172380Y-31903571D01*
X70220000Y-31808333D01*
X70315238Y-31760714D01*
X70505714Y-31760714D01*
X70600952Y-31808333D01*
X70648571Y-31903571D01*
X70648571Y-31998809D01*
X70172380Y-32094047D01*
X71077142Y-32427380D02*
X71077142Y-31760714D01*
X71077142Y-31951190D02*
X71124761Y-31855952D01*
X71172380Y-31808333D01*
X71267619Y-31760714D01*
X71362857Y-31760714D01*
X72886666Y-32379761D02*
X72791428Y-32427380D01*
X72600952Y-32427380D01*
X72505714Y-32379761D01*
X72458095Y-32332142D01*
X72410476Y-32236904D01*
X72410476Y-31951190D01*
X72458095Y-31855952D01*
X72505714Y-31808333D01*
X72600952Y-31760714D01*
X72791428Y-31760714D01*
X72886666Y-31808333D01*
X73458095Y-32427380D02*
X73362857Y-32379761D01*
X73315238Y-32332142D01*
X73267619Y-32236904D01*
X73267619Y-31951190D01*
X73315238Y-31855952D01*
X73362857Y-31808333D01*
X73458095Y-31760714D01*
X73600952Y-31760714D01*
X73696190Y-31808333D01*
X73743809Y-31855952D01*
X73791428Y-31951190D01*
X73791428Y-32236904D01*
X73743809Y-32332142D01*
X73696190Y-32379761D01*
X73600952Y-32427380D01*
X73458095Y-32427380D01*
X74220000Y-31760714D02*
X74220000Y-32760714D01*
X74220000Y-31808333D02*
X74315238Y-31760714D01*
X74505714Y-31760714D01*
X74600952Y-31808333D01*
X74648571Y-31855952D01*
X74696190Y-31951190D01*
X74696190Y-32236904D01*
X74648571Y-32332142D01*
X74600952Y-32379761D01*
X74505714Y-32427380D01*
X74315238Y-32427380D01*
X74220000Y-32379761D01*
X75124761Y-32427380D02*
X75124761Y-31760714D01*
X75124761Y-31427380D02*
X75077142Y-31475000D01*
X75124761Y-31522619D01*
X75172380Y-31475000D01*
X75124761Y-31427380D01*
X75124761Y-31522619D01*
X75981904Y-32379761D02*
X75886666Y-32427380D01*
X75696190Y-32427380D01*
X75600952Y-32379761D01*
X75553333Y-32284523D01*
X75553333Y-31903571D01*
X75600952Y-31808333D01*
X75696190Y-31760714D01*
X75886666Y-31760714D01*
X75981904Y-31808333D01*
X76029523Y-31903571D01*
X76029523Y-31998809D01*
X75553333Y-32094047D01*
X76410476Y-32379761D02*
X76505714Y-32427380D01*
X76696190Y-32427380D01*
X76791428Y-32379761D01*
X76839047Y-32284523D01*
X76839047Y-32236904D01*
X76791428Y-32141666D01*
X76696190Y-32094047D01*
X76553333Y-32094047D01*
X76458095Y-32046428D01*
X76410476Y-31951190D01*
X76410476Y-31903571D01*
X76458095Y-31808333D01*
X76553333Y-31760714D01*
X76696190Y-31760714D01*
X76791428Y-31808333D01*
X69577142Y-33037380D02*
X69577142Y-33751666D01*
X69529523Y-33894523D01*
X69434285Y-33989761D01*
X69291428Y-34037380D01*
X69196190Y-34037380D01*
X70529523Y-34037380D02*
X70053333Y-34037380D01*
X70053333Y-33037380D01*
X71434285Y-33942142D02*
X71386666Y-33989761D01*
X71243809Y-34037380D01*
X71148571Y-34037380D01*
X71005714Y-33989761D01*
X70910476Y-33894523D01*
X70862857Y-33799285D01*
X70815238Y-33608809D01*
X70815238Y-33465952D01*
X70862857Y-33275476D01*
X70910476Y-33180238D01*
X71005714Y-33085000D01*
X71148571Y-33037380D01*
X71243809Y-33037380D01*
X71386666Y-33085000D01*
X71434285Y-33132619D01*
X72624761Y-34037380D02*
X72624761Y-33037380D01*
X73005714Y-33037380D01*
X73100952Y-33085000D01*
X73148571Y-33132619D01*
X73196190Y-33227857D01*
X73196190Y-33370714D01*
X73148571Y-33465952D01*
X73100952Y-33513571D01*
X73005714Y-33561190D01*
X72624761Y-33561190D01*
X74196190Y-33942142D02*
X74148571Y-33989761D01*
X74005714Y-34037380D01*
X73910476Y-34037380D01*
X73767619Y-33989761D01*
X73672380Y-33894523D01*
X73624761Y-33799285D01*
X73577142Y-33608809D01*
X73577142Y-33465952D01*
X73624761Y-33275476D01*
X73672380Y-33180238D01*
X73767619Y-33085000D01*
X73910476Y-33037380D01*
X74005714Y-33037380D01*
X74148571Y-33085000D01*
X74196190Y-33132619D01*
X74958095Y-33513571D02*
X75100952Y-33561190D01*
X75148571Y-33608809D01*
X75196190Y-33704047D01*
X75196190Y-33846904D01*
X75148571Y-33942142D01*
X75100952Y-33989761D01*
X75005714Y-34037380D01*
X74624761Y-34037380D01*
X74624761Y-33037380D01*
X74958095Y-33037380D01*
X75053333Y-33085000D01*
X75100952Y-33132619D01*
X75148571Y-33227857D01*
X75148571Y-33323095D01*
X75100952Y-33418333D01*
X75053333Y-33465952D01*
X74958095Y-33513571D01*
X74624761Y-33513571D01*
X69648571Y-34980714D02*
X69648571Y-35647380D01*
X69410476Y-34599761D02*
X69172380Y-35314047D01*
X69791428Y-35314047D01*
X71410476Y-35647380D02*
X70934285Y-35647380D01*
X70934285Y-34647380D01*
X72172380Y-35647380D02*
X72172380Y-35123571D01*
X72124761Y-35028333D01*
X72029523Y-34980714D01*
X71839047Y-34980714D01*
X71743809Y-35028333D01*
X72172380Y-35599761D02*
X72077142Y-35647380D01*
X71839047Y-35647380D01*
X71743809Y-35599761D01*
X71696190Y-35504523D01*
X71696190Y-35409285D01*
X71743809Y-35314047D01*
X71839047Y-35266428D01*
X72077142Y-35266428D01*
X72172380Y-35218809D01*
X72553333Y-34980714D02*
X72791428Y-35647380D01*
X73029523Y-34980714D02*
X72791428Y-35647380D01*
X72696190Y-35885476D01*
X72648571Y-35933095D01*
X72553333Y-35980714D01*
X73791428Y-35599761D02*
X73696190Y-35647380D01*
X73505714Y-35647380D01*
X73410476Y-35599761D01*
X73362857Y-35504523D01*
X73362857Y-35123571D01*
X73410476Y-35028333D01*
X73505714Y-34980714D01*
X73696190Y-34980714D01*
X73791428Y-35028333D01*
X73839047Y-35123571D01*
X73839047Y-35218809D01*
X73362857Y-35314047D01*
X74267619Y-35647380D02*
X74267619Y-34980714D01*
X74267619Y-35171190D02*
X74315238Y-35075952D01*
X74362857Y-35028333D01*
X74458095Y-34980714D01*
X74553333Y-34980714D01*
X74839047Y-35599761D02*
X74934285Y-35647380D01*
X75124761Y-35647380D01*
X75220000Y-35599761D01*
X75267619Y-35504523D01*
X75267619Y-35456904D01*
X75220000Y-35361666D01*
X75124761Y-35314047D01*
X74981904Y-35314047D01*
X74886666Y-35266428D01*
X74839047Y-35171190D01*
X74839047Y-35123571D01*
X74886666Y-35028333D01*
X74981904Y-34980714D01*
X75124761Y-34980714D01*
X75220000Y-35028333D01*
X69553333Y-36257380D02*
X69553333Y-36971666D01*
X69505714Y-37114523D01*
X69410476Y-37209761D01*
X69267619Y-37257380D01*
X69172380Y-37257380D01*
X70505714Y-37257380D02*
X70029523Y-37257380D01*
X70029523Y-36257380D01*
X71410476Y-37162142D02*
X71362857Y-37209761D01*
X71220000Y-37257380D01*
X71124761Y-37257380D01*
X70981904Y-37209761D01*
X70886666Y-37114523D01*
X70839047Y-37019285D01*
X70791428Y-36828809D01*
X70791428Y-36685952D01*
X70839047Y-36495476D01*
X70886666Y-36400238D01*
X70981904Y-36305000D01*
X71124761Y-36257380D01*
X71220000Y-36257380D01*
X71362857Y-36305000D01*
X71410476Y-36352619D01*
X71743809Y-36257380D02*
X72410476Y-36257380D01*
X71981904Y-37257380D01*
X73220000Y-36257380D02*
X73029523Y-36257380D01*
X72934285Y-36305000D01*
X72886666Y-36352619D01*
X72791428Y-36495476D01*
X72743809Y-36685952D01*
X72743809Y-37066904D01*
X72791428Y-37162142D01*
X72839047Y-37209761D01*
X72934285Y-37257380D01*
X73124761Y-37257380D01*
X73220000Y-37209761D01*
X73267619Y-37162142D01*
X73315238Y-37066904D01*
X73315238Y-36828809D01*
X73267619Y-36733571D01*
X73220000Y-36685952D01*
X73124761Y-36638333D01*
X72934285Y-36638333D01*
X72839047Y-36685952D01*
X72791428Y-36733571D01*
X72743809Y-36828809D01*
X73696190Y-36352619D02*
X73743809Y-36305000D01*
X73839047Y-36257380D01*
X74077142Y-36257380D01*
X74172380Y-36305000D01*
X74220000Y-36352619D01*
X74267619Y-36447857D01*
X74267619Y-36543095D01*
X74220000Y-36685952D01*
X73648571Y-37257380D01*
X74267619Y-37257380D01*
X74839047Y-36685952D02*
X74743809Y-36638333D01*
X74696190Y-36590714D01*
X74648571Y-36495476D01*
X74648571Y-36447857D01*
X74696190Y-36352619D01*
X74743809Y-36305000D01*
X74839047Y-36257380D01*
X75029523Y-36257380D01*
X75124761Y-36305000D01*
X75172380Y-36352619D01*
X75220000Y-36447857D01*
X75220000Y-36495476D01*
X75172380Y-36590714D01*
X75124761Y-36638333D01*
X75029523Y-36685952D01*
X74839047Y-36685952D01*
X74743809Y-36733571D01*
X74696190Y-36781190D01*
X74648571Y-36876428D01*
X74648571Y-37066904D01*
X74696190Y-37162142D01*
X74743809Y-37209761D01*
X74839047Y-37257380D01*
X75029523Y-37257380D01*
X75124761Y-37209761D01*
X75172380Y-37162142D01*
X75220000Y-37066904D01*
X75220000Y-36876428D01*
X75172380Y-36781190D01*
X75124761Y-36733571D01*
X75029523Y-36685952D01*
%TO.C,U2*%
X47478095Y-66292380D02*
X47478095Y-67101904D01*
X47525714Y-67197142D01*
X47573333Y-67244761D01*
X47668571Y-67292380D01*
X47859047Y-67292380D01*
X47954285Y-67244761D01*
X48001904Y-67197142D01*
X48049523Y-67101904D01*
X48049523Y-66292380D01*
X48478095Y-66387619D02*
X48525714Y-66340000D01*
X48620952Y-66292380D01*
X48859047Y-66292380D01*
X48954285Y-66340000D01*
X49001904Y-66387619D01*
X49049523Y-66482857D01*
X49049523Y-66578095D01*
X49001904Y-66720952D01*
X48430476Y-67292380D01*
X49049523Y-67292380D01*
%TO.C,U3*%
X27158095Y-51092380D02*
X27158095Y-51901904D01*
X27205714Y-51997142D01*
X27253333Y-52044761D01*
X27348571Y-52092380D01*
X27539047Y-52092380D01*
X27634285Y-52044761D01*
X27681904Y-51997142D01*
X27729523Y-51901904D01*
X27729523Y-51092380D01*
X28110476Y-51092380D02*
X28729523Y-51092380D01*
X28396190Y-51473333D01*
X28539047Y-51473333D01*
X28634285Y-51520952D01*
X28681904Y-51568571D01*
X28729523Y-51663809D01*
X28729523Y-51901904D01*
X28681904Y-51997142D01*
X28634285Y-52044761D01*
X28539047Y-52092380D01*
X28253333Y-52092380D01*
X28158095Y-52044761D01*
X28110476Y-51997142D01*
%TO.C,U4*%
X78668095Y-24862380D02*
X78668095Y-25671904D01*
X78715714Y-25767142D01*
X78763333Y-25814761D01*
X78858571Y-25862380D01*
X79049047Y-25862380D01*
X79144285Y-25814761D01*
X79191904Y-25767142D01*
X79239523Y-25671904D01*
X79239523Y-24862380D01*
X80144285Y-25195714D02*
X80144285Y-25862380D01*
X79906190Y-24814761D02*
X79668095Y-25529047D01*
X80287142Y-25529047D01*
%TO.C,C11*%
X59589642Y-31914642D02*
X59542023Y-31962261D01*
X59399166Y-32009880D01*
X59303928Y-32009880D01*
X59161071Y-31962261D01*
X59065833Y-31867023D01*
X59018214Y-31771785D01*
X58970595Y-31581309D01*
X58970595Y-31438452D01*
X59018214Y-31247976D01*
X59065833Y-31152738D01*
X59161071Y-31057500D01*
X59303928Y-31009880D01*
X59399166Y-31009880D01*
X59542023Y-31057500D01*
X59589642Y-31105119D01*
X60542023Y-32009880D02*
X59970595Y-32009880D01*
X60256309Y-32009880D02*
X60256309Y-31009880D01*
X60161071Y-31152738D01*
X60065833Y-31247976D01*
X59970595Y-31295595D01*
X61494404Y-32009880D02*
X60922976Y-32009880D01*
X61208690Y-32009880D02*
X61208690Y-31009880D01*
X61113452Y-31152738D01*
X61018214Y-31247976D01*
X60922976Y-31295595D01*
%TO.C,U6*%
X37988095Y-64492380D02*
X37988095Y-65301904D01*
X38035714Y-65397142D01*
X38083333Y-65444761D01*
X38178571Y-65492380D01*
X38369047Y-65492380D01*
X38464285Y-65444761D01*
X38511904Y-65397142D01*
X38559523Y-65301904D01*
X38559523Y-64492380D01*
X39464285Y-64492380D02*
X39273809Y-64492380D01*
X39178571Y-64540000D01*
X39130952Y-64587619D01*
X39035714Y-64730476D01*
X38988095Y-64920952D01*
X38988095Y-65301904D01*
X39035714Y-65397142D01*
X39083333Y-65444761D01*
X39178571Y-65492380D01*
X39369047Y-65492380D01*
X39464285Y-65444761D01*
X39511904Y-65397142D01*
X39559523Y-65301904D01*
X39559523Y-65063809D01*
X39511904Y-64968571D01*
X39464285Y-64920952D01*
X39369047Y-64873333D01*
X39178571Y-64873333D01*
X39083333Y-64920952D01*
X39035714Y-64968571D01*
X38988095Y-65063809D01*
%TO.C,U8*%
X74652380Y-55629404D02*
X75461904Y-55629404D01*
X75557142Y-55581785D01*
X75604761Y-55534166D01*
X75652380Y-55438928D01*
X75652380Y-55248452D01*
X75604761Y-55153214D01*
X75557142Y-55105595D01*
X75461904Y-55057976D01*
X74652380Y-55057976D01*
X75080952Y-54438928D02*
X75033333Y-54534166D01*
X74985714Y-54581785D01*
X74890476Y-54629404D01*
X74842857Y-54629404D01*
X74747619Y-54581785D01*
X74700000Y-54534166D01*
X74652380Y-54438928D01*
X74652380Y-54248452D01*
X74700000Y-54153214D01*
X74747619Y-54105595D01*
X74842857Y-54057976D01*
X74890476Y-54057976D01*
X74985714Y-54105595D01*
X75033333Y-54153214D01*
X75080952Y-54248452D01*
X75080952Y-54438928D01*
X75128571Y-54534166D01*
X75176190Y-54581785D01*
X75271428Y-54629404D01*
X75461904Y-54629404D01*
X75557142Y-54581785D01*
X75604761Y-54534166D01*
X75652380Y-54438928D01*
X75652380Y-54248452D01*
X75604761Y-54153214D01*
X75557142Y-54105595D01*
X75461904Y-54057976D01*
X75271428Y-54057976D01*
X75176190Y-54105595D01*
X75128571Y-54153214D01*
X75080952Y-54248452D01*
%TO.C,R10*%
X54539642Y-48959880D02*
X54206309Y-48483690D01*
X53968214Y-48959880D02*
X53968214Y-47959880D01*
X54349166Y-47959880D01*
X54444404Y-48007500D01*
X54492023Y-48055119D01*
X54539642Y-48150357D01*
X54539642Y-48293214D01*
X54492023Y-48388452D01*
X54444404Y-48436071D01*
X54349166Y-48483690D01*
X53968214Y-48483690D01*
X55492023Y-48959880D02*
X54920595Y-48959880D01*
X55206309Y-48959880D02*
X55206309Y-47959880D01*
X55111071Y-48102738D01*
X55015833Y-48197976D01*
X54920595Y-48245595D01*
X56111071Y-47959880D02*
X56206309Y-47959880D01*
X56301547Y-48007500D01*
X56349166Y-48055119D01*
X56396785Y-48150357D01*
X56444404Y-48340833D01*
X56444404Y-48578928D01*
X56396785Y-48769404D01*
X56349166Y-48864642D01*
X56301547Y-48912261D01*
X56206309Y-48959880D01*
X56111071Y-48959880D01*
X56015833Y-48912261D01*
X55968214Y-48864642D01*
X55920595Y-48769404D01*
X55872976Y-48578928D01*
X55872976Y-48340833D01*
X55920595Y-48150357D01*
X55968214Y-48055119D01*
X56015833Y-48007500D01*
X56111071Y-47959880D01*
%TO.C,H4*%
X101238095Y-27442380D02*
X101238095Y-26442380D01*
X101238095Y-26918571D02*
X101809523Y-26918571D01*
X101809523Y-27442380D02*
X101809523Y-26442380D01*
X102714285Y-26775714D02*
X102714285Y-27442380D01*
X102476190Y-26394761D02*
X102238095Y-27109047D01*
X102857142Y-27109047D01*
%TO.C,R31*%
X64072380Y-26582857D02*
X63596190Y-26916190D01*
X64072380Y-27154285D02*
X63072380Y-27154285D01*
X63072380Y-26773333D01*
X63120000Y-26678095D01*
X63167619Y-26630476D01*
X63262857Y-26582857D01*
X63405714Y-26582857D01*
X63500952Y-26630476D01*
X63548571Y-26678095D01*
X63596190Y-26773333D01*
X63596190Y-27154285D01*
X63072380Y-26249523D02*
X63072380Y-25630476D01*
X63453333Y-25963809D01*
X63453333Y-25820952D01*
X63500952Y-25725714D01*
X63548571Y-25678095D01*
X63643809Y-25630476D01*
X63881904Y-25630476D01*
X63977142Y-25678095D01*
X64024761Y-25725714D01*
X64072380Y-25820952D01*
X64072380Y-26106666D01*
X64024761Y-26201904D01*
X63977142Y-26249523D01*
X64072380Y-24678095D02*
X64072380Y-25249523D01*
X64072380Y-24963809D02*
X63072380Y-24963809D01*
X63215238Y-25059047D01*
X63310476Y-25154285D01*
X63358095Y-25249523D01*
%TO.C,C4*%
X83633333Y-23267142D02*
X83585714Y-23314761D01*
X83442857Y-23362380D01*
X83347619Y-23362380D01*
X83204761Y-23314761D01*
X83109523Y-23219523D01*
X83061904Y-23124285D01*
X83014285Y-22933809D01*
X83014285Y-22790952D01*
X83061904Y-22600476D01*
X83109523Y-22505238D01*
X83204761Y-22410000D01*
X83347619Y-22362380D01*
X83442857Y-22362380D01*
X83585714Y-22410000D01*
X83633333Y-22457619D01*
X84490476Y-22695714D02*
X84490476Y-23362380D01*
X84252380Y-22314761D02*
X84014285Y-23029047D01*
X84633333Y-23029047D01*
%TO.C,R11*%
X62819642Y-37969880D02*
X62486309Y-37493690D01*
X62248214Y-37969880D02*
X62248214Y-36969880D01*
X62629166Y-36969880D01*
X62724404Y-37017500D01*
X62772023Y-37065119D01*
X62819642Y-37160357D01*
X62819642Y-37303214D01*
X62772023Y-37398452D01*
X62724404Y-37446071D01*
X62629166Y-37493690D01*
X62248214Y-37493690D01*
X63772023Y-37969880D02*
X63200595Y-37969880D01*
X63486309Y-37969880D02*
X63486309Y-36969880D01*
X63391071Y-37112738D01*
X63295833Y-37207976D01*
X63200595Y-37255595D01*
X64724404Y-37969880D02*
X64152976Y-37969880D01*
X64438690Y-37969880D02*
X64438690Y-36969880D01*
X64343452Y-37112738D01*
X64248214Y-37207976D01*
X64152976Y-37255595D01*
%TO.C,R26*%
X71232380Y-60970357D02*
X70756190Y-61303690D01*
X71232380Y-61541785D02*
X70232380Y-61541785D01*
X70232380Y-61160833D01*
X70280000Y-61065595D01*
X70327619Y-61017976D01*
X70422857Y-60970357D01*
X70565714Y-60970357D01*
X70660952Y-61017976D01*
X70708571Y-61065595D01*
X70756190Y-61160833D01*
X70756190Y-61541785D01*
X70327619Y-60589404D02*
X70280000Y-60541785D01*
X70232380Y-60446547D01*
X70232380Y-60208452D01*
X70280000Y-60113214D01*
X70327619Y-60065595D01*
X70422857Y-60017976D01*
X70518095Y-60017976D01*
X70660952Y-60065595D01*
X71232380Y-60637023D01*
X71232380Y-60017976D01*
X70232380Y-59160833D02*
X70232380Y-59351309D01*
X70280000Y-59446547D01*
X70327619Y-59494166D01*
X70470476Y-59589404D01*
X70660952Y-59637023D01*
X71041904Y-59637023D01*
X71137142Y-59589404D01*
X71184761Y-59541785D01*
X71232380Y-59446547D01*
X71232380Y-59256071D01*
X71184761Y-59160833D01*
X71137142Y-59113214D01*
X71041904Y-59065595D01*
X70803809Y-59065595D01*
X70708571Y-59113214D01*
X70660952Y-59160833D01*
X70613333Y-59256071D01*
X70613333Y-59446547D01*
X70660952Y-59541785D01*
X70708571Y-59589404D01*
X70803809Y-59637023D01*
%TO.C,C2*%
X28157083Y-48277142D02*
X28109464Y-48324761D01*
X27966607Y-48372380D01*
X27871369Y-48372380D01*
X27728511Y-48324761D01*
X27633273Y-48229523D01*
X27585654Y-48134285D01*
X27538035Y-47943809D01*
X27538035Y-47800952D01*
X27585654Y-47610476D01*
X27633273Y-47515238D01*
X27728511Y-47420000D01*
X27871369Y-47372380D01*
X27966607Y-47372380D01*
X28109464Y-47420000D01*
X28157083Y-47467619D01*
X28538035Y-47467619D02*
X28585654Y-47420000D01*
X28680892Y-47372380D01*
X28918988Y-47372380D01*
X29014226Y-47420000D01*
X29061845Y-47467619D01*
X29109464Y-47562857D01*
X29109464Y-47658095D01*
X29061845Y-47800952D01*
X28490416Y-48372380D01*
X29109464Y-48372380D01*
%TO.C,R9*%
X64654880Y-32714166D02*
X64178690Y-33047500D01*
X64654880Y-33285595D02*
X63654880Y-33285595D01*
X63654880Y-32904642D01*
X63702500Y-32809404D01*
X63750119Y-32761785D01*
X63845357Y-32714166D01*
X63988214Y-32714166D01*
X64083452Y-32761785D01*
X64131071Y-32809404D01*
X64178690Y-32904642D01*
X64178690Y-33285595D01*
X64654880Y-32237976D02*
X64654880Y-32047500D01*
X64607261Y-31952261D01*
X64559642Y-31904642D01*
X64416785Y-31809404D01*
X64226309Y-31761785D01*
X63845357Y-31761785D01*
X63750119Y-31809404D01*
X63702500Y-31857023D01*
X63654880Y-31952261D01*
X63654880Y-32142738D01*
X63702500Y-32237976D01*
X63750119Y-32285595D01*
X63845357Y-32333214D01*
X64083452Y-32333214D01*
X64178690Y-32285595D01*
X64226309Y-32237976D01*
X64273928Y-32142738D01*
X64273928Y-31952261D01*
X64226309Y-31857023D01*
X64178690Y-31809404D01*
X64083452Y-31761785D01*
%TO.C,R6*%
X80933333Y-36442380D02*
X80600000Y-35966190D01*
X80361904Y-36442380D02*
X80361904Y-35442380D01*
X80742857Y-35442380D01*
X80838095Y-35490000D01*
X80885714Y-35537619D01*
X80933333Y-35632857D01*
X80933333Y-35775714D01*
X80885714Y-35870952D01*
X80838095Y-35918571D01*
X80742857Y-35966190D01*
X80361904Y-35966190D01*
X81790476Y-35442380D02*
X81600000Y-35442380D01*
X81504761Y-35490000D01*
X81457142Y-35537619D01*
X81361904Y-35680476D01*
X81314285Y-35870952D01*
X81314285Y-36251904D01*
X81361904Y-36347142D01*
X81409523Y-36394761D01*
X81504761Y-36442380D01*
X81695238Y-36442380D01*
X81790476Y-36394761D01*
X81838095Y-36347142D01*
X81885714Y-36251904D01*
X81885714Y-36013809D01*
X81838095Y-35918571D01*
X81790476Y-35870952D01*
X81695238Y-35823333D01*
X81504761Y-35823333D01*
X81409523Y-35870952D01*
X81361904Y-35918571D01*
X81314285Y-36013809D01*
%TO.C,C9*%
X88243333Y-56864642D02*
X88195714Y-56912261D01*
X88052857Y-56959880D01*
X87957619Y-56959880D01*
X87814761Y-56912261D01*
X87719523Y-56817023D01*
X87671904Y-56721785D01*
X87624285Y-56531309D01*
X87624285Y-56388452D01*
X87671904Y-56197976D01*
X87719523Y-56102738D01*
X87814761Y-56007500D01*
X87957619Y-55959880D01*
X88052857Y-55959880D01*
X88195714Y-56007500D01*
X88243333Y-56055119D01*
X88719523Y-56959880D02*
X88910000Y-56959880D01*
X89005238Y-56912261D01*
X89052857Y-56864642D01*
X89148095Y-56721785D01*
X89195714Y-56531309D01*
X89195714Y-56150357D01*
X89148095Y-56055119D01*
X89100476Y-56007500D01*
X89005238Y-55959880D01*
X88814761Y-55959880D01*
X88719523Y-56007500D01*
X88671904Y-56055119D01*
X88624285Y-56150357D01*
X88624285Y-56388452D01*
X88671904Y-56483690D01*
X88719523Y-56531309D01*
X88814761Y-56578928D01*
X89005238Y-56578928D01*
X89100476Y-56531309D01*
X89148095Y-56483690D01*
X89195714Y-56388452D01*
%TO.C,H1*%
X22238095Y-27442380D02*
X22238095Y-26442380D01*
X22238095Y-26918571D02*
X22809523Y-26918571D01*
X22809523Y-27442380D02*
X22809523Y-26442380D01*
X23809523Y-27442380D02*
X23238095Y-27442380D01*
X23523809Y-27442380D02*
X23523809Y-26442380D01*
X23428571Y-26585238D01*
X23333333Y-26680476D01*
X23238095Y-26728095D01*
%TO.C,RV1*%
X46964761Y-26172380D02*
X46631428Y-25696190D01*
X46393333Y-26172380D02*
X46393333Y-25172380D01*
X46774285Y-25172380D01*
X46869523Y-25220000D01*
X46917142Y-25267619D01*
X46964761Y-25362857D01*
X46964761Y-25505714D01*
X46917142Y-25600952D01*
X46869523Y-25648571D01*
X46774285Y-25696190D01*
X46393333Y-25696190D01*
X47250476Y-25172380D02*
X47583809Y-26172380D01*
X47917142Y-25172380D01*
X48774285Y-26172380D02*
X48202857Y-26172380D01*
X48488571Y-26172380D02*
X48488571Y-25172380D01*
X48393333Y-25315238D01*
X48298095Y-25410476D01*
X48202857Y-25458095D01*
%TO.C,R14*%
X91997142Y-46279880D02*
X91663809Y-45803690D01*
X91425714Y-46279880D02*
X91425714Y-45279880D01*
X91806666Y-45279880D01*
X91901904Y-45327500D01*
X91949523Y-45375119D01*
X91997142Y-45470357D01*
X91997142Y-45613214D01*
X91949523Y-45708452D01*
X91901904Y-45756071D01*
X91806666Y-45803690D01*
X91425714Y-45803690D01*
X92949523Y-46279880D02*
X92378095Y-46279880D01*
X92663809Y-46279880D02*
X92663809Y-45279880D01*
X92568571Y-45422738D01*
X92473333Y-45517976D01*
X92378095Y-45565595D01*
X93806666Y-45613214D02*
X93806666Y-46279880D01*
X93568571Y-45232261D02*
X93330476Y-45946547D01*
X93949523Y-45946547D01*
%TO.C,R33*%
X54529642Y-45369880D02*
X54196309Y-44893690D01*
X53958214Y-45369880D02*
X53958214Y-44369880D01*
X54339166Y-44369880D01*
X54434404Y-44417500D01*
X54482023Y-44465119D01*
X54529642Y-44560357D01*
X54529642Y-44703214D01*
X54482023Y-44798452D01*
X54434404Y-44846071D01*
X54339166Y-44893690D01*
X53958214Y-44893690D01*
X54862976Y-44369880D02*
X55482023Y-44369880D01*
X55148690Y-44750833D01*
X55291547Y-44750833D01*
X55386785Y-44798452D01*
X55434404Y-44846071D01*
X55482023Y-44941309D01*
X55482023Y-45179404D01*
X55434404Y-45274642D01*
X55386785Y-45322261D01*
X55291547Y-45369880D01*
X55005833Y-45369880D01*
X54910595Y-45322261D01*
X54862976Y-45274642D01*
X55815357Y-44369880D02*
X56434404Y-44369880D01*
X56101071Y-44750833D01*
X56243928Y-44750833D01*
X56339166Y-44798452D01*
X56386785Y-44846071D01*
X56434404Y-44941309D01*
X56434404Y-45179404D01*
X56386785Y-45274642D01*
X56339166Y-45322261D01*
X56243928Y-45369880D01*
X55958214Y-45369880D01*
X55862976Y-45322261D01*
X55815357Y-45274642D01*
%TO.C,Q1*%
X43817261Y-47087619D02*
X43722023Y-47040000D01*
X43626785Y-46944761D01*
X43483928Y-46801904D01*
X43388690Y-46754285D01*
X43293452Y-46754285D01*
X43341071Y-46992380D02*
X43245833Y-46944761D01*
X43150595Y-46849523D01*
X43102976Y-46659047D01*
X43102976Y-46325714D01*
X43150595Y-46135238D01*
X43245833Y-46040000D01*
X43341071Y-45992380D01*
X43531547Y-45992380D01*
X43626785Y-46040000D01*
X43722023Y-46135238D01*
X43769642Y-46325714D01*
X43769642Y-46659047D01*
X43722023Y-46849523D01*
X43626785Y-46944761D01*
X43531547Y-46992380D01*
X43341071Y-46992380D01*
X44722023Y-46992380D02*
X44150595Y-46992380D01*
X44436309Y-46992380D02*
X44436309Y-45992380D01*
X44341071Y-46135238D01*
X44245833Y-46230476D01*
X44150595Y-46278095D01*
%TO.C,R13*%
X96957142Y-46299880D02*
X96623809Y-45823690D01*
X96385714Y-46299880D02*
X96385714Y-45299880D01*
X96766666Y-45299880D01*
X96861904Y-45347500D01*
X96909523Y-45395119D01*
X96957142Y-45490357D01*
X96957142Y-45633214D01*
X96909523Y-45728452D01*
X96861904Y-45776071D01*
X96766666Y-45823690D01*
X96385714Y-45823690D01*
X97909523Y-46299880D02*
X97338095Y-46299880D01*
X97623809Y-46299880D02*
X97623809Y-45299880D01*
X97528571Y-45442738D01*
X97433333Y-45537976D01*
X97338095Y-45585595D01*
X98242857Y-45299880D02*
X98861904Y-45299880D01*
X98528571Y-45680833D01*
X98671428Y-45680833D01*
X98766666Y-45728452D01*
X98814285Y-45776071D01*
X98861904Y-45871309D01*
X98861904Y-46109404D01*
X98814285Y-46204642D01*
X98766666Y-46252261D01*
X98671428Y-46299880D01*
X98385714Y-46299880D01*
X98290476Y-46252261D01*
X98242857Y-46204642D01*
%TO.C,C14*%
X79747142Y-64257142D02*
X79699523Y-64304761D01*
X79556666Y-64352380D01*
X79461428Y-64352380D01*
X79318571Y-64304761D01*
X79223333Y-64209523D01*
X79175714Y-64114285D01*
X79128095Y-63923809D01*
X79128095Y-63780952D01*
X79175714Y-63590476D01*
X79223333Y-63495238D01*
X79318571Y-63400000D01*
X79461428Y-63352380D01*
X79556666Y-63352380D01*
X79699523Y-63400000D01*
X79747142Y-63447619D01*
X80699523Y-64352380D02*
X80128095Y-64352380D01*
X80413809Y-64352380D02*
X80413809Y-63352380D01*
X80318571Y-63495238D01*
X80223333Y-63590476D01*
X80128095Y-63638095D01*
X81556666Y-63685714D02*
X81556666Y-64352380D01*
X81318571Y-63304761D02*
X81080476Y-64019047D01*
X81699523Y-64019047D01*
%TO.C,J2*%
X97952380Y-56833333D02*
X98666666Y-56833333D01*
X98809523Y-56880952D01*
X98904761Y-56976190D01*
X98952380Y-57119047D01*
X98952380Y-57214285D01*
X98047619Y-56404761D02*
X98000000Y-56357142D01*
X97952380Y-56261904D01*
X97952380Y-56023809D01*
X98000000Y-55928571D01*
X98047619Y-55880952D01*
X98142857Y-55833333D01*
X98238095Y-55833333D01*
X98380952Y-55880952D01*
X98952380Y-56452380D01*
X98952380Y-55833333D01*
%TO.C,J1*%
X97952380Y-32833333D02*
X98666666Y-32833333D01*
X98809523Y-32880952D01*
X98904761Y-32976190D01*
X98952380Y-33119047D01*
X98952380Y-33214285D01*
X98952380Y-31833333D02*
X98952380Y-32404761D01*
X98952380Y-32119047D02*
X97952380Y-32119047D01*
X98095238Y-32214285D01*
X98190476Y-32309523D01*
X98238095Y-32404761D01*
%TO.C,R2*%
X85360833Y-27832380D02*
X85027500Y-27356190D01*
X84789404Y-27832380D02*
X84789404Y-26832380D01*
X85170357Y-26832380D01*
X85265595Y-26880000D01*
X85313214Y-26927619D01*
X85360833Y-27022857D01*
X85360833Y-27165714D01*
X85313214Y-27260952D01*
X85265595Y-27308571D01*
X85170357Y-27356190D01*
X84789404Y-27356190D01*
X85741785Y-26927619D02*
X85789404Y-26880000D01*
X85884642Y-26832380D01*
X86122738Y-26832380D01*
X86217976Y-26880000D01*
X86265595Y-26927619D01*
X86313214Y-27022857D01*
X86313214Y-27118095D01*
X86265595Y-27260952D01*
X85694166Y-27832380D01*
X86313214Y-27832380D01*
%TO.C,R12*%
X88717142Y-39049880D02*
X88383809Y-38573690D01*
X88145714Y-39049880D02*
X88145714Y-38049880D01*
X88526666Y-38049880D01*
X88621904Y-38097500D01*
X88669523Y-38145119D01*
X88717142Y-38240357D01*
X88717142Y-38383214D01*
X88669523Y-38478452D01*
X88621904Y-38526071D01*
X88526666Y-38573690D01*
X88145714Y-38573690D01*
X89669523Y-39049880D02*
X89098095Y-39049880D01*
X89383809Y-39049880D02*
X89383809Y-38049880D01*
X89288571Y-38192738D01*
X89193333Y-38287976D01*
X89098095Y-38335595D01*
X90050476Y-38145119D02*
X90098095Y-38097500D01*
X90193333Y-38049880D01*
X90431428Y-38049880D01*
X90526666Y-38097500D01*
X90574285Y-38145119D01*
X90621904Y-38240357D01*
X90621904Y-38335595D01*
X90574285Y-38478452D01*
X90002857Y-39049880D01*
X90621904Y-39049880D01*
%TO.C,R24*%
X89487142Y-63202380D02*
X89153809Y-62726190D01*
X88915714Y-63202380D02*
X88915714Y-62202380D01*
X89296666Y-62202380D01*
X89391904Y-62250000D01*
X89439523Y-62297619D01*
X89487142Y-62392857D01*
X89487142Y-62535714D01*
X89439523Y-62630952D01*
X89391904Y-62678571D01*
X89296666Y-62726190D01*
X88915714Y-62726190D01*
X89868095Y-62297619D02*
X89915714Y-62250000D01*
X90010952Y-62202380D01*
X90249047Y-62202380D01*
X90344285Y-62250000D01*
X90391904Y-62297619D01*
X90439523Y-62392857D01*
X90439523Y-62488095D01*
X90391904Y-62630952D01*
X89820476Y-63202380D01*
X90439523Y-63202380D01*
X91296666Y-62535714D02*
X91296666Y-63202380D01*
X91058571Y-62154761D02*
X90820476Y-62869047D01*
X91439523Y-62869047D01*
%TO.C,R4*%
X28383333Y-60212380D02*
X28050000Y-59736190D01*
X27811904Y-60212380D02*
X27811904Y-59212380D01*
X28192857Y-59212380D01*
X28288095Y-59260000D01*
X28335714Y-59307619D01*
X28383333Y-59402857D01*
X28383333Y-59545714D01*
X28335714Y-59640952D01*
X28288095Y-59688571D01*
X28192857Y-59736190D01*
X27811904Y-59736190D01*
X29240476Y-59545714D02*
X29240476Y-60212380D01*
X29002380Y-59164761D02*
X28764285Y-59879047D01*
X29383333Y-59879047D01*
%TO.C,J3*%
X63106666Y-60372380D02*
X63106666Y-61086666D01*
X63059047Y-61229523D01*
X62963809Y-61324761D01*
X62820952Y-61372380D01*
X62725714Y-61372380D01*
X63487619Y-60372380D02*
X64106666Y-60372380D01*
X63773333Y-60753333D01*
X63916190Y-60753333D01*
X64011428Y-60800952D01*
X64059047Y-60848571D01*
X64106666Y-60943809D01*
X64106666Y-61181904D01*
X64059047Y-61277142D01*
X64011428Y-61324761D01*
X63916190Y-61372380D01*
X63630476Y-61372380D01*
X63535238Y-61324761D01*
X63487619Y-61277142D01*
%TO.C,C6*%
X91240833Y-32407142D02*
X91193214Y-32454761D01*
X91050357Y-32502380D01*
X90955119Y-32502380D01*
X90812261Y-32454761D01*
X90717023Y-32359523D01*
X90669404Y-32264285D01*
X90621785Y-32073809D01*
X90621785Y-31930952D01*
X90669404Y-31740476D01*
X90717023Y-31645238D01*
X90812261Y-31550000D01*
X90955119Y-31502380D01*
X91050357Y-31502380D01*
X91193214Y-31550000D01*
X91240833Y-31597619D01*
X92097976Y-31502380D02*
X91907500Y-31502380D01*
X91812261Y-31550000D01*
X91764642Y-31597619D01*
X91669404Y-31740476D01*
X91621785Y-31930952D01*
X91621785Y-32311904D01*
X91669404Y-32407142D01*
X91717023Y-32454761D01*
X91812261Y-32502380D01*
X92002738Y-32502380D01*
X92097976Y-32454761D01*
X92145595Y-32407142D01*
X92193214Y-32311904D01*
X92193214Y-32073809D01*
X92145595Y-31978571D01*
X92097976Y-31930952D01*
X92002738Y-31883333D01*
X91812261Y-31883333D01*
X91717023Y-31930952D01*
X91669404Y-31978571D01*
X91621785Y-32073809D01*
%TO.C,R16*%
X46259642Y-39829880D02*
X45926309Y-39353690D01*
X45688214Y-39829880D02*
X45688214Y-38829880D01*
X46069166Y-38829880D01*
X46164404Y-38877500D01*
X46212023Y-38925119D01*
X46259642Y-39020357D01*
X46259642Y-39163214D01*
X46212023Y-39258452D01*
X46164404Y-39306071D01*
X46069166Y-39353690D01*
X45688214Y-39353690D01*
X47212023Y-39829880D02*
X46640595Y-39829880D01*
X46926309Y-39829880D02*
X46926309Y-38829880D01*
X46831071Y-38972738D01*
X46735833Y-39067976D01*
X46640595Y-39115595D01*
X48069166Y-38829880D02*
X47878690Y-38829880D01*
X47783452Y-38877500D01*
X47735833Y-38925119D01*
X47640595Y-39067976D01*
X47592976Y-39258452D01*
X47592976Y-39639404D01*
X47640595Y-39734642D01*
X47688214Y-39782261D01*
X47783452Y-39829880D01*
X47973928Y-39829880D01*
X48069166Y-39782261D01*
X48116785Y-39734642D01*
X48164404Y-39639404D01*
X48164404Y-39401309D01*
X48116785Y-39306071D01*
X48069166Y-39258452D01*
X47973928Y-39210833D01*
X47783452Y-39210833D01*
X47688214Y-39258452D01*
X47640595Y-39306071D01*
X47592976Y-39401309D01*
%TO.C,U7*%
X60264880Y-39099404D02*
X61074404Y-39099404D01*
X61169642Y-39051785D01*
X61217261Y-39004166D01*
X61264880Y-38908928D01*
X61264880Y-38718452D01*
X61217261Y-38623214D01*
X61169642Y-38575595D01*
X61074404Y-38527976D01*
X60264880Y-38527976D01*
X60264880Y-38147023D02*
X60264880Y-37480357D01*
X61264880Y-37908928D01*
%TO.C,C12*%
X87417142Y-49867142D02*
X87369523Y-49914761D01*
X87226666Y-49962380D01*
X87131428Y-49962380D01*
X86988571Y-49914761D01*
X86893333Y-49819523D01*
X86845714Y-49724285D01*
X86798095Y-49533809D01*
X86798095Y-49390952D01*
X86845714Y-49200476D01*
X86893333Y-49105238D01*
X86988571Y-49010000D01*
X87131428Y-48962380D01*
X87226666Y-48962380D01*
X87369523Y-49010000D01*
X87417142Y-49057619D01*
X88369523Y-49962380D02*
X87798095Y-49962380D01*
X88083809Y-49962380D02*
X88083809Y-48962380D01*
X87988571Y-49105238D01*
X87893333Y-49200476D01*
X87798095Y-49248095D01*
X88750476Y-49057619D02*
X88798095Y-49010000D01*
X88893333Y-48962380D01*
X89131428Y-48962380D01*
X89226666Y-49010000D01*
X89274285Y-49057619D01*
X89321904Y-49152857D01*
X89321904Y-49248095D01*
X89274285Y-49390952D01*
X88702857Y-49962380D01*
X89321904Y-49962380D01*
%TO.C,R15*%
X48589642Y-33569880D02*
X48256309Y-33093690D01*
X48018214Y-33569880D02*
X48018214Y-32569880D01*
X48399166Y-32569880D01*
X48494404Y-32617500D01*
X48542023Y-32665119D01*
X48589642Y-32760357D01*
X48589642Y-32903214D01*
X48542023Y-32998452D01*
X48494404Y-33046071D01*
X48399166Y-33093690D01*
X48018214Y-33093690D01*
X49542023Y-33569880D02*
X48970595Y-33569880D01*
X49256309Y-33569880D02*
X49256309Y-32569880D01*
X49161071Y-32712738D01*
X49065833Y-32807976D01*
X48970595Y-32855595D01*
X50446785Y-32569880D02*
X49970595Y-32569880D01*
X49922976Y-33046071D01*
X49970595Y-32998452D01*
X50065833Y-32950833D01*
X50303928Y-32950833D01*
X50399166Y-32998452D01*
X50446785Y-33046071D01*
X50494404Y-33141309D01*
X50494404Y-33379404D01*
X50446785Y-33474642D01*
X50399166Y-33522261D01*
X50303928Y-33569880D01*
X50065833Y-33569880D01*
X49970595Y-33522261D01*
X49922976Y-33474642D01*
%TO.C,R18*%
X48109642Y-29789880D02*
X47776309Y-29313690D01*
X47538214Y-29789880D02*
X47538214Y-28789880D01*
X47919166Y-28789880D01*
X48014404Y-28837500D01*
X48062023Y-28885119D01*
X48109642Y-28980357D01*
X48109642Y-29123214D01*
X48062023Y-29218452D01*
X48014404Y-29266071D01*
X47919166Y-29313690D01*
X47538214Y-29313690D01*
X49062023Y-29789880D02*
X48490595Y-29789880D01*
X48776309Y-29789880D02*
X48776309Y-28789880D01*
X48681071Y-28932738D01*
X48585833Y-29027976D01*
X48490595Y-29075595D01*
X49633452Y-29218452D02*
X49538214Y-29170833D01*
X49490595Y-29123214D01*
X49442976Y-29027976D01*
X49442976Y-28980357D01*
X49490595Y-28885119D01*
X49538214Y-28837500D01*
X49633452Y-28789880D01*
X49823928Y-28789880D01*
X49919166Y-28837500D01*
X49966785Y-28885119D01*
X50014404Y-28980357D01*
X50014404Y-29027976D01*
X49966785Y-29123214D01*
X49919166Y-29170833D01*
X49823928Y-29218452D01*
X49633452Y-29218452D01*
X49538214Y-29266071D01*
X49490595Y-29313690D01*
X49442976Y-29408928D01*
X49442976Y-29599404D01*
X49490595Y-29694642D01*
X49538214Y-29742261D01*
X49633452Y-29789880D01*
X49823928Y-29789880D01*
X49919166Y-29742261D01*
X49966785Y-29694642D01*
X50014404Y-29599404D01*
X50014404Y-29408928D01*
X49966785Y-29313690D01*
X49919166Y-29266071D01*
X49823928Y-29218452D01*
%TO.C,R32*%
X48867142Y-42162380D02*
X48533809Y-41686190D01*
X48295714Y-42162380D02*
X48295714Y-41162380D01*
X48676666Y-41162380D01*
X48771904Y-41210000D01*
X48819523Y-41257619D01*
X48867142Y-41352857D01*
X48867142Y-41495714D01*
X48819523Y-41590952D01*
X48771904Y-41638571D01*
X48676666Y-41686190D01*
X48295714Y-41686190D01*
X49200476Y-41162380D02*
X49819523Y-41162380D01*
X49486190Y-41543333D01*
X49629047Y-41543333D01*
X49724285Y-41590952D01*
X49771904Y-41638571D01*
X49819523Y-41733809D01*
X49819523Y-41971904D01*
X49771904Y-42067142D01*
X49724285Y-42114761D01*
X49629047Y-42162380D01*
X49343333Y-42162380D01*
X49248095Y-42114761D01*
X49200476Y-42067142D01*
X50200476Y-41257619D02*
X50248095Y-41210000D01*
X50343333Y-41162380D01*
X50581428Y-41162380D01*
X50676666Y-41210000D01*
X50724285Y-41257619D01*
X50771904Y-41352857D01*
X50771904Y-41448095D01*
X50724285Y-41590952D01*
X50152857Y-42162380D01*
X50771904Y-42162380D01*
%TO.C,C7*%
X28283333Y-56997142D02*
X28235714Y-57044761D01*
X28092857Y-57092380D01*
X27997619Y-57092380D01*
X27854761Y-57044761D01*
X27759523Y-56949523D01*
X27711904Y-56854285D01*
X27664285Y-56663809D01*
X27664285Y-56520952D01*
X27711904Y-56330476D01*
X27759523Y-56235238D01*
X27854761Y-56140000D01*
X27997619Y-56092380D01*
X28092857Y-56092380D01*
X28235714Y-56140000D01*
X28283333Y-56187619D01*
X28616666Y-56092380D02*
X29283333Y-56092380D01*
X28854761Y-57092380D01*
%TO.C,R17*%
X77187142Y-66932380D02*
X76853809Y-66456190D01*
X76615714Y-66932380D02*
X76615714Y-65932380D01*
X76996666Y-65932380D01*
X77091904Y-65980000D01*
X77139523Y-66027619D01*
X77187142Y-66122857D01*
X77187142Y-66265714D01*
X77139523Y-66360952D01*
X77091904Y-66408571D01*
X76996666Y-66456190D01*
X76615714Y-66456190D01*
X78139523Y-66932380D02*
X77568095Y-66932380D01*
X77853809Y-66932380D02*
X77853809Y-65932380D01*
X77758571Y-66075238D01*
X77663333Y-66170476D01*
X77568095Y-66218095D01*
X78472857Y-65932380D02*
X79139523Y-65932380D01*
X78710952Y-66932380D01*
%TO.C,R20*%
X74347142Y-60272380D02*
X74013809Y-59796190D01*
X73775714Y-60272380D02*
X73775714Y-59272380D01*
X74156666Y-59272380D01*
X74251904Y-59320000D01*
X74299523Y-59367619D01*
X74347142Y-59462857D01*
X74347142Y-59605714D01*
X74299523Y-59700952D01*
X74251904Y-59748571D01*
X74156666Y-59796190D01*
X73775714Y-59796190D01*
X74728095Y-59367619D02*
X74775714Y-59320000D01*
X74870952Y-59272380D01*
X75109047Y-59272380D01*
X75204285Y-59320000D01*
X75251904Y-59367619D01*
X75299523Y-59462857D01*
X75299523Y-59558095D01*
X75251904Y-59700952D01*
X74680476Y-60272380D01*
X75299523Y-60272380D01*
X75918571Y-59272380D02*
X76013809Y-59272380D01*
X76109047Y-59320000D01*
X76156666Y-59367619D01*
X76204285Y-59462857D01*
X76251904Y-59653333D01*
X76251904Y-59891428D01*
X76204285Y-60081904D01*
X76156666Y-60177142D01*
X76109047Y-60224761D01*
X76013809Y-60272380D01*
X75918571Y-60272380D01*
X75823333Y-60224761D01*
X75775714Y-60177142D01*
X75728095Y-60081904D01*
X75680476Y-59891428D01*
X75680476Y-59653333D01*
X75728095Y-59462857D01*
X75775714Y-59367619D01*
X75823333Y-59320000D01*
X75918571Y-59272380D01*
%TO.C,R22*%
X72227142Y-53289880D02*
X71893809Y-52813690D01*
X71655714Y-53289880D02*
X71655714Y-52289880D01*
X72036666Y-52289880D01*
X72131904Y-52337500D01*
X72179523Y-52385119D01*
X72227142Y-52480357D01*
X72227142Y-52623214D01*
X72179523Y-52718452D01*
X72131904Y-52766071D01*
X72036666Y-52813690D01*
X71655714Y-52813690D01*
X72608095Y-52385119D02*
X72655714Y-52337500D01*
X72750952Y-52289880D01*
X72989047Y-52289880D01*
X73084285Y-52337500D01*
X73131904Y-52385119D01*
X73179523Y-52480357D01*
X73179523Y-52575595D01*
X73131904Y-52718452D01*
X72560476Y-53289880D01*
X73179523Y-53289880D01*
X73560476Y-52385119D02*
X73608095Y-52337500D01*
X73703333Y-52289880D01*
X73941428Y-52289880D01*
X74036666Y-52337500D01*
X74084285Y-52385119D01*
X74131904Y-52480357D01*
X74131904Y-52575595D01*
X74084285Y-52718452D01*
X73512857Y-53289880D01*
X74131904Y-53289880D01*
%TO.C,R7*%
X89383333Y-59612380D02*
X89050000Y-59136190D01*
X88811904Y-59612380D02*
X88811904Y-58612380D01*
X89192857Y-58612380D01*
X89288095Y-58660000D01*
X89335714Y-58707619D01*
X89383333Y-58802857D01*
X89383333Y-58945714D01*
X89335714Y-59040952D01*
X89288095Y-59088571D01*
X89192857Y-59136190D01*
X88811904Y-59136190D01*
X89716666Y-58612380D02*
X90383333Y-58612380D01*
X89954761Y-59612380D01*
%TO.C,L2*%
X83980833Y-32382380D02*
X83504642Y-32382380D01*
X83504642Y-31382380D01*
X84266547Y-31477619D02*
X84314166Y-31430000D01*
X84409404Y-31382380D01*
X84647500Y-31382380D01*
X84742738Y-31430000D01*
X84790357Y-31477619D01*
X84837976Y-31572857D01*
X84837976Y-31668095D01*
X84790357Y-31810952D01*
X84218928Y-32382380D01*
X84837976Y-32382380D01*
%TO.C,C3*%
X89630833Y-27767142D02*
X89583214Y-27814761D01*
X89440357Y-27862380D01*
X89345119Y-27862380D01*
X89202261Y-27814761D01*
X89107023Y-27719523D01*
X89059404Y-27624285D01*
X89011785Y-27433809D01*
X89011785Y-27290952D01*
X89059404Y-27100476D01*
X89107023Y-27005238D01*
X89202261Y-26910000D01*
X89345119Y-26862380D01*
X89440357Y-26862380D01*
X89583214Y-26910000D01*
X89630833Y-26957619D01*
X89964166Y-26862380D02*
X90583214Y-26862380D01*
X90249880Y-27243333D01*
X90392738Y-27243333D01*
X90487976Y-27290952D01*
X90535595Y-27338571D01*
X90583214Y-27433809D01*
X90583214Y-27671904D01*
X90535595Y-27767142D01*
X90487976Y-27814761D01*
X90392738Y-27862380D01*
X90107023Y-27862380D01*
X90011785Y-27814761D01*
X89964166Y-27767142D01*
%TO.C,R1*%
X33103333Y-50852380D02*
X32770000Y-50376190D01*
X32531904Y-50852380D02*
X32531904Y-49852380D01*
X32912857Y-49852380D01*
X33008095Y-49900000D01*
X33055714Y-49947619D01*
X33103333Y-50042857D01*
X33103333Y-50185714D01*
X33055714Y-50280952D01*
X33008095Y-50328571D01*
X32912857Y-50376190D01*
X32531904Y-50376190D01*
X34055714Y-50852380D02*
X33484285Y-50852380D01*
X33770000Y-50852380D02*
X33770000Y-49852380D01*
X33674761Y-49995238D01*
X33579523Y-50090476D01*
X33484285Y-50138095D01*
%TO.C,H3*%
X22238095Y-62662380D02*
X22238095Y-61662380D01*
X22238095Y-62138571D02*
X22809523Y-62138571D01*
X22809523Y-62662380D02*
X22809523Y-61662380D01*
X23190476Y-61662380D02*
X23809523Y-61662380D01*
X23476190Y-62043333D01*
X23619047Y-62043333D01*
X23714285Y-62090952D01*
X23761904Y-62138571D01*
X23809523Y-62233809D01*
X23809523Y-62471904D01*
X23761904Y-62567142D01*
X23714285Y-62614761D01*
X23619047Y-62662380D01*
X23333333Y-62662380D01*
X23238095Y-62614761D01*
X23190476Y-62567142D01*
%TO.C,L1*%
X26493333Y-54542380D02*
X26017142Y-54542380D01*
X26017142Y-53542380D01*
X27350476Y-54542380D02*
X26779047Y-54542380D01*
X27064761Y-54542380D02*
X27064761Y-53542380D01*
X26969523Y-53685238D01*
X26874285Y-53780476D01*
X26779047Y-53828095D01*
%TO.C,RV2*%
X81054761Y-44359880D02*
X80721428Y-43883690D01*
X80483333Y-44359880D02*
X80483333Y-43359880D01*
X80864285Y-43359880D01*
X80959523Y-43407500D01*
X81007142Y-43455119D01*
X81054761Y-43550357D01*
X81054761Y-43693214D01*
X81007142Y-43788452D01*
X80959523Y-43836071D01*
X80864285Y-43883690D01*
X80483333Y-43883690D01*
X81340476Y-43359880D02*
X81673809Y-44359880D01*
X82007142Y-43359880D01*
X82292857Y-43455119D02*
X82340476Y-43407500D01*
X82435714Y-43359880D01*
X82673809Y-43359880D01*
X82769047Y-43407500D01*
X82816666Y-43455119D01*
X82864285Y-43550357D01*
X82864285Y-43645595D01*
X82816666Y-43788452D01*
X82245238Y-44359880D01*
X82864285Y-44359880D01*
%TO.C,R8*%
X57015833Y-29719880D02*
X56682500Y-29243690D01*
X56444404Y-29719880D02*
X56444404Y-28719880D01*
X56825357Y-28719880D01*
X56920595Y-28767500D01*
X56968214Y-28815119D01*
X57015833Y-28910357D01*
X57015833Y-29053214D01*
X56968214Y-29148452D01*
X56920595Y-29196071D01*
X56825357Y-29243690D01*
X56444404Y-29243690D01*
X57587261Y-29148452D02*
X57492023Y-29100833D01*
X57444404Y-29053214D01*
X57396785Y-28957976D01*
X57396785Y-28910357D01*
X57444404Y-28815119D01*
X57492023Y-28767500D01*
X57587261Y-28719880D01*
X57777738Y-28719880D01*
X57872976Y-28767500D01*
X57920595Y-28815119D01*
X57968214Y-28910357D01*
X57968214Y-28957976D01*
X57920595Y-29053214D01*
X57872976Y-29100833D01*
X57777738Y-29148452D01*
X57587261Y-29148452D01*
X57492023Y-29196071D01*
X57444404Y-29243690D01*
X57396785Y-29338928D01*
X57396785Y-29529404D01*
X57444404Y-29624642D01*
X57492023Y-29672261D01*
X57587261Y-29719880D01*
X57777738Y-29719880D01*
X57872976Y-29672261D01*
X57920595Y-29624642D01*
X57968214Y-29529404D01*
X57968214Y-29338928D01*
X57920595Y-29243690D01*
X57872976Y-29196071D01*
X57777738Y-29148452D01*
%TO.C,R25*%
X85102380Y-61982857D02*
X84626190Y-62316190D01*
X85102380Y-62554285D02*
X84102380Y-62554285D01*
X84102380Y-62173333D01*
X84150000Y-62078095D01*
X84197619Y-62030476D01*
X84292857Y-61982857D01*
X84435714Y-61982857D01*
X84530952Y-62030476D01*
X84578571Y-62078095D01*
X84626190Y-62173333D01*
X84626190Y-62554285D01*
X84197619Y-61601904D02*
X84150000Y-61554285D01*
X84102380Y-61459047D01*
X84102380Y-61220952D01*
X84150000Y-61125714D01*
X84197619Y-61078095D01*
X84292857Y-61030476D01*
X84388095Y-61030476D01*
X84530952Y-61078095D01*
X85102380Y-61649523D01*
X85102380Y-61030476D01*
X84102380Y-60125714D02*
X84102380Y-60601904D01*
X84578571Y-60649523D01*
X84530952Y-60601904D01*
X84483333Y-60506666D01*
X84483333Y-60268571D01*
X84530952Y-60173333D01*
X84578571Y-60125714D01*
X84673809Y-60078095D01*
X84911904Y-60078095D01*
X85007142Y-60125714D01*
X85054761Y-60173333D01*
X85102380Y-60268571D01*
X85102380Y-60506666D01*
X85054761Y-60601904D01*
X85007142Y-60649523D01*
%TO.C,C10*%
X83267142Y-46227142D02*
X83219523Y-46274761D01*
X83076666Y-46322380D01*
X82981428Y-46322380D01*
X82838571Y-46274761D01*
X82743333Y-46179523D01*
X82695714Y-46084285D01*
X82648095Y-45893809D01*
X82648095Y-45750952D01*
X82695714Y-45560476D01*
X82743333Y-45465238D01*
X82838571Y-45370000D01*
X82981428Y-45322380D01*
X83076666Y-45322380D01*
X83219523Y-45370000D01*
X83267142Y-45417619D01*
X84219523Y-46322380D02*
X83648095Y-46322380D01*
X83933809Y-46322380D02*
X83933809Y-45322380D01*
X83838571Y-45465238D01*
X83743333Y-45560476D01*
X83648095Y-45608095D01*
X84838571Y-45322380D02*
X84933809Y-45322380D01*
X85029047Y-45370000D01*
X85076666Y-45417619D01*
X85124285Y-45512857D01*
X85171904Y-45703333D01*
X85171904Y-45941428D01*
X85124285Y-46131904D01*
X85076666Y-46227142D01*
X85029047Y-46274761D01*
X84933809Y-46322380D01*
X84838571Y-46322380D01*
X84743333Y-46274761D01*
X84695714Y-46227142D01*
X84648095Y-46131904D01*
X84600476Y-45941428D01*
X84600476Y-45703333D01*
X84648095Y-45512857D01*
X84695714Y-45417619D01*
X84743333Y-45370000D01*
X84838571Y-45322380D01*
%TO.C,U5*%
X42068095Y-37032380D02*
X42068095Y-37841904D01*
X42115714Y-37937142D01*
X42163333Y-37984761D01*
X42258571Y-38032380D01*
X42449047Y-38032380D01*
X42544285Y-37984761D01*
X42591904Y-37937142D01*
X42639523Y-37841904D01*
X42639523Y-37032380D01*
X43591904Y-37032380D02*
X43115714Y-37032380D01*
X43068095Y-37508571D01*
X43115714Y-37460952D01*
X43210952Y-37413333D01*
X43449047Y-37413333D01*
X43544285Y-37460952D01*
X43591904Y-37508571D01*
X43639523Y-37603809D01*
X43639523Y-37841904D01*
X43591904Y-37937142D01*
X43544285Y-37984761D01*
X43449047Y-38032380D01*
X43210952Y-38032380D01*
X43115714Y-37984761D01*
X43068095Y-37937142D01*
%TO.C,R19*%
X51987142Y-29759880D02*
X51653809Y-29283690D01*
X51415714Y-29759880D02*
X51415714Y-28759880D01*
X51796666Y-28759880D01*
X51891904Y-28807500D01*
X51939523Y-28855119D01*
X51987142Y-28950357D01*
X51987142Y-29093214D01*
X51939523Y-29188452D01*
X51891904Y-29236071D01*
X51796666Y-29283690D01*
X51415714Y-29283690D01*
X52939523Y-29759880D02*
X52368095Y-29759880D01*
X52653809Y-29759880D02*
X52653809Y-28759880D01*
X52558571Y-28902738D01*
X52463333Y-28997976D01*
X52368095Y-29045595D01*
X53415714Y-29759880D02*
X53606190Y-29759880D01*
X53701428Y-29712261D01*
X53749047Y-29664642D01*
X53844285Y-29521785D01*
X53891904Y-29331309D01*
X53891904Y-28950357D01*
X53844285Y-28855119D01*
X53796666Y-28807500D01*
X53701428Y-28759880D01*
X53510952Y-28759880D01*
X53415714Y-28807500D01*
X53368095Y-28855119D01*
X53320476Y-28950357D01*
X53320476Y-29188452D01*
X53368095Y-29283690D01*
X53415714Y-29331309D01*
X53510952Y-29378928D01*
X53701428Y-29378928D01*
X53796666Y-29331309D01*
X53844285Y-29283690D01*
X53891904Y-29188452D01*
%TO.C,R23*%
X72247142Y-49599880D02*
X71913809Y-49123690D01*
X71675714Y-49599880D02*
X71675714Y-48599880D01*
X72056666Y-48599880D01*
X72151904Y-48647500D01*
X72199523Y-48695119D01*
X72247142Y-48790357D01*
X72247142Y-48933214D01*
X72199523Y-49028452D01*
X72151904Y-49076071D01*
X72056666Y-49123690D01*
X71675714Y-49123690D01*
X72628095Y-48695119D02*
X72675714Y-48647500D01*
X72770952Y-48599880D01*
X73009047Y-48599880D01*
X73104285Y-48647500D01*
X73151904Y-48695119D01*
X73199523Y-48790357D01*
X73199523Y-48885595D01*
X73151904Y-49028452D01*
X72580476Y-49599880D01*
X73199523Y-49599880D01*
X73532857Y-48599880D02*
X74151904Y-48599880D01*
X73818571Y-48980833D01*
X73961428Y-48980833D01*
X74056666Y-49028452D01*
X74104285Y-49076071D01*
X74151904Y-49171309D01*
X74151904Y-49409404D01*
X74104285Y-49504642D01*
X74056666Y-49552261D01*
X73961428Y-49599880D01*
X73675714Y-49599880D01*
X73580476Y-49552261D01*
X73532857Y-49504642D01*
%TO.C,C8*%
X79490833Y-32417142D02*
X79443214Y-32464761D01*
X79300357Y-32512380D01*
X79205119Y-32512380D01*
X79062261Y-32464761D01*
X78967023Y-32369523D01*
X78919404Y-32274285D01*
X78871785Y-32083809D01*
X78871785Y-31940952D01*
X78919404Y-31750476D01*
X78967023Y-31655238D01*
X79062261Y-31560000D01*
X79205119Y-31512380D01*
X79300357Y-31512380D01*
X79443214Y-31560000D01*
X79490833Y-31607619D01*
X80062261Y-31940952D02*
X79967023Y-31893333D01*
X79919404Y-31845714D01*
X79871785Y-31750476D01*
X79871785Y-31702857D01*
X79919404Y-31607619D01*
X79967023Y-31560000D01*
X80062261Y-31512380D01*
X80252738Y-31512380D01*
X80347976Y-31560000D01*
X80395595Y-31607619D01*
X80443214Y-31702857D01*
X80443214Y-31750476D01*
X80395595Y-31845714D01*
X80347976Y-31893333D01*
X80252738Y-31940952D01*
X80062261Y-31940952D01*
X79967023Y-31988571D01*
X79919404Y-32036190D01*
X79871785Y-32131428D01*
X79871785Y-32321904D01*
X79919404Y-32417142D01*
X79967023Y-32464761D01*
X80062261Y-32512380D01*
X80252738Y-32512380D01*
X80347976Y-32464761D01*
X80395595Y-32417142D01*
X80443214Y-32321904D01*
X80443214Y-32131428D01*
X80395595Y-32036190D01*
X80347976Y-31988571D01*
X80252738Y-31940952D01*
%TO.C,U1*%
X33478095Y-40812380D02*
X33478095Y-41621904D01*
X33525714Y-41717142D01*
X33573333Y-41764761D01*
X33668571Y-41812380D01*
X33859047Y-41812380D01*
X33954285Y-41764761D01*
X34001904Y-41717142D01*
X34049523Y-41621904D01*
X34049523Y-40812380D01*
X35049523Y-41812380D02*
X34478095Y-41812380D01*
X34763809Y-41812380D02*
X34763809Y-40812380D01*
X34668571Y-40955238D01*
X34573333Y-41050476D01*
X34478095Y-41098095D01*
%TO.C,C5*%
X28403333Y-63017142D02*
X28355714Y-63064761D01*
X28212857Y-63112380D01*
X28117619Y-63112380D01*
X27974761Y-63064761D01*
X27879523Y-62969523D01*
X27831904Y-62874285D01*
X27784285Y-62683809D01*
X27784285Y-62540952D01*
X27831904Y-62350476D01*
X27879523Y-62255238D01*
X27974761Y-62160000D01*
X28117619Y-62112380D01*
X28212857Y-62112380D01*
X28355714Y-62160000D01*
X28403333Y-62207619D01*
X29308095Y-62112380D02*
X28831904Y-62112380D01*
X28784285Y-62588571D01*
X28831904Y-62540952D01*
X28927142Y-62493333D01*
X29165238Y-62493333D01*
X29260476Y-62540952D01*
X29308095Y-62588571D01*
X29355714Y-62683809D01*
X29355714Y-62921904D01*
X29308095Y-63017142D01*
X29260476Y-63064761D01*
X29165238Y-63112380D01*
X28927142Y-63112380D01*
X28831904Y-63064761D01*
X28784285Y-63017142D01*
%TO.C,SW1*%
X70696666Y-23104761D02*
X70839523Y-23152380D01*
X71077619Y-23152380D01*
X71172857Y-23104761D01*
X71220476Y-23057142D01*
X71268095Y-22961904D01*
X71268095Y-22866666D01*
X71220476Y-22771428D01*
X71172857Y-22723809D01*
X71077619Y-22676190D01*
X70887142Y-22628571D01*
X70791904Y-22580952D01*
X70744285Y-22533333D01*
X70696666Y-22438095D01*
X70696666Y-22342857D01*
X70744285Y-22247619D01*
X70791904Y-22200000D01*
X70887142Y-22152380D01*
X71125238Y-22152380D01*
X71268095Y-22200000D01*
X71601428Y-22152380D02*
X71839523Y-23152380D01*
X72030000Y-22438095D01*
X72220476Y-23152380D01*
X72458571Y-22152380D01*
X73363333Y-23152380D02*
X72791904Y-23152380D01*
X73077619Y-23152380D02*
X73077619Y-22152380D01*
X72982380Y-22295238D01*
X72887142Y-22390476D01*
X72791904Y-22438095D01*
%TO.C,C13*%
X71387142Y-66627142D02*
X71339523Y-66674761D01*
X71196666Y-66722380D01*
X71101428Y-66722380D01*
X70958571Y-66674761D01*
X70863333Y-66579523D01*
X70815714Y-66484285D01*
X70768095Y-66293809D01*
X70768095Y-66150952D01*
X70815714Y-65960476D01*
X70863333Y-65865238D01*
X70958571Y-65770000D01*
X71101428Y-65722380D01*
X71196666Y-65722380D01*
X71339523Y-65770000D01*
X71387142Y-65817619D01*
X72339523Y-66722380D02*
X71768095Y-66722380D01*
X72053809Y-66722380D02*
X72053809Y-65722380D01*
X71958571Y-65865238D01*
X71863333Y-65960476D01*
X71768095Y-66008095D01*
X72672857Y-65722380D02*
X73291904Y-65722380D01*
X72958571Y-66103333D01*
X73101428Y-66103333D01*
X73196666Y-66150952D01*
X73244285Y-66198571D01*
X73291904Y-66293809D01*
X73291904Y-66531904D01*
X73244285Y-66627142D01*
X73196666Y-66674761D01*
X73101428Y-66722380D01*
X72815714Y-66722380D01*
X72720476Y-66674761D01*
X72672857Y-66627142D01*
%TO.C,C1*%
X35143333Y-57107142D02*
X35095714Y-57154761D01*
X34952857Y-57202380D01*
X34857619Y-57202380D01*
X34714761Y-57154761D01*
X34619523Y-57059523D01*
X34571904Y-56964285D01*
X34524285Y-56773809D01*
X34524285Y-56630952D01*
X34571904Y-56440476D01*
X34619523Y-56345238D01*
X34714761Y-56250000D01*
X34857619Y-56202380D01*
X34952857Y-56202380D01*
X35095714Y-56250000D01*
X35143333Y-56297619D01*
X36095714Y-57202380D02*
X35524285Y-57202380D01*
X35810000Y-57202380D02*
X35810000Y-56202380D01*
X35714761Y-56345238D01*
X35619523Y-56440476D01*
X35524285Y-56488095D01*
%TO.C,H2*%
X101238095Y-62732380D02*
X101238095Y-61732380D01*
X101238095Y-62208571D02*
X101809523Y-62208571D01*
X101809523Y-62732380D02*
X101809523Y-61732380D01*
X102238095Y-61827619D02*
X102285714Y-61780000D01*
X102380952Y-61732380D01*
X102619047Y-61732380D01*
X102714285Y-61780000D01*
X102761904Y-61827619D01*
X102809523Y-61922857D01*
X102809523Y-62018095D01*
X102761904Y-62160952D01*
X102190476Y-62732380D01*
X102809523Y-62732380D01*
%TO.C,R5*%
X87473333Y-32282380D02*
X87140000Y-31806190D01*
X86901904Y-32282380D02*
X86901904Y-31282380D01*
X87282857Y-31282380D01*
X87378095Y-31330000D01*
X87425714Y-31377619D01*
X87473333Y-31472857D01*
X87473333Y-31615714D01*
X87425714Y-31710952D01*
X87378095Y-31758571D01*
X87282857Y-31806190D01*
X86901904Y-31806190D01*
X88378095Y-31282380D02*
X87901904Y-31282380D01*
X87854285Y-31758571D01*
X87901904Y-31710952D01*
X87997142Y-31663333D01*
X88235238Y-31663333D01*
X88330476Y-31710952D01*
X88378095Y-31758571D01*
X88425714Y-31853809D01*
X88425714Y-32091904D01*
X88378095Y-32187142D01*
X88330476Y-32234761D01*
X88235238Y-32282380D01*
X87997142Y-32282380D01*
X87901904Y-32234761D01*
X87854285Y-32187142D01*
%TO.C,R3*%
X48993333Y-63352380D02*
X48660000Y-62876190D01*
X48421904Y-63352380D02*
X48421904Y-62352380D01*
X48802857Y-62352380D01*
X48898095Y-62400000D01*
X48945714Y-62447619D01*
X48993333Y-62542857D01*
X48993333Y-62685714D01*
X48945714Y-62780952D01*
X48898095Y-62828571D01*
X48802857Y-62876190D01*
X48421904Y-62876190D01*
X49326666Y-62352380D02*
X49945714Y-62352380D01*
X49612380Y-62733333D01*
X49755238Y-62733333D01*
X49850476Y-62780952D01*
X49898095Y-62828571D01*
X49945714Y-62923809D01*
X49945714Y-63161904D01*
X49898095Y-63257142D01*
X49850476Y-63304761D01*
X49755238Y-63352380D01*
X49469523Y-63352380D01*
X49374285Y-63304761D01*
X49326666Y-63257142D01*
%TO.C,R21*%
X69007142Y-57792380D02*
X68673809Y-57316190D01*
X68435714Y-57792380D02*
X68435714Y-56792380D01*
X68816666Y-56792380D01*
X68911904Y-56840000D01*
X68959523Y-56887619D01*
X69007142Y-56982857D01*
X69007142Y-57125714D01*
X68959523Y-57220952D01*
X68911904Y-57268571D01*
X68816666Y-57316190D01*
X68435714Y-57316190D01*
X69388095Y-56887619D02*
X69435714Y-56840000D01*
X69530952Y-56792380D01*
X69769047Y-56792380D01*
X69864285Y-56840000D01*
X69911904Y-56887619D01*
X69959523Y-56982857D01*
X69959523Y-57078095D01*
X69911904Y-57220952D01*
X69340476Y-57792380D01*
X69959523Y-57792380D01*
X70911904Y-57792380D02*
X70340476Y-57792380D01*
X70626190Y-57792380D02*
X70626190Y-56792380D01*
X70530952Y-56935238D01*
X70435714Y-57030476D01*
X70340476Y-57078095D01*
D15*
%TO.C,U3*%
X29165000Y-51970000D02*
X31165000Y-51970000D01*
X31165000Y-51970000D02*
X31165000Y-53970000D01*
X31165000Y-53970000D02*
X29165000Y-53970000D01*
X29165000Y-53970000D02*
X29165000Y-51970000D01*
%TO.C,U4*%
X80562500Y-25730000D02*
X82562500Y-25730000D01*
X82562500Y-25730000D02*
X82562500Y-27730000D01*
X82562500Y-27730000D02*
X80562500Y-27730000D01*
X80562500Y-27730000D02*
X80562500Y-25730000D01*
%TO.C,C11*%
X58771248Y-32462500D02*
X59293752Y-32462500D01*
X58771248Y-33932500D02*
X59293752Y-33932500D01*
%TO.C,U6*%
X38750000Y-60980000D02*
X37250000Y-60980000D01*
X38750000Y-64200000D02*
X41675000Y-64200000D01*
X38750000Y-60980000D02*
X40250000Y-60980000D01*
X38750000Y-64200000D02*
X37250000Y-64200000D01*
%TO.C,U8*%
X84815000Y-54867500D02*
X84815000Y-56817500D01*
X84815000Y-54867500D02*
X84815000Y-52917500D01*
X75945000Y-54867500D02*
X75945000Y-58317500D01*
X75945000Y-54867500D02*
X75945000Y-52917500D01*
%TO.C,R10*%
X54965436Y-45952500D02*
X55419564Y-45952500D01*
X54965436Y-47422500D02*
X55419564Y-47422500D01*
%TO.C,REF\u002A\u002A*%
G36*
X72851032Y-45610710D02*
G01*
X72869460Y-45545167D01*
X72899360Y-45496912D01*
X72943080Y-45458767D01*
X72962141Y-45446440D01*
X73048726Y-45414336D01*
X73143522Y-45412316D01*
X73235224Y-45437838D01*
X73312528Y-45488361D01*
X73349814Y-45533590D01*
X73379353Y-45615663D01*
X73381699Y-45680607D01*
X73376385Y-45767445D01*
X73176115Y-45855103D01*
X73078739Y-45899887D01*
X73015113Y-45935913D01*
X72982029Y-45967117D01*
X72976280Y-45997436D01*
X72994658Y-46030805D01*
X73014923Y-46052923D01*
X73073889Y-46088393D01*
X73138024Y-46090879D01*
X73196926Y-46063235D01*
X73240197Y-46008320D01*
X73247936Y-45988928D01*
X73285006Y-45928364D01*
X73327654Y-45902552D01*
X73386154Y-45880471D01*
X73386154Y-45964184D01*
X73380982Y-46021150D01*
X73360723Y-46069189D01*
X73318262Y-46124346D01*
X73311951Y-46131514D01*
X73264720Y-46180585D01*
X73224121Y-46206920D01*
X73173328Y-46219035D01*
X73131220Y-46223003D01*
X73055902Y-46223991D01*
X73002286Y-46211466D01*
X72968838Y-46192869D01*
X72916268Y-46151975D01*
X72879879Y-46107748D01*
X72856850Y-46052126D01*
X72844359Y-45977047D01*
X72839587Y-45874449D01*
X72839206Y-45822376D01*
X72840501Y-45759948D01*
X72958471Y-45759948D01*
X72959839Y-45793438D01*
X72963249Y-45798923D01*
X72985753Y-45791472D01*
X73034182Y-45771753D01*
X73098908Y-45743718D01*
X73112443Y-45737692D01*
X73194244Y-45696096D01*
X73239312Y-45659538D01*
X73249217Y-45625296D01*
X73225526Y-45590648D01*
X73205960Y-45575339D01*
X73135360Y-45544721D01*
X73069280Y-45549780D01*
X73013959Y-45587151D01*
X72975636Y-45653473D01*
X72963349Y-45706116D01*
X72958471Y-45759948D01*
X72840501Y-45759948D01*
X72841730Y-45700720D01*
X72851032Y-45610710D01*
G37*
D16*
X72851032Y-45610710D02*
X72869460Y-45545167D01*
X72899360Y-45496912D01*
X72943080Y-45458767D01*
X72962141Y-45446440D01*
X73048726Y-45414336D01*
X73143522Y-45412316D01*
X73235224Y-45437838D01*
X73312528Y-45488361D01*
X73349814Y-45533590D01*
X73379353Y-45615663D01*
X73381699Y-45680607D01*
X73376385Y-45767445D01*
X73176115Y-45855103D01*
X73078739Y-45899887D01*
X73015113Y-45935913D01*
X72982029Y-45967117D01*
X72976280Y-45997436D01*
X72994658Y-46030805D01*
X73014923Y-46052923D01*
X73073889Y-46088393D01*
X73138024Y-46090879D01*
X73196926Y-46063235D01*
X73240197Y-46008320D01*
X73247936Y-45988928D01*
X73285006Y-45928364D01*
X73327654Y-45902552D01*
X73386154Y-45880471D01*
X73386154Y-45964184D01*
X73380982Y-46021150D01*
X73360723Y-46069189D01*
X73318262Y-46124346D01*
X73311951Y-46131514D01*
X73264720Y-46180585D01*
X73224121Y-46206920D01*
X73173328Y-46219035D01*
X73131220Y-46223003D01*
X73055902Y-46223991D01*
X73002286Y-46211466D01*
X72968838Y-46192869D01*
X72916268Y-46151975D01*
X72879879Y-46107748D01*
X72856850Y-46052126D01*
X72844359Y-45977047D01*
X72839587Y-45874449D01*
X72839206Y-45822376D01*
X72840501Y-45759948D01*
X72958471Y-45759948D01*
X72959839Y-45793438D01*
X72963249Y-45798923D01*
X72985753Y-45791472D01*
X73034182Y-45771753D01*
X73098908Y-45743718D01*
X73112443Y-45737692D01*
X73194244Y-45696096D01*
X73239312Y-45659538D01*
X73249217Y-45625296D01*
X73225526Y-45590648D01*
X73205960Y-45575339D01*
X73135360Y-45544721D01*
X73069280Y-45549780D01*
X73013959Y-45587151D01*
X72975636Y-45653473D01*
X72963349Y-45706116D01*
X72958471Y-45759948D01*
X72840501Y-45759948D01*
X72841730Y-45700720D01*
X72851032Y-45610710D01*
G36*
X67261664Y-45385089D02*
G01*
X67324367Y-45421358D01*
X67367961Y-45457358D01*
X67399845Y-45495075D01*
X67421810Y-45541199D01*
X67435649Y-45602421D01*
X67443153Y-45685431D01*
X67446117Y-45796919D01*
X67446461Y-45877062D01*
X67446461Y-46172065D01*
X67280385Y-46246515D01*
X67270615Y-45923402D01*
X67266579Y-45802729D01*
X67262344Y-45715141D01*
X67257097Y-45654650D01*
X67250025Y-45615268D01*
X67240311Y-45591007D01*
X67227144Y-45575880D01*
X67222919Y-45572606D01*
X67158909Y-45547034D01*
X67094208Y-45557153D01*
X67055692Y-45584000D01*
X67040025Y-45603024D01*
X67029180Y-45627988D01*
X67022288Y-45665834D01*
X67018479Y-45723502D01*
X67016883Y-45807935D01*
X67016615Y-45895928D01*
X67016563Y-46006323D01*
X67014672Y-46084463D01*
X67008345Y-46137165D01*
X66994983Y-46171242D01*
X66971985Y-46193511D01*
X66936754Y-46210787D01*
X66889697Y-46228738D01*
X66838303Y-46248278D01*
X66844421Y-45901485D01*
X66846884Y-45776468D01*
X66849767Y-45684082D01*
X66853898Y-45617881D01*
X66860107Y-45571420D01*
X66869226Y-45538256D01*
X66882083Y-45511944D01*
X66897584Y-45488729D01*
X66972371Y-45414569D01*
X67063628Y-45371684D01*
X67162883Y-45361412D01*
X67261664Y-45385089D01*
G37*
X67261664Y-45385089D02*
X67324367Y-45421358D01*
X67367961Y-45457358D01*
X67399845Y-45495075D01*
X67421810Y-45541199D01*
X67435649Y-45602421D01*
X67443153Y-45685431D01*
X67446117Y-45796919D01*
X67446461Y-45877062D01*
X67446461Y-46172065D01*
X67280385Y-46246515D01*
X67270615Y-45923402D01*
X67266579Y-45802729D01*
X67262344Y-45715141D01*
X67257097Y-45654650D01*
X67250025Y-45615268D01*
X67240311Y-45591007D01*
X67227144Y-45575880D01*
X67222919Y-45572606D01*
X67158909Y-45547034D01*
X67094208Y-45557153D01*
X67055692Y-45584000D01*
X67040025Y-45603024D01*
X67029180Y-45627988D01*
X67022288Y-45665834D01*
X67018479Y-45723502D01*
X67016883Y-45807935D01*
X67016615Y-45895928D01*
X67016563Y-46006323D01*
X67014672Y-46084463D01*
X67008345Y-46137165D01*
X66994983Y-46171242D01*
X66971985Y-46193511D01*
X66936754Y-46210787D01*
X66889697Y-46228738D01*
X66838303Y-46248278D01*
X66844421Y-45901485D01*
X66846884Y-45776468D01*
X66849767Y-45684082D01*
X66853898Y-45617881D01*
X66860107Y-45571420D01*
X66869226Y-45538256D01*
X66882083Y-45511944D01*
X66897584Y-45488729D01*
X66972371Y-45414569D01*
X67063628Y-45371684D01*
X67162883Y-45361412D01*
X67261664Y-45385089D01*
G36*
X65346873Y-45684679D02*
G01*
X65350606Y-45620905D01*
X65355907Y-45575582D01*
X65363258Y-45543555D01*
X65373143Y-45519668D01*
X65386046Y-45498764D01*
X65391579Y-45490898D01*
X65464969Y-45416595D01*
X65557760Y-45374467D01*
X65665096Y-45362722D01*
X65758886Y-45374505D01*
X65833539Y-45411727D01*
X65899431Y-45480261D01*
X65917577Y-45505648D01*
X65937345Y-45538866D01*
X65950172Y-45574945D01*
X65957510Y-45623098D01*
X65960813Y-45692536D01*
X65961538Y-45784206D01*
X65958263Y-45909830D01*
X65946877Y-46004154D01*
X65925041Y-46074523D01*
X65890419Y-46128286D01*
X65840670Y-46172788D01*
X65837014Y-46175423D01*
X65787985Y-46202377D01*
X65728945Y-46215712D01*
X65653859Y-46219000D01*
X65531795Y-46219000D01*
X65531744Y-46337497D01*
X65530608Y-46403492D01*
X65523686Y-46442202D01*
X65505598Y-46465419D01*
X65470962Y-46484933D01*
X65462645Y-46488920D01*
X65423720Y-46507603D01*
X65393583Y-46519403D01*
X65371174Y-46520422D01*
X65355433Y-46506761D01*
X65345302Y-46474522D01*
X65339723Y-46419804D01*
X65337635Y-46338711D01*
X65337981Y-46227344D01*
X65339700Y-46081802D01*
X65340237Y-46038269D01*
X65342172Y-45888205D01*
X65343904Y-45790042D01*
X65531692Y-45790042D01*
X65532748Y-45873364D01*
X65537438Y-45927880D01*
X65548051Y-45963837D01*
X65566872Y-45991482D01*
X65579650Y-46004965D01*
X65631890Y-46044417D01*
X65678142Y-46047628D01*
X65725867Y-46015049D01*
X65727077Y-46013846D01*
X65746494Y-45988668D01*
X65758307Y-45954447D01*
X65764265Y-45901748D01*
X65766120Y-45821131D01*
X65766154Y-45803271D01*
X65761670Y-45692175D01*
X65747074Y-45615161D01*
X65720650Y-45568147D01*
X65680683Y-45547050D01*
X65657584Y-45544923D01*
X65602762Y-45554900D01*
X65565158Y-45587752D01*
X65542523Y-45647857D01*
X65532606Y-45739598D01*
X65531692Y-45790042D01*
X65343904Y-45790042D01*
X65344222Y-45772060D01*
X65346873Y-45684679D01*
G37*
X65346873Y-45684679D02*
X65350606Y-45620905D01*
X65355907Y-45575582D01*
X65363258Y-45543555D01*
X65373143Y-45519668D01*
X65386046Y-45498764D01*
X65391579Y-45490898D01*
X65464969Y-45416595D01*
X65557760Y-45374467D01*
X65665096Y-45362722D01*
X65758886Y-45374505D01*
X65833539Y-45411727D01*
X65899431Y-45480261D01*
X65917577Y-45505648D01*
X65937345Y-45538866D01*
X65950172Y-45574945D01*
X65957510Y-45623098D01*
X65960813Y-45692536D01*
X65961538Y-45784206D01*
X65958263Y-45909830D01*
X65946877Y-46004154D01*
X65925041Y-46074523D01*
X65890419Y-46128286D01*
X65840670Y-46172788D01*
X65837014Y-46175423D01*
X65787985Y-46202377D01*
X65728945Y-46215712D01*
X65653859Y-46219000D01*
X65531795Y-46219000D01*
X65531744Y-46337497D01*
X65530608Y-46403492D01*
X65523686Y-46442202D01*
X65505598Y-46465419D01*
X65470962Y-46484933D01*
X65462645Y-46488920D01*
X65423720Y-46507603D01*
X65393583Y-46519403D01*
X65371174Y-46520422D01*
X65355433Y-46506761D01*
X65345302Y-46474522D01*
X65339723Y-46419804D01*
X65337635Y-46338711D01*
X65337981Y-46227344D01*
X65339700Y-46081802D01*
X65340237Y-46038269D01*
X65342172Y-45888205D01*
X65343904Y-45790042D01*
X65531692Y-45790042D01*
X65532748Y-45873364D01*
X65537438Y-45927880D01*
X65548051Y-45963837D01*
X65566872Y-45991482D01*
X65579650Y-46004965D01*
X65631890Y-46044417D01*
X65678142Y-46047628D01*
X65725867Y-46015049D01*
X65727077Y-46013846D01*
X65746494Y-45988668D01*
X65758307Y-45954447D01*
X65764265Y-45901748D01*
X65766120Y-45821131D01*
X65766154Y-45803271D01*
X65761670Y-45692175D01*
X65747074Y-45615161D01*
X65720650Y-45568147D01*
X65680683Y-45547050D01*
X65657584Y-45544923D01*
X65602762Y-45554900D01*
X65565158Y-45587752D01*
X65542523Y-45647857D01*
X65532606Y-45739598D01*
X65531692Y-45790042D01*
X65343904Y-45790042D01*
X65344222Y-45772060D01*
X65346873Y-45684679D01*
G36*
X66124778Y-45531055D02*
G01*
X66170421Y-45465215D01*
X66252802Y-45398681D01*
X66343546Y-45365676D01*
X66436185Y-45363573D01*
X66524254Y-45389745D01*
X66601286Y-45441567D01*
X66660816Y-45516412D01*
X66696378Y-45611654D01*
X66703571Y-45681756D01*
X66702754Y-45711009D01*
X66695914Y-45733407D01*
X66677112Y-45753474D01*
X66640408Y-45775733D01*
X66579862Y-45804709D01*
X66489534Y-45844927D01*
X66489077Y-45845129D01*
X66405933Y-45883210D01*
X66337753Y-45917025D01*
X66291505Y-45942933D01*
X66274158Y-45957295D01*
X66274154Y-45957411D01*
X66289443Y-45988685D01*
X66325196Y-46023157D01*
X66366242Y-46047990D01*
X66387037Y-46052923D01*
X66443770Y-46035862D01*
X66492627Y-45993133D01*
X66516465Y-45946155D01*
X66539397Y-45911522D01*
X66584318Y-45872081D01*
X66637123Y-45838009D01*
X66683710Y-45819480D01*
X66693452Y-45818462D01*
X66704418Y-45835215D01*
X66705079Y-45878039D01*
X66697020Y-45935781D01*
X66681827Y-45997289D01*
X66661086Y-46051409D01*
X66660038Y-46053510D01*
X66597621Y-46140660D01*
X66516726Y-46199939D01*
X66424856Y-46229034D01*
X66329513Y-46225634D01*
X66238198Y-46187428D01*
X66234138Y-46184741D01*
X66162306Y-46119642D01*
X66115073Y-46034705D01*
X66088934Y-45923021D01*
X66085426Y-45891643D01*
X66079213Y-45743536D01*
X66086661Y-45674468D01*
X66274154Y-45674468D01*
X66276590Y-45717552D01*
X66289914Y-45730126D01*
X66323132Y-45720719D01*
X66375494Y-45698483D01*
X66434024Y-45670610D01*
X66435479Y-45669872D01*
X66485089Y-45643777D01*
X66505000Y-45626363D01*
X66500090Y-45608107D01*
X66479416Y-45584120D01*
X66426819Y-45549406D01*
X66370177Y-45546856D01*
X66319369Y-45572119D01*
X66284276Y-45620847D01*
X66274154Y-45674468D01*
X66086661Y-45674468D01*
X66091992Y-45625036D01*
X66124778Y-45531055D01*
G37*
X66124778Y-45531055D02*
X66170421Y-45465215D01*
X66252802Y-45398681D01*
X66343546Y-45365676D01*
X66436185Y-45363573D01*
X66524254Y-45389745D01*
X66601286Y-45441567D01*
X66660816Y-45516412D01*
X66696378Y-45611654D01*
X66703571Y-45681756D01*
X66702754Y-45711009D01*
X66695914Y-45733407D01*
X66677112Y-45753474D01*
X66640408Y-45775733D01*
X66579862Y-45804709D01*
X66489534Y-45844927D01*
X66489077Y-45845129D01*
X66405933Y-45883210D01*
X66337753Y-45917025D01*
X66291505Y-45942933D01*
X66274158Y-45957295D01*
X66274154Y-45957411D01*
X66289443Y-45988685D01*
X66325196Y-46023157D01*
X66366242Y-46047990D01*
X66387037Y-46052923D01*
X66443770Y-46035862D01*
X66492627Y-45993133D01*
X66516465Y-45946155D01*
X66539397Y-45911522D01*
X66584318Y-45872081D01*
X66637123Y-45838009D01*
X66683710Y-45819480D01*
X66693452Y-45818462D01*
X66704418Y-45835215D01*
X66705079Y-45878039D01*
X66697020Y-45935781D01*
X66681827Y-45997289D01*
X66661086Y-46051409D01*
X66660038Y-46053510D01*
X66597621Y-46140660D01*
X66516726Y-46199939D01*
X66424856Y-46229034D01*
X66329513Y-46225634D01*
X66238198Y-46187428D01*
X66234138Y-46184741D01*
X66162306Y-46119642D01*
X66115073Y-46034705D01*
X66088934Y-45923021D01*
X66085426Y-45891643D01*
X66079213Y-45743536D01*
X66086661Y-45674468D01*
X66274154Y-45674468D01*
X66276590Y-45717552D01*
X66289914Y-45730126D01*
X66323132Y-45720719D01*
X66375494Y-45698483D01*
X66434024Y-45670610D01*
X66435479Y-45669872D01*
X66485089Y-45643777D01*
X66505000Y-45626363D01*
X66500090Y-45608107D01*
X66479416Y-45584120D01*
X66426819Y-45549406D01*
X66370177Y-45546856D01*
X66319369Y-45572119D01*
X66284276Y-45620847D01*
X66274154Y-45674468D01*
X66086661Y-45674468D01*
X66091992Y-45625036D01*
X66124778Y-45531055D01*
G36*
X69703362Y-45414670D02*
G01*
X69792117Y-45447421D01*
X69864022Y-45505350D01*
X69892144Y-45546128D01*
X69922802Y-45620954D01*
X69922165Y-45675058D01*
X69889987Y-45711446D01*
X69878081Y-45717633D01*
X69826675Y-45736925D01*
X69800422Y-45731982D01*
X69791530Y-45699587D01*
X69791077Y-45681692D01*
X69774797Y-45615859D01*
X69732365Y-45569807D01*
X69673388Y-45547564D01*
X69607475Y-45553161D01*
X69553895Y-45582229D01*
X69535798Y-45598810D01*
X69522971Y-45618925D01*
X69514306Y-45649332D01*
X69508696Y-45696788D01*
X69505035Y-45768050D01*
X69502215Y-45869875D01*
X69501484Y-45902115D01*
X69498820Y-46012410D01*
X69495792Y-46090036D01*
X69491250Y-46141396D01*
X69484046Y-46172890D01*
X69473033Y-46190920D01*
X69457060Y-46201888D01*
X69446834Y-46206733D01*
X69403406Y-46223301D01*
X69377842Y-46228769D01*
X69369395Y-46210507D01*
X69364239Y-46155296D01*
X69362346Y-46062499D01*
X69363689Y-45931478D01*
X69364107Y-45911269D01*
X69367058Y-45791733D01*
X69370548Y-45704449D01*
X69375514Y-45642591D01*
X69382893Y-45599336D01*
X69393624Y-45567860D01*
X69408645Y-45541339D01*
X69416502Y-45529975D01*
X69461553Y-45479692D01*
X69511940Y-45440581D01*
X69518108Y-45437167D01*
X69608458Y-45410212D01*
X69703362Y-45414670D01*
G37*
X69703362Y-45414670D02*
X69792117Y-45447421D01*
X69864022Y-45505350D01*
X69892144Y-45546128D01*
X69922802Y-45620954D01*
X69922165Y-45675058D01*
X69889987Y-45711446D01*
X69878081Y-45717633D01*
X69826675Y-45736925D01*
X69800422Y-45731982D01*
X69791530Y-45699587D01*
X69791077Y-45681692D01*
X69774797Y-45615859D01*
X69732365Y-45569807D01*
X69673388Y-45547564D01*
X69607475Y-45553161D01*
X69553895Y-45582229D01*
X69535798Y-45598810D01*
X69522971Y-45618925D01*
X69514306Y-45649332D01*
X69508696Y-45696788D01*
X69505035Y-45768050D01*
X69502215Y-45869875D01*
X69501484Y-45902115D01*
X69498820Y-46012410D01*
X69495792Y-46090036D01*
X69491250Y-46141396D01*
X69484046Y-46172890D01*
X69473033Y-46190920D01*
X69457060Y-46201888D01*
X69446834Y-46206733D01*
X69403406Y-46223301D01*
X69377842Y-46228769D01*
X69369395Y-46210507D01*
X69364239Y-46155296D01*
X69362346Y-46062499D01*
X69363689Y-45931478D01*
X69364107Y-45911269D01*
X69367058Y-45791733D01*
X69370548Y-45704449D01*
X69375514Y-45642591D01*
X69382893Y-45599336D01*
X69393624Y-45567860D01*
X69408645Y-45541339D01*
X69416502Y-45529975D01*
X69461553Y-45479692D01*
X69511940Y-45440581D01*
X69518108Y-45437167D01*
X69608458Y-45410212D01*
X69703362Y-45414670D01*
G36*
X71385929Y-45426662D02*
G01*
X71388911Y-45478068D01*
X71391247Y-45556192D01*
X71392749Y-45654857D01*
X71393231Y-45758343D01*
X71393231Y-46108533D01*
X71331401Y-46170363D01*
X71288793Y-46208462D01*
X71251390Y-46223895D01*
X71200270Y-46222918D01*
X71179978Y-46220433D01*
X71116554Y-46213200D01*
X71064095Y-46209055D01*
X71051308Y-46208672D01*
X71008199Y-46211176D01*
X70946544Y-46217462D01*
X70922638Y-46220433D01*
X70863922Y-46225028D01*
X70824464Y-46215046D01*
X70785338Y-46184228D01*
X70771215Y-46170363D01*
X70709385Y-46108533D01*
X70709385Y-45453503D01*
X70759150Y-45430829D01*
X70802002Y-45414034D01*
X70827073Y-45408154D01*
X70833501Y-45426736D01*
X70839509Y-45478655D01*
X70844697Y-45558172D01*
X70848664Y-45659546D01*
X70850577Y-45745192D01*
X70855923Y-46082231D01*
X70902560Y-46088825D01*
X70944976Y-46084214D01*
X70965760Y-46069287D01*
X70971570Y-46041377D01*
X70976530Y-45981925D01*
X70980246Y-45898466D01*
X70982324Y-45798532D01*
X70982624Y-45747104D01*
X70982923Y-45451054D01*
X71044454Y-45429604D01*
X71088004Y-45415020D01*
X71111694Y-45408219D01*
X71112377Y-45408154D01*
X71114754Y-45426642D01*
X71117366Y-45477906D01*
X71119995Y-45555649D01*
X71122421Y-45653574D01*
X71124115Y-45745192D01*
X71129461Y-46082231D01*
X71246692Y-46082231D01*
X71252072Y-45774746D01*
X71257451Y-45467261D01*
X71314601Y-45437707D01*
X71356797Y-45417413D01*
X71381770Y-45408204D01*
X71382491Y-45408154D01*
X71385929Y-45426662D01*
G37*
X71385929Y-45426662D02*
X71388911Y-45478068D01*
X71391247Y-45556192D01*
X71392749Y-45654857D01*
X71393231Y-45758343D01*
X71393231Y-46108533D01*
X71331401Y-46170363D01*
X71288793Y-46208462D01*
X71251390Y-46223895D01*
X71200270Y-46222918D01*
X71179978Y-46220433D01*
X71116554Y-46213200D01*
X71064095Y-46209055D01*
X71051308Y-46208672D01*
X71008199Y-46211176D01*
X70946544Y-46217462D01*
X70922638Y-46220433D01*
X70863922Y-46225028D01*
X70824464Y-46215046D01*
X70785338Y-46184228D01*
X70771215Y-46170363D01*
X70709385Y-46108533D01*
X70709385Y-45453503D01*
X70759150Y-45430829D01*
X70802002Y-45414034D01*
X70827073Y-45408154D01*
X70833501Y-45426736D01*
X70839509Y-45478655D01*
X70844697Y-45558172D01*
X70848664Y-45659546D01*
X70850577Y-45745192D01*
X70855923Y-46082231D01*
X70902560Y-46088825D01*
X70944976Y-46084214D01*
X70965760Y-46069287D01*
X70971570Y-46041377D01*
X70976530Y-45981925D01*
X70980246Y-45898466D01*
X70982324Y-45798532D01*
X70982624Y-45747104D01*
X70982923Y-45451054D01*
X71044454Y-45429604D01*
X71088004Y-45415020D01*
X71111694Y-45408219D01*
X71112377Y-45408154D01*
X71114754Y-45426642D01*
X71117366Y-45477906D01*
X71119995Y-45555649D01*
X71122421Y-45653574D01*
X71124115Y-45745192D01*
X71129461Y-46082231D01*
X71246692Y-46082231D01*
X71252072Y-45774746D01*
X71257451Y-45467261D01*
X71314601Y-45437707D01*
X71356797Y-45417413D01*
X71381770Y-45408204D01*
X71382491Y-45408154D01*
X71385929Y-45426662D01*
G36*
X69129878Y-39077776D02*
G01*
X69235612Y-39078355D01*
X69312132Y-39079922D01*
X69364372Y-39082972D01*
X69397263Y-39087996D01*
X69415737Y-39095489D01*
X69424727Y-39105944D01*
X69429163Y-39119853D01*
X69429594Y-39121654D01*
X69436333Y-39154145D01*
X69448808Y-39218252D01*
X69465719Y-39307151D01*
X69485771Y-39414019D01*
X69507664Y-39532033D01*
X69508429Y-39536178D01*
X69530359Y-39651831D01*
X69550877Y-39754014D01*
X69568659Y-39836598D01*
X69582381Y-39893456D01*
X69590718Y-39918458D01*
X69591116Y-39918901D01*
X69615677Y-39931110D01*
X69666315Y-39951456D01*
X69732095Y-39975545D01*
X69732461Y-39975674D01*
X69815317Y-40006818D01*
X69913000Y-40046491D01*
X70005077Y-40086381D01*
X70009434Y-40088353D01*
X70159407Y-40156420D01*
X70491498Y-39929639D01*
X70593374Y-39860504D01*
X70685657Y-39798697D01*
X70763003Y-39747733D01*
X70820064Y-39711127D01*
X70851495Y-39692394D01*
X70854479Y-39691004D01*
X70877321Y-39697190D01*
X70919982Y-39727035D01*
X70984128Y-39781947D01*
X71071421Y-39863334D01*
X71160535Y-39949922D01*
X71246441Y-40035247D01*
X71323327Y-40113108D01*
X71386564Y-40178697D01*
X71431523Y-40227205D01*
X71453576Y-40253825D01*
X71454396Y-40255195D01*
X71456834Y-40273463D01*
X71447650Y-40303295D01*
X71424574Y-40348721D01*
X71385337Y-40413770D01*
X71327670Y-40502470D01*
X71250795Y-40616657D01*
X71182570Y-40717162D01*
X71121582Y-40807303D01*
X71071356Y-40881849D01*
X71035416Y-40935565D01*
X71017287Y-40963218D01*
X71016146Y-40965095D01*
X71018359Y-40991590D01*
X71035138Y-41043086D01*
X71063142Y-41109851D01*
X71073122Y-41131172D01*
X71116672Y-41226159D01*
X71163134Y-41333937D01*
X71200877Y-41427192D01*
X71228073Y-41496406D01*
X71249675Y-41549006D01*
X71262158Y-41576497D01*
X71263709Y-41578616D01*
X71286668Y-41582124D01*
X71340786Y-41591738D01*
X71418868Y-41606089D01*
X71513719Y-41623807D01*
X71618143Y-41643525D01*
X71724944Y-41663874D01*
X71826926Y-41683486D01*
X71916894Y-41700991D01*
X71987653Y-41715022D01*
X72032006Y-41724209D01*
X72042885Y-41726807D01*
X72054122Y-41733218D01*
X72062605Y-41747697D01*
X72068714Y-41775133D01*
X72072832Y-41820411D01*
X72075341Y-41888420D01*
X72076621Y-41984047D01*
X72077054Y-42112180D01*
X72077077Y-42164701D01*
X72077077Y-42591845D01*
X71974500Y-42612091D01*
X71917431Y-42623070D01*
X71832269Y-42639095D01*
X71729372Y-42658233D01*
X71619096Y-42678551D01*
X71588615Y-42684132D01*
X71486855Y-42703917D01*
X71398205Y-42723373D01*
X71330108Y-42740697D01*
X71290004Y-42754088D01*
X71283323Y-42758079D01*
X71266919Y-42786342D01*
X71243399Y-42841109D01*
X71217316Y-42911588D01*
X71212142Y-42926769D01*
X71177956Y-43020896D01*
X71135523Y-43127101D01*
X71093997Y-43222473D01*
X71093792Y-43222916D01*
X71024640Y-43372525D01*
X71479512Y-44041617D01*
X71187500Y-44334116D01*
X71099180Y-44421170D01*
X71018625Y-44497909D01*
X70950360Y-44560237D01*
X70898908Y-44604056D01*
X70868794Y-44625270D01*
X70864474Y-44626616D01*
X70839111Y-44616016D01*
X70787358Y-44586547D01*
X70714868Y-44541705D01*
X70627294Y-44484984D01*
X70532612Y-44421462D01*
X70436516Y-44356668D01*
X70350837Y-44300287D01*
X70281016Y-44255788D01*
X70232494Y-44226639D01*
X70210782Y-44216308D01*
X70184293Y-44225050D01*
X70134062Y-44248087D01*
X70070451Y-44280631D01*
X70063708Y-44284249D01*
X69978046Y-44327210D01*
X69919306Y-44348279D01*
X69882772Y-44348503D01*
X69863731Y-44328928D01*
X69863620Y-44328654D01*
X69854102Y-44305472D01*
X69831403Y-44250441D01*
X69797282Y-44167822D01*
X69753500Y-44061872D01*
X69701816Y-43936852D01*
X69643992Y-43797020D01*
X69587991Y-43661637D01*
X69526447Y-43512234D01*
X69469939Y-43373832D01*
X69420161Y-43250673D01*
X69378806Y-43147002D01*
X69347568Y-43067059D01*
X69328141Y-43015088D01*
X69322154Y-42995692D01*
X69337168Y-42973443D01*
X69376439Y-42937982D01*
X69428807Y-42898887D01*
X69577941Y-42775245D01*
X69694511Y-42633522D01*
X69777118Y-42476704D01*
X69824366Y-42307775D01*
X69834857Y-42129722D01*
X69827231Y-42047539D01*
X69785682Y-41877031D01*
X69714123Y-41726459D01*
X69616995Y-41597309D01*
X69498734Y-41491064D01*
X69363780Y-41409210D01*
X69216571Y-41353232D01*
X69061544Y-41324615D01*
X68903139Y-41324844D01*
X68745794Y-41355405D01*
X68593946Y-41417782D01*
X68452035Y-41513460D01*
X68392803Y-41567572D01*
X68279203Y-41706520D01*
X68200106Y-41858361D01*
X68154986Y-42018667D01*
X68143316Y-42183012D01*
X68164569Y-42346971D01*
X68218220Y-42506118D01*
X68303740Y-42656025D01*
X68420605Y-42792267D01*
X68551193Y-42898887D01*
X68605588Y-42939642D01*
X68644014Y-42974718D01*
X68657846Y-42995726D01*
X68650603Y-43018635D01*
X68630005Y-43073365D01*
X68597746Y-43155672D01*
X68555521Y-43261315D01*
X68505023Y-43386050D01*
X68447948Y-43525636D01*
X68391854Y-43661670D01*
X68329967Y-43811201D01*
X68272644Y-43949767D01*
X68221644Y-44073107D01*
X68178727Y-44176964D01*
X68145653Y-44257080D01*
X68124181Y-44309195D01*
X68116225Y-44328654D01*
X68097429Y-44348423D01*
X68061074Y-44348365D01*
X68002479Y-44327441D01*
X67916968Y-44284613D01*
X67916292Y-44284249D01*
X67851907Y-44251012D01*
X67799861Y-44226802D01*
X67770512Y-44216404D01*
X67769217Y-44216308D01*
X67747124Y-44226855D01*
X67698348Y-44256184D01*
X67628331Y-44300827D01*
X67542514Y-44357314D01*
X67447388Y-44421462D01*
X67350540Y-44486411D01*
X67263253Y-44542896D01*
X67191181Y-44587421D01*
X67139977Y-44616490D01*
X67115526Y-44626616D01*
X67093010Y-44613307D01*
X67047742Y-44576112D01*
X66984244Y-44519128D01*
X66907039Y-44446449D01*
X66820651Y-44362171D01*
X66792399Y-44334016D01*
X66500287Y-44041416D01*
X66722631Y-43715104D01*
X66790202Y-43614897D01*
X66849507Y-43524963D01*
X66897217Y-43450510D01*
X66930007Y-43396751D01*
X66944548Y-43368894D01*
X66944974Y-43366912D01*
X66937308Y-43340655D01*
X66916689Y-43287837D01*
X66886685Y-43217310D01*
X66865625Y-43170093D01*
X66826248Y-43079694D01*
X66789165Y-42988366D01*
X66760415Y-42911200D01*
X66752605Y-42887692D01*
X66730417Y-42824916D01*
X66708727Y-42776411D01*
X66696813Y-42758079D01*
X66670523Y-42746859D01*
X66613142Y-42730954D01*
X66532118Y-42712167D01*
X66434895Y-42692299D01*
X66391385Y-42684132D01*
X66280896Y-42663829D01*
X66174916Y-42644170D01*
X66083801Y-42627088D01*
X66017908Y-42614518D01*
X66005500Y-42612091D01*
X65902923Y-42591845D01*
X65902923Y-42164701D01*
X65903153Y-42024246D01*
X65904099Y-41917979D01*
X65906141Y-41841013D01*
X65909662Y-41788460D01*
X65915043Y-41755433D01*
X65922666Y-41737045D01*
X65932912Y-41728408D01*
X65937115Y-41726807D01*
X65962470Y-41721127D01*
X66018484Y-41709795D01*
X66097964Y-41694179D01*
X66193712Y-41675647D01*
X66298533Y-41655569D01*
X66405232Y-41635312D01*
X66506613Y-41616246D01*
X66595479Y-41599739D01*
X66664637Y-41587159D01*
X66706889Y-41579875D01*
X66716290Y-41578616D01*
X66724807Y-41561763D01*
X66743660Y-41516870D01*
X66769324Y-41452430D01*
X66779123Y-41427192D01*
X66818648Y-41329686D01*
X66865192Y-41221959D01*
X66906877Y-41131172D01*
X66937550Y-41061753D01*
X66957956Y-41004710D01*
X66964768Y-40969777D01*
X66963682Y-40965095D01*
X66949285Y-40942991D01*
X66916412Y-40893831D01*
X66868590Y-40822848D01*
X66809348Y-40735278D01*
X66742215Y-40636357D01*
X66728941Y-40616830D01*
X66651046Y-40501140D01*
X66593787Y-40413044D01*
X66554881Y-40348486D01*
X66532044Y-40303411D01*
X66522994Y-40273763D01*
X66525448Y-40255485D01*
X66525511Y-40255369D01*
X66544827Y-40231361D01*
X66587551Y-40184947D01*
X66649051Y-40120937D01*
X66724698Y-40044145D01*
X66809861Y-39959382D01*
X66819465Y-39949922D01*
X66926790Y-39845989D01*
X67009615Y-39769675D01*
X67069605Y-39719571D01*
X67108423Y-39694270D01*
X67125520Y-39691004D01*
X67150473Y-39705250D01*
X67202255Y-39738156D01*
X67275520Y-39786208D01*
X67364920Y-39845890D01*
X67465111Y-39913688D01*
X67488501Y-39929639D01*
X67820593Y-40156420D01*
X67970565Y-40088353D01*
X68061770Y-40048685D01*
X68159669Y-40008791D01*
X68243831Y-39976983D01*
X68247538Y-39975674D01*
X68313369Y-39951576D01*
X68364116Y-39931200D01*
X68388842Y-39918936D01*
X68388884Y-39918901D01*
X68396729Y-39896734D01*
X68410066Y-39842217D01*
X68427570Y-39761480D01*
X68447917Y-39660650D01*
X68469782Y-39545856D01*
X68471571Y-39536178D01*
X68493504Y-39417904D01*
X68513640Y-39310542D01*
X68530680Y-39220917D01*
X68543328Y-39155851D01*
X68550284Y-39122168D01*
X68550406Y-39121654D01*
X68554639Y-39107325D01*
X68562871Y-39096507D01*
X68580033Y-39088706D01*
X68611058Y-39083429D01*
X68660878Y-39080182D01*
X68734424Y-39078472D01*
X68836629Y-39077807D01*
X68972425Y-39077693D01*
X68990000Y-39077692D01*
X69129878Y-39077776D01*
G37*
X69129878Y-39077776D02*
X69235612Y-39078355D01*
X69312132Y-39079922D01*
X69364372Y-39082972D01*
X69397263Y-39087996D01*
X69415737Y-39095489D01*
X69424727Y-39105944D01*
X69429163Y-39119853D01*
X69429594Y-39121654D01*
X69436333Y-39154145D01*
X69448808Y-39218252D01*
X69465719Y-39307151D01*
X69485771Y-39414019D01*
X69507664Y-39532033D01*
X69508429Y-39536178D01*
X69530359Y-39651831D01*
X69550877Y-39754014D01*
X69568659Y-39836598D01*
X69582381Y-39893456D01*
X69590718Y-39918458D01*
X69591116Y-39918901D01*
X69615677Y-39931110D01*
X69666315Y-39951456D01*
X69732095Y-39975545D01*
X69732461Y-39975674D01*
X69815317Y-40006818D01*
X69913000Y-40046491D01*
X70005077Y-40086381D01*
X70009434Y-40088353D01*
X70159407Y-40156420D01*
X70491498Y-39929639D01*
X70593374Y-39860504D01*
X70685657Y-39798697D01*
X70763003Y-39747733D01*
X70820064Y-39711127D01*
X70851495Y-39692394D01*
X70854479Y-39691004D01*
X70877321Y-39697190D01*
X70919982Y-39727035D01*
X70984128Y-39781947D01*
X71071421Y-39863334D01*
X71160535Y-39949922D01*
X71246441Y-40035247D01*
X71323327Y-40113108D01*
X71386564Y-40178697D01*
X71431523Y-40227205D01*
X71453576Y-40253825D01*
X71454396Y-40255195D01*
X71456834Y-40273463D01*
X71447650Y-40303295D01*
X71424574Y-40348721D01*
X71385337Y-40413770D01*
X71327670Y-40502470D01*
X71250795Y-40616657D01*
X71182570Y-40717162D01*
X71121582Y-40807303D01*
X71071356Y-40881849D01*
X71035416Y-40935565D01*
X71017287Y-40963218D01*
X71016146Y-40965095D01*
X71018359Y-40991590D01*
X71035138Y-41043086D01*
X71063142Y-41109851D01*
X71073122Y-41131172D01*
X71116672Y-41226159D01*
X71163134Y-41333937D01*
X71200877Y-41427192D01*
X71228073Y-41496406D01*
X71249675Y-41549006D01*
X71262158Y-41576497D01*
X71263709Y-41578616D01*
X71286668Y-41582124D01*
X71340786Y-41591738D01*
X71418868Y-41606089D01*
X71513719Y-41623807D01*
X71618143Y-41643525D01*
X71724944Y-41663874D01*
X71826926Y-41683486D01*
X71916894Y-41700991D01*
X71987653Y-41715022D01*
X72032006Y-41724209D01*
X72042885Y-41726807D01*
X72054122Y-41733218D01*
X72062605Y-41747697D01*
X72068714Y-41775133D01*
X72072832Y-41820411D01*
X72075341Y-41888420D01*
X72076621Y-41984047D01*
X72077054Y-42112180D01*
X72077077Y-42164701D01*
X72077077Y-42591845D01*
X71974500Y-42612091D01*
X71917431Y-42623070D01*
X71832269Y-42639095D01*
X71729372Y-42658233D01*
X71619096Y-42678551D01*
X71588615Y-42684132D01*
X71486855Y-42703917D01*
X71398205Y-42723373D01*
X71330108Y-42740697D01*
X71290004Y-42754088D01*
X71283323Y-42758079D01*
X71266919Y-42786342D01*
X71243399Y-42841109D01*
X71217316Y-42911588D01*
X71212142Y-42926769D01*
X71177956Y-43020896D01*
X71135523Y-43127101D01*
X71093997Y-43222473D01*
X71093792Y-43222916D01*
X71024640Y-43372525D01*
X71479512Y-44041617D01*
X71187500Y-44334116D01*
X71099180Y-44421170D01*
X71018625Y-44497909D01*
X70950360Y-44560237D01*
X70898908Y-44604056D01*
X70868794Y-44625270D01*
X70864474Y-44626616D01*
X70839111Y-44616016D01*
X70787358Y-44586547D01*
X70714868Y-44541705D01*
X70627294Y-44484984D01*
X70532612Y-44421462D01*
X70436516Y-44356668D01*
X70350837Y-44300287D01*
X70281016Y-44255788D01*
X70232494Y-44226639D01*
X70210782Y-44216308D01*
X70184293Y-44225050D01*
X70134062Y-44248087D01*
X70070451Y-44280631D01*
X70063708Y-44284249D01*
X69978046Y-44327210D01*
X69919306Y-44348279D01*
X69882772Y-44348503D01*
X69863731Y-44328928D01*
X69863620Y-44328654D01*
X69854102Y-44305472D01*
X69831403Y-44250441D01*
X69797282Y-44167822D01*
X69753500Y-44061872D01*
X69701816Y-43936852D01*
X69643992Y-43797020D01*
X69587991Y-43661637D01*
X69526447Y-43512234D01*
X69469939Y-43373832D01*
X69420161Y-43250673D01*
X69378806Y-43147002D01*
X69347568Y-43067059D01*
X69328141Y-43015088D01*
X69322154Y-42995692D01*
X69337168Y-42973443D01*
X69376439Y-42937982D01*
X69428807Y-42898887D01*
X69577941Y-42775245D01*
X69694511Y-42633522D01*
X69777118Y-42476704D01*
X69824366Y-42307775D01*
X69834857Y-42129722D01*
X69827231Y-42047539D01*
X69785682Y-41877031D01*
X69714123Y-41726459D01*
X69616995Y-41597309D01*
X69498734Y-41491064D01*
X69363780Y-41409210D01*
X69216571Y-41353232D01*
X69061544Y-41324615D01*
X68903139Y-41324844D01*
X68745794Y-41355405D01*
X68593946Y-41417782D01*
X68452035Y-41513460D01*
X68392803Y-41567572D01*
X68279203Y-41706520D01*
X68200106Y-41858361D01*
X68154986Y-42018667D01*
X68143316Y-42183012D01*
X68164569Y-42346971D01*
X68218220Y-42506118D01*
X68303740Y-42656025D01*
X68420605Y-42792267D01*
X68551193Y-42898887D01*
X68605588Y-42939642D01*
X68644014Y-42974718D01*
X68657846Y-42995726D01*
X68650603Y-43018635D01*
X68630005Y-43073365D01*
X68597746Y-43155672D01*
X68555521Y-43261315D01*
X68505023Y-43386050D01*
X68447948Y-43525636D01*
X68391854Y-43661670D01*
X68329967Y-43811201D01*
X68272644Y-43949767D01*
X68221644Y-44073107D01*
X68178727Y-44176964D01*
X68145653Y-44257080D01*
X68124181Y-44309195D01*
X68116225Y-44328654D01*
X68097429Y-44348423D01*
X68061074Y-44348365D01*
X68002479Y-44327441D01*
X67916968Y-44284613D01*
X67916292Y-44284249D01*
X67851907Y-44251012D01*
X67799861Y-44226802D01*
X67770512Y-44216404D01*
X67769217Y-44216308D01*
X67747124Y-44226855D01*
X67698348Y-44256184D01*
X67628331Y-44300827D01*
X67542514Y-44357314D01*
X67447388Y-44421462D01*
X67350540Y-44486411D01*
X67263253Y-44542896D01*
X67191181Y-44587421D01*
X67139977Y-44616490D01*
X67115526Y-44626616D01*
X67093010Y-44613307D01*
X67047742Y-44576112D01*
X66984244Y-44519128D01*
X66907039Y-44446449D01*
X66820651Y-44362171D01*
X66792399Y-44334016D01*
X66500287Y-44041416D01*
X66722631Y-43715104D01*
X66790202Y-43614897D01*
X66849507Y-43524963D01*
X66897217Y-43450510D01*
X66930007Y-43396751D01*
X66944548Y-43368894D01*
X66944974Y-43366912D01*
X66937308Y-43340655D01*
X66916689Y-43287837D01*
X66886685Y-43217310D01*
X66865625Y-43170093D01*
X66826248Y-43079694D01*
X66789165Y-42988366D01*
X66760415Y-42911200D01*
X66752605Y-42887692D01*
X66730417Y-42824916D01*
X66708727Y-42776411D01*
X66696813Y-42758079D01*
X66670523Y-42746859D01*
X66613142Y-42730954D01*
X66532118Y-42712167D01*
X66434895Y-42692299D01*
X66391385Y-42684132D01*
X66280896Y-42663829D01*
X66174916Y-42644170D01*
X66083801Y-42627088D01*
X66017908Y-42614518D01*
X66005500Y-42612091D01*
X65902923Y-42591845D01*
X65902923Y-42164701D01*
X65903153Y-42024246D01*
X65904099Y-41917979D01*
X65906141Y-41841013D01*
X65909662Y-41788460D01*
X65915043Y-41755433D01*
X65922666Y-41737045D01*
X65932912Y-41728408D01*
X65937115Y-41726807D01*
X65962470Y-41721127D01*
X66018484Y-41709795D01*
X66097964Y-41694179D01*
X66193712Y-41675647D01*
X66298533Y-41655569D01*
X66405232Y-41635312D01*
X66506613Y-41616246D01*
X66595479Y-41599739D01*
X66664637Y-41587159D01*
X66706889Y-41579875D01*
X66716290Y-41578616D01*
X66724807Y-41561763D01*
X66743660Y-41516870D01*
X66769324Y-41452430D01*
X66779123Y-41427192D01*
X66818648Y-41329686D01*
X66865192Y-41221959D01*
X66906877Y-41131172D01*
X66937550Y-41061753D01*
X66957956Y-41004710D01*
X66964768Y-40969777D01*
X66963682Y-40965095D01*
X66949285Y-40942991D01*
X66916412Y-40893831D01*
X66868590Y-40822848D01*
X66809348Y-40735278D01*
X66742215Y-40636357D01*
X66728941Y-40616830D01*
X66651046Y-40501140D01*
X66593787Y-40413044D01*
X66554881Y-40348486D01*
X66532044Y-40303411D01*
X66522994Y-40273763D01*
X66525448Y-40255485D01*
X66525511Y-40255369D01*
X66544827Y-40231361D01*
X66587551Y-40184947D01*
X66649051Y-40120937D01*
X66724698Y-40044145D01*
X66809861Y-39959382D01*
X66819465Y-39949922D01*
X66926790Y-39845989D01*
X67009615Y-39769675D01*
X67069605Y-39719571D01*
X67108423Y-39694270D01*
X67125520Y-39691004D01*
X67150473Y-39705250D01*
X67202255Y-39738156D01*
X67275520Y-39786208D01*
X67364920Y-39845890D01*
X67465111Y-39913688D01*
X67488501Y-39929639D01*
X67820593Y-40156420D01*
X67970565Y-40088353D01*
X68061770Y-40048685D01*
X68159669Y-40008791D01*
X68243831Y-39976983D01*
X68247538Y-39975674D01*
X68313369Y-39951576D01*
X68364116Y-39931200D01*
X68388842Y-39918936D01*
X68388884Y-39918901D01*
X68396729Y-39896734D01*
X68410066Y-39842217D01*
X68427570Y-39761480D01*
X68447917Y-39660650D01*
X68469782Y-39545856D01*
X68471571Y-39536178D01*
X68493504Y-39417904D01*
X68513640Y-39310542D01*
X68530680Y-39220917D01*
X68543328Y-39155851D01*
X68550284Y-39122168D01*
X68550406Y-39121654D01*
X68554639Y-39107325D01*
X68562871Y-39096507D01*
X68580033Y-39088706D01*
X68611058Y-39083429D01*
X68660878Y-39080182D01*
X68734424Y-39078472D01*
X68836629Y-39077807D01*
X68972425Y-39077693D01*
X68990000Y-39077692D01*
X69129878Y-39077776D01*
G36*
X72560807Y-45426782D02*
G01*
X72584161Y-45436988D01*
X72639902Y-45481134D01*
X72687569Y-45544967D01*
X72717048Y-45613087D01*
X72721846Y-45646670D01*
X72705760Y-45693556D01*
X72670475Y-45718365D01*
X72632644Y-45733387D01*
X72615321Y-45736155D01*
X72606886Y-45716066D01*
X72590230Y-45672351D01*
X72582923Y-45652598D01*
X72541948Y-45584271D01*
X72482622Y-45550191D01*
X72406552Y-45551239D01*
X72400918Y-45552581D01*
X72360305Y-45571836D01*
X72330448Y-45609375D01*
X72310055Y-45669809D01*
X72297836Y-45757751D01*
X72292500Y-45877813D01*
X72292000Y-45941698D01*
X72291752Y-46042403D01*
X72290126Y-46111054D01*
X72285801Y-46154673D01*
X72277454Y-46180282D01*
X72263765Y-46194903D01*
X72243411Y-46205558D01*
X72242234Y-46206095D01*
X72203038Y-46222667D01*
X72183619Y-46228769D01*
X72180635Y-46210319D01*
X72178081Y-46159323D01*
X72176140Y-46082308D01*
X72174997Y-45985805D01*
X72174769Y-45915184D01*
X72175932Y-45778525D01*
X72180479Y-45674851D01*
X72189999Y-45598108D01*
X72206081Y-45542246D01*
X72230313Y-45501212D01*
X72264286Y-45468954D01*
X72297833Y-45446440D01*
X72378499Y-45416476D01*
X72472381Y-45409718D01*
X72560807Y-45426782D01*
G37*
X72560807Y-45426782D02*
X72584161Y-45436988D01*
X72639902Y-45481134D01*
X72687569Y-45544967D01*
X72717048Y-45613087D01*
X72721846Y-45646670D01*
X72705760Y-45693556D01*
X72670475Y-45718365D01*
X72632644Y-45733387D01*
X72615321Y-45736155D01*
X72606886Y-45716066D01*
X72590230Y-45672351D01*
X72582923Y-45652598D01*
X72541948Y-45584271D01*
X72482622Y-45550191D01*
X72406552Y-45551239D01*
X72400918Y-45552581D01*
X72360305Y-45571836D01*
X72330448Y-45609375D01*
X72310055Y-45669809D01*
X72297836Y-45757751D01*
X72292500Y-45877813D01*
X72292000Y-45941698D01*
X72291752Y-46042403D01*
X72290126Y-46111054D01*
X72285801Y-46154673D01*
X72277454Y-46180282D01*
X72263765Y-46194903D01*
X72243411Y-46205558D01*
X72242234Y-46206095D01*
X72203038Y-46222667D01*
X72183619Y-46228769D01*
X72180635Y-46210319D01*
X72178081Y-46159323D01*
X72176140Y-46082308D01*
X72174997Y-45985805D01*
X72174769Y-45915184D01*
X72175932Y-45778525D01*
X72180479Y-45674851D01*
X72189999Y-45598108D01*
X72206081Y-45542246D01*
X72230313Y-45501212D01*
X72264286Y-45468954D01*
X72297833Y-45446440D01*
X72378499Y-45416476D01*
X72472381Y-45409718D01*
X72560807Y-45426782D01*
G36*
X69043501Y-45416303D02*
G01*
X69120060Y-45444733D01*
X69120936Y-45445279D01*
X69168285Y-45480127D01*
X69203241Y-45520852D01*
X69227825Y-45573925D01*
X69244062Y-45645814D01*
X69253975Y-45742992D01*
X69259586Y-45871928D01*
X69260077Y-45890298D01*
X69267141Y-46167287D01*
X69207695Y-46198028D01*
X69164681Y-46218802D01*
X69138710Y-46228646D01*
X69137509Y-46228769D01*
X69133014Y-46210606D01*
X69129444Y-46161612D01*
X69127248Y-46090031D01*
X69126769Y-46032068D01*
X69126758Y-45938170D01*
X69122466Y-45879203D01*
X69107503Y-45851079D01*
X69075482Y-45849706D01*
X69020014Y-45870998D01*
X68936269Y-45910136D01*
X68874689Y-45942643D01*
X68843017Y-45970845D01*
X68833706Y-46001582D01*
X68833692Y-46003104D01*
X68849057Y-46056054D01*
X68894547Y-46084660D01*
X68964166Y-46088803D01*
X69014313Y-46088084D01*
X69040754Y-46102527D01*
X69057243Y-46137218D01*
X69066733Y-46181416D01*
X69053057Y-46206493D01*
X69047907Y-46210082D01*
X68999425Y-46224496D01*
X68931531Y-46226537D01*
X68861612Y-46216983D01*
X68812068Y-46199522D01*
X68743570Y-46141364D01*
X68704634Y-46060408D01*
X68696923Y-45997160D01*
X68702807Y-45940111D01*
X68724101Y-45893542D01*
X68766265Y-45852181D01*
X68834759Y-45810755D01*
X68935044Y-45763993D01*
X68941154Y-45761350D01*
X69031490Y-45719617D01*
X69087235Y-45685391D01*
X69111129Y-45654635D01*
X69105913Y-45623311D01*
X69074328Y-45587383D01*
X69064883Y-45579116D01*
X69001617Y-45547058D01*
X68936064Y-45548407D01*
X68878972Y-45579838D01*
X68841093Y-45638024D01*
X68837574Y-45649446D01*
X68803300Y-45704837D01*
X68759809Y-45731518D01*
X68696923Y-45757960D01*
X68696923Y-45689548D01*
X68716052Y-45590110D01*
X68772831Y-45498902D01*
X68802378Y-45468389D01*
X68869542Y-45429228D01*
X68954956Y-45411500D01*
X69043501Y-45416303D01*
G37*
X69043501Y-45416303D02*
X69120060Y-45444733D01*
X69120936Y-45445279D01*
X69168285Y-45480127D01*
X69203241Y-45520852D01*
X69227825Y-45573925D01*
X69244062Y-45645814D01*
X69253975Y-45742992D01*
X69259586Y-45871928D01*
X69260077Y-45890298D01*
X69267141Y-46167287D01*
X69207695Y-46198028D01*
X69164681Y-46218802D01*
X69138710Y-46228646D01*
X69137509Y-46228769D01*
X69133014Y-46210606D01*
X69129444Y-46161612D01*
X69127248Y-46090031D01*
X69126769Y-46032068D01*
X69126758Y-45938170D01*
X69122466Y-45879203D01*
X69107503Y-45851079D01*
X69075482Y-45849706D01*
X69020014Y-45870998D01*
X68936269Y-45910136D01*
X68874689Y-45942643D01*
X68843017Y-45970845D01*
X68833706Y-46001582D01*
X68833692Y-46003104D01*
X68849057Y-46056054D01*
X68894547Y-46084660D01*
X68964166Y-46088803D01*
X69014313Y-46088084D01*
X69040754Y-46102527D01*
X69057243Y-46137218D01*
X69066733Y-46181416D01*
X69053057Y-46206493D01*
X69047907Y-46210082D01*
X68999425Y-46224496D01*
X68931531Y-46226537D01*
X68861612Y-46216983D01*
X68812068Y-46199522D01*
X68743570Y-46141364D01*
X68704634Y-46060408D01*
X68696923Y-45997160D01*
X68702807Y-45940111D01*
X68724101Y-45893542D01*
X68766265Y-45852181D01*
X68834759Y-45810755D01*
X68935044Y-45763993D01*
X68941154Y-45761350D01*
X69031490Y-45719617D01*
X69087235Y-45685391D01*
X69111129Y-45654635D01*
X69105913Y-45623311D01*
X69074328Y-45587383D01*
X69064883Y-45579116D01*
X69001617Y-45547058D01*
X68936064Y-45548407D01*
X68878972Y-45579838D01*
X68841093Y-45638024D01*
X68837574Y-45649446D01*
X68803300Y-45704837D01*
X68759809Y-45731518D01*
X68696923Y-45757960D01*
X68696923Y-45689548D01*
X68716052Y-45590110D01*
X68772831Y-45498902D01*
X68802378Y-45468389D01*
X68869542Y-45429228D01*
X68954956Y-45411500D01*
X69043501Y-45416303D01*
G36*
X70046362Y-45603577D02*
G01*
X70076528Y-45534269D01*
X70123629Y-45480211D01*
X70160312Y-45452505D01*
X70226990Y-45422572D01*
X70304272Y-45408678D01*
X70376110Y-45412397D01*
X70416308Y-45427400D01*
X70432082Y-45431670D01*
X70442550Y-45415750D01*
X70449856Y-45373089D01*
X70455385Y-45308106D01*
X70461437Y-45235732D01*
X70469844Y-45192187D01*
X70485141Y-45167287D01*
X70511864Y-45150845D01*
X70528654Y-45143564D01*
X70592154Y-45116963D01*
X70592081Y-45570289D01*
X70591833Y-45716320D01*
X70590872Y-45828655D01*
X70588794Y-45912678D01*
X70585193Y-45973769D01*
X70579665Y-46017309D01*
X70571804Y-46048679D01*
X70561207Y-46073262D01*
X70553182Y-46087294D01*
X70486728Y-46163388D01*
X70402470Y-46211084D01*
X70309249Y-46228199D01*
X70215900Y-46212546D01*
X70160312Y-46184418D01*
X70101957Y-46135760D01*
X70062186Y-46076333D01*
X70038190Y-45998507D01*
X70027161Y-45894652D01*
X70025599Y-45818462D01*
X70025809Y-45812986D01*
X70162308Y-45812986D01*
X70163141Y-45900355D01*
X70166961Y-45958192D01*
X70175746Y-45996029D01*
X70191474Y-46023398D01*
X70210266Y-46044042D01*
X70273375Y-46083890D01*
X70341137Y-46087295D01*
X70405179Y-46054025D01*
X70410164Y-46049517D01*
X70431439Y-46026067D01*
X70444779Y-45998166D01*
X70452001Y-45956641D01*
X70454923Y-45892316D01*
X70455385Y-45821200D01*
X70454383Y-45731858D01*
X70450238Y-45672258D01*
X70441236Y-45633089D01*
X70425667Y-45605040D01*
X70412902Y-45590144D01*
X70353600Y-45552575D01*
X70285301Y-45548057D01*
X70220110Y-45576753D01*
X70207528Y-45587406D01*
X70186111Y-45611063D01*
X70172744Y-45639251D01*
X70165566Y-45681245D01*
X70162719Y-45746319D01*
X70162308Y-45812986D01*
X70025809Y-45812986D01*
X70030322Y-45695765D01*
X70046362Y-45603577D01*
G37*
X70046362Y-45603577D02*
X70076528Y-45534269D01*
X70123629Y-45480211D01*
X70160312Y-45452505D01*
X70226990Y-45422572D01*
X70304272Y-45408678D01*
X70376110Y-45412397D01*
X70416308Y-45427400D01*
X70432082Y-45431670D01*
X70442550Y-45415750D01*
X70449856Y-45373089D01*
X70455385Y-45308106D01*
X70461437Y-45235732D01*
X70469844Y-45192187D01*
X70485141Y-45167287D01*
X70511864Y-45150845D01*
X70528654Y-45143564D01*
X70592154Y-45116963D01*
X70592081Y-45570289D01*
X70591833Y-45716320D01*
X70590872Y-45828655D01*
X70588794Y-45912678D01*
X70585193Y-45973769D01*
X70579665Y-46017309D01*
X70571804Y-46048679D01*
X70561207Y-46073262D01*
X70553182Y-46087294D01*
X70486728Y-46163388D01*
X70402470Y-46211084D01*
X70309249Y-46228199D01*
X70215900Y-46212546D01*
X70160312Y-46184418D01*
X70101957Y-46135760D01*
X70062186Y-46076333D01*
X70038190Y-45998507D01*
X70027161Y-45894652D01*
X70025599Y-45818462D01*
X70025809Y-45812986D01*
X70162308Y-45812986D01*
X70163141Y-45900355D01*
X70166961Y-45958192D01*
X70175746Y-45996029D01*
X70191474Y-46023398D01*
X70210266Y-46044042D01*
X70273375Y-46083890D01*
X70341137Y-46087295D01*
X70405179Y-46054025D01*
X70410164Y-46049517D01*
X70431439Y-46026067D01*
X70444779Y-45998166D01*
X70452001Y-45956641D01*
X70454923Y-45892316D01*
X70455385Y-45821200D01*
X70454383Y-45731858D01*
X70450238Y-45672258D01*
X70441236Y-45633089D01*
X70425667Y-45605040D01*
X70412902Y-45590144D01*
X70353600Y-45552575D01*
X70285301Y-45548057D01*
X70220110Y-45576753D01*
X70207528Y-45587406D01*
X70186111Y-45611063D01*
X70172744Y-45639251D01*
X70165566Y-45681245D01*
X70162719Y-45746319D01*
X70162308Y-45812986D01*
X70025809Y-45812986D01*
X70030322Y-45695765D01*
X70046362Y-45603577D01*
G36*
X68149846Y-45282120D02*
G01*
X68155572Y-45361980D01*
X68162149Y-45409039D01*
X68171262Y-45429566D01*
X68184598Y-45429829D01*
X68188923Y-45427378D01*
X68246444Y-45409636D01*
X68321268Y-45410672D01*
X68397339Y-45428910D01*
X68444918Y-45452505D01*
X68493702Y-45490198D01*
X68529364Y-45532855D01*
X68553845Y-45587057D01*
X68569087Y-45659384D01*
X68577030Y-45756419D01*
X68579616Y-45884742D01*
X68579662Y-45909358D01*
X68579692Y-46185870D01*
X68518161Y-46207320D01*
X68474459Y-46221912D01*
X68450482Y-46228706D01*
X68449777Y-46228769D01*
X68447415Y-46210345D01*
X68445406Y-46159526D01*
X68443901Y-46082993D01*
X68443053Y-45987430D01*
X68442923Y-45929329D01*
X68442651Y-45814771D01*
X68441252Y-45732667D01*
X68437849Y-45676393D01*
X68431567Y-45639326D01*
X68421529Y-45614844D01*
X68406861Y-45596325D01*
X68397702Y-45587406D01*
X68334789Y-45551466D01*
X68266136Y-45548775D01*
X68203848Y-45579170D01*
X68192329Y-45590144D01*
X68175433Y-45610779D01*
X68163714Y-45635256D01*
X68156233Y-45670647D01*
X68152054Y-45724026D01*
X68150237Y-45802466D01*
X68149846Y-45910617D01*
X68149846Y-46185870D01*
X68088315Y-46207320D01*
X68044613Y-46221912D01*
X68020636Y-46228706D01*
X68019930Y-46228769D01*
X68018126Y-46210069D01*
X68016500Y-46157322D01*
X68015117Y-46075557D01*
X68014042Y-45969805D01*
X68013340Y-45845094D01*
X68013077Y-45706455D01*
X68013077Y-45171806D01*
X68140077Y-45118236D01*
X68149846Y-45282120D01*
G37*
X68149846Y-45282120D02*
X68155572Y-45361980D01*
X68162149Y-45409039D01*
X68171262Y-45429566D01*
X68184598Y-45429829D01*
X68188923Y-45427378D01*
X68246444Y-45409636D01*
X68321268Y-45410672D01*
X68397339Y-45428910D01*
X68444918Y-45452505D01*
X68493702Y-45490198D01*
X68529364Y-45532855D01*
X68553845Y-45587057D01*
X68569087Y-45659384D01*
X68577030Y-45756419D01*
X68579616Y-45884742D01*
X68579662Y-45909358D01*
X68579692Y-46185870D01*
X68518161Y-46207320D01*
X68474459Y-46221912D01*
X68450482Y-46228706D01*
X68449777Y-46228769D01*
X68447415Y-46210345D01*
X68445406Y-46159526D01*
X68443901Y-46082993D01*
X68443053Y-45987430D01*
X68442923Y-45929329D01*
X68442651Y-45814771D01*
X68441252Y-45732667D01*
X68437849Y-45676393D01*
X68431567Y-45639326D01*
X68421529Y-45614844D01*
X68406861Y-45596325D01*
X68397702Y-45587406D01*
X68334789Y-45551466D01*
X68266136Y-45548775D01*
X68203848Y-45579170D01*
X68192329Y-45590144D01*
X68175433Y-45610779D01*
X68163714Y-45635256D01*
X68156233Y-45670647D01*
X68152054Y-45724026D01*
X68150237Y-45802466D01*
X68149846Y-45910617D01*
X68149846Y-46185870D01*
X68088315Y-46207320D01*
X68044613Y-46221912D01*
X68020636Y-46228706D01*
X68019930Y-46228769D01*
X68018126Y-46210069D01*
X68016500Y-46157322D01*
X68015117Y-46075557D01*
X68014042Y-45969805D01*
X68013340Y-45845094D01*
X68013077Y-45706455D01*
X68013077Y-45171806D01*
X68140077Y-45118236D01*
X68149846Y-45282120D01*
G36*
X64597629Y-45627906D02*
G01*
X64604322Y-45579163D01*
X64615960Y-45543288D01*
X64633853Y-45511548D01*
X64637808Y-45505648D01*
X64704267Y-45426104D01*
X64776685Y-45379929D01*
X64864849Y-45361599D01*
X64894787Y-45360703D01*
X65006886Y-45377256D01*
X65098464Y-45425409D01*
X65166049Y-45502905D01*
X65190057Y-45552727D01*
X65208738Y-45627533D01*
X65218301Y-45722052D01*
X65219208Y-45825210D01*
X65211921Y-45925935D01*
X65196903Y-46013153D01*
X65174615Y-46075791D01*
X65167765Y-46086579D01*
X65086632Y-46167105D01*
X64990266Y-46215336D01*
X64885701Y-46229450D01*
X64779968Y-46207629D01*
X64750543Y-46194547D01*
X64693241Y-46154231D01*
X64642950Y-46100775D01*
X64638197Y-46093995D01*
X64618878Y-46061321D01*
X64606108Y-46026394D01*
X64598564Y-45980414D01*
X64594924Y-45914584D01*
X64593865Y-45820105D01*
X64593846Y-45798923D01*
X64593894Y-45792182D01*
X64789231Y-45792182D01*
X64790368Y-45881349D01*
X64794841Y-45940520D01*
X64804246Y-45978741D01*
X64820176Y-46005053D01*
X64828308Y-46013846D01*
X64875058Y-46047261D01*
X64920447Y-46045737D01*
X64966340Y-46016752D01*
X64993712Y-45985809D01*
X65009923Y-45940643D01*
X65019026Y-45869420D01*
X65019651Y-45861114D01*
X65021204Y-45732037D01*
X65004965Y-45636172D01*
X64971152Y-45574107D01*
X64919984Y-45546432D01*
X64901720Y-45544923D01*
X64853760Y-45552513D01*
X64820953Y-45578808D01*
X64800895Y-45629095D01*
X64791178Y-45708664D01*
X64789231Y-45792182D01*
X64593894Y-45792182D01*
X64594574Y-45698249D01*
X64597629Y-45627906D01*
G37*
X64597629Y-45627906D02*
X64604322Y-45579163D01*
X64615960Y-45543288D01*
X64633853Y-45511548D01*
X64637808Y-45505648D01*
X64704267Y-45426104D01*
X64776685Y-45379929D01*
X64864849Y-45361599D01*
X64894787Y-45360703D01*
X65006886Y-45377256D01*
X65098464Y-45425409D01*
X65166049Y-45502905D01*
X65190057Y-45552727D01*
X65208738Y-45627533D01*
X65218301Y-45722052D01*
X65219208Y-45825210D01*
X65211921Y-45925935D01*
X65196903Y-46013153D01*
X65174615Y-46075791D01*
X65167765Y-46086579D01*
X65086632Y-46167105D01*
X64990266Y-46215336D01*
X64885701Y-46229450D01*
X64779968Y-46207629D01*
X64750543Y-46194547D01*
X64693241Y-46154231D01*
X64642950Y-46100775D01*
X64638197Y-46093995D01*
X64618878Y-46061321D01*
X64606108Y-46026394D01*
X64598564Y-45980414D01*
X64594924Y-45914584D01*
X64593865Y-45820105D01*
X64593846Y-45798923D01*
X64593894Y-45792182D01*
X64789231Y-45792182D01*
X64790368Y-45881349D01*
X64794841Y-45940520D01*
X64804246Y-45978741D01*
X64820176Y-46005053D01*
X64828308Y-46013846D01*
X64875058Y-46047261D01*
X64920447Y-46045737D01*
X64966340Y-46016752D01*
X64993712Y-45985809D01*
X65009923Y-45940643D01*
X65019026Y-45869420D01*
X65019651Y-45861114D01*
X65021204Y-45732037D01*
X65004965Y-45636172D01*
X64971152Y-45574107D01*
X64919984Y-45546432D01*
X64901720Y-45544923D01*
X64853760Y-45552513D01*
X64820953Y-45578808D01*
X64800895Y-45629095D01*
X64791178Y-45708664D01*
X64789231Y-45792182D01*
X64593894Y-45792182D01*
X64594574Y-45698249D01*
X64597629Y-45627906D01*
G36*
X71877333Y-45423528D02*
G01*
X71933590Y-45449117D01*
X71977747Y-45480124D01*
X72010101Y-45514795D01*
X72032438Y-45559520D01*
X72046546Y-45620692D01*
X72054211Y-45704701D01*
X72057220Y-45817940D01*
X72057538Y-45892509D01*
X72057538Y-46183420D01*
X72007773Y-46206095D01*
X71968576Y-46222667D01*
X71949157Y-46228769D01*
X71945442Y-46210610D01*
X71942495Y-46161648D01*
X71940691Y-46090153D01*
X71940308Y-46033385D01*
X71938661Y-45951371D01*
X71934222Y-45886309D01*
X71927740Y-45846467D01*
X71922590Y-45838000D01*
X71887977Y-45846646D01*
X71833640Y-45868823D01*
X71770722Y-45898886D01*
X71710368Y-45931192D01*
X71663721Y-45960098D01*
X71641926Y-45979961D01*
X71641839Y-45980175D01*
X71643714Y-46016935D01*
X71660525Y-46052026D01*
X71690039Y-46080528D01*
X71733116Y-46090061D01*
X71769932Y-46088950D01*
X71822074Y-46088133D01*
X71849444Y-46100349D01*
X71865882Y-46132624D01*
X71867955Y-46138710D01*
X71875081Y-46184739D01*
X71856024Y-46212687D01*
X71806353Y-46226007D01*
X71752697Y-46228470D01*
X71656142Y-46210210D01*
X71606159Y-46184131D01*
X71544429Y-46122868D01*
X71511690Y-46047670D01*
X71508753Y-45968211D01*
X71536424Y-45894167D01*
X71578047Y-45847769D01*
X71619604Y-45821793D01*
X71684922Y-45788907D01*
X71761038Y-45755557D01*
X71773726Y-45750461D01*
X71857333Y-45713565D01*
X71905530Y-45681046D01*
X71921030Y-45648718D01*
X71906550Y-45612394D01*
X71881692Y-45584000D01*
X71822939Y-45549039D01*
X71758293Y-45546417D01*
X71699008Y-45573358D01*
X71656339Y-45627088D01*
X71650739Y-45640950D01*
X71618133Y-45691936D01*
X71570530Y-45729787D01*
X71510461Y-45760850D01*
X71510461Y-45672768D01*
X71513997Y-45618951D01*
X71529156Y-45576534D01*
X71562768Y-45531279D01*
X71595035Y-45496420D01*
X71645209Y-45447062D01*
X71684193Y-45420547D01*
X71726064Y-45409911D01*
X71773460Y-45408154D01*
X71877333Y-45423528D01*
G37*
X71877333Y-45423528D02*
X71933590Y-45449117D01*
X71977747Y-45480124D01*
X72010101Y-45514795D01*
X72032438Y-45559520D01*
X72046546Y-45620692D01*
X72054211Y-45704701D01*
X72057220Y-45817940D01*
X72057538Y-45892509D01*
X72057538Y-46183420D01*
X72007773Y-46206095D01*
X71968576Y-46222667D01*
X71949157Y-46228769D01*
X71945442Y-46210610D01*
X71942495Y-46161648D01*
X71940691Y-46090153D01*
X71940308Y-46033385D01*
X71938661Y-45951371D01*
X71934222Y-45886309D01*
X71927740Y-45846467D01*
X71922590Y-45838000D01*
X71887977Y-45846646D01*
X71833640Y-45868823D01*
X71770722Y-45898886D01*
X71710368Y-45931192D01*
X71663721Y-45960098D01*
X71641926Y-45979961D01*
X71641839Y-45980175D01*
X71643714Y-46016935D01*
X71660525Y-46052026D01*
X71690039Y-46080528D01*
X71733116Y-46090061D01*
X71769932Y-46088950D01*
X71822074Y-46088133D01*
X71849444Y-46100349D01*
X71865882Y-46132624D01*
X71867955Y-46138710D01*
X71875081Y-46184739D01*
X71856024Y-46212687D01*
X71806353Y-46226007D01*
X71752697Y-46228470D01*
X71656142Y-46210210D01*
X71606159Y-46184131D01*
X71544429Y-46122868D01*
X71511690Y-46047670D01*
X71508753Y-45968211D01*
X71536424Y-45894167D01*
X71578047Y-45847769D01*
X71619604Y-45821793D01*
X71684922Y-45788907D01*
X71761038Y-45755557D01*
X71773726Y-45750461D01*
X71857333Y-45713565D01*
X71905530Y-45681046D01*
X71921030Y-45648718D01*
X71906550Y-45612394D01*
X71881692Y-45584000D01*
X71822939Y-45549039D01*
X71758293Y-45546417D01*
X71699008Y-45573358D01*
X71656339Y-45627088D01*
X71650739Y-45640950D01*
X71618133Y-45691936D01*
X71570530Y-45729787D01*
X71510461Y-45760850D01*
X71510461Y-45672768D01*
X71513997Y-45618951D01*
X71529156Y-45576534D01*
X71562768Y-45531279D01*
X71595035Y-45496420D01*
X71645209Y-45447062D01*
X71684193Y-45420547D01*
X71726064Y-45409911D01*
X71773460Y-45408154D01*
X71877333Y-45423528D01*
D15*
%TO.C,R31*%
X62705000Y-25712936D02*
X62705000Y-26167064D01*
X61235000Y-25712936D02*
X61235000Y-26167064D01*
%TO.C,C4*%
X82552500Y-22648748D02*
X82552500Y-23171252D01*
X81082500Y-22648748D02*
X81082500Y-23171252D01*
%TO.C,R11*%
X63689564Y-36602500D02*
X63235436Y-36602500D01*
X63689564Y-35132500D02*
X63235436Y-35132500D01*
%TO.C,R26*%
X69875000Y-60557064D02*
X69875000Y-60102936D01*
X68405000Y-60557064D02*
X68405000Y-60102936D01*
%TO.C,C2*%
X29675000Y-47658748D02*
X29675000Y-48181252D01*
X31145000Y-47658748D02*
X31145000Y-48181252D01*
%TO.C,R9*%
X63287500Y-32320436D02*
X63287500Y-32774564D01*
X61817500Y-32320436D02*
X61817500Y-32774564D01*
%TO.C,R6*%
X79845000Y-34830436D02*
X79845000Y-35284564D01*
X78375000Y-34830436D02*
X78375000Y-35284564D01*
%TO.C,C9*%
X88671252Y-54092500D02*
X88148748Y-54092500D01*
X88671252Y-55562500D02*
X88148748Y-55562500D01*
%TO.C,RV1*%
X49385000Y-23267500D02*
X59155000Y-23267500D01*
X59155000Y-23267500D02*
X59155000Y-28337500D01*
X49385000Y-23267500D02*
X49385000Y-28337500D01*
X49385000Y-28337500D02*
X59155000Y-28337500D01*
%TO.C,R14*%
X91005000Y-45600436D02*
X91005000Y-46054564D01*
X89535000Y-45600436D02*
X89535000Y-46054564D01*
%TO.C,R33*%
X54945436Y-42452500D02*
X55399564Y-42452500D01*
X54945436Y-43922500D02*
X55399564Y-43922500D01*
%TO.C,Q1*%
X45202500Y-44670000D02*
X45202500Y-48520000D01*
X45212378Y-48558611D02*
G75*
G03*
X45202500Y-44670000I1690122J1948611D01*
G01*
%TO.C,R13*%
X95925000Y-45620436D02*
X95925000Y-46074564D01*
X94455000Y-45620436D02*
X94455000Y-46074564D01*
%TO.C,C14*%
X79645000Y-61076248D02*
X79645000Y-61598752D01*
X81115000Y-61076248D02*
X81115000Y-61598752D01*
%TO.C,J2*%
X100290000Y-55660000D02*
X100290000Y-54550000D01*
X99240000Y-56250000D02*
X99240000Y-56750000D01*
X104000000Y-58450000D02*
X104000000Y-57340000D01*
X99240000Y-56750000D02*
X99740000Y-56500000D01*
X99740000Y-56500000D02*
X99240000Y-56250000D01*
X104000000Y-55660000D02*
X104000000Y-54550000D01*
X100290000Y-58450000D02*
X100290000Y-57340000D01*
%TO.C,J1*%
X99240000Y-32750000D02*
X99740000Y-32500000D01*
X99240000Y-32250000D02*
X99240000Y-32750000D01*
X104000000Y-34450000D02*
X104000000Y-33340000D01*
X99740000Y-32500000D02*
X99240000Y-32250000D01*
X100290000Y-34450000D02*
X100290000Y-33340000D01*
X100290000Y-31660000D02*
X100290000Y-30550000D01*
X104000000Y-31660000D02*
X104000000Y-30550000D01*
%TO.C,R2*%
X85754564Y-24995000D02*
X85300436Y-24995000D01*
X85754564Y-26465000D02*
X85300436Y-26465000D01*
%TO.C,R12*%
X89132936Y-40982500D02*
X89587064Y-40982500D01*
X89132936Y-39512500D02*
X89587064Y-39512500D01*
%TO.C,R24*%
X86735000Y-62522936D02*
X86735000Y-62977064D01*
X88205000Y-62522936D02*
X88205000Y-62977064D01*
%TO.C,R4*%
X25512936Y-59025000D02*
X25967064Y-59025000D01*
X25512936Y-60495000D02*
X25967064Y-60495000D01*
%TO.C,J3*%
X53080000Y-56990000D02*
X53080000Y-59650000D01*
X63300000Y-56990000D02*
X53080000Y-56990000D01*
X63300000Y-59650000D02*
X53080000Y-59650000D01*
X63300000Y-56990000D02*
X63300000Y-59650000D01*
X64570000Y-56990000D02*
X65900000Y-56990000D01*
X65900000Y-56990000D02*
X65900000Y-58320000D01*
%TO.C,C6*%
X91668752Y-29635000D02*
X91146248Y-29635000D01*
X91668752Y-31105000D02*
X91146248Y-31105000D01*
%TO.C,R16*%
X47637500Y-42054564D02*
X47637500Y-41600436D01*
X46167500Y-42054564D02*
X46167500Y-41600436D01*
%TO.C,U7*%
X59967500Y-38337500D02*
X59967500Y-40287500D01*
X59967500Y-38337500D02*
X59967500Y-34887500D01*
X51097500Y-38337500D02*
X51097500Y-40287500D01*
X51097500Y-38337500D02*
X51097500Y-36387500D01*
%TO.C,C12*%
X90958748Y-50242500D02*
X91481252Y-50242500D01*
X90958748Y-48772500D02*
X91481252Y-48772500D01*
%TO.C,R15*%
X52859564Y-32392500D02*
X52405436Y-32392500D01*
X52859564Y-33862500D02*
X52405436Y-33862500D01*
%TO.C,R18*%
X48525436Y-30252500D02*
X48979564Y-30252500D01*
X48525436Y-31722500D02*
X48979564Y-31722500D01*
%TO.C,R32*%
X51255436Y-43932500D02*
X51709564Y-43932500D01*
X51255436Y-42462500D02*
X51709564Y-42462500D01*
%TO.C,C7*%
X29685000Y-56368748D02*
X29685000Y-56891252D01*
X31155000Y-56368748D02*
X31155000Y-56891252D01*
%TO.C,R17*%
X77105000Y-64224564D02*
X77105000Y-63770436D01*
X78575000Y-64224564D02*
X78575000Y-63770436D01*
%TO.C,R20*%
X74255000Y-62404564D02*
X74255000Y-61950436D01*
X75725000Y-62404564D02*
X75725000Y-61950436D01*
%TO.C,R22*%
X72642936Y-55222500D02*
X73097064Y-55222500D01*
X72642936Y-53752500D02*
X73097064Y-53752500D01*
%TO.C,R7*%
X86725000Y-59384564D02*
X86725000Y-58930436D01*
X88195000Y-59384564D02*
X88195000Y-58930436D01*
%TO.C,L2*%
X84547122Y-29820000D02*
X83747878Y-29820000D01*
X84547122Y-30940000D02*
X83747878Y-30940000D01*
%TO.C,C3*%
X90058752Y-24995000D02*
X89536248Y-24995000D01*
X90058752Y-26465000D02*
X89536248Y-26465000D01*
%TO.C,R1*%
X32535000Y-53107064D02*
X32535000Y-52652936D01*
X34005000Y-53107064D02*
X34005000Y-52652936D01*
%TO.C,L1*%
X27220000Y-57139622D02*
X27220000Y-56340378D01*
X26100000Y-57139622D02*
X26100000Y-56340378D01*
%TO.C,RV2*%
X86535000Y-42777500D02*
X76765000Y-42777500D01*
X86535000Y-42777500D02*
X86535000Y-37707500D01*
X76765000Y-42777500D02*
X76765000Y-37707500D01*
X86535000Y-37707500D02*
X76765000Y-37707500D01*
%TO.C,R8*%
X56955436Y-31652500D02*
X57409564Y-31652500D01*
X56955436Y-30182500D02*
X57409564Y-30182500D01*
%TO.C,R25*%
X83655000Y-61110436D02*
X83655000Y-61564564D01*
X82185000Y-61110436D02*
X82185000Y-61564564D01*
%TO.C,C10*%
X85745000Y-46128752D02*
X85745000Y-45606248D01*
X87215000Y-46128752D02*
X87215000Y-45606248D01*
%TO.C,U5*%
X27770000Y-25680000D02*
X40470000Y-25680000D01*
X40470000Y-25680000D02*
X40470000Y-38380000D01*
X40470000Y-38380000D02*
X27770000Y-38380000D01*
X27770000Y-38380000D02*
X27770000Y-25680000D01*
X38930000Y-28130000D02*
G75*
G03*
X38930000Y-28130000I-1000000J0D01*
G01*
%TO.C,R19*%
X52402936Y-30222500D02*
X52857064Y-30222500D01*
X52402936Y-31692500D02*
X52857064Y-31692500D01*
%TO.C,R23*%
X72662936Y-51532500D02*
X73117064Y-51532500D01*
X72662936Y-50062500D02*
X73117064Y-50062500D01*
%TO.C,C8*%
X79918752Y-31115000D02*
X79396248Y-31115000D01*
X79918752Y-29645000D02*
X79396248Y-29645000D01*
%TO.C,C5*%
X27395000Y-62931252D02*
X27395000Y-62408748D01*
X25925000Y-62931252D02*
X25925000Y-62408748D01*
%TO.C,SW1*%
X71530000Y-28670000D02*
X72530000Y-28670000D01*
X74440000Y-27660000D02*
X74440000Y-27970000D01*
X74440000Y-27970000D02*
X65620000Y-27970000D01*
X72530000Y-28670000D02*
X72030000Y-28170000D01*
X65620000Y-23450000D02*
X65620000Y-23760000D01*
X65620000Y-27970000D02*
X65620000Y-27660000D01*
X65620000Y-23450000D02*
X74440000Y-23450000D01*
X74440000Y-23450000D02*
X74440000Y-23760000D01*
X72030000Y-28170000D02*
X71530000Y-28670000D01*
%TO.C,C13*%
X71215000Y-64048752D02*
X71215000Y-63526248D01*
X72685000Y-64048752D02*
X72685000Y-63526248D01*
%TO.C,C1*%
X33995000Y-57011252D02*
X33995000Y-56488748D01*
X32525000Y-57011252D02*
X32525000Y-56488748D01*
%TO.C,R5*%
X88392500Y-29232936D02*
X88392500Y-29687064D01*
X86922500Y-29232936D02*
X86922500Y-29687064D01*
%TO.C,R3*%
X45795436Y-62166250D02*
X46249564Y-62166250D01*
X45795436Y-63636250D02*
X46249564Y-63636250D01*
%TO.C,R21*%
X73107064Y-56602500D02*
X72652936Y-56602500D01*
X73107064Y-58072500D02*
X72652936Y-58072500D01*
%TD*%
M02*
