%TF.GenerationSoftware,KiCad,Pcbnew,(6.0.9)*%
%TF.CreationDate,2022-11-20T11:02:21-05:00*%
%TF.ProjectId,RadarProject,52616461-7250-4726-9f6a-6563742e6b69,rev?*%
%TF.SameCoordinates,Original*%
%TF.FileFunction,Legend,Bot*%
%TF.FilePolarity,Positive*%
%FSLAX46Y46*%
G04 Gerber Fmt 4.6, Leading zero omitted, Abs format (unit mm)*
G04 Created by KiCad (PCBNEW (6.0.9)) date 2022-11-20 11:02:21*
%MOMM*%
%LPD*%
G01*
G04 APERTURE LIST*
%ADD10C,0.150000*%
G04 APERTURE END LIST*
D10*
X100329047Y-67452380D02*
X100329047Y-68166666D01*
X100376666Y-68309523D01*
X100471904Y-68404761D01*
X100614761Y-68452380D01*
X100710000Y-68452380D01*
X99376666Y-68452380D02*
X99852857Y-68452380D01*
X99852857Y-67452380D01*
X98471904Y-68357142D02*
X98519523Y-68404761D01*
X98662380Y-68452380D01*
X98757619Y-68452380D01*
X98900476Y-68404761D01*
X98995714Y-68309523D01*
X99043333Y-68214285D01*
X99090952Y-68023809D01*
X99090952Y-67880952D01*
X99043333Y-67690476D01*
X98995714Y-67595238D01*
X98900476Y-67500000D01*
X98757619Y-67452380D01*
X98662380Y-67452380D01*
X98519523Y-67500000D01*
X98471904Y-67547619D01*
X97757619Y-67452380D02*
X97757619Y-68166666D01*
X97805238Y-68309523D01*
X97900476Y-68404761D01*
X98043333Y-68452380D01*
X98138571Y-68452380D01*
X96805238Y-68452380D02*
X97281428Y-68452380D01*
X97281428Y-67452380D01*
X95900476Y-68357142D02*
X95948095Y-68404761D01*
X96090952Y-68452380D01*
X96186190Y-68452380D01*
X96329047Y-68404761D01*
X96424285Y-68309523D01*
X96471904Y-68214285D01*
X96519523Y-68023809D01*
X96519523Y-67880952D01*
X96471904Y-67690476D01*
X96424285Y-67595238D01*
X96329047Y-67500000D01*
X96186190Y-67452380D01*
X96090952Y-67452380D01*
X95948095Y-67500000D01*
X95900476Y-67547619D01*
X95186190Y-67452380D02*
X95186190Y-68166666D01*
X95233809Y-68309523D01*
X95329047Y-68404761D01*
X95471904Y-68452380D01*
X95567142Y-68452380D01*
X94233809Y-68452380D02*
X94710000Y-68452380D01*
X94710000Y-67452380D01*
X93329047Y-68357142D02*
X93376666Y-68404761D01*
X93519523Y-68452380D01*
X93614761Y-68452380D01*
X93757619Y-68404761D01*
X93852857Y-68309523D01*
X93900476Y-68214285D01*
X93948095Y-68023809D01*
X93948095Y-67880952D01*
X93900476Y-67690476D01*
X93852857Y-67595238D01*
X93757619Y-67500000D01*
X93614761Y-67452380D01*
X93519523Y-67452380D01*
X93376666Y-67500000D01*
X93329047Y-67547619D01*
X92614761Y-67452380D02*
X92614761Y-68166666D01*
X92662380Y-68309523D01*
X92757619Y-68404761D01*
X92900476Y-68452380D01*
X92995714Y-68452380D01*
X91662380Y-68452380D02*
X92138571Y-68452380D01*
X92138571Y-67452380D01*
X90757619Y-68357142D02*
X90805238Y-68404761D01*
X90948095Y-68452380D01*
X91043333Y-68452380D01*
X91186190Y-68404761D01*
X91281428Y-68309523D01*
X91329047Y-68214285D01*
X91376666Y-68023809D01*
X91376666Y-67880952D01*
X91329047Y-67690476D01*
X91281428Y-67595238D01*
X91186190Y-67500000D01*
X91043333Y-67452380D01*
X90948095Y-67452380D01*
X90805238Y-67500000D01*
X90757619Y-67547619D01*
M02*
