M48
; DRILL file {KiCad 6.0.7} date Fri Oct 28 11:25:06 2022
; FORMAT={-:-/ absolute / inch / decimal}
; #@! TF.CreationDate,2022-10-28T11:25:06-04:00
; #@! TF.GenerationSoftware,Kicad,Pcbnew,6.0.7
; #@! TF.FileFunction,Plated,1,4,PTH
FMAT,2
INCH
; #@! TA.AperFunction,Plated,PTH,ViaDrill
T1C0.0157
; #@! TA.AperFunction,Plated,PTH,ComponentDrill
T2C0.0295
; #@! TA.AperFunction,Plated,PTH,ComponentDrill
T3C0.0315
; #@! TA.AperFunction,Plated,PTH,ComponentDrill
T4C0.0394
; #@! TA.AperFunction,Plated,PTH,ComponentDrill
T5C0.0591
%
G90
G05
T1
X1.002Y-1.2854
X1.0055Y-1.1854
X1.0075Y-2.25
X1.0083Y-2.452
X1.0906Y-1.4705
X1.1495Y-2.0157
X1.5906Y-1.4701
X1.6087Y-2.5559
X1.8118Y-2.574
X1.8264Y-1.2205
X1.9909Y-1.7783
X2.1862Y-1.3386
X2.187Y-1.5228
X2.2078Y-1.7651
X2.2358Y-1.2921
X2.2363Y-1.3385
X2.3615Y-1.2031
X2.3646Y-1.0157
X2.4029Y-1.4121
X2.4157Y-1.8382
X2.4398Y-1.1189
X2.5343Y-1.5953
X2.6311Y-1.1591
X2.9598Y-2.0235
X3.0134Y-1.8197
X3.0146Y-2.1987
X3.048Y-1.7602
X3.0909Y-1.1386
X3.1146Y-2.1983
X3.1433Y-2.5327
X3.1646Y-1.9949
X3.1646Y-2.1449
X3.1984Y-1.3441
X3.2146Y-2.1889
X3.2157Y-2.5066
X3.2957Y-2.1298
X3.3567Y-0.9185
X3.3673Y-2.0743
X3.3709Y-2.4004
X3.3839Y-2.507
X3.5921Y-1.0606
X3.7476Y-1.9488
X3.8638Y-2.3917
X3.8646Y-1.1122
X4.0157Y-1.7197
T2
X1.8466Y-1.7882
X1.8466Y-1.8382
X1.8466Y-1.8882
T3
X2.0366Y-1.0156
X2.1366Y-1.0156
X2.2366Y-1.0156
X2.6783Y-1.0122
X2.7571Y-1.0122
X2.8358Y-1.0122
X3.1146Y-1.5845
X3.2146Y-1.5845
X3.3146Y-1.5845
T4
X2.1421Y-2.2961
X2.2421Y-2.2961
X2.3421Y-2.2961
X2.4421Y-2.2961
X2.5421Y-2.2961
T5
X2.5957Y-1.0122
X2.9185Y-1.0122
T0
M30
