%TF.GenerationSoftware,KiCad,Pcbnew,(6.0.7)*%
%TF.CreationDate,2022-08-18T15:59:35-04:00*%
%TF.ProjectId,RadarProject,52616461-7250-4726-9f6a-6563742e6b69,rev?*%
%TF.SameCoordinates,Original*%
%TF.FileFunction,Copper,L1,Top*%
%TF.FilePolarity,Positive*%
%FSLAX46Y46*%
G04 Gerber Fmt 4.6, Leading zero omitted, Abs format (unit mm)*
G04 Created by KiCad (PCBNEW (6.0.7)) date 2022-08-18 15:59:35*
%MOMM*%
%LPD*%
G01*
G04 APERTURE LIST*
G04 Aperture macros list*
%AMRoundRect*
0 Rectangle with rounded corners*
0 $1 Rounding radius*
0 $2 $3 $4 $5 $6 $7 $8 $9 X,Y pos of 4 corners*
0 Add a 4 corners polygon primitive as box body*
4,1,4,$2,$3,$4,$5,$6,$7,$8,$9,$2,$3,0*
0 Add four circle primitives for the rounded corners*
1,1,$1+$1,$2,$3*
1,1,$1+$1,$4,$5*
1,1,$1+$1,$6,$7*
1,1,$1+$1,$8,$9*
0 Add four rect primitives between the rounded corners*
20,1,$1+$1,$2,$3,$4,$5,0*
20,1,$1+$1,$4,$5,$6,$7,0*
20,1,$1+$1,$6,$7,$8,$9,0*
20,1,$1+$1,$8,$9,$2,$3,0*%
G04 Aperture macros list end*
%TA.AperFunction,ComponentPad*%
%ADD10R,1.700000X1.700000*%
%TD*%
%TA.AperFunction,ComponentPad*%
%ADD11O,1.700000X1.700000*%
%TD*%
%TA.AperFunction,ComponentPad*%
%ADD12O,2.200000X3.500000*%
%TD*%
%TA.AperFunction,ComponentPad*%
%ADD13R,1.500000X2.500000*%
%TD*%
%TA.AperFunction,ComponentPad*%
%ADD14O,1.500000X2.500000*%
%TD*%
%TA.AperFunction,SMDPad,CuDef*%
%ADD15RoundRect,0.250000X-0.262500X-0.450000X0.262500X-0.450000X0.262500X0.450000X-0.262500X0.450000X0*%
%TD*%
%TA.AperFunction,ComponentPad*%
%ADD16C,1.440000*%
%TD*%
%TA.AperFunction,SMDPad,CuDef*%
%ADD17RoundRect,0.100000X0.712500X0.100000X-0.712500X0.100000X-0.712500X-0.100000X0.712500X-0.100000X0*%
%TD*%
%TA.AperFunction,SMDPad,CuDef*%
%ADD18RoundRect,0.150000X0.150000X-0.825000X0.150000X0.825000X-0.150000X0.825000X-0.150000X-0.825000X0*%
%TD*%
%TA.AperFunction,SMDPad,CuDef*%
%ADD19RoundRect,0.250000X0.250000X0.475000X-0.250000X0.475000X-0.250000X-0.475000X0.250000X-0.475000X0*%
%TD*%
%TA.AperFunction,SMDPad,CuDef*%
%ADD20RoundRect,0.250000X0.262500X0.450000X-0.262500X0.450000X-0.262500X-0.450000X0.262500X-0.450000X0*%
%TD*%
%TA.AperFunction,SMDPad,CuDef*%
%ADD21RoundRect,0.250000X-0.475000X0.250000X-0.475000X-0.250000X0.475000X-0.250000X0.475000X0.250000X0*%
%TD*%
%TA.AperFunction,SMDPad,CuDef*%
%ADD22RoundRect,0.250000X-0.450000X0.262500X-0.450000X-0.262500X0.450000X-0.262500X0.450000X0.262500X0*%
%TD*%
%TA.AperFunction,SMDPad,CuDef*%
%ADD23R,0.410000X0.330000*%
%TD*%
%TA.AperFunction,SMDPad,CuDef*%
%ADD24R,0.250000X0.500000*%
%TD*%
%TA.AperFunction,SMDPad,CuDef*%
%ADD25R,1.200000X0.600000*%
%TD*%
%TA.AperFunction,SMDPad,CuDef*%
%ADD26R,5.080000X1.500000*%
%TD*%
%TA.AperFunction,SMDPad,CuDef*%
%ADD27RoundRect,0.250000X-0.250000X-0.475000X0.250000X-0.475000X0.250000X0.475000X-0.250000X0.475000X0*%
%TD*%
%TA.AperFunction,SMDPad,CuDef*%
%ADD28RoundRect,0.250000X0.475000X-0.250000X0.475000X0.250000X-0.475000X0.250000X-0.475000X-0.250000X0*%
%TD*%
%TA.AperFunction,SMDPad,CuDef*%
%ADD29RoundRect,0.250000X0.450000X-0.262500X0.450000X0.262500X-0.450000X0.262500X-0.450000X-0.262500X0*%
%TD*%
%TA.AperFunction,ComponentPad*%
%ADD30R,1.050000X1.500000*%
%TD*%
%TA.AperFunction,ComponentPad*%
%ADD31O,1.050000X1.500000*%
%TD*%
%TA.AperFunction,SMDPad,CuDef*%
%ADD32RoundRect,0.218750X-0.218750X-0.381250X0.218750X-0.381250X0.218750X0.381250X-0.218750X0.381250X0*%
%TD*%
%TA.AperFunction,SMDPad,CuDef*%
%ADD33RoundRect,0.218750X0.381250X-0.218750X0.381250X0.218750X-0.381250X0.218750X-0.381250X-0.218750X0*%
%TD*%
%TA.AperFunction,SMDPad,CuDef*%
%ADD34R,0.500000X0.250000*%
%TD*%
%TA.AperFunction,SMDPad,CuDef*%
%ADD35R,0.600000X1.200000*%
%TD*%
%TA.AperFunction,SMDPad,CuDef*%
%ADD36R,0.762000X0.762000*%
%TD*%
%TA.AperFunction,SMDPad,CuDef*%
%ADD37R,1.520000X0.635000*%
%TD*%
%TA.AperFunction,SMDPad,CuDef*%
%ADD38R,2.286000X1.524000*%
%TD*%
%TA.AperFunction,SMDPad,CuDef*%
%ADD39R,1.524000X2.286000*%
%TD*%
%TA.AperFunction,ViaPad*%
%ADD40C,0.800000*%
%TD*%
%TA.AperFunction,Conductor*%
%ADD41C,0.250000*%
%TD*%
%TA.AperFunction,Conductor*%
%ADD42C,0.293000*%
%TD*%
G04 APERTURE END LIST*
D10*
%TO.P,J3,1,Pin_1*%
%TO.N,Earth*%
X64570000Y-58320000D03*
D11*
%TO.P,J3,2,Pin_2*%
%TO.N,unconnected-(J3-Pad2)*%
X62030000Y-58320000D03*
%TO.P,J3,3,Pin_3*%
%TO.N,Net-(R26-Pad2)*%
X59490000Y-58320000D03*
%TO.P,J3,4,Pin_4*%
%TO.N,+5V*%
X56950000Y-58320000D03*
%TO.P,J3,5,Pin_5*%
%TO.N,Net-(SW1-Pad3)*%
X54410000Y-58320000D03*
%TD*%
D12*
%TO.P,SW1,*%
%TO.N,*%
X65930000Y-25710000D03*
X74130000Y-25710000D03*
D13*
%TO.P,SW1,1,A*%
%TO.N,Earth*%
X72030000Y-25710000D03*
D14*
%TO.P,SW1,2,B*%
%TO.N,Net-(SW1-Pad2)*%
X70030000Y-25710000D03*
%TO.P,SW1,3,C*%
%TO.N,Net-(SW1-Pad3)*%
X68030000Y-25710000D03*
%TD*%
D15*
%TO.P,R16,1*%
%TO.N,Net-(C11-Pad2)*%
X52917500Y-28317500D03*
%TO.P,R16,2*%
%TO.N,Net-(R16-Pad2)*%
X54742500Y-28317500D03*
%TD*%
D16*
%TO.P,RV1,1,1*%
%TO.N,+5V*%
X47480000Y-29587500D03*
%TO.P,RV1,2,2*%
%TO.N,Net-(R8-Pad1)*%
X44940000Y-29587500D03*
%TO.P,RV1,3,3*%
%TO.N,Earth*%
X42400000Y-29587500D03*
%TD*%
D17*
%TO.P,U6,1,GND*%
%TO.N,Earth*%
X40862500Y-63565000D03*
%TO.P,U6,2,LO*%
%TO.N,Net-(U2-Pad4)*%
X40862500Y-62915000D03*
%TO.P,U6,3,GND*%
%TO.N,Earth*%
X40862500Y-62265000D03*
%TO.P,U6,4,NC*%
%TO.N,unconnected-(U6-Pad4)*%
X40862500Y-61615000D03*
%TO.P,U6,5,IF*%
%TO.N,Net-(C9-Pad1)*%
X36637500Y-61615000D03*
%TO.P,U6,6,GND*%
%TO.N,Earth*%
X36637500Y-62265000D03*
%TO.P,U6,7,RF*%
%TO.N,Net-(C8-Pad2)*%
X36637500Y-62915000D03*
%TO.P,U6,8,GND*%
%TO.N,Earth*%
X36637500Y-63565000D03*
%TD*%
D18*
%TO.P,U8,14*%
%TO.N,Net-(U8-Pad13)*%
X76570000Y-52392500D03*
%TO.P,U8,13,-*%
X77840000Y-52392500D03*
%TO.P,U8,12,+*%
%TO.N,Net-(R27-Pad2)*%
X79110000Y-52392500D03*
%TO.P,U8,11,V-*%
%TO.N,Earth*%
X80380000Y-52392500D03*
%TO.P,U8,10,+*%
%TO.N,Net-(C9-Pad2)*%
X81650000Y-52392500D03*
%TO.P,U8,9,-*%
%TO.N,Net-(R6-Pad2)*%
X82920000Y-52392500D03*
%TO.P,U8,8*%
%TO.N,Net-(R12-Pad1)*%
X84190000Y-52392500D03*
%TO.P,U8,7*%
%TO.N,Net-(C13-Pad1)*%
X84190000Y-57342500D03*
%TO.P,U8,6,-*%
%TO.N,Net-(R24-Pad2)*%
X82920000Y-57342500D03*
%TO.P,U8,5,+*%
%TO.N,Net-(C14-Pad1)*%
X81650000Y-57342500D03*
%TO.P,U8,4,V+*%
%TO.N,+5V*%
X80380000Y-57342500D03*
%TO.P,U8,3,+*%
%TO.N,Net-(C12-Pad1)*%
X79110000Y-57342500D03*
%TO.P,U8,2,-*%
%TO.N,Net-(R17-Pad2)*%
X77840000Y-57342500D03*
%TO.P,U8,1*%
%TO.N,Net-(C10-Pad1)*%
X76570000Y-57342500D03*
%TD*%
D15*
%TO.P,R9,1*%
%TO.N,Net-(R8-Pad1)*%
X44930000Y-34207500D03*
%TO.P,R9,2*%
%TO.N,Net-(R11-Pad2)*%
X46755000Y-34207500D03*
%TD*%
D19*
%TO.P,C4,1*%
%TO.N,Net-(C4-Pad1)*%
X93400000Y-24430000D03*
%TO.P,C4,2*%
%TO.N,Net-(C4-Pad2)*%
X91500000Y-24430000D03*
%TD*%
D20*
%TO.P,R26,2*%
%TO.N,Net-(R26-Pad2)*%
X66867500Y-64737500D03*
%TO.P,R26,1*%
%TO.N,Net-(C13-Pad1)*%
X68692500Y-64737500D03*
%TD*%
%TO.P,R29,1*%
%TO.N,+5V*%
X67442500Y-30857500D03*
%TO.P,R29,2*%
%TO.N,Net-(R29-Pad2)*%
X65617500Y-30857500D03*
%TD*%
D21*
%TO.P,C2,2*%
%TO.N,Net-(C2-Pad2)*%
X26686250Y-51050000D03*
%TO.P,C2,1*%
%TO.N,Net-(C2-Pad1)*%
X26686250Y-49150000D03*
%TD*%
D22*
%TO.P,R6,2*%
%TO.N,Net-(R6-Pad2)*%
X79110000Y-35970000D03*
%TO.P,R6,1*%
%TO.N,+5V*%
X79110000Y-34145000D03*
%TD*%
D19*
%TO.P,C9,2*%
%TO.N,Net-(C9-Pad2)*%
X87460000Y-54827500D03*
%TO.P,C9,1*%
%TO.N,Net-(C9-Pad1)*%
X89360000Y-54827500D03*
%TD*%
D22*
%TO.P,R14,2*%
%TO.N,Net-(C12-Pad1)*%
X90270000Y-46740000D03*
%TO.P,R14,1*%
%TO.N,Net-(C10-Pad2)*%
X90270000Y-44915000D03*
%TD*%
D23*
%TO.P,U2,1,Gnd*%
%TO.N,Earth*%
X46682500Y-67381250D03*
%TO.P,U2,2,RF_in*%
%TO.N,Net-(C7-Pad2)*%
X46022500Y-67381250D03*
%TO.P,U2,3,Gnd*%
%TO.N,Earth*%
X45362500Y-67381250D03*
%TO.P,U2,4,RF_out*%
%TO.N,Net-(U2-Pad4)*%
X45362500Y-66391250D03*
%TO.P,U2,5,Gnd*%
%TO.N,Earth*%
X46022500Y-66391250D03*
%TO.P,U2,6,RF_out*%
%TO.N,Net-(U2-Pad6)*%
X46682500Y-66391250D03*
%TD*%
D24*
%TO.P,U4,1,V_bias*%
%TO.N,Net-(R2-Pad2)*%
X88855000Y-25940000D03*
%TO.P,U4,2,RF_in*%
%TO.N,Net-(C4-Pad2)*%
X89355000Y-25940000D03*
%TO.P,U4,3,N.C.*%
%TO.N,unconnected-(U4-Pad3)*%
X89855000Y-25940000D03*
%TO.P,U4,4,I.C.*%
%TO.N,unconnected-(U4-Pad4)*%
X90355000Y-25940000D03*
%TO.P,U4,5,I.C.*%
%TO.N,unconnected-(U4-Pad5)*%
X90355000Y-27940000D03*
%TO.P,U4,6,SHDN*%
%TO.N,Earth*%
X89855000Y-27940000D03*
%TO.P,U4,7,RF_out*%
%TO.N,Net-(C8-Pad1)*%
X89355000Y-27940000D03*
%TO.P,U4,8,I.C.*%
%TO.N,unconnected-(U4-Pad8)*%
X88855000Y-27940000D03*
D25*
%TO.P,U4,9,Gnd*%
%TO.N,Earth*%
X89605000Y-26940000D03*
%TD*%
D22*
%TO.P,R13,2*%
%TO.N,+5V*%
X95190000Y-46760000D03*
%TO.P,R13,1*%
%TO.N,Net-(C10-Pad2)*%
X95190000Y-44935000D03*
%TD*%
D18*
%TO.P,U7,1*%
%TO.N,Net-(C11-Pad2)*%
X51290000Y-37335000D03*
%TO.P,U7,2,-*%
%TO.N,Net-(C11-Pad1)*%
X52560000Y-37335000D03*
%TO.P,U7,3,+*%
%TO.N,Net-(R11-Pad2)*%
X53830000Y-37335000D03*
%TO.P,U7,4,V+*%
%TO.N,+5V*%
X55100000Y-37335000D03*
%TO.P,U7,5,+*%
%TO.N,Net-(R15-Pad1)*%
X56370000Y-37335000D03*
%TO.P,U7,6,-*%
%TO.N,Net-(C11-Pad2)*%
X57640000Y-37335000D03*
%TO.P,U7,7*%
%TO.N,Net-(Q1-Pad2)*%
X58910000Y-37335000D03*
%TO.P,U7,8*%
%TO.N,Net-(SW1-Pad2)*%
X58910000Y-32385000D03*
%TO.P,U7,9,-*%
X57640000Y-32385000D03*
%TO.P,U7,10,+*%
%TO.N,Net-(R16-Pad2)*%
X56370000Y-32385000D03*
%TO.P,U7,11,V-*%
%TO.N,Earth*%
X55100000Y-32385000D03*
%TO.P,U7,12,+*%
%TO.N,Net-(R29-Pad2)*%
X53830000Y-32385000D03*
%TO.P,U7,13,-*%
%TO.N,Net-(U7-Pad13)*%
X52560000Y-32385000D03*
%TO.P,U7,14*%
X51290000Y-32385000D03*
%TD*%
D21*
%TO.P,C14,2*%
%TO.N,+5V*%
X80380000Y-62287500D03*
%TO.P,C14,1*%
%TO.N,Net-(C14-Pad1)*%
X80380000Y-60387500D03*
%TD*%
D26*
%TO.P,J2,2,Ext*%
%TO.N,Net-(AE2-Pad1)*%
X102000000Y-63250000D03*
X102000000Y-54750000D03*
%TO.P,J2,1,In*%
%TO.N,Net-(U2-Pad6)*%
X102000000Y-59000000D03*
%TD*%
%TO.P,J1,2,Ext*%
%TO.N,Net-(AE1-Pad1)*%
X102000000Y-34250000D03*
X102000000Y-25750000D03*
%TO.P,J1,1,In*%
%TO.N,Net-(C4-Pad1)*%
X102000000Y-30000000D03*
%TD*%
D15*
%TO.P,R2,1*%
%TO.N,+5V*%
X87017500Y-23290000D03*
%TO.P,R2,2*%
%TO.N,Net-(R2-Pad2)*%
X88842500Y-23290000D03*
%TD*%
%TO.P,R12,2*%
%TO.N,Net-(C10-Pad2)*%
X90272500Y-40247500D03*
%TO.P,R12,1*%
%TO.N,Net-(R12-Pad1)*%
X88447500Y-40247500D03*
%TD*%
D22*
%TO.P,R24,2*%
%TO.N,Net-(R24-Pad2)*%
X87470000Y-63662500D03*
%TO.P,R24,1*%
%TO.N,+5V*%
X87470000Y-61837500D03*
%TD*%
D15*
%TO.P,R4,2*%
%TO.N,Net-(C5-Pad2)*%
X31168750Y-57160000D03*
%TO.P,R4,1*%
%TO.N,+5V*%
X29343750Y-57160000D03*
%TD*%
D27*
%TO.P,C6,1*%
%TO.N,Earth*%
X80080000Y-28920000D03*
%TO.P,C6,2*%
%TO.N,Net-(C6-Pad2)*%
X81980000Y-28920000D03*
%TD*%
%TO.P,C12,2*%
%TO.N,+5V*%
X92170000Y-49507500D03*
%TO.P,C12,1*%
%TO.N,Net-(C12-Pad1)*%
X90270000Y-49507500D03*
%TD*%
D22*
%TO.P,R15,1*%
%TO.N,Net-(R15-Pad1)*%
X62720000Y-35217500D03*
%TO.P,R15,2*%
%TO.N,Net-(Q1-Pad2)*%
X62720000Y-37042500D03*
%TD*%
D15*
%TO.P,R30,2*%
%TO.N,Earth*%
X67442500Y-33397500D03*
%TO.P,R30,1*%
%TO.N,Net-(R29-Pad2)*%
X65617500Y-33397500D03*
%TD*%
D28*
%TO.P,C7,2*%
%TO.N,Net-(C7-Pad2)*%
X33726250Y-48870000D03*
%TO.P,C7,1*%
%TO.N,Net-(C7-Pad1)*%
X33726250Y-50770000D03*
%TD*%
D29*
%TO.P,R17,2*%
%TO.N,Net-(R17-Pad2)*%
X77840000Y-63085000D03*
%TO.P,R17,1*%
%TO.N,+5V*%
X77840000Y-64910000D03*
%TD*%
%TO.P,R20,2*%
%TO.N,Net-(C10-Pad1)*%
X74990000Y-61265000D03*
%TO.P,R20,1*%
%TO.N,Net-(R17-Pad2)*%
X74990000Y-63090000D03*
%TD*%
D15*
%TO.P,R22,2*%
%TO.N,+5V*%
X73782500Y-54487500D03*
%TO.P,R22,1*%
%TO.N,Net-(C13-Pad2)*%
X71957500Y-54487500D03*
%TD*%
D30*
%TO.P,Q1,1,S*%
%TO.N,Earth*%
X61450000Y-42480000D03*
D31*
%TO.P,Q1,2,G*%
%TO.N,Net-(Q1-Pad2)*%
X62720000Y-42480000D03*
%TO.P,Q1,3,D*%
%TO.N,Net-(Q1-Pad3)*%
X63990000Y-42480000D03*
%TD*%
D15*
%TO.P,R8,1*%
%TO.N,Net-(R8-Pad1)*%
X44927500Y-38917500D03*
%TO.P,R8,2*%
%TO.N,Net-(C11-Pad1)*%
X46752500Y-38917500D03*
%TD*%
D20*
%TO.P,R19,1*%
%TO.N,Net-(R16-Pad2)*%
X54742500Y-25777500D03*
%TO.P,R19,2*%
%TO.N,+5V*%
X52917500Y-25777500D03*
%TD*%
D29*
%TO.P,R7,2*%
%TO.N,Net-(C9-Pad2)*%
X87460000Y-58245000D03*
%TO.P,R7,1*%
%TO.N,+5V*%
X87460000Y-60070000D03*
%TD*%
D32*
%TO.P,L2,1,1*%
%TO.N,Net-(C6-Pad2)*%
X87217500Y-31610000D03*
%TO.P,L2,2,2*%
%TO.N,Net-(C8-Pad1)*%
X89342500Y-31610000D03*
%TD*%
D27*
%TO.P,C3,1*%
%TO.N,Earth*%
X81320000Y-23300000D03*
%TO.P,C3,2*%
%TO.N,+5V*%
X83220000Y-23300000D03*
%TD*%
D20*
%TO.P,R18,1*%
%TO.N,Net-(R16-Pad2)*%
X54742500Y-23237500D03*
%TO.P,R18,2*%
%TO.N,Earth*%
X52917500Y-23237500D03*
%TD*%
D22*
%TO.P,R10,1*%
%TO.N,Net-(Q1-Pad3)*%
X63990000Y-47917500D03*
%TO.P,R10,2*%
%TO.N,Net-(C11-Pad1)*%
X63990000Y-49742500D03*
%TD*%
D29*
%TO.P,R1,2*%
%TO.N,Net-(R1-Pad2)*%
X25586250Y-53557500D03*
%TO.P,R1,1*%
%TO.N,+5V*%
X25586250Y-55382500D03*
%TD*%
D33*
%TO.P,L1,2,2*%
%TO.N,Net-(C7-Pad1)*%
X33726250Y-53047500D03*
%TO.P,L1,1,1*%
%TO.N,Net-(C5-Pad2)*%
X33726250Y-55172500D03*
%TD*%
D16*
%TO.P,RV2,3,3*%
%TO.N,Net-(R12-Pad1)*%
X84190000Y-40247500D03*
%TO.P,RV2,2,2*%
X81650000Y-40247500D03*
%TO.P,RV2,1,1*%
%TO.N,Net-(R6-Pad2)*%
X79110000Y-40247500D03*
%TD*%
D22*
%TO.P,R25,2*%
%TO.N,Net-(C13-Pad1)*%
X82920000Y-62250000D03*
%TO.P,R25,1*%
%TO.N,Net-(R24-Pad2)*%
X82920000Y-60425000D03*
%TD*%
%TO.P,R27,2*%
%TO.N,Net-(R27-Pad2)*%
X79110000Y-49460000D03*
%TO.P,R27,1*%
%TO.N,+5V*%
X79110000Y-47635000D03*
%TD*%
D28*
%TO.P,C10,2*%
%TO.N,Net-(C10-Pad2)*%
X86480000Y-44917500D03*
%TO.P,C10,1*%
%TO.N,Net-(C10-Pad1)*%
X86480000Y-46817500D03*
%TD*%
D34*
%TO.P,U3,1,V_bias*%
%TO.N,Net-(R1-Pad2)*%
X28196250Y-53555000D03*
%TO.P,U3,2,RF_in*%
%TO.N,Net-(C2-Pad2)*%
X28196250Y-53055000D03*
%TO.P,U3,3,N.C.*%
%TO.N,unconnected-(U3-Pad3)*%
X28196250Y-52555000D03*
%TO.P,U3,4,I.C.*%
%TO.N,unconnected-(U3-Pad4)*%
X28196250Y-52055000D03*
%TO.P,U3,5,I.C.*%
%TO.N,unconnected-(U3-Pad5)*%
X30196250Y-52055000D03*
%TO.P,U3,6,SHDN*%
%TO.N,Earth*%
X30196250Y-52555000D03*
%TO.P,U3,7,RF_out*%
%TO.N,Net-(C7-Pad1)*%
X30196250Y-53055000D03*
%TO.P,U3,8,I.C.*%
%TO.N,unconnected-(U3-Pad8)*%
X30196250Y-53555000D03*
D35*
%TO.P,U3,9,Gnd*%
%TO.N,Earth*%
X29196250Y-52805000D03*
%TD*%
D15*
%TO.P,R23,2*%
%TO.N,Net-(C14-Pad1)*%
X73802500Y-50797500D03*
%TO.P,R23,1*%
%TO.N,Net-(C13-Pad2)*%
X71977500Y-50797500D03*
%TD*%
D27*
%TO.P,C8,1*%
%TO.N,Net-(C8-Pad1)*%
X91720000Y-31480000D03*
%TO.P,C8,2*%
%TO.N,Net-(C8-Pad2)*%
X93620000Y-31480000D03*
%TD*%
D36*
%TO.P,U1,1,RF_in*%
%TO.N,Net-(U1-Pad1)*%
X31770000Y-41695000D03*
D37*
%TO.P,U1,2,Gnd*%
%TO.N,Earth*%
X31770000Y-42745000D03*
D36*
%TO.P,U1,3,RF_out*%
%TO.N,Net-(C2-Pad1)*%
X31770000Y-43805000D03*
%TD*%
D28*
%TO.P,C5,2*%
%TO.N,Net-(C5-Pad2)*%
X31156250Y-60360000D03*
%TO.P,C5,1*%
%TO.N,Earth*%
X31156250Y-62260000D03*
%TD*%
D27*
%TO.P,C11,1*%
%TO.N,Net-(C11-Pad1)*%
X54150000Y-46290000D03*
%TO.P,C11,2*%
%TO.N,Net-(C11-Pad2)*%
X56050000Y-46290000D03*
%TD*%
D28*
%TO.P,C13,2*%
%TO.N,Net-(C13-Pad2)*%
X71950000Y-62837500D03*
%TO.P,C13,1*%
%TO.N,Net-(C13-Pad1)*%
X71950000Y-64737500D03*
%TD*%
%TO.P,C1,2*%
%TO.N,+5V*%
X25586250Y-59120000D03*
%TO.P,C1,1*%
%TO.N,Earth*%
X25586250Y-61020000D03*
%TD*%
D22*
%TO.P,R5,1*%
%TO.N,+5V*%
X85220000Y-27067500D03*
%TO.P,R5,2*%
%TO.N,Net-(C6-Pad2)*%
X85220000Y-28892500D03*
%TD*%
D15*
%TO.P,R3,1*%
%TO.N,Net-(U2-Pad4)*%
X45110000Y-62901250D03*
%TO.P,R3,2*%
%TO.N,Net-(U2-Pad6)*%
X46935000Y-62901250D03*
%TD*%
D20*
%TO.P,R21,2*%
%TO.N,Net-(C13-Pad2)*%
X71967500Y-57337500D03*
%TO.P,R21,1*%
%TO.N,Net-(C10-Pad1)*%
X73792500Y-57337500D03*
%TD*%
D29*
%TO.P,R28,2*%
%TO.N,Earth*%
X76550000Y-47645000D03*
%TO.P,R28,1*%
%TO.N,Net-(R27-Pad2)*%
X76550000Y-49470000D03*
%TD*%
D38*
%TO.P,U5,16,Gnd*%
%TO.N,Earth*%
X24650000Y-27570000D03*
%TO.P,U5,15,Gnd*%
X24650000Y-30110000D03*
%TO.P,U5,14,Vcc*%
%TO.N,+5V*%
X24650000Y-32650000D03*
%TO.P,U5,13,Gnd*%
%TO.N,Earth*%
X24650000Y-35190000D03*
D39*
%TO.P,U5,12,Gnd*%
X26680000Y-37350000D03*
%TO.P,U5,11,Gnd*%
X29220000Y-37350000D03*
%TO.P,U5,10,RF_Out*%
%TO.N,Net-(U1-Pad1)*%
X31760000Y-37350000D03*
%TO.P,U5,9,Gnd*%
%TO.N,Earth*%
X34300000Y-37350000D03*
D38*
%TO.P,U5,7,Gnd*%
X37350000Y-32400000D03*
%TO.P,U5,6,Gnd*%
X37350000Y-29860000D03*
%TO.P,U5,5,Gnd*%
X37350000Y-34940000D03*
X37350000Y-27320000D03*
D39*
%TO.P,U5,4,Gnd*%
X35180000Y-24650000D03*
%TO.P,U5,3,Gnd*%
X32640000Y-24650000D03*
%TO.P,U5,2,Vt*%
%TO.N,Net-(SW1-Pad3)*%
X30100000Y-24650000D03*
%TO.P,U5,1,Gnd*%
%TO.N,Earth*%
X27560000Y-24650000D03*
%TD*%
D29*
%TO.P,R11,1*%
%TO.N,Earth*%
X55100000Y-42122500D03*
%TO.P,R11,2*%
%TO.N,Net-(R11-Pad2)*%
X55100000Y-40297500D03*
%TD*%
D40*
%TO.N,Earth*%
X40860000Y-64920000D03*
X64560000Y-55970000D03*
%TO.N,+5V*%
X56950000Y-56020000D03*
X85260000Y-23330000D03*
X81240000Y-34140000D03*
X68920000Y-30860000D03*
X55100000Y-39060000D03*
X51210000Y-25780000D03*
X22400000Y-32650000D03*
X25590000Y-57150000D03*
X80380000Y-54480000D03*
X79840000Y-64330000D03*
X85620000Y-60970000D03*
X95190000Y-49500000D03*
X77420000Y-44710000D03*
%TO.N,Earth*%
X80380000Y-50670000D03*
X46020000Y-65380000D03*
X22490000Y-30110000D03*
X22540000Y-37350000D03*
X39210000Y-37350000D03*
X78510000Y-28920000D03*
X76540000Y-46220000D03*
X25610000Y-62280000D03*
X55100000Y-43750000D03*
X69070000Y-33397500D03*
X61450000Y-45020000D03*
X51210000Y-23241250D03*
X29196250Y-51200000D03*
X91240000Y-26940000D03*
X55100000Y-30857500D03*
%TO.N,Net-(C10-Pad1)*%
X76570000Y-55847500D03*
X85530000Y-52687500D03*
%TO.N,Net-(C11-Pad2)*%
X52917500Y-30208750D03*
X51290000Y-35631250D03*
%TO.N,Net-(C12-Pad1)*%
X79110000Y-55837500D03*
X83710000Y-54097500D03*
%TO.N,Net-(C14-Pad1)*%
X75180000Y-51397500D03*
X81650000Y-55597500D03*
%TO.N,Net-(R24-Pad2)*%
X85950000Y-63677500D03*
X81680000Y-63667500D03*
%TD*%
D41*
%TO.N,Earth*%
X36575000Y-42745000D02*
X39210000Y-40110000D01*
X31770000Y-42745000D02*
X36575000Y-42745000D01*
X39210000Y-40110000D02*
X39210000Y-37350000D01*
X40862500Y-63565000D02*
X40862500Y-64917500D01*
X40862500Y-64917500D02*
X40860000Y-64920000D01*
X38785000Y-62265000D02*
X40862500Y-62265000D01*
X36637500Y-62265000D02*
X38785000Y-62265000D01*
X36637500Y-63565000D02*
X38785000Y-63565000D01*
X38785000Y-63565000D02*
X40862500Y-63565000D01*
X38785000Y-62265000D02*
X38785000Y-63565000D01*
X64560000Y-55970000D02*
X64560000Y-58310000D01*
X64560000Y-58310000D02*
X64570000Y-58320000D01*
%TO.N,+5V*%
X56950000Y-56020000D02*
X56950000Y-58320000D01*
%TO.N,Net-(R26-Pad2)*%
X59490000Y-58320000D02*
X65907500Y-64737500D01*
X65907500Y-64737500D02*
X66867500Y-64737500D01*
%TO.N,+5V*%
X81240000Y-34140000D02*
X79115000Y-34140000D01*
X79115000Y-34140000D02*
X79110000Y-34145000D01*
X68920000Y-30860000D02*
X67445000Y-30860000D01*
X67445000Y-30860000D02*
X67442500Y-30857500D01*
X55100000Y-39060000D02*
X55100000Y-37335000D01*
X51210000Y-25780000D02*
X52915000Y-25780000D01*
X52915000Y-25780000D02*
X52917500Y-25777500D01*
X22400000Y-32650000D02*
X24650000Y-32650000D01*
X80380000Y-57342500D02*
X80380000Y-54480000D01*
X80380000Y-54480000D02*
X73790000Y-54480000D01*
X73790000Y-54480000D02*
X73782500Y-54487500D01*
X87460000Y-60070000D02*
X87460000Y-60960000D01*
X87460000Y-60960000D02*
X87470000Y-60970000D01*
X85620000Y-60970000D02*
X87470000Y-60970000D01*
X87470000Y-60970000D02*
X87470000Y-61837500D01*
X95190000Y-49500000D02*
X95190000Y-46760000D01*
X95190000Y-49500000D02*
X92177500Y-49500000D01*
X92177500Y-49500000D02*
X92170000Y-49507500D01*
X77420000Y-44710000D02*
X79110000Y-46400000D01*
X79110000Y-46400000D02*
X79110000Y-47635000D01*
%TO.N,Earth*%
X80380000Y-50670000D02*
X80380000Y-52392500D01*
X46597500Y-66881250D02*
X45947500Y-66881250D01*
X45362500Y-67381250D02*
X45362500Y-66966250D01*
X45362500Y-66966250D02*
X45447500Y-66881250D01*
X45447500Y-66881250D02*
X45947500Y-66881250D01*
X45947500Y-66881250D02*
X46022500Y-66806250D01*
X46022500Y-66806250D02*
X46022500Y-66391250D01*
X46682500Y-67381250D02*
X46682500Y-66966250D01*
X46682500Y-66966250D02*
X46597500Y-66881250D01*
X46022500Y-66612500D02*
X46022500Y-66391250D01*
X46020000Y-65380000D02*
X46020000Y-66388750D01*
X46020000Y-66388750D02*
X46022500Y-66391250D01*
X22490000Y-30110000D02*
X24650000Y-30110000D01*
X22540000Y-37350000D02*
X24650000Y-37350000D01*
X39210000Y-37350000D02*
X37350000Y-37350000D01*
D42*
X81320000Y-23300000D02*
X79440000Y-23300000D01*
X79440000Y-23300000D02*
X78510000Y-24230000D01*
X78510000Y-24230000D02*
X78510000Y-28920000D01*
X78510000Y-28920000D02*
X80080000Y-28920000D01*
D41*
X76540000Y-46220000D02*
X76540000Y-47635000D01*
X76540000Y-47635000D02*
X76550000Y-47645000D01*
X37350000Y-34940000D02*
X37350000Y-37350000D01*
X37350000Y-37350000D02*
X34300000Y-37350000D01*
X37350000Y-32400000D02*
X37350000Y-34940000D01*
X37350000Y-29860000D02*
X37350000Y-32400000D01*
X37350000Y-27320000D02*
X37350000Y-29860000D01*
X35180000Y-24650000D02*
X37350000Y-24650000D01*
X37350000Y-24650000D02*
X37350000Y-27320000D01*
X32640000Y-24650000D02*
X35180000Y-24650000D01*
X24650000Y-27570000D02*
X24650000Y-24650000D01*
X24650000Y-24650000D02*
X27560000Y-24650000D01*
X24650000Y-30110000D02*
X24650000Y-27570000D01*
X26680000Y-37350000D02*
X24650000Y-37350000D01*
X24650000Y-37350000D02*
X24650000Y-35190000D01*
X29220000Y-37350000D02*
X26680000Y-37350000D01*
D42*
X31156250Y-62260000D02*
X25630000Y-62260000D01*
D41*
X25630000Y-62260000D02*
X25610000Y-62280000D01*
D42*
X25586250Y-61020000D02*
X25586250Y-62436250D01*
D41*
X25586250Y-62436250D02*
X25590000Y-62440000D01*
D42*
%TO.N,Net-(U2-Pad6)*%
X93200000Y-67880000D02*
X51913750Y-67880000D01*
X102000000Y-59000000D02*
X97130000Y-59000000D01*
X97130000Y-59000000D02*
X95000000Y-61130000D01*
X95000000Y-61130000D02*
X95000000Y-66080000D01*
X95000000Y-66080000D02*
X93200000Y-67880000D01*
%TO.N,Net-(C7-Pad2)*%
X46022500Y-67381250D02*
X46022500Y-67796250D01*
X46022500Y-67796250D02*
X45838750Y-67980000D01*
X34380000Y-56400000D02*
X35730000Y-55050000D01*
X45838750Y-67980000D02*
X37490000Y-67980000D01*
X37490000Y-67980000D02*
X34380000Y-64870000D01*
X34380000Y-64870000D02*
X34380000Y-56400000D01*
X35730000Y-55050000D02*
X35730000Y-49470000D01*
X35730000Y-49470000D02*
X35130000Y-48870000D01*
X35130000Y-48870000D02*
X33726250Y-48870000D01*
%TO.N,Net-(C8-Pad2)*%
X35230000Y-56730000D02*
X40940000Y-51020000D01*
X35873959Y-62915000D02*
X35230000Y-62271041D01*
X35230000Y-62271041D02*
X35230000Y-56730000D01*
%TO.N,Net-(C4-Pad1)*%
X96400000Y-25890000D02*
X96400000Y-28610000D01*
X93400000Y-24430000D02*
X94940000Y-24430000D01*
X94940000Y-24430000D02*
X96400000Y-25890000D01*
X96400000Y-28610000D02*
X97790000Y-30000000D01*
X97790000Y-30000000D02*
X102000000Y-30000000D01*
%TO.N,Net-(C9-Pad1)*%
X36637500Y-61615000D02*
X37162500Y-61090000D01*
X37162500Y-61090000D02*
X58920000Y-61090000D01*
X58920000Y-61090000D02*
X65080000Y-67250000D01*
X65080000Y-67250000D02*
X87860000Y-67250000D01*
X87860000Y-67250000D02*
X89370000Y-65740000D01*
X89370000Y-65740000D02*
X89370000Y-54837500D01*
D41*
X89370000Y-54837500D02*
X89360000Y-54827500D01*
D42*
%TO.N,Net-(C8-Pad2)*%
X67990000Y-51020000D02*
X69940000Y-49070000D01*
X69940000Y-49070000D02*
X69940000Y-39150000D01*
X40940000Y-51020000D02*
X67990000Y-51020000D01*
X69940000Y-39150000D02*
X76130000Y-32960000D01*
X76130000Y-32960000D02*
X92140000Y-32960000D01*
X92140000Y-32960000D02*
X93620000Y-31480000D01*
%TO.N,Net-(U2-Pad6)*%
X51913750Y-67880000D02*
X46935000Y-62901250D01*
%TO.N,Net-(U2-Pad4)*%
X40862500Y-62915000D02*
X44875000Y-62915000D01*
D41*
X44875000Y-62915000D02*
X44880000Y-62920000D01*
D42*
%TO.N,Net-(C2-Pad1)*%
X31770000Y-43805000D02*
X27945000Y-43805000D01*
X27945000Y-43805000D02*
X26686250Y-45063750D01*
X26686250Y-45063750D02*
X26686250Y-49150000D01*
D41*
%TO.N,Net-(SW1-Pad3)*%
X67100000Y-21000000D02*
X68030000Y-21930000D01*
X30970000Y-21000000D02*
X67100000Y-21000000D01*
X30100000Y-24650000D02*
X30100000Y-21870000D01*
X68030000Y-21930000D02*
X68030000Y-25710000D01*
X30100000Y-21870000D02*
X30970000Y-21000000D01*
D42*
%TO.N,Net-(U1-Pad1)*%
X31760000Y-37350000D02*
X31760000Y-41685000D01*
D41*
X31760000Y-41685000D02*
X31770000Y-41695000D01*
%TO.N,Net-(C7-Pad2)*%
X33726250Y-48870000D02*
X33728750Y-48867500D01*
D42*
%TO.N,Net-(U2-Pad6)*%
X46935000Y-64768750D02*
X46682500Y-65021250D01*
X46935000Y-62901250D02*
X46935000Y-64768750D01*
X46682500Y-65021250D02*
X46682500Y-66391250D01*
%TO.N,Net-(U2-Pad4)*%
X45110000Y-64778750D02*
X45362500Y-65031250D01*
X45110000Y-62901250D02*
X45110000Y-64778750D01*
X45362500Y-65031250D02*
X45362500Y-66391250D01*
D41*
%TO.N,Earth*%
X51210000Y-23241250D02*
X52913750Y-23241250D01*
X55100000Y-32385000D02*
X55100000Y-30857500D01*
X89610000Y-26940000D02*
X91215000Y-26940000D01*
X29196250Y-52805000D02*
X29196250Y-51200000D01*
X29446250Y-52555000D02*
X29196250Y-52805000D01*
X89860000Y-27940000D02*
X89860000Y-27190000D01*
X52913750Y-23241250D02*
X52917500Y-23237500D01*
X61450000Y-42480000D02*
X61450000Y-45020000D01*
X30196250Y-52555000D02*
X29446250Y-52555000D01*
X55100000Y-43750000D02*
X55100000Y-42122500D01*
X67442500Y-33397500D02*
X69070000Y-33397500D01*
%TO.N,+5V*%
X80380000Y-63807500D02*
X79277500Y-64910000D01*
D42*
X29343750Y-57160000D02*
X25596250Y-57160000D01*
X85255000Y-27087500D02*
X85255000Y-23340000D01*
X83295000Y-23330000D02*
X85245000Y-23330000D01*
D41*
X25596250Y-57160000D02*
X25586250Y-57170000D01*
D42*
X85245000Y-23330000D02*
X87032500Y-23330000D01*
X25586250Y-59120000D02*
X25586250Y-57170000D01*
D41*
X79277500Y-64910000D02*
X77840000Y-64910000D01*
D42*
X25586250Y-57170000D02*
X25586250Y-55382500D01*
D41*
X80380000Y-62287500D02*
X80380000Y-63807500D01*
D42*
%TO.N,Net-(C2-Pad2)*%
X27671250Y-53055000D02*
X26686250Y-52070000D01*
X28196250Y-53055000D02*
X27671250Y-53055000D01*
X26686250Y-52070000D02*
X26686250Y-51050000D01*
%TO.N,Net-(C4-Pad2)*%
X89360000Y-25940000D02*
X89360000Y-25415000D01*
X89360000Y-25415000D02*
X90345000Y-24430000D01*
X90345000Y-24430000D02*
X91365000Y-24430000D01*
%TO.N,Net-(C5-Pad2)*%
X33726250Y-56260000D02*
X32826250Y-57160000D01*
X31156250Y-60360000D02*
X31156250Y-57172500D01*
X33726250Y-55172500D02*
X33726250Y-56260000D01*
X32826250Y-57160000D02*
X31168750Y-57160000D01*
D41*
X31156250Y-57172500D02*
X31168750Y-57160000D01*
D42*
%TO.N,Net-(C6-Pad2)*%
X86155000Y-31470000D02*
X85255000Y-30570000D01*
X87242500Y-31470000D02*
X86155000Y-31470000D01*
X82055000Y-28900000D02*
X85242500Y-28900000D01*
X85255000Y-30570000D02*
X85255000Y-28912500D01*
%TO.N,Net-(C7-Pad1)*%
X33726250Y-53047500D02*
X33726250Y-50770000D01*
D41*
X33726250Y-53047500D02*
X33718750Y-53055000D01*
D42*
X33718750Y-53055000D02*
X30196250Y-53055000D01*
%TO.N,Net-(C8-Pad1)*%
X89360000Y-31462500D02*
X89360000Y-27940000D01*
X89367500Y-31470000D02*
X91645000Y-31470000D01*
D41*
%TO.N,Net-(C9-Pad2)*%
X81650000Y-53567500D02*
X81650000Y-52392500D01*
X87460000Y-54827500D02*
X87460000Y-58245000D01*
X87460000Y-54827500D02*
X82910000Y-54827500D01*
X82910000Y-54827500D02*
X81650000Y-53567500D01*
%TO.N,Net-(C10-Pad1)*%
X76570000Y-55847500D02*
X76570000Y-57342500D01*
X73792500Y-57337500D02*
X76565000Y-57337500D01*
X76570000Y-59685000D02*
X76570000Y-57342500D01*
X86480000Y-51767500D02*
X85550000Y-52697500D01*
X76565000Y-57337500D02*
X76570000Y-57342500D01*
X86480000Y-46817500D02*
X86480000Y-51767500D01*
X74990000Y-61265000D02*
X76570000Y-59685000D01*
%TO.N,Net-(C10-Pad2)*%
X86480000Y-44917500D02*
X90267500Y-44917500D01*
X95170000Y-44915000D02*
X95190000Y-44935000D01*
X90270000Y-44915000D02*
X90270000Y-40250000D01*
X90267500Y-44917500D02*
X90270000Y-44915000D01*
X90270000Y-40250000D02*
X90272500Y-40247500D01*
X90270000Y-44915000D02*
X95170000Y-44915000D01*
%TO.N,Net-(C11-Pad1)*%
X52560000Y-35783249D02*
X51636751Y-34860000D01*
X51636751Y-34860000D02*
X50943249Y-34860000D01*
X52560000Y-37335000D02*
X52560000Y-44700000D01*
X46752500Y-37585000D02*
X47460000Y-36877500D01*
X50020000Y-36887500D02*
X50020000Y-35783249D01*
X50020000Y-47560000D02*
X50020000Y-36887500D01*
X47460000Y-36877500D02*
X50010000Y-36877500D01*
X50010000Y-36877500D02*
X50020000Y-36887500D01*
X52560000Y-44700000D02*
X54150000Y-46290000D01*
X52560000Y-37335000D02*
X52560000Y-35783249D01*
X46752500Y-38917500D02*
X46752500Y-37585000D01*
X50943249Y-34860000D02*
X50020000Y-35783249D01*
X52202500Y-49742500D02*
X63990000Y-49742500D01*
X50020000Y-47560000D02*
X52202500Y-49742500D01*
%TO.N,Net-(C11-Pad2)*%
X56370000Y-48830000D02*
X57640000Y-47560000D01*
X51290000Y-37335000D02*
X51290000Y-47560000D01*
X57640000Y-37335000D02*
X57640000Y-44700000D01*
X51290000Y-47560000D02*
X52560000Y-48830000D01*
X52917500Y-28317500D02*
X52917500Y-30208750D01*
X57640000Y-44700000D02*
X56050000Y-46290000D01*
X57640000Y-47560000D02*
X57640000Y-44700000D01*
X51290000Y-35631250D02*
X51290000Y-37335000D01*
X52917500Y-30208750D02*
X52920000Y-30211250D01*
X52560000Y-48830000D02*
X56370000Y-48830000D01*
%TO.N,Net-(C12-Pad1)*%
X90270000Y-49507500D02*
X85680000Y-54097500D01*
X85680000Y-54097500D02*
X83710000Y-54097500D01*
X90270000Y-46740000D02*
X90270000Y-49507500D01*
X79110000Y-55837500D02*
X79110000Y-57342500D01*
%TO.N,Net-(C13-Pad1)*%
X71950000Y-64737500D02*
X73890000Y-66677500D01*
X84190000Y-64317500D02*
X84190000Y-62237500D01*
X68692500Y-64737500D02*
X71950000Y-64737500D01*
X84190000Y-62237500D02*
X84190000Y-57342500D01*
X82920000Y-62250000D02*
X84177500Y-62250000D01*
X73890000Y-66677500D02*
X81830000Y-66677500D01*
X84177500Y-62250000D02*
X84190000Y-62237500D01*
X81830000Y-66677500D02*
X84190000Y-64317500D01*
%TO.N,Net-(C13-Pad2)*%
X71967500Y-54497500D02*
X71957500Y-54487500D01*
X71950000Y-57355000D02*
X71967500Y-57337500D01*
X71967500Y-57337500D02*
X71967500Y-54497500D01*
X71950000Y-62837500D02*
X71950000Y-57355000D01*
X71957500Y-50817500D02*
X71977500Y-50797500D01*
X71957500Y-54487500D02*
X71957500Y-50817500D01*
%TO.N,Net-(C14-Pad1)*%
X73802500Y-50797500D02*
X74580000Y-50797500D01*
X81650000Y-55597500D02*
X81650000Y-57342500D01*
X80380000Y-60387500D02*
X81650000Y-59117500D01*
X74580000Y-50797500D02*
X75180000Y-51397500D01*
X81650000Y-59117500D02*
X81650000Y-57342500D01*
%TO.N,Net-(Q1-Pad2)*%
X62720000Y-42480000D02*
X62720000Y-37042500D01*
X59202500Y-37042500D02*
X58910000Y-37335000D01*
X62720000Y-37042500D02*
X59202500Y-37042500D01*
%TO.N,Net-(Q1-Pad3)*%
X63990000Y-47917500D02*
X63990000Y-42480000D01*
%TO.N,Net-(R1-Pad2)*%
X25588750Y-53555000D02*
X25586250Y-53557500D01*
X28196250Y-53555000D02*
X25588750Y-53555000D01*
D42*
%TO.N,Net-(R2-Pad2)*%
X88860000Y-25940000D02*
X88860000Y-23332500D01*
D41*
%TO.N,Net-(R6-Pad2)*%
X82920000Y-48367500D02*
X82920000Y-52392500D01*
X79110000Y-40247500D02*
X79110000Y-35970000D01*
X79110000Y-40247500D02*
X79110000Y-44557500D01*
X79110000Y-44557500D02*
X82920000Y-48367500D01*
%TO.N,Net-(R8-Pad1)*%
X44930000Y-38915000D02*
X44927500Y-38917500D01*
X44940000Y-34197500D02*
X44940000Y-29790000D01*
X44930000Y-34207500D02*
X44930000Y-38915000D01*
X44930000Y-34207500D02*
X44940000Y-34197500D01*
%TO.N,Net-(R11-Pad2)*%
X53830000Y-39027500D02*
X53830000Y-37335000D01*
X46755000Y-34207500D02*
X52100000Y-34207500D01*
X55100000Y-40297500D02*
X53830000Y-39027500D01*
X53830000Y-35937500D02*
X53830000Y-37335000D01*
X52100000Y-34207500D02*
X53830000Y-35937500D01*
%TO.N,Net-(R12-Pad1)*%
X88447500Y-40247500D02*
X84190000Y-40247500D01*
X81650000Y-40247500D02*
X84190000Y-40247500D01*
X84190000Y-40247500D02*
X84190000Y-52392500D01*
%TO.N,Net-(R15-Pad1)*%
X56370000Y-36487500D02*
X56370000Y-37335000D01*
X62720000Y-35217500D02*
X57640000Y-35217500D01*
X57640000Y-35217500D02*
X56370000Y-36487500D01*
%TO.N,Net-(R16-Pad2)*%
X54742500Y-28317500D02*
X54742500Y-25777500D01*
X54742500Y-28317500D02*
X55100000Y-28317500D01*
X54742500Y-25777500D02*
X54742500Y-23237500D01*
X54742500Y-25777500D02*
X56370000Y-25777500D01*
X56370000Y-32385000D02*
X56370000Y-25777500D01*
%TO.N,Net-(R17-Pad2)*%
X77840000Y-63085000D02*
X77840000Y-57342500D01*
X74980000Y-63105000D02*
X75000000Y-63085000D01*
X75000000Y-63085000D02*
X77840000Y-63085000D01*
%TO.N,Net-(R24-Pad2)*%
X81680000Y-60427500D02*
X81680000Y-63667500D01*
X82920000Y-60425000D02*
X82920000Y-59077500D01*
X82920000Y-59077500D02*
X82920000Y-57342500D01*
X82920000Y-60425000D02*
X81682500Y-60425000D01*
X85950000Y-63677500D02*
X87447500Y-63677500D01*
X87447500Y-63677500D02*
X87450000Y-63675000D01*
X81682500Y-60425000D02*
X81680000Y-60427500D01*
%TO.N,Net-(SW1-Pad2)*%
X58910000Y-30767500D02*
X58910000Y-32385000D01*
X70030000Y-25710000D02*
X70030000Y-28097500D01*
X58910000Y-32385000D02*
X57640000Y-32385000D01*
X70030000Y-28097500D02*
X68690000Y-29437500D01*
X60240000Y-29437500D02*
X58910000Y-30767500D01*
X68690000Y-29437500D02*
X60240000Y-29437500D01*
%TO.N,Net-(R27-Pad2)*%
X79100000Y-49470000D02*
X79110000Y-49460000D01*
X76550000Y-49470000D02*
X79100000Y-49470000D01*
X79110000Y-49460000D02*
X79110000Y-52392500D01*
%TO.N,Net-(R29-Pad2)*%
X55448249Y-34380000D02*
X64635000Y-34380000D01*
X65617500Y-33397500D02*
X65617500Y-30857500D01*
X53830000Y-32761751D02*
X55448249Y-34380000D01*
X64635000Y-34380000D02*
X65617500Y-33397500D01*
X53830000Y-32761751D02*
X53830000Y-32385000D01*
%TO.N,Net-(U7-Pad13)*%
X51290000Y-32385000D02*
X52560000Y-32385000D01*
%TO.N,Net-(U8-Pad13)*%
X77840000Y-52392500D02*
X76570000Y-52392500D01*
%TD*%
M02*
