%TF.GenerationSoftware,KiCad,Pcbnew,(6.0.9)*%
%TF.CreationDate,2022-11-20T11:02:21-05:00*%
%TF.ProjectId,RadarProject,52616461-7250-4726-9f6a-6563742e6b69,rev?*%
%TF.SameCoordinates,Original*%
%TF.FileFunction,Soldermask,Top*%
%TF.FilePolarity,Negative*%
%FSLAX46Y46*%
G04 Gerber Fmt 4.6, Leading zero omitted, Abs format (unit mm)*
G04 Created by KiCad (PCBNEW (6.0.9)) date 2022-11-20 11:02:21*
%MOMM*%
%LPD*%
G01*
G04 APERTURE LIST*
G04 Aperture macros list*
%AMRoundRect*
0 Rectangle with rounded corners*
0 $1 Rounding radius*
0 $2 $3 $4 $5 $6 $7 $8 $9 X,Y pos of 4 corners*
0 Add a 4 corners polygon primitive as box body*
4,1,4,$2,$3,$4,$5,$6,$7,$8,$9,$2,$3,0*
0 Add four circle primitives for the rounded corners*
1,1,$1+$1,$2,$3*
1,1,$1+$1,$4,$5*
1,1,$1+$1,$6,$7*
1,1,$1+$1,$8,$9*
0 Add four rect primitives between the rounded corners*
20,1,$1+$1,$2,$3,$4,$5,0*
20,1,$1+$1,$4,$5,$6,$7,0*
20,1,$1+$1,$6,$7,$8,$9,0*
20,1,$1+$1,$8,$9,$2,$3,0*%
G04 Aperture macros list end*
%ADD10R,0.410000X0.665000*%
%ADD11R,0.410000X0.675000*%
%ADD12R,0.250000X0.750000*%
%ADD13R,1.200000X0.600000*%
%ADD14RoundRect,0.250000X-0.250000X-0.475000X0.250000X-0.475000X0.250000X0.475000X-0.250000X0.475000X0*%
%ADD15RoundRect,0.100000X0.712500X0.100000X-0.712500X0.100000X-0.712500X-0.100000X0.712500X-0.100000X0*%
%ADD16RoundRect,0.150000X0.150000X-0.825000X0.150000X0.825000X-0.150000X0.825000X-0.150000X-0.825000X0*%
%ADD17RoundRect,0.250000X-0.262500X-0.450000X0.262500X-0.450000X0.262500X0.450000X-0.262500X0.450000X0*%
%ADD18C,2.700000*%
%ADD19RoundRect,0.250000X-0.450000X0.262500X-0.450000X-0.262500X0.450000X-0.262500X0.450000X0.262500X0*%
%ADD20RoundRect,0.250000X-0.475000X0.250000X-0.475000X-0.250000X0.475000X-0.250000X0.475000X0.250000X0*%
%ADD21RoundRect,0.250000X0.262500X0.450000X-0.262500X0.450000X-0.262500X-0.450000X0.262500X-0.450000X0*%
%ADD22RoundRect,0.250000X0.450000X-0.262500X0.450000X0.262500X-0.450000X0.262500X-0.450000X-0.262500X0*%
%ADD23RoundRect,0.250000X0.250000X0.475000X-0.250000X0.475000X-0.250000X-0.475000X0.250000X-0.475000X0*%
%ADD24C,1.440000*%
%ADD25R,1.500000X1.050000*%
%ADD26O,1.500000X1.050000*%
%ADD27R,3.600000X1.270000*%
%ADD28R,4.200000X1.350000*%
%ADD29R,1.700000X1.700000*%
%ADD30O,1.700000X1.700000*%
%ADD31RoundRect,0.150000X-0.150000X0.825000X-0.150000X-0.825000X0.150000X-0.825000X0.150000X0.825000X0*%
%ADD32RoundRect,0.218750X0.218750X0.381250X-0.218750X0.381250X-0.218750X-0.381250X0.218750X-0.381250X0*%
%ADD33RoundRect,0.218750X0.381250X-0.218750X0.381250X0.218750X-0.381250X0.218750X-0.381250X-0.218750X0*%
%ADD34RoundRect,0.250000X0.475000X-0.250000X0.475000X0.250000X-0.475000X0.250000X-0.475000X-0.250000X0*%
%ADD35R,1.524000X2.286000*%
%ADD36R,2.286000X1.524000*%
%ADD37R,0.762000X0.762000*%
%ADD38R,1.520000X0.635000*%
%ADD39O,2.200000X3.500000*%
%ADD40R,1.500000X2.500000*%
%ADD41O,1.500000X2.500000*%
G04 APERTURE END LIST*
D10*
%TO.C,U2*%
X46682500Y-67548750D03*
X46022500Y-67548750D03*
X45362500Y-67548750D03*
D11*
X45362500Y-66218750D03*
X46022500Y-66218750D03*
X46682500Y-66218750D03*
%TD*%
D12*
%TO.C,U3*%
X30915000Y-51845000D03*
X30415000Y-51845000D03*
X29915000Y-51845000D03*
X29415000Y-51845000D03*
X29415000Y-54095000D03*
X29915000Y-54095000D03*
X30415000Y-54095000D03*
X30915000Y-54095000D03*
D13*
X30165000Y-52970000D03*
%TD*%
D12*
%TO.C,U4*%
X82312500Y-25605000D03*
X81812500Y-25605000D03*
X81312500Y-25605000D03*
X80812500Y-25605000D03*
X80812500Y-27855000D03*
X81312500Y-27855000D03*
X81812500Y-27855000D03*
X82312500Y-27855000D03*
D13*
X81562500Y-26730000D03*
%TD*%
D14*
%TO.C,C11*%
X58082500Y-33197500D03*
X59982500Y-33197500D03*
%TD*%
D15*
%TO.C,U6*%
X40862500Y-63565000D03*
X40862500Y-62915000D03*
X40862500Y-62265000D03*
X40862500Y-61615000D03*
X36637500Y-61615000D03*
X36637500Y-62265000D03*
X36637500Y-62915000D03*
X36637500Y-63565000D03*
%TD*%
D16*
%TO.C,U8*%
X76570000Y-57342500D03*
X77840000Y-57342500D03*
X79110000Y-57342500D03*
X80380000Y-57342500D03*
X81650000Y-57342500D03*
X82920000Y-57342500D03*
X84190000Y-57342500D03*
X84190000Y-52392500D03*
X82920000Y-52392500D03*
X81650000Y-52392500D03*
X80380000Y-52392500D03*
X79110000Y-52392500D03*
X77840000Y-52392500D03*
X76570000Y-52392500D03*
%TD*%
D17*
%TO.C,R10*%
X54280000Y-46687500D03*
X56105000Y-46687500D03*
%TD*%
D18*
%TO.C,H4*%
X102000000Y-23000000D03*
%TD*%
D19*
%TO.C,R31*%
X61970000Y-25027500D03*
X61970000Y-26852500D03*
%TD*%
D20*
%TO.C,C4*%
X81817500Y-21960000D03*
X81817500Y-23860000D03*
%TD*%
D21*
%TO.C,R11*%
X64375000Y-35867500D03*
X62550000Y-35867500D03*
%TD*%
D22*
%TO.C,R26*%
X69140000Y-61242500D03*
X69140000Y-59417500D03*
%TD*%
D20*
%TO.C,C2*%
X30410000Y-46970000D03*
X30410000Y-48870000D03*
%TD*%
D19*
%TO.C,R9*%
X62552500Y-31635000D03*
X62552500Y-33460000D03*
%TD*%
%TO.C,R6*%
X79110000Y-34145000D03*
X79110000Y-35970000D03*
%TD*%
D23*
%TO.C,C9*%
X89360000Y-54827500D03*
X87460000Y-54827500D03*
%TD*%
D18*
%TO.C,H1*%
X23000000Y-23000000D03*
%TD*%
D24*
%TO.C,RV1*%
X56810000Y-25797500D03*
X54270000Y-25797500D03*
X51730000Y-25797500D03*
%TD*%
D19*
%TO.C,R14*%
X90270000Y-44915000D03*
X90270000Y-46740000D03*
%TD*%
D17*
%TO.C,R33*%
X54260000Y-43187500D03*
X56085000Y-43187500D03*
%TD*%
D25*
%TO.C,Q1*%
X46902500Y-45420000D03*
D26*
X46902500Y-46690000D03*
X46902500Y-47960000D03*
%TD*%
D19*
%TO.C,R13*%
X95190000Y-44935000D03*
X95190000Y-46760000D03*
%TD*%
D20*
%TO.C,C14*%
X80380000Y-60387500D03*
X80380000Y-62287500D03*
%TD*%
D27*
%TO.C,J2*%
X102200000Y-56500000D03*
D28*
X102000000Y-59325000D03*
X102000000Y-53675000D03*
%TD*%
D27*
%TO.C,J1*%
X102200000Y-32500000D03*
D28*
X102000000Y-29675000D03*
X102000000Y-35325000D03*
%TD*%
D21*
%TO.C,R2*%
X86440000Y-25730000D03*
X84615000Y-25730000D03*
%TD*%
D17*
%TO.C,R12*%
X88447500Y-40247500D03*
X90272500Y-40247500D03*
%TD*%
D19*
%TO.C,R24*%
X87470000Y-61837500D03*
X87470000Y-63662500D03*
%TD*%
D17*
%TO.C,R4*%
X24827500Y-59760000D03*
X26652500Y-59760000D03*
%TD*%
D29*
%TO.C,J3*%
X64570000Y-58320000D03*
D30*
X62030000Y-58320000D03*
X59490000Y-58320000D03*
X56950000Y-58320000D03*
X54410000Y-58320000D03*
%TD*%
D23*
%TO.C,C6*%
X92357500Y-30370000D03*
X90457500Y-30370000D03*
%TD*%
D22*
%TO.C,R16*%
X46902500Y-42740000D03*
X46902500Y-40915000D03*
%TD*%
D31*
%TO.C,U7*%
X59342500Y-35862500D03*
X58072500Y-35862500D03*
X56802500Y-35862500D03*
X55532500Y-35862500D03*
X54262500Y-35862500D03*
X52992500Y-35862500D03*
X51722500Y-35862500D03*
X51722500Y-40812500D03*
X52992500Y-40812500D03*
X54262500Y-40812500D03*
X55532500Y-40812500D03*
X56802500Y-40812500D03*
X58072500Y-40812500D03*
X59342500Y-40812500D03*
%TD*%
D14*
%TO.C,C12*%
X90270000Y-49507500D03*
X92170000Y-49507500D03*
%TD*%
D21*
%TO.C,R15*%
X53545000Y-33127500D03*
X51720000Y-33127500D03*
%TD*%
D17*
%TO.C,R18*%
X47840000Y-30987500D03*
X49665000Y-30987500D03*
%TD*%
%TO.C,R32*%
X50570000Y-43197500D03*
X52395000Y-43197500D03*
%TD*%
D20*
%TO.C,C7*%
X30420000Y-55680000D03*
X30420000Y-57580000D03*
%TD*%
D22*
%TO.C,R17*%
X77840000Y-64910000D03*
X77840000Y-63085000D03*
%TD*%
%TO.C,R20*%
X74990000Y-63090000D03*
X74990000Y-61265000D03*
%TD*%
D17*
%TO.C,R22*%
X71957500Y-54487500D03*
X73782500Y-54487500D03*
%TD*%
D22*
%TO.C,R7*%
X87460000Y-60070000D03*
X87460000Y-58245000D03*
%TD*%
D32*
%TO.C,L2*%
X85210000Y-30380000D03*
X83085000Y-30380000D03*
%TD*%
D23*
%TO.C,C3*%
X90747500Y-25730000D03*
X88847500Y-25730000D03*
%TD*%
D22*
%TO.C,R1*%
X33270000Y-53792500D03*
X33270000Y-51967500D03*
%TD*%
D18*
%TO.C,H3*%
X23000000Y-66000000D03*
%TD*%
D33*
%TO.C,L1*%
X26660000Y-57802500D03*
X26660000Y-55677500D03*
%TD*%
D24*
%TO.C,RV2*%
X79110000Y-40247500D03*
X81650000Y-40247500D03*
X84190000Y-40247500D03*
%TD*%
D17*
%TO.C,R8*%
X56270000Y-30917500D03*
X58095000Y-30917500D03*
%TD*%
D19*
%TO.C,R25*%
X82920000Y-60425000D03*
X82920000Y-62250000D03*
%TD*%
D34*
%TO.C,C10*%
X86480000Y-46817500D03*
X86480000Y-44917500D03*
%TD*%
D35*
%TO.C,U5*%
X38440000Y-25680000D03*
X35900000Y-25680000D03*
X33360000Y-25680000D03*
X30820000Y-25680000D03*
D36*
X27770000Y-28090000D03*
X27770000Y-30630000D03*
X27770000Y-33170000D03*
X27770000Y-35710000D03*
D35*
X29940000Y-38380000D03*
X32480000Y-38380000D03*
X35020000Y-38380000D03*
X37560000Y-38380000D03*
D36*
X40470000Y-35460000D03*
X40470000Y-32920000D03*
X40470000Y-30380000D03*
X40470000Y-27840000D03*
%TD*%
D17*
%TO.C,R19*%
X51717500Y-30957500D03*
X53542500Y-30957500D03*
%TD*%
%TO.C,R23*%
X71977500Y-50797500D03*
X73802500Y-50797500D03*
%TD*%
D23*
%TO.C,C8*%
X80607500Y-30380000D03*
X78707500Y-30380000D03*
%TD*%
D37*
%TO.C,U1*%
X32480000Y-41370000D03*
D38*
X32480000Y-42420000D03*
D37*
X32480000Y-43480000D03*
%TD*%
D34*
%TO.C,C5*%
X26660000Y-63620000D03*
X26660000Y-61720000D03*
%TD*%
D39*
%TO.C,SW1*%
X65930000Y-25710000D03*
X74130000Y-25710000D03*
D40*
X72030000Y-25710000D03*
D41*
X70030000Y-25710000D03*
X68030000Y-25710000D03*
%TD*%
D34*
%TO.C,C13*%
X71950000Y-64737500D03*
X71950000Y-62837500D03*
%TD*%
%TO.C,C1*%
X33260000Y-57700000D03*
X33260000Y-55800000D03*
%TD*%
D18*
%TO.C,H2*%
X102000000Y-66000000D03*
%TD*%
D19*
%TO.C,R5*%
X87657500Y-28547500D03*
X87657500Y-30372500D03*
%TD*%
D17*
%TO.C,R3*%
X45110000Y-62901250D03*
X46935000Y-62901250D03*
%TD*%
D21*
%TO.C,R21*%
X73792500Y-57337500D03*
X71967500Y-57337500D03*
%TD*%
M02*
