%TF.GenerationSoftware,KiCad,Pcbnew,(6.0.9)*%
%TF.CreationDate,2022-11-20T11:02:21-05:00*%
%TF.ProjectId,RadarProject,52616461-7250-4726-9f6a-6563742e6b69,rev?*%
%TF.SameCoordinates,Original*%
%TF.FileFunction,Copper,L1,Top*%
%TF.FilePolarity,Positive*%
%FSLAX46Y46*%
G04 Gerber Fmt 4.6, Leading zero omitted, Abs format (unit mm)*
G04 Created by KiCad (PCBNEW (6.0.9)) date 2022-11-20 11:02:21*
%MOMM*%
%LPD*%
G01*
G04 APERTURE LIST*
G04 Aperture macros list*
%AMRoundRect*
0 Rectangle with rounded corners*
0 $1 Rounding radius*
0 $2 $3 $4 $5 $6 $7 $8 $9 X,Y pos of 4 corners*
0 Add a 4 corners polygon primitive as box body*
4,1,4,$2,$3,$4,$5,$6,$7,$8,$9,$2,$3,0*
0 Add four circle primitives for the rounded corners*
1,1,$1+$1,$2,$3*
1,1,$1+$1,$4,$5*
1,1,$1+$1,$6,$7*
1,1,$1+$1,$8,$9*
0 Add four rect primitives between the rounded corners*
20,1,$1+$1,$2,$3,$4,$5,0*
20,1,$1+$1,$4,$5,$6,$7,0*
20,1,$1+$1,$6,$7,$8,$9,0*
20,1,$1+$1,$8,$9,$2,$3,0*%
G04 Aperture macros list end*
%TA.AperFunction,SMDPad,CuDef*%
%ADD10R,0.410000X0.665000*%
%TD*%
%TA.AperFunction,SMDPad,CuDef*%
%ADD11R,0.410000X0.675000*%
%TD*%
%TA.AperFunction,SMDPad,CuDef*%
%ADD12R,0.250000X0.750000*%
%TD*%
%TA.AperFunction,SMDPad,CuDef*%
%ADD13R,1.200000X0.600000*%
%TD*%
%TA.AperFunction,SMDPad,CuDef*%
%ADD14RoundRect,0.250000X-0.250000X-0.475000X0.250000X-0.475000X0.250000X0.475000X-0.250000X0.475000X0*%
%TD*%
%TA.AperFunction,SMDPad,CuDef*%
%ADD15RoundRect,0.100000X0.712500X0.100000X-0.712500X0.100000X-0.712500X-0.100000X0.712500X-0.100000X0*%
%TD*%
%TA.AperFunction,SMDPad,CuDef*%
%ADD16RoundRect,0.150000X0.150000X-0.825000X0.150000X0.825000X-0.150000X0.825000X-0.150000X-0.825000X0*%
%TD*%
%TA.AperFunction,SMDPad,CuDef*%
%ADD17RoundRect,0.250000X-0.262500X-0.450000X0.262500X-0.450000X0.262500X0.450000X-0.262500X0.450000X0*%
%TD*%
%TA.AperFunction,SMDPad,CuDef*%
%ADD18RoundRect,0.250000X-0.450000X0.262500X-0.450000X-0.262500X0.450000X-0.262500X0.450000X0.262500X0*%
%TD*%
%TA.AperFunction,SMDPad,CuDef*%
%ADD19RoundRect,0.250000X-0.475000X0.250000X-0.475000X-0.250000X0.475000X-0.250000X0.475000X0.250000X0*%
%TD*%
%TA.AperFunction,SMDPad,CuDef*%
%ADD20RoundRect,0.250000X0.262500X0.450000X-0.262500X0.450000X-0.262500X-0.450000X0.262500X-0.450000X0*%
%TD*%
%TA.AperFunction,SMDPad,CuDef*%
%ADD21RoundRect,0.250000X0.450000X-0.262500X0.450000X0.262500X-0.450000X0.262500X-0.450000X-0.262500X0*%
%TD*%
%TA.AperFunction,SMDPad,CuDef*%
%ADD22RoundRect,0.250000X0.250000X0.475000X-0.250000X0.475000X-0.250000X-0.475000X0.250000X-0.475000X0*%
%TD*%
%TA.AperFunction,ComponentPad*%
%ADD23C,1.440000*%
%TD*%
%TA.AperFunction,ComponentPad*%
%ADD24R,1.500000X1.050000*%
%TD*%
%TA.AperFunction,ComponentPad*%
%ADD25O,1.500000X1.050000*%
%TD*%
%TA.AperFunction,SMDPad,CuDef*%
%ADD26R,3.600000X1.270000*%
%TD*%
%TA.AperFunction,SMDPad,CuDef*%
%ADD27R,4.200000X1.350000*%
%TD*%
%TA.AperFunction,ComponentPad*%
%ADD28R,1.700000X1.700000*%
%TD*%
%TA.AperFunction,ComponentPad*%
%ADD29O,1.700000X1.700000*%
%TD*%
%TA.AperFunction,SMDPad,CuDef*%
%ADD30RoundRect,0.150000X-0.150000X0.825000X-0.150000X-0.825000X0.150000X-0.825000X0.150000X0.825000X0*%
%TD*%
%TA.AperFunction,SMDPad,CuDef*%
%ADD31RoundRect,0.218750X0.218750X0.381250X-0.218750X0.381250X-0.218750X-0.381250X0.218750X-0.381250X0*%
%TD*%
%TA.AperFunction,SMDPad,CuDef*%
%ADD32RoundRect,0.218750X0.381250X-0.218750X0.381250X0.218750X-0.381250X0.218750X-0.381250X-0.218750X0*%
%TD*%
%TA.AperFunction,SMDPad,CuDef*%
%ADD33RoundRect,0.250000X0.475000X-0.250000X0.475000X0.250000X-0.475000X0.250000X-0.475000X-0.250000X0*%
%TD*%
%TA.AperFunction,SMDPad,CuDef*%
%ADD34R,1.524000X2.286000*%
%TD*%
%TA.AperFunction,SMDPad,CuDef*%
%ADD35R,2.286000X1.524000*%
%TD*%
%TA.AperFunction,SMDPad,CuDef*%
%ADD36R,0.762000X0.762000*%
%TD*%
%TA.AperFunction,SMDPad,CuDef*%
%ADD37R,1.520000X0.635000*%
%TD*%
%TA.AperFunction,ComponentPad*%
%ADD38O,2.200000X3.500000*%
%TD*%
%TA.AperFunction,ComponentPad*%
%ADD39R,1.500000X2.500000*%
%TD*%
%TA.AperFunction,ComponentPad*%
%ADD40O,1.500000X2.500000*%
%TD*%
%TA.AperFunction,ViaPad*%
%ADD41C,0.800000*%
%TD*%
%TA.AperFunction,Conductor*%
%ADD42C,0.250000*%
%TD*%
%TA.AperFunction,Conductor*%
%ADD43C,0.293000*%
%TD*%
G04 APERTURE END LIST*
D10*
%TO.P,U2,1,Gnd*%
%TO.N,Earth*%
X46682500Y-67548750D03*
%TO.P,U2,2,RF_in*%
%TO.N,Net-(C7-Pad2)*%
X46022500Y-67548750D03*
%TO.P,U2,3,Gnd*%
%TO.N,Earth*%
X45362500Y-67548750D03*
D11*
%TO.P,U2,4,RF_out*%
%TO.N,Net-(R3-Pad1)*%
X45362500Y-66218750D03*
%TO.P,U2,5,Gnd*%
%TO.N,Earth*%
X46022500Y-66218750D03*
%TO.P,U2,6,RF_out*%
%TO.N,Net-(J2-Pad1)*%
X46682500Y-66218750D03*
%TD*%
D12*
%TO.P,U3,1,V_bias*%
%TO.N,Net-(R1-Pad2)*%
X30915000Y-51845000D03*
%TO.P,U3,2,RF_in*%
%TO.N,Net-(C2-Pad2)*%
X30415000Y-51845000D03*
%TO.P,U3,3,N.C.*%
%TO.N,unconnected-(U3-Pad3)*%
X29915000Y-51845000D03*
%TO.P,U3,4,I.C.*%
%TO.N,unconnected-(U3-Pad4)*%
X29415000Y-51845000D03*
%TO.P,U3,5,I.C.*%
%TO.N,unconnected-(U3-Pad5)*%
X29415000Y-54095000D03*
%TO.P,U3,6,SHDN*%
%TO.N,Earth*%
X29915000Y-54095000D03*
%TO.P,U3,7,RF_out*%
%TO.N,Net-(C7-Pad1)*%
X30415000Y-54095000D03*
%TO.P,U3,8,I.C.*%
%TO.N,unconnected-(U3-Pad8)*%
X30915000Y-54095000D03*
D13*
%TO.P,U3,9,Gnd*%
%TO.N,Earth*%
X30165000Y-52970000D03*
%TD*%
D12*
%TO.P,U4,1,V_bias*%
%TO.N,Net-(R2-Pad2)*%
X82312500Y-25605000D03*
%TO.P,U4,2,RF_in*%
%TO.N,Net-(C4-Pad2)*%
X81812500Y-25605000D03*
%TO.P,U4,3,N.C.*%
%TO.N,unconnected-(U4-Pad3)*%
X81312500Y-25605000D03*
%TO.P,U4,4,I.C.*%
%TO.N,unconnected-(U4-Pad4)*%
X80812500Y-25605000D03*
%TO.P,U4,5,I.C.*%
%TO.N,unconnected-(U4-Pad5)*%
X80812500Y-27855000D03*
%TO.P,U4,6,SHDN*%
%TO.N,Earth*%
X81312500Y-27855000D03*
%TO.P,U4,7,RF_out*%
%TO.N,Net-(C8-Pad1)*%
X81812500Y-27855000D03*
%TO.P,U4,8,I.C.*%
%TO.N,unconnected-(U4-Pad8)*%
X82312500Y-27855000D03*
D13*
%TO.P,U4,9,Gnd*%
%TO.N,Earth*%
X81562500Y-26730000D03*
%TD*%
D14*
%TO.P,C11,1*%
%TO.N,Net-(C11-Pad1)*%
X58082500Y-33197500D03*
%TO.P,C11,2*%
%TO.N,Net-(C11-Pad2)*%
X59982500Y-33197500D03*
%TD*%
D15*
%TO.P,U6,1,GND*%
%TO.N,Earth*%
X40862500Y-63565000D03*
%TO.P,U6,2,LO*%
%TO.N,Net-(R3-Pad1)*%
X40862500Y-62915000D03*
%TO.P,U6,3,GND*%
%TO.N,Earth*%
X40862500Y-62265000D03*
%TO.P,U6,4,NC*%
%TO.N,unconnected-(U6-Pad4)*%
X40862500Y-61615000D03*
%TO.P,U6,5,IF*%
%TO.N,Net-(C9-Pad1)*%
X36637500Y-61615000D03*
%TO.P,U6,6,GND*%
%TO.N,Earth*%
X36637500Y-62265000D03*
%TO.P,U6,7,RF*%
%TO.N,Net-(C8-Pad2)*%
X36637500Y-62915000D03*
%TO.P,U6,8,GND*%
%TO.N,Earth*%
X36637500Y-63565000D03*
%TD*%
D16*
%TO.P,U8,1*%
%TO.N,Net-(C10-Pad1)*%
X76570000Y-57342500D03*
%TO.P,U8,2,-*%
%TO.N,Net-(R17-Pad2)*%
X77840000Y-57342500D03*
%TO.P,U8,3,+*%
%TO.N,Net-(C12-Pad1)*%
X79110000Y-57342500D03*
%TO.P,U8,4,V+*%
%TO.N,+5V*%
X80380000Y-57342500D03*
%TO.P,U8,5,+*%
%TO.N,Net-(C14-Pad1)*%
X81650000Y-57342500D03*
%TO.P,U8,6,-*%
%TO.N,Net-(R24-Pad2)*%
X82920000Y-57342500D03*
%TO.P,U8,7*%
%TO.N,Net-(C13-Pad1)*%
X84190000Y-57342500D03*
%TO.P,U8,8*%
%TO.N,Net-(R12-Pad1)*%
X84190000Y-52392500D03*
%TO.P,U8,9,-*%
%TO.N,Net-(R6-Pad2)*%
X82920000Y-52392500D03*
%TO.P,U8,10,+*%
%TO.N,Net-(C9-Pad2)*%
X81650000Y-52392500D03*
%TO.P,U8,11,V-*%
%TO.N,Earth*%
X80380000Y-52392500D03*
%TO.P,U8,12,+*%
%TO.N,Net-(R26-Pad2)*%
X79110000Y-52392500D03*
%TO.P,U8,13,-*%
%TO.N,Net-(J3-Pad3)*%
X77840000Y-52392500D03*
%TO.P,U8,14*%
X76570000Y-52392500D03*
%TD*%
D17*
%TO.P,R10,1*%
%TO.N,Net-(Q1-Pad3)*%
X54280000Y-46687500D03*
%TO.P,R10,2*%
%TO.N,Net-(C11-Pad1)*%
X56105000Y-46687500D03*
%TD*%
D18*
%TO.P,R31,1*%
%TO.N,Net-(R31-Pad1)*%
X61970000Y-25027500D03*
%TO.P,R31,2*%
%TO.N,Earth*%
X61970000Y-26852500D03*
%TD*%
D19*
%TO.P,C4,1*%
%TO.N,Net-(C4-Pad1)*%
X81817500Y-21960000D03*
%TO.P,C4,2*%
%TO.N,Net-(C4-Pad2)*%
X81817500Y-23860000D03*
%TD*%
D20*
%TO.P,R11,1*%
%TO.N,Earth*%
X64375000Y-35867500D03*
%TO.P,R11,2*%
%TO.N,Net-(R11-Pad2)*%
X62550000Y-35867500D03*
%TD*%
D21*
%TO.P,R26,1*%
%TO.N,Net-(C13-Pad1)*%
X69140000Y-61242500D03*
%TO.P,R26,2*%
%TO.N,Net-(R26-Pad2)*%
X69140000Y-59417500D03*
%TD*%
D19*
%TO.P,C2,1*%
%TO.N,Net-(C2-Pad1)*%
X30410000Y-46970000D03*
%TO.P,C2,2*%
%TO.N,Net-(C2-Pad2)*%
X30410000Y-48870000D03*
%TD*%
D18*
%TO.P,R9,1*%
%TO.N,Net-(R8-Pad1)*%
X62552500Y-31635000D03*
%TO.P,R9,2*%
%TO.N,Net-(R11-Pad2)*%
X62552500Y-33460000D03*
%TD*%
%TO.P,R6,1*%
%TO.N,+5V*%
X79110000Y-34145000D03*
%TO.P,R6,2*%
%TO.N,Net-(R6-Pad2)*%
X79110000Y-35970000D03*
%TD*%
D22*
%TO.P,C9,1*%
%TO.N,Net-(C9-Pad1)*%
X89360000Y-54827500D03*
%TO.P,C9,2*%
%TO.N,Net-(C9-Pad2)*%
X87460000Y-54827500D03*
%TD*%
D23*
%TO.P,RV1,1,1*%
%TO.N,+5V*%
X56810000Y-25797500D03*
%TO.P,RV1,2,2*%
%TO.N,Net-(R8-Pad1)*%
X54270000Y-25797500D03*
%TO.P,RV1,3,3*%
%TO.N,Earth*%
X51730000Y-25797500D03*
%TD*%
D18*
%TO.P,R14,1*%
%TO.N,Net-(C10-Pad2)*%
X90270000Y-44915000D03*
%TO.P,R14,2*%
%TO.N,Net-(C12-Pad1)*%
X90270000Y-46740000D03*
%TD*%
D17*
%TO.P,R33,1*%
%TO.N,Net-(R32-Pad2)*%
X54260000Y-43187500D03*
%TO.P,R33,2*%
%TO.N,Earth*%
X56085000Y-43187500D03*
%TD*%
D24*
%TO.P,Q1,1,E*%
%TO.N,Earth*%
X46902500Y-45420000D03*
D25*
%TO.P,Q1,2,C*%
%TO.N,Net-(Q1-Pad2)*%
X46902500Y-46690000D03*
%TO.P,Q1,3,B*%
%TO.N,Net-(Q1-Pad3)*%
X46902500Y-47960000D03*
%TD*%
D18*
%TO.P,R13,1*%
%TO.N,Net-(C10-Pad2)*%
X95190000Y-44935000D03*
%TO.P,R13,2*%
%TO.N,+5V*%
X95190000Y-46760000D03*
%TD*%
D19*
%TO.P,C14,1*%
%TO.N,Net-(C14-Pad1)*%
X80380000Y-60387500D03*
%TO.P,C14,2*%
%TO.N,+5V*%
X80380000Y-62287500D03*
%TD*%
D26*
%TO.P,J2,1,In*%
%TO.N,Net-(J2-Pad1)*%
X102200000Y-56500000D03*
D27*
%TO.P,J2,2,Ext*%
%TO.N,Net-(AE2-Pad2)*%
X102000000Y-59325000D03*
X102000000Y-53675000D03*
%TD*%
D26*
%TO.P,J1,1,In*%
%TO.N,Net-(C4-Pad1)*%
X102200000Y-32500000D03*
D27*
%TO.P,J1,2,Ext*%
%TO.N,Net-(AE1-Pad2)*%
X102000000Y-29675000D03*
X102000000Y-35325000D03*
%TD*%
D20*
%TO.P,R2,1*%
%TO.N,+5V*%
X86440000Y-25730000D03*
%TO.P,R2,2*%
%TO.N,Net-(R2-Pad2)*%
X84615000Y-25730000D03*
%TD*%
D17*
%TO.P,R12,1*%
%TO.N,Net-(R12-Pad1)*%
X88447500Y-40247500D03*
%TO.P,R12,2*%
%TO.N,Net-(C10-Pad2)*%
X90272500Y-40247500D03*
%TD*%
D18*
%TO.P,R24,1*%
%TO.N,+5V*%
X87470000Y-61837500D03*
%TO.P,R24,2*%
%TO.N,Net-(R24-Pad2)*%
X87470000Y-63662500D03*
%TD*%
D17*
%TO.P,R4,1*%
%TO.N,+5V*%
X24827500Y-59760000D03*
%TO.P,R4,2*%
%TO.N,Net-(C5-Pad2)*%
X26652500Y-59760000D03*
%TD*%
D28*
%TO.P,J3,1,Pin_1*%
%TO.N,Earth*%
X64570000Y-58320000D03*
D29*
%TO.P,J3,2,Pin_2*%
%TO.N,unconnected-(J3-Pad2)*%
X62030000Y-58320000D03*
%TO.P,J3,3,Pin_3*%
%TO.N,Net-(J3-Pad3)*%
X59490000Y-58320000D03*
%TO.P,J3,4,Pin_4*%
%TO.N,+5V*%
X56950000Y-58320000D03*
%TO.P,J3,5,Pin_5*%
%TO.N,Net-(J3-Pad5)*%
X54410000Y-58320000D03*
%TD*%
D22*
%TO.P,C6,1*%
%TO.N,Earth*%
X92357500Y-30370000D03*
%TO.P,C6,2*%
%TO.N,Net-(C6-Pad2)*%
X90457500Y-30370000D03*
%TD*%
D21*
%TO.P,R16,1*%
%TO.N,Net-(Q1-Pad2)*%
X46902500Y-42740000D03*
%TO.P,R16,2*%
%TO.N,Net-(R15-Pad2)*%
X46902500Y-40915000D03*
%TD*%
D30*
%TO.P,U7,1*%
%TO.N,Net-(C11-Pad2)*%
X59342500Y-35862500D03*
%TO.P,U7,2,-*%
%TO.N,Net-(C11-Pad1)*%
X58072500Y-35862500D03*
%TO.P,U7,3,+*%
%TO.N,Net-(R11-Pad2)*%
X56802500Y-35862500D03*
%TO.P,U7,4,V+*%
%TO.N,+5V*%
X55532500Y-35862500D03*
%TO.P,U7,5,+*%
%TO.N,Net-(R15-Pad1)*%
X54262500Y-35862500D03*
%TO.P,U7,6,-*%
%TO.N,Net-(C11-Pad2)*%
X52992500Y-35862500D03*
%TO.P,U7,7*%
%TO.N,Net-(R15-Pad2)*%
X51722500Y-35862500D03*
%TO.P,U7,8*%
%TO.N,Net-(U7-Pad8)*%
X51722500Y-40812500D03*
%TO.P,U7,9,-*%
X52992500Y-40812500D03*
%TO.P,U7,10,+*%
%TO.N,Net-(R32-Pad2)*%
X54262500Y-40812500D03*
%TO.P,U7,11,V-*%
%TO.N,Earth*%
X55532500Y-40812500D03*
%TO.P,U7,12,+*%
%TO.N,Net-(C11-Pad2)*%
X56802500Y-40812500D03*
%TO.P,U7,13,-*%
%TO.N,Net-(SW1-Pad1)*%
X58072500Y-40812500D03*
%TO.P,U7,14*%
X59342500Y-40812500D03*
%TD*%
D14*
%TO.P,C12,1*%
%TO.N,Net-(C12-Pad1)*%
X90270000Y-49507500D03*
%TO.P,C12,2*%
%TO.N,+5V*%
X92170000Y-49507500D03*
%TD*%
D20*
%TO.P,R15,1*%
%TO.N,Net-(R15-Pad1)*%
X53545000Y-33127500D03*
%TO.P,R15,2*%
%TO.N,Net-(R15-Pad2)*%
X51720000Y-33127500D03*
%TD*%
D17*
%TO.P,R18,1*%
%TO.N,+5V*%
X47840000Y-30987500D03*
%TO.P,R18,2*%
%TO.N,Net-(R15-Pad1)*%
X49665000Y-30987500D03*
%TD*%
%TO.P,R32,1*%
%TO.N,+5V*%
X50570000Y-43197500D03*
%TO.P,R32,2*%
%TO.N,Net-(R32-Pad2)*%
X52395000Y-43197500D03*
%TD*%
D19*
%TO.P,C7,1*%
%TO.N,Net-(C7-Pad1)*%
X30420000Y-55680000D03*
%TO.P,C7,2*%
%TO.N,Net-(C7-Pad2)*%
X30420000Y-57580000D03*
%TD*%
D21*
%TO.P,R17,1*%
%TO.N,+5V*%
X77840000Y-64910000D03*
%TO.P,R17,2*%
%TO.N,Net-(R17-Pad2)*%
X77840000Y-63085000D03*
%TD*%
%TO.P,R20,1*%
%TO.N,Net-(R17-Pad2)*%
X74990000Y-63090000D03*
%TO.P,R20,2*%
%TO.N,Net-(C10-Pad1)*%
X74990000Y-61265000D03*
%TD*%
D17*
%TO.P,R22,1*%
%TO.N,Net-(C13-Pad2)*%
X71957500Y-54487500D03*
%TO.P,R22,2*%
%TO.N,+5V*%
X73782500Y-54487500D03*
%TD*%
D21*
%TO.P,R7,1*%
%TO.N,+5V*%
X87460000Y-60070000D03*
%TO.P,R7,2*%
%TO.N,Net-(C9-Pad2)*%
X87460000Y-58245000D03*
%TD*%
D31*
%TO.P,L2,1,1*%
%TO.N,Net-(C6-Pad2)*%
X85210000Y-30380000D03*
%TO.P,L2,2,2*%
%TO.N,Net-(C8-Pad1)*%
X83085000Y-30380000D03*
%TD*%
D22*
%TO.P,C3,1*%
%TO.N,Earth*%
X90747500Y-25730000D03*
%TO.P,C3,2*%
%TO.N,+5V*%
X88847500Y-25730000D03*
%TD*%
D21*
%TO.P,R1,1*%
%TO.N,+5V*%
X33270000Y-53792500D03*
%TO.P,R1,2*%
%TO.N,Net-(R1-Pad2)*%
X33270000Y-51967500D03*
%TD*%
D32*
%TO.P,L1,1,1*%
%TO.N,Net-(C5-Pad2)*%
X26660000Y-57802500D03*
%TO.P,L1,2,2*%
%TO.N,Net-(C7-Pad1)*%
X26660000Y-55677500D03*
%TD*%
D23*
%TO.P,RV2,1,1*%
%TO.N,Net-(R6-Pad2)*%
X79110000Y-40247500D03*
%TO.P,RV2,2,2*%
%TO.N,Net-(R12-Pad1)*%
X81650000Y-40247500D03*
%TO.P,RV2,3,3*%
X84190000Y-40247500D03*
%TD*%
D17*
%TO.P,R8,1*%
%TO.N,Net-(R8-Pad1)*%
X56270000Y-30917500D03*
%TO.P,R8,2*%
%TO.N,Net-(C11-Pad1)*%
X58095000Y-30917500D03*
%TD*%
D18*
%TO.P,R25,1*%
%TO.N,Net-(R24-Pad2)*%
X82920000Y-60425000D03*
%TO.P,R25,2*%
%TO.N,Net-(C13-Pad1)*%
X82920000Y-62250000D03*
%TD*%
D33*
%TO.P,C10,1*%
%TO.N,Net-(C10-Pad1)*%
X86480000Y-46817500D03*
%TO.P,C10,2*%
%TO.N,Net-(C10-Pad2)*%
X86480000Y-44917500D03*
%TD*%
D34*
%TO.P,U5,1,Gnd*%
%TO.N,Earth*%
X38440000Y-25680000D03*
%TO.P,U5,2,Vt*%
%TO.N,Net-(J3-Pad5)*%
X35900000Y-25680000D03*
%TO.P,U5,3,Gnd*%
%TO.N,Earth*%
X33360000Y-25680000D03*
%TO.P,U5,4,Gnd*%
X30820000Y-25680000D03*
D35*
%TO.P,U5,5,Gnd*%
X27770000Y-28090000D03*
%TO.P,U5,6,Gnd*%
X27770000Y-30630000D03*
%TO.P,U5,7,Gnd*%
X27770000Y-33170000D03*
%TO.P,U5,8*%
X27770000Y-35710000D03*
D34*
%TO.P,U5,9,Gnd*%
X29940000Y-38380000D03*
%TO.P,U5,10,RF_Out*%
%TO.N,Net-(U1-Pad1)*%
X32480000Y-38380000D03*
%TO.P,U5,11,Gnd*%
%TO.N,Earth*%
X35020000Y-38380000D03*
%TO.P,U5,12,Gnd*%
X37560000Y-38380000D03*
D35*
%TO.P,U5,13,Gnd*%
X40470000Y-35460000D03*
%TO.P,U5,14,Vcc*%
%TO.N,+5V*%
X40470000Y-32920000D03*
%TO.P,U5,15,Gnd*%
%TO.N,Earth*%
X40470000Y-30380000D03*
%TO.P,U5,16,Gnd*%
X40470000Y-27840000D03*
%TD*%
D17*
%TO.P,R19,1*%
%TO.N,Earth*%
X51717500Y-30957500D03*
%TO.P,R19,2*%
%TO.N,Net-(R15-Pad1)*%
X53542500Y-30957500D03*
%TD*%
%TO.P,R23,1*%
%TO.N,Net-(C13-Pad2)*%
X71977500Y-50797500D03*
%TO.P,R23,2*%
%TO.N,Net-(C14-Pad1)*%
X73802500Y-50797500D03*
%TD*%
D22*
%TO.P,C8,1*%
%TO.N,Net-(C8-Pad1)*%
X80607500Y-30380000D03*
%TO.P,C8,2*%
%TO.N,Net-(C8-Pad2)*%
X78707500Y-30380000D03*
%TD*%
D36*
%TO.P,U1,1,RF_in*%
%TO.N,Net-(U1-Pad1)*%
X32480000Y-41370000D03*
D37*
%TO.P,U1,2,Gnd*%
%TO.N,Earth*%
X32480000Y-42420000D03*
D36*
%TO.P,U1,3,RF_out*%
%TO.N,Net-(C2-Pad1)*%
X32480000Y-43480000D03*
%TD*%
D33*
%TO.P,C5,1*%
%TO.N,Earth*%
X26660000Y-63620000D03*
%TO.P,C5,2*%
%TO.N,Net-(C5-Pad2)*%
X26660000Y-61720000D03*
%TD*%
D38*
%TO.P,SW1,*%
%TO.N,*%
X65930000Y-25710000D03*
X74130000Y-25710000D03*
D39*
%TO.P,SW1,1,A*%
%TO.N,Net-(SW1-Pad1)*%
X72030000Y-25710000D03*
D40*
%TO.P,SW1,2,B*%
%TO.N,Net-(J3-Pad5)*%
X70030000Y-25710000D03*
%TO.P,SW1,3,C*%
%TO.N,Net-(R31-Pad1)*%
X68030000Y-25710000D03*
%TD*%
D33*
%TO.P,C13,1*%
%TO.N,Net-(C13-Pad1)*%
X71950000Y-64737500D03*
%TO.P,C13,2*%
%TO.N,Net-(C13-Pad2)*%
X71950000Y-62837500D03*
%TD*%
%TO.P,C1,1*%
%TO.N,Earth*%
X33260000Y-57700000D03*
%TO.P,C1,2*%
%TO.N,+5V*%
X33260000Y-55800000D03*
%TD*%
D18*
%TO.P,R5,1*%
%TO.N,+5V*%
X87657500Y-28547500D03*
%TO.P,R5,2*%
%TO.N,Net-(C6-Pad2)*%
X87657500Y-30372500D03*
%TD*%
D17*
%TO.P,R3,1*%
%TO.N,Net-(R3-Pad1)*%
X45110000Y-62901250D03*
%TO.P,R3,2*%
%TO.N,Net-(J2-Pad1)*%
X46935000Y-62901250D03*
%TD*%
D20*
%TO.P,R21,1*%
%TO.N,Net-(C10-Pad1)*%
X73792500Y-57337500D03*
%TO.P,R21,2*%
%TO.N,Net-(C13-Pad2)*%
X71967500Y-57337500D03*
%TD*%
D41*
%TO.N,Net-(J3-Pad3)*%
X76570000Y-50080000D03*
%TO.N,Earth*%
X61970000Y-28420000D03*
X28460000Y-52970000D03*
X33270000Y-59170000D03*
X92357500Y-27830000D03*
X40860000Y-64920000D03*
X98190000Y-29680000D03*
X102000000Y-43680000D03*
X40470000Y-38380000D03*
X46020000Y-65380000D03*
X65720000Y-35870000D03*
X25360000Y-30620000D03*
X80380000Y-50670000D03*
X55550000Y-38680000D03*
X28210000Y-63620000D03*
X98580000Y-59320000D03*
X79777500Y-26730000D03*
%TO.N,+5V*%
X80380000Y-54480000D03*
X55530000Y-34000000D03*
X50570000Y-45170000D03*
X85620000Y-60970000D03*
X81240000Y-34140000D03*
X95190000Y-49500000D03*
X46390000Y-31000000D03*
X87657500Y-27090000D03*
X34790000Y-54760000D03*
X23070000Y-59760000D03*
X79840000Y-64330000D03*
%TO.N,Net-(C10-Pad1)*%
X76570000Y-55847500D03*
X85530000Y-52687500D03*
%TO.N,Net-(C12-Pad1)*%
X79110000Y-55837500D03*
X83710000Y-54097500D03*
%TO.N,Net-(C14-Pad1)*%
X75180000Y-51397500D03*
X81650000Y-55597500D03*
%TO.N,Net-(R24-Pad2)*%
X85950000Y-63677500D03*
X81680000Y-63667500D03*
%TO.N,Net-(C11-Pad1)*%
X56790000Y-32820000D03*
X56077500Y-44832500D03*
%TO.N,Net-(R11-Pad2)*%
X61032500Y-35867500D03*
X56802500Y-33997500D03*
%TD*%
D42*
%TO.N,Earth*%
X33260000Y-57700000D02*
X33260000Y-59160000D01*
X33260000Y-59160000D02*
X33270000Y-59170000D01*
D43*
%TO.N,Net-(C7-Pad2)*%
X30420000Y-57580000D02*
X30420000Y-65220000D01*
X30420000Y-65220000D02*
X33320000Y-68120000D01*
X33320000Y-68120000D02*
X44811000Y-68120000D01*
X44811000Y-68120000D02*
X44918750Y-68227750D01*
X45812250Y-68227750D02*
X46022500Y-68017500D01*
X44918750Y-68227750D02*
X45812250Y-68227750D01*
X46022500Y-68017500D02*
X46022500Y-67381250D01*
D42*
%TO.N,Net-(J3-Pad3)*%
X76570000Y-50080000D02*
X76570000Y-52392500D01*
%TO.N,Net-(R26-Pad2)*%
X69140000Y-59417500D02*
X69140000Y-49850000D01*
X69140000Y-49850000D02*
X70900000Y-48090000D01*
X70900000Y-48090000D02*
X77470000Y-48090000D01*
X77470000Y-48090000D02*
X79110000Y-49730000D01*
X79110000Y-49730000D02*
X79110000Y-52392500D01*
%TO.N,Net-(C13-Pad1)*%
X69140000Y-63680000D02*
X70200000Y-64740000D01*
X69140000Y-61242500D02*
X69140000Y-63680000D01*
X70200000Y-64740000D02*
X71947500Y-64740000D01*
X71947500Y-64740000D02*
X71950000Y-64737500D01*
%TO.N,Earth*%
X38440000Y-25680000D02*
X39940000Y-25680000D01*
D43*
X28460000Y-52970000D02*
X30165000Y-52970000D01*
D42*
X29940000Y-40322500D02*
X29940000Y-38380000D01*
X27760000Y-30620000D02*
X27770000Y-30630000D01*
X46597500Y-66881250D02*
X45947500Y-66881250D01*
D43*
X92357500Y-27830000D02*
X92357500Y-30370000D01*
X51730000Y-30945000D02*
X51730000Y-25797500D01*
D42*
X45362500Y-66966250D02*
X45447500Y-66881250D01*
X46020000Y-65380000D02*
X46020000Y-66388750D01*
X25360000Y-30620000D02*
X27760000Y-30620000D01*
D43*
X29915000Y-53970000D02*
X29915000Y-53220000D01*
D42*
X33360000Y-25680000D02*
X33360000Y-27230000D01*
X27770000Y-35710000D02*
X27770000Y-33170000D01*
X46682500Y-66966250D02*
X46597500Y-66881250D01*
D43*
X55550000Y-38680000D02*
X55550000Y-40795000D01*
D42*
X46020000Y-66388750D02*
X46022500Y-66391250D01*
X40470000Y-27840000D02*
X40470000Y-30380000D01*
X65720000Y-35870000D02*
X64377500Y-35870000D01*
X38770000Y-35460000D02*
X37820000Y-34510000D01*
X56070000Y-43202500D02*
X56085000Y-43187500D01*
X28460000Y-38380000D02*
X27770000Y-37690000D01*
X45447500Y-66881250D02*
X45947500Y-66881250D01*
X27770000Y-37690000D02*
X27770000Y-35710000D01*
D43*
X92357500Y-27830000D02*
X92357500Y-27340000D01*
D42*
X27770000Y-28090000D02*
X27770000Y-30630000D01*
X34220000Y-28090000D02*
X37500000Y-28090000D01*
X46682500Y-67381250D02*
X46682500Y-66966250D01*
X39940000Y-25680000D02*
X40470000Y-26210000D01*
D43*
X80380000Y-50670000D02*
X80380000Y-52392500D01*
X36637500Y-62265000D02*
X38785000Y-62265000D01*
X38785000Y-62265000D02*
X40862500Y-62265000D01*
D42*
X51717500Y-30957500D02*
X51730000Y-30945000D01*
X64377500Y-35870000D02*
X64375000Y-35867500D01*
D43*
X81312500Y-27730000D02*
X81312500Y-26980000D01*
D42*
X64560000Y-58310000D02*
X64570000Y-58320000D01*
X38440000Y-27150000D02*
X38440000Y-25680000D01*
X32480000Y-42420000D02*
X32037500Y-42420000D01*
X37560000Y-38380000D02*
X35020000Y-38380000D01*
X46022500Y-66612500D02*
X46022500Y-66391250D01*
X40470000Y-26210000D02*
X40470000Y-27840000D01*
D43*
X55532500Y-40812500D02*
X55532500Y-42635000D01*
X36637500Y-63565000D02*
X38785000Y-63565000D01*
D42*
X27770000Y-26340000D02*
X28430000Y-25680000D01*
X79777500Y-26730000D02*
X79812500Y-26730000D01*
X61970000Y-26852500D02*
X61970000Y-28420000D01*
D43*
X38785000Y-63565000D02*
X40862500Y-63565000D01*
D42*
X28210000Y-63620000D02*
X26660000Y-63620000D01*
X55550000Y-40795000D02*
X55532500Y-40812500D01*
X81312500Y-26980000D02*
X81562500Y-26730000D01*
D43*
X55532500Y-42635000D02*
X56085000Y-43187500D01*
D42*
X40470000Y-38380000D02*
X40470000Y-35460000D01*
X37500000Y-28090000D02*
X38440000Y-27150000D01*
X28430000Y-25680000D02*
X30820000Y-25680000D01*
D43*
X38785000Y-62265000D02*
X38785000Y-63565000D01*
D42*
X37820000Y-34510000D02*
X37820000Y-31370000D01*
X45362500Y-67381250D02*
X45362500Y-66966250D01*
X32037500Y-42420000D02*
X29940000Y-40322500D01*
X33360000Y-27230000D02*
X34220000Y-28090000D01*
X64375000Y-35867500D02*
X64370000Y-35872500D01*
X29915000Y-53220000D02*
X30165000Y-52970000D01*
X27770000Y-33170000D02*
X27770000Y-30630000D01*
D43*
X40862500Y-63565000D02*
X40862500Y-64917500D01*
D42*
X40470000Y-35460000D02*
X38770000Y-35460000D01*
X45947500Y-66881250D02*
X46022500Y-66806250D01*
D43*
X92357500Y-27340000D02*
X90747500Y-25730000D01*
D42*
X38810000Y-30380000D02*
X40470000Y-30380000D01*
X46022500Y-66806250D02*
X46022500Y-66391250D01*
X29940000Y-38380000D02*
X28460000Y-38380000D01*
D43*
X79777500Y-26730000D02*
X81562500Y-26730000D01*
D42*
X40862500Y-64917500D02*
X40860000Y-64920000D01*
X30820000Y-25680000D02*
X33360000Y-25680000D01*
X40470000Y-38380000D02*
X37560000Y-38380000D01*
X37820000Y-31370000D02*
X38810000Y-30380000D01*
X27770000Y-28090000D02*
X27770000Y-26340000D01*
%TO.N,+5V*%
X92177500Y-49500000D02*
X92170000Y-49507500D01*
D43*
X87657500Y-27090000D02*
X87657500Y-25740000D01*
X86440000Y-25730000D02*
X87647500Y-25730000D01*
X87657500Y-27090000D02*
X87657500Y-28567500D01*
D42*
X73790000Y-54480000D02*
X73782500Y-54487500D01*
X55530000Y-35860000D02*
X55532500Y-35862500D01*
X46380000Y-30990000D02*
X46390000Y-31000000D01*
D43*
X80380000Y-63807500D02*
X79277500Y-64910000D01*
D42*
X40470000Y-32920000D02*
X42290000Y-32920000D01*
D43*
X33270000Y-53792500D02*
X33270000Y-54850000D01*
D42*
X81240000Y-34140000D02*
X79115000Y-34140000D01*
D43*
X87470000Y-60970000D02*
X87470000Y-61837500D01*
D42*
X87460000Y-60960000D02*
X87470000Y-60970000D01*
D43*
X80380000Y-54480000D02*
X73790000Y-54480000D01*
D42*
X33360000Y-54760000D02*
X33270000Y-54850000D01*
D43*
X80380000Y-57342500D02*
X80380000Y-54480000D01*
D42*
X87657500Y-25740000D02*
X87647500Y-25730000D01*
D43*
X85620000Y-60970000D02*
X87470000Y-60970000D01*
X79277500Y-64910000D02*
X77840000Y-64910000D01*
X34790000Y-54760000D02*
X33360000Y-54760000D01*
X95190000Y-49500000D02*
X95190000Y-46760000D01*
X46390000Y-31000000D02*
X47827500Y-31000000D01*
X80380000Y-62287500D02*
X80380000Y-63807500D01*
D42*
X33270000Y-55790000D02*
X33260000Y-55800000D01*
X44220000Y-30990000D02*
X46380000Y-30990000D01*
D43*
X87647500Y-25730000D02*
X88847500Y-25730000D01*
X95190000Y-49500000D02*
X92177500Y-49500000D01*
X23070000Y-59760000D02*
X24827500Y-59760000D01*
X33270000Y-54850000D02*
X33270000Y-55790000D01*
X87460000Y-60070000D02*
X87460000Y-60960000D01*
D42*
X79115000Y-34140000D02*
X79110000Y-34145000D01*
X42290000Y-32920000D02*
X44220000Y-30990000D01*
D43*
X50570000Y-45170000D02*
X50570000Y-43197500D01*
X55530000Y-34000000D02*
X55530000Y-35860000D01*
D42*
X47827500Y-31000000D02*
X47840000Y-30987500D01*
D43*
%TO.N,Net-(C2-Pad1)*%
X32480000Y-44900000D02*
X30410000Y-46970000D01*
X32480000Y-43480000D02*
X32480000Y-44900000D01*
%TO.N,Net-(C2-Pad2)*%
X30415000Y-51970000D02*
X30415000Y-48875000D01*
D42*
X30415000Y-48875000D02*
X30410000Y-48870000D01*
D43*
%TO.N,Net-(C4-Pad1)*%
X81817500Y-21960000D02*
X93220000Y-21960000D01*
X95010000Y-30170000D02*
X97340000Y-32500000D01*
X97340000Y-32500000D02*
X102000000Y-32500000D01*
X95010000Y-23750000D02*
X95010000Y-30170000D01*
X93220000Y-21960000D02*
X95010000Y-23750000D01*
D42*
%TO.N,Net-(C4-Pad2)*%
X81812500Y-23865000D02*
X81817500Y-23860000D01*
D43*
X81812500Y-25730000D02*
X81812500Y-23865000D01*
%TO.N,Net-(C5-Pad2)*%
X26660000Y-57802500D02*
X26660000Y-59752500D01*
D42*
X26652500Y-61712500D02*
X26660000Y-61720000D01*
D43*
X26652500Y-59760000D02*
X26652500Y-61712500D01*
D42*
X26660000Y-59752500D02*
X26652500Y-59760000D01*
%TO.N,Net-(C6-Pad2)*%
X87660000Y-30370000D02*
X87657500Y-30372500D01*
D43*
X85210000Y-30380000D02*
X87650000Y-30380000D01*
D42*
X87650000Y-30380000D02*
X87657500Y-30372500D01*
D43*
X90457500Y-30370000D02*
X87660000Y-30370000D01*
D42*
%TO.N,Net-(C7-Pad1)*%
X30415000Y-55675000D02*
X30420000Y-55680000D01*
D43*
X30415000Y-53970000D02*
X30415000Y-55675000D01*
D42*
X30417500Y-55677500D02*
X30420000Y-55680000D01*
D43*
X26660000Y-55677500D02*
X30417500Y-55677500D01*
%TO.N,Net-(C8-Pad1)*%
X81817500Y-30380000D02*
X80607500Y-30380000D01*
X83085000Y-30380000D02*
X81817500Y-30380000D01*
X81812500Y-27730000D02*
X81812500Y-30375000D01*
D42*
X81817500Y-30380000D02*
X81812500Y-30375000D01*
D43*
%TO.N,Net-(C8-Pad2)*%
X70500000Y-45050000D02*
X70500000Y-34710000D01*
X74830000Y-30380000D02*
X78707500Y-30380000D01*
X40790000Y-51390000D02*
X64160000Y-51390000D01*
X35000000Y-62530000D02*
X35000000Y-57180000D01*
X70500000Y-34710000D02*
X74830000Y-30380000D01*
X35385000Y-62915000D02*
X35000000Y-62530000D01*
X64160000Y-51390000D02*
X70500000Y-45050000D01*
X36637500Y-62915000D02*
X35385000Y-62915000D01*
X35000000Y-57180000D02*
X40790000Y-51390000D01*
%TO.N,Net-(C9-Pad1)*%
X89370000Y-65740000D02*
X89370000Y-54837500D01*
X58780000Y-60950000D02*
X65080000Y-67250000D01*
D42*
X89370000Y-54837500D02*
X89360000Y-54827500D01*
D43*
X37302500Y-60950000D02*
X58780000Y-60950000D01*
X36637500Y-61615000D02*
X37302500Y-60950000D01*
X65080000Y-67250000D02*
X87860000Y-67250000D01*
X87860000Y-67250000D02*
X89370000Y-65740000D01*
%TO.N,Net-(C9-Pad2)*%
X87460000Y-54827500D02*
X87047500Y-55240000D01*
X87460000Y-54827500D02*
X87460000Y-58245000D01*
X83322500Y-55240000D02*
X81650000Y-53567500D01*
X87047500Y-55240000D02*
X83322500Y-55240000D01*
X81650000Y-53567500D02*
X81650000Y-52392500D01*
D42*
%TO.N,Net-(C10-Pad1)*%
X76570000Y-55847500D02*
X76570000Y-57342500D01*
D43*
X73792500Y-57337500D02*
X76565000Y-57337500D01*
X76570000Y-59685000D02*
X76570000Y-57342500D01*
X86480000Y-51767500D02*
X85550000Y-52697500D01*
D42*
X76565000Y-57337500D02*
X76570000Y-57342500D01*
D43*
X86480000Y-46817500D02*
X86480000Y-51767500D01*
X74990000Y-61265000D02*
X76570000Y-59685000D01*
%TO.N,Net-(C10-Pad2)*%
X86480000Y-44917500D02*
X90267500Y-44917500D01*
D42*
X95170000Y-44915000D02*
X95190000Y-44935000D01*
D43*
X90270000Y-44915000D02*
X90270000Y-40250000D01*
D42*
X90267500Y-44917500D02*
X90270000Y-44915000D01*
X90270000Y-40250000D02*
X90272500Y-40247500D01*
D43*
X90270000Y-44915000D02*
X95170000Y-44915000D01*
%TO.N,Net-(C11-Pad2)*%
X54052843Y-37330000D02*
X52992500Y-36269657D01*
X59342500Y-36757500D02*
X58770000Y-37330000D01*
X58770000Y-37330000D02*
X54052843Y-37330000D01*
D42*
X52992500Y-36239251D02*
X52992500Y-35862500D01*
D43*
X59342500Y-33837500D02*
X59982500Y-33197500D01*
X59342500Y-36239251D02*
X59342500Y-36757500D01*
X59342500Y-35862500D02*
X59342500Y-33837500D01*
D42*
X59342500Y-35862500D02*
X59342500Y-36239251D01*
D43*
X52992500Y-36269657D02*
X52992500Y-36239251D01*
X56802500Y-40812500D02*
X56802500Y-39297500D01*
X56802500Y-39297500D02*
X58770000Y-37330000D01*
%TO.N,Net-(C12-Pad1)*%
X90270000Y-49507500D02*
X85680000Y-54097500D01*
X85680000Y-54097500D02*
X83710000Y-54097500D01*
X90270000Y-46740000D02*
X90270000Y-49507500D01*
X79110000Y-55837500D02*
X79110000Y-57342500D01*
%TO.N,Net-(C13-Pad1)*%
X71950000Y-64737500D02*
X73890000Y-66677500D01*
X84190000Y-64317500D02*
X84190000Y-62237500D01*
X84190000Y-62237500D02*
X84190000Y-57342500D01*
X82920000Y-62250000D02*
X84177500Y-62250000D01*
X73890000Y-66677500D02*
X81830000Y-66677500D01*
D42*
X84177500Y-62250000D02*
X84190000Y-62237500D01*
D43*
X81830000Y-66677500D02*
X84190000Y-64317500D01*
D42*
%TO.N,Net-(C13-Pad2)*%
X71967500Y-54497500D02*
X71957500Y-54487500D01*
X71950000Y-57355000D02*
X71967500Y-57337500D01*
D43*
X71967500Y-57337500D02*
X71967500Y-54497500D01*
X71950000Y-62837500D02*
X71950000Y-57355000D01*
D42*
X71957500Y-50817500D02*
X71977500Y-50797500D01*
D43*
X71957500Y-54487500D02*
X71957500Y-50817500D01*
%TO.N,Net-(C14-Pad1)*%
X73802500Y-50797500D02*
X74580000Y-50797500D01*
X81650000Y-55597500D02*
X81650000Y-57342500D01*
X80380000Y-60387500D02*
X81650000Y-59117500D01*
X74580000Y-50797500D02*
X75180000Y-51397500D01*
X81650000Y-59117500D02*
X81650000Y-57342500D01*
D42*
%TO.N,Net-(AE1-Pad2)*%
X98195000Y-29675000D02*
X102000000Y-29675000D01*
X98190000Y-29680000D02*
X98195000Y-29675000D01*
D43*
%TO.N,Net-(J2-Pad1)*%
X47730000Y-64760000D02*
X47730000Y-65910000D01*
X51913750Y-67880000D02*
X46935000Y-62901250D01*
X47730000Y-65910000D02*
X47248750Y-66391250D01*
X102000000Y-56500000D02*
X97200000Y-56500000D01*
X93200000Y-67880000D02*
X51913750Y-67880000D01*
X46935000Y-62901250D02*
X46935000Y-63965000D01*
X46935000Y-63965000D02*
X47730000Y-64760000D01*
X97200000Y-56500000D02*
X95000000Y-58700000D01*
X95000000Y-61130000D02*
X95000000Y-66080000D01*
X47248750Y-66391250D02*
X46682500Y-66391250D01*
X95000000Y-66080000D02*
X93200000Y-67880000D01*
X95000000Y-58700000D02*
X95000000Y-61130000D01*
D42*
%TO.N,Net-(AE2-Pad2)*%
X98585000Y-59325000D02*
X102000000Y-59325000D01*
%TO.N,Net-(AE1-Pad2)*%
X102000000Y-53675000D02*
X102000000Y-43680000D01*
X102000000Y-43680000D02*
X102000000Y-35325000D01*
%TO.N,Net-(AE2-Pad2)*%
X98580000Y-59320000D02*
X98585000Y-59325000D01*
D43*
%TO.N,Net-(R1-Pad2)*%
X30915000Y-51970000D02*
X32892500Y-51970000D01*
D42*
X32892500Y-51970000D02*
X32895000Y-51967500D01*
D43*
%TO.N,Net-(R2-Pad2)*%
X84615000Y-25730000D02*
X82312500Y-25730000D01*
%TO.N,Net-(R6-Pad2)*%
X82920000Y-48367500D02*
X82920000Y-52392500D01*
D42*
X79110000Y-40247500D02*
X79110000Y-35970000D01*
D43*
X79110000Y-40247500D02*
X79110000Y-44557500D01*
X79110000Y-44557500D02*
X82920000Y-48367500D01*
%TO.N,Net-(R12-Pad1)*%
X88447500Y-40247500D02*
X84190000Y-40247500D01*
D42*
X81650000Y-40247500D02*
X84190000Y-40247500D01*
D43*
X84190000Y-40247500D02*
X84190000Y-52392500D01*
%TO.N,Net-(J3-Pad5)*%
X37320000Y-21800000D02*
X68410000Y-21800000D01*
X68410000Y-21800000D02*
X70030000Y-23420000D01*
X35900000Y-25680000D02*
X35900000Y-23220000D01*
X35900000Y-23220000D02*
X37320000Y-21800000D01*
X70030000Y-23420000D02*
X70030000Y-24740000D01*
D42*
X70030000Y-25710000D02*
X70030000Y-24740000D01*
D43*
%TO.N,Net-(R17-Pad2)*%
X77840000Y-63085000D02*
X77840000Y-57342500D01*
D42*
X74980000Y-63105000D02*
X75000000Y-63085000D01*
D43*
X75000000Y-63085000D02*
X77840000Y-63085000D01*
%TO.N,Net-(R24-Pad2)*%
X81680000Y-60427500D02*
X81680000Y-63667500D01*
X82920000Y-60425000D02*
X82920000Y-59077500D01*
X82920000Y-59077500D02*
X82920000Y-57342500D01*
X82920000Y-60425000D02*
X81682500Y-60425000D01*
X85950000Y-63677500D02*
X87447500Y-63677500D01*
D42*
X87447500Y-63677500D02*
X87450000Y-63675000D01*
X81682500Y-60425000D02*
X81680000Y-60427500D01*
D43*
%TO.N,Net-(U1-Pad1)*%
X32480000Y-41370000D02*
X32480000Y-38380000D01*
%TO.N,Net-(J3-Pad3)*%
X77840000Y-52392500D02*
X76570000Y-52392500D01*
%TO.N,Net-(R3-Pad1)*%
X44260000Y-65860000D02*
X44791250Y-66391250D01*
X40862500Y-62915000D02*
X44875000Y-62915000D01*
X45110000Y-63910000D02*
X44260000Y-64760000D01*
X45110000Y-62901250D02*
X45110000Y-63910000D01*
X44260000Y-64760000D02*
X44260000Y-65860000D01*
X44791250Y-66391250D02*
X45362500Y-66391250D01*
D42*
X44875000Y-62915000D02*
X44880000Y-62920000D01*
%TO.N,Net-(R31-Pad1)*%
X67200000Y-23150000D02*
X62640000Y-23150000D01*
X68030000Y-23980000D02*
X67200000Y-23150000D01*
X61970000Y-23820000D02*
X61970000Y-25027500D01*
X68030000Y-25710000D02*
X68030000Y-23980000D01*
X62640000Y-23150000D02*
X61970000Y-23820000D01*
D43*
%TO.N,Net-(C11-Pad1)*%
X58095000Y-30917500D02*
X58095000Y-33185000D01*
D42*
X58082500Y-35852500D02*
X58072500Y-35862500D01*
X58095000Y-33185000D02*
X58082500Y-33197500D01*
X57705000Y-32820000D02*
X58082500Y-33197500D01*
D43*
X56077500Y-44832500D02*
X56077500Y-46660000D01*
D42*
X56077500Y-46660000D02*
X56105000Y-46687500D01*
D43*
X58082500Y-33197500D02*
X58082500Y-35852500D01*
D42*
X56790000Y-32820000D02*
X57705000Y-32820000D01*
%TO.N,Net-(Q1-Pad3)*%
X54277500Y-46690000D02*
X54280000Y-46687500D01*
X50047500Y-46687500D02*
X48775000Y-47960000D01*
X50047500Y-46687500D02*
X54280000Y-46687500D01*
X48775000Y-47960000D02*
X46902500Y-47960000D01*
%TO.N,Net-(Q1-Pad2)*%
X45140000Y-46690000D02*
X46902500Y-46690000D01*
X44410000Y-43560000D02*
X44410000Y-45960000D01*
X46902500Y-42740000D02*
X45230000Y-42740000D01*
X45230000Y-42740000D02*
X44410000Y-43560000D01*
X44410000Y-45960000D02*
X45140000Y-46690000D01*
D43*
%TO.N,Net-(R8-Pad1)*%
X57192500Y-29607500D02*
X56270000Y-30530000D01*
X56270000Y-30917500D02*
X54272500Y-28920000D01*
X54272500Y-28920000D02*
X54272500Y-25797500D01*
D42*
X56270000Y-30530000D02*
X56270000Y-30917500D01*
D43*
X60525000Y-29607500D02*
X57192500Y-29607500D01*
X62552500Y-31635000D02*
X60525000Y-29607500D01*
D42*
%TO.N,Net-(R11-Pad2)*%
X62552500Y-35865000D02*
X62550000Y-35867500D01*
D43*
X62550000Y-35867500D02*
X61032500Y-35867500D01*
X56802500Y-33997500D02*
X56802500Y-35862500D01*
X62552500Y-33460000D02*
X62552500Y-35865000D01*
%TO.N,Net-(R15-Pad1)*%
X53542500Y-30957500D02*
X53542500Y-31937500D01*
X54262500Y-35862500D02*
X54262500Y-33935000D01*
D42*
X53497500Y-31982500D02*
X53542500Y-31937500D01*
X53542500Y-33215000D02*
X53545000Y-33217500D01*
D43*
X50717500Y-32040000D02*
X53440000Y-32040000D01*
X49665000Y-30987500D02*
X50717500Y-32040000D01*
X54262500Y-33935000D02*
X53545000Y-33217500D01*
X53440000Y-32040000D02*
X53497500Y-31982500D01*
X53542500Y-31937500D02*
X53542500Y-33215000D01*
%TO.N,Net-(R15-Pad2)*%
X49125000Y-40915000D02*
X51732500Y-38307500D01*
X46902500Y-40915000D02*
X49125000Y-40915000D01*
X51722500Y-35862500D02*
X51722500Y-33220000D01*
D42*
X51732500Y-35872500D02*
X51722500Y-35862500D01*
D43*
X51732500Y-38307500D02*
X51732500Y-35872500D01*
D42*
X51722500Y-33220000D02*
X51720000Y-33217500D01*
%TO.N,Net-(R32-Pad2)*%
X52405000Y-43187500D02*
X52395000Y-43197500D01*
D43*
X54260000Y-43187500D02*
X52405000Y-43187500D01*
X54262500Y-40812500D02*
X54262500Y-43185000D01*
D42*
X54262500Y-43185000D02*
X54260000Y-43187500D01*
D43*
%TO.N,Net-(U7-Pad8)*%
X51722500Y-40812500D02*
X52992500Y-40812500D01*
D42*
%TO.N,Net-(SW1-Pad1)*%
X62687500Y-40812500D02*
X59342500Y-40812500D01*
X72030000Y-31470000D02*
X62687500Y-40812500D01*
X72030000Y-25710000D02*
X72030000Y-31470000D01*
D43*
X58072500Y-40812500D02*
X59342500Y-40812500D01*
%TD*%
M02*
