%TF.GenerationSoftware,KiCad,Pcbnew,6.0.7*%
%TF.CreationDate,2022-10-10T19:28:50-04:00*%
%TF.ProjectId,RadarProject,52616461-7250-4726-9f6a-6563742e6b69,rev?*%
%TF.SameCoordinates,Original*%
%TF.FileFunction,Copper,L3,Inr*%
%TF.FilePolarity,Positive*%
%FSLAX46Y46*%
G04 Gerber Fmt 4.6, Leading zero omitted, Abs format (unit mm)*
G04 Created by KiCad (PCBNEW 6.0.7) date 2022-10-10 19:28:50*
%MOMM*%
%LPD*%
G01*
G04 APERTURE LIST*
%TA.AperFunction,ComponentPad*%
%ADD10C,1.440000*%
%TD*%
%TA.AperFunction,ComponentPad*%
%ADD11R,1.500000X1.050000*%
%TD*%
%TA.AperFunction,ComponentPad*%
%ADD12O,1.500000X1.050000*%
%TD*%
%TA.AperFunction,ComponentPad*%
%ADD13R,1.700000X1.700000*%
%TD*%
%TA.AperFunction,ComponentPad*%
%ADD14O,1.700000X1.700000*%
%TD*%
%TA.AperFunction,ComponentPad*%
%ADD15O,2.200000X3.500000*%
%TD*%
%TA.AperFunction,ComponentPad*%
%ADD16R,1.500000X2.500000*%
%TD*%
%TA.AperFunction,ComponentPad*%
%ADD17O,1.500000X2.500000*%
%TD*%
%TA.AperFunction,ViaPad*%
%ADD18C,0.800000*%
%TD*%
G04 APERTURE END LIST*
D10*
%TO.N,+5V*%
%TO.C,RV1*%
X56810000Y-25797500D03*
%TO.N,Net-(R8-Pad1)*%
X54270000Y-25797500D03*
%TO.N,Earth*%
X51730000Y-25797500D03*
%TD*%
D11*
%TO.N,Net-(Q1-Pad1)*%
%TO.C,Q1*%
X46902500Y-45420000D03*
D12*
%TO.N,Net-(Q1-Pad2)*%
X46902500Y-46690000D03*
%TO.N,Earth*%
X46902500Y-47960000D03*
%TD*%
D13*
%TO.N,Earth*%
%TO.C,J3*%
X64570000Y-58320000D03*
D14*
%TO.N,unconnected-(J3-Pad2)*%
X62030000Y-58320000D03*
%TO.N,Net-(J3-Pad3)*%
X59490000Y-58320000D03*
%TO.N,+5V*%
X56950000Y-58320000D03*
%TO.N,Net-(J3-Pad5)*%
X54410000Y-58320000D03*
%TD*%
D10*
%TO.N,Net-(R6-Pad2)*%
%TO.C,RV2*%
X79110000Y-40247500D03*
%TO.N,Net-(R12-Pad1)*%
X81650000Y-40247500D03*
X84190000Y-40247500D03*
%TD*%
D15*
%TO.N,*%
%TO.C,SW1*%
X65930000Y-25710000D03*
X74130000Y-25710000D03*
D16*
%TO.N,Net-(R31-Pad2)*%
X72030000Y-25710000D03*
D17*
%TO.N,Net-(C11-Pad2)*%
X70030000Y-25710000D03*
%TO.N,Net-(J3-Pad5)*%
X68030000Y-25710000D03*
%TD*%
D18*
%TO.N,Earth*%
X25610000Y-62280000D03*
X78510000Y-28920000D03*
X76540000Y-46220000D03*
X40860000Y-64920000D03*
X46020000Y-65380000D03*
X64370000Y-40520000D03*
X72040000Y-32940000D03*
X25540000Y-30110000D03*
X80380000Y-50670000D03*
X55550000Y-38680000D03*
X29196250Y-51200000D03*
X91240000Y-26940000D03*
X64560000Y-55970000D03*
%TO.N,+5V*%
X77420000Y-44710000D03*
X80380000Y-54480000D03*
X55530000Y-34000000D03*
X60060000Y-25800000D03*
X50570000Y-45170000D03*
X85620000Y-60970000D03*
X81240000Y-34140000D03*
X95190000Y-49500000D03*
X61360000Y-46690000D03*
X46390000Y-31000000D03*
X85260000Y-23330000D03*
X25590000Y-57150000D03*
X79840000Y-64330000D03*
X25450000Y-32650000D03*
%TD*%
%TA.AperFunction,Conductor*%
%TO.N,+5V*%
G36*
X101970018Y-20510000D02*
G01*
X101984851Y-20512310D01*
X101984855Y-20512310D01*
X101993724Y-20513691D01*
X102010923Y-20511442D01*
X102034863Y-20510609D01*
X102292710Y-20526206D01*
X102307814Y-20528040D01*
X102379786Y-20541229D01*
X102588760Y-20579525D01*
X102603526Y-20583164D01*
X102876231Y-20668142D01*
X102890445Y-20673534D01*
X103108223Y-20771547D01*
X103150906Y-20790757D01*
X103164379Y-20797828D01*
X103408813Y-20945595D01*
X103421334Y-20954238D01*
X103646171Y-21130385D01*
X103657560Y-21140475D01*
X103859525Y-21342440D01*
X103869615Y-21353829D01*
X104045762Y-21578666D01*
X104054405Y-21591187D01*
X104202172Y-21835621D01*
X104209242Y-21849092D01*
X104326466Y-22109555D01*
X104331858Y-22123769D01*
X104371168Y-22249921D01*
X104416836Y-22396473D01*
X104420475Y-22411240D01*
X104424223Y-22431688D01*
X104471960Y-22692186D01*
X104473794Y-22707290D01*
X104488953Y-22957904D01*
X104487692Y-22984716D01*
X104487690Y-22984852D01*
X104486309Y-22993724D01*
X104487473Y-23002626D01*
X104487473Y-23002628D01*
X104490436Y-23025283D01*
X104491500Y-23041621D01*
X104491500Y-65950633D01*
X104490000Y-65970018D01*
X104487690Y-65984851D01*
X104487690Y-65984855D01*
X104486309Y-65993724D01*
X104488558Y-66010919D01*
X104489391Y-66034863D01*
X104473794Y-66292710D01*
X104471960Y-66307814D01*
X104470605Y-66315209D01*
X104423410Y-66572750D01*
X104420477Y-66588754D01*
X104416836Y-66603526D01*
X104349847Y-66818503D01*
X104331859Y-66876227D01*
X104326466Y-66890445D01*
X104209243Y-67150906D01*
X104202172Y-67164379D01*
X104054405Y-67408813D01*
X104045762Y-67421334D01*
X103869615Y-67646171D01*
X103859525Y-67657560D01*
X103657560Y-67859525D01*
X103646171Y-67869615D01*
X103421334Y-68045762D01*
X103408813Y-68054405D01*
X103164379Y-68202172D01*
X103150908Y-68209242D01*
X102890445Y-68326466D01*
X102876231Y-68331858D01*
X102603527Y-68416836D01*
X102588760Y-68420475D01*
X102379786Y-68458771D01*
X102307814Y-68471960D01*
X102292710Y-68473794D01*
X102042096Y-68488953D01*
X102015284Y-68487692D01*
X102015148Y-68487690D01*
X102006276Y-68486309D01*
X101997374Y-68487473D01*
X101997372Y-68487473D01*
X101982707Y-68489391D01*
X101974714Y-68490436D01*
X101958379Y-68491500D01*
X23049367Y-68491500D01*
X23029982Y-68490000D01*
X23015149Y-68487690D01*
X23015145Y-68487690D01*
X23006276Y-68486309D01*
X22989077Y-68488558D01*
X22965137Y-68489391D01*
X22707290Y-68473794D01*
X22692186Y-68471960D01*
X22620214Y-68458771D01*
X22411240Y-68420475D01*
X22396473Y-68416836D01*
X22123769Y-68331858D01*
X22109555Y-68326466D01*
X21849092Y-68209242D01*
X21835621Y-68202172D01*
X21591187Y-68054405D01*
X21578666Y-68045762D01*
X21353829Y-67869615D01*
X21342440Y-67859525D01*
X21140475Y-67657560D01*
X21130385Y-67646171D01*
X20954238Y-67421334D01*
X20945595Y-67408813D01*
X20797828Y-67164379D01*
X20790757Y-67150906D01*
X20673534Y-66890445D01*
X20668141Y-66876227D01*
X20650154Y-66818503D01*
X20583164Y-66603526D01*
X20579523Y-66588754D01*
X20576591Y-66572750D01*
X20529395Y-66315209D01*
X20528040Y-66307814D01*
X20526206Y-66292710D01*
X20511269Y-66045768D01*
X20511454Y-66042277D01*
X21137009Y-66042277D01*
X21162625Y-66310769D01*
X21163710Y-66315203D01*
X21163711Y-66315209D01*
X21225645Y-66568312D01*
X21226731Y-66572750D01*
X21327985Y-66822733D01*
X21464265Y-67055482D01*
X21467118Y-67059049D01*
X21584686Y-67206060D01*
X21632716Y-67266119D01*
X21829809Y-67450234D01*
X22051416Y-67603968D01*
X22055499Y-67605999D01*
X22055502Y-67606001D01*
X22136248Y-67646171D01*
X22292894Y-67724101D01*
X22297228Y-67725522D01*
X22297231Y-67725523D01*
X22544853Y-67806698D01*
X22544859Y-67806699D01*
X22549186Y-67808118D01*
X22553677Y-67808898D01*
X22553678Y-67808898D01*
X22811140Y-67853601D01*
X22811148Y-67853602D01*
X22814921Y-67854257D01*
X22818758Y-67854448D01*
X22898578Y-67858422D01*
X22898586Y-67858422D01*
X22900149Y-67858500D01*
X23068512Y-67858500D01*
X23070780Y-67858335D01*
X23070792Y-67858335D01*
X23201884Y-67848823D01*
X23269004Y-67843953D01*
X23273459Y-67842969D01*
X23273462Y-67842969D01*
X23527912Y-67786791D01*
X23527916Y-67786790D01*
X23532372Y-67785806D01*
X23658480Y-67738028D01*
X23780318Y-67691868D01*
X23780321Y-67691867D01*
X23784588Y-67690250D01*
X24020368Y-67559286D01*
X24234773Y-67395657D01*
X24423312Y-67202792D01*
X24582034Y-66984730D01*
X24665190Y-66826676D01*
X24705490Y-66750079D01*
X24705493Y-66750073D01*
X24707615Y-66746039D01*
X24729065Y-66685300D01*
X24795902Y-66496033D01*
X24795902Y-66496032D01*
X24797425Y-66491720D01*
X24833090Y-66310769D01*
X24848700Y-66231572D01*
X24848701Y-66231566D01*
X24849581Y-66227100D01*
X24857956Y-66058866D01*
X24862764Y-65962292D01*
X24862764Y-65962286D01*
X24862991Y-65957723D01*
X24837375Y-65689231D01*
X24814062Y-65593955D01*
X24774355Y-65431688D01*
X24773269Y-65427250D01*
X24672015Y-65177267D01*
X24535735Y-64944518D01*
X24516127Y-64920000D01*
X39946496Y-64920000D01*
X39966458Y-65109928D01*
X40025473Y-65291556D01*
X40120960Y-65456944D01*
X40125378Y-65461851D01*
X40125379Y-65461852D01*
X40167183Y-65508280D01*
X40248747Y-65598866D01*
X40347843Y-65670864D01*
X40379389Y-65693783D01*
X40403248Y-65711118D01*
X40409276Y-65713802D01*
X40409278Y-65713803D01*
X40531969Y-65768428D01*
X40577712Y-65788794D01*
X40671112Y-65808647D01*
X40758056Y-65827128D01*
X40758061Y-65827128D01*
X40764513Y-65828500D01*
X40955487Y-65828500D01*
X40961939Y-65827128D01*
X40961944Y-65827128D01*
X41048888Y-65808647D01*
X41142288Y-65788794D01*
X41188031Y-65768428D01*
X41310722Y-65713803D01*
X41310724Y-65713802D01*
X41316752Y-65711118D01*
X41340612Y-65693783D01*
X41372157Y-65670864D01*
X41471253Y-65598866D01*
X41552817Y-65508280D01*
X41594621Y-65461852D01*
X41594622Y-65461851D01*
X41599040Y-65456944D01*
X41643464Y-65380000D01*
X45106496Y-65380000D01*
X45107186Y-65386565D01*
X45119979Y-65508280D01*
X45126458Y-65569928D01*
X45185473Y-65751556D01*
X45188776Y-65757278D01*
X45188777Y-65757279D01*
X45222686Y-65816010D01*
X45280960Y-65916944D01*
X45285378Y-65921851D01*
X45285379Y-65921852D01*
X45397912Y-66046833D01*
X45408747Y-66058866D01*
X45563248Y-66171118D01*
X45569276Y-66173802D01*
X45569278Y-66173803D01*
X45731681Y-66246109D01*
X45737712Y-66248794D01*
X45831113Y-66268647D01*
X45918056Y-66287128D01*
X45918061Y-66287128D01*
X45924513Y-66288500D01*
X46115487Y-66288500D01*
X46121939Y-66287128D01*
X46121944Y-66287128D01*
X46208888Y-66268647D01*
X46302288Y-66248794D01*
X46308319Y-66246109D01*
X46470722Y-66173803D01*
X46470724Y-66173802D01*
X46476752Y-66171118D01*
X46631253Y-66058866D01*
X46642088Y-66046833D01*
X46646190Y-66042277D01*
X100137009Y-66042277D01*
X100162625Y-66310769D01*
X100163710Y-66315203D01*
X100163711Y-66315209D01*
X100225645Y-66568312D01*
X100226731Y-66572750D01*
X100327985Y-66822733D01*
X100464265Y-67055482D01*
X100467118Y-67059049D01*
X100584686Y-67206060D01*
X100632716Y-67266119D01*
X100829809Y-67450234D01*
X101051416Y-67603968D01*
X101055499Y-67605999D01*
X101055502Y-67606001D01*
X101136248Y-67646171D01*
X101292894Y-67724101D01*
X101297228Y-67725522D01*
X101297231Y-67725523D01*
X101544853Y-67806698D01*
X101544859Y-67806699D01*
X101549186Y-67808118D01*
X101553677Y-67808898D01*
X101553678Y-67808898D01*
X101811140Y-67853601D01*
X101811148Y-67853602D01*
X101814921Y-67854257D01*
X101818758Y-67854448D01*
X101898578Y-67858422D01*
X101898586Y-67858422D01*
X101900149Y-67858500D01*
X102068512Y-67858500D01*
X102070780Y-67858335D01*
X102070792Y-67858335D01*
X102201884Y-67848823D01*
X102269004Y-67843953D01*
X102273459Y-67842969D01*
X102273462Y-67842969D01*
X102527912Y-67786791D01*
X102527916Y-67786790D01*
X102532372Y-67785806D01*
X102658480Y-67738028D01*
X102780318Y-67691868D01*
X102780321Y-67691867D01*
X102784588Y-67690250D01*
X103020368Y-67559286D01*
X103234773Y-67395657D01*
X103423312Y-67202792D01*
X103582034Y-66984730D01*
X103665190Y-66826676D01*
X103705490Y-66750079D01*
X103705493Y-66750073D01*
X103707615Y-66746039D01*
X103729065Y-66685300D01*
X103795902Y-66496033D01*
X103795902Y-66496032D01*
X103797425Y-66491720D01*
X103833090Y-66310769D01*
X103848700Y-66231572D01*
X103848701Y-66231566D01*
X103849581Y-66227100D01*
X103857956Y-66058866D01*
X103862764Y-65962292D01*
X103862764Y-65962286D01*
X103862991Y-65957723D01*
X103837375Y-65689231D01*
X103814062Y-65593955D01*
X103774355Y-65431688D01*
X103773269Y-65427250D01*
X103672015Y-65177267D01*
X103535735Y-64944518D01*
X103417928Y-64797208D01*
X103370136Y-64737447D01*
X103370135Y-64737445D01*
X103367284Y-64733881D01*
X103170191Y-64549766D01*
X102948584Y-64396032D01*
X102944501Y-64394001D01*
X102944498Y-64393999D01*
X102779606Y-64311967D01*
X102707106Y-64275899D01*
X102702772Y-64274478D01*
X102702769Y-64274477D01*
X102455147Y-64193302D01*
X102455141Y-64193301D01*
X102450814Y-64191882D01*
X102446322Y-64191102D01*
X102188860Y-64146399D01*
X102188852Y-64146398D01*
X102185079Y-64145743D01*
X102173817Y-64145182D01*
X102101422Y-64141578D01*
X102101414Y-64141578D01*
X102099851Y-64141500D01*
X101931488Y-64141500D01*
X101929220Y-64141665D01*
X101929208Y-64141665D01*
X101798116Y-64151177D01*
X101730996Y-64156047D01*
X101726541Y-64157031D01*
X101726538Y-64157031D01*
X101472088Y-64213209D01*
X101472084Y-64213210D01*
X101467628Y-64214194D01*
X101382131Y-64246586D01*
X101219682Y-64308132D01*
X101219679Y-64308133D01*
X101215412Y-64309750D01*
X100979632Y-64440714D01*
X100765227Y-64604343D01*
X100576688Y-64797208D01*
X100417966Y-65015270D01*
X100415844Y-65019304D01*
X100294510Y-65249921D01*
X100294507Y-65249927D01*
X100292385Y-65253961D01*
X100290865Y-65258266D01*
X100290863Y-65258270D01*
X100204098Y-65503967D01*
X100202575Y-65508280D01*
X100189187Y-65576206D01*
X100153498Y-65757279D01*
X100150419Y-65772900D01*
X100150192Y-65777453D01*
X100150192Y-65777456D01*
X100137878Y-66024823D01*
X100137009Y-66042277D01*
X46646190Y-66042277D01*
X46754621Y-65921852D01*
X46754622Y-65921851D01*
X46759040Y-65916944D01*
X46817314Y-65816010D01*
X46851223Y-65757279D01*
X46851224Y-65757278D01*
X46854527Y-65751556D01*
X46913542Y-65569928D01*
X46920022Y-65508280D01*
X46932814Y-65386565D01*
X46933504Y-65380000D01*
X46913542Y-65190072D01*
X46854527Y-65008444D01*
X46759040Y-64843056D01*
X46660739Y-64733881D01*
X46635675Y-64706045D01*
X46635674Y-64706044D01*
X46631253Y-64701134D01*
X46476752Y-64588882D01*
X46470724Y-64586198D01*
X46470722Y-64586197D01*
X46308319Y-64513891D01*
X46308318Y-64513891D01*
X46302288Y-64511206D01*
X46208888Y-64491353D01*
X46121944Y-64472872D01*
X46121939Y-64472872D01*
X46115487Y-64471500D01*
X45924513Y-64471500D01*
X45918061Y-64472872D01*
X45918056Y-64472872D01*
X45831113Y-64491353D01*
X45737712Y-64511206D01*
X45731682Y-64513891D01*
X45731681Y-64513891D01*
X45569278Y-64586197D01*
X45569276Y-64586198D01*
X45563248Y-64588882D01*
X45408747Y-64701134D01*
X45404326Y-64706044D01*
X45404325Y-64706045D01*
X45379262Y-64733881D01*
X45280960Y-64843056D01*
X45185473Y-65008444D01*
X45126458Y-65190072D01*
X45106496Y-65380000D01*
X41643464Y-65380000D01*
X41694527Y-65291556D01*
X41753542Y-65109928D01*
X41773504Y-64920000D01*
X41753542Y-64730072D01*
X41694527Y-64548444D01*
X41672236Y-64509834D01*
X41609082Y-64400449D01*
X41599040Y-64383056D01*
X41566853Y-64347308D01*
X41475675Y-64246045D01*
X41475674Y-64246044D01*
X41471253Y-64241134D01*
X41334346Y-64141665D01*
X41322094Y-64132763D01*
X41322093Y-64132762D01*
X41316752Y-64128882D01*
X41310724Y-64126198D01*
X41310722Y-64126197D01*
X41148319Y-64053891D01*
X41148318Y-64053891D01*
X41142288Y-64051206D01*
X41048887Y-64031353D01*
X40961944Y-64012872D01*
X40961939Y-64012872D01*
X40955487Y-64011500D01*
X40764513Y-64011500D01*
X40758061Y-64012872D01*
X40758056Y-64012872D01*
X40671112Y-64031353D01*
X40577712Y-64051206D01*
X40571682Y-64053891D01*
X40571681Y-64053891D01*
X40409278Y-64126197D01*
X40409276Y-64126198D01*
X40403248Y-64128882D01*
X40397907Y-64132762D01*
X40397906Y-64132763D01*
X40385654Y-64141665D01*
X40248747Y-64241134D01*
X40244326Y-64246044D01*
X40244325Y-64246045D01*
X40153148Y-64347308D01*
X40120960Y-64383056D01*
X40110918Y-64400449D01*
X40047765Y-64509834D01*
X40025473Y-64548444D01*
X39966458Y-64730072D01*
X39946496Y-64920000D01*
X24516127Y-64920000D01*
X24417928Y-64797208D01*
X24370136Y-64737447D01*
X24370135Y-64737445D01*
X24367284Y-64733881D01*
X24170191Y-64549766D01*
X23948584Y-64396032D01*
X23944501Y-64394001D01*
X23944498Y-64393999D01*
X23779606Y-64311967D01*
X23707106Y-64275899D01*
X23702772Y-64274478D01*
X23702769Y-64274477D01*
X23455147Y-64193302D01*
X23455141Y-64193301D01*
X23450814Y-64191882D01*
X23446322Y-64191102D01*
X23188860Y-64146399D01*
X23188852Y-64146398D01*
X23185079Y-64145743D01*
X23173817Y-64145182D01*
X23101422Y-64141578D01*
X23101414Y-64141578D01*
X23099851Y-64141500D01*
X22931488Y-64141500D01*
X22929220Y-64141665D01*
X22929208Y-64141665D01*
X22798116Y-64151177D01*
X22730996Y-64156047D01*
X22726541Y-64157031D01*
X22726538Y-64157031D01*
X22472088Y-64213209D01*
X22472084Y-64213210D01*
X22467628Y-64214194D01*
X22382131Y-64246586D01*
X22219682Y-64308132D01*
X22219679Y-64308133D01*
X22215412Y-64309750D01*
X21979632Y-64440714D01*
X21765227Y-64604343D01*
X21576688Y-64797208D01*
X21417966Y-65015270D01*
X21415844Y-65019304D01*
X21294510Y-65249921D01*
X21294507Y-65249927D01*
X21292385Y-65253961D01*
X21290865Y-65258266D01*
X21290863Y-65258270D01*
X21204098Y-65503967D01*
X21202575Y-65508280D01*
X21189187Y-65576206D01*
X21153498Y-65757279D01*
X21150419Y-65772900D01*
X21150192Y-65777453D01*
X21150192Y-65777456D01*
X21137878Y-66024823D01*
X21137009Y-66042277D01*
X20511454Y-66042277D01*
X20512520Y-66022216D01*
X20512334Y-66022199D01*
X20512769Y-66017350D01*
X20513576Y-66012552D01*
X20513729Y-66000000D01*
X20509773Y-65972376D01*
X20508500Y-65954514D01*
X20508500Y-63657264D01*
X80946961Y-63657264D01*
X80962910Y-63819922D01*
X80965134Y-63826607D01*
X80965134Y-63826608D01*
X80976181Y-63859817D01*
X81014499Y-63975005D01*
X81099165Y-64114804D01*
X81212698Y-64232371D01*
X81218590Y-64236226D01*
X81218594Y-64236230D01*
X81302553Y-64291171D01*
X81349457Y-64321864D01*
X81376347Y-64331864D01*
X81496048Y-64376380D01*
X81496051Y-64376381D01*
X81502645Y-64378833D01*
X81509622Y-64379764D01*
X81657666Y-64399518D01*
X81657670Y-64399518D01*
X81664647Y-64400449D01*
X81671658Y-64399811D01*
X81671662Y-64399811D01*
X81820391Y-64386275D01*
X81827412Y-64385636D01*
X81834114Y-64383458D01*
X81834116Y-64383458D01*
X81976152Y-64337308D01*
X81976155Y-64337307D01*
X81982851Y-64335131D01*
X82021709Y-64311967D01*
X82117186Y-64255052D01*
X82117188Y-64255051D01*
X82123238Y-64251444D01*
X82241595Y-64138734D01*
X82332040Y-64002603D01*
X82383779Y-63866400D01*
X82387578Y-63856400D01*
X82387579Y-63856395D01*
X82390078Y-63849817D01*
X82391058Y-63842845D01*
X82412273Y-63691893D01*
X82412273Y-63691888D01*
X82412824Y-63687970D01*
X82412970Y-63677500D01*
X82413055Y-63671462D01*
X82413055Y-63671456D01*
X82413110Y-63667500D01*
X82413084Y-63667264D01*
X85216961Y-63667264D01*
X85232910Y-63829922D01*
X85235134Y-63836607D01*
X85235134Y-63836608D01*
X85258705Y-63907464D01*
X85284499Y-63985005D01*
X85288148Y-63991030D01*
X85363109Y-64114804D01*
X85369165Y-64124804D01*
X85374056Y-64129869D01*
X85374057Y-64129870D01*
X85390019Y-64146399D01*
X85482698Y-64242371D01*
X85488590Y-64246226D01*
X85488594Y-64246230D01*
X85537042Y-64277933D01*
X85619457Y-64331864D01*
X85655132Y-64345131D01*
X85766048Y-64386380D01*
X85766051Y-64386381D01*
X85772645Y-64388833D01*
X85779622Y-64389764D01*
X85927666Y-64409518D01*
X85927670Y-64409518D01*
X85934647Y-64410449D01*
X85941658Y-64409811D01*
X85941662Y-64409811D01*
X86090391Y-64396275D01*
X86097412Y-64395636D01*
X86104114Y-64393458D01*
X86104116Y-64393458D01*
X86246152Y-64347308D01*
X86246155Y-64347307D01*
X86252851Y-64345131D01*
X86281575Y-64328008D01*
X86387186Y-64265052D01*
X86387188Y-64265051D01*
X86393238Y-64261444D01*
X86511595Y-64148734D01*
X86602040Y-64012603D01*
X86618862Y-63968319D01*
X86657578Y-63866400D01*
X86657579Y-63866395D01*
X86660078Y-63859817D01*
X86661058Y-63852845D01*
X86682273Y-63701893D01*
X86682273Y-63701888D01*
X86682824Y-63697970D01*
X86683110Y-63677500D01*
X86664892Y-63515081D01*
X86611142Y-63360734D01*
X86524534Y-63222130D01*
X86519572Y-63217133D01*
X86414333Y-63111157D01*
X86414329Y-63111154D01*
X86409370Y-63106160D01*
X86393536Y-63096111D01*
X86348037Y-63067237D01*
X86271374Y-63018585D01*
X86246835Y-63009847D01*
X86124041Y-62966122D01*
X86124036Y-62966121D01*
X86117406Y-62963760D01*
X86110418Y-62962927D01*
X86110415Y-62962926D01*
X85999476Y-62949697D01*
X85955118Y-62944408D01*
X85948115Y-62945144D01*
X85948114Y-62945144D01*
X85799575Y-62960756D01*
X85799573Y-62960757D01*
X85792575Y-62961492D01*
X85711273Y-62989169D01*
X85644527Y-63011891D01*
X85644524Y-63011892D01*
X85637857Y-63014162D01*
X85498652Y-63099801D01*
X85487056Y-63111157D01*
X85389049Y-63207133D01*
X85381880Y-63214153D01*
X85293345Y-63351534D01*
X85290936Y-63358154D01*
X85290935Y-63358155D01*
X85265395Y-63428325D01*
X85237446Y-63505115D01*
X85216961Y-63667264D01*
X82413084Y-63667264D01*
X82404087Y-63587060D01*
X82395677Y-63512077D01*
X82395676Y-63512075D01*
X82394892Y-63505081D01*
X82341142Y-63350734D01*
X82283774Y-63258924D01*
X82258266Y-63218102D01*
X82258264Y-63218100D01*
X82254534Y-63212130D01*
X82249572Y-63207133D01*
X82144333Y-63101157D01*
X82144329Y-63101154D01*
X82139370Y-63096160D01*
X82123536Y-63086111D01*
X82017131Y-63018585D01*
X82001374Y-63008585D01*
X81976835Y-62999847D01*
X81854041Y-62956122D01*
X81854036Y-62956121D01*
X81847406Y-62953760D01*
X81840418Y-62952927D01*
X81840415Y-62952926D01*
X81729476Y-62939697D01*
X81685118Y-62934408D01*
X81678115Y-62935144D01*
X81678114Y-62935144D01*
X81529575Y-62950756D01*
X81529573Y-62950757D01*
X81522575Y-62951492D01*
X81441273Y-62979169D01*
X81374527Y-63001891D01*
X81374524Y-63001892D01*
X81367857Y-63004162D01*
X81361858Y-63007852D01*
X81361857Y-63007853D01*
X81338270Y-63022364D01*
X81228652Y-63089801D01*
X81217056Y-63101157D01*
X81167010Y-63150166D01*
X81111880Y-63204153D01*
X81023345Y-63341534D01*
X81020936Y-63348154D01*
X81020935Y-63348155D01*
X81017295Y-63358155D01*
X80967446Y-63495115D01*
X80946961Y-63657264D01*
X20508500Y-63657264D01*
X20508500Y-62280000D01*
X24696496Y-62280000D01*
X24716458Y-62469928D01*
X24775473Y-62651556D01*
X24870960Y-62816944D01*
X24875378Y-62821851D01*
X24875379Y-62821852D01*
X24994150Y-62953761D01*
X24998747Y-62958866D01*
X25153248Y-63071118D01*
X25159276Y-63073802D01*
X25159278Y-63073803D01*
X25321681Y-63146109D01*
X25327712Y-63148794D01*
X25421113Y-63168647D01*
X25508056Y-63187128D01*
X25508061Y-63187128D01*
X25514513Y-63188500D01*
X25705487Y-63188500D01*
X25711939Y-63187128D01*
X25711944Y-63187128D01*
X25798887Y-63168647D01*
X25892288Y-63148794D01*
X25898319Y-63146109D01*
X26060722Y-63073803D01*
X26060724Y-63073802D01*
X26066752Y-63071118D01*
X26221253Y-62958866D01*
X26225850Y-62953761D01*
X26344621Y-62821852D01*
X26344622Y-62821851D01*
X26349040Y-62816944D01*
X26444527Y-62651556D01*
X26503542Y-62469928D01*
X26523504Y-62280000D01*
X26503542Y-62090072D01*
X26444527Y-61908444D01*
X26349040Y-61743056D01*
X26221253Y-61601134D01*
X26066752Y-61488882D01*
X26060724Y-61486198D01*
X26060722Y-61486197D01*
X25898319Y-61413891D01*
X25898318Y-61413891D01*
X25892288Y-61411206D01*
X25798887Y-61391353D01*
X25711944Y-61372872D01*
X25711939Y-61372872D01*
X25705487Y-61371500D01*
X25514513Y-61371500D01*
X25508061Y-61372872D01*
X25508056Y-61372872D01*
X25421112Y-61391353D01*
X25327712Y-61411206D01*
X25321682Y-61413891D01*
X25321681Y-61413891D01*
X25159278Y-61486197D01*
X25159276Y-61486198D01*
X25153248Y-61488882D01*
X24998747Y-61601134D01*
X24870960Y-61743056D01*
X24775473Y-61908444D01*
X24716458Y-62090072D01*
X24696496Y-62280000D01*
X20508500Y-62280000D01*
X20508500Y-58286695D01*
X53047251Y-58286695D01*
X53060110Y-58509715D01*
X53061247Y-58514761D01*
X53061248Y-58514767D01*
X53082275Y-58608069D01*
X53109222Y-58727639D01*
X53193266Y-58934616D01*
X53230685Y-58995678D01*
X53307291Y-59120688D01*
X53309987Y-59125088D01*
X53456250Y-59293938D01*
X53628126Y-59436632D01*
X53821000Y-59549338D01*
X54029692Y-59629030D01*
X54034760Y-59630061D01*
X54034763Y-59630062D01*
X54129862Y-59649410D01*
X54248597Y-59673567D01*
X54253772Y-59673757D01*
X54253774Y-59673757D01*
X54466673Y-59681564D01*
X54466677Y-59681564D01*
X54471837Y-59681753D01*
X54476957Y-59681097D01*
X54476959Y-59681097D01*
X54688288Y-59654025D01*
X54688289Y-59654025D01*
X54693416Y-59653368D01*
X54698366Y-59651883D01*
X54902429Y-59590661D01*
X54902434Y-59590659D01*
X54907384Y-59589174D01*
X55107994Y-59490896D01*
X55289860Y-59361173D01*
X55448096Y-59203489D01*
X55507594Y-59120689D01*
X55578453Y-59022077D01*
X55579640Y-59022930D01*
X55626960Y-58979362D01*
X55696897Y-58967145D01*
X55762338Y-58994678D01*
X55790166Y-59026511D01*
X55847694Y-59120388D01*
X55853777Y-59128699D01*
X55993213Y-59289667D01*
X56000580Y-59296883D01*
X56164434Y-59432916D01*
X56172881Y-59438831D01*
X56356756Y-59546279D01*
X56366042Y-59550729D01*
X56565001Y-59626703D01*
X56574899Y-59629579D01*
X56678250Y-59650606D01*
X56692299Y-59649410D01*
X56696000Y-59639065D01*
X56696000Y-59638517D01*
X57204000Y-59638517D01*
X57208064Y-59652359D01*
X57221478Y-59654393D01*
X57228184Y-59653534D01*
X57238262Y-59651392D01*
X57442255Y-59590191D01*
X57451842Y-59586433D01*
X57643095Y-59492739D01*
X57651945Y-59487464D01*
X57825328Y-59363792D01*
X57833200Y-59357139D01*
X57984052Y-59206812D01*
X57990730Y-59198965D01*
X58118022Y-59021819D01*
X58119279Y-59022722D01*
X58166373Y-58979362D01*
X58236311Y-58967145D01*
X58301751Y-58994678D01*
X58329579Y-59026511D01*
X58389987Y-59125088D01*
X58536250Y-59293938D01*
X58708126Y-59436632D01*
X58901000Y-59549338D01*
X59109692Y-59629030D01*
X59114760Y-59630061D01*
X59114763Y-59630062D01*
X59209862Y-59649410D01*
X59328597Y-59673567D01*
X59333772Y-59673757D01*
X59333774Y-59673757D01*
X59546673Y-59681564D01*
X59546677Y-59681564D01*
X59551837Y-59681753D01*
X59556957Y-59681097D01*
X59556959Y-59681097D01*
X59768288Y-59654025D01*
X59768289Y-59654025D01*
X59773416Y-59653368D01*
X59778366Y-59651883D01*
X59982429Y-59590661D01*
X59982434Y-59590659D01*
X59987384Y-59589174D01*
X60187994Y-59490896D01*
X60369860Y-59361173D01*
X60528096Y-59203489D01*
X60587594Y-59120689D01*
X60658453Y-59022077D01*
X60659776Y-59023028D01*
X60706645Y-58979857D01*
X60776580Y-58967625D01*
X60842026Y-58995144D01*
X60869875Y-59026994D01*
X60929987Y-59125088D01*
X61076250Y-59293938D01*
X61248126Y-59436632D01*
X61441000Y-59549338D01*
X61649692Y-59629030D01*
X61654760Y-59630061D01*
X61654763Y-59630062D01*
X61749862Y-59649410D01*
X61868597Y-59673567D01*
X61873772Y-59673757D01*
X61873774Y-59673757D01*
X62086673Y-59681564D01*
X62086677Y-59681564D01*
X62091837Y-59681753D01*
X62096957Y-59681097D01*
X62096959Y-59681097D01*
X62308288Y-59654025D01*
X62308289Y-59654025D01*
X62313416Y-59653368D01*
X62318366Y-59651883D01*
X62522429Y-59590661D01*
X62522434Y-59590659D01*
X62527384Y-59589174D01*
X62727994Y-59490896D01*
X62909860Y-59361173D01*
X63018091Y-59253319D01*
X63080462Y-59219404D01*
X63151268Y-59224592D01*
X63208030Y-59267238D01*
X63225012Y-59298341D01*
X63269385Y-59416705D01*
X63356739Y-59533261D01*
X63473295Y-59620615D01*
X63609684Y-59671745D01*
X63671866Y-59678500D01*
X65468134Y-59678500D01*
X65530316Y-59671745D01*
X65666705Y-59620615D01*
X65783261Y-59533261D01*
X65870615Y-59416705D01*
X65921745Y-59280316D01*
X65928500Y-59218134D01*
X65928500Y-57421866D01*
X65921745Y-57359684D01*
X65870615Y-57223295D01*
X65783261Y-57106739D01*
X65666705Y-57019385D01*
X65530316Y-56968255D01*
X65468134Y-56961500D01*
X65128738Y-56961500D01*
X65060617Y-56941498D01*
X65014124Y-56887842D01*
X65004020Y-56817568D01*
X65033514Y-56752988D01*
X65054677Y-56733564D01*
X65096976Y-56702832D01*
X65171253Y-56648866D01*
X65241860Y-56570449D01*
X65294621Y-56511852D01*
X65294622Y-56511851D01*
X65299040Y-56506944D01*
X65394527Y-56341556D01*
X65453542Y-56159928D01*
X65455111Y-56145005D01*
X65472814Y-55976565D01*
X65473504Y-55970000D01*
X65470191Y-55938474D01*
X65459553Y-55837264D01*
X75836961Y-55837264D01*
X75852910Y-55999922D01*
X75855134Y-56006607D01*
X75855134Y-56006608D01*
X75865837Y-56038781D01*
X75904499Y-56155005D01*
X75908148Y-56161030D01*
X75983109Y-56284804D01*
X75989165Y-56294804D01*
X75994056Y-56299869D01*
X75994057Y-56299870D01*
X76003612Y-56309764D01*
X76102698Y-56412371D01*
X76108590Y-56416226D01*
X76108594Y-56416230D01*
X76192553Y-56471171D01*
X76239457Y-56501864D01*
X76275132Y-56515131D01*
X76386048Y-56556380D01*
X76386051Y-56556381D01*
X76392645Y-56558833D01*
X76399622Y-56559764D01*
X76547666Y-56579518D01*
X76547670Y-56579518D01*
X76554647Y-56580449D01*
X76561658Y-56579811D01*
X76561662Y-56579811D01*
X76710391Y-56566275D01*
X76717412Y-56565636D01*
X76724114Y-56563458D01*
X76724116Y-56563458D01*
X76866152Y-56517308D01*
X76866155Y-56517307D01*
X76872851Y-56515131D01*
X76901575Y-56498008D01*
X77007186Y-56435052D01*
X77007188Y-56435051D01*
X77013238Y-56431444D01*
X77131595Y-56318734D01*
X77222040Y-56182603D01*
X77272461Y-56049870D01*
X77277578Y-56036400D01*
X77277579Y-56036395D01*
X77280078Y-56029817D01*
X77281058Y-56022845D01*
X77302273Y-55871893D01*
X77302273Y-55871888D01*
X77302824Y-55867970D01*
X77303110Y-55847500D01*
X77300840Y-55827264D01*
X78376961Y-55827264D01*
X78392910Y-55989922D01*
X78395134Y-55996607D01*
X78395134Y-55996608D01*
X78406181Y-56029817D01*
X78444499Y-56145005D01*
X78448148Y-56151030D01*
X78517251Y-56265131D01*
X78529165Y-56284804D01*
X78534056Y-56289869D01*
X78534057Y-56289870D01*
X78556261Y-56312863D01*
X78642698Y-56402371D01*
X78648590Y-56406226D01*
X78648594Y-56406230D01*
X78732553Y-56461171D01*
X78779457Y-56491864D01*
X78806347Y-56501864D01*
X78926048Y-56546380D01*
X78926051Y-56546381D01*
X78932645Y-56548833D01*
X78939622Y-56549764D01*
X79087666Y-56569518D01*
X79087670Y-56569518D01*
X79094647Y-56570449D01*
X79101658Y-56569811D01*
X79101662Y-56569811D01*
X79250391Y-56556275D01*
X79257412Y-56555636D01*
X79264114Y-56553458D01*
X79264116Y-56553458D01*
X79406152Y-56507308D01*
X79406155Y-56507307D01*
X79412851Y-56505131D01*
X79441575Y-56488008D01*
X79547186Y-56425052D01*
X79547188Y-56425051D01*
X79553238Y-56421444D01*
X79671595Y-56308734D01*
X79762040Y-56172603D01*
X79775470Y-56137247D01*
X79817578Y-56026400D01*
X79817579Y-56026395D01*
X79820078Y-56019817D01*
X79821058Y-56012845D01*
X79842273Y-55861893D01*
X79842273Y-55861888D01*
X79842824Y-55857970D01*
X79842970Y-55847500D01*
X79843055Y-55841462D01*
X79843055Y-55841456D01*
X79843110Y-55837500D01*
X79833287Y-55749922D01*
X79825677Y-55682077D01*
X79825676Y-55682075D01*
X79824892Y-55675081D01*
X79794310Y-55587264D01*
X80916961Y-55587264D01*
X80932910Y-55749922D01*
X80935134Y-55756607D01*
X80935134Y-55756608D01*
X80945123Y-55786635D01*
X80984499Y-55905005D01*
X81069165Y-56044804D01*
X81182698Y-56162371D01*
X81188590Y-56166226D01*
X81188594Y-56166230D01*
X81222587Y-56188474D01*
X81319457Y-56251864D01*
X81355132Y-56265131D01*
X81466048Y-56306380D01*
X81466051Y-56306381D01*
X81472645Y-56308833D01*
X81479622Y-56309764D01*
X81627666Y-56329518D01*
X81627670Y-56329518D01*
X81634647Y-56330449D01*
X81641658Y-56329811D01*
X81641662Y-56329811D01*
X81790391Y-56316275D01*
X81797412Y-56315636D01*
X81804114Y-56313458D01*
X81804116Y-56313458D01*
X81946152Y-56267308D01*
X81946155Y-56267307D01*
X81952851Y-56265131D01*
X82081445Y-56188474D01*
X82087186Y-56185052D01*
X82087188Y-56185051D01*
X82093238Y-56181444D01*
X82211595Y-56068734D01*
X82302040Y-55932603D01*
X82326592Y-55867970D01*
X82357578Y-55786400D01*
X82357579Y-55786395D01*
X82360078Y-55779817D01*
X82363340Y-55756608D01*
X82382273Y-55621893D01*
X82382273Y-55621888D01*
X82382824Y-55617970D01*
X82383110Y-55597500D01*
X82364892Y-55435081D01*
X82311142Y-55280734D01*
X82246856Y-55177853D01*
X82228266Y-55148102D01*
X82228264Y-55148100D01*
X82224534Y-55142130D01*
X82218568Y-55136122D01*
X82114333Y-55031157D01*
X82114329Y-55031154D01*
X82109370Y-55026160D01*
X82093536Y-55016111D01*
X82056440Y-54992569D01*
X81971374Y-54938585D01*
X81946835Y-54929847D01*
X81824041Y-54886122D01*
X81824036Y-54886121D01*
X81817406Y-54883760D01*
X81810418Y-54882927D01*
X81810415Y-54882926D01*
X81699476Y-54869697D01*
X81655118Y-54864408D01*
X81648115Y-54865144D01*
X81648114Y-54865144D01*
X81499575Y-54880756D01*
X81499573Y-54880757D01*
X81492575Y-54881492D01*
X81411273Y-54909169D01*
X81344527Y-54931891D01*
X81344524Y-54931892D01*
X81337857Y-54934162D01*
X81198652Y-55019801D01*
X81187056Y-55031157D01*
X81093345Y-55122926D01*
X81081880Y-55134153D01*
X80993345Y-55271534D01*
X80990936Y-55278154D01*
X80990935Y-55278155D01*
X80986211Y-55291134D01*
X80937446Y-55425115D01*
X80916961Y-55587264D01*
X79794310Y-55587264D01*
X79771142Y-55520734D01*
X79707256Y-55418494D01*
X79688266Y-55388102D01*
X79688264Y-55388100D01*
X79684534Y-55382130D01*
X79679572Y-55377133D01*
X79574333Y-55271157D01*
X79574329Y-55271154D01*
X79569370Y-55266160D01*
X79553536Y-55256111D01*
X79447131Y-55188585D01*
X79431374Y-55178585D01*
X79406835Y-55169847D01*
X79284041Y-55126122D01*
X79284036Y-55126121D01*
X79277406Y-55123760D01*
X79270418Y-55122927D01*
X79270415Y-55122926D01*
X79159476Y-55109697D01*
X79115118Y-55104408D01*
X79108115Y-55105144D01*
X79108114Y-55105144D01*
X78959575Y-55120756D01*
X78959573Y-55120757D01*
X78952575Y-55121492D01*
X78891951Y-55142130D01*
X78804527Y-55171891D01*
X78804524Y-55171892D01*
X78797857Y-55174162D01*
X78791858Y-55177852D01*
X78791857Y-55177853D01*
X78768270Y-55192364D01*
X78658652Y-55259801D01*
X78541880Y-55374153D01*
X78453345Y-55511534D01*
X78450936Y-55518154D01*
X78450935Y-55518155D01*
X78447295Y-55528155D01*
X78397446Y-55665115D01*
X78376961Y-55827264D01*
X77300840Y-55827264D01*
X77284892Y-55685081D01*
X77231142Y-55530734D01*
X77144534Y-55392130D01*
X77139572Y-55387133D01*
X77034333Y-55281157D01*
X77034329Y-55281154D01*
X77029370Y-55276160D01*
X77013536Y-55266111D01*
X76976440Y-55242569D01*
X76891374Y-55188585D01*
X76864125Y-55178882D01*
X76744041Y-55136122D01*
X76744036Y-55136121D01*
X76737406Y-55133760D01*
X76730418Y-55132927D01*
X76730415Y-55132926D01*
X76619476Y-55119697D01*
X76575118Y-55114408D01*
X76568115Y-55115144D01*
X76568114Y-55115144D01*
X76419575Y-55130756D01*
X76419573Y-55130757D01*
X76412575Y-55131492D01*
X76331273Y-55159169D01*
X76264527Y-55181891D01*
X76264524Y-55181892D01*
X76257857Y-55184162D01*
X76118652Y-55269801D01*
X76110121Y-55278155D01*
X76009049Y-55377133D01*
X76001880Y-55384153D01*
X75913345Y-55521534D01*
X75910936Y-55528154D01*
X75910935Y-55528155D01*
X75891967Y-55580270D01*
X75857446Y-55675115D01*
X75836961Y-55837264D01*
X65459553Y-55837264D01*
X65454232Y-55786635D01*
X65454232Y-55786633D01*
X65453542Y-55780072D01*
X65394527Y-55598444D01*
X65299040Y-55433056D01*
X65285929Y-55418494D01*
X65175675Y-55296045D01*
X65175674Y-55296044D01*
X65171253Y-55291134D01*
X65072157Y-55219136D01*
X65022094Y-55182763D01*
X65022093Y-55182762D01*
X65016752Y-55178882D01*
X65010724Y-55176198D01*
X65010722Y-55176197D01*
X64848319Y-55103891D01*
X64848318Y-55103891D01*
X64842288Y-55101206D01*
X64748887Y-55081353D01*
X64661944Y-55062872D01*
X64661939Y-55062872D01*
X64655487Y-55061500D01*
X64464513Y-55061500D01*
X64458061Y-55062872D01*
X64458056Y-55062872D01*
X64371113Y-55081353D01*
X64277712Y-55101206D01*
X64271682Y-55103891D01*
X64271681Y-55103891D01*
X64109278Y-55176197D01*
X64109276Y-55176198D01*
X64103248Y-55178882D01*
X64097907Y-55182762D01*
X64097906Y-55182763D01*
X64047843Y-55219136D01*
X63948747Y-55291134D01*
X63944326Y-55296044D01*
X63944325Y-55296045D01*
X63834072Y-55418494D01*
X63820960Y-55433056D01*
X63725473Y-55598444D01*
X63666458Y-55780072D01*
X63665768Y-55786633D01*
X63665768Y-55786635D01*
X63649809Y-55938474D01*
X63646496Y-55970000D01*
X63647186Y-55976565D01*
X63664890Y-56145005D01*
X63666458Y-56159928D01*
X63725473Y-56341556D01*
X63820960Y-56506944D01*
X63825378Y-56511851D01*
X63825379Y-56511852D01*
X63878140Y-56570449D01*
X63948747Y-56648866D01*
X64023024Y-56702832D01*
X64065323Y-56733564D01*
X64108677Y-56789787D01*
X64114752Y-56860523D01*
X64081620Y-56923314D01*
X64019800Y-56958226D01*
X63991262Y-56961500D01*
X63671866Y-56961500D01*
X63609684Y-56968255D01*
X63473295Y-57019385D01*
X63356739Y-57106739D01*
X63269385Y-57223295D01*
X63266233Y-57231703D01*
X63224919Y-57341907D01*
X63182277Y-57398671D01*
X63115716Y-57423371D01*
X63046367Y-57408163D01*
X63013743Y-57382476D01*
X62963151Y-57326875D01*
X62963142Y-57326866D01*
X62959670Y-57323051D01*
X62955619Y-57319852D01*
X62955615Y-57319848D01*
X62788414Y-57187800D01*
X62788410Y-57187798D01*
X62784359Y-57184598D01*
X62748028Y-57164542D01*
X62732136Y-57155769D01*
X62588789Y-57076638D01*
X62583920Y-57074914D01*
X62583916Y-57074912D01*
X62383087Y-57003795D01*
X62383083Y-57003794D01*
X62378212Y-57002069D01*
X62373119Y-57001162D01*
X62373116Y-57001161D01*
X62163373Y-56963800D01*
X62163367Y-56963799D01*
X62158284Y-56962894D01*
X62084452Y-56961992D01*
X61940081Y-56960228D01*
X61940079Y-56960228D01*
X61934911Y-56960165D01*
X61714091Y-56993955D01*
X61501756Y-57063357D01*
X61303607Y-57166507D01*
X61299474Y-57169610D01*
X61299471Y-57169612D01*
X61129100Y-57297530D01*
X61124965Y-57300635D01*
X61099541Y-57327240D01*
X61031280Y-57398671D01*
X60970629Y-57462138D01*
X60863201Y-57619621D01*
X60808293Y-57664621D01*
X60737768Y-57672792D01*
X60674021Y-57641538D01*
X60653324Y-57617054D01*
X60572822Y-57492617D01*
X60572820Y-57492614D01*
X60570014Y-57488277D01*
X60419670Y-57323051D01*
X60415619Y-57319852D01*
X60415615Y-57319848D01*
X60248414Y-57187800D01*
X60248410Y-57187798D01*
X60244359Y-57184598D01*
X60208028Y-57164542D01*
X60192136Y-57155769D01*
X60048789Y-57076638D01*
X60043920Y-57074914D01*
X60043916Y-57074912D01*
X59843087Y-57003795D01*
X59843083Y-57003794D01*
X59838212Y-57002069D01*
X59833119Y-57001162D01*
X59833116Y-57001161D01*
X59623373Y-56963800D01*
X59623367Y-56963799D01*
X59618284Y-56962894D01*
X59544452Y-56961992D01*
X59400081Y-56960228D01*
X59400079Y-56960228D01*
X59394911Y-56960165D01*
X59174091Y-56993955D01*
X58961756Y-57063357D01*
X58763607Y-57166507D01*
X58759474Y-57169610D01*
X58759471Y-57169612D01*
X58589100Y-57297530D01*
X58584965Y-57300635D01*
X58559541Y-57327240D01*
X58491280Y-57398671D01*
X58430629Y-57462138D01*
X58323204Y-57619618D01*
X58322898Y-57620066D01*
X58267987Y-57665069D01*
X58197462Y-57673240D01*
X58133715Y-57641986D01*
X58113018Y-57617502D01*
X58032426Y-57492926D01*
X58026136Y-57484757D01*
X57882806Y-57327240D01*
X57875273Y-57320215D01*
X57708139Y-57188222D01*
X57699552Y-57182517D01*
X57513117Y-57079599D01*
X57503705Y-57075369D01*
X57302959Y-57004280D01*
X57292988Y-57001646D01*
X57221837Y-56988972D01*
X57208540Y-56990432D01*
X57204000Y-57004989D01*
X57204000Y-59638517D01*
X56696000Y-59638517D01*
X56696000Y-57003102D01*
X56692082Y-56989758D01*
X56677806Y-56987771D01*
X56639324Y-56993660D01*
X56629288Y-56996051D01*
X56426868Y-57062212D01*
X56417359Y-57066209D01*
X56228463Y-57164542D01*
X56219738Y-57170036D01*
X56049433Y-57297905D01*
X56041726Y-57304748D01*
X55894590Y-57458717D01*
X55888109Y-57466722D01*
X55783498Y-57620074D01*
X55728587Y-57665076D01*
X55658062Y-57673247D01*
X55594315Y-57641993D01*
X55573618Y-57617509D01*
X55492822Y-57492617D01*
X55492820Y-57492614D01*
X55490014Y-57488277D01*
X55339670Y-57323051D01*
X55335619Y-57319852D01*
X55335615Y-57319848D01*
X55168414Y-57187800D01*
X55168410Y-57187798D01*
X55164359Y-57184598D01*
X55128028Y-57164542D01*
X55112136Y-57155769D01*
X54968789Y-57076638D01*
X54963920Y-57074914D01*
X54963916Y-57074912D01*
X54763087Y-57003795D01*
X54763083Y-57003794D01*
X54758212Y-57002069D01*
X54753119Y-57001162D01*
X54753116Y-57001161D01*
X54543373Y-56963800D01*
X54543367Y-56963799D01*
X54538284Y-56962894D01*
X54464452Y-56961992D01*
X54320081Y-56960228D01*
X54320079Y-56960228D01*
X54314911Y-56960165D01*
X54094091Y-56993955D01*
X53881756Y-57063357D01*
X53683607Y-57166507D01*
X53679474Y-57169610D01*
X53679471Y-57169612D01*
X53509100Y-57297530D01*
X53504965Y-57300635D01*
X53479541Y-57327240D01*
X53411280Y-57398671D01*
X53350629Y-57462138D01*
X53224743Y-57646680D01*
X53130688Y-57849305D01*
X53070989Y-58064570D01*
X53047251Y-58286695D01*
X20508500Y-58286695D01*
X20508500Y-54087264D01*
X82976961Y-54087264D01*
X82992910Y-54249922D01*
X82995134Y-54256607D01*
X82995134Y-54256608D01*
X83018705Y-54327464D01*
X83044499Y-54405005D01*
X83129165Y-54544804D01*
X83242698Y-54662371D01*
X83248590Y-54666226D01*
X83248594Y-54666230D01*
X83332553Y-54721171D01*
X83379457Y-54751864D01*
X83415132Y-54765131D01*
X83526048Y-54806380D01*
X83526051Y-54806381D01*
X83532645Y-54808833D01*
X83539622Y-54809764D01*
X83687666Y-54829518D01*
X83687670Y-54829518D01*
X83694647Y-54830449D01*
X83701658Y-54829811D01*
X83701662Y-54829811D01*
X83850391Y-54816275D01*
X83857412Y-54815636D01*
X83864114Y-54813458D01*
X83864116Y-54813458D01*
X84006152Y-54767308D01*
X84006155Y-54767307D01*
X84012851Y-54765131D01*
X84041575Y-54748008D01*
X84147186Y-54685052D01*
X84147188Y-54685051D01*
X84153238Y-54681444D01*
X84271595Y-54568734D01*
X84362040Y-54432603D01*
X84375470Y-54397247D01*
X84417578Y-54286400D01*
X84417579Y-54286395D01*
X84420078Y-54279817D01*
X84423340Y-54256608D01*
X84442273Y-54121893D01*
X84442273Y-54121888D01*
X84442824Y-54117970D01*
X84443110Y-54097500D01*
X84424892Y-53935081D01*
X84371142Y-53780734D01*
X84284534Y-53642130D01*
X84279572Y-53637133D01*
X84174333Y-53531157D01*
X84174329Y-53531154D01*
X84169370Y-53526160D01*
X84153536Y-53516111D01*
X84116440Y-53492569D01*
X84031374Y-53438585D01*
X83978650Y-53419811D01*
X83884041Y-53386122D01*
X83884036Y-53386121D01*
X83877406Y-53383760D01*
X83870418Y-53382927D01*
X83870415Y-53382926D01*
X83759476Y-53369697D01*
X83715118Y-53364408D01*
X83708115Y-53365144D01*
X83708114Y-53365144D01*
X83559575Y-53380756D01*
X83559573Y-53380757D01*
X83552575Y-53381492D01*
X83508842Y-53396380D01*
X83404527Y-53431891D01*
X83404524Y-53431892D01*
X83397857Y-53434162D01*
X83258652Y-53519801D01*
X83141880Y-53634153D01*
X83053345Y-53771534D01*
X83050936Y-53778154D01*
X83050935Y-53778155D01*
X83025395Y-53848325D01*
X82997446Y-53925115D01*
X82976961Y-54087264D01*
X20508500Y-54087264D01*
X20508500Y-52677264D01*
X84796961Y-52677264D01*
X84812910Y-52839922D01*
X84815134Y-52846607D01*
X84815134Y-52846608D01*
X84838705Y-52917464D01*
X84864499Y-52995005D01*
X84949165Y-53134804D01*
X85062698Y-53252371D01*
X85068590Y-53256226D01*
X85068594Y-53256230D01*
X85152553Y-53311171D01*
X85199457Y-53341864D01*
X85235132Y-53355131D01*
X85346048Y-53396380D01*
X85346051Y-53396381D01*
X85352645Y-53398833D01*
X85359622Y-53399764D01*
X85507666Y-53419518D01*
X85507670Y-53419518D01*
X85514647Y-53420449D01*
X85521658Y-53419811D01*
X85521662Y-53419811D01*
X85670391Y-53406275D01*
X85677412Y-53405636D01*
X85684114Y-53403458D01*
X85684116Y-53403458D01*
X85826152Y-53357308D01*
X85826155Y-53357307D01*
X85832851Y-53355131D01*
X85861575Y-53338008D01*
X85967186Y-53275052D01*
X85967188Y-53275051D01*
X85973238Y-53271444D01*
X86091595Y-53158734D01*
X86182040Y-53022603D01*
X86195470Y-52987247D01*
X86237578Y-52876400D01*
X86237579Y-52876395D01*
X86240078Y-52869817D01*
X86243340Y-52846608D01*
X86262273Y-52711893D01*
X86262273Y-52711888D01*
X86262824Y-52707970D01*
X86263110Y-52687500D01*
X86244892Y-52525081D01*
X86191142Y-52370734D01*
X86104534Y-52232130D01*
X86099572Y-52227133D01*
X85994333Y-52121157D01*
X85994329Y-52121154D01*
X85989370Y-52116160D01*
X85973960Y-52106380D01*
X85914733Y-52068794D01*
X85851374Y-52028585D01*
X85826835Y-52019847D01*
X85704041Y-51976122D01*
X85704036Y-51976121D01*
X85697406Y-51973760D01*
X85690418Y-51972927D01*
X85690415Y-51972926D01*
X85579476Y-51959697D01*
X85535118Y-51954408D01*
X85528115Y-51955144D01*
X85528114Y-51955144D01*
X85379575Y-51970756D01*
X85379573Y-51970757D01*
X85372575Y-51971492D01*
X85291273Y-51999169D01*
X85224527Y-52021891D01*
X85224524Y-52021892D01*
X85217857Y-52024162D01*
X85078652Y-52109801D01*
X84961880Y-52224153D01*
X84873345Y-52361534D01*
X84870936Y-52368154D01*
X84870935Y-52368155D01*
X84845396Y-52438324D01*
X84817446Y-52515115D01*
X84796961Y-52677264D01*
X20508500Y-52677264D01*
X20508500Y-51200000D01*
X28282746Y-51200000D01*
X28302708Y-51389928D01*
X28361723Y-51571556D01*
X28365026Y-51577278D01*
X28365027Y-51577279D01*
X28370293Y-51586400D01*
X28457210Y-51736944D01*
X28584997Y-51878866D01*
X28739498Y-51991118D01*
X28745526Y-51993802D01*
X28745528Y-51993803D01*
X28907931Y-52066109D01*
X28913962Y-52068794D01*
X29007363Y-52088647D01*
X29094306Y-52107128D01*
X29094311Y-52107128D01*
X29100763Y-52108500D01*
X29291737Y-52108500D01*
X29298189Y-52107128D01*
X29298194Y-52107128D01*
X29385137Y-52088647D01*
X29478538Y-52068794D01*
X29484569Y-52066109D01*
X29646972Y-51993803D01*
X29646974Y-51993802D01*
X29653002Y-51991118D01*
X29807503Y-51878866D01*
X29935290Y-51736944D01*
X30022207Y-51586400D01*
X30027473Y-51577279D01*
X30027474Y-51577278D01*
X30030777Y-51571556D01*
X30089792Y-51389928D01*
X30090072Y-51387264D01*
X74446961Y-51387264D01*
X74462910Y-51549922D01*
X74465134Y-51556607D01*
X74465134Y-51556608D01*
X74488705Y-51627464D01*
X74514499Y-51705005D01*
X74599165Y-51844804D01*
X74712698Y-51962371D01*
X74718590Y-51966226D01*
X74718594Y-51966230D01*
X74802553Y-52021171D01*
X74849457Y-52051864D01*
X74885132Y-52065131D01*
X74996048Y-52106380D01*
X74996051Y-52106381D01*
X75002645Y-52108833D01*
X75009622Y-52109764D01*
X75157666Y-52129518D01*
X75157670Y-52129518D01*
X75164647Y-52130449D01*
X75171658Y-52129811D01*
X75171662Y-52129811D01*
X75320391Y-52116275D01*
X75327412Y-52115636D01*
X75334114Y-52113458D01*
X75334116Y-52113458D01*
X75476152Y-52067308D01*
X75476155Y-52067307D01*
X75482851Y-52065131D01*
X75511575Y-52048008D01*
X75617186Y-51985052D01*
X75617188Y-51985051D01*
X75623238Y-51981444D01*
X75741595Y-51868734D01*
X75832040Y-51732603D01*
X75845470Y-51697247D01*
X75887578Y-51586400D01*
X75887579Y-51586395D01*
X75890078Y-51579817D01*
X75893340Y-51556608D01*
X75912273Y-51421893D01*
X75912273Y-51421888D01*
X75912824Y-51417970D01*
X75913110Y-51397500D01*
X75894892Y-51235081D01*
X75841142Y-51080734D01*
X75754534Y-50942130D01*
X75749572Y-50937133D01*
X75644333Y-50831157D01*
X75644329Y-50831154D01*
X75639370Y-50826160D01*
X75623536Y-50816111D01*
X75586440Y-50792569D01*
X75501374Y-50738585D01*
X75476835Y-50729847D01*
X75354041Y-50686122D01*
X75354036Y-50686121D01*
X75347406Y-50683760D01*
X75340418Y-50682927D01*
X75340415Y-50682926D01*
X75232014Y-50670000D01*
X79466496Y-50670000D01*
X79467186Y-50676565D01*
X79483810Y-50834729D01*
X79486458Y-50859928D01*
X79545473Y-51041556D01*
X79640960Y-51206944D01*
X79645378Y-51211851D01*
X79645379Y-51211852D01*
X79672594Y-51242077D01*
X79768747Y-51348866D01*
X79923248Y-51461118D01*
X79929276Y-51463802D01*
X79929278Y-51463803D01*
X80091681Y-51536109D01*
X80097712Y-51538794D01*
X80181520Y-51556608D01*
X80278056Y-51577128D01*
X80278061Y-51577128D01*
X80284513Y-51578500D01*
X80475487Y-51578500D01*
X80481939Y-51577128D01*
X80481944Y-51577128D01*
X80578480Y-51556608D01*
X80662288Y-51538794D01*
X80668319Y-51536109D01*
X80830722Y-51463803D01*
X80830724Y-51463802D01*
X80836752Y-51461118D01*
X80991253Y-51348866D01*
X81087406Y-51242077D01*
X81114621Y-51211852D01*
X81114622Y-51211851D01*
X81119040Y-51206944D01*
X81214527Y-51041556D01*
X81273542Y-50859928D01*
X81276191Y-50834729D01*
X81292814Y-50676565D01*
X81293504Y-50670000D01*
X81273542Y-50480072D01*
X81214527Y-50298444D01*
X81119040Y-50133056D01*
X80991253Y-49991134D01*
X80836752Y-49878882D01*
X80830724Y-49876198D01*
X80830722Y-49876197D01*
X80668319Y-49803891D01*
X80668318Y-49803891D01*
X80662288Y-49801206D01*
X80568888Y-49781353D01*
X80481944Y-49762872D01*
X80481939Y-49762872D01*
X80475487Y-49761500D01*
X80284513Y-49761500D01*
X80278061Y-49762872D01*
X80278056Y-49762872D01*
X80191112Y-49781353D01*
X80097712Y-49801206D01*
X80091682Y-49803891D01*
X80091681Y-49803891D01*
X79929278Y-49876197D01*
X79929276Y-49876198D01*
X79923248Y-49878882D01*
X79768747Y-49991134D01*
X79640960Y-50133056D01*
X79545473Y-50298444D01*
X79486458Y-50480072D01*
X79466496Y-50670000D01*
X75232014Y-50670000D01*
X75221732Y-50668774D01*
X75185118Y-50664408D01*
X75178115Y-50665144D01*
X75178114Y-50665144D01*
X75029575Y-50680756D01*
X75029573Y-50680757D01*
X75022575Y-50681492D01*
X74941273Y-50709169D01*
X74874527Y-50731891D01*
X74874524Y-50731892D01*
X74867857Y-50734162D01*
X74728652Y-50819801D01*
X74611880Y-50934153D01*
X74523345Y-51071534D01*
X74520936Y-51078154D01*
X74520935Y-51078155D01*
X74495395Y-51148325D01*
X74467446Y-51225115D01*
X74446961Y-51387264D01*
X30090072Y-51387264D01*
X30109754Y-51200000D01*
X30093101Y-51041556D01*
X30090482Y-51016635D01*
X30090482Y-51016633D01*
X30089792Y-51010072D01*
X30030777Y-50828444D01*
X29935290Y-50663056D01*
X29807503Y-50521134D01*
X29653002Y-50408882D01*
X29646974Y-50406198D01*
X29646972Y-50406197D01*
X29484569Y-50333891D01*
X29484568Y-50333891D01*
X29478538Y-50331206D01*
X29385138Y-50311353D01*
X29298194Y-50292872D01*
X29298189Y-50292872D01*
X29291737Y-50291500D01*
X29100763Y-50291500D01*
X29094311Y-50292872D01*
X29094306Y-50292872D01*
X29007362Y-50311353D01*
X28913962Y-50331206D01*
X28907932Y-50333891D01*
X28907931Y-50333891D01*
X28745528Y-50406197D01*
X28745526Y-50406198D01*
X28739498Y-50408882D01*
X28584997Y-50521134D01*
X28457210Y-50663056D01*
X28361723Y-50828444D01*
X28302708Y-51010072D01*
X28302018Y-51016633D01*
X28302018Y-51016635D01*
X28299399Y-51041556D01*
X28282746Y-51200000D01*
X20508500Y-51200000D01*
X20508500Y-47952750D01*
X45639024Y-47952750D01*
X45657394Y-48154596D01*
X45714619Y-48349029D01*
X45717472Y-48354486D01*
X45717473Y-48354489D01*
X45721627Y-48362435D01*
X45808519Y-48528645D01*
X45812379Y-48533445D01*
X45812379Y-48533446D01*
X45818229Y-48540722D01*
X45935519Y-48686601D01*
X46090781Y-48816881D01*
X46096173Y-48819845D01*
X46096177Y-48819848D01*
X46262994Y-48911556D01*
X46268391Y-48914523D01*
X46461584Y-48975807D01*
X46467701Y-48976493D01*
X46467705Y-48976494D01*
X46541848Y-48984810D01*
X46619317Y-48993500D01*
X47178504Y-48993500D01*
X47329213Y-48978723D01*
X47523242Y-48920142D01*
X47702198Y-48824990D01*
X47859263Y-48696890D01*
X47871746Y-48681801D01*
X47984527Y-48545472D01*
X47984529Y-48545469D01*
X47988456Y-48540722D01*
X48084856Y-48362435D01*
X48144790Y-48168820D01*
X48165976Y-47967250D01*
X48147606Y-47765404D01*
X48090381Y-47570971D01*
X48086451Y-47563452D01*
X47999335Y-47396815D01*
X47996481Y-47391355D01*
X47996516Y-47391337D01*
X47976611Y-47325559D01*
X47991771Y-47264591D01*
X47997938Y-47253185D01*
X48084856Y-47092435D01*
X48144790Y-46898820D01*
X48165976Y-46697250D01*
X48147606Y-46495404D01*
X48141688Y-46475294D01*
X48092120Y-46306879D01*
X48092119Y-46306877D01*
X48090381Y-46300971D01*
X48091240Y-46300718D01*
X48084786Y-46235338D01*
X48090282Y-46220000D01*
X75626496Y-46220000D01*
X75627186Y-46226565D01*
X75635482Y-46305493D01*
X75646458Y-46409928D01*
X75705473Y-46591556D01*
X75800960Y-46756944D01*
X75928747Y-46898866D01*
X76083248Y-47011118D01*
X76089276Y-47013802D01*
X76089278Y-47013803D01*
X76251681Y-47086109D01*
X76257712Y-47088794D01*
X76351113Y-47108647D01*
X76438056Y-47127128D01*
X76438061Y-47127128D01*
X76444513Y-47128500D01*
X76635487Y-47128500D01*
X76641939Y-47127128D01*
X76641944Y-47127128D01*
X76728888Y-47108647D01*
X76822288Y-47088794D01*
X76828319Y-47086109D01*
X76990722Y-47013803D01*
X76990724Y-47013802D01*
X76996752Y-47011118D01*
X77151253Y-46898866D01*
X77279040Y-46756944D01*
X77374527Y-46591556D01*
X77433542Y-46409928D01*
X77444519Y-46305493D01*
X77452814Y-46226565D01*
X77453504Y-46220000D01*
X77433542Y-46030072D01*
X77374527Y-45848444D01*
X77279040Y-45683056D01*
X77151253Y-45541134D01*
X76996752Y-45428882D01*
X76990724Y-45426198D01*
X76990722Y-45426197D01*
X76828319Y-45353891D01*
X76828318Y-45353891D01*
X76822288Y-45351206D01*
X76728888Y-45331353D01*
X76641944Y-45312872D01*
X76641939Y-45312872D01*
X76635487Y-45311500D01*
X76444513Y-45311500D01*
X76438061Y-45312872D01*
X76438056Y-45312872D01*
X76351113Y-45331353D01*
X76257712Y-45351206D01*
X76251682Y-45353891D01*
X76251681Y-45353891D01*
X76089278Y-45426197D01*
X76089276Y-45426198D01*
X76083248Y-45428882D01*
X75928747Y-45541134D01*
X75800960Y-45683056D01*
X75705473Y-45848444D01*
X75646458Y-46030072D01*
X75626496Y-46220000D01*
X48090282Y-46220000D01*
X48097952Y-46198594D01*
X48103115Y-46191705D01*
X48106268Y-46183296D01*
X48151471Y-46062715D01*
X48154245Y-46055316D01*
X48161000Y-45993134D01*
X48161000Y-44846866D01*
X48158327Y-44822264D01*
X55344461Y-44822264D01*
X55360410Y-44984922D01*
X55362634Y-44991607D01*
X55362634Y-44991608D01*
X55386205Y-45062464D01*
X55411999Y-45140005D01*
X55496665Y-45279804D01*
X55610198Y-45397371D01*
X55616090Y-45401226D01*
X55616094Y-45401230D01*
X55664282Y-45432763D01*
X55746957Y-45486864D01*
X55782632Y-45500131D01*
X55893548Y-45541380D01*
X55893551Y-45541381D01*
X55900145Y-45543833D01*
X55907122Y-45544764D01*
X56055166Y-45564518D01*
X56055170Y-45564518D01*
X56062147Y-45565449D01*
X56069158Y-45564811D01*
X56069162Y-45564811D01*
X56217891Y-45551275D01*
X56224912Y-45550636D01*
X56231614Y-45548458D01*
X56231616Y-45548458D01*
X56373652Y-45502308D01*
X56373655Y-45502307D01*
X56380351Y-45500131D01*
X56409075Y-45483008D01*
X56514686Y-45420052D01*
X56514688Y-45420051D01*
X56520738Y-45416444D01*
X56639095Y-45303734D01*
X56729540Y-45167603D01*
X56742970Y-45132247D01*
X56785078Y-45021400D01*
X56785079Y-45021395D01*
X56787578Y-45014817D01*
X56790840Y-44991608D01*
X56809773Y-44856893D01*
X56809773Y-44856888D01*
X56810324Y-44852970D01*
X56810610Y-44832500D01*
X56792392Y-44670081D01*
X56738642Y-44515734D01*
X56652034Y-44377130D01*
X56647072Y-44372133D01*
X56541833Y-44266157D01*
X56541829Y-44266154D01*
X56536870Y-44261160D01*
X56521036Y-44251111D01*
X56483940Y-44227569D01*
X56398874Y-44173585D01*
X56374335Y-44164847D01*
X56251541Y-44121122D01*
X56251536Y-44121121D01*
X56244906Y-44118760D01*
X56237918Y-44117927D01*
X56237915Y-44117926D01*
X56126976Y-44104697D01*
X56082618Y-44099408D01*
X56075615Y-44100144D01*
X56075614Y-44100144D01*
X55927075Y-44115756D01*
X55927073Y-44115757D01*
X55920075Y-44116492D01*
X55838773Y-44144169D01*
X55772027Y-44166891D01*
X55772024Y-44166892D01*
X55765357Y-44169162D01*
X55626152Y-44254801D01*
X55509380Y-44369153D01*
X55420845Y-44506534D01*
X55418436Y-44513154D01*
X55418435Y-44513155D01*
X55413630Y-44526358D01*
X55364946Y-44660115D01*
X55344461Y-44822264D01*
X48158327Y-44822264D01*
X48154245Y-44784684D01*
X48103115Y-44648295D01*
X48015761Y-44531739D01*
X47899205Y-44444385D01*
X47762816Y-44393255D01*
X47700634Y-44386500D01*
X46104366Y-44386500D01*
X46042184Y-44393255D01*
X45905795Y-44444385D01*
X45789239Y-44531739D01*
X45701885Y-44648295D01*
X45650755Y-44784684D01*
X45644000Y-44846866D01*
X45644000Y-45993134D01*
X45650755Y-46055316D01*
X45653529Y-46062715D01*
X45698732Y-46183296D01*
X45698734Y-46183299D01*
X45701885Y-46191705D01*
X45707273Y-46198894D01*
X45707406Y-46199137D01*
X45722576Y-46268494D01*
X45717252Y-46296907D01*
X45660210Y-46481180D01*
X45659566Y-46487305D01*
X45659566Y-46487306D01*
X45648609Y-46591556D01*
X45639024Y-46682750D01*
X45657394Y-46884596D01*
X45659132Y-46890502D01*
X45659133Y-46890506D01*
X45663313Y-46904707D01*
X45714619Y-47079029D01*
X45717472Y-47084486D01*
X45717473Y-47084489D01*
X45761569Y-47168837D01*
X45808423Y-47258460D01*
X45808423Y-47258462D01*
X45808519Y-47258645D01*
X45808484Y-47258663D01*
X45828389Y-47324441D01*
X45813229Y-47385409D01*
X45720144Y-47557565D01*
X45660210Y-47751180D01*
X45639024Y-47952750D01*
X20508500Y-47952750D01*
X20508500Y-40520000D01*
X63456496Y-40520000D01*
X63476458Y-40709928D01*
X63535473Y-40891556D01*
X63630960Y-41056944D01*
X63758747Y-41198866D01*
X63913248Y-41311118D01*
X63919276Y-41313802D01*
X63919278Y-41313803D01*
X64081681Y-41386109D01*
X64087712Y-41388794D01*
X64176869Y-41407745D01*
X64268056Y-41427128D01*
X64268061Y-41427128D01*
X64274513Y-41428500D01*
X64465487Y-41428500D01*
X64471939Y-41427128D01*
X64471944Y-41427128D01*
X64563131Y-41407745D01*
X64652288Y-41388794D01*
X64658319Y-41386109D01*
X64820722Y-41313803D01*
X64820724Y-41313802D01*
X64826752Y-41311118D01*
X64981253Y-41198866D01*
X65109040Y-41056944D01*
X65204527Y-40891556D01*
X65263542Y-40709928D01*
X65283504Y-40520000D01*
X65277370Y-40461642D01*
X65264232Y-40336635D01*
X65264232Y-40336633D01*
X65263542Y-40330072D01*
X65236713Y-40247500D01*
X77876807Y-40247500D01*
X77895542Y-40461642D01*
X77896966Y-40466955D01*
X77896966Y-40466957D01*
X77938924Y-40623543D01*
X77951178Y-40669277D01*
X77953500Y-40674257D01*
X77953501Y-40674259D01*
X77967074Y-40703365D01*
X78042024Y-40864096D01*
X78165319Y-41040181D01*
X78317319Y-41192181D01*
X78493403Y-41315476D01*
X78498381Y-41317797D01*
X78498384Y-41317799D01*
X78644876Y-41386109D01*
X78688223Y-41406322D01*
X78693531Y-41407744D01*
X78693533Y-41407745D01*
X78890543Y-41460534D01*
X78890545Y-41460534D01*
X78895858Y-41461958D01*
X79110000Y-41480693D01*
X79324142Y-41461958D01*
X79329455Y-41460534D01*
X79329457Y-41460534D01*
X79526467Y-41407745D01*
X79526469Y-41407744D01*
X79531777Y-41406322D01*
X79575124Y-41386109D01*
X79721616Y-41317799D01*
X79721619Y-41317797D01*
X79726597Y-41315476D01*
X79902681Y-41192181D01*
X80054681Y-41040181D01*
X80177976Y-40864096D01*
X80252927Y-40703365D01*
X80265805Y-40675747D01*
X80312723Y-40622462D01*
X80381000Y-40603001D01*
X80448960Y-40623543D01*
X80494195Y-40675747D01*
X80507074Y-40703365D01*
X80582024Y-40864096D01*
X80705319Y-41040181D01*
X80857319Y-41192181D01*
X81033403Y-41315476D01*
X81038381Y-41317797D01*
X81038384Y-41317799D01*
X81184876Y-41386109D01*
X81228223Y-41406322D01*
X81233531Y-41407744D01*
X81233533Y-41407745D01*
X81430543Y-41460534D01*
X81430545Y-41460534D01*
X81435858Y-41461958D01*
X81650000Y-41480693D01*
X81864142Y-41461958D01*
X81869455Y-41460534D01*
X81869457Y-41460534D01*
X82066467Y-41407745D01*
X82066469Y-41407744D01*
X82071777Y-41406322D01*
X82115124Y-41386109D01*
X82261616Y-41317799D01*
X82261619Y-41317797D01*
X82266597Y-41315476D01*
X82442681Y-41192181D01*
X82594681Y-41040181D01*
X82717976Y-40864096D01*
X82792927Y-40703365D01*
X82805805Y-40675747D01*
X82852723Y-40622462D01*
X82921000Y-40603001D01*
X82988960Y-40623543D01*
X83034195Y-40675747D01*
X83047074Y-40703365D01*
X83122024Y-40864096D01*
X83245319Y-41040181D01*
X83397319Y-41192181D01*
X83573403Y-41315476D01*
X83578381Y-41317797D01*
X83578384Y-41317799D01*
X83724876Y-41386109D01*
X83768223Y-41406322D01*
X83773531Y-41407744D01*
X83773533Y-41407745D01*
X83970543Y-41460534D01*
X83970545Y-41460534D01*
X83975858Y-41461958D01*
X84190000Y-41480693D01*
X84404142Y-41461958D01*
X84409455Y-41460534D01*
X84409457Y-41460534D01*
X84606467Y-41407745D01*
X84606469Y-41407744D01*
X84611777Y-41406322D01*
X84655124Y-41386109D01*
X84801616Y-41317799D01*
X84801619Y-41317797D01*
X84806597Y-41315476D01*
X84982681Y-41192181D01*
X85134681Y-41040181D01*
X85257976Y-40864096D01*
X85332927Y-40703365D01*
X85346499Y-40674259D01*
X85346500Y-40674257D01*
X85348822Y-40669277D01*
X85361077Y-40623543D01*
X85403034Y-40466957D01*
X85403034Y-40466955D01*
X85404458Y-40461642D01*
X85423193Y-40247500D01*
X85404458Y-40033358D01*
X85390980Y-39983056D01*
X85350245Y-39831033D01*
X85350244Y-39831031D01*
X85348822Y-39825723D01*
X85267443Y-39651206D01*
X85260299Y-39635885D01*
X85260297Y-39635882D01*
X85257976Y-39630904D01*
X85134681Y-39454819D01*
X84982681Y-39302819D01*
X84806597Y-39179524D01*
X84801619Y-39177203D01*
X84801616Y-39177201D01*
X84616759Y-39091001D01*
X84616758Y-39091000D01*
X84611777Y-39088678D01*
X84606469Y-39087256D01*
X84606467Y-39087255D01*
X84409457Y-39034466D01*
X84409455Y-39034466D01*
X84404142Y-39033042D01*
X84190000Y-39014307D01*
X83975858Y-39033042D01*
X83970545Y-39034466D01*
X83970543Y-39034466D01*
X83773533Y-39087255D01*
X83773531Y-39087256D01*
X83768223Y-39088678D01*
X83763243Y-39091000D01*
X83763241Y-39091001D01*
X83578385Y-39177201D01*
X83578382Y-39177203D01*
X83573404Y-39179524D01*
X83397319Y-39302819D01*
X83245319Y-39454819D01*
X83122024Y-39630904D01*
X83119703Y-39635882D01*
X83119701Y-39635885D01*
X83034195Y-39819253D01*
X82987277Y-39872538D01*
X82919000Y-39891999D01*
X82851040Y-39871457D01*
X82805805Y-39819253D01*
X82720299Y-39635885D01*
X82720297Y-39635882D01*
X82717976Y-39630904D01*
X82594681Y-39454819D01*
X82442681Y-39302819D01*
X82266597Y-39179524D01*
X82261619Y-39177203D01*
X82261616Y-39177201D01*
X82076759Y-39091001D01*
X82076758Y-39091000D01*
X82071777Y-39088678D01*
X82066469Y-39087256D01*
X82066467Y-39087255D01*
X81869457Y-39034466D01*
X81869455Y-39034466D01*
X81864142Y-39033042D01*
X81650000Y-39014307D01*
X81435858Y-39033042D01*
X81430545Y-39034466D01*
X81430543Y-39034466D01*
X81233533Y-39087255D01*
X81233531Y-39087256D01*
X81228223Y-39088678D01*
X81223243Y-39091000D01*
X81223241Y-39091001D01*
X81038385Y-39177201D01*
X81038382Y-39177203D01*
X81033404Y-39179524D01*
X80857319Y-39302819D01*
X80705319Y-39454819D01*
X80582024Y-39630904D01*
X80579703Y-39635882D01*
X80579701Y-39635885D01*
X80494195Y-39819253D01*
X80447277Y-39872538D01*
X80379000Y-39891999D01*
X80311040Y-39871457D01*
X80265805Y-39819253D01*
X80180299Y-39635885D01*
X80180297Y-39635882D01*
X80177976Y-39630904D01*
X80054681Y-39454819D01*
X79902681Y-39302819D01*
X79726597Y-39179524D01*
X79721619Y-39177203D01*
X79721616Y-39177201D01*
X79536759Y-39091001D01*
X79536758Y-39091000D01*
X79531777Y-39088678D01*
X79526469Y-39087256D01*
X79526467Y-39087255D01*
X79329457Y-39034466D01*
X79329455Y-39034466D01*
X79324142Y-39033042D01*
X79110000Y-39014307D01*
X78895858Y-39033042D01*
X78890545Y-39034466D01*
X78890543Y-39034466D01*
X78693533Y-39087255D01*
X78693531Y-39087256D01*
X78688223Y-39088678D01*
X78683243Y-39091000D01*
X78683241Y-39091001D01*
X78498385Y-39177201D01*
X78498382Y-39177203D01*
X78493404Y-39179524D01*
X78317319Y-39302819D01*
X78165319Y-39454819D01*
X78042024Y-39630904D01*
X78039703Y-39635882D01*
X78039701Y-39635885D01*
X78032557Y-39651206D01*
X77951178Y-39825723D01*
X77949756Y-39831031D01*
X77949755Y-39831033D01*
X77909020Y-39983056D01*
X77895542Y-40033358D01*
X77876807Y-40247500D01*
X65236713Y-40247500D01*
X65204527Y-40148444D01*
X65109040Y-39983056D01*
X64981253Y-39841134D01*
X64826752Y-39728882D01*
X64820724Y-39726198D01*
X64820722Y-39726197D01*
X64658319Y-39653891D01*
X64658318Y-39653891D01*
X64652288Y-39651206D01*
X64556775Y-39630904D01*
X64471944Y-39612872D01*
X64471939Y-39612872D01*
X64465487Y-39611500D01*
X64274513Y-39611500D01*
X64268061Y-39612872D01*
X64268056Y-39612872D01*
X64183225Y-39630904D01*
X64087712Y-39651206D01*
X64081682Y-39653891D01*
X64081681Y-39653891D01*
X63919278Y-39726197D01*
X63919276Y-39726198D01*
X63913248Y-39728882D01*
X63758747Y-39841134D01*
X63630960Y-39983056D01*
X63535473Y-40148444D01*
X63476458Y-40330072D01*
X63475768Y-40336633D01*
X63475768Y-40336635D01*
X63462630Y-40461642D01*
X63456496Y-40520000D01*
X20508500Y-40520000D01*
X20508500Y-38680000D01*
X54636496Y-38680000D01*
X54656458Y-38869928D01*
X54715473Y-39051556D01*
X54810960Y-39216944D01*
X54938747Y-39358866D01*
X55037843Y-39430864D01*
X55077025Y-39459331D01*
X55093248Y-39471118D01*
X55099276Y-39473802D01*
X55099278Y-39473803D01*
X55261681Y-39546109D01*
X55267712Y-39548794D01*
X55361112Y-39568647D01*
X55448056Y-39587128D01*
X55448061Y-39587128D01*
X55454513Y-39588500D01*
X55645487Y-39588500D01*
X55651939Y-39587128D01*
X55651944Y-39587128D01*
X55738888Y-39568647D01*
X55832288Y-39548794D01*
X55838319Y-39546109D01*
X56000722Y-39473803D01*
X56000724Y-39473802D01*
X56006752Y-39471118D01*
X56022976Y-39459331D01*
X56062157Y-39430864D01*
X56161253Y-39358866D01*
X56289040Y-39216944D01*
X56384527Y-39051556D01*
X56443542Y-38869928D01*
X56463504Y-38680000D01*
X56443542Y-38490072D01*
X56384527Y-38308444D01*
X56289040Y-38143056D01*
X56234920Y-38082949D01*
X56165675Y-38006045D01*
X56165674Y-38006044D01*
X56161253Y-38001134D01*
X56028759Y-37904871D01*
X56012094Y-37892763D01*
X56012093Y-37892762D01*
X56006752Y-37888882D01*
X56000724Y-37886198D01*
X56000722Y-37886197D01*
X55838319Y-37813891D01*
X55838318Y-37813891D01*
X55832288Y-37811206D01*
X55719839Y-37787304D01*
X55651944Y-37772872D01*
X55651939Y-37772872D01*
X55645487Y-37771500D01*
X55454513Y-37771500D01*
X55448061Y-37772872D01*
X55448056Y-37772872D01*
X55380161Y-37787304D01*
X55267712Y-37811206D01*
X55261682Y-37813891D01*
X55261681Y-37813891D01*
X55099278Y-37886197D01*
X55099276Y-37886198D01*
X55093248Y-37888882D01*
X55087907Y-37892762D01*
X55087906Y-37892763D01*
X55071241Y-37904871D01*
X54938747Y-38001134D01*
X54934326Y-38006044D01*
X54934325Y-38006045D01*
X54865081Y-38082949D01*
X54810960Y-38143056D01*
X54715473Y-38308444D01*
X54656458Y-38490072D01*
X54636496Y-38680000D01*
X20508500Y-38680000D01*
X20508500Y-37339764D01*
X26966961Y-37339764D01*
X26982910Y-37502422D01*
X26985134Y-37509107D01*
X26985134Y-37509108D01*
X27008705Y-37579964D01*
X27034499Y-37657505D01*
X27038148Y-37663530D01*
X27113109Y-37787304D01*
X27119165Y-37797304D01*
X27232698Y-37914871D01*
X27238590Y-37918726D01*
X27238594Y-37918730D01*
X27322553Y-37973671D01*
X27369457Y-38004364D01*
X27405132Y-38017631D01*
X27516048Y-38058880D01*
X27516051Y-38058881D01*
X27522645Y-38061333D01*
X27529622Y-38062264D01*
X27677666Y-38082018D01*
X27677670Y-38082018D01*
X27684647Y-38082949D01*
X27691658Y-38082311D01*
X27691662Y-38082311D01*
X27840391Y-38068775D01*
X27847412Y-38068136D01*
X27854114Y-38065958D01*
X27854116Y-38065958D01*
X27996152Y-38019808D01*
X27996155Y-38019807D01*
X28002851Y-38017631D01*
X28037039Y-37997251D01*
X28137186Y-37937552D01*
X28137188Y-37937551D01*
X28143238Y-37933944D01*
X28261595Y-37821234D01*
X28352040Y-37685103D01*
X28368862Y-37640819D01*
X28407578Y-37538900D01*
X28407579Y-37538895D01*
X28410078Y-37532317D01*
X28411058Y-37525345D01*
X28432273Y-37374393D01*
X28432273Y-37374388D01*
X28432824Y-37370470D01*
X28433110Y-37350000D01*
X28430840Y-37329764D01*
X39666961Y-37329764D01*
X39682910Y-37492422D01*
X39685134Y-37499107D01*
X39685134Y-37499108D01*
X39696181Y-37532317D01*
X39734499Y-37647505D01*
X39738148Y-37653530D01*
X39810425Y-37772872D01*
X39819165Y-37787304D01*
X39932698Y-37904871D01*
X39938590Y-37908726D01*
X39938594Y-37908730D01*
X40022553Y-37963671D01*
X40069457Y-37994364D01*
X40096347Y-38004364D01*
X40216048Y-38048880D01*
X40216051Y-38048881D01*
X40222645Y-38051333D01*
X40229622Y-38052264D01*
X40377666Y-38072018D01*
X40377670Y-38072018D01*
X40384647Y-38072949D01*
X40391658Y-38072311D01*
X40391662Y-38072311D01*
X40540391Y-38058775D01*
X40547412Y-38058136D01*
X40554114Y-38055958D01*
X40554116Y-38055958D01*
X40696152Y-38009808D01*
X40696155Y-38009807D01*
X40702851Y-38007631D01*
X40731575Y-37990508D01*
X40837186Y-37927552D01*
X40837188Y-37927551D01*
X40843238Y-37923944D01*
X40961595Y-37811234D01*
X41052040Y-37675103D01*
X41103779Y-37538900D01*
X41107578Y-37528900D01*
X41107579Y-37528895D01*
X41110078Y-37522317D01*
X41111058Y-37515345D01*
X41132273Y-37364393D01*
X41132273Y-37364388D01*
X41132824Y-37360470D01*
X41132970Y-37350000D01*
X41133055Y-37343962D01*
X41133055Y-37343956D01*
X41133110Y-37340000D01*
X41124087Y-37259560D01*
X41115677Y-37184577D01*
X41115676Y-37184575D01*
X41114892Y-37177581D01*
X41061142Y-37023234D01*
X41003774Y-36931424D01*
X40978266Y-36890602D01*
X40978264Y-36890600D01*
X40974534Y-36884630D01*
X40969572Y-36879633D01*
X40864333Y-36773657D01*
X40864329Y-36773654D01*
X40859370Y-36768660D01*
X40843536Y-36758611D01*
X40737131Y-36691085D01*
X40721374Y-36681085D01*
X40696835Y-36672347D01*
X40574041Y-36628622D01*
X40574036Y-36628621D01*
X40567406Y-36626260D01*
X40560418Y-36625427D01*
X40560415Y-36625426D01*
X40449476Y-36612197D01*
X40405118Y-36606908D01*
X40398115Y-36607644D01*
X40398114Y-36607644D01*
X40249575Y-36623256D01*
X40249573Y-36623257D01*
X40242575Y-36623992D01*
X40161273Y-36651669D01*
X40094527Y-36674391D01*
X40094524Y-36674392D01*
X40087857Y-36676662D01*
X40081858Y-36680352D01*
X40081857Y-36680353D01*
X40058270Y-36694864D01*
X39948652Y-36762301D01*
X39831880Y-36876653D01*
X39743345Y-37014034D01*
X39740936Y-37020654D01*
X39740935Y-37020655D01*
X39737295Y-37030655D01*
X39687446Y-37167615D01*
X39666961Y-37329764D01*
X28430840Y-37329764D01*
X28414892Y-37187581D01*
X28361142Y-37033234D01*
X28274534Y-36894630D01*
X28269572Y-36889633D01*
X28164333Y-36783657D01*
X28164329Y-36783654D01*
X28159370Y-36778660D01*
X28143536Y-36768611D01*
X28106440Y-36745069D01*
X28021374Y-36691085D01*
X27996835Y-36682347D01*
X27874041Y-36638622D01*
X27874036Y-36638621D01*
X27867406Y-36636260D01*
X27860418Y-36635427D01*
X27860415Y-36635426D01*
X27749476Y-36622197D01*
X27705118Y-36616908D01*
X27698115Y-36617644D01*
X27698114Y-36617644D01*
X27549575Y-36633256D01*
X27549573Y-36633257D01*
X27542575Y-36633992D01*
X27461273Y-36661669D01*
X27394527Y-36684391D01*
X27394524Y-36684392D01*
X27387857Y-36686662D01*
X27248652Y-36772301D01*
X27237056Y-36783657D01*
X27139049Y-36879633D01*
X27131880Y-36886653D01*
X27043345Y-37024034D01*
X27040936Y-37030654D01*
X27040935Y-37030655D01*
X27015396Y-37100824D01*
X26987446Y-37177615D01*
X26966961Y-37339764D01*
X20508500Y-37339764D01*
X20508500Y-35857264D01*
X60299461Y-35857264D01*
X60315410Y-36019922D01*
X60317634Y-36026607D01*
X60317634Y-36026608D01*
X60341205Y-36097464D01*
X60366999Y-36175005D01*
X60451665Y-36314804D01*
X60565198Y-36432371D01*
X60571090Y-36436226D01*
X60571094Y-36436230D01*
X60655053Y-36491171D01*
X60701957Y-36521864D01*
X60737632Y-36535131D01*
X60848548Y-36576380D01*
X60848551Y-36576381D01*
X60855145Y-36578833D01*
X60862122Y-36579764D01*
X61010166Y-36599518D01*
X61010170Y-36599518D01*
X61017147Y-36600449D01*
X61024158Y-36599811D01*
X61024162Y-36599811D01*
X61172891Y-36586275D01*
X61179912Y-36585636D01*
X61186614Y-36583458D01*
X61186616Y-36583458D01*
X61328652Y-36537308D01*
X61328655Y-36537307D01*
X61335351Y-36535131D01*
X61364075Y-36518008D01*
X61469686Y-36455052D01*
X61469688Y-36455051D01*
X61475738Y-36451444D01*
X61594095Y-36338734D01*
X61684540Y-36202603D01*
X61697970Y-36167247D01*
X61740078Y-36056400D01*
X61740079Y-36056395D01*
X61742578Y-36049817D01*
X61745840Y-36026608D01*
X61764773Y-35891893D01*
X61764773Y-35891888D01*
X61765324Y-35887970D01*
X61765610Y-35867500D01*
X61747392Y-35705081D01*
X61693642Y-35550734D01*
X61607034Y-35412130D01*
X61602072Y-35407133D01*
X61496833Y-35301157D01*
X61496829Y-35301154D01*
X61491870Y-35296160D01*
X61476036Y-35286111D01*
X61438940Y-35262569D01*
X61353874Y-35208585D01*
X61329335Y-35199847D01*
X61206541Y-35156122D01*
X61206536Y-35156121D01*
X61199906Y-35153760D01*
X61192918Y-35152927D01*
X61192915Y-35152926D01*
X61081976Y-35139697D01*
X61037618Y-35134408D01*
X61030615Y-35135144D01*
X61030614Y-35135144D01*
X60882075Y-35150756D01*
X60882073Y-35150757D01*
X60875075Y-35151492D01*
X60793773Y-35179169D01*
X60727027Y-35201891D01*
X60727024Y-35201892D01*
X60720357Y-35204162D01*
X60581152Y-35289801D01*
X60464380Y-35404153D01*
X60375845Y-35541534D01*
X60373436Y-35548154D01*
X60373435Y-35548155D01*
X60347895Y-35618325D01*
X60319946Y-35695115D01*
X60299461Y-35857264D01*
X20508500Y-35857264D01*
X20508500Y-32809764D01*
X56056961Y-32809764D01*
X56072910Y-32972422D01*
X56075134Y-32979107D01*
X56075134Y-32979108D01*
X56098704Y-33049963D01*
X56124499Y-33127505D01*
X56209165Y-33267304D01*
X56214056Y-33272369D01*
X56214057Y-33272370D01*
X56266947Y-33327139D01*
X56299879Y-33390036D01*
X56293579Y-33460752D01*
X56264468Y-33504689D01*
X56234380Y-33534153D01*
X56145845Y-33671534D01*
X56143436Y-33678154D01*
X56143435Y-33678155D01*
X56125571Y-33727237D01*
X56089946Y-33825115D01*
X56069461Y-33987264D01*
X56085410Y-34149922D01*
X56087634Y-34156607D01*
X56087634Y-34156608D01*
X56111205Y-34227464D01*
X56136999Y-34305005D01*
X56221665Y-34444804D01*
X56335198Y-34562371D01*
X56341090Y-34566226D01*
X56341094Y-34566230D01*
X56425053Y-34621171D01*
X56471957Y-34651864D01*
X56507632Y-34665131D01*
X56618548Y-34706380D01*
X56618551Y-34706381D01*
X56625145Y-34708833D01*
X56632122Y-34709764D01*
X56780166Y-34729518D01*
X56780170Y-34729518D01*
X56787147Y-34730449D01*
X56794158Y-34729811D01*
X56794162Y-34729811D01*
X56942891Y-34716275D01*
X56949912Y-34715636D01*
X56956614Y-34713458D01*
X56956616Y-34713458D01*
X57098652Y-34667308D01*
X57098655Y-34667307D01*
X57105351Y-34665131D01*
X57134075Y-34648008D01*
X57239686Y-34585052D01*
X57239688Y-34585051D01*
X57245738Y-34581444D01*
X57364095Y-34468734D01*
X57454540Y-34332603D01*
X57467970Y-34297247D01*
X57510078Y-34186400D01*
X57510079Y-34186395D01*
X57512578Y-34179817D01*
X57515840Y-34156608D01*
X57534773Y-34021893D01*
X57534773Y-34021888D01*
X57535324Y-34017970D01*
X57535610Y-33997500D01*
X57518897Y-33848500D01*
X57518177Y-33842077D01*
X57518176Y-33842075D01*
X57517392Y-33835081D01*
X57463642Y-33680734D01*
X57377034Y-33542130D01*
X57372073Y-33537134D01*
X57372068Y-33537128D01*
X57327279Y-33492026D01*
X57293471Y-33429596D01*
X57298782Y-33358798D01*
X57329794Y-33311995D01*
X57346489Y-33296097D01*
X57346492Y-33296094D01*
X57351595Y-33291234D01*
X57442040Y-33155103D01*
X57455470Y-33119747D01*
X57497578Y-33008900D01*
X57497579Y-33008895D01*
X57500078Y-33002317D01*
X57503340Y-32979108D01*
X57508836Y-32940000D01*
X71126496Y-32940000D01*
X71127186Y-32946565D01*
X71145501Y-33120819D01*
X71146458Y-33129928D01*
X71205473Y-33311556D01*
X71300960Y-33476944D01*
X71305378Y-33481851D01*
X71305379Y-33481852D01*
X71359654Y-33542130D01*
X71428747Y-33618866D01*
X71583248Y-33731118D01*
X71589276Y-33733802D01*
X71589278Y-33733803D01*
X71751681Y-33806109D01*
X71757712Y-33808794D01*
X71834496Y-33825115D01*
X71938056Y-33847128D01*
X71938061Y-33847128D01*
X71944513Y-33848500D01*
X72135487Y-33848500D01*
X72141939Y-33847128D01*
X72141944Y-33847128D01*
X72245504Y-33825115D01*
X72322288Y-33808794D01*
X72328319Y-33806109D01*
X72490722Y-33733803D01*
X72490724Y-33733802D01*
X72496752Y-33731118D01*
X72651253Y-33618866D01*
X72720346Y-33542130D01*
X72774621Y-33481852D01*
X72774622Y-33481851D01*
X72779040Y-33476944D01*
X72874527Y-33311556D01*
X72933542Y-33129928D01*
X72934500Y-33120819D01*
X72952814Y-32946565D01*
X72953504Y-32940000D01*
X72952814Y-32933435D01*
X72934232Y-32756635D01*
X72934232Y-32756633D01*
X72933542Y-32750072D01*
X72874527Y-32568444D01*
X72779040Y-32403056D01*
X72651253Y-32261134D01*
X72513548Y-32161085D01*
X72502094Y-32152763D01*
X72502093Y-32152762D01*
X72496752Y-32148882D01*
X72490724Y-32146198D01*
X72490722Y-32146197D01*
X72328319Y-32073891D01*
X72328318Y-32073891D01*
X72322288Y-32071206D01*
X72228888Y-32051353D01*
X72141944Y-32032872D01*
X72141939Y-32032872D01*
X72135487Y-32031500D01*
X71944513Y-32031500D01*
X71938061Y-32032872D01*
X71938056Y-32032872D01*
X71851113Y-32051353D01*
X71757712Y-32071206D01*
X71751682Y-32073891D01*
X71751681Y-32073891D01*
X71589278Y-32146197D01*
X71589276Y-32146198D01*
X71583248Y-32148882D01*
X71577907Y-32152762D01*
X71577906Y-32152763D01*
X71566452Y-32161085D01*
X71428747Y-32261134D01*
X71300960Y-32403056D01*
X71205473Y-32568444D01*
X71146458Y-32750072D01*
X71145768Y-32756633D01*
X71145768Y-32756635D01*
X71127186Y-32933435D01*
X71126496Y-32940000D01*
X57508836Y-32940000D01*
X57522273Y-32844393D01*
X57522273Y-32844388D01*
X57522824Y-32840470D01*
X57523110Y-32820000D01*
X57504892Y-32657581D01*
X57451142Y-32503234D01*
X57364534Y-32364630D01*
X57359572Y-32359633D01*
X57254333Y-32253657D01*
X57254329Y-32253654D01*
X57249370Y-32248660D01*
X57233536Y-32238611D01*
X57196440Y-32215069D01*
X57111374Y-32161085D01*
X57069563Y-32146197D01*
X56964041Y-32108622D01*
X56964036Y-32108621D01*
X56957406Y-32106260D01*
X56950418Y-32105427D01*
X56950415Y-32105426D01*
X56839476Y-32092197D01*
X56795118Y-32086908D01*
X56788115Y-32087644D01*
X56788114Y-32087644D01*
X56639575Y-32103256D01*
X56639573Y-32103257D01*
X56632575Y-32103992D01*
X56551273Y-32131669D01*
X56484527Y-32154391D01*
X56484524Y-32154392D01*
X56477857Y-32156662D01*
X56338652Y-32242301D01*
X56221880Y-32356653D01*
X56133345Y-32494034D01*
X56130936Y-32500654D01*
X56130935Y-32500655D01*
X56108345Y-32562721D01*
X56077446Y-32647615D01*
X56056961Y-32809764D01*
X20508500Y-32809764D01*
X20508500Y-30110000D01*
X24626496Y-30110000D01*
X24627186Y-30116565D01*
X24640237Y-30240734D01*
X24646458Y-30299928D01*
X24705473Y-30481556D01*
X24800960Y-30646944D01*
X24805378Y-30651851D01*
X24805379Y-30651852D01*
X24884583Y-30739817D01*
X24928747Y-30788866D01*
X25083248Y-30901118D01*
X25089276Y-30903802D01*
X25089278Y-30903803D01*
X25251681Y-30976109D01*
X25257712Y-30978794D01*
X25351112Y-30998647D01*
X25438056Y-31017128D01*
X25438061Y-31017128D01*
X25444513Y-31018500D01*
X25635487Y-31018500D01*
X25641939Y-31017128D01*
X25641944Y-31017128D01*
X25728888Y-30998647D01*
X25822288Y-30978794D01*
X25828319Y-30976109D01*
X25990722Y-30903803D01*
X25990724Y-30903802D01*
X25996752Y-30901118D01*
X26151253Y-30788866D01*
X26195417Y-30739817D01*
X26274621Y-30651852D01*
X26274622Y-30651851D01*
X26279040Y-30646944D01*
X26336590Y-30547264D01*
X59249461Y-30547264D01*
X59265410Y-30709922D01*
X59267634Y-30716607D01*
X59267634Y-30716608D01*
X59290037Y-30783955D01*
X59316999Y-30865005D01*
X59320648Y-30871030D01*
X59386744Y-30980166D01*
X59401665Y-31004804D01*
X59515198Y-31122371D01*
X59521090Y-31126226D01*
X59521094Y-31126230D01*
X59605053Y-31181171D01*
X59651957Y-31211864D01*
X59687632Y-31225131D01*
X59798548Y-31266380D01*
X59798551Y-31266381D01*
X59805145Y-31268833D01*
X59812122Y-31269764D01*
X59960166Y-31289518D01*
X59960170Y-31289518D01*
X59967147Y-31290449D01*
X59974158Y-31289811D01*
X59974162Y-31289811D01*
X60122891Y-31276275D01*
X60129912Y-31275636D01*
X60136614Y-31273458D01*
X60136616Y-31273458D01*
X60278652Y-31227308D01*
X60278655Y-31227307D01*
X60285351Y-31225131D01*
X60314075Y-31208008D01*
X60419686Y-31145052D01*
X60419688Y-31145051D01*
X60425738Y-31141444D01*
X60544095Y-31028734D01*
X60634540Y-30892603D01*
X60675812Y-30783955D01*
X60690078Y-30746400D01*
X60690079Y-30746395D01*
X60692578Y-30739817D01*
X60695840Y-30716608D01*
X60714773Y-30581893D01*
X60714773Y-30581888D01*
X60715324Y-30577970D01*
X60715610Y-30557500D01*
X60697392Y-30395081D01*
X60643642Y-30240734D01*
X60557034Y-30102130D01*
X60549322Y-30094364D01*
X60446833Y-29991157D01*
X60446829Y-29991154D01*
X60441870Y-29986160D01*
X60426036Y-29976111D01*
X60388940Y-29952569D01*
X60303874Y-29898585D01*
X60272193Y-29887304D01*
X60156541Y-29846122D01*
X60156536Y-29846121D01*
X60149906Y-29843760D01*
X60142918Y-29842927D01*
X60142915Y-29842926D01*
X60010428Y-29827128D01*
X59987618Y-29824408D01*
X59980615Y-29825144D01*
X59980614Y-29825144D01*
X59832075Y-29840756D01*
X59832073Y-29840757D01*
X59825075Y-29841492D01*
X59743773Y-29869169D01*
X59677027Y-29891891D01*
X59677024Y-29891892D01*
X59670357Y-29894162D01*
X59531152Y-29979801D01*
X59414380Y-30094153D01*
X59325845Y-30231534D01*
X59323436Y-30238154D01*
X59323435Y-30238155D01*
X59303340Y-30293365D01*
X59269946Y-30385115D01*
X59249461Y-30547264D01*
X26336590Y-30547264D01*
X26374527Y-30481556D01*
X26433542Y-30299928D01*
X26439764Y-30240734D01*
X26452814Y-30116565D01*
X26453504Y-30110000D01*
X26451320Y-30089224D01*
X26434232Y-29926635D01*
X26434232Y-29926633D01*
X26433542Y-29920072D01*
X26374527Y-29738444D01*
X26360301Y-29713803D01*
X26337314Y-29673990D01*
X26279040Y-29573056D01*
X26174493Y-29456944D01*
X26155675Y-29436045D01*
X26155674Y-29436044D01*
X26151253Y-29431134D01*
X26149367Y-29429764D01*
X66096961Y-29429764D01*
X66112910Y-29592422D01*
X66115134Y-29599107D01*
X66115134Y-29599108D01*
X66138704Y-29669963D01*
X66164499Y-29747505D01*
X66168148Y-29753530D01*
X66222794Y-29843760D01*
X66249165Y-29887304D01*
X66362698Y-30004871D01*
X66368590Y-30008726D01*
X66368594Y-30008730D01*
X66452553Y-30063671D01*
X66499457Y-30094364D01*
X66535132Y-30107631D01*
X66646048Y-30148880D01*
X66646051Y-30148881D01*
X66652645Y-30151333D01*
X66659622Y-30152264D01*
X66807666Y-30172018D01*
X66807670Y-30172018D01*
X66814647Y-30172949D01*
X66821658Y-30172311D01*
X66821662Y-30172311D01*
X66970391Y-30158775D01*
X66977412Y-30158136D01*
X66984114Y-30155958D01*
X66984116Y-30155958D01*
X67126152Y-30109808D01*
X67126155Y-30109807D01*
X67132851Y-30107631D01*
X67163729Y-30089224D01*
X67267186Y-30027552D01*
X67267188Y-30027551D01*
X67273238Y-30023944D01*
X67391595Y-29911234D01*
X67482040Y-29775103D01*
X67507820Y-29707237D01*
X67537578Y-29628900D01*
X67537579Y-29628895D01*
X67540078Y-29622317D01*
X67544064Y-29593955D01*
X67562273Y-29464393D01*
X67562273Y-29464388D01*
X67562824Y-29460470D01*
X67563110Y-29440000D01*
X67549525Y-29318882D01*
X67545677Y-29284577D01*
X67545676Y-29284575D01*
X67544892Y-29277581D01*
X67491142Y-29123234D01*
X67404534Y-28984630D01*
X67399572Y-28979633D01*
X67340354Y-28920000D01*
X77596496Y-28920000D01*
X77616458Y-29109928D01*
X77675473Y-29291556D01*
X77678776Y-29297278D01*
X77678777Y-29297279D01*
X77691250Y-29318882D01*
X77770960Y-29456944D01*
X77775378Y-29461851D01*
X77775379Y-29461852D01*
X77880656Y-29578774D01*
X77898747Y-29598866D01*
X78053248Y-29711118D01*
X78059276Y-29713802D01*
X78059278Y-29713803D01*
X78196961Y-29775103D01*
X78227712Y-29788794D01*
X78321112Y-29808647D01*
X78408056Y-29827128D01*
X78408061Y-29827128D01*
X78414513Y-29828500D01*
X78605487Y-29828500D01*
X78611939Y-29827128D01*
X78611944Y-29827128D01*
X78698888Y-29808647D01*
X78792288Y-29788794D01*
X78823039Y-29775103D01*
X78960722Y-29713803D01*
X78960724Y-29713802D01*
X78966752Y-29711118D01*
X79121253Y-29598866D01*
X79139344Y-29578774D01*
X79244621Y-29461852D01*
X79244622Y-29461851D01*
X79249040Y-29456944D01*
X79328750Y-29318882D01*
X79341223Y-29297279D01*
X79341224Y-29297278D01*
X79344527Y-29291556D01*
X79403542Y-29109928D01*
X79423504Y-28920000D01*
X79403542Y-28730072D01*
X79344527Y-28548444D01*
X79249040Y-28383056D01*
X79121253Y-28241134D01*
X78966752Y-28128882D01*
X78960724Y-28126198D01*
X78960722Y-28126197D01*
X78798319Y-28053891D01*
X78798318Y-28053891D01*
X78792288Y-28051206D01*
X78698887Y-28031353D01*
X78611944Y-28012872D01*
X78611939Y-28012872D01*
X78605487Y-28011500D01*
X78414513Y-28011500D01*
X78408061Y-28012872D01*
X78408056Y-28012872D01*
X78321113Y-28031353D01*
X78227712Y-28051206D01*
X78221682Y-28053891D01*
X78221681Y-28053891D01*
X78059278Y-28126197D01*
X78059276Y-28126198D01*
X78053248Y-28128882D01*
X77898747Y-28241134D01*
X77770960Y-28383056D01*
X77675473Y-28548444D01*
X77616458Y-28730072D01*
X77596496Y-28920000D01*
X67340354Y-28920000D01*
X67294333Y-28873657D01*
X67294329Y-28873654D01*
X67289370Y-28868660D01*
X67273536Y-28858611D01*
X67236440Y-28835069D01*
X67151374Y-28781085D01*
X67126835Y-28772347D01*
X67004041Y-28728622D01*
X67004036Y-28728621D01*
X66997406Y-28726260D01*
X66990418Y-28725427D01*
X66990415Y-28725426D01*
X66879476Y-28712197D01*
X66835118Y-28706908D01*
X66828115Y-28707644D01*
X66828114Y-28707644D01*
X66679575Y-28723256D01*
X66679573Y-28723257D01*
X66672575Y-28723992D01*
X66591273Y-28751669D01*
X66524527Y-28774391D01*
X66524524Y-28774392D01*
X66517857Y-28776662D01*
X66378652Y-28862301D01*
X66261880Y-28976653D01*
X66173345Y-29114034D01*
X66170936Y-29120654D01*
X66170935Y-29120655D01*
X66145396Y-29190824D01*
X66117446Y-29267615D01*
X66096961Y-29429764D01*
X26149367Y-29429764D01*
X25996752Y-29318882D01*
X25990724Y-29316198D01*
X25990722Y-29316197D01*
X25828319Y-29243891D01*
X25828318Y-29243891D01*
X25822288Y-29241206D01*
X25728887Y-29221353D01*
X25641944Y-29202872D01*
X25641939Y-29202872D01*
X25635487Y-29201500D01*
X25444513Y-29201500D01*
X25438061Y-29202872D01*
X25438056Y-29202872D01*
X25351113Y-29221353D01*
X25257712Y-29241206D01*
X25251682Y-29243891D01*
X25251681Y-29243891D01*
X25089278Y-29316197D01*
X25089276Y-29316198D01*
X25083248Y-29318882D01*
X24928747Y-29431134D01*
X24924326Y-29436044D01*
X24924325Y-29436045D01*
X24905508Y-29456944D01*
X24800960Y-29573056D01*
X24742686Y-29673990D01*
X24719700Y-29713803D01*
X24705473Y-29738444D01*
X24646458Y-29920072D01*
X24645768Y-29926633D01*
X24645768Y-29926635D01*
X24628680Y-30089224D01*
X24626496Y-30110000D01*
X20508500Y-30110000D01*
X20508500Y-25797500D01*
X50496807Y-25797500D01*
X50515542Y-26011642D01*
X50516966Y-26016955D01*
X50516966Y-26016957D01*
X50558924Y-26173543D01*
X50571178Y-26219277D01*
X50573500Y-26224257D01*
X50573501Y-26224259D01*
X50588886Y-26257251D01*
X50662024Y-26414096D01*
X50785319Y-26590181D01*
X50937319Y-26742181D01*
X51113403Y-26865476D01*
X51118381Y-26867797D01*
X51118384Y-26867799D01*
X51273220Y-26940000D01*
X51308223Y-26956322D01*
X51313531Y-26957744D01*
X51313533Y-26957745D01*
X51510543Y-27010534D01*
X51510545Y-27010534D01*
X51515858Y-27011958D01*
X51730000Y-27030693D01*
X51944142Y-27011958D01*
X51949455Y-27010534D01*
X51949457Y-27010534D01*
X52146467Y-26957745D01*
X52146469Y-26957744D01*
X52151777Y-26956322D01*
X52186780Y-26940000D01*
X52341616Y-26867799D01*
X52341619Y-26867797D01*
X52346597Y-26865476D01*
X52522681Y-26742181D01*
X52674681Y-26590181D01*
X52797976Y-26414096D01*
X52885805Y-26225747D01*
X52932723Y-26172462D01*
X53001000Y-26153001D01*
X53068960Y-26173543D01*
X53114195Y-26225747D01*
X53202024Y-26414096D01*
X53325319Y-26590181D01*
X53477319Y-26742181D01*
X53653403Y-26865476D01*
X53658381Y-26867797D01*
X53658384Y-26867799D01*
X53813220Y-26940000D01*
X53848223Y-26956322D01*
X53853531Y-26957744D01*
X53853533Y-26957745D01*
X54050543Y-27010534D01*
X54050545Y-27010534D01*
X54055858Y-27011958D01*
X54270000Y-27030693D01*
X54484142Y-27011958D01*
X54489455Y-27010534D01*
X54489457Y-27010534D01*
X54686467Y-26957745D01*
X54686469Y-26957744D01*
X54691777Y-26956322D01*
X54726780Y-26940000D01*
X54881616Y-26867799D01*
X54881619Y-26867797D01*
X54886597Y-26865476D01*
X54942802Y-26826121D01*
X56145933Y-26826121D01*
X56155227Y-26838135D01*
X56189146Y-26861885D01*
X56198641Y-26867368D01*
X56383413Y-26953528D01*
X56393705Y-26957274D01*
X56590632Y-27010040D01*
X56601425Y-27011943D01*
X56804525Y-27029712D01*
X56815475Y-27029712D01*
X57018575Y-27011943D01*
X57029368Y-27010040D01*
X57226295Y-26957274D01*
X57236587Y-26953528D01*
X57421359Y-26867368D01*
X57430854Y-26861885D01*
X57465607Y-26837551D01*
X57473983Y-26827072D01*
X57466916Y-26813627D01*
X56822811Y-26169521D01*
X56808868Y-26161908D01*
X56807034Y-26162039D01*
X56800420Y-26166290D01*
X56152360Y-26814351D01*
X56145933Y-26826121D01*
X54942802Y-26826121D01*
X55062681Y-26742181D01*
X55214681Y-26590181D01*
X55337976Y-26414096D01*
X55409304Y-26261134D01*
X55426081Y-26225156D01*
X55472999Y-26171871D01*
X55541276Y-26152410D01*
X55609236Y-26172952D01*
X55654471Y-26225156D01*
X55740135Y-26408864D01*
X55745613Y-26418350D01*
X55769949Y-26453107D01*
X55780428Y-26461483D01*
X55793872Y-26454417D01*
X56437979Y-25810311D01*
X56444356Y-25798632D01*
X57174408Y-25798632D01*
X57174539Y-25800466D01*
X57178790Y-25807080D01*
X57826851Y-26455140D01*
X57838621Y-26461567D01*
X57850635Y-26452272D01*
X57870992Y-26423199D01*
X64321500Y-26423199D01*
X64336391Y-26612403D01*
X64337545Y-26617210D01*
X64337546Y-26617216D01*
X64367548Y-26742181D01*
X64395495Y-26858591D01*
X64397388Y-26863162D01*
X64397389Y-26863164D01*
X64474228Y-27048669D01*
X64492384Y-27092502D01*
X64624672Y-27308376D01*
X64789102Y-27500898D01*
X64981624Y-27665328D01*
X65197498Y-27797616D01*
X65202068Y-27799509D01*
X65202072Y-27799511D01*
X65426836Y-27892611D01*
X65431409Y-27894505D01*
X65516032Y-27914821D01*
X65672784Y-27952454D01*
X65672790Y-27952455D01*
X65677597Y-27953609D01*
X65930000Y-27973474D01*
X66182403Y-27953609D01*
X66187210Y-27952455D01*
X66187216Y-27952454D01*
X66343968Y-27914821D01*
X66428591Y-27894505D01*
X66433164Y-27892611D01*
X66657928Y-27799511D01*
X66657932Y-27799509D01*
X66662502Y-27797616D01*
X66878376Y-27665328D01*
X67070898Y-27500898D01*
X67225383Y-27320020D01*
X67284834Y-27281211D01*
X67355828Y-27280705D01*
X67391466Y-27297267D01*
X67421262Y-27317290D01*
X67626967Y-27407588D01*
X67632418Y-27408897D01*
X67632422Y-27408898D01*
X67839954Y-27458722D01*
X67845411Y-27460032D01*
X67929475Y-27464879D01*
X68064083Y-27472640D01*
X68064086Y-27472640D01*
X68069690Y-27472963D01*
X68292715Y-27445975D01*
X68507435Y-27379918D01*
X68512415Y-27377348D01*
X68512419Y-27377346D01*
X68702081Y-27279454D01*
X68702082Y-27279454D01*
X68707064Y-27276882D01*
X68885292Y-27140123D01*
X68889063Y-27135978D01*
X68889067Y-27135975D01*
X68936480Y-27083869D01*
X68997121Y-27046946D01*
X69068096Y-27048669D01*
X69117358Y-27078183D01*
X69234799Y-27191992D01*
X69421262Y-27317290D01*
X69626967Y-27407588D01*
X69632418Y-27408897D01*
X69632422Y-27408898D01*
X69839954Y-27458722D01*
X69845411Y-27460032D01*
X69929475Y-27464879D01*
X70064083Y-27472640D01*
X70064086Y-27472640D01*
X70069690Y-27472963D01*
X70292715Y-27445975D01*
X70507435Y-27379918D01*
X70512415Y-27377348D01*
X70512419Y-27377346D01*
X70702081Y-27279454D01*
X70702082Y-27279454D01*
X70707064Y-27276882D01*
X70711513Y-27273468D01*
X70711518Y-27273465D01*
X70717014Y-27269248D01*
X70783234Y-27243648D01*
X70852783Y-27257913D01*
X70894542Y-27293644D01*
X70916739Y-27323261D01*
X71033295Y-27410615D01*
X71169684Y-27461745D01*
X71231866Y-27468500D01*
X72828134Y-27468500D01*
X72831529Y-27468131D01*
X72831533Y-27468131D01*
X72884586Y-27462368D01*
X72954469Y-27474897D01*
X72986760Y-27498155D01*
X72989102Y-27500898D01*
X73181624Y-27665328D01*
X73397498Y-27797616D01*
X73402068Y-27799509D01*
X73402072Y-27799511D01*
X73626836Y-27892611D01*
X73631409Y-27894505D01*
X73716032Y-27914821D01*
X73872784Y-27952454D01*
X73872790Y-27952455D01*
X73877597Y-27953609D01*
X74130000Y-27973474D01*
X74382403Y-27953609D01*
X74387210Y-27952455D01*
X74387216Y-27952454D01*
X74543968Y-27914821D01*
X74628591Y-27894505D01*
X74633164Y-27892611D01*
X74857928Y-27799511D01*
X74857932Y-27799509D01*
X74862502Y-27797616D01*
X75078376Y-27665328D01*
X75270898Y-27500898D01*
X75435328Y-27308376D01*
X75567616Y-27092502D01*
X75585773Y-27048669D01*
X75630785Y-26940000D01*
X90326496Y-26940000D01*
X90327186Y-26946565D01*
X90341020Y-27078184D01*
X90346458Y-27129928D01*
X90405473Y-27311556D01*
X90408776Y-27317278D01*
X90408777Y-27317279D01*
X90442686Y-27376010D01*
X90500960Y-27476944D01*
X90505378Y-27481851D01*
X90505379Y-27481852D01*
X90522528Y-27500898D01*
X90628747Y-27618866D01*
X90783248Y-27731118D01*
X90789276Y-27733802D01*
X90789278Y-27733803D01*
X90936862Y-27799511D01*
X90957712Y-27808794D01*
X91051112Y-27828647D01*
X91138056Y-27847128D01*
X91138061Y-27847128D01*
X91144513Y-27848500D01*
X91335487Y-27848500D01*
X91341939Y-27847128D01*
X91341944Y-27847128D01*
X91428887Y-27828647D01*
X91522288Y-27808794D01*
X91543138Y-27799511D01*
X91690722Y-27733803D01*
X91690724Y-27733802D01*
X91696752Y-27731118D01*
X91851253Y-27618866D01*
X91957472Y-27500898D01*
X91974621Y-27481852D01*
X91974622Y-27481851D01*
X91979040Y-27476944D01*
X92037314Y-27376010D01*
X92071223Y-27317279D01*
X92071224Y-27317278D01*
X92074527Y-27311556D01*
X92133542Y-27129928D01*
X92138981Y-27078184D01*
X92152814Y-26946565D01*
X92153504Y-26940000D01*
X92152814Y-26933435D01*
X92134232Y-26756635D01*
X92134232Y-26756633D01*
X92133542Y-26750072D01*
X92074527Y-26568444D01*
X91979040Y-26403056D01*
X91851253Y-26261134D01*
X91730695Y-26173543D01*
X91702094Y-26152763D01*
X91702093Y-26152762D01*
X91696752Y-26148882D01*
X91690724Y-26146198D01*
X91690722Y-26146197D01*
X91528319Y-26073891D01*
X91528318Y-26073891D01*
X91522288Y-26071206D01*
X91428887Y-26051353D01*
X91341944Y-26032872D01*
X91341939Y-26032872D01*
X91335487Y-26031500D01*
X91144513Y-26031500D01*
X91138061Y-26032872D01*
X91138056Y-26032872D01*
X91051112Y-26051353D01*
X90957712Y-26071206D01*
X90951682Y-26073891D01*
X90951681Y-26073891D01*
X90789278Y-26146197D01*
X90789276Y-26146198D01*
X90783248Y-26148882D01*
X90777907Y-26152762D01*
X90777906Y-26152763D01*
X90749305Y-26173543D01*
X90628747Y-26261134D01*
X90500960Y-26403056D01*
X90405473Y-26568444D01*
X90346458Y-26750072D01*
X90345768Y-26756633D01*
X90345768Y-26756635D01*
X90327186Y-26933435D01*
X90326496Y-26940000D01*
X75630785Y-26940000D01*
X75662611Y-26863164D01*
X75662612Y-26863162D01*
X75664505Y-26858591D01*
X75692452Y-26742181D01*
X75722454Y-26617216D01*
X75722455Y-26617210D01*
X75723609Y-26612403D01*
X75738500Y-26423199D01*
X75738500Y-24996801D01*
X75723609Y-24807597D01*
X75718378Y-24785806D01*
X75669702Y-24583057D01*
X75664505Y-24561409D01*
X75662611Y-24556836D01*
X75569511Y-24332072D01*
X75569509Y-24332068D01*
X75567616Y-24327498D01*
X75435328Y-24111624D01*
X75270898Y-23919102D01*
X75078376Y-23754672D01*
X74862502Y-23622384D01*
X74857932Y-23620491D01*
X74857928Y-23620489D01*
X74633164Y-23527389D01*
X74633162Y-23527388D01*
X74628591Y-23525495D01*
X74505872Y-23496033D01*
X74387216Y-23467546D01*
X74387210Y-23467545D01*
X74382403Y-23466391D01*
X74130000Y-23446526D01*
X73877597Y-23466391D01*
X73872790Y-23467545D01*
X73872784Y-23467546D01*
X73754128Y-23496033D01*
X73631409Y-23525495D01*
X73626838Y-23527388D01*
X73626836Y-23527389D01*
X73402072Y-23620489D01*
X73402068Y-23620491D01*
X73397498Y-23622384D01*
X73181624Y-23754672D01*
X72989102Y-23919102D01*
X72986907Y-23921672D01*
X72924976Y-23955490D01*
X72884586Y-23957632D01*
X72831533Y-23951869D01*
X72831529Y-23951869D01*
X72828134Y-23951500D01*
X71231866Y-23951500D01*
X71169684Y-23958255D01*
X71033295Y-24009385D01*
X70916739Y-24096739D01*
X70892421Y-24129187D01*
X70835564Y-24171701D01*
X70764746Y-24176727D01*
X70721320Y-24158202D01*
X70643399Y-24105841D01*
X70643390Y-24105836D01*
X70638738Y-24102710D01*
X70433033Y-24012412D01*
X70427582Y-24011103D01*
X70427578Y-24011102D01*
X70220046Y-23961278D01*
X70220045Y-23961278D01*
X70214589Y-23959968D01*
X70130525Y-23955121D01*
X69995917Y-23947360D01*
X69995914Y-23947360D01*
X69990310Y-23947037D01*
X69767285Y-23974025D01*
X69552565Y-24040082D01*
X69547585Y-24042652D01*
X69547581Y-24042654D01*
X69405790Y-24115838D01*
X69352936Y-24143118D01*
X69174708Y-24279877D01*
X69170937Y-24284022D01*
X69170933Y-24284025D01*
X69123520Y-24336131D01*
X69062879Y-24373054D01*
X68991904Y-24371331D01*
X68942642Y-24341817D01*
X68867749Y-24269240D01*
X68829229Y-24231911D01*
X68829226Y-24231909D01*
X68825201Y-24228008D01*
X68638738Y-24102710D01*
X68433033Y-24012412D01*
X68427582Y-24011103D01*
X68427578Y-24011102D01*
X68220046Y-23961278D01*
X68220045Y-23961278D01*
X68214589Y-23959968D01*
X68130525Y-23955121D01*
X67995917Y-23947360D01*
X67995914Y-23947360D01*
X67990310Y-23947037D01*
X67767285Y-23974025D01*
X67552565Y-24040082D01*
X67547585Y-24042652D01*
X67547581Y-24042654D01*
X67378722Y-24129809D01*
X67309015Y-24143278D01*
X67243091Y-24116923D01*
X67225121Y-24099673D01*
X67074111Y-23922863D01*
X67074106Y-23922858D01*
X67070898Y-23919102D01*
X66878376Y-23754672D01*
X66662502Y-23622384D01*
X66657932Y-23620491D01*
X66657928Y-23620489D01*
X66433164Y-23527389D01*
X66433162Y-23527388D01*
X66428591Y-23525495D01*
X66305872Y-23496033D01*
X66187216Y-23467546D01*
X66187210Y-23467545D01*
X66182403Y-23466391D01*
X65930000Y-23446526D01*
X65677597Y-23466391D01*
X65672790Y-23467545D01*
X65672784Y-23467546D01*
X65554128Y-23496033D01*
X65431409Y-23525495D01*
X65426838Y-23527388D01*
X65426836Y-23527389D01*
X65202072Y-23620489D01*
X65202068Y-23620491D01*
X65197498Y-23622384D01*
X64981624Y-23754672D01*
X64789102Y-23919102D01*
X64624672Y-24111624D01*
X64492384Y-24327498D01*
X64490491Y-24332068D01*
X64490489Y-24332072D01*
X64397389Y-24556836D01*
X64395495Y-24561409D01*
X64390298Y-24583057D01*
X64341623Y-24785806D01*
X64336391Y-24807597D01*
X64321500Y-24996801D01*
X64321500Y-26423199D01*
X57870992Y-26423199D01*
X57874387Y-26418350D01*
X57879865Y-26408864D01*
X57966028Y-26224087D01*
X57969774Y-26213795D01*
X58022540Y-26016868D01*
X58024443Y-26006075D01*
X58042212Y-25802975D01*
X58042212Y-25792025D01*
X58024443Y-25588925D01*
X58022540Y-25578132D01*
X57969774Y-25381205D01*
X57966028Y-25370913D01*
X57879865Y-25186136D01*
X57874387Y-25176650D01*
X57850051Y-25141893D01*
X57839572Y-25133517D01*
X57826128Y-25140583D01*
X57182021Y-25784689D01*
X57174408Y-25798632D01*
X56444356Y-25798632D01*
X56445592Y-25796368D01*
X56445461Y-25794534D01*
X56441210Y-25787920D01*
X55793149Y-25139860D01*
X55781379Y-25133433D01*
X55769365Y-25142728D01*
X55745613Y-25176650D01*
X55740135Y-25186136D01*
X55654471Y-25369844D01*
X55607554Y-25423129D01*
X55539276Y-25442590D01*
X55471317Y-25422048D01*
X55426081Y-25369844D01*
X55340299Y-25185885D01*
X55340297Y-25185882D01*
X55337976Y-25180904D01*
X55214681Y-25004819D01*
X55062681Y-24852819D01*
X54941444Y-24767928D01*
X56146017Y-24767928D01*
X56153083Y-24781372D01*
X56797189Y-25425479D01*
X56811132Y-25433092D01*
X56812966Y-25432961D01*
X56819580Y-25428710D01*
X57467640Y-24780649D01*
X57474067Y-24768879D01*
X57464773Y-24756865D01*
X57430854Y-24733115D01*
X57421359Y-24727632D01*
X57236587Y-24641472D01*
X57226295Y-24637726D01*
X57029368Y-24584960D01*
X57018575Y-24583057D01*
X56815475Y-24565288D01*
X56804525Y-24565288D01*
X56601425Y-24583057D01*
X56590632Y-24584960D01*
X56393705Y-24637726D01*
X56383413Y-24641472D01*
X56198636Y-24727635D01*
X56189150Y-24733113D01*
X56154393Y-24757449D01*
X56146017Y-24767928D01*
X54941444Y-24767928D01*
X54886597Y-24729524D01*
X54881619Y-24727203D01*
X54881616Y-24727201D01*
X54696759Y-24641001D01*
X54696758Y-24641000D01*
X54691777Y-24638678D01*
X54686469Y-24637256D01*
X54686467Y-24637255D01*
X54489457Y-24584466D01*
X54489455Y-24584466D01*
X54484142Y-24583042D01*
X54270000Y-24564307D01*
X54055858Y-24583042D01*
X54050545Y-24584466D01*
X54050543Y-24584466D01*
X53853533Y-24637255D01*
X53853531Y-24637256D01*
X53848223Y-24638678D01*
X53843243Y-24641000D01*
X53843241Y-24641001D01*
X53658385Y-24727201D01*
X53658382Y-24727203D01*
X53653404Y-24729524D01*
X53477319Y-24852819D01*
X53325319Y-25004819D01*
X53202024Y-25180904D01*
X53199703Y-25185882D01*
X53199701Y-25185885D01*
X53114195Y-25369253D01*
X53067277Y-25422538D01*
X52999000Y-25441999D01*
X52931040Y-25421457D01*
X52885805Y-25369253D01*
X52800299Y-25185885D01*
X52800297Y-25185882D01*
X52797976Y-25180904D01*
X52674681Y-25004819D01*
X52522681Y-24852819D01*
X52346597Y-24729524D01*
X52341619Y-24727203D01*
X52341616Y-24727201D01*
X52156759Y-24641001D01*
X52156758Y-24641000D01*
X52151777Y-24638678D01*
X52146469Y-24637256D01*
X52146467Y-24637255D01*
X51949457Y-24584466D01*
X51949455Y-24584466D01*
X51944142Y-24583042D01*
X51730000Y-24564307D01*
X51515858Y-24583042D01*
X51510545Y-24584466D01*
X51510543Y-24584466D01*
X51313533Y-24637255D01*
X51313531Y-24637256D01*
X51308223Y-24638678D01*
X51303243Y-24641000D01*
X51303241Y-24641001D01*
X51118385Y-24727201D01*
X51118382Y-24727203D01*
X51113404Y-24729524D01*
X50937319Y-24852819D01*
X50785319Y-25004819D01*
X50662024Y-25180904D01*
X50571178Y-25375723D01*
X50569756Y-25381031D01*
X50569755Y-25381033D01*
X50557846Y-25425479D01*
X50515542Y-25583358D01*
X50496807Y-25797500D01*
X20508500Y-25797500D01*
X20508500Y-23053250D01*
X20509416Y-23042277D01*
X21137009Y-23042277D01*
X21162625Y-23310769D01*
X21163710Y-23315203D01*
X21163711Y-23315209D01*
X21214885Y-23524340D01*
X21226731Y-23572750D01*
X21327985Y-23822733D01*
X21400768Y-23947037D01*
X21439047Y-24012412D01*
X21464265Y-24055482D01*
X21557208Y-24171701D01*
X21584686Y-24206060D01*
X21632716Y-24266119D01*
X21829809Y-24450234D01*
X22051416Y-24603968D01*
X22055499Y-24605999D01*
X22055502Y-24606001D01*
X22126802Y-24641472D01*
X22292894Y-24724101D01*
X22297228Y-24725522D01*
X22297231Y-24725523D01*
X22544853Y-24806698D01*
X22544859Y-24806699D01*
X22549186Y-24808118D01*
X22553677Y-24808898D01*
X22553678Y-24808898D01*
X22811140Y-24853601D01*
X22811148Y-24853602D01*
X22814921Y-24854257D01*
X22818758Y-24854448D01*
X22898578Y-24858422D01*
X22898586Y-24858422D01*
X22900149Y-24858500D01*
X23068512Y-24858500D01*
X23070780Y-24858335D01*
X23070792Y-24858335D01*
X23201884Y-24848823D01*
X23269004Y-24843953D01*
X23273459Y-24842969D01*
X23273462Y-24842969D01*
X23527912Y-24786791D01*
X23527916Y-24786790D01*
X23532372Y-24785806D01*
X23671453Y-24733113D01*
X23780318Y-24691868D01*
X23780321Y-24691867D01*
X23784588Y-24690250D01*
X23977599Y-24583042D01*
X24016375Y-24561504D01*
X24016376Y-24561503D01*
X24020368Y-24559286D01*
X24234773Y-24395657D01*
X24245831Y-24384346D01*
X24347956Y-24279877D01*
X24423312Y-24202792D01*
X24582034Y-23984730D01*
X24665190Y-23826676D01*
X24705490Y-23750079D01*
X24705493Y-23750073D01*
X24707615Y-23746039D01*
X24751283Y-23622384D01*
X24795902Y-23496033D01*
X24795902Y-23496032D01*
X24797425Y-23491720D01*
X24849581Y-23227100D01*
X24858782Y-23042277D01*
X100137009Y-23042277D01*
X100162625Y-23310769D01*
X100163710Y-23315203D01*
X100163711Y-23315209D01*
X100214885Y-23524340D01*
X100226731Y-23572750D01*
X100327985Y-23822733D01*
X100400768Y-23947037D01*
X100439047Y-24012412D01*
X100464265Y-24055482D01*
X100557208Y-24171701D01*
X100584686Y-24206060D01*
X100632716Y-24266119D01*
X100829809Y-24450234D01*
X101051416Y-24603968D01*
X101055499Y-24605999D01*
X101055502Y-24606001D01*
X101126802Y-24641472D01*
X101292894Y-24724101D01*
X101297228Y-24725522D01*
X101297231Y-24725523D01*
X101544853Y-24806698D01*
X101544859Y-24806699D01*
X101549186Y-24808118D01*
X101553677Y-24808898D01*
X101553678Y-24808898D01*
X101811140Y-24853601D01*
X101811148Y-24853602D01*
X101814921Y-24854257D01*
X101818758Y-24854448D01*
X101898578Y-24858422D01*
X101898586Y-24858422D01*
X101900149Y-24858500D01*
X102068512Y-24858500D01*
X102070780Y-24858335D01*
X102070792Y-24858335D01*
X102201884Y-24848823D01*
X102269004Y-24843953D01*
X102273459Y-24842969D01*
X102273462Y-24842969D01*
X102527912Y-24786791D01*
X102527916Y-24786790D01*
X102532372Y-24785806D01*
X102671453Y-24733113D01*
X102780318Y-24691868D01*
X102780321Y-24691867D01*
X102784588Y-24690250D01*
X102977599Y-24583042D01*
X103016375Y-24561504D01*
X103016376Y-24561503D01*
X103020368Y-24559286D01*
X103234773Y-24395657D01*
X103245831Y-24384346D01*
X103347956Y-24279877D01*
X103423312Y-24202792D01*
X103582034Y-23984730D01*
X103665190Y-23826676D01*
X103705490Y-23750079D01*
X103705493Y-23750073D01*
X103707615Y-23746039D01*
X103751283Y-23622384D01*
X103795902Y-23496033D01*
X103795902Y-23496032D01*
X103797425Y-23491720D01*
X103849581Y-23227100D01*
X103858782Y-23042277D01*
X103862764Y-22962292D01*
X103862764Y-22962286D01*
X103862991Y-22957723D01*
X103837375Y-22689231D01*
X103829169Y-22655692D01*
X103774355Y-22431688D01*
X103773269Y-22427250D01*
X103672015Y-22177267D01*
X103535735Y-21944518D01*
X103417928Y-21797208D01*
X103370136Y-21737447D01*
X103370135Y-21737445D01*
X103367284Y-21733881D01*
X103170191Y-21549766D01*
X102948584Y-21396032D01*
X102944501Y-21394001D01*
X102944498Y-21393999D01*
X102779606Y-21311967D01*
X102707106Y-21275899D01*
X102702772Y-21274478D01*
X102702769Y-21274477D01*
X102455147Y-21193302D01*
X102455141Y-21193301D01*
X102450814Y-21191882D01*
X102446322Y-21191102D01*
X102188860Y-21146399D01*
X102188852Y-21146398D01*
X102185079Y-21145743D01*
X102173817Y-21145182D01*
X102101422Y-21141578D01*
X102101414Y-21141578D01*
X102099851Y-21141500D01*
X101931488Y-21141500D01*
X101929220Y-21141665D01*
X101929208Y-21141665D01*
X101798116Y-21151177D01*
X101730996Y-21156047D01*
X101726541Y-21157031D01*
X101726538Y-21157031D01*
X101472088Y-21213209D01*
X101472084Y-21213210D01*
X101467628Y-21214194D01*
X101341520Y-21261972D01*
X101219682Y-21308132D01*
X101219679Y-21308133D01*
X101215412Y-21309750D01*
X100979632Y-21440714D01*
X100765227Y-21604343D01*
X100576688Y-21797208D01*
X100417966Y-22015270D01*
X100415844Y-22019304D01*
X100294510Y-22249921D01*
X100294507Y-22249927D01*
X100292385Y-22253961D01*
X100290865Y-22258266D01*
X100290863Y-22258270D01*
X100204098Y-22503967D01*
X100202575Y-22508280D01*
X100201692Y-22512762D01*
X100163351Y-22707290D01*
X100150419Y-22772900D01*
X100150192Y-22777453D01*
X100150192Y-22777456D01*
X100137450Y-23033421D01*
X100137009Y-23042277D01*
X24858782Y-23042277D01*
X24862764Y-22962292D01*
X24862764Y-22962286D01*
X24862991Y-22957723D01*
X24837375Y-22689231D01*
X24829169Y-22655692D01*
X24774355Y-22431688D01*
X24773269Y-22427250D01*
X24672015Y-22177267D01*
X24535735Y-21944518D01*
X24417928Y-21797208D01*
X24370136Y-21737447D01*
X24370135Y-21737445D01*
X24367284Y-21733881D01*
X24170191Y-21549766D01*
X23948584Y-21396032D01*
X23944501Y-21394001D01*
X23944498Y-21393999D01*
X23779606Y-21311967D01*
X23707106Y-21275899D01*
X23702772Y-21274478D01*
X23702769Y-21274477D01*
X23455147Y-21193302D01*
X23455141Y-21193301D01*
X23450814Y-21191882D01*
X23446322Y-21191102D01*
X23188860Y-21146399D01*
X23188852Y-21146398D01*
X23185079Y-21145743D01*
X23173817Y-21145182D01*
X23101422Y-21141578D01*
X23101414Y-21141578D01*
X23099851Y-21141500D01*
X22931488Y-21141500D01*
X22929220Y-21141665D01*
X22929208Y-21141665D01*
X22798116Y-21151177D01*
X22730996Y-21156047D01*
X22726541Y-21157031D01*
X22726538Y-21157031D01*
X22472088Y-21213209D01*
X22472084Y-21213210D01*
X22467628Y-21214194D01*
X22341520Y-21261972D01*
X22219682Y-21308132D01*
X22219679Y-21308133D01*
X22215412Y-21309750D01*
X21979632Y-21440714D01*
X21765227Y-21604343D01*
X21576688Y-21797208D01*
X21417966Y-22015270D01*
X21415844Y-22019304D01*
X21294510Y-22249921D01*
X21294507Y-22249927D01*
X21292385Y-22253961D01*
X21290865Y-22258266D01*
X21290863Y-22258270D01*
X21204098Y-22503967D01*
X21202575Y-22508280D01*
X21201692Y-22512762D01*
X21163351Y-22707290D01*
X21150419Y-22772900D01*
X21150192Y-22777453D01*
X21150192Y-22777456D01*
X21137450Y-23033421D01*
X21137009Y-23042277D01*
X20509416Y-23042277D01*
X20510246Y-23032345D01*
X20512770Y-23017344D01*
X20512770Y-23017341D01*
X20513576Y-23012552D01*
X20513729Y-23000000D01*
X20513040Y-22995186D01*
X20513039Y-22995177D01*
X20511869Y-22987006D01*
X20510827Y-22961540D01*
X20526206Y-22707290D01*
X20528040Y-22692186D01*
X20575777Y-22431688D01*
X20579525Y-22411240D01*
X20583164Y-22396473D01*
X20628832Y-22249921D01*
X20668142Y-22123769D01*
X20673534Y-22109555D01*
X20790758Y-21849092D01*
X20797828Y-21835621D01*
X20945595Y-21591187D01*
X20954238Y-21578666D01*
X21130385Y-21353829D01*
X21140475Y-21342440D01*
X21342440Y-21140475D01*
X21353829Y-21130385D01*
X21578666Y-20954238D01*
X21591187Y-20945595D01*
X21835621Y-20797828D01*
X21849094Y-20790757D01*
X21891777Y-20771547D01*
X22109555Y-20673534D01*
X22123769Y-20668142D01*
X22396474Y-20583164D01*
X22411240Y-20579525D01*
X22620214Y-20541229D01*
X22692186Y-20528040D01*
X22707290Y-20526206D01*
X22957904Y-20511047D01*
X22984716Y-20512308D01*
X22984852Y-20512310D01*
X22993724Y-20513691D01*
X23002626Y-20512527D01*
X23002628Y-20512527D01*
X23017677Y-20510559D01*
X23025286Y-20509564D01*
X23041621Y-20508500D01*
X101950633Y-20508500D01*
X101970018Y-20510000D01*
G37*
%TD.AperFunction*%
%TD*%
M02*
