%TF.GenerationSoftware,KiCad,Pcbnew,6.0.7*%
%TF.CreationDate,2022-10-10T19:28:50-04:00*%
%TF.ProjectId,RadarProject,52616461-7250-4726-9f6a-6563742e6b69,rev?*%
%TF.SameCoordinates,Original*%
%TF.FileFunction,Legend,Top*%
%TF.FilePolarity,Positive*%
%FSLAX46Y46*%
G04 Gerber Fmt 4.6, Leading zero omitted, Abs format (unit mm)*
G04 Created by KiCad (PCBNEW 6.0.7) date 2022-10-10 19:28:50*
%MOMM*%
%LPD*%
G01*
G04 APERTURE LIST*
%ADD10C,0.300000*%
%ADD11C,0.150000*%
%ADD12C,0.120000*%
G04 APERTURE END LIST*
D10*
X41165714Y-53677142D02*
X41380000Y-53748571D01*
X41737142Y-53748571D01*
X41880000Y-53677142D01*
X41951428Y-53605714D01*
X42022857Y-53462857D01*
X42022857Y-53320000D01*
X41951428Y-53177142D01*
X41880000Y-53105714D01*
X41737142Y-53034285D01*
X41451428Y-52962857D01*
X41308571Y-52891428D01*
X41237142Y-52820000D01*
X41165714Y-52677142D01*
X41165714Y-52534285D01*
X41237142Y-52391428D01*
X41308571Y-52320000D01*
X41451428Y-52248571D01*
X41808571Y-52248571D01*
X42022857Y-52320000D01*
X43308571Y-53677142D02*
X43165714Y-53748571D01*
X42880000Y-53748571D01*
X42737142Y-53677142D01*
X42665714Y-53605714D01*
X42594285Y-53462857D01*
X42594285Y-53034285D01*
X42665714Y-52891428D01*
X42737142Y-52820000D01*
X42880000Y-52748571D01*
X43165714Y-52748571D01*
X43308571Y-52820000D01*
X43951428Y-53748571D02*
X43951428Y-52248571D01*
X44094285Y-53177142D02*
X44522857Y-53748571D01*
X44522857Y-52748571D02*
X43951428Y-53320000D01*
X45022857Y-52748571D02*
X45808571Y-52748571D01*
X45022857Y-53748571D01*
X45808571Y-53748571D01*
X46594285Y-53748571D02*
X46451428Y-53677142D01*
X46380000Y-53605714D01*
X46308571Y-53462857D01*
X46308571Y-53034285D01*
X46380000Y-52891428D01*
X46451428Y-52820000D01*
X46594285Y-52748571D01*
X46808571Y-52748571D01*
X46951428Y-52820000D01*
X47022857Y-52891428D01*
X47094285Y-53034285D01*
X47094285Y-53462857D01*
X47022857Y-53605714D01*
X46951428Y-53677142D01*
X46808571Y-53748571D01*
X46594285Y-53748571D01*
X47737142Y-53748571D02*
X47737142Y-52748571D01*
X47737142Y-53034285D02*
X47808571Y-52891428D01*
X47880000Y-52820000D01*
X48022857Y-52748571D01*
X48165714Y-52748571D01*
X48737142Y-52248571D02*
X48594285Y-52534285D01*
X49308571Y-53677142D02*
X49451428Y-53748571D01*
X49737142Y-53748571D01*
X49880000Y-53677142D01*
X49951428Y-53534285D01*
X49951428Y-53462857D01*
X49880000Y-53320000D01*
X49737142Y-53248571D01*
X49522857Y-53248571D01*
X49380000Y-53177142D01*
X49308571Y-53034285D01*
X49308571Y-52962857D01*
X49380000Y-52820000D01*
X49522857Y-52748571D01*
X49737142Y-52748571D01*
X49880000Y-52820000D01*
X51665714Y-52391428D02*
X51737142Y-52320000D01*
X51880000Y-52248571D01*
X52237142Y-52248571D01*
X52380000Y-52320000D01*
X52451428Y-52391428D01*
X52522857Y-52534285D01*
X52522857Y-52677142D01*
X52451428Y-52891428D01*
X51594285Y-53748571D01*
X52522857Y-53748571D01*
X53165714Y-53605714D02*
X53237142Y-53677142D01*
X53165714Y-53748571D01*
X53094285Y-53677142D01*
X53165714Y-53605714D01*
X53165714Y-53748571D01*
X54522857Y-52748571D02*
X54522857Y-53748571D01*
X54165714Y-52177142D02*
X53808571Y-53248571D01*
X54737142Y-53248571D01*
X56094285Y-52320000D02*
X55951428Y-52248571D01*
X55737142Y-52248571D01*
X55522857Y-52320000D01*
X55380000Y-52462857D01*
X55308571Y-52605714D01*
X55237142Y-52891428D01*
X55237142Y-53105714D01*
X55308571Y-53391428D01*
X55380000Y-53534285D01*
X55522857Y-53677142D01*
X55737142Y-53748571D01*
X55880000Y-53748571D01*
X56094285Y-53677142D01*
X56165714Y-53605714D01*
X56165714Y-53105714D01*
X55880000Y-53105714D01*
X56808571Y-53748571D02*
X56808571Y-52248571D01*
X56808571Y-52962857D02*
X57665714Y-52962857D01*
X57665714Y-53748571D02*
X57665714Y-52248571D01*
X58237142Y-52748571D02*
X59022857Y-52748571D01*
X58237142Y-53748571D01*
X59022857Y-53748571D01*
X61594285Y-53748571D02*
X61094285Y-53034285D01*
X60737142Y-53748571D02*
X60737142Y-52248571D01*
X61308571Y-52248571D01*
X61451428Y-52320000D01*
X61522857Y-52391428D01*
X61594285Y-52534285D01*
X61594285Y-52748571D01*
X61522857Y-52891428D01*
X61451428Y-52962857D01*
X61308571Y-53034285D01*
X60737142Y-53034285D01*
X62880000Y-53748571D02*
X62880000Y-52962857D01*
X62808571Y-52820000D01*
X62665714Y-52748571D01*
X62380000Y-52748571D01*
X62237142Y-52820000D01*
X62880000Y-53677142D02*
X62737142Y-53748571D01*
X62380000Y-53748571D01*
X62237142Y-53677142D01*
X62165714Y-53534285D01*
X62165714Y-53391428D01*
X62237142Y-53248571D01*
X62380000Y-53177142D01*
X62737142Y-53177142D01*
X62880000Y-53105714D01*
X64237142Y-53748571D02*
X64237142Y-52248571D01*
X64237142Y-53677142D02*
X64094285Y-53748571D01*
X63808571Y-53748571D01*
X63665714Y-53677142D01*
X63594285Y-53605714D01*
X63522857Y-53462857D01*
X63522857Y-53034285D01*
X63594285Y-52891428D01*
X63665714Y-52820000D01*
X63808571Y-52748571D01*
X64094285Y-52748571D01*
X64237142Y-52820000D01*
X65594285Y-53748571D02*
X65594285Y-52962857D01*
X65522857Y-52820000D01*
X65380000Y-52748571D01*
X65094285Y-52748571D01*
X64951428Y-52820000D01*
X65594285Y-53677142D02*
X65451428Y-53748571D01*
X65094285Y-53748571D01*
X64951428Y-53677142D01*
X64880000Y-53534285D01*
X64880000Y-53391428D01*
X64951428Y-53248571D01*
X65094285Y-53177142D01*
X65451428Y-53177142D01*
X65594285Y-53105714D01*
X66308571Y-53748571D02*
X66308571Y-52748571D01*
X66308571Y-53034285D02*
X66380000Y-52891428D01*
X66451428Y-52820000D01*
X66594285Y-52748571D01*
X66737142Y-52748571D01*
D11*
X100416190Y-48344761D02*
X101559047Y-48344761D01*
X100987619Y-50344761D02*
X100987619Y-48344761D01*
X102035238Y-48344761D02*
X103368571Y-50344761D01*
X103368571Y-48344761D02*
X102035238Y-50344761D01*
X101606666Y-40604761D02*
X100940000Y-39652380D01*
X100463809Y-40604761D02*
X100463809Y-38604761D01*
X101225714Y-38604761D01*
X101416190Y-38700000D01*
X101511428Y-38795238D01*
X101606666Y-38985714D01*
X101606666Y-39271428D01*
X101511428Y-39461904D01*
X101416190Y-39557142D01*
X101225714Y-39652380D01*
X100463809Y-39652380D01*
X102273333Y-38604761D02*
X103606666Y-40604761D01*
X103606666Y-38604761D02*
X102273333Y-40604761D01*
%TO.C,C11*%
X59589642Y-31914642D02*
X59542023Y-31962261D01*
X59399166Y-32009880D01*
X59303928Y-32009880D01*
X59161071Y-31962261D01*
X59065833Y-31867023D01*
X59018214Y-31771785D01*
X58970595Y-31581309D01*
X58970595Y-31438452D01*
X59018214Y-31247976D01*
X59065833Y-31152738D01*
X59161071Y-31057500D01*
X59303928Y-31009880D01*
X59399166Y-31009880D01*
X59542023Y-31057500D01*
X59589642Y-31105119D01*
X60542023Y-32009880D02*
X59970595Y-32009880D01*
X60256309Y-32009880D02*
X60256309Y-31009880D01*
X60161071Y-31152738D01*
X60065833Y-31247976D01*
X59970595Y-31295595D01*
X61494404Y-32009880D02*
X60922976Y-32009880D01*
X61208690Y-32009880D02*
X61208690Y-31009880D01*
X61113452Y-31152738D01*
X61018214Y-31247976D01*
X60922976Y-31295595D01*
%TO.C,U6*%
X37988095Y-64492380D02*
X37988095Y-65301904D01*
X38035714Y-65397142D01*
X38083333Y-65444761D01*
X38178571Y-65492380D01*
X38369047Y-65492380D01*
X38464285Y-65444761D01*
X38511904Y-65397142D01*
X38559523Y-65301904D01*
X38559523Y-64492380D01*
X39464285Y-64492380D02*
X39273809Y-64492380D01*
X39178571Y-64540000D01*
X39130952Y-64587619D01*
X39035714Y-64730476D01*
X38988095Y-64920952D01*
X38988095Y-65301904D01*
X39035714Y-65397142D01*
X39083333Y-65444761D01*
X39178571Y-65492380D01*
X39369047Y-65492380D01*
X39464285Y-65444761D01*
X39511904Y-65397142D01*
X39559523Y-65301904D01*
X39559523Y-65063809D01*
X39511904Y-64968571D01*
X39464285Y-64920952D01*
X39369047Y-64873333D01*
X39178571Y-64873333D01*
X39083333Y-64920952D01*
X39035714Y-64968571D01*
X38988095Y-65063809D01*
%TO.C,U8*%
X74652380Y-55629404D02*
X75461904Y-55629404D01*
X75557142Y-55581785D01*
X75604761Y-55534166D01*
X75652380Y-55438928D01*
X75652380Y-55248452D01*
X75604761Y-55153214D01*
X75557142Y-55105595D01*
X75461904Y-55057976D01*
X74652380Y-55057976D01*
X75080952Y-54438928D02*
X75033333Y-54534166D01*
X74985714Y-54581785D01*
X74890476Y-54629404D01*
X74842857Y-54629404D01*
X74747619Y-54581785D01*
X74700000Y-54534166D01*
X74652380Y-54438928D01*
X74652380Y-54248452D01*
X74700000Y-54153214D01*
X74747619Y-54105595D01*
X74842857Y-54057976D01*
X74890476Y-54057976D01*
X74985714Y-54105595D01*
X75033333Y-54153214D01*
X75080952Y-54248452D01*
X75080952Y-54438928D01*
X75128571Y-54534166D01*
X75176190Y-54581785D01*
X75271428Y-54629404D01*
X75461904Y-54629404D01*
X75557142Y-54581785D01*
X75604761Y-54534166D01*
X75652380Y-54438928D01*
X75652380Y-54248452D01*
X75604761Y-54153214D01*
X75557142Y-54105595D01*
X75461904Y-54057976D01*
X75271428Y-54057976D01*
X75176190Y-54105595D01*
X75128571Y-54153214D01*
X75080952Y-54248452D01*
%TO.C,R10*%
X54539642Y-48959880D02*
X54206309Y-48483690D01*
X53968214Y-48959880D02*
X53968214Y-47959880D01*
X54349166Y-47959880D01*
X54444404Y-48007500D01*
X54492023Y-48055119D01*
X54539642Y-48150357D01*
X54539642Y-48293214D01*
X54492023Y-48388452D01*
X54444404Y-48436071D01*
X54349166Y-48483690D01*
X53968214Y-48483690D01*
X55492023Y-48959880D02*
X54920595Y-48959880D01*
X55206309Y-48959880D02*
X55206309Y-47959880D01*
X55111071Y-48102738D01*
X55015833Y-48197976D01*
X54920595Y-48245595D01*
X56111071Y-47959880D02*
X56206309Y-47959880D01*
X56301547Y-48007500D01*
X56349166Y-48055119D01*
X56396785Y-48150357D01*
X56444404Y-48340833D01*
X56444404Y-48578928D01*
X56396785Y-48769404D01*
X56349166Y-48864642D01*
X56301547Y-48912261D01*
X56206309Y-48959880D01*
X56111071Y-48959880D01*
X56015833Y-48912261D01*
X55968214Y-48864642D01*
X55920595Y-48769404D01*
X55872976Y-48578928D01*
X55872976Y-48340833D01*
X55920595Y-48150357D01*
X55968214Y-48055119D01*
X56015833Y-48007500D01*
X56111071Y-47959880D01*
%TO.C,H4*%
X97228095Y-21422380D02*
X97228095Y-20422380D01*
X97228095Y-20898571D02*
X97799523Y-20898571D01*
X97799523Y-21422380D02*
X97799523Y-20422380D01*
X98704285Y-20755714D02*
X98704285Y-21422380D01*
X98466190Y-20374761D02*
X98228095Y-21089047D01*
X98847142Y-21089047D01*
%TO.C,R31*%
X70842380Y-31102857D02*
X70366190Y-31436190D01*
X70842380Y-31674285D02*
X69842380Y-31674285D01*
X69842380Y-31293333D01*
X69890000Y-31198095D01*
X69937619Y-31150476D01*
X70032857Y-31102857D01*
X70175714Y-31102857D01*
X70270952Y-31150476D01*
X70318571Y-31198095D01*
X70366190Y-31293333D01*
X70366190Y-31674285D01*
X69842380Y-30769523D02*
X69842380Y-30150476D01*
X70223333Y-30483809D01*
X70223333Y-30340952D01*
X70270952Y-30245714D01*
X70318571Y-30198095D01*
X70413809Y-30150476D01*
X70651904Y-30150476D01*
X70747142Y-30198095D01*
X70794761Y-30245714D01*
X70842380Y-30340952D01*
X70842380Y-30626666D01*
X70794761Y-30721904D01*
X70747142Y-30769523D01*
X70842380Y-29198095D02*
X70842380Y-29769523D01*
X70842380Y-29483809D02*
X69842380Y-29483809D01*
X69985238Y-29579047D01*
X70080476Y-29674285D01*
X70128095Y-29769523D01*
%TO.C,C4*%
X92283333Y-26467142D02*
X92235714Y-26514761D01*
X92092857Y-26562380D01*
X91997619Y-26562380D01*
X91854761Y-26514761D01*
X91759523Y-26419523D01*
X91711904Y-26324285D01*
X91664285Y-26133809D01*
X91664285Y-25990952D01*
X91711904Y-25800476D01*
X91759523Y-25705238D01*
X91854761Y-25610000D01*
X91997619Y-25562380D01*
X92092857Y-25562380D01*
X92235714Y-25610000D01*
X92283333Y-25657619D01*
X93140476Y-25895714D02*
X93140476Y-26562380D01*
X92902380Y-25514761D02*
X92664285Y-26229047D01*
X93283333Y-26229047D01*
%TO.C,R11*%
X62819642Y-37969880D02*
X62486309Y-37493690D01*
X62248214Y-37969880D02*
X62248214Y-36969880D01*
X62629166Y-36969880D01*
X62724404Y-37017500D01*
X62772023Y-37065119D01*
X62819642Y-37160357D01*
X62819642Y-37303214D01*
X62772023Y-37398452D01*
X62724404Y-37446071D01*
X62629166Y-37493690D01*
X62248214Y-37493690D01*
X63772023Y-37969880D02*
X63200595Y-37969880D01*
X63486309Y-37969880D02*
X63486309Y-36969880D01*
X63391071Y-37112738D01*
X63295833Y-37207976D01*
X63200595Y-37255595D01*
X64724404Y-37969880D02*
X64152976Y-37969880D01*
X64438690Y-37969880D02*
X64438690Y-36969880D01*
X64343452Y-37112738D01*
X64248214Y-37207976D01*
X64152976Y-37255595D01*
%TO.C,R30*%
X58139642Y-45379880D02*
X57806309Y-44903690D01*
X57568214Y-45379880D02*
X57568214Y-44379880D01*
X57949166Y-44379880D01*
X58044404Y-44427500D01*
X58092023Y-44475119D01*
X58139642Y-44570357D01*
X58139642Y-44713214D01*
X58092023Y-44808452D01*
X58044404Y-44856071D01*
X57949166Y-44903690D01*
X57568214Y-44903690D01*
X58472976Y-44379880D02*
X59092023Y-44379880D01*
X58758690Y-44760833D01*
X58901547Y-44760833D01*
X58996785Y-44808452D01*
X59044404Y-44856071D01*
X59092023Y-44951309D01*
X59092023Y-45189404D01*
X59044404Y-45284642D01*
X58996785Y-45332261D01*
X58901547Y-45379880D01*
X58615833Y-45379880D01*
X58520595Y-45332261D01*
X58472976Y-45284642D01*
X59711071Y-44379880D02*
X59806309Y-44379880D01*
X59901547Y-44427500D01*
X59949166Y-44475119D01*
X59996785Y-44570357D01*
X60044404Y-44760833D01*
X60044404Y-44998928D01*
X59996785Y-45189404D01*
X59949166Y-45284642D01*
X59901547Y-45332261D01*
X59806309Y-45379880D01*
X59711071Y-45379880D01*
X59615833Y-45332261D01*
X59568214Y-45284642D01*
X59520595Y-45189404D01*
X59472976Y-44998928D01*
X59472976Y-44760833D01*
X59520595Y-44570357D01*
X59568214Y-44475119D01*
X59615833Y-44427500D01*
X59711071Y-44379880D01*
%TO.C,R26*%
X67137142Y-66839880D02*
X66803809Y-66363690D01*
X66565714Y-66839880D02*
X66565714Y-65839880D01*
X66946666Y-65839880D01*
X67041904Y-65887500D01*
X67089523Y-65935119D01*
X67137142Y-66030357D01*
X67137142Y-66173214D01*
X67089523Y-66268452D01*
X67041904Y-66316071D01*
X66946666Y-66363690D01*
X66565714Y-66363690D01*
X67518095Y-65935119D02*
X67565714Y-65887500D01*
X67660952Y-65839880D01*
X67899047Y-65839880D01*
X67994285Y-65887500D01*
X68041904Y-65935119D01*
X68089523Y-66030357D01*
X68089523Y-66125595D01*
X68041904Y-66268452D01*
X67470476Y-66839880D01*
X68089523Y-66839880D01*
X68946666Y-65839880D02*
X68756190Y-65839880D01*
X68660952Y-65887500D01*
X68613333Y-65935119D01*
X68518095Y-66077976D01*
X68470476Y-66268452D01*
X68470476Y-66649404D01*
X68518095Y-66744642D01*
X68565714Y-66792261D01*
X68660952Y-66839880D01*
X68851428Y-66839880D01*
X68946666Y-66792261D01*
X68994285Y-66744642D01*
X69041904Y-66649404D01*
X69041904Y-66411309D01*
X68994285Y-66316071D01*
X68946666Y-66268452D01*
X68851428Y-66220833D01*
X68660952Y-66220833D01*
X68565714Y-66268452D01*
X68518095Y-66316071D01*
X68470476Y-66411309D01*
%TO.C,C2*%
X24433333Y-50457142D02*
X24385714Y-50504761D01*
X24242857Y-50552380D01*
X24147619Y-50552380D01*
X24004761Y-50504761D01*
X23909523Y-50409523D01*
X23861904Y-50314285D01*
X23814285Y-50123809D01*
X23814285Y-49980952D01*
X23861904Y-49790476D01*
X23909523Y-49695238D01*
X24004761Y-49600000D01*
X24147619Y-49552380D01*
X24242857Y-49552380D01*
X24385714Y-49600000D01*
X24433333Y-49647619D01*
X24814285Y-49647619D02*
X24861904Y-49600000D01*
X24957142Y-49552380D01*
X25195238Y-49552380D01*
X25290476Y-49600000D01*
X25338095Y-49647619D01*
X25385714Y-49742857D01*
X25385714Y-49838095D01*
X25338095Y-49980952D01*
X24766666Y-50552380D01*
X25385714Y-50552380D01*
%TO.C,R29*%
X58189642Y-48789880D02*
X57856309Y-48313690D01*
X57618214Y-48789880D02*
X57618214Y-47789880D01*
X57999166Y-47789880D01*
X58094404Y-47837500D01*
X58142023Y-47885119D01*
X58189642Y-47980357D01*
X58189642Y-48123214D01*
X58142023Y-48218452D01*
X58094404Y-48266071D01*
X57999166Y-48313690D01*
X57618214Y-48313690D01*
X58570595Y-47885119D02*
X58618214Y-47837500D01*
X58713452Y-47789880D01*
X58951547Y-47789880D01*
X59046785Y-47837500D01*
X59094404Y-47885119D01*
X59142023Y-47980357D01*
X59142023Y-48075595D01*
X59094404Y-48218452D01*
X58522976Y-48789880D01*
X59142023Y-48789880D01*
X59618214Y-48789880D02*
X59808690Y-48789880D01*
X59903928Y-48742261D01*
X59951547Y-48694642D01*
X60046785Y-48551785D01*
X60094404Y-48361309D01*
X60094404Y-47980357D01*
X60046785Y-47885119D01*
X59999166Y-47837500D01*
X59903928Y-47789880D01*
X59713452Y-47789880D01*
X59618214Y-47837500D01*
X59570595Y-47885119D01*
X59522976Y-47980357D01*
X59522976Y-48218452D01*
X59570595Y-48313690D01*
X59618214Y-48361309D01*
X59713452Y-48408928D01*
X59903928Y-48408928D01*
X59999166Y-48361309D01*
X60046785Y-48313690D01*
X60094404Y-48218452D01*
%TO.C,R9*%
X64654880Y-32714166D02*
X64178690Y-33047500D01*
X64654880Y-33285595D02*
X63654880Y-33285595D01*
X63654880Y-32904642D01*
X63702500Y-32809404D01*
X63750119Y-32761785D01*
X63845357Y-32714166D01*
X63988214Y-32714166D01*
X64083452Y-32761785D01*
X64131071Y-32809404D01*
X64178690Y-32904642D01*
X64178690Y-33285595D01*
X64654880Y-32237976D02*
X64654880Y-32047500D01*
X64607261Y-31952261D01*
X64559642Y-31904642D01*
X64416785Y-31809404D01*
X64226309Y-31761785D01*
X63845357Y-31761785D01*
X63750119Y-31809404D01*
X63702500Y-31857023D01*
X63654880Y-31952261D01*
X63654880Y-32142738D01*
X63702500Y-32237976D01*
X63750119Y-32285595D01*
X63845357Y-32333214D01*
X64083452Y-32333214D01*
X64178690Y-32285595D01*
X64226309Y-32237976D01*
X64273928Y-32142738D01*
X64273928Y-31952261D01*
X64226309Y-31857023D01*
X64178690Y-31809404D01*
X64083452Y-31761785D01*
%TO.C,R6*%
X81212380Y-35224166D02*
X80736190Y-35557500D01*
X81212380Y-35795595D02*
X80212380Y-35795595D01*
X80212380Y-35414642D01*
X80260000Y-35319404D01*
X80307619Y-35271785D01*
X80402857Y-35224166D01*
X80545714Y-35224166D01*
X80640952Y-35271785D01*
X80688571Y-35319404D01*
X80736190Y-35414642D01*
X80736190Y-35795595D01*
X80212380Y-34367023D02*
X80212380Y-34557500D01*
X80260000Y-34652738D01*
X80307619Y-34700357D01*
X80450476Y-34795595D01*
X80640952Y-34843214D01*
X81021904Y-34843214D01*
X81117142Y-34795595D01*
X81164761Y-34747976D01*
X81212380Y-34652738D01*
X81212380Y-34462261D01*
X81164761Y-34367023D01*
X81117142Y-34319404D01*
X81021904Y-34271785D01*
X80783809Y-34271785D01*
X80688571Y-34319404D01*
X80640952Y-34367023D01*
X80593333Y-34462261D01*
X80593333Y-34652738D01*
X80640952Y-34747976D01*
X80688571Y-34795595D01*
X80783809Y-34843214D01*
%TO.C,C9*%
X88243333Y-56864642D02*
X88195714Y-56912261D01*
X88052857Y-56959880D01*
X87957619Y-56959880D01*
X87814761Y-56912261D01*
X87719523Y-56817023D01*
X87671904Y-56721785D01*
X87624285Y-56531309D01*
X87624285Y-56388452D01*
X87671904Y-56197976D01*
X87719523Y-56102738D01*
X87814761Y-56007500D01*
X87957619Y-55959880D01*
X88052857Y-55959880D01*
X88195714Y-56007500D01*
X88243333Y-56055119D01*
X88719523Y-56959880D02*
X88910000Y-56959880D01*
X89005238Y-56912261D01*
X89052857Y-56864642D01*
X89148095Y-56721785D01*
X89195714Y-56531309D01*
X89195714Y-56150357D01*
X89148095Y-56055119D01*
X89100476Y-56007500D01*
X89005238Y-55959880D01*
X88814761Y-55959880D01*
X88719523Y-56007500D01*
X88671904Y-56055119D01*
X88624285Y-56150357D01*
X88624285Y-56388452D01*
X88671904Y-56483690D01*
X88719523Y-56531309D01*
X88814761Y-56578928D01*
X89005238Y-56578928D01*
X89100476Y-56531309D01*
X89148095Y-56483690D01*
X89195714Y-56388452D01*
%TO.C,H1*%
X21298095Y-27542380D02*
X21298095Y-26542380D01*
X21298095Y-27018571D02*
X21869523Y-27018571D01*
X21869523Y-27542380D02*
X21869523Y-26542380D01*
X22869523Y-27542380D02*
X22298095Y-27542380D01*
X22583809Y-27542380D02*
X22583809Y-26542380D01*
X22488571Y-26685238D01*
X22393333Y-26780476D01*
X22298095Y-26828095D01*
%TO.C,RV1*%
X53674761Y-22589880D02*
X53341428Y-22113690D01*
X53103333Y-22589880D02*
X53103333Y-21589880D01*
X53484285Y-21589880D01*
X53579523Y-21637500D01*
X53627142Y-21685119D01*
X53674761Y-21780357D01*
X53674761Y-21923214D01*
X53627142Y-22018452D01*
X53579523Y-22066071D01*
X53484285Y-22113690D01*
X53103333Y-22113690D01*
X53960476Y-21589880D02*
X54293809Y-22589880D01*
X54627142Y-21589880D01*
X55484285Y-22589880D02*
X54912857Y-22589880D01*
X55198571Y-22589880D02*
X55198571Y-21589880D01*
X55103333Y-21732738D01*
X55008095Y-21827976D01*
X54912857Y-21875595D01*
%TO.C,R14*%
X91997142Y-46279880D02*
X91663809Y-45803690D01*
X91425714Y-46279880D02*
X91425714Y-45279880D01*
X91806666Y-45279880D01*
X91901904Y-45327500D01*
X91949523Y-45375119D01*
X91997142Y-45470357D01*
X91997142Y-45613214D01*
X91949523Y-45708452D01*
X91901904Y-45756071D01*
X91806666Y-45803690D01*
X91425714Y-45803690D01*
X92949523Y-46279880D02*
X92378095Y-46279880D01*
X92663809Y-46279880D02*
X92663809Y-45279880D01*
X92568571Y-45422738D01*
X92473333Y-45517976D01*
X92378095Y-45565595D01*
X93806666Y-45613214D02*
X93806666Y-46279880D01*
X93568571Y-45232261D02*
X93330476Y-45946547D01*
X93949523Y-45946547D01*
%TO.C,R33*%
X54529642Y-45369880D02*
X54196309Y-44893690D01*
X53958214Y-45369880D02*
X53958214Y-44369880D01*
X54339166Y-44369880D01*
X54434404Y-44417500D01*
X54482023Y-44465119D01*
X54529642Y-44560357D01*
X54529642Y-44703214D01*
X54482023Y-44798452D01*
X54434404Y-44846071D01*
X54339166Y-44893690D01*
X53958214Y-44893690D01*
X54862976Y-44369880D02*
X55482023Y-44369880D01*
X55148690Y-44750833D01*
X55291547Y-44750833D01*
X55386785Y-44798452D01*
X55434404Y-44846071D01*
X55482023Y-44941309D01*
X55482023Y-45179404D01*
X55434404Y-45274642D01*
X55386785Y-45322261D01*
X55291547Y-45369880D01*
X55005833Y-45369880D01*
X54910595Y-45322261D01*
X54862976Y-45274642D01*
X55815357Y-44369880D02*
X56434404Y-44369880D01*
X56101071Y-44750833D01*
X56243928Y-44750833D01*
X56339166Y-44798452D01*
X56386785Y-44846071D01*
X56434404Y-44941309D01*
X56434404Y-45179404D01*
X56386785Y-45274642D01*
X56339166Y-45322261D01*
X56243928Y-45369880D01*
X55958214Y-45369880D01*
X55862976Y-45322261D01*
X55815357Y-45274642D01*
%TO.C,U2*%
X47478095Y-66292380D02*
X47478095Y-67101904D01*
X47525714Y-67197142D01*
X47573333Y-67244761D01*
X47668571Y-67292380D01*
X47859047Y-67292380D01*
X47954285Y-67244761D01*
X48001904Y-67197142D01*
X48049523Y-67101904D01*
X48049523Y-66292380D01*
X48478095Y-66387619D02*
X48525714Y-66340000D01*
X48620952Y-66292380D01*
X48859047Y-66292380D01*
X48954285Y-66340000D01*
X49001904Y-66387619D01*
X49049523Y-66482857D01*
X49049523Y-66578095D01*
X49001904Y-66720952D01*
X48430476Y-67292380D01*
X49049523Y-67292380D01*
%TO.C,U4*%
X91254345Y-27812380D02*
X91254345Y-28621904D01*
X91301964Y-28717142D01*
X91349583Y-28764761D01*
X91444821Y-28812380D01*
X91635297Y-28812380D01*
X91730535Y-28764761D01*
X91778154Y-28717142D01*
X91825773Y-28621904D01*
X91825773Y-27812380D01*
X92730535Y-28145714D02*
X92730535Y-28812380D01*
X92492440Y-27764761D02*
X92254345Y-28479047D01*
X92873392Y-28479047D01*
%TO.C,Q1*%
X43817261Y-47087619D02*
X43722023Y-47040000D01*
X43626785Y-46944761D01*
X43483928Y-46801904D01*
X43388690Y-46754285D01*
X43293452Y-46754285D01*
X43341071Y-46992380D02*
X43245833Y-46944761D01*
X43150595Y-46849523D01*
X43102976Y-46659047D01*
X43102976Y-46325714D01*
X43150595Y-46135238D01*
X43245833Y-46040000D01*
X43341071Y-45992380D01*
X43531547Y-45992380D01*
X43626785Y-46040000D01*
X43722023Y-46135238D01*
X43769642Y-46325714D01*
X43769642Y-46659047D01*
X43722023Y-46849523D01*
X43626785Y-46944761D01*
X43531547Y-46992380D01*
X43341071Y-46992380D01*
X44722023Y-46992380D02*
X44150595Y-46992380D01*
X44436309Y-46992380D02*
X44436309Y-45992380D01*
X44341071Y-46135238D01*
X44245833Y-46230476D01*
X44150595Y-46278095D01*
%TO.C,R13*%
X96957142Y-46299880D02*
X96623809Y-45823690D01*
X96385714Y-46299880D02*
X96385714Y-45299880D01*
X96766666Y-45299880D01*
X96861904Y-45347500D01*
X96909523Y-45395119D01*
X96957142Y-45490357D01*
X96957142Y-45633214D01*
X96909523Y-45728452D01*
X96861904Y-45776071D01*
X96766666Y-45823690D01*
X96385714Y-45823690D01*
X97909523Y-46299880D02*
X97338095Y-46299880D01*
X97623809Y-46299880D02*
X97623809Y-45299880D01*
X97528571Y-45442738D01*
X97433333Y-45537976D01*
X97338095Y-45585595D01*
X98242857Y-45299880D02*
X98861904Y-45299880D01*
X98528571Y-45680833D01*
X98671428Y-45680833D01*
X98766666Y-45728452D01*
X98814285Y-45776071D01*
X98861904Y-45871309D01*
X98861904Y-46109404D01*
X98814285Y-46204642D01*
X98766666Y-46252261D01*
X98671428Y-46299880D01*
X98385714Y-46299880D01*
X98290476Y-46252261D01*
X98242857Y-46204642D01*
%TO.C,C14*%
X79747142Y-64257142D02*
X79699523Y-64304761D01*
X79556666Y-64352380D01*
X79461428Y-64352380D01*
X79318571Y-64304761D01*
X79223333Y-64209523D01*
X79175714Y-64114285D01*
X79128095Y-63923809D01*
X79128095Y-63780952D01*
X79175714Y-63590476D01*
X79223333Y-63495238D01*
X79318571Y-63400000D01*
X79461428Y-63352380D01*
X79556666Y-63352380D01*
X79699523Y-63400000D01*
X79747142Y-63447619D01*
X80699523Y-64352380D02*
X80128095Y-64352380D01*
X80413809Y-64352380D02*
X80413809Y-63352380D01*
X80318571Y-63495238D01*
X80223333Y-63590476D01*
X80128095Y-63638095D01*
X81556666Y-63685714D02*
X81556666Y-64352380D01*
X81318571Y-63304761D02*
X81080476Y-64019047D01*
X81699523Y-64019047D01*
%TO.C,J2*%
X97492380Y-53833333D02*
X98206666Y-53833333D01*
X98349523Y-53880952D01*
X98444761Y-53976190D01*
X98492380Y-54119047D01*
X98492380Y-54214285D01*
X97587619Y-53404761D02*
X97540000Y-53357142D01*
X97492380Y-53261904D01*
X97492380Y-53023809D01*
X97540000Y-52928571D01*
X97587619Y-52880952D01*
X97682857Y-52833333D01*
X97778095Y-52833333D01*
X97920952Y-52880952D01*
X98492380Y-53452380D01*
X98492380Y-52833333D01*
%TO.C,J1*%
X97492380Y-29833333D02*
X98206666Y-29833333D01*
X98349523Y-29880952D01*
X98444761Y-29976190D01*
X98492380Y-30119047D01*
X98492380Y-30214285D01*
X98492380Y-28833333D02*
X98492380Y-29404761D01*
X98492380Y-29119047D02*
X97492380Y-29119047D01*
X97635238Y-29214285D01*
X97730476Y-29309523D01*
X97778095Y-29404761D01*
%TO.C,R2*%
X87763333Y-22092380D02*
X87430000Y-21616190D01*
X87191904Y-22092380D02*
X87191904Y-21092380D01*
X87572857Y-21092380D01*
X87668095Y-21140000D01*
X87715714Y-21187619D01*
X87763333Y-21282857D01*
X87763333Y-21425714D01*
X87715714Y-21520952D01*
X87668095Y-21568571D01*
X87572857Y-21616190D01*
X87191904Y-21616190D01*
X88144285Y-21187619D02*
X88191904Y-21140000D01*
X88287142Y-21092380D01*
X88525238Y-21092380D01*
X88620476Y-21140000D01*
X88668095Y-21187619D01*
X88715714Y-21282857D01*
X88715714Y-21378095D01*
X88668095Y-21520952D01*
X88096666Y-22092380D01*
X88715714Y-22092380D01*
%TO.C,R12*%
X88717142Y-39049880D02*
X88383809Y-38573690D01*
X88145714Y-39049880D02*
X88145714Y-38049880D01*
X88526666Y-38049880D01*
X88621904Y-38097500D01*
X88669523Y-38145119D01*
X88717142Y-38240357D01*
X88717142Y-38383214D01*
X88669523Y-38478452D01*
X88621904Y-38526071D01*
X88526666Y-38573690D01*
X88145714Y-38573690D01*
X89669523Y-39049880D02*
X89098095Y-39049880D01*
X89383809Y-39049880D02*
X89383809Y-38049880D01*
X89288571Y-38192738D01*
X89193333Y-38287976D01*
X89098095Y-38335595D01*
X90050476Y-38145119D02*
X90098095Y-38097500D01*
X90193333Y-38049880D01*
X90431428Y-38049880D01*
X90526666Y-38097500D01*
X90574285Y-38145119D01*
X90621904Y-38240357D01*
X90621904Y-38335595D01*
X90574285Y-38478452D01*
X90002857Y-39049880D01*
X90621904Y-39049880D01*
%TO.C,R24*%
X89487142Y-63202380D02*
X89153809Y-62726190D01*
X88915714Y-63202380D02*
X88915714Y-62202380D01*
X89296666Y-62202380D01*
X89391904Y-62250000D01*
X89439523Y-62297619D01*
X89487142Y-62392857D01*
X89487142Y-62535714D01*
X89439523Y-62630952D01*
X89391904Y-62678571D01*
X89296666Y-62726190D01*
X88915714Y-62726190D01*
X89868095Y-62297619D02*
X89915714Y-62250000D01*
X90010952Y-62202380D01*
X90249047Y-62202380D01*
X90344285Y-62250000D01*
X90391904Y-62297619D01*
X90439523Y-62392857D01*
X90439523Y-62488095D01*
X90391904Y-62630952D01*
X89820476Y-63202380D01*
X90439523Y-63202380D01*
X91296666Y-62535714D02*
X91296666Y-63202380D01*
X91058571Y-62154761D02*
X90820476Y-62869047D01*
X91439523Y-62869047D01*
%TO.C,R4*%
X27243333Y-57602380D02*
X26910000Y-57126190D01*
X26671904Y-57602380D02*
X26671904Y-56602380D01*
X27052857Y-56602380D01*
X27148095Y-56650000D01*
X27195714Y-56697619D01*
X27243333Y-56792857D01*
X27243333Y-56935714D01*
X27195714Y-57030952D01*
X27148095Y-57078571D01*
X27052857Y-57126190D01*
X26671904Y-57126190D01*
X28100476Y-56935714D02*
X28100476Y-57602380D01*
X27862380Y-56554761D02*
X27624285Y-57269047D01*
X28243333Y-57269047D01*
%TO.C,J3*%
X50736666Y-57762380D02*
X50736666Y-58476666D01*
X50689047Y-58619523D01*
X50593809Y-58714761D01*
X50450952Y-58762380D01*
X50355714Y-58762380D01*
X51117619Y-57762380D02*
X51736666Y-57762380D01*
X51403333Y-58143333D01*
X51546190Y-58143333D01*
X51641428Y-58190952D01*
X51689047Y-58238571D01*
X51736666Y-58333809D01*
X51736666Y-58571904D01*
X51689047Y-58667142D01*
X51641428Y-58714761D01*
X51546190Y-58762380D01*
X51260476Y-58762380D01*
X51165238Y-58714761D01*
X51117619Y-58667142D01*
%TO.C,C6*%
X80863333Y-27597142D02*
X80815714Y-27644761D01*
X80672857Y-27692380D01*
X80577619Y-27692380D01*
X80434761Y-27644761D01*
X80339523Y-27549523D01*
X80291904Y-27454285D01*
X80244285Y-27263809D01*
X80244285Y-27120952D01*
X80291904Y-26930476D01*
X80339523Y-26835238D01*
X80434761Y-26740000D01*
X80577619Y-26692380D01*
X80672857Y-26692380D01*
X80815714Y-26740000D01*
X80863333Y-26787619D01*
X81720476Y-26692380D02*
X81530000Y-26692380D01*
X81434761Y-26740000D01*
X81387142Y-26787619D01*
X81291904Y-26930476D01*
X81244285Y-27120952D01*
X81244285Y-27501904D01*
X81291904Y-27597142D01*
X81339523Y-27644761D01*
X81434761Y-27692380D01*
X81625238Y-27692380D01*
X81720476Y-27644761D01*
X81768095Y-27597142D01*
X81815714Y-27501904D01*
X81815714Y-27263809D01*
X81768095Y-27168571D01*
X81720476Y-27120952D01*
X81625238Y-27073333D01*
X81434761Y-27073333D01*
X81339523Y-27120952D01*
X81291904Y-27168571D01*
X81244285Y-27263809D01*
%TO.C,R16*%
X46259642Y-39829880D02*
X45926309Y-39353690D01*
X45688214Y-39829880D02*
X45688214Y-38829880D01*
X46069166Y-38829880D01*
X46164404Y-38877500D01*
X46212023Y-38925119D01*
X46259642Y-39020357D01*
X46259642Y-39163214D01*
X46212023Y-39258452D01*
X46164404Y-39306071D01*
X46069166Y-39353690D01*
X45688214Y-39353690D01*
X47212023Y-39829880D02*
X46640595Y-39829880D01*
X46926309Y-39829880D02*
X46926309Y-38829880D01*
X46831071Y-38972738D01*
X46735833Y-39067976D01*
X46640595Y-39115595D01*
X48069166Y-38829880D02*
X47878690Y-38829880D01*
X47783452Y-38877500D01*
X47735833Y-38925119D01*
X47640595Y-39067976D01*
X47592976Y-39258452D01*
X47592976Y-39639404D01*
X47640595Y-39734642D01*
X47688214Y-39782261D01*
X47783452Y-39829880D01*
X47973928Y-39829880D01*
X48069166Y-39782261D01*
X48116785Y-39734642D01*
X48164404Y-39639404D01*
X48164404Y-39401309D01*
X48116785Y-39306071D01*
X48069166Y-39258452D01*
X47973928Y-39210833D01*
X47783452Y-39210833D01*
X47688214Y-39258452D01*
X47640595Y-39306071D01*
X47592976Y-39401309D01*
%TO.C,U7*%
X60264880Y-39099404D02*
X61074404Y-39099404D01*
X61169642Y-39051785D01*
X61217261Y-39004166D01*
X61264880Y-38908928D01*
X61264880Y-38718452D01*
X61217261Y-38623214D01*
X61169642Y-38575595D01*
X61074404Y-38527976D01*
X60264880Y-38527976D01*
X60264880Y-38147023D02*
X60264880Y-37480357D01*
X61264880Y-37908928D01*
%TO.C,C12*%
X87417142Y-49867142D02*
X87369523Y-49914761D01*
X87226666Y-49962380D01*
X87131428Y-49962380D01*
X86988571Y-49914761D01*
X86893333Y-49819523D01*
X86845714Y-49724285D01*
X86798095Y-49533809D01*
X86798095Y-49390952D01*
X86845714Y-49200476D01*
X86893333Y-49105238D01*
X86988571Y-49010000D01*
X87131428Y-48962380D01*
X87226666Y-48962380D01*
X87369523Y-49010000D01*
X87417142Y-49057619D01*
X88369523Y-49962380D02*
X87798095Y-49962380D01*
X88083809Y-49962380D02*
X88083809Y-48962380D01*
X87988571Y-49105238D01*
X87893333Y-49200476D01*
X87798095Y-49248095D01*
X88750476Y-49057619D02*
X88798095Y-49010000D01*
X88893333Y-48962380D01*
X89131428Y-48962380D01*
X89226666Y-49010000D01*
X89274285Y-49057619D01*
X89321904Y-49152857D01*
X89321904Y-49248095D01*
X89274285Y-49390952D01*
X88702857Y-49962380D01*
X89321904Y-49962380D01*
%TO.C,R15*%
X48589642Y-33569880D02*
X48256309Y-33093690D01*
X48018214Y-33569880D02*
X48018214Y-32569880D01*
X48399166Y-32569880D01*
X48494404Y-32617500D01*
X48542023Y-32665119D01*
X48589642Y-32760357D01*
X48589642Y-32903214D01*
X48542023Y-32998452D01*
X48494404Y-33046071D01*
X48399166Y-33093690D01*
X48018214Y-33093690D01*
X49542023Y-33569880D02*
X48970595Y-33569880D01*
X49256309Y-33569880D02*
X49256309Y-32569880D01*
X49161071Y-32712738D01*
X49065833Y-32807976D01*
X48970595Y-32855595D01*
X50446785Y-32569880D02*
X49970595Y-32569880D01*
X49922976Y-33046071D01*
X49970595Y-32998452D01*
X50065833Y-32950833D01*
X50303928Y-32950833D01*
X50399166Y-32998452D01*
X50446785Y-33046071D01*
X50494404Y-33141309D01*
X50494404Y-33379404D01*
X50446785Y-33474642D01*
X50399166Y-33522261D01*
X50303928Y-33569880D01*
X50065833Y-33569880D01*
X49970595Y-33522261D01*
X49922976Y-33474642D01*
%TO.C,R18*%
X48109642Y-29789880D02*
X47776309Y-29313690D01*
X47538214Y-29789880D02*
X47538214Y-28789880D01*
X47919166Y-28789880D01*
X48014404Y-28837500D01*
X48062023Y-28885119D01*
X48109642Y-28980357D01*
X48109642Y-29123214D01*
X48062023Y-29218452D01*
X48014404Y-29266071D01*
X47919166Y-29313690D01*
X47538214Y-29313690D01*
X49062023Y-29789880D02*
X48490595Y-29789880D01*
X48776309Y-29789880D02*
X48776309Y-28789880D01*
X48681071Y-28932738D01*
X48585833Y-29027976D01*
X48490595Y-29075595D01*
X49633452Y-29218452D02*
X49538214Y-29170833D01*
X49490595Y-29123214D01*
X49442976Y-29027976D01*
X49442976Y-28980357D01*
X49490595Y-28885119D01*
X49538214Y-28837500D01*
X49633452Y-28789880D01*
X49823928Y-28789880D01*
X49919166Y-28837500D01*
X49966785Y-28885119D01*
X50014404Y-28980357D01*
X50014404Y-29027976D01*
X49966785Y-29123214D01*
X49919166Y-29170833D01*
X49823928Y-29218452D01*
X49633452Y-29218452D01*
X49538214Y-29266071D01*
X49490595Y-29313690D01*
X49442976Y-29408928D01*
X49442976Y-29599404D01*
X49490595Y-29694642D01*
X49538214Y-29742261D01*
X49633452Y-29789880D01*
X49823928Y-29789880D01*
X49919166Y-29742261D01*
X49966785Y-29694642D01*
X50014404Y-29599404D01*
X50014404Y-29408928D01*
X49966785Y-29313690D01*
X49919166Y-29266071D01*
X49823928Y-29218452D01*
%TO.C,R32*%
X48867142Y-42162380D02*
X48533809Y-41686190D01*
X48295714Y-42162380D02*
X48295714Y-41162380D01*
X48676666Y-41162380D01*
X48771904Y-41210000D01*
X48819523Y-41257619D01*
X48867142Y-41352857D01*
X48867142Y-41495714D01*
X48819523Y-41590952D01*
X48771904Y-41638571D01*
X48676666Y-41686190D01*
X48295714Y-41686190D01*
X49200476Y-41162380D02*
X49819523Y-41162380D01*
X49486190Y-41543333D01*
X49629047Y-41543333D01*
X49724285Y-41590952D01*
X49771904Y-41638571D01*
X49819523Y-41733809D01*
X49819523Y-41971904D01*
X49771904Y-42067142D01*
X49724285Y-42114761D01*
X49629047Y-42162380D01*
X49343333Y-42162380D01*
X49248095Y-42114761D01*
X49200476Y-42067142D01*
X50200476Y-41257619D02*
X50248095Y-41210000D01*
X50343333Y-41162380D01*
X50581428Y-41162380D01*
X50676666Y-41210000D01*
X50724285Y-41257619D01*
X50771904Y-41352857D01*
X50771904Y-41448095D01*
X50724285Y-41590952D01*
X50152857Y-42162380D01*
X50771904Y-42162380D01*
%TO.C,C7*%
X31473333Y-50177142D02*
X31425714Y-50224761D01*
X31282857Y-50272380D01*
X31187619Y-50272380D01*
X31044761Y-50224761D01*
X30949523Y-50129523D01*
X30901904Y-50034285D01*
X30854285Y-49843809D01*
X30854285Y-49700952D01*
X30901904Y-49510476D01*
X30949523Y-49415238D01*
X31044761Y-49320000D01*
X31187619Y-49272380D01*
X31282857Y-49272380D01*
X31425714Y-49320000D01*
X31473333Y-49367619D01*
X31806666Y-49272380D02*
X32473333Y-49272380D01*
X32044761Y-50272380D01*
%TO.C,R17*%
X77187142Y-66932380D02*
X76853809Y-66456190D01*
X76615714Y-66932380D02*
X76615714Y-65932380D01*
X76996666Y-65932380D01*
X77091904Y-65980000D01*
X77139523Y-66027619D01*
X77187142Y-66122857D01*
X77187142Y-66265714D01*
X77139523Y-66360952D01*
X77091904Y-66408571D01*
X76996666Y-66456190D01*
X76615714Y-66456190D01*
X78139523Y-66932380D02*
X77568095Y-66932380D01*
X77853809Y-66932380D02*
X77853809Y-65932380D01*
X77758571Y-66075238D01*
X77663333Y-66170476D01*
X77568095Y-66218095D01*
X78472857Y-65932380D02*
X79139523Y-65932380D01*
X78710952Y-66932380D01*
%TO.C,R20*%
X74347142Y-60272380D02*
X74013809Y-59796190D01*
X73775714Y-60272380D02*
X73775714Y-59272380D01*
X74156666Y-59272380D01*
X74251904Y-59320000D01*
X74299523Y-59367619D01*
X74347142Y-59462857D01*
X74347142Y-59605714D01*
X74299523Y-59700952D01*
X74251904Y-59748571D01*
X74156666Y-59796190D01*
X73775714Y-59796190D01*
X74728095Y-59367619D02*
X74775714Y-59320000D01*
X74870952Y-59272380D01*
X75109047Y-59272380D01*
X75204285Y-59320000D01*
X75251904Y-59367619D01*
X75299523Y-59462857D01*
X75299523Y-59558095D01*
X75251904Y-59700952D01*
X74680476Y-60272380D01*
X75299523Y-60272380D01*
X75918571Y-59272380D02*
X76013809Y-59272380D01*
X76109047Y-59320000D01*
X76156666Y-59367619D01*
X76204285Y-59462857D01*
X76251904Y-59653333D01*
X76251904Y-59891428D01*
X76204285Y-60081904D01*
X76156666Y-60177142D01*
X76109047Y-60224761D01*
X76013809Y-60272380D01*
X75918571Y-60272380D01*
X75823333Y-60224761D01*
X75775714Y-60177142D01*
X75728095Y-60081904D01*
X75680476Y-59891428D01*
X75680476Y-59653333D01*
X75728095Y-59462857D01*
X75775714Y-59367619D01*
X75823333Y-59320000D01*
X75918571Y-59272380D01*
%TO.C,R22*%
X72227142Y-53289880D02*
X71893809Y-52813690D01*
X71655714Y-53289880D02*
X71655714Y-52289880D01*
X72036666Y-52289880D01*
X72131904Y-52337500D01*
X72179523Y-52385119D01*
X72227142Y-52480357D01*
X72227142Y-52623214D01*
X72179523Y-52718452D01*
X72131904Y-52766071D01*
X72036666Y-52813690D01*
X71655714Y-52813690D01*
X72608095Y-52385119D02*
X72655714Y-52337500D01*
X72750952Y-52289880D01*
X72989047Y-52289880D01*
X73084285Y-52337500D01*
X73131904Y-52385119D01*
X73179523Y-52480357D01*
X73179523Y-52575595D01*
X73131904Y-52718452D01*
X72560476Y-53289880D01*
X73179523Y-53289880D01*
X73560476Y-52385119D02*
X73608095Y-52337500D01*
X73703333Y-52289880D01*
X73941428Y-52289880D01*
X74036666Y-52337500D01*
X74084285Y-52385119D01*
X74131904Y-52480357D01*
X74131904Y-52575595D01*
X74084285Y-52718452D01*
X73512857Y-53289880D01*
X74131904Y-53289880D01*
%TO.C,R7*%
X89383333Y-59612380D02*
X89050000Y-59136190D01*
X88811904Y-59612380D02*
X88811904Y-58612380D01*
X89192857Y-58612380D01*
X89288095Y-58660000D01*
X89335714Y-58707619D01*
X89383333Y-58802857D01*
X89383333Y-58945714D01*
X89335714Y-59040952D01*
X89288095Y-59088571D01*
X89192857Y-59136190D01*
X88811904Y-59136190D01*
X89716666Y-58612380D02*
X90383333Y-58612380D01*
X89954761Y-59612380D01*
%TO.C,L2*%
X88113333Y-30512380D02*
X87637142Y-30512380D01*
X87637142Y-29512380D01*
X88399047Y-29607619D02*
X88446666Y-29560000D01*
X88541904Y-29512380D01*
X88780000Y-29512380D01*
X88875238Y-29560000D01*
X88922857Y-29607619D01*
X88970476Y-29702857D01*
X88970476Y-29798095D01*
X88922857Y-29940952D01*
X88351428Y-30512380D01*
X88970476Y-30512380D01*
%TO.C,C3*%
X82103333Y-21977142D02*
X82055714Y-22024761D01*
X81912857Y-22072380D01*
X81817619Y-22072380D01*
X81674761Y-22024761D01*
X81579523Y-21929523D01*
X81531904Y-21834285D01*
X81484285Y-21643809D01*
X81484285Y-21500952D01*
X81531904Y-21310476D01*
X81579523Y-21215238D01*
X81674761Y-21120000D01*
X81817619Y-21072380D01*
X81912857Y-21072380D01*
X82055714Y-21120000D01*
X82103333Y-21167619D01*
X82436666Y-21072380D02*
X83055714Y-21072380D01*
X82722380Y-21453333D01*
X82865238Y-21453333D01*
X82960476Y-21500952D01*
X83008095Y-21548571D01*
X83055714Y-21643809D01*
X83055714Y-21881904D01*
X83008095Y-21977142D01*
X82960476Y-22024761D01*
X82865238Y-22072380D01*
X82579523Y-22072380D01*
X82484285Y-22024761D01*
X82436666Y-21977142D01*
%TO.C,R1*%
X23413333Y-54922380D02*
X23080000Y-54446190D01*
X22841904Y-54922380D02*
X22841904Y-53922380D01*
X23222857Y-53922380D01*
X23318095Y-53970000D01*
X23365714Y-54017619D01*
X23413333Y-54112857D01*
X23413333Y-54255714D01*
X23365714Y-54350952D01*
X23318095Y-54398571D01*
X23222857Y-54446190D01*
X22841904Y-54446190D01*
X24365714Y-54922380D02*
X23794285Y-54922380D01*
X24080000Y-54922380D02*
X24080000Y-53922380D01*
X23984761Y-54065238D01*
X23889523Y-54160476D01*
X23794285Y-54208095D01*
%TO.C,H3*%
X20688095Y-62782380D02*
X20688095Y-61782380D01*
X20688095Y-62258571D02*
X21259523Y-62258571D01*
X21259523Y-62782380D02*
X21259523Y-61782380D01*
X21640476Y-61782380D02*
X22259523Y-61782380D01*
X21926190Y-62163333D01*
X22069047Y-62163333D01*
X22164285Y-62210952D01*
X22211904Y-62258571D01*
X22259523Y-62353809D01*
X22259523Y-62591904D01*
X22211904Y-62687142D01*
X22164285Y-62734761D01*
X22069047Y-62782380D01*
X21783333Y-62782380D01*
X21688095Y-62734761D01*
X21640476Y-62687142D01*
%TO.C,L1*%
X31753333Y-54562380D02*
X31277142Y-54562380D01*
X31277142Y-53562380D01*
X32610476Y-54562380D02*
X32039047Y-54562380D01*
X32324761Y-54562380D02*
X32324761Y-53562380D01*
X32229523Y-53705238D01*
X32134285Y-53800476D01*
X32039047Y-53848095D01*
%TO.C,RV2*%
X81054761Y-44359880D02*
X80721428Y-43883690D01*
X80483333Y-44359880D02*
X80483333Y-43359880D01*
X80864285Y-43359880D01*
X80959523Y-43407500D01*
X81007142Y-43455119D01*
X81054761Y-43550357D01*
X81054761Y-43693214D01*
X81007142Y-43788452D01*
X80959523Y-43836071D01*
X80864285Y-43883690D01*
X80483333Y-43883690D01*
X81340476Y-43359880D02*
X81673809Y-44359880D01*
X82007142Y-43359880D01*
X82292857Y-43455119D02*
X82340476Y-43407500D01*
X82435714Y-43359880D01*
X82673809Y-43359880D01*
X82769047Y-43407500D01*
X82816666Y-43455119D01*
X82864285Y-43550357D01*
X82864285Y-43645595D01*
X82816666Y-43788452D01*
X82245238Y-44359880D01*
X82864285Y-44359880D01*
%TO.C,R8*%
X57015833Y-29719880D02*
X56682500Y-29243690D01*
X56444404Y-29719880D02*
X56444404Y-28719880D01*
X56825357Y-28719880D01*
X56920595Y-28767500D01*
X56968214Y-28815119D01*
X57015833Y-28910357D01*
X57015833Y-29053214D01*
X56968214Y-29148452D01*
X56920595Y-29196071D01*
X56825357Y-29243690D01*
X56444404Y-29243690D01*
X57587261Y-29148452D02*
X57492023Y-29100833D01*
X57444404Y-29053214D01*
X57396785Y-28957976D01*
X57396785Y-28910357D01*
X57444404Y-28815119D01*
X57492023Y-28767500D01*
X57587261Y-28719880D01*
X57777738Y-28719880D01*
X57872976Y-28767500D01*
X57920595Y-28815119D01*
X57968214Y-28910357D01*
X57968214Y-28957976D01*
X57920595Y-29053214D01*
X57872976Y-29100833D01*
X57777738Y-29148452D01*
X57587261Y-29148452D01*
X57492023Y-29196071D01*
X57444404Y-29243690D01*
X57396785Y-29338928D01*
X57396785Y-29529404D01*
X57444404Y-29624642D01*
X57492023Y-29672261D01*
X57587261Y-29719880D01*
X57777738Y-29719880D01*
X57872976Y-29672261D01*
X57920595Y-29624642D01*
X57968214Y-29529404D01*
X57968214Y-29338928D01*
X57920595Y-29243690D01*
X57872976Y-29196071D01*
X57777738Y-29148452D01*
%TO.C,R25*%
X85102380Y-61982857D02*
X84626190Y-62316190D01*
X85102380Y-62554285D02*
X84102380Y-62554285D01*
X84102380Y-62173333D01*
X84150000Y-62078095D01*
X84197619Y-62030476D01*
X84292857Y-61982857D01*
X84435714Y-61982857D01*
X84530952Y-62030476D01*
X84578571Y-62078095D01*
X84626190Y-62173333D01*
X84626190Y-62554285D01*
X84197619Y-61601904D02*
X84150000Y-61554285D01*
X84102380Y-61459047D01*
X84102380Y-61220952D01*
X84150000Y-61125714D01*
X84197619Y-61078095D01*
X84292857Y-61030476D01*
X84388095Y-61030476D01*
X84530952Y-61078095D01*
X85102380Y-61649523D01*
X85102380Y-61030476D01*
X84102380Y-60125714D02*
X84102380Y-60601904D01*
X84578571Y-60649523D01*
X84530952Y-60601904D01*
X84483333Y-60506666D01*
X84483333Y-60268571D01*
X84530952Y-60173333D01*
X84578571Y-60125714D01*
X84673809Y-60078095D01*
X84911904Y-60078095D01*
X85007142Y-60125714D01*
X85054761Y-60173333D01*
X85102380Y-60268571D01*
X85102380Y-60506666D01*
X85054761Y-60601904D01*
X85007142Y-60649523D01*
%TO.C,R27*%
X81212380Y-49190357D02*
X80736190Y-49523690D01*
X81212380Y-49761785D02*
X80212380Y-49761785D01*
X80212380Y-49380833D01*
X80260000Y-49285595D01*
X80307619Y-49237976D01*
X80402857Y-49190357D01*
X80545714Y-49190357D01*
X80640952Y-49237976D01*
X80688571Y-49285595D01*
X80736190Y-49380833D01*
X80736190Y-49761785D01*
X80307619Y-48809404D02*
X80260000Y-48761785D01*
X80212380Y-48666547D01*
X80212380Y-48428452D01*
X80260000Y-48333214D01*
X80307619Y-48285595D01*
X80402857Y-48237976D01*
X80498095Y-48237976D01*
X80640952Y-48285595D01*
X81212380Y-48857023D01*
X81212380Y-48237976D01*
X80212380Y-47904642D02*
X80212380Y-47237976D01*
X81212380Y-47666547D01*
%TO.C,C10*%
X83267142Y-46227142D02*
X83219523Y-46274761D01*
X83076666Y-46322380D01*
X82981428Y-46322380D01*
X82838571Y-46274761D01*
X82743333Y-46179523D01*
X82695714Y-46084285D01*
X82648095Y-45893809D01*
X82648095Y-45750952D01*
X82695714Y-45560476D01*
X82743333Y-45465238D01*
X82838571Y-45370000D01*
X82981428Y-45322380D01*
X83076666Y-45322380D01*
X83219523Y-45370000D01*
X83267142Y-45417619D01*
X84219523Y-46322380D02*
X83648095Y-46322380D01*
X83933809Y-46322380D02*
X83933809Y-45322380D01*
X83838571Y-45465238D01*
X83743333Y-45560476D01*
X83648095Y-45608095D01*
X84838571Y-45322380D02*
X84933809Y-45322380D01*
X85029047Y-45370000D01*
X85076666Y-45417619D01*
X85124285Y-45512857D01*
X85171904Y-45703333D01*
X85171904Y-45941428D01*
X85124285Y-46131904D01*
X85076666Y-46227142D01*
X85029047Y-46274761D01*
X84933809Y-46322380D01*
X84838571Y-46322380D01*
X84743333Y-46274761D01*
X84695714Y-46227142D01*
X84648095Y-46131904D01*
X84600476Y-45941428D01*
X84600476Y-45703333D01*
X84648095Y-45512857D01*
X84695714Y-45417619D01*
X84743333Y-45370000D01*
X84838571Y-45322380D01*
%TO.C,U3*%
X28558095Y-54162380D02*
X28558095Y-54971904D01*
X28605714Y-55067142D01*
X28653333Y-55114761D01*
X28748571Y-55162380D01*
X28939047Y-55162380D01*
X29034285Y-55114761D01*
X29081904Y-55067142D01*
X29129523Y-54971904D01*
X29129523Y-54162380D01*
X29510476Y-54162380D02*
X30129523Y-54162380D01*
X29796190Y-54543333D01*
X29939047Y-54543333D01*
X30034285Y-54590952D01*
X30081904Y-54638571D01*
X30129523Y-54733809D01*
X30129523Y-54971904D01*
X30081904Y-55067142D01*
X30034285Y-55114761D01*
X29939047Y-55162380D01*
X29653333Y-55162380D01*
X29558095Y-55114761D01*
X29510476Y-55067142D01*
%TO.C,R19*%
X51987142Y-29759880D02*
X51653809Y-29283690D01*
X51415714Y-29759880D02*
X51415714Y-28759880D01*
X51796666Y-28759880D01*
X51891904Y-28807500D01*
X51939523Y-28855119D01*
X51987142Y-28950357D01*
X51987142Y-29093214D01*
X51939523Y-29188452D01*
X51891904Y-29236071D01*
X51796666Y-29283690D01*
X51415714Y-29283690D01*
X52939523Y-29759880D02*
X52368095Y-29759880D01*
X52653809Y-29759880D02*
X52653809Y-28759880D01*
X52558571Y-28902738D01*
X52463333Y-28997976D01*
X52368095Y-29045595D01*
X53415714Y-29759880D02*
X53606190Y-29759880D01*
X53701428Y-29712261D01*
X53749047Y-29664642D01*
X53844285Y-29521785D01*
X53891904Y-29331309D01*
X53891904Y-28950357D01*
X53844285Y-28855119D01*
X53796666Y-28807500D01*
X53701428Y-28759880D01*
X53510952Y-28759880D01*
X53415714Y-28807500D01*
X53368095Y-28855119D01*
X53320476Y-28950357D01*
X53320476Y-29188452D01*
X53368095Y-29283690D01*
X53415714Y-29331309D01*
X53510952Y-29378928D01*
X53701428Y-29378928D01*
X53796666Y-29331309D01*
X53844285Y-29283690D01*
X53891904Y-29188452D01*
%TO.C,R23*%
X72247142Y-49599880D02*
X71913809Y-49123690D01*
X71675714Y-49599880D02*
X71675714Y-48599880D01*
X72056666Y-48599880D01*
X72151904Y-48647500D01*
X72199523Y-48695119D01*
X72247142Y-48790357D01*
X72247142Y-48933214D01*
X72199523Y-49028452D01*
X72151904Y-49076071D01*
X72056666Y-49123690D01*
X71675714Y-49123690D01*
X72628095Y-48695119D02*
X72675714Y-48647500D01*
X72770952Y-48599880D01*
X73009047Y-48599880D01*
X73104285Y-48647500D01*
X73151904Y-48695119D01*
X73199523Y-48790357D01*
X73199523Y-48885595D01*
X73151904Y-49028452D01*
X72580476Y-49599880D01*
X73199523Y-49599880D01*
X73532857Y-48599880D02*
X74151904Y-48599880D01*
X73818571Y-48980833D01*
X73961428Y-48980833D01*
X74056666Y-49028452D01*
X74104285Y-49076071D01*
X74151904Y-49171309D01*
X74151904Y-49409404D01*
X74104285Y-49504642D01*
X74056666Y-49552261D01*
X73961428Y-49599880D01*
X73675714Y-49599880D01*
X73580476Y-49552261D01*
X73532857Y-49504642D01*
%TO.C,C8*%
X92503333Y-30157142D02*
X92455714Y-30204761D01*
X92312857Y-30252380D01*
X92217619Y-30252380D01*
X92074761Y-30204761D01*
X91979523Y-30109523D01*
X91931904Y-30014285D01*
X91884285Y-29823809D01*
X91884285Y-29680952D01*
X91931904Y-29490476D01*
X91979523Y-29395238D01*
X92074761Y-29300000D01*
X92217619Y-29252380D01*
X92312857Y-29252380D01*
X92455714Y-29300000D01*
X92503333Y-29347619D01*
X93074761Y-29680952D02*
X92979523Y-29633333D01*
X92931904Y-29585714D01*
X92884285Y-29490476D01*
X92884285Y-29442857D01*
X92931904Y-29347619D01*
X92979523Y-29300000D01*
X93074761Y-29252380D01*
X93265238Y-29252380D01*
X93360476Y-29300000D01*
X93408095Y-29347619D01*
X93455714Y-29442857D01*
X93455714Y-29490476D01*
X93408095Y-29585714D01*
X93360476Y-29633333D01*
X93265238Y-29680952D01*
X93074761Y-29680952D01*
X92979523Y-29728571D01*
X92931904Y-29776190D01*
X92884285Y-29871428D01*
X92884285Y-30061904D01*
X92931904Y-30157142D01*
X92979523Y-30204761D01*
X93074761Y-30252380D01*
X93265238Y-30252380D01*
X93360476Y-30204761D01*
X93408095Y-30157142D01*
X93455714Y-30061904D01*
X93455714Y-29871428D01*
X93408095Y-29776190D01*
X93360476Y-29728571D01*
X93265238Y-29680952D01*
%TO.C,U1*%
X34058095Y-44527380D02*
X34058095Y-45336904D01*
X34105714Y-45432142D01*
X34153333Y-45479761D01*
X34248571Y-45527380D01*
X34439047Y-45527380D01*
X34534285Y-45479761D01*
X34581904Y-45432142D01*
X34629523Y-45336904D01*
X34629523Y-44527380D01*
X35629523Y-45527380D02*
X35058095Y-45527380D01*
X35343809Y-45527380D02*
X35343809Y-44527380D01*
X35248571Y-44670238D01*
X35153333Y-44765476D01*
X35058095Y-44813095D01*
%TO.C,C5*%
X28913333Y-61667142D02*
X28865714Y-61714761D01*
X28722857Y-61762380D01*
X28627619Y-61762380D01*
X28484761Y-61714761D01*
X28389523Y-61619523D01*
X28341904Y-61524285D01*
X28294285Y-61333809D01*
X28294285Y-61190952D01*
X28341904Y-61000476D01*
X28389523Y-60905238D01*
X28484761Y-60810000D01*
X28627619Y-60762380D01*
X28722857Y-60762380D01*
X28865714Y-60810000D01*
X28913333Y-60857619D01*
X29818095Y-60762380D02*
X29341904Y-60762380D01*
X29294285Y-61238571D01*
X29341904Y-61190952D01*
X29437142Y-61143333D01*
X29675238Y-61143333D01*
X29770476Y-61190952D01*
X29818095Y-61238571D01*
X29865714Y-61333809D01*
X29865714Y-61571904D01*
X29818095Y-61667142D01*
X29770476Y-61714761D01*
X29675238Y-61762380D01*
X29437142Y-61762380D01*
X29341904Y-61714761D01*
X29294285Y-61667142D01*
%TO.C,SW1*%
X70696666Y-23104761D02*
X70839523Y-23152380D01*
X71077619Y-23152380D01*
X71172857Y-23104761D01*
X71220476Y-23057142D01*
X71268095Y-22961904D01*
X71268095Y-22866666D01*
X71220476Y-22771428D01*
X71172857Y-22723809D01*
X71077619Y-22676190D01*
X70887142Y-22628571D01*
X70791904Y-22580952D01*
X70744285Y-22533333D01*
X70696666Y-22438095D01*
X70696666Y-22342857D01*
X70744285Y-22247619D01*
X70791904Y-22200000D01*
X70887142Y-22152380D01*
X71125238Y-22152380D01*
X71268095Y-22200000D01*
X71601428Y-22152380D02*
X71839523Y-23152380D01*
X72030000Y-22438095D01*
X72220476Y-23152380D01*
X72458571Y-22152380D01*
X73363333Y-23152380D02*
X72791904Y-23152380D01*
X73077619Y-23152380D02*
X73077619Y-22152380D01*
X72982380Y-22295238D01*
X72887142Y-22390476D01*
X72791904Y-22438095D01*
%TO.C,C13*%
X68647142Y-63297142D02*
X68599523Y-63344761D01*
X68456666Y-63392380D01*
X68361428Y-63392380D01*
X68218571Y-63344761D01*
X68123333Y-63249523D01*
X68075714Y-63154285D01*
X68028095Y-62963809D01*
X68028095Y-62820952D01*
X68075714Y-62630476D01*
X68123333Y-62535238D01*
X68218571Y-62440000D01*
X68361428Y-62392380D01*
X68456666Y-62392380D01*
X68599523Y-62440000D01*
X68647142Y-62487619D01*
X69599523Y-63392380D02*
X69028095Y-63392380D01*
X69313809Y-63392380D02*
X69313809Y-62392380D01*
X69218571Y-62535238D01*
X69123333Y-62630476D01*
X69028095Y-62678095D01*
X69932857Y-62392380D02*
X70551904Y-62392380D01*
X70218571Y-62773333D01*
X70361428Y-62773333D01*
X70456666Y-62820952D01*
X70504285Y-62868571D01*
X70551904Y-62963809D01*
X70551904Y-63201904D01*
X70504285Y-63297142D01*
X70456666Y-63344761D01*
X70361428Y-63392380D01*
X70075714Y-63392380D01*
X69980476Y-63344761D01*
X69932857Y-63297142D01*
%TO.C,C1*%
X23383333Y-60437142D02*
X23335714Y-60484761D01*
X23192857Y-60532380D01*
X23097619Y-60532380D01*
X22954761Y-60484761D01*
X22859523Y-60389523D01*
X22811904Y-60294285D01*
X22764285Y-60103809D01*
X22764285Y-59960952D01*
X22811904Y-59770476D01*
X22859523Y-59675238D01*
X22954761Y-59580000D01*
X23097619Y-59532380D01*
X23192857Y-59532380D01*
X23335714Y-59580000D01*
X23383333Y-59627619D01*
X24335714Y-60532380D02*
X23764285Y-60532380D01*
X24050000Y-60532380D02*
X24050000Y-59532380D01*
X23954761Y-59675238D01*
X23859523Y-59770476D01*
X23764285Y-59818095D01*
%TO.C,H2*%
X97558095Y-68482380D02*
X97558095Y-67482380D01*
X97558095Y-67958571D02*
X98129523Y-67958571D01*
X98129523Y-68482380D02*
X98129523Y-67482380D01*
X98558095Y-67577619D02*
X98605714Y-67530000D01*
X98700952Y-67482380D01*
X98939047Y-67482380D01*
X99034285Y-67530000D01*
X99081904Y-67577619D01*
X99129523Y-67672857D01*
X99129523Y-67768095D01*
X99081904Y-67910952D01*
X98510476Y-68482380D01*
X99129523Y-68482380D01*
%TO.C,R5*%
X87322380Y-28146666D02*
X86846190Y-28480000D01*
X87322380Y-28718095D02*
X86322380Y-28718095D01*
X86322380Y-28337142D01*
X86370000Y-28241904D01*
X86417619Y-28194285D01*
X86512857Y-28146666D01*
X86655714Y-28146666D01*
X86750952Y-28194285D01*
X86798571Y-28241904D01*
X86846190Y-28337142D01*
X86846190Y-28718095D01*
X86322380Y-27241904D02*
X86322380Y-27718095D01*
X86798571Y-27765714D01*
X86750952Y-27718095D01*
X86703333Y-27622857D01*
X86703333Y-27384761D01*
X86750952Y-27289523D01*
X86798571Y-27241904D01*
X86893809Y-27194285D01*
X87131904Y-27194285D01*
X87227142Y-27241904D01*
X87274761Y-27289523D01*
X87322380Y-27384761D01*
X87322380Y-27622857D01*
X87274761Y-27718095D01*
X87227142Y-27765714D01*
%TO.C,R3*%
X48993333Y-63352380D02*
X48660000Y-62876190D01*
X48421904Y-63352380D02*
X48421904Y-62352380D01*
X48802857Y-62352380D01*
X48898095Y-62400000D01*
X48945714Y-62447619D01*
X48993333Y-62542857D01*
X48993333Y-62685714D01*
X48945714Y-62780952D01*
X48898095Y-62828571D01*
X48802857Y-62876190D01*
X48421904Y-62876190D01*
X49326666Y-62352380D02*
X49945714Y-62352380D01*
X49612380Y-62733333D01*
X49755238Y-62733333D01*
X49850476Y-62780952D01*
X49898095Y-62828571D01*
X49945714Y-62923809D01*
X49945714Y-63161904D01*
X49898095Y-63257142D01*
X49850476Y-63304761D01*
X49755238Y-63352380D01*
X49469523Y-63352380D01*
X49374285Y-63304761D01*
X49326666Y-63257142D01*
%TO.C,R21*%
X69007142Y-57792380D02*
X68673809Y-57316190D01*
X68435714Y-57792380D02*
X68435714Y-56792380D01*
X68816666Y-56792380D01*
X68911904Y-56840000D01*
X68959523Y-56887619D01*
X69007142Y-56982857D01*
X69007142Y-57125714D01*
X68959523Y-57220952D01*
X68911904Y-57268571D01*
X68816666Y-57316190D01*
X68435714Y-57316190D01*
X69388095Y-56887619D02*
X69435714Y-56840000D01*
X69530952Y-56792380D01*
X69769047Y-56792380D01*
X69864285Y-56840000D01*
X69911904Y-56887619D01*
X69959523Y-56982857D01*
X69959523Y-57078095D01*
X69911904Y-57220952D01*
X69340476Y-57792380D01*
X69959523Y-57792380D01*
X70911904Y-57792380D02*
X70340476Y-57792380D01*
X70626190Y-57792380D02*
X70626190Y-56792380D01*
X70530952Y-56935238D01*
X70435714Y-57030476D01*
X70340476Y-57078095D01*
%TO.C,R28*%
X75352380Y-49200357D02*
X74876190Y-49533690D01*
X75352380Y-49771785D02*
X74352380Y-49771785D01*
X74352380Y-49390833D01*
X74400000Y-49295595D01*
X74447619Y-49247976D01*
X74542857Y-49200357D01*
X74685714Y-49200357D01*
X74780952Y-49247976D01*
X74828571Y-49295595D01*
X74876190Y-49390833D01*
X74876190Y-49771785D01*
X74447619Y-48819404D02*
X74400000Y-48771785D01*
X74352380Y-48676547D01*
X74352380Y-48438452D01*
X74400000Y-48343214D01*
X74447619Y-48295595D01*
X74542857Y-48247976D01*
X74638095Y-48247976D01*
X74780952Y-48295595D01*
X75352380Y-48867023D01*
X75352380Y-48247976D01*
X74780952Y-47676547D02*
X74733333Y-47771785D01*
X74685714Y-47819404D01*
X74590476Y-47867023D01*
X74542857Y-47867023D01*
X74447619Y-47819404D01*
X74400000Y-47771785D01*
X74352380Y-47676547D01*
X74352380Y-47486071D01*
X74400000Y-47390833D01*
X74447619Y-47343214D01*
X74542857Y-47295595D01*
X74590476Y-47295595D01*
X74685714Y-47343214D01*
X74733333Y-47390833D01*
X74780952Y-47486071D01*
X74780952Y-47676547D01*
X74828571Y-47771785D01*
X74876190Y-47819404D01*
X74971428Y-47867023D01*
X75161904Y-47867023D01*
X75257142Y-47819404D01*
X75304761Y-47771785D01*
X75352380Y-47676547D01*
X75352380Y-47486071D01*
X75304761Y-47390833D01*
X75257142Y-47343214D01*
X75161904Y-47295595D01*
X74971428Y-47295595D01*
X74876190Y-47343214D01*
X74828571Y-47390833D01*
X74780952Y-47486071D01*
%TO.C,U5*%
X30668095Y-21732380D02*
X30668095Y-22541904D01*
X30715714Y-22637142D01*
X30763333Y-22684761D01*
X30858571Y-22732380D01*
X31049047Y-22732380D01*
X31144285Y-22684761D01*
X31191904Y-22637142D01*
X31239523Y-22541904D01*
X31239523Y-21732380D01*
X32191904Y-21732380D02*
X31715714Y-21732380D01*
X31668095Y-22208571D01*
X31715714Y-22160952D01*
X31810952Y-22113333D01*
X32049047Y-22113333D01*
X32144285Y-22160952D01*
X32191904Y-22208571D01*
X32239523Y-22303809D01*
X32239523Y-22541904D01*
X32191904Y-22637142D01*
X32144285Y-22684761D01*
X32049047Y-22732380D01*
X31810952Y-22732380D01*
X31715714Y-22684761D01*
X31668095Y-22637142D01*
D12*
%TO.C,C11*%
X58771248Y-32462500D02*
X59293752Y-32462500D01*
X58771248Y-33932500D02*
X59293752Y-33932500D01*
%TO.C,U6*%
X38750000Y-60980000D02*
X37250000Y-60980000D01*
X38750000Y-64200000D02*
X41675000Y-64200000D01*
X38750000Y-60980000D02*
X40250000Y-60980000D01*
X38750000Y-64200000D02*
X37250000Y-64200000D01*
%TO.C,U8*%
X84815000Y-54867500D02*
X84815000Y-56817500D01*
X84815000Y-54867500D02*
X84815000Y-52917500D01*
X75945000Y-54867500D02*
X75945000Y-58317500D01*
X75945000Y-54867500D02*
X75945000Y-52917500D01*
%TO.C,R10*%
X54965436Y-45952500D02*
X55419564Y-45952500D01*
X54965436Y-47422500D02*
X55419564Y-47422500D01*
%TO.C,R31*%
X71305000Y-30687064D02*
X71305000Y-30232936D01*
X72775000Y-30687064D02*
X72775000Y-30232936D01*
%TO.C,C4*%
X92711252Y-25165000D02*
X92188748Y-25165000D01*
X92711252Y-23695000D02*
X92188748Y-23695000D01*
%TO.C,R11*%
X63689564Y-36602500D02*
X63235436Y-36602500D01*
X63689564Y-35132500D02*
X63235436Y-35132500D01*
%TO.C,R30*%
X58605436Y-42472500D02*
X59059564Y-42472500D01*
X58605436Y-43942500D02*
X59059564Y-43942500D01*
%TO.C,R26*%
X68007064Y-64002500D02*
X67552936Y-64002500D01*
X68007064Y-65472500D02*
X67552936Y-65472500D01*
%TO.C,C2*%
X25951250Y-49838748D02*
X25951250Y-50361252D01*
X27421250Y-49838748D02*
X27421250Y-50361252D01*
%TO.C,R29*%
X59059564Y-45952500D02*
X58605436Y-45952500D01*
X59059564Y-47422500D02*
X58605436Y-47422500D01*
%TO.C,R9*%
X63287500Y-32320436D02*
X63287500Y-32774564D01*
X61817500Y-32320436D02*
X61817500Y-32774564D01*
%TO.C,R6*%
X79845000Y-34830436D02*
X79845000Y-35284564D01*
X78375000Y-34830436D02*
X78375000Y-35284564D01*
%TO.C,C9*%
X88671252Y-54092500D02*
X88148748Y-54092500D01*
X88671252Y-55562500D02*
X88148748Y-55562500D01*
%TO.C,RV1*%
X49385000Y-23267500D02*
X59155000Y-23267500D01*
X59155000Y-23267500D02*
X59155000Y-28337500D01*
X49385000Y-23267500D02*
X49385000Y-28337500D01*
X49385000Y-28337500D02*
X59155000Y-28337500D01*
%TO.C,R14*%
X91005000Y-45600436D02*
X91005000Y-46054564D01*
X89535000Y-45600436D02*
X89535000Y-46054564D01*
%TO.C,R33*%
X54945436Y-42452500D02*
X55399564Y-42452500D01*
X54945436Y-43922500D02*
X55399564Y-43922500D01*
%TO.C,U4*%
X88605000Y-25940000D02*
X90605000Y-25940000D01*
X90605000Y-25940000D02*
X90605000Y-27940000D01*
X90605000Y-27940000D02*
X88605000Y-27940000D01*
X88605000Y-27940000D02*
X88605000Y-25940000D01*
%TO.C,Q1*%
X45202500Y-44670000D02*
X45202500Y-48520000D01*
X45212378Y-48558611D02*
G75*
G03*
X45202500Y-44670000I1690122J1948611D01*
G01*
%TO.C,R13*%
X95925000Y-45620436D02*
X95925000Y-46074564D01*
X94455000Y-45620436D02*
X94455000Y-46074564D01*
%TO.C,C14*%
X79645000Y-61076248D02*
X79645000Y-61598752D01*
X81115000Y-61076248D02*
X81115000Y-61598752D01*
%TO.C,J2*%
X98290000Y-56250000D02*
X98290000Y-56750000D01*
X98790000Y-56500000D02*
X98290000Y-56250000D01*
X98290000Y-56750000D02*
X98790000Y-56500000D01*
%TO.C,J1*%
X98790000Y-32500000D02*
X98290000Y-32250000D01*
X98290000Y-32750000D02*
X98790000Y-32500000D01*
X98290000Y-32250000D02*
X98290000Y-32750000D01*
%TO.C,R2*%
X87702936Y-24025000D02*
X88157064Y-24025000D01*
X87702936Y-22555000D02*
X88157064Y-22555000D01*
%TO.C,R12*%
X89132936Y-40982500D02*
X89587064Y-40982500D01*
X89132936Y-39512500D02*
X89587064Y-39512500D01*
%TO.C,R24*%
X86735000Y-62522936D02*
X86735000Y-62977064D01*
X88205000Y-62522936D02*
X88205000Y-62977064D01*
%TO.C,R4*%
X30029186Y-56425000D02*
X30483314Y-56425000D01*
X30029186Y-57895000D02*
X30483314Y-57895000D01*
%TO.C,J3*%
X53080000Y-56990000D02*
X53080000Y-59650000D01*
X63300000Y-56990000D02*
X53080000Y-56990000D01*
X63300000Y-59650000D02*
X53080000Y-59650000D01*
X63300000Y-56990000D02*
X63300000Y-59650000D01*
X64570000Y-56990000D02*
X65900000Y-56990000D01*
X65900000Y-56990000D02*
X65900000Y-58320000D01*
%TO.C,C6*%
X80768748Y-29655000D02*
X81291252Y-29655000D01*
X80768748Y-28185000D02*
X81291252Y-28185000D01*
%TO.C,R16*%
X47637500Y-42054564D02*
X47637500Y-41600436D01*
X46167500Y-42054564D02*
X46167500Y-41600436D01*
%TO.C,U7*%
X59967500Y-38337500D02*
X59967500Y-40287500D01*
X59967500Y-38337500D02*
X59967500Y-34887500D01*
X51097500Y-38337500D02*
X51097500Y-40287500D01*
X51097500Y-38337500D02*
X51097500Y-36387500D01*
%TO.C,C12*%
X90958748Y-50242500D02*
X91481252Y-50242500D01*
X90958748Y-48772500D02*
X91481252Y-48772500D01*
%TO.C,R15*%
X52859564Y-32392500D02*
X52405436Y-32392500D01*
X52859564Y-33862500D02*
X52405436Y-33862500D01*
%TO.C,R18*%
X48525436Y-30252500D02*
X48979564Y-30252500D01*
X48525436Y-31722500D02*
X48979564Y-31722500D01*
%TO.C,R32*%
X51255436Y-43932500D02*
X51709564Y-43932500D01*
X51255436Y-42462500D02*
X51709564Y-42462500D01*
%TO.C,C7*%
X34461250Y-50081252D02*
X34461250Y-49558748D01*
X32991250Y-50081252D02*
X32991250Y-49558748D01*
%TO.C,R17*%
X77105000Y-64224564D02*
X77105000Y-63770436D01*
X78575000Y-64224564D02*
X78575000Y-63770436D01*
%TO.C,R20*%
X74255000Y-62404564D02*
X74255000Y-61950436D01*
X75725000Y-62404564D02*
X75725000Y-61950436D01*
%TO.C,R22*%
X72642936Y-55222500D02*
X73097064Y-55222500D01*
X72642936Y-53752500D02*
X73097064Y-53752500D01*
%TO.C,R7*%
X86725000Y-59384564D02*
X86725000Y-58930436D01*
X88195000Y-59384564D02*
X88195000Y-58930436D01*
%TO.C,L2*%
X87880378Y-32170000D02*
X88679622Y-32170000D01*
X87880378Y-31050000D02*
X88679622Y-31050000D01*
%TO.C,C3*%
X82008748Y-24035000D02*
X82531252Y-24035000D01*
X82008748Y-22565000D02*
X82531252Y-22565000D01*
%TO.C,R1*%
X24851250Y-54697064D02*
X24851250Y-54242936D01*
X26321250Y-54697064D02*
X26321250Y-54242936D01*
%TO.C,L1*%
X34286250Y-54509622D02*
X34286250Y-53710378D01*
X33166250Y-54509622D02*
X33166250Y-53710378D01*
%TO.C,RV2*%
X86535000Y-42777500D02*
X76765000Y-42777500D01*
X86535000Y-42777500D02*
X86535000Y-37707500D01*
X76765000Y-42777500D02*
X76765000Y-37707500D01*
X86535000Y-37707500D02*
X76765000Y-37707500D01*
%TO.C,R8*%
X56955436Y-31652500D02*
X57409564Y-31652500D01*
X56955436Y-30182500D02*
X57409564Y-30182500D01*
%TO.C,R25*%
X83655000Y-61110436D02*
X83655000Y-61564564D01*
X82185000Y-61110436D02*
X82185000Y-61564564D01*
%TO.C,R27*%
X79845000Y-48320436D02*
X79845000Y-48774564D01*
X78375000Y-48320436D02*
X78375000Y-48774564D01*
%TO.C,C10*%
X85745000Y-46128752D02*
X85745000Y-45606248D01*
X87215000Y-46128752D02*
X87215000Y-45606248D01*
%TO.C,U3*%
X28196250Y-53805000D02*
X30196250Y-53805000D01*
X30196250Y-53805000D02*
X30196250Y-51805000D01*
X30196250Y-51805000D02*
X28196250Y-51805000D01*
X28196250Y-51805000D02*
X28196250Y-53805000D01*
%TO.C,R19*%
X52402936Y-30222500D02*
X52857064Y-30222500D01*
X52402936Y-31692500D02*
X52857064Y-31692500D01*
%TO.C,R23*%
X72662936Y-51532500D02*
X73117064Y-51532500D01*
X72662936Y-50062500D02*
X73117064Y-50062500D01*
%TO.C,C8*%
X92408748Y-30745000D02*
X92931252Y-30745000D01*
X92408748Y-32215000D02*
X92931252Y-32215000D01*
%TO.C,C5*%
X31891250Y-61571252D02*
X31891250Y-61048748D01*
X30421250Y-61571252D02*
X30421250Y-61048748D01*
%TO.C,SW1*%
X71530000Y-28670000D02*
X72530000Y-28670000D01*
X74440000Y-27660000D02*
X74440000Y-27970000D01*
X74440000Y-27970000D02*
X65620000Y-27970000D01*
X72530000Y-28670000D02*
X72030000Y-28170000D01*
X65620000Y-23450000D02*
X65620000Y-23760000D01*
X65620000Y-27970000D02*
X65620000Y-27660000D01*
X65620000Y-23450000D02*
X74440000Y-23450000D01*
X74440000Y-23450000D02*
X74440000Y-23760000D01*
X72030000Y-28170000D02*
X71530000Y-28670000D01*
%TO.C,C13*%
X71215000Y-64048752D02*
X71215000Y-63526248D01*
X72685000Y-64048752D02*
X72685000Y-63526248D01*
%TO.C,C1*%
X26321250Y-60331252D02*
X26321250Y-59808748D01*
X24851250Y-60331252D02*
X24851250Y-59808748D01*
%TO.C,R5*%
X85955000Y-27752936D02*
X85955000Y-28207064D01*
X84485000Y-27752936D02*
X84485000Y-28207064D01*
%TO.C,R3*%
X45795436Y-62166250D02*
X46249564Y-62166250D01*
X45795436Y-63636250D02*
X46249564Y-63636250D01*
%TO.C,R21*%
X73107064Y-56602500D02*
X72652936Y-56602500D01*
X73107064Y-58072500D02*
X72652936Y-58072500D01*
%TO.C,R28*%
X77285000Y-48784564D02*
X77285000Y-48330436D01*
X75815000Y-48784564D02*
X75815000Y-48330436D01*
%TO.C,U5*%
X40400000Y-37350000D02*
X27700000Y-37350000D01*
X27700000Y-37350000D02*
X27700000Y-24650000D01*
X27700000Y-24650000D02*
X40400000Y-24650000D01*
X40400000Y-24650000D02*
X40400000Y-37350000D01*
X31240000Y-27190000D02*
G75*
G03*
X31240000Y-27190000I-1000000J0D01*
G01*
%TD*%
M02*
