%TF.GenerationSoftware,KiCad,Pcbnew,(6.0.7)*%
%TF.CreationDate,2022-08-18T15:59:35-04:00*%
%TF.ProjectId,RadarProject,52616461-7250-4726-9f6a-6563742e6b69,rev?*%
%TF.SameCoordinates,Original*%
%TF.FileFunction,Legend,Top*%
%TF.FilePolarity,Positive*%
%FSLAX46Y46*%
G04 Gerber Fmt 4.6, Leading zero omitted, Abs format (unit mm)*
G04 Created by KiCad (PCBNEW (6.0.7)) date 2022-08-18 15:59:35*
%MOMM*%
%LPD*%
G01*
G04 APERTURE LIST*
%ADD10C,0.300000*%
%ADD11C,0.150000*%
%ADD12C,0.120000*%
G04 APERTURE END LIST*
D10*
X38065714Y-52497142D02*
X38280000Y-52568571D01*
X38637142Y-52568571D01*
X38780000Y-52497142D01*
X38851428Y-52425714D01*
X38922857Y-52282857D01*
X38922857Y-52140000D01*
X38851428Y-51997142D01*
X38780000Y-51925714D01*
X38637142Y-51854285D01*
X38351428Y-51782857D01*
X38208571Y-51711428D01*
X38137142Y-51640000D01*
X38065714Y-51497142D01*
X38065714Y-51354285D01*
X38137142Y-51211428D01*
X38208571Y-51140000D01*
X38351428Y-51068571D01*
X38708571Y-51068571D01*
X38922857Y-51140000D01*
X40208571Y-52497142D02*
X40065714Y-52568571D01*
X39780000Y-52568571D01*
X39637142Y-52497142D01*
X39565714Y-52425714D01*
X39494285Y-52282857D01*
X39494285Y-51854285D01*
X39565714Y-51711428D01*
X39637142Y-51640000D01*
X39780000Y-51568571D01*
X40065714Y-51568571D01*
X40208571Y-51640000D01*
X40851428Y-52568571D02*
X40851428Y-51068571D01*
X40994285Y-51997142D02*
X41422857Y-52568571D01*
X41422857Y-51568571D02*
X40851428Y-52140000D01*
X41922857Y-51568571D02*
X42708571Y-51568571D01*
X41922857Y-52568571D01*
X42708571Y-52568571D01*
X43494285Y-52568571D02*
X43351428Y-52497142D01*
X43280000Y-52425714D01*
X43208571Y-52282857D01*
X43208571Y-51854285D01*
X43280000Y-51711428D01*
X43351428Y-51640000D01*
X43494285Y-51568571D01*
X43708571Y-51568571D01*
X43851428Y-51640000D01*
X43922857Y-51711428D01*
X43994285Y-51854285D01*
X43994285Y-52282857D01*
X43922857Y-52425714D01*
X43851428Y-52497142D01*
X43708571Y-52568571D01*
X43494285Y-52568571D01*
X44637142Y-52568571D02*
X44637142Y-51568571D01*
X44637142Y-51854285D02*
X44708571Y-51711428D01*
X44780000Y-51640000D01*
X44922857Y-51568571D01*
X45065714Y-51568571D01*
X45637142Y-51068571D02*
X45494285Y-51354285D01*
X46208571Y-52497142D02*
X46351428Y-52568571D01*
X46637142Y-52568571D01*
X46780000Y-52497142D01*
X46851428Y-52354285D01*
X46851428Y-52282857D01*
X46780000Y-52140000D01*
X46637142Y-52068571D01*
X46422857Y-52068571D01*
X46280000Y-51997142D01*
X46208571Y-51854285D01*
X46208571Y-51782857D01*
X46280000Y-51640000D01*
X46422857Y-51568571D01*
X46637142Y-51568571D01*
X46780000Y-51640000D01*
X48565714Y-51211428D02*
X48637142Y-51140000D01*
X48780000Y-51068571D01*
X49137142Y-51068571D01*
X49280000Y-51140000D01*
X49351428Y-51211428D01*
X49422857Y-51354285D01*
X49422857Y-51497142D01*
X49351428Y-51711428D01*
X48494285Y-52568571D01*
X49422857Y-52568571D01*
X50065714Y-52425714D02*
X50137142Y-52497142D01*
X50065714Y-52568571D01*
X49994285Y-52497142D01*
X50065714Y-52425714D01*
X50065714Y-52568571D01*
X51422857Y-51568571D02*
X51422857Y-52568571D01*
X51065714Y-50997142D02*
X50708571Y-52068571D01*
X51637142Y-52068571D01*
X52994285Y-51140000D02*
X52851428Y-51068571D01*
X52637142Y-51068571D01*
X52422857Y-51140000D01*
X52280000Y-51282857D01*
X52208571Y-51425714D01*
X52137142Y-51711428D01*
X52137142Y-51925714D01*
X52208571Y-52211428D01*
X52280000Y-52354285D01*
X52422857Y-52497142D01*
X52637142Y-52568571D01*
X52780000Y-52568571D01*
X52994285Y-52497142D01*
X53065714Y-52425714D01*
X53065714Y-51925714D01*
X52780000Y-51925714D01*
X53708571Y-52568571D02*
X53708571Y-51068571D01*
X53708571Y-51782857D02*
X54565714Y-51782857D01*
X54565714Y-52568571D02*
X54565714Y-51068571D01*
X55137142Y-51568571D02*
X55922857Y-51568571D01*
X55137142Y-52568571D01*
X55922857Y-52568571D01*
X58494285Y-52568571D02*
X57994285Y-51854285D01*
X57637142Y-52568571D02*
X57637142Y-51068571D01*
X58208571Y-51068571D01*
X58351428Y-51140000D01*
X58422857Y-51211428D01*
X58494285Y-51354285D01*
X58494285Y-51568571D01*
X58422857Y-51711428D01*
X58351428Y-51782857D01*
X58208571Y-51854285D01*
X57637142Y-51854285D01*
X59780000Y-52568571D02*
X59780000Y-51782857D01*
X59708571Y-51640000D01*
X59565714Y-51568571D01*
X59280000Y-51568571D01*
X59137142Y-51640000D01*
X59780000Y-52497142D02*
X59637142Y-52568571D01*
X59280000Y-52568571D01*
X59137142Y-52497142D01*
X59065714Y-52354285D01*
X59065714Y-52211428D01*
X59137142Y-52068571D01*
X59280000Y-51997142D01*
X59637142Y-51997142D01*
X59780000Y-51925714D01*
X61137142Y-52568571D02*
X61137142Y-51068571D01*
X61137142Y-52497142D02*
X60994285Y-52568571D01*
X60708571Y-52568571D01*
X60565714Y-52497142D01*
X60494285Y-52425714D01*
X60422857Y-52282857D01*
X60422857Y-51854285D01*
X60494285Y-51711428D01*
X60565714Y-51640000D01*
X60708571Y-51568571D01*
X60994285Y-51568571D01*
X61137142Y-51640000D01*
X62494285Y-52568571D02*
X62494285Y-51782857D01*
X62422857Y-51640000D01*
X62280000Y-51568571D01*
X61994285Y-51568571D01*
X61851428Y-51640000D01*
X62494285Y-52497142D02*
X62351428Y-52568571D01*
X61994285Y-52568571D01*
X61851428Y-52497142D01*
X61780000Y-52354285D01*
X61780000Y-52211428D01*
X61851428Y-52068571D01*
X61994285Y-51997142D01*
X62351428Y-51997142D01*
X62494285Y-51925714D01*
X63208571Y-52568571D02*
X63208571Y-51568571D01*
X63208571Y-51854285D02*
X63280000Y-51711428D01*
X63351428Y-51640000D01*
X63494285Y-51568571D01*
X63637142Y-51568571D01*
D11*
%TO.C,J3*%
X66566666Y-57772380D02*
X66566666Y-58486666D01*
X66519047Y-58629523D01*
X66423809Y-58724761D01*
X66280952Y-58772380D01*
X66185714Y-58772380D01*
X66947619Y-57772380D02*
X67566666Y-57772380D01*
X67233333Y-58153333D01*
X67376190Y-58153333D01*
X67471428Y-58200952D01*
X67519047Y-58248571D01*
X67566666Y-58343809D01*
X67566666Y-58581904D01*
X67519047Y-58677142D01*
X67471428Y-58724761D01*
X67376190Y-58772380D01*
X67090476Y-58772380D01*
X66995238Y-58724761D01*
X66947619Y-58677142D01*
%TO.C,SW1*%
X70696666Y-23104761D02*
X70839523Y-23152380D01*
X71077619Y-23152380D01*
X71172857Y-23104761D01*
X71220476Y-23057142D01*
X71268095Y-22961904D01*
X71268095Y-22866666D01*
X71220476Y-22771428D01*
X71172857Y-22723809D01*
X71077619Y-22676190D01*
X70887142Y-22628571D01*
X70791904Y-22580952D01*
X70744285Y-22533333D01*
X70696666Y-22438095D01*
X70696666Y-22342857D01*
X70744285Y-22247619D01*
X70791904Y-22200000D01*
X70887142Y-22152380D01*
X71125238Y-22152380D01*
X71268095Y-22200000D01*
X71601428Y-22152380D02*
X71839523Y-23152380D01*
X72030000Y-22438095D01*
X72220476Y-23152380D01*
X72458571Y-22152380D01*
X73363333Y-23152380D02*
X72791904Y-23152380D01*
X73077619Y-23152380D02*
X73077619Y-22152380D01*
X72982380Y-22295238D01*
X72887142Y-22390476D01*
X72791904Y-22438095D01*
%TO.C,H4*%
X97228095Y-21422380D02*
X97228095Y-20422380D01*
X97228095Y-20898571D02*
X97799523Y-20898571D01*
X97799523Y-21422380D02*
X97799523Y-20422380D01*
X98704285Y-20755714D02*
X98704285Y-21422380D01*
X98466190Y-20374761D02*
X98228095Y-21089047D01*
X98847142Y-21089047D01*
%TO.C,H3*%
X20688095Y-62782380D02*
X20688095Y-61782380D01*
X20688095Y-62258571D02*
X21259523Y-62258571D01*
X21259523Y-62782380D02*
X21259523Y-61782380D01*
X21640476Y-61782380D02*
X22259523Y-61782380D01*
X21926190Y-62163333D01*
X22069047Y-62163333D01*
X22164285Y-62210952D01*
X22211904Y-62258571D01*
X22259523Y-62353809D01*
X22259523Y-62591904D01*
X22211904Y-62687142D01*
X22164285Y-62734761D01*
X22069047Y-62782380D01*
X21783333Y-62782380D01*
X21688095Y-62734761D01*
X21640476Y-62687142D01*
%TO.C,H2*%
X97558095Y-68482380D02*
X97558095Y-67482380D01*
X97558095Y-67958571D02*
X98129523Y-67958571D01*
X98129523Y-68482380D02*
X98129523Y-67482380D01*
X98558095Y-67577619D02*
X98605714Y-67530000D01*
X98700952Y-67482380D01*
X98939047Y-67482380D01*
X99034285Y-67530000D01*
X99081904Y-67577619D01*
X99129523Y-67672857D01*
X99129523Y-67768095D01*
X99081904Y-67910952D01*
X98510476Y-68482380D01*
X99129523Y-68482380D01*
%TO.C,H1*%
X21298095Y-27542380D02*
X21298095Y-26542380D01*
X21298095Y-27018571D02*
X21869523Y-27018571D01*
X21869523Y-27542380D02*
X21869523Y-26542380D01*
X22869523Y-27542380D02*
X22298095Y-27542380D01*
X22583809Y-27542380D02*
X22583809Y-26542380D01*
X22488571Y-26685238D01*
X22393333Y-26780476D01*
X22298095Y-26828095D01*
%TO.C,R16*%
X56377142Y-28769880D02*
X56043809Y-28293690D01*
X55805714Y-28769880D02*
X55805714Y-27769880D01*
X56186666Y-27769880D01*
X56281904Y-27817500D01*
X56329523Y-27865119D01*
X56377142Y-27960357D01*
X56377142Y-28103214D01*
X56329523Y-28198452D01*
X56281904Y-28246071D01*
X56186666Y-28293690D01*
X55805714Y-28293690D01*
X57329523Y-28769880D02*
X56758095Y-28769880D01*
X57043809Y-28769880D02*
X57043809Y-27769880D01*
X56948571Y-27912738D01*
X56853333Y-28007976D01*
X56758095Y-28055595D01*
X58186666Y-27769880D02*
X57996190Y-27769880D01*
X57900952Y-27817500D01*
X57853333Y-27865119D01*
X57758095Y-28007976D01*
X57710476Y-28198452D01*
X57710476Y-28579404D01*
X57758095Y-28674642D01*
X57805714Y-28722261D01*
X57900952Y-28769880D01*
X58091428Y-28769880D01*
X58186666Y-28722261D01*
X58234285Y-28674642D01*
X58281904Y-28579404D01*
X58281904Y-28341309D01*
X58234285Y-28246071D01*
X58186666Y-28198452D01*
X58091428Y-28150833D01*
X57900952Y-28150833D01*
X57805714Y-28198452D01*
X57758095Y-28246071D01*
X57710476Y-28341309D01*
%TO.C,RV1*%
X41884761Y-26229880D02*
X41551428Y-25753690D01*
X41313333Y-26229880D02*
X41313333Y-25229880D01*
X41694285Y-25229880D01*
X41789523Y-25277500D01*
X41837142Y-25325119D01*
X41884761Y-25420357D01*
X41884761Y-25563214D01*
X41837142Y-25658452D01*
X41789523Y-25706071D01*
X41694285Y-25753690D01*
X41313333Y-25753690D01*
X42170476Y-25229880D02*
X42503809Y-26229880D01*
X42837142Y-25229880D01*
X43694285Y-26229880D02*
X43122857Y-26229880D01*
X43408571Y-26229880D02*
X43408571Y-25229880D01*
X43313333Y-25372738D01*
X43218095Y-25467976D01*
X43122857Y-25515595D01*
%TO.C,U6*%
X37988095Y-64492380D02*
X37988095Y-65301904D01*
X38035714Y-65397142D01*
X38083333Y-65444761D01*
X38178571Y-65492380D01*
X38369047Y-65492380D01*
X38464285Y-65444761D01*
X38511904Y-65397142D01*
X38559523Y-65301904D01*
X38559523Y-64492380D01*
X39464285Y-64492380D02*
X39273809Y-64492380D01*
X39178571Y-64540000D01*
X39130952Y-64587619D01*
X39035714Y-64730476D01*
X38988095Y-64920952D01*
X38988095Y-65301904D01*
X39035714Y-65397142D01*
X39083333Y-65444761D01*
X39178571Y-65492380D01*
X39369047Y-65492380D01*
X39464285Y-65444761D01*
X39511904Y-65397142D01*
X39559523Y-65301904D01*
X39559523Y-65063809D01*
X39511904Y-64968571D01*
X39464285Y-64920952D01*
X39369047Y-64873333D01*
X39178571Y-64873333D01*
X39083333Y-64920952D01*
X39035714Y-64968571D01*
X38988095Y-65063809D01*
%TO.C,U8*%
X74652380Y-55629404D02*
X75461904Y-55629404D01*
X75557142Y-55581785D01*
X75604761Y-55534166D01*
X75652380Y-55438928D01*
X75652380Y-55248452D01*
X75604761Y-55153214D01*
X75557142Y-55105595D01*
X75461904Y-55057976D01*
X74652380Y-55057976D01*
X75080952Y-54438928D02*
X75033333Y-54534166D01*
X74985714Y-54581785D01*
X74890476Y-54629404D01*
X74842857Y-54629404D01*
X74747619Y-54581785D01*
X74700000Y-54534166D01*
X74652380Y-54438928D01*
X74652380Y-54248452D01*
X74700000Y-54153214D01*
X74747619Y-54105595D01*
X74842857Y-54057976D01*
X74890476Y-54057976D01*
X74985714Y-54105595D01*
X75033333Y-54153214D01*
X75080952Y-54248452D01*
X75080952Y-54438928D01*
X75128571Y-54534166D01*
X75176190Y-54581785D01*
X75271428Y-54629404D01*
X75461904Y-54629404D01*
X75557142Y-54581785D01*
X75604761Y-54534166D01*
X75652380Y-54438928D01*
X75652380Y-54248452D01*
X75604761Y-54153214D01*
X75557142Y-54105595D01*
X75461904Y-54057976D01*
X75271428Y-54057976D01*
X75176190Y-54105595D01*
X75128571Y-54153214D01*
X75080952Y-54248452D01*
%TO.C,R9*%
X42843333Y-34652380D02*
X42510000Y-34176190D01*
X42271904Y-34652380D02*
X42271904Y-33652380D01*
X42652857Y-33652380D01*
X42748095Y-33700000D01*
X42795714Y-33747619D01*
X42843333Y-33842857D01*
X42843333Y-33985714D01*
X42795714Y-34080952D01*
X42748095Y-34128571D01*
X42652857Y-34176190D01*
X42271904Y-34176190D01*
X43319523Y-34652380D02*
X43510000Y-34652380D01*
X43605238Y-34604761D01*
X43652857Y-34557142D01*
X43748095Y-34414285D01*
X43795714Y-34223809D01*
X43795714Y-33842857D01*
X43748095Y-33747619D01*
X43700476Y-33700000D01*
X43605238Y-33652380D01*
X43414761Y-33652380D01*
X43319523Y-33700000D01*
X43271904Y-33747619D01*
X43224285Y-33842857D01*
X43224285Y-34080952D01*
X43271904Y-34176190D01*
X43319523Y-34223809D01*
X43414761Y-34271428D01*
X43605238Y-34271428D01*
X43700476Y-34223809D01*
X43748095Y-34176190D01*
X43795714Y-34080952D01*
%TO.C,C4*%
X92283333Y-26467142D02*
X92235714Y-26514761D01*
X92092857Y-26562380D01*
X91997619Y-26562380D01*
X91854761Y-26514761D01*
X91759523Y-26419523D01*
X91711904Y-26324285D01*
X91664285Y-26133809D01*
X91664285Y-25990952D01*
X91711904Y-25800476D01*
X91759523Y-25705238D01*
X91854761Y-25610000D01*
X91997619Y-25562380D01*
X92092857Y-25562380D01*
X92235714Y-25610000D01*
X92283333Y-25657619D01*
X93140476Y-25895714D02*
X93140476Y-26562380D01*
X92902380Y-25514761D02*
X92664285Y-26229047D01*
X93283333Y-26229047D01*
%TO.C,R26*%
X67137142Y-66839880D02*
X66803809Y-66363690D01*
X66565714Y-66839880D02*
X66565714Y-65839880D01*
X66946666Y-65839880D01*
X67041904Y-65887500D01*
X67089523Y-65935119D01*
X67137142Y-66030357D01*
X67137142Y-66173214D01*
X67089523Y-66268452D01*
X67041904Y-66316071D01*
X66946666Y-66363690D01*
X66565714Y-66363690D01*
X67518095Y-65935119D02*
X67565714Y-65887500D01*
X67660952Y-65839880D01*
X67899047Y-65839880D01*
X67994285Y-65887500D01*
X68041904Y-65935119D01*
X68089523Y-66030357D01*
X68089523Y-66125595D01*
X68041904Y-66268452D01*
X67470476Y-66839880D01*
X68089523Y-66839880D01*
X68946666Y-65839880D02*
X68756190Y-65839880D01*
X68660952Y-65887500D01*
X68613333Y-65935119D01*
X68518095Y-66077976D01*
X68470476Y-66268452D01*
X68470476Y-66649404D01*
X68518095Y-66744642D01*
X68565714Y-66792261D01*
X68660952Y-66839880D01*
X68851428Y-66839880D01*
X68946666Y-66792261D01*
X68994285Y-66744642D01*
X69041904Y-66649404D01*
X69041904Y-66411309D01*
X68994285Y-66316071D01*
X68946666Y-66268452D01*
X68851428Y-66220833D01*
X68660952Y-66220833D01*
X68565714Y-66268452D01*
X68518095Y-66316071D01*
X68470476Y-66411309D01*
%TO.C,R29*%
X69257142Y-31312380D02*
X68923809Y-30836190D01*
X68685714Y-31312380D02*
X68685714Y-30312380D01*
X69066666Y-30312380D01*
X69161904Y-30360000D01*
X69209523Y-30407619D01*
X69257142Y-30502857D01*
X69257142Y-30645714D01*
X69209523Y-30740952D01*
X69161904Y-30788571D01*
X69066666Y-30836190D01*
X68685714Y-30836190D01*
X69638095Y-30407619D02*
X69685714Y-30360000D01*
X69780952Y-30312380D01*
X70019047Y-30312380D01*
X70114285Y-30360000D01*
X70161904Y-30407619D01*
X70209523Y-30502857D01*
X70209523Y-30598095D01*
X70161904Y-30740952D01*
X69590476Y-31312380D01*
X70209523Y-31312380D01*
X70685714Y-31312380D02*
X70876190Y-31312380D01*
X70971428Y-31264761D01*
X71019047Y-31217142D01*
X71114285Y-31074285D01*
X71161904Y-30883809D01*
X71161904Y-30502857D01*
X71114285Y-30407619D01*
X71066666Y-30360000D01*
X70971428Y-30312380D01*
X70780952Y-30312380D01*
X70685714Y-30360000D01*
X70638095Y-30407619D01*
X70590476Y-30502857D01*
X70590476Y-30740952D01*
X70638095Y-30836190D01*
X70685714Y-30883809D01*
X70780952Y-30931428D01*
X70971428Y-30931428D01*
X71066666Y-30883809D01*
X71114285Y-30836190D01*
X71161904Y-30740952D01*
%TO.C,C2*%
X24433333Y-50457142D02*
X24385714Y-50504761D01*
X24242857Y-50552380D01*
X24147619Y-50552380D01*
X24004761Y-50504761D01*
X23909523Y-50409523D01*
X23861904Y-50314285D01*
X23814285Y-50123809D01*
X23814285Y-49980952D01*
X23861904Y-49790476D01*
X23909523Y-49695238D01*
X24004761Y-49600000D01*
X24147619Y-49552380D01*
X24242857Y-49552380D01*
X24385714Y-49600000D01*
X24433333Y-49647619D01*
X24814285Y-49647619D02*
X24861904Y-49600000D01*
X24957142Y-49552380D01*
X25195238Y-49552380D01*
X25290476Y-49600000D01*
X25338095Y-49647619D01*
X25385714Y-49742857D01*
X25385714Y-49838095D01*
X25338095Y-49980952D01*
X24766666Y-50552380D01*
X25385714Y-50552380D01*
%TO.C,R6*%
X81212380Y-35224166D02*
X80736190Y-35557500D01*
X81212380Y-35795595D02*
X80212380Y-35795595D01*
X80212380Y-35414642D01*
X80260000Y-35319404D01*
X80307619Y-35271785D01*
X80402857Y-35224166D01*
X80545714Y-35224166D01*
X80640952Y-35271785D01*
X80688571Y-35319404D01*
X80736190Y-35414642D01*
X80736190Y-35795595D01*
X80212380Y-34367023D02*
X80212380Y-34557500D01*
X80260000Y-34652738D01*
X80307619Y-34700357D01*
X80450476Y-34795595D01*
X80640952Y-34843214D01*
X81021904Y-34843214D01*
X81117142Y-34795595D01*
X81164761Y-34747976D01*
X81212380Y-34652738D01*
X81212380Y-34462261D01*
X81164761Y-34367023D01*
X81117142Y-34319404D01*
X81021904Y-34271785D01*
X80783809Y-34271785D01*
X80688571Y-34319404D01*
X80640952Y-34367023D01*
X80593333Y-34462261D01*
X80593333Y-34652738D01*
X80640952Y-34747976D01*
X80688571Y-34795595D01*
X80783809Y-34843214D01*
%TO.C,C9*%
X88243333Y-56864642D02*
X88195714Y-56912261D01*
X88052857Y-56959880D01*
X87957619Y-56959880D01*
X87814761Y-56912261D01*
X87719523Y-56817023D01*
X87671904Y-56721785D01*
X87624285Y-56531309D01*
X87624285Y-56388452D01*
X87671904Y-56197976D01*
X87719523Y-56102738D01*
X87814761Y-56007500D01*
X87957619Y-55959880D01*
X88052857Y-55959880D01*
X88195714Y-56007500D01*
X88243333Y-56055119D01*
X88719523Y-56959880D02*
X88910000Y-56959880D01*
X89005238Y-56912261D01*
X89052857Y-56864642D01*
X89148095Y-56721785D01*
X89195714Y-56531309D01*
X89195714Y-56150357D01*
X89148095Y-56055119D01*
X89100476Y-56007500D01*
X89005238Y-55959880D01*
X88814761Y-55959880D01*
X88719523Y-56007500D01*
X88671904Y-56055119D01*
X88624285Y-56150357D01*
X88624285Y-56388452D01*
X88671904Y-56483690D01*
X88719523Y-56531309D01*
X88814761Y-56578928D01*
X89005238Y-56578928D01*
X89100476Y-56531309D01*
X89148095Y-56483690D01*
X89195714Y-56388452D01*
%TO.C,R14*%
X91997142Y-46279880D02*
X91663809Y-45803690D01*
X91425714Y-46279880D02*
X91425714Y-45279880D01*
X91806666Y-45279880D01*
X91901904Y-45327500D01*
X91949523Y-45375119D01*
X91997142Y-45470357D01*
X91997142Y-45613214D01*
X91949523Y-45708452D01*
X91901904Y-45756071D01*
X91806666Y-45803690D01*
X91425714Y-45803690D01*
X92949523Y-46279880D02*
X92378095Y-46279880D01*
X92663809Y-46279880D02*
X92663809Y-45279880D01*
X92568571Y-45422738D01*
X92473333Y-45517976D01*
X92378095Y-45565595D01*
X93806666Y-45613214D02*
X93806666Y-46279880D01*
X93568571Y-45232261D02*
X93330476Y-45946547D01*
X93949523Y-45946547D01*
%TO.C,U2*%
X47478095Y-66292380D02*
X47478095Y-67101904D01*
X47525714Y-67197142D01*
X47573333Y-67244761D01*
X47668571Y-67292380D01*
X47859047Y-67292380D01*
X47954285Y-67244761D01*
X48001904Y-67197142D01*
X48049523Y-67101904D01*
X48049523Y-66292380D01*
X48478095Y-66387619D02*
X48525714Y-66340000D01*
X48620952Y-66292380D01*
X48859047Y-66292380D01*
X48954285Y-66340000D01*
X49001904Y-66387619D01*
X49049523Y-66482857D01*
X49049523Y-66578095D01*
X49001904Y-66720952D01*
X48430476Y-67292380D01*
X49049523Y-67292380D01*
%TO.C,U4*%
X91254345Y-27812380D02*
X91254345Y-28621904D01*
X91301964Y-28717142D01*
X91349583Y-28764761D01*
X91444821Y-28812380D01*
X91635297Y-28812380D01*
X91730535Y-28764761D01*
X91778154Y-28717142D01*
X91825773Y-28621904D01*
X91825773Y-27812380D01*
X92730535Y-28145714D02*
X92730535Y-28812380D01*
X92492440Y-27764761D02*
X92254345Y-28479047D01*
X92873392Y-28479047D01*
%TO.C,R13*%
X96957142Y-46299880D02*
X96623809Y-45823690D01*
X96385714Y-46299880D02*
X96385714Y-45299880D01*
X96766666Y-45299880D01*
X96861904Y-45347500D01*
X96909523Y-45395119D01*
X96957142Y-45490357D01*
X96957142Y-45633214D01*
X96909523Y-45728452D01*
X96861904Y-45776071D01*
X96766666Y-45823690D01*
X96385714Y-45823690D01*
X97909523Y-46299880D02*
X97338095Y-46299880D01*
X97623809Y-46299880D02*
X97623809Y-45299880D01*
X97528571Y-45442738D01*
X97433333Y-45537976D01*
X97338095Y-45585595D01*
X98242857Y-45299880D02*
X98861904Y-45299880D01*
X98528571Y-45680833D01*
X98671428Y-45680833D01*
X98766666Y-45728452D01*
X98814285Y-45776071D01*
X98861904Y-45871309D01*
X98861904Y-46109404D01*
X98814285Y-46204642D01*
X98766666Y-46252261D01*
X98671428Y-46299880D01*
X98385714Y-46299880D01*
X98290476Y-46252261D01*
X98242857Y-46204642D01*
%TO.C,U7*%
X49272380Y-35621904D02*
X50081904Y-35621904D01*
X50177142Y-35574285D01*
X50224761Y-35526666D01*
X50272380Y-35431428D01*
X50272380Y-35240952D01*
X50224761Y-35145714D01*
X50177142Y-35098095D01*
X50081904Y-35050476D01*
X49272380Y-35050476D01*
X49272380Y-34669523D02*
X49272380Y-34002857D01*
X50272380Y-34431428D01*
%TO.C,C14*%
X79747142Y-64257142D02*
X79699523Y-64304761D01*
X79556666Y-64352380D01*
X79461428Y-64352380D01*
X79318571Y-64304761D01*
X79223333Y-64209523D01*
X79175714Y-64114285D01*
X79128095Y-63923809D01*
X79128095Y-63780952D01*
X79175714Y-63590476D01*
X79223333Y-63495238D01*
X79318571Y-63400000D01*
X79461428Y-63352380D01*
X79556666Y-63352380D01*
X79699523Y-63400000D01*
X79747142Y-63447619D01*
X80699523Y-64352380D02*
X80128095Y-64352380D01*
X80413809Y-64352380D02*
X80413809Y-63352380D01*
X80318571Y-63495238D01*
X80223333Y-63590476D01*
X80128095Y-63638095D01*
X81556666Y-63685714D02*
X81556666Y-64352380D01*
X81318571Y-63304761D02*
X81080476Y-64019047D01*
X81699523Y-64019047D01*
%TO.C,J2*%
X97492380Y-56333333D02*
X98206666Y-56333333D01*
X98349523Y-56380952D01*
X98444761Y-56476190D01*
X98492380Y-56619047D01*
X98492380Y-56714285D01*
X97587619Y-55904761D02*
X97540000Y-55857142D01*
X97492380Y-55761904D01*
X97492380Y-55523809D01*
X97540000Y-55428571D01*
X97587619Y-55380952D01*
X97682857Y-55333333D01*
X97778095Y-55333333D01*
X97920952Y-55380952D01*
X98492380Y-55952380D01*
X98492380Y-55333333D01*
%TO.C,J1*%
X97492380Y-27333333D02*
X98206666Y-27333333D01*
X98349523Y-27380952D01*
X98444761Y-27476190D01*
X98492380Y-27619047D01*
X98492380Y-27714285D01*
X98492380Y-26333333D02*
X98492380Y-26904761D01*
X98492380Y-26619047D02*
X97492380Y-26619047D01*
X97635238Y-26714285D01*
X97730476Y-26809523D01*
X97778095Y-26904761D01*
%TO.C,R2*%
X87763333Y-22092380D02*
X87430000Y-21616190D01*
X87191904Y-22092380D02*
X87191904Y-21092380D01*
X87572857Y-21092380D01*
X87668095Y-21140000D01*
X87715714Y-21187619D01*
X87763333Y-21282857D01*
X87763333Y-21425714D01*
X87715714Y-21520952D01*
X87668095Y-21568571D01*
X87572857Y-21616190D01*
X87191904Y-21616190D01*
X88144285Y-21187619D02*
X88191904Y-21140000D01*
X88287142Y-21092380D01*
X88525238Y-21092380D01*
X88620476Y-21140000D01*
X88668095Y-21187619D01*
X88715714Y-21282857D01*
X88715714Y-21378095D01*
X88668095Y-21520952D01*
X88096666Y-22092380D01*
X88715714Y-22092380D01*
%TO.C,R12*%
X88717142Y-39049880D02*
X88383809Y-38573690D01*
X88145714Y-39049880D02*
X88145714Y-38049880D01*
X88526666Y-38049880D01*
X88621904Y-38097500D01*
X88669523Y-38145119D01*
X88717142Y-38240357D01*
X88717142Y-38383214D01*
X88669523Y-38478452D01*
X88621904Y-38526071D01*
X88526666Y-38573690D01*
X88145714Y-38573690D01*
X89669523Y-39049880D02*
X89098095Y-39049880D01*
X89383809Y-39049880D02*
X89383809Y-38049880D01*
X89288571Y-38192738D01*
X89193333Y-38287976D01*
X89098095Y-38335595D01*
X90050476Y-38145119D02*
X90098095Y-38097500D01*
X90193333Y-38049880D01*
X90431428Y-38049880D01*
X90526666Y-38097500D01*
X90574285Y-38145119D01*
X90621904Y-38240357D01*
X90621904Y-38335595D01*
X90574285Y-38478452D01*
X90002857Y-39049880D01*
X90621904Y-39049880D01*
%TO.C,R24*%
X89487142Y-63202380D02*
X89153809Y-62726190D01*
X88915714Y-63202380D02*
X88915714Y-62202380D01*
X89296666Y-62202380D01*
X89391904Y-62250000D01*
X89439523Y-62297619D01*
X89487142Y-62392857D01*
X89487142Y-62535714D01*
X89439523Y-62630952D01*
X89391904Y-62678571D01*
X89296666Y-62726190D01*
X88915714Y-62726190D01*
X89868095Y-62297619D02*
X89915714Y-62250000D01*
X90010952Y-62202380D01*
X90249047Y-62202380D01*
X90344285Y-62250000D01*
X90391904Y-62297619D01*
X90439523Y-62392857D01*
X90439523Y-62488095D01*
X90391904Y-62630952D01*
X89820476Y-63202380D01*
X90439523Y-63202380D01*
X91296666Y-62535714D02*
X91296666Y-63202380D01*
X91058571Y-62154761D02*
X90820476Y-62869047D01*
X91439523Y-62869047D01*
%TO.C,R4*%
X27243333Y-57602380D02*
X26910000Y-57126190D01*
X26671904Y-57602380D02*
X26671904Y-56602380D01*
X27052857Y-56602380D01*
X27148095Y-56650000D01*
X27195714Y-56697619D01*
X27243333Y-56792857D01*
X27243333Y-56935714D01*
X27195714Y-57030952D01*
X27148095Y-57078571D01*
X27052857Y-57126190D01*
X26671904Y-57126190D01*
X28100476Y-56935714D02*
X28100476Y-57602380D01*
X27862380Y-56554761D02*
X27624285Y-57269047D01*
X28243333Y-57269047D01*
%TO.C,C6*%
X80863333Y-27597142D02*
X80815714Y-27644761D01*
X80672857Y-27692380D01*
X80577619Y-27692380D01*
X80434761Y-27644761D01*
X80339523Y-27549523D01*
X80291904Y-27454285D01*
X80244285Y-27263809D01*
X80244285Y-27120952D01*
X80291904Y-26930476D01*
X80339523Y-26835238D01*
X80434761Y-26740000D01*
X80577619Y-26692380D01*
X80672857Y-26692380D01*
X80815714Y-26740000D01*
X80863333Y-26787619D01*
X81720476Y-26692380D02*
X81530000Y-26692380D01*
X81434761Y-26740000D01*
X81387142Y-26787619D01*
X81291904Y-26930476D01*
X81244285Y-27120952D01*
X81244285Y-27501904D01*
X81291904Y-27597142D01*
X81339523Y-27644761D01*
X81434761Y-27692380D01*
X81625238Y-27692380D01*
X81720476Y-27644761D01*
X81768095Y-27597142D01*
X81815714Y-27501904D01*
X81815714Y-27263809D01*
X81768095Y-27168571D01*
X81720476Y-27120952D01*
X81625238Y-27073333D01*
X81434761Y-27073333D01*
X81339523Y-27120952D01*
X81291904Y-27168571D01*
X81244285Y-27263809D01*
%TO.C,C12*%
X87417142Y-49867142D02*
X87369523Y-49914761D01*
X87226666Y-49962380D01*
X87131428Y-49962380D01*
X86988571Y-49914761D01*
X86893333Y-49819523D01*
X86845714Y-49724285D01*
X86798095Y-49533809D01*
X86798095Y-49390952D01*
X86845714Y-49200476D01*
X86893333Y-49105238D01*
X86988571Y-49010000D01*
X87131428Y-48962380D01*
X87226666Y-48962380D01*
X87369523Y-49010000D01*
X87417142Y-49057619D01*
X88369523Y-49962380D02*
X87798095Y-49962380D01*
X88083809Y-49962380D02*
X88083809Y-48962380D01*
X87988571Y-49105238D01*
X87893333Y-49200476D01*
X87798095Y-49248095D01*
X88750476Y-49057619D02*
X88798095Y-49010000D01*
X88893333Y-48962380D01*
X89131428Y-48962380D01*
X89226666Y-49010000D01*
X89274285Y-49057619D01*
X89321904Y-49152857D01*
X89321904Y-49248095D01*
X89274285Y-49390952D01*
X88702857Y-49962380D01*
X89321904Y-49962380D01*
%TO.C,R15*%
X64797142Y-36582380D02*
X64463809Y-36106190D01*
X64225714Y-36582380D02*
X64225714Y-35582380D01*
X64606666Y-35582380D01*
X64701904Y-35630000D01*
X64749523Y-35677619D01*
X64797142Y-35772857D01*
X64797142Y-35915714D01*
X64749523Y-36010952D01*
X64701904Y-36058571D01*
X64606666Y-36106190D01*
X64225714Y-36106190D01*
X65749523Y-36582380D02*
X65178095Y-36582380D01*
X65463809Y-36582380D02*
X65463809Y-35582380D01*
X65368571Y-35725238D01*
X65273333Y-35820476D01*
X65178095Y-35868095D01*
X66654285Y-35582380D02*
X66178095Y-35582380D01*
X66130476Y-36058571D01*
X66178095Y-36010952D01*
X66273333Y-35963333D01*
X66511428Y-35963333D01*
X66606666Y-36010952D01*
X66654285Y-36058571D01*
X66701904Y-36153809D01*
X66701904Y-36391904D01*
X66654285Y-36487142D01*
X66606666Y-36534761D01*
X66511428Y-36582380D01*
X66273333Y-36582380D01*
X66178095Y-36534761D01*
X66130476Y-36487142D01*
%TO.C,R30*%
X69277142Y-33852380D02*
X68943809Y-33376190D01*
X68705714Y-33852380D02*
X68705714Y-32852380D01*
X69086666Y-32852380D01*
X69181904Y-32900000D01*
X69229523Y-32947619D01*
X69277142Y-33042857D01*
X69277142Y-33185714D01*
X69229523Y-33280952D01*
X69181904Y-33328571D01*
X69086666Y-33376190D01*
X68705714Y-33376190D01*
X69610476Y-32852380D02*
X70229523Y-32852380D01*
X69896190Y-33233333D01*
X70039047Y-33233333D01*
X70134285Y-33280952D01*
X70181904Y-33328571D01*
X70229523Y-33423809D01*
X70229523Y-33661904D01*
X70181904Y-33757142D01*
X70134285Y-33804761D01*
X70039047Y-33852380D01*
X69753333Y-33852380D01*
X69658095Y-33804761D01*
X69610476Y-33757142D01*
X70848571Y-32852380D02*
X70943809Y-32852380D01*
X71039047Y-32900000D01*
X71086666Y-32947619D01*
X71134285Y-33042857D01*
X71181904Y-33233333D01*
X71181904Y-33471428D01*
X71134285Y-33661904D01*
X71086666Y-33757142D01*
X71039047Y-33804761D01*
X70943809Y-33852380D01*
X70848571Y-33852380D01*
X70753333Y-33804761D01*
X70705714Y-33757142D01*
X70658095Y-33661904D01*
X70610476Y-33471428D01*
X70610476Y-33233333D01*
X70658095Y-33042857D01*
X70705714Y-32947619D01*
X70753333Y-32900000D01*
X70848571Y-32852380D01*
%TO.C,C7*%
X31473333Y-50177142D02*
X31425714Y-50224761D01*
X31282857Y-50272380D01*
X31187619Y-50272380D01*
X31044761Y-50224761D01*
X30949523Y-50129523D01*
X30901904Y-50034285D01*
X30854285Y-49843809D01*
X30854285Y-49700952D01*
X30901904Y-49510476D01*
X30949523Y-49415238D01*
X31044761Y-49320000D01*
X31187619Y-49272380D01*
X31282857Y-49272380D01*
X31425714Y-49320000D01*
X31473333Y-49367619D01*
X31806666Y-49272380D02*
X32473333Y-49272380D01*
X32044761Y-50272380D01*
%TO.C,R17*%
X77187142Y-66932380D02*
X76853809Y-66456190D01*
X76615714Y-66932380D02*
X76615714Y-65932380D01*
X76996666Y-65932380D01*
X77091904Y-65980000D01*
X77139523Y-66027619D01*
X77187142Y-66122857D01*
X77187142Y-66265714D01*
X77139523Y-66360952D01*
X77091904Y-66408571D01*
X76996666Y-66456190D01*
X76615714Y-66456190D01*
X78139523Y-66932380D02*
X77568095Y-66932380D01*
X77853809Y-66932380D02*
X77853809Y-65932380D01*
X77758571Y-66075238D01*
X77663333Y-66170476D01*
X77568095Y-66218095D01*
X78472857Y-65932380D02*
X79139523Y-65932380D01*
X78710952Y-66932380D01*
%TO.C,R20*%
X74347142Y-60272380D02*
X74013809Y-59796190D01*
X73775714Y-60272380D02*
X73775714Y-59272380D01*
X74156666Y-59272380D01*
X74251904Y-59320000D01*
X74299523Y-59367619D01*
X74347142Y-59462857D01*
X74347142Y-59605714D01*
X74299523Y-59700952D01*
X74251904Y-59748571D01*
X74156666Y-59796190D01*
X73775714Y-59796190D01*
X74728095Y-59367619D02*
X74775714Y-59320000D01*
X74870952Y-59272380D01*
X75109047Y-59272380D01*
X75204285Y-59320000D01*
X75251904Y-59367619D01*
X75299523Y-59462857D01*
X75299523Y-59558095D01*
X75251904Y-59700952D01*
X74680476Y-60272380D01*
X75299523Y-60272380D01*
X75918571Y-59272380D02*
X76013809Y-59272380D01*
X76109047Y-59320000D01*
X76156666Y-59367619D01*
X76204285Y-59462857D01*
X76251904Y-59653333D01*
X76251904Y-59891428D01*
X76204285Y-60081904D01*
X76156666Y-60177142D01*
X76109047Y-60224761D01*
X76013809Y-60272380D01*
X75918571Y-60272380D01*
X75823333Y-60224761D01*
X75775714Y-60177142D01*
X75728095Y-60081904D01*
X75680476Y-59891428D01*
X75680476Y-59653333D01*
X75728095Y-59462857D01*
X75775714Y-59367619D01*
X75823333Y-59320000D01*
X75918571Y-59272380D01*
%TO.C,R22*%
X72227142Y-53289880D02*
X71893809Y-52813690D01*
X71655714Y-53289880D02*
X71655714Y-52289880D01*
X72036666Y-52289880D01*
X72131904Y-52337500D01*
X72179523Y-52385119D01*
X72227142Y-52480357D01*
X72227142Y-52623214D01*
X72179523Y-52718452D01*
X72131904Y-52766071D01*
X72036666Y-52813690D01*
X71655714Y-52813690D01*
X72608095Y-52385119D02*
X72655714Y-52337500D01*
X72750952Y-52289880D01*
X72989047Y-52289880D01*
X73084285Y-52337500D01*
X73131904Y-52385119D01*
X73179523Y-52480357D01*
X73179523Y-52575595D01*
X73131904Y-52718452D01*
X72560476Y-53289880D01*
X73179523Y-53289880D01*
X73560476Y-52385119D02*
X73608095Y-52337500D01*
X73703333Y-52289880D01*
X73941428Y-52289880D01*
X74036666Y-52337500D01*
X74084285Y-52385119D01*
X74131904Y-52480357D01*
X74131904Y-52575595D01*
X74084285Y-52718452D01*
X73512857Y-53289880D01*
X74131904Y-53289880D01*
%TO.C,Q1*%
X62624761Y-39467619D02*
X62529523Y-39420000D01*
X62434285Y-39324761D01*
X62291428Y-39181904D01*
X62196190Y-39134285D01*
X62100952Y-39134285D01*
X62148571Y-39372380D02*
X62053333Y-39324761D01*
X61958095Y-39229523D01*
X61910476Y-39039047D01*
X61910476Y-38705714D01*
X61958095Y-38515238D01*
X62053333Y-38420000D01*
X62148571Y-38372380D01*
X62339047Y-38372380D01*
X62434285Y-38420000D01*
X62529523Y-38515238D01*
X62577142Y-38705714D01*
X62577142Y-39039047D01*
X62529523Y-39229523D01*
X62434285Y-39324761D01*
X62339047Y-39372380D01*
X62148571Y-39372380D01*
X63529523Y-39372380D02*
X62958095Y-39372380D01*
X63243809Y-39372380D02*
X63243809Y-38372380D01*
X63148571Y-38515238D01*
X63053333Y-38610476D01*
X62958095Y-38658095D01*
%TO.C,R8*%
X42863333Y-39382380D02*
X42530000Y-38906190D01*
X42291904Y-39382380D02*
X42291904Y-38382380D01*
X42672857Y-38382380D01*
X42768095Y-38430000D01*
X42815714Y-38477619D01*
X42863333Y-38572857D01*
X42863333Y-38715714D01*
X42815714Y-38810952D01*
X42768095Y-38858571D01*
X42672857Y-38906190D01*
X42291904Y-38906190D01*
X43434761Y-38810952D02*
X43339523Y-38763333D01*
X43291904Y-38715714D01*
X43244285Y-38620476D01*
X43244285Y-38572857D01*
X43291904Y-38477619D01*
X43339523Y-38430000D01*
X43434761Y-38382380D01*
X43625238Y-38382380D01*
X43720476Y-38430000D01*
X43768095Y-38477619D01*
X43815714Y-38572857D01*
X43815714Y-38620476D01*
X43768095Y-38715714D01*
X43720476Y-38763333D01*
X43625238Y-38810952D01*
X43434761Y-38810952D01*
X43339523Y-38858571D01*
X43291904Y-38906190D01*
X43244285Y-39001428D01*
X43244285Y-39191904D01*
X43291904Y-39287142D01*
X43339523Y-39334761D01*
X43434761Y-39382380D01*
X43625238Y-39382380D01*
X43720476Y-39334761D01*
X43768095Y-39287142D01*
X43815714Y-39191904D01*
X43815714Y-39001428D01*
X43768095Y-38906190D01*
X43720476Y-38858571D01*
X43625238Y-38810952D01*
%TO.C,R19*%
X56377142Y-26232380D02*
X56043809Y-25756190D01*
X55805714Y-26232380D02*
X55805714Y-25232380D01*
X56186666Y-25232380D01*
X56281904Y-25280000D01*
X56329523Y-25327619D01*
X56377142Y-25422857D01*
X56377142Y-25565714D01*
X56329523Y-25660952D01*
X56281904Y-25708571D01*
X56186666Y-25756190D01*
X55805714Y-25756190D01*
X57329523Y-26232380D02*
X56758095Y-26232380D01*
X57043809Y-26232380D02*
X57043809Y-25232380D01*
X56948571Y-25375238D01*
X56853333Y-25470476D01*
X56758095Y-25518095D01*
X57805714Y-26232380D02*
X57996190Y-26232380D01*
X58091428Y-26184761D01*
X58139047Y-26137142D01*
X58234285Y-25994285D01*
X58281904Y-25803809D01*
X58281904Y-25422857D01*
X58234285Y-25327619D01*
X58186666Y-25280000D01*
X58091428Y-25232380D01*
X57900952Y-25232380D01*
X57805714Y-25280000D01*
X57758095Y-25327619D01*
X57710476Y-25422857D01*
X57710476Y-25660952D01*
X57758095Y-25756190D01*
X57805714Y-25803809D01*
X57900952Y-25851428D01*
X58091428Y-25851428D01*
X58186666Y-25803809D01*
X58234285Y-25756190D01*
X58281904Y-25660952D01*
%TO.C,R7*%
X89383333Y-59612380D02*
X89050000Y-59136190D01*
X88811904Y-59612380D02*
X88811904Y-58612380D01*
X89192857Y-58612380D01*
X89288095Y-58660000D01*
X89335714Y-58707619D01*
X89383333Y-58802857D01*
X89383333Y-58945714D01*
X89335714Y-59040952D01*
X89288095Y-59088571D01*
X89192857Y-59136190D01*
X88811904Y-59136190D01*
X89716666Y-58612380D02*
X90383333Y-58612380D01*
X89954761Y-59612380D01*
%TO.C,L2*%
X88113333Y-30512380D02*
X87637142Y-30512380D01*
X87637142Y-29512380D01*
X88399047Y-29607619D02*
X88446666Y-29560000D01*
X88541904Y-29512380D01*
X88780000Y-29512380D01*
X88875238Y-29560000D01*
X88922857Y-29607619D01*
X88970476Y-29702857D01*
X88970476Y-29798095D01*
X88922857Y-29940952D01*
X88351428Y-30512380D01*
X88970476Y-30512380D01*
%TO.C,C3*%
X82103333Y-21977142D02*
X82055714Y-22024761D01*
X81912857Y-22072380D01*
X81817619Y-22072380D01*
X81674761Y-22024761D01*
X81579523Y-21929523D01*
X81531904Y-21834285D01*
X81484285Y-21643809D01*
X81484285Y-21500952D01*
X81531904Y-21310476D01*
X81579523Y-21215238D01*
X81674761Y-21120000D01*
X81817619Y-21072380D01*
X81912857Y-21072380D01*
X82055714Y-21120000D01*
X82103333Y-21167619D01*
X82436666Y-21072380D02*
X83055714Y-21072380D01*
X82722380Y-21453333D01*
X82865238Y-21453333D01*
X82960476Y-21500952D01*
X83008095Y-21548571D01*
X83055714Y-21643809D01*
X83055714Y-21881904D01*
X83008095Y-21977142D01*
X82960476Y-22024761D01*
X82865238Y-22072380D01*
X82579523Y-22072380D01*
X82484285Y-22024761D01*
X82436666Y-21977142D01*
%TO.C,R18*%
X56377142Y-23689880D02*
X56043809Y-23213690D01*
X55805714Y-23689880D02*
X55805714Y-22689880D01*
X56186666Y-22689880D01*
X56281904Y-22737500D01*
X56329523Y-22785119D01*
X56377142Y-22880357D01*
X56377142Y-23023214D01*
X56329523Y-23118452D01*
X56281904Y-23166071D01*
X56186666Y-23213690D01*
X55805714Y-23213690D01*
X57329523Y-23689880D02*
X56758095Y-23689880D01*
X57043809Y-23689880D02*
X57043809Y-22689880D01*
X56948571Y-22832738D01*
X56853333Y-22927976D01*
X56758095Y-22975595D01*
X57900952Y-23118452D02*
X57805714Y-23070833D01*
X57758095Y-23023214D01*
X57710476Y-22927976D01*
X57710476Y-22880357D01*
X57758095Y-22785119D01*
X57805714Y-22737500D01*
X57900952Y-22689880D01*
X58091428Y-22689880D01*
X58186666Y-22737500D01*
X58234285Y-22785119D01*
X58281904Y-22880357D01*
X58281904Y-22927976D01*
X58234285Y-23023214D01*
X58186666Y-23070833D01*
X58091428Y-23118452D01*
X57900952Y-23118452D01*
X57805714Y-23166071D01*
X57758095Y-23213690D01*
X57710476Y-23308928D01*
X57710476Y-23499404D01*
X57758095Y-23594642D01*
X57805714Y-23642261D01*
X57900952Y-23689880D01*
X58091428Y-23689880D01*
X58186666Y-23642261D01*
X58234285Y-23594642D01*
X58281904Y-23499404D01*
X58281904Y-23308928D01*
X58234285Y-23213690D01*
X58186666Y-23166071D01*
X58091428Y-23118452D01*
%TO.C,R10*%
X65847142Y-49282380D02*
X65513809Y-48806190D01*
X65275714Y-49282380D02*
X65275714Y-48282380D01*
X65656666Y-48282380D01*
X65751904Y-48330000D01*
X65799523Y-48377619D01*
X65847142Y-48472857D01*
X65847142Y-48615714D01*
X65799523Y-48710952D01*
X65751904Y-48758571D01*
X65656666Y-48806190D01*
X65275714Y-48806190D01*
X66799523Y-49282380D02*
X66228095Y-49282380D01*
X66513809Y-49282380D02*
X66513809Y-48282380D01*
X66418571Y-48425238D01*
X66323333Y-48520476D01*
X66228095Y-48568095D01*
X67418571Y-48282380D02*
X67513809Y-48282380D01*
X67609047Y-48330000D01*
X67656666Y-48377619D01*
X67704285Y-48472857D01*
X67751904Y-48663333D01*
X67751904Y-48901428D01*
X67704285Y-49091904D01*
X67656666Y-49187142D01*
X67609047Y-49234761D01*
X67513809Y-49282380D01*
X67418571Y-49282380D01*
X67323333Y-49234761D01*
X67275714Y-49187142D01*
X67228095Y-49091904D01*
X67180476Y-48901428D01*
X67180476Y-48663333D01*
X67228095Y-48472857D01*
X67275714Y-48377619D01*
X67323333Y-48330000D01*
X67418571Y-48282380D01*
%TO.C,R1*%
X23413333Y-54922380D02*
X23080000Y-54446190D01*
X22841904Y-54922380D02*
X22841904Y-53922380D01*
X23222857Y-53922380D01*
X23318095Y-53970000D01*
X23365714Y-54017619D01*
X23413333Y-54112857D01*
X23413333Y-54255714D01*
X23365714Y-54350952D01*
X23318095Y-54398571D01*
X23222857Y-54446190D01*
X22841904Y-54446190D01*
X24365714Y-54922380D02*
X23794285Y-54922380D01*
X24080000Y-54922380D02*
X24080000Y-53922380D01*
X23984761Y-54065238D01*
X23889523Y-54160476D01*
X23794285Y-54208095D01*
%TO.C,L1*%
X31753333Y-54562380D02*
X31277142Y-54562380D01*
X31277142Y-53562380D01*
X32610476Y-54562380D02*
X32039047Y-54562380D01*
X32324761Y-54562380D02*
X32324761Y-53562380D01*
X32229523Y-53705238D01*
X32134285Y-53800476D01*
X32039047Y-53848095D01*
%TO.C,RV2*%
X81054761Y-44359880D02*
X80721428Y-43883690D01*
X80483333Y-44359880D02*
X80483333Y-43359880D01*
X80864285Y-43359880D01*
X80959523Y-43407500D01*
X81007142Y-43455119D01*
X81054761Y-43550357D01*
X81054761Y-43693214D01*
X81007142Y-43788452D01*
X80959523Y-43836071D01*
X80864285Y-43883690D01*
X80483333Y-43883690D01*
X81340476Y-43359880D02*
X81673809Y-44359880D01*
X82007142Y-43359880D01*
X82292857Y-43455119D02*
X82340476Y-43407500D01*
X82435714Y-43359880D01*
X82673809Y-43359880D01*
X82769047Y-43407500D01*
X82816666Y-43455119D01*
X82864285Y-43550357D01*
X82864285Y-43645595D01*
X82816666Y-43788452D01*
X82245238Y-44359880D01*
X82864285Y-44359880D01*
%TO.C,R25*%
X85102380Y-61982857D02*
X84626190Y-62316190D01*
X85102380Y-62554285D02*
X84102380Y-62554285D01*
X84102380Y-62173333D01*
X84150000Y-62078095D01*
X84197619Y-62030476D01*
X84292857Y-61982857D01*
X84435714Y-61982857D01*
X84530952Y-62030476D01*
X84578571Y-62078095D01*
X84626190Y-62173333D01*
X84626190Y-62554285D01*
X84197619Y-61601904D02*
X84150000Y-61554285D01*
X84102380Y-61459047D01*
X84102380Y-61220952D01*
X84150000Y-61125714D01*
X84197619Y-61078095D01*
X84292857Y-61030476D01*
X84388095Y-61030476D01*
X84530952Y-61078095D01*
X85102380Y-61649523D01*
X85102380Y-61030476D01*
X84102380Y-60125714D02*
X84102380Y-60601904D01*
X84578571Y-60649523D01*
X84530952Y-60601904D01*
X84483333Y-60506666D01*
X84483333Y-60268571D01*
X84530952Y-60173333D01*
X84578571Y-60125714D01*
X84673809Y-60078095D01*
X84911904Y-60078095D01*
X85007142Y-60125714D01*
X85054761Y-60173333D01*
X85102380Y-60268571D01*
X85102380Y-60506666D01*
X85054761Y-60601904D01*
X85007142Y-60649523D01*
%TO.C,R27*%
X81212380Y-49190357D02*
X80736190Y-49523690D01*
X81212380Y-49761785D02*
X80212380Y-49761785D01*
X80212380Y-49380833D01*
X80260000Y-49285595D01*
X80307619Y-49237976D01*
X80402857Y-49190357D01*
X80545714Y-49190357D01*
X80640952Y-49237976D01*
X80688571Y-49285595D01*
X80736190Y-49380833D01*
X80736190Y-49761785D01*
X80307619Y-48809404D02*
X80260000Y-48761785D01*
X80212380Y-48666547D01*
X80212380Y-48428452D01*
X80260000Y-48333214D01*
X80307619Y-48285595D01*
X80402857Y-48237976D01*
X80498095Y-48237976D01*
X80640952Y-48285595D01*
X81212380Y-48857023D01*
X81212380Y-48237976D01*
X80212380Y-47904642D02*
X80212380Y-47237976D01*
X81212380Y-47666547D01*
%TO.C,C10*%
X83267142Y-46227142D02*
X83219523Y-46274761D01*
X83076666Y-46322380D01*
X82981428Y-46322380D01*
X82838571Y-46274761D01*
X82743333Y-46179523D01*
X82695714Y-46084285D01*
X82648095Y-45893809D01*
X82648095Y-45750952D01*
X82695714Y-45560476D01*
X82743333Y-45465238D01*
X82838571Y-45370000D01*
X82981428Y-45322380D01*
X83076666Y-45322380D01*
X83219523Y-45370000D01*
X83267142Y-45417619D01*
X84219523Y-46322380D02*
X83648095Y-46322380D01*
X83933809Y-46322380D02*
X83933809Y-45322380D01*
X83838571Y-45465238D01*
X83743333Y-45560476D01*
X83648095Y-45608095D01*
X84838571Y-45322380D02*
X84933809Y-45322380D01*
X85029047Y-45370000D01*
X85076666Y-45417619D01*
X85124285Y-45512857D01*
X85171904Y-45703333D01*
X85171904Y-45941428D01*
X85124285Y-46131904D01*
X85076666Y-46227142D01*
X85029047Y-46274761D01*
X84933809Y-46322380D01*
X84838571Y-46322380D01*
X84743333Y-46274761D01*
X84695714Y-46227142D01*
X84648095Y-46131904D01*
X84600476Y-45941428D01*
X84600476Y-45703333D01*
X84648095Y-45512857D01*
X84695714Y-45417619D01*
X84743333Y-45370000D01*
X84838571Y-45322380D01*
%TO.C,U3*%
X28428095Y-50412380D02*
X28428095Y-51221904D01*
X28475714Y-51317142D01*
X28523333Y-51364761D01*
X28618571Y-51412380D01*
X28809047Y-51412380D01*
X28904285Y-51364761D01*
X28951904Y-51317142D01*
X28999523Y-51221904D01*
X28999523Y-50412380D01*
X29380476Y-50412380D02*
X29999523Y-50412380D01*
X29666190Y-50793333D01*
X29809047Y-50793333D01*
X29904285Y-50840952D01*
X29951904Y-50888571D01*
X29999523Y-50983809D01*
X29999523Y-51221904D01*
X29951904Y-51317142D01*
X29904285Y-51364761D01*
X29809047Y-51412380D01*
X29523333Y-51412380D01*
X29428095Y-51364761D01*
X29380476Y-51317142D01*
%TO.C,R23*%
X72247142Y-49599880D02*
X71913809Y-49123690D01*
X71675714Y-49599880D02*
X71675714Y-48599880D01*
X72056666Y-48599880D01*
X72151904Y-48647500D01*
X72199523Y-48695119D01*
X72247142Y-48790357D01*
X72247142Y-48933214D01*
X72199523Y-49028452D01*
X72151904Y-49076071D01*
X72056666Y-49123690D01*
X71675714Y-49123690D01*
X72628095Y-48695119D02*
X72675714Y-48647500D01*
X72770952Y-48599880D01*
X73009047Y-48599880D01*
X73104285Y-48647500D01*
X73151904Y-48695119D01*
X73199523Y-48790357D01*
X73199523Y-48885595D01*
X73151904Y-49028452D01*
X72580476Y-49599880D01*
X73199523Y-49599880D01*
X73532857Y-48599880D02*
X74151904Y-48599880D01*
X73818571Y-48980833D01*
X73961428Y-48980833D01*
X74056666Y-49028452D01*
X74104285Y-49076071D01*
X74151904Y-49171309D01*
X74151904Y-49409404D01*
X74104285Y-49504642D01*
X74056666Y-49552261D01*
X73961428Y-49599880D01*
X73675714Y-49599880D01*
X73580476Y-49552261D01*
X73532857Y-49504642D01*
%TO.C,C8*%
X92503333Y-30157142D02*
X92455714Y-30204761D01*
X92312857Y-30252380D01*
X92217619Y-30252380D01*
X92074761Y-30204761D01*
X91979523Y-30109523D01*
X91931904Y-30014285D01*
X91884285Y-29823809D01*
X91884285Y-29680952D01*
X91931904Y-29490476D01*
X91979523Y-29395238D01*
X92074761Y-29300000D01*
X92217619Y-29252380D01*
X92312857Y-29252380D01*
X92455714Y-29300000D01*
X92503333Y-29347619D01*
X93074761Y-29680952D02*
X92979523Y-29633333D01*
X92931904Y-29585714D01*
X92884285Y-29490476D01*
X92884285Y-29442857D01*
X92931904Y-29347619D01*
X92979523Y-29300000D01*
X93074761Y-29252380D01*
X93265238Y-29252380D01*
X93360476Y-29300000D01*
X93408095Y-29347619D01*
X93455714Y-29442857D01*
X93455714Y-29490476D01*
X93408095Y-29585714D01*
X93360476Y-29633333D01*
X93265238Y-29680952D01*
X93074761Y-29680952D01*
X92979523Y-29728571D01*
X92931904Y-29776190D01*
X92884285Y-29871428D01*
X92884285Y-30061904D01*
X92931904Y-30157142D01*
X92979523Y-30204761D01*
X93074761Y-30252380D01*
X93265238Y-30252380D01*
X93360476Y-30204761D01*
X93408095Y-30157142D01*
X93455714Y-30061904D01*
X93455714Y-29871428D01*
X93408095Y-29776190D01*
X93360476Y-29728571D01*
X93265238Y-29680952D01*
%TO.C,U1*%
X31008095Y-44527380D02*
X31008095Y-45336904D01*
X31055714Y-45432142D01*
X31103333Y-45479761D01*
X31198571Y-45527380D01*
X31389047Y-45527380D01*
X31484285Y-45479761D01*
X31531904Y-45432142D01*
X31579523Y-45336904D01*
X31579523Y-44527380D01*
X32579523Y-45527380D02*
X32008095Y-45527380D01*
X32293809Y-45527380D02*
X32293809Y-44527380D01*
X32198571Y-44670238D01*
X32103333Y-44765476D01*
X32008095Y-44813095D01*
%TO.C,C5*%
X28913333Y-61667142D02*
X28865714Y-61714761D01*
X28722857Y-61762380D01*
X28627619Y-61762380D01*
X28484761Y-61714761D01*
X28389523Y-61619523D01*
X28341904Y-61524285D01*
X28294285Y-61333809D01*
X28294285Y-61190952D01*
X28341904Y-61000476D01*
X28389523Y-60905238D01*
X28484761Y-60810000D01*
X28627619Y-60762380D01*
X28722857Y-60762380D01*
X28865714Y-60810000D01*
X28913333Y-60857619D01*
X29818095Y-60762380D02*
X29341904Y-60762380D01*
X29294285Y-61238571D01*
X29341904Y-61190952D01*
X29437142Y-61143333D01*
X29675238Y-61143333D01*
X29770476Y-61190952D01*
X29818095Y-61238571D01*
X29865714Y-61333809D01*
X29865714Y-61571904D01*
X29818095Y-61667142D01*
X29770476Y-61714761D01*
X29675238Y-61762380D01*
X29437142Y-61762380D01*
X29341904Y-61714761D01*
X29294285Y-61667142D01*
%TO.C,C11*%
X54457142Y-44854642D02*
X54409523Y-44902261D01*
X54266666Y-44949880D01*
X54171428Y-44949880D01*
X54028571Y-44902261D01*
X53933333Y-44807023D01*
X53885714Y-44711785D01*
X53838095Y-44521309D01*
X53838095Y-44378452D01*
X53885714Y-44187976D01*
X53933333Y-44092738D01*
X54028571Y-43997500D01*
X54171428Y-43949880D01*
X54266666Y-43949880D01*
X54409523Y-43997500D01*
X54457142Y-44045119D01*
X55409523Y-44949880D02*
X54838095Y-44949880D01*
X55123809Y-44949880D02*
X55123809Y-43949880D01*
X55028571Y-44092738D01*
X54933333Y-44187976D01*
X54838095Y-44235595D01*
X56361904Y-44949880D02*
X55790476Y-44949880D01*
X56076190Y-44949880D02*
X56076190Y-43949880D01*
X55980952Y-44092738D01*
X55885714Y-44187976D01*
X55790476Y-44235595D01*
%TO.C,C13*%
X68647142Y-63297142D02*
X68599523Y-63344761D01*
X68456666Y-63392380D01*
X68361428Y-63392380D01*
X68218571Y-63344761D01*
X68123333Y-63249523D01*
X68075714Y-63154285D01*
X68028095Y-62963809D01*
X68028095Y-62820952D01*
X68075714Y-62630476D01*
X68123333Y-62535238D01*
X68218571Y-62440000D01*
X68361428Y-62392380D01*
X68456666Y-62392380D01*
X68599523Y-62440000D01*
X68647142Y-62487619D01*
X69599523Y-63392380D02*
X69028095Y-63392380D01*
X69313809Y-63392380D02*
X69313809Y-62392380D01*
X69218571Y-62535238D01*
X69123333Y-62630476D01*
X69028095Y-62678095D01*
X69932857Y-62392380D02*
X70551904Y-62392380D01*
X70218571Y-62773333D01*
X70361428Y-62773333D01*
X70456666Y-62820952D01*
X70504285Y-62868571D01*
X70551904Y-62963809D01*
X70551904Y-63201904D01*
X70504285Y-63297142D01*
X70456666Y-63344761D01*
X70361428Y-63392380D01*
X70075714Y-63392380D01*
X69980476Y-63344761D01*
X69932857Y-63297142D01*
%TO.C,C1*%
X23383333Y-60437142D02*
X23335714Y-60484761D01*
X23192857Y-60532380D01*
X23097619Y-60532380D01*
X22954761Y-60484761D01*
X22859523Y-60389523D01*
X22811904Y-60294285D01*
X22764285Y-60103809D01*
X22764285Y-59960952D01*
X22811904Y-59770476D01*
X22859523Y-59675238D01*
X22954761Y-59580000D01*
X23097619Y-59532380D01*
X23192857Y-59532380D01*
X23335714Y-59580000D01*
X23383333Y-59627619D01*
X24335714Y-60532380D02*
X23764285Y-60532380D01*
X24050000Y-60532380D02*
X24050000Y-59532380D01*
X23954761Y-59675238D01*
X23859523Y-59770476D01*
X23764285Y-59818095D01*
%TO.C,R5*%
X87322380Y-28146666D02*
X86846190Y-28480000D01*
X87322380Y-28718095D02*
X86322380Y-28718095D01*
X86322380Y-28337142D01*
X86370000Y-28241904D01*
X86417619Y-28194285D01*
X86512857Y-28146666D01*
X86655714Y-28146666D01*
X86750952Y-28194285D01*
X86798571Y-28241904D01*
X86846190Y-28337142D01*
X86846190Y-28718095D01*
X86322380Y-27241904D02*
X86322380Y-27718095D01*
X86798571Y-27765714D01*
X86750952Y-27718095D01*
X86703333Y-27622857D01*
X86703333Y-27384761D01*
X86750952Y-27289523D01*
X86798571Y-27241904D01*
X86893809Y-27194285D01*
X87131904Y-27194285D01*
X87227142Y-27241904D01*
X87274761Y-27289523D01*
X87322380Y-27384761D01*
X87322380Y-27622857D01*
X87274761Y-27718095D01*
X87227142Y-27765714D01*
%TO.C,R3*%
X48993333Y-63352380D02*
X48660000Y-62876190D01*
X48421904Y-63352380D02*
X48421904Y-62352380D01*
X48802857Y-62352380D01*
X48898095Y-62400000D01*
X48945714Y-62447619D01*
X48993333Y-62542857D01*
X48993333Y-62685714D01*
X48945714Y-62780952D01*
X48898095Y-62828571D01*
X48802857Y-62876190D01*
X48421904Y-62876190D01*
X49326666Y-62352380D02*
X49945714Y-62352380D01*
X49612380Y-62733333D01*
X49755238Y-62733333D01*
X49850476Y-62780952D01*
X49898095Y-62828571D01*
X49945714Y-62923809D01*
X49945714Y-63161904D01*
X49898095Y-63257142D01*
X49850476Y-63304761D01*
X49755238Y-63352380D01*
X49469523Y-63352380D01*
X49374285Y-63304761D01*
X49326666Y-63257142D01*
%TO.C,R21*%
X69007142Y-57792380D02*
X68673809Y-57316190D01*
X68435714Y-57792380D02*
X68435714Y-56792380D01*
X68816666Y-56792380D01*
X68911904Y-56840000D01*
X68959523Y-56887619D01*
X69007142Y-56982857D01*
X69007142Y-57125714D01*
X68959523Y-57220952D01*
X68911904Y-57268571D01*
X68816666Y-57316190D01*
X68435714Y-57316190D01*
X69388095Y-56887619D02*
X69435714Y-56840000D01*
X69530952Y-56792380D01*
X69769047Y-56792380D01*
X69864285Y-56840000D01*
X69911904Y-56887619D01*
X69959523Y-56982857D01*
X69959523Y-57078095D01*
X69911904Y-57220952D01*
X69340476Y-57792380D01*
X69959523Y-57792380D01*
X70911904Y-57792380D02*
X70340476Y-57792380D01*
X70626190Y-57792380D02*
X70626190Y-56792380D01*
X70530952Y-56935238D01*
X70435714Y-57030476D01*
X70340476Y-57078095D01*
%TO.C,R28*%
X75352380Y-49200357D02*
X74876190Y-49533690D01*
X75352380Y-49771785D02*
X74352380Y-49771785D01*
X74352380Y-49390833D01*
X74400000Y-49295595D01*
X74447619Y-49247976D01*
X74542857Y-49200357D01*
X74685714Y-49200357D01*
X74780952Y-49247976D01*
X74828571Y-49295595D01*
X74876190Y-49390833D01*
X74876190Y-49771785D01*
X74447619Y-48819404D02*
X74400000Y-48771785D01*
X74352380Y-48676547D01*
X74352380Y-48438452D01*
X74400000Y-48343214D01*
X74447619Y-48295595D01*
X74542857Y-48247976D01*
X74638095Y-48247976D01*
X74780952Y-48295595D01*
X75352380Y-48867023D01*
X75352380Y-48247976D01*
X74780952Y-47676547D02*
X74733333Y-47771785D01*
X74685714Y-47819404D01*
X74590476Y-47867023D01*
X74542857Y-47867023D01*
X74447619Y-47819404D01*
X74400000Y-47771785D01*
X74352380Y-47676547D01*
X74352380Y-47486071D01*
X74400000Y-47390833D01*
X74447619Y-47343214D01*
X74542857Y-47295595D01*
X74590476Y-47295595D01*
X74685714Y-47343214D01*
X74733333Y-47390833D01*
X74780952Y-47486071D01*
X74780952Y-47676547D01*
X74828571Y-47771785D01*
X74876190Y-47819404D01*
X74971428Y-47867023D01*
X75161904Y-47867023D01*
X75257142Y-47819404D01*
X75304761Y-47771785D01*
X75352380Y-47676547D01*
X75352380Y-47486071D01*
X75304761Y-47390833D01*
X75257142Y-47343214D01*
X75161904Y-47295595D01*
X74971428Y-47295595D01*
X74876190Y-47343214D01*
X74828571Y-47390833D01*
X74780952Y-47486071D01*
%TO.C,U5*%
X27618095Y-21732380D02*
X27618095Y-22541904D01*
X27665714Y-22637142D01*
X27713333Y-22684761D01*
X27808571Y-22732380D01*
X27999047Y-22732380D01*
X28094285Y-22684761D01*
X28141904Y-22637142D01*
X28189523Y-22541904D01*
X28189523Y-21732380D01*
X29141904Y-21732380D02*
X28665714Y-21732380D01*
X28618095Y-22208571D01*
X28665714Y-22160952D01*
X28760952Y-22113333D01*
X28999047Y-22113333D01*
X29094285Y-22160952D01*
X29141904Y-22208571D01*
X29189523Y-22303809D01*
X29189523Y-22541904D01*
X29141904Y-22637142D01*
X29094285Y-22684761D01*
X28999047Y-22732380D01*
X28760952Y-22732380D01*
X28665714Y-22684761D01*
X28618095Y-22637142D01*
%TO.C,R11*%
X53902380Y-41852857D02*
X53426190Y-42186190D01*
X53902380Y-42424285D02*
X52902380Y-42424285D01*
X52902380Y-42043333D01*
X52950000Y-41948095D01*
X52997619Y-41900476D01*
X53092857Y-41852857D01*
X53235714Y-41852857D01*
X53330952Y-41900476D01*
X53378571Y-41948095D01*
X53426190Y-42043333D01*
X53426190Y-42424285D01*
X53902380Y-40900476D02*
X53902380Y-41471904D01*
X53902380Y-41186190D02*
X52902380Y-41186190D01*
X53045238Y-41281428D01*
X53140476Y-41376666D01*
X53188095Y-41471904D01*
X53902380Y-39948095D02*
X53902380Y-40519523D01*
X53902380Y-40233809D02*
X52902380Y-40233809D01*
X53045238Y-40329047D01*
X53140476Y-40424285D01*
X53188095Y-40519523D01*
D12*
%TO.C,J3*%
X63300000Y-59650000D02*
X53080000Y-59650000D01*
X65900000Y-56990000D02*
X65900000Y-58320000D01*
X63300000Y-56990000D02*
X53080000Y-56990000D01*
X53080000Y-56990000D02*
X53080000Y-59650000D01*
X63300000Y-56990000D02*
X63300000Y-59650000D01*
X64570000Y-56990000D02*
X65900000Y-56990000D01*
%TO.C,SW1*%
X71530000Y-28670000D02*
X72530000Y-28670000D01*
X74440000Y-27660000D02*
X74440000Y-27970000D01*
X74440000Y-27970000D02*
X65620000Y-27970000D01*
X72530000Y-28670000D02*
X72030000Y-28170000D01*
X65620000Y-23450000D02*
X65620000Y-23760000D01*
X65620000Y-27970000D02*
X65620000Y-27660000D01*
X65620000Y-23450000D02*
X74440000Y-23450000D01*
X74440000Y-23450000D02*
X74440000Y-23760000D01*
X72030000Y-28170000D02*
X71530000Y-28670000D01*
%TO.C,R16*%
X53602936Y-29052500D02*
X54057064Y-29052500D01*
X53602936Y-27582500D02*
X54057064Y-27582500D01*
%TO.C,RV1*%
X40055000Y-27057500D02*
X40055000Y-32127500D01*
X40055000Y-27057500D02*
X49825000Y-27057500D01*
X40055000Y-32127500D02*
X49825000Y-32127500D01*
X49825000Y-27057500D02*
X49825000Y-32127500D01*
%TO.C,U6*%
X38750000Y-60980000D02*
X37250000Y-60980000D01*
X38750000Y-64200000D02*
X41675000Y-64200000D01*
X38750000Y-60980000D02*
X40250000Y-60980000D01*
X38750000Y-64200000D02*
X37250000Y-64200000D01*
%TO.C,U8*%
X75945000Y-54867500D02*
X75945000Y-52917500D01*
X75945000Y-54867500D02*
X75945000Y-58317500D01*
X84815000Y-54867500D02*
X84815000Y-52917500D01*
X84815000Y-54867500D02*
X84815000Y-56817500D01*
%TO.C,R9*%
X45615436Y-34942500D02*
X46069564Y-34942500D01*
X45615436Y-33472500D02*
X46069564Y-33472500D01*
%TO.C,C4*%
X92711252Y-25165000D02*
X92188748Y-25165000D01*
X92711252Y-23695000D02*
X92188748Y-23695000D01*
%TO.C,R26*%
X68007064Y-65472500D02*
X67552936Y-65472500D01*
X68007064Y-64002500D02*
X67552936Y-64002500D01*
%TO.C,R29*%
X66757064Y-30122500D02*
X66302936Y-30122500D01*
X66757064Y-31592500D02*
X66302936Y-31592500D01*
%TO.C,C2*%
X27421250Y-49838748D02*
X27421250Y-50361252D01*
X25951250Y-49838748D02*
X25951250Y-50361252D01*
%TO.C,R6*%
X78375000Y-34830436D02*
X78375000Y-35284564D01*
X79845000Y-34830436D02*
X79845000Y-35284564D01*
%TO.C,C9*%
X88671252Y-55562500D02*
X88148748Y-55562500D01*
X88671252Y-54092500D02*
X88148748Y-54092500D01*
%TO.C,R14*%
X89535000Y-45600436D02*
X89535000Y-46054564D01*
X91005000Y-45600436D02*
X91005000Y-46054564D01*
%TO.C,U4*%
X88605000Y-25940000D02*
X90605000Y-25940000D01*
X90605000Y-25940000D02*
X90605000Y-27940000D01*
X90605000Y-27940000D02*
X88605000Y-27940000D01*
X88605000Y-27940000D02*
X88605000Y-25940000D01*
%TO.C,R13*%
X94455000Y-45620436D02*
X94455000Y-46074564D01*
X95925000Y-45620436D02*
X95925000Y-46074564D01*
%TO.C,U7*%
X59535000Y-34860000D02*
X59535000Y-36810000D01*
X50665000Y-34860000D02*
X50665000Y-32910000D01*
X59535000Y-34860000D02*
X59535000Y-32910000D01*
X50665000Y-34860000D02*
X50665000Y-38310000D01*
%TO.C,C14*%
X81115000Y-61076248D02*
X81115000Y-61598752D01*
X79645000Y-61076248D02*
X79645000Y-61598752D01*
%TO.C,J2*%
X98290000Y-59250000D02*
X98790000Y-59000000D01*
X98790000Y-59000000D02*
X98290000Y-58750000D01*
X98290000Y-58750000D02*
X98290000Y-59250000D01*
%TO.C,J1*%
X98290000Y-29750000D02*
X98290000Y-30250000D01*
X98290000Y-30250000D02*
X98790000Y-30000000D01*
X98790000Y-30000000D02*
X98290000Y-29750000D01*
%TO.C,R2*%
X87702936Y-24025000D02*
X88157064Y-24025000D01*
X87702936Y-22555000D02*
X88157064Y-22555000D01*
%TO.C,R12*%
X89132936Y-39512500D02*
X89587064Y-39512500D01*
X89132936Y-40982500D02*
X89587064Y-40982500D01*
%TO.C,R24*%
X88205000Y-62522936D02*
X88205000Y-62977064D01*
X86735000Y-62522936D02*
X86735000Y-62977064D01*
%TO.C,R4*%
X30029186Y-57895000D02*
X30483314Y-57895000D01*
X30029186Y-56425000D02*
X30483314Y-56425000D01*
%TO.C,C6*%
X80768748Y-29655000D02*
X81291252Y-29655000D01*
X80768748Y-28185000D02*
X81291252Y-28185000D01*
%TO.C,C12*%
X90958748Y-48772500D02*
X91481252Y-48772500D01*
X90958748Y-50242500D02*
X91481252Y-50242500D01*
%TO.C,R15*%
X63455000Y-35902936D02*
X63455000Y-36357064D01*
X61985000Y-35902936D02*
X61985000Y-36357064D01*
%TO.C,R30*%
X66302936Y-34132500D02*
X66757064Y-34132500D01*
X66302936Y-32662500D02*
X66757064Y-32662500D01*
%TO.C,C7*%
X32991250Y-50081252D02*
X32991250Y-49558748D01*
X34461250Y-50081252D02*
X34461250Y-49558748D01*
%TO.C,R17*%
X78575000Y-64224564D02*
X78575000Y-63770436D01*
X77105000Y-64224564D02*
X77105000Y-63770436D01*
%TO.C,R20*%
X75725000Y-62404564D02*
X75725000Y-61950436D01*
X74255000Y-62404564D02*
X74255000Y-61950436D01*
%TO.C,R22*%
X72642936Y-53752500D02*
X73097064Y-53752500D01*
X72642936Y-55222500D02*
X73097064Y-55222500D01*
%TO.C,Q1*%
X60920000Y-44330000D02*
X64520000Y-44330000D01*
X62720000Y-39879999D02*
G75*
G03*
X60881522Y-44318478I0J-2600001D01*
G01*
X64558478Y-44318478D02*
G75*
G03*
X62720000Y-39880000I-1838478J1838478D01*
G01*
%TO.C,R8*%
X45612936Y-38182500D02*
X46067064Y-38182500D01*
X45612936Y-39652500D02*
X46067064Y-39652500D01*
%TO.C,R19*%
X54057064Y-25042500D02*
X53602936Y-25042500D01*
X54057064Y-26512500D02*
X53602936Y-26512500D01*
%TO.C,R7*%
X88195000Y-59384564D02*
X88195000Y-58930436D01*
X86725000Y-59384564D02*
X86725000Y-58930436D01*
%TO.C,L2*%
X87880378Y-32170000D02*
X88679622Y-32170000D01*
X87880378Y-31050000D02*
X88679622Y-31050000D01*
%TO.C,C3*%
X82008748Y-24035000D02*
X82531252Y-24035000D01*
X82008748Y-22565000D02*
X82531252Y-22565000D01*
%TO.C,R18*%
X54057064Y-22502500D02*
X53602936Y-22502500D01*
X54057064Y-23972500D02*
X53602936Y-23972500D01*
%TO.C,R10*%
X63255000Y-48602936D02*
X63255000Y-49057064D01*
X64725000Y-48602936D02*
X64725000Y-49057064D01*
%TO.C,R1*%
X26321250Y-54697064D02*
X26321250Y-54242936D01*
X24851250Y-54697064D02*
X24851250Y-54242936D01*
%TO.C,L1*%
X33166250Y-54509622D02*
X33166250Y-53710378D01*
X34286250Y-54509622D02*
X34286250Y-53710378D01*
%TO.C,RV2*%
X86535000Y-37707500D02*
X76765000Y-37707500D01*
X76765000Y-42777500D02*
X76765000Y-37707500D01*
X86535000Y-42777500D02*
X86535000Y-37707500D01*
X86535000Y-42777500D02*
X76765000Y-42777500D01*
%TO.C,R25*%
X82185000Y-61110436D02*
X82185000Y-61564564D01*
X83655000Y-61110436D02*
X83655000Y-61564564D01*
%TO.C,R27*%
X78375000Y-48320436D02*
X78375000Y-48774564D01*
X79845000Y-48320436D02*
X79845000Y-48774564D01*
%TO.C,C10*%
X87215000Y-46128752D02*
X87215000Y-45606248D01*
X85745000Y-46128752D02*
X85745000Y-45606248D01*
%TO.C,U3*%
X28196250Y-53805000D02*
X30196250Y-53805000D01*
X30196250Y-53805000D02*
X30196250Y-51805000D01*
X30196250Y-51805000D02*
X28196250Y-51805000D01*
X28196250Y-51805000D02*
X28196250Y-53805000D01*
%TO.C,R23*%
X72662936Y-50062500D02*
X73117064Y-50062500D01*
X72662936Y-51532500D02*
X73117064Y-51532500D01*
%TO.C,C8*%
X92408748Y-30745000D02*
X92931252Y-30745000D01*
X92408748Y-32215000D02*
X92931252Y-32215000D01*
%TO.C,C5*%
X30421250Y-61571252D02*
X30421250Y-61048748D01*
X31891250Y-61571252D02*
X31891250Y-61048748D01*
%TO.C,C11*%
X54838748Y-45555000D02*
X55361252Y-45555000D01*
X54838748Y-47025000D02*
X55361252Y-47025000D01*
%TO.C,C13*%
X72685000Y-64048752D02*
X72685000Y-63526248D01*
X71215000Y-64048752D02*
X71215000Y-63526248D01*
%TO.C,C1*%
X24851250Y-60331252D02*
X24851250Y-59808748D01*
X26321250Y-60331252D02*
X26321250Y-59808748D01*
%TO.C,R5*%
X85955000Y-27752936D02*
X85955000Y-28207064D01*
X84485000Y-27752936D02*
X84485000Y-28207064D01*
%TO.C,R3*%
X45795436Y-62166250D02*
X46249564Y-62166250D01*
X45795436Y-63636250D02*
X46249564Y-63636250D01*
%TO.C,R21*%
X73107064Y-58072500D02*
X72652936Y-58072500D01*
X73107064Y-56602500D02*
X72652936Y-56602500D01*
%TO.C,R28*%
X75815000Y-48784564D02*
X75815000Y-48330436D01*
X77285000Y-48784564D02*
X77285000Y-48330436D01*
%TO.C,U5*%
X28190000Y-27190000D02*
G75*
G03*
X28190000Y-27190000I-1000000J0D01*
G01*
X37350000Y-37350000D02*
X24650000Y-37350000D01*
X24650000Y-37350000D02*
X24650000Y-24650000D01*
X24650000Y-24650000D02*
X37350000Y-24650000D01*
X37350000Y-24650000D02*
X37350000Y-37350000D01*
%TO.C,R11*%
X54365000Y-41437064D02*
X54365000Y-40982936D01*
X55835000Y-41437064D02*
X55835000Y-40982936D01*
%TD*%
M02*
