%TF.GenerationSoftware,KiCad,Pcbnew,(6.0.7)*%
%TF.CreationDate,2022-08-18T15:59:35-04:00*%
%TF.ProjectId,RadarProject,52616461-7250-4726-9f6a-6563742e6b69,rev?*%
%TF.SameCoordinates,Original*%
%TF.FileFunction,Copper,L2,Inr*%
%TF.FilePolarity,Positive*%
%FSLAX46Y46*%
G04 Gerber Fmt 4.6, Leading zero omitted, Abs format (unit mm)*
G04 Created by KiCad (PCBNEW (6.0.7)) date 2022-08-18 15:59:35*
%MOMM*%
%LPD*%
G01*
G04 APERTURE LIST*
%TA.AperFunction,ComponentPad*%
%ADD10R,1.700000X1.700000*%
%TD*%
%TA.AperFunction,ComponentPad*%
%ADD11O,1.700000X1.700000*%
%TD*%
%TA.AperFunction,ComponentPad*%
%ADD12O,2.200000X3.500000*%
%TD*%
%TA.AperFunction,ComponentPad*%
%ADD13R,1.500000X2.500000*%
%TD*%
%TA.AperFunction,ComponentPad*%
%ADD14O,1.500000X2.500000*%
%TD*%
%TA.AperFunction,ComponentPad*%
%ADD15C,1.440000*%
%TD*%
%TA.AperFunction,ComponentPad*%
%ADD16R,1.050000X1.500000*%
%TD*%
%TA.AperFunction,ComponentPad*%
%ADD17O,1.050000X1.500000*%
%TD*%
%TA.AperFunction,ViaPad*%
%ADD18C,0.800000*%
%TD*%
G04 APERTURE END LIST*
D10*
%TO.N,Earth*%
%TO.C,J3*%
X64570000Y-58320000D03*
D11*
%TO.N,unconnected-(J3-Pad2)*%
X62030000Y-58320000D03*
%TO.N,Net-(R26-Pad2)*%
X59490000Y-58320000D03*
%TO.N,+5V*%
X56950000Y-58320000D03*
%TO.N,Net-(SW1-Pad3)*%
X54410000Y-58320000D03*
%TD*%
D12*
%TO.N,*%
%TO.C,SW1*%
X65930000Y-25710000D03*
X74130000Y-25710000D03*
D13*
%TO.N,Earth*%
X72030000Y-25710000D03*
D14*
%TO.N,Net-(SW1-Pad2)*%
X70030000Y-25710000D03*
%TO.N,Net-(SW1-Pad3)*%
X68030000Y-25710000D03*
%TD*%
D15*
%TO.N,+5V*%
%TO.C,RV1*%
X47480000Y-29587500D03*
%TO.N,Net-(R8-Pad1)*%
X44940000Y-29587500D03*
%TO.N,Earth*%
X42400000Y-29587500D03*
%TD*%
D16*
%TO.N,Earth*%
%TO.C,Q1*%
X61450000Y-42480000D03*
D17*
%TO.N,Net-(Q1-Pad2)*%
X62720000Y-42480000D03*
%TO.N,Net-(Q1-Pad3)*%
X63990000Y-42480000D03*
%TD*%
D15*
%TO.N,Net-(R12-Pad1)*%
%TO.C,RV2*%
X84190000Y-40247500D03*
X81650000Y-40247500D03*
%TO.N,Net-(R6-Pad2)*%
X79110000Y-40247500D03*
%TD*%
D18*
%TO.N,Earth*%
X40860000Y-64920000D03*
X64560000Y-55970000D03*
%TO.N,+5V*%
X56950000Y-56020000D03*
X85260000Y-23330000D03*
X81240000Y-34140000D03*
X68920000Y-30860000D03*
X55100000Y-39060000D03*
X51210000Y-25780000D03*
X22400000Y-32650000D03*
X25590000Y-57150000D03*
X80380000Y-54480000D03*
X79840000Y-64330000D03*
X85620000Y-60970000D03*
X95190000Y-49500000D03*
X77420000Y-44710000D03*
%TO.N,Earth*%
X80380000Y-50670000D03*
X46020000Y-65380000D03*
X22490000Y-30110000D03*
X22540000Y-37350000D03*
X39210000Y-37350000D03*
X78510000Y-28920000D03*
X76540000Y-46220000D03*
X25610000Y-62280000D03*
X55100000Y-43750000D03*
X69070000Y-33397500D03*
X61450000Y-45020000D03*
X51210000Y-23241250D03*
X29196250Y-51200000D03*
X91240000Y-26940000D03*
X55100000Y-30857500D03*
%TD*%
%TA.AperFunction,Conductor*%
%TO.N,Earth*%
G36*
X101970018Y-20510000D02*
G01*
X101984851Y-20512310D01*
X101984855Y-20512310D01*
X101993724Y-20513691D01*
X102010923Y-20511442D01*
X102034863Y-20510609D01*
X102292710Y-20526206D01*
X102307814Y-20528040D01*
X102379786Y-20541229D01*
X102588760Y-20579525D01*
X102603526Y-20583164D01*
X102876231Y-20668142D01*
X102890445Y-20673534D01*
X103108223Y-20771547D01*
X103150906Y-20790757D01*
X103164379Y-20797828D01*
X103408813Y-20945595D01*
X103421334Y-20954238D01*
X103646171Y-21130385D01*
X103657560Y-21140475D01*
X103859525Y-21342440D01*
X103869615Y-21353829D01*
X104045762Y-21578666D01*
X104054405Y-21591187D01*
X104202172Y-21835621D01*
X104209242Y-21849092D01*
X104326466Y-22109555D01*
X104331858Y-22123769D01*
X104371168Y-22249921D01*
X104416836Y-22396473D01*
X104420475Y-22411240D01*
X104444578Y-22542763D01*
X104471960Y-22692186D01*
X104473794Y-22707290D01*
X104488953Y-22957904D01*
X104487692Y-22984716D01*
X104487690Y-22984852D01*
X104486309Y-22993724D01*
X104487473Y-23002626D01*
X104487473Y-23002628D01*
X104490436Y-23025283D01*
X104491500Y-23041621D01*
X104491500Y-65950633D01*
X104490000Y-65970018D01*
X104487690Y-65984851D01*
X104487690Y-65984855D01*
X104486309Y-65993724D01*
X104488558Y-66010919D01*
X104489391Y-66034863D01*
X104473794Y-66292710D01*
X104471960Y-66307814D01*
X104470605Y-66315209D01*
X104423410Y-66572750D01*
X104420477Y-66588754D01*
X104416836Y-66603526D01*
X104349847Y-66818503D01*
X104331859Y-66876227D01*
X104326466Y-66890445D01*
X104209243Y-67150906D01*
X104202172Y-67164379D01*
X104054405Y-67408813D01*
X104045762Y-67421334D01*
X103869615Y-67646171D01*
X103859525Y-67657560D01*
X103657560Y-67859525D01*
X103646171Y-67869615D01*
X103421334Y-68045762D01*
X103408813Y-68054405D01*
X103164379Y-68202172D01*
X103150908Y-68209242D01*
X102890445Y-68326466D01*
X102876231Y-68331858D01*
X102603527Y-68416836D01*
X102588760Y-68420475D01*
X102379786Y-68458771D01*
X102307814Y-68471960D01*
X102292710Y-68473794D01*
X102042096Y-68488953D01*
X102015284Y-68487692D01*
X102015148Y-68487690D01*
X102006276Y-68486309D01*
X101997374Y-68487473D01*
X101997372Y-68487473D01*
X101982707Y-68489391D01*
X101974714Y-68490436D01*
X101958379Y-68491500D01*
X23049367Y-68491500D01*
X23029982Y-68490000D01*
X23015149Y-68487690D01*
X23015145Y-68487690D01*
X23006276Y-68486309D01*
X22989077Y-68488558D01*
X22965137Y-68489391D01*
X22707290Y-68473794D01*
X22692186Y-68471960D01*
X22620214Y-68458771D01*
X22411240Y-68420475D01*
X22396473Y-68416836D01*
X22123769Y-68331858D01*
X22109555Y-68326466D01*
X21849092Y-68209242D01*
X21835621Y-68202172D01*
X21591187Y-68054405D01*
X21578666Y-68045762D01*
X21353829Y-67869615D01*
X21342440Y-67859525D01*
X21140475Y-67657560D01*
X21130385Y-67646171D01*
X20954238Y-67421334D01*
X20945595Y-67408813D01*
X20797828Y-67164379D01*
X20790757Y-67150906D01*
X20673534Y-66890445D01*
X20668141Y-66876227D01*
X20650154Y-66818503D01*
X20583164Y-66603526D01*
X20579523Y-66588754D01*
X20576591Y-66572750D01*
X20529395Y-66315209D01*
X20528040Y-66307814D01*
X20526206Y-66292710D01*
X20511269Y-66045768D01*
X20511454Y-66042277D01*
X21137009Y-66042277D01*
X21162625Y-66310769D01*
X21163710Y-66315203D01*
X21163711Y-66315209D01*
X21225645Y-66568312D01*
X21226731Y-66572750D01*
X21327985Y-66822733D01*
X21464265Y-67055482D01*
X21467118Y-67059049D01*
X21584686Y-67206060D01*
X21632716Y-67266119D01*
X21829809Y-67450234D01*
X22051416Y-67603968D01*
X22055499Y-67605999D01*
X22055502Y-67606001D01*
X22136248Y-67646171D01*
X22292894Y-67724101D01*
X22297228Y-67725522D01*
X22297231Y-67725523D01*
X22544853Y-67806698D01*
X22544859Y-67806699D01*
X22549186Y-67808118D01*
X22553677Y-67808898D01*
X22553678Y-67808898D01*
X22811140Y-67853601D01*
X22811148Y-67853602D01*
X22814921Y-67854257D01*
X22818758Y-67854448D01*
X22898578Y-67858422D01*
X22898586Y-67858422D01*
X22900149Y-67858500D01*
X23068512Y-67858500D01*
X23070780Y-67858335D01*
X23070792Y-67858335D01*
X23201884Y-67848823D01*
X23269004Y-67843953D01*
X23273459Y-67842969D01*
X23273462Y-67842969D01*
X23527912Y-67786791D01*
X23527916Y-67786790D01*
X23532372Y-67785806D01*
X23658480Y-67738028D01*
X23780318Y-67691868D01*
X23780321Y-67691867D01*
X23784588Y-67690250D01*
X24020368Y-67559286D01*
X24234773Y-67395657D01*
X24423312Y-67202792D01*
X24582034Y-66984730D01*
X24665190Y-66826676D01*
X24705490Y-66750079D01*
X24705493Y-66750073D01*
X24707615Y-66746039D01*
X24729065Y-66685300D01*
X24795902Y-66496033D01*
X24795902Y-66496032D01*
X24797425Y-66491720D01*
X24833090Y-66310769D01*
X24848700Y-66231572D01*
X24848701Y-66231566D01*
X24849581Y-66227100D01*
X24858782Y-66042277D01*
X100137009Y-66042277D01*
X100162625Y-66310769D01*
X100163710Y-66315203D01*
X100163711Y-66315209D01*
X100225645Y-66568312D01*
X100226731Y-66572750D01*
X100327985Y-66822733D01*
X100464265Y-67055482D01*
X100467118Y-67059049D01*
X100584686Y-67206060D01*
X100632716Y-67266119D01*
X100829809Y-67450234D01*
X101051416Y-67603968D01*
X101055499Y-67605999D01*
X101055502Y-67606001D01*
X101136248Y-67646171D01*
X101292894Y-67724101D01*
X101297228Y-67725522D01*
X101297231Y-67725523D01*
X101544853Y-67806698D01*
X101544859Y-67806699D01*
X101549186Y-67808118D01*
X101553677Y-67808898D01*
X101553678Y-67808898D01*
X101811140Y-67853601D01*
X101811148Y-67853602D01*
X101814921Y-67854257D01*
X101818758Y-67854448D01*
X101898578Y-67858422D01*
X101898586Y-67858422D01*
X101900149Y-67858500D01*
X102068512Y-67858500D01*
X102070780Y-67858335D01*
X102070792Y-67858335D01*
X102201884Y-67848823D01*
X102269004Y-67843953D01*
X102273459Y-67842969D01*
X102273462Y-67842969D01*
X102527912Y-67786791D01*
X102527916Y-67786790D01*
X102532372Y-67785806D01*
X102658480Y-67738028D01*
X102780318Y-67691868D01*
X102780321Y-67691867D01*
X102784588Y-67690250D01*
X103020368Y-67559286D01*
X103234773Y-67395657D01*
X103423312Y-67202792D01*
X103582034Y-66984730D01*
X103665190Y-66826676D01*
X103705490Y-66750079D01*
X103705493Y-66750073D01*
X103707615Y-66746039D01*
X103729065Y-66685300D01*
X103795902Y-66496033D01*
X103795902Y-66496032D01*
X103797425Y-66491720D01*
X103833090Y-66310769D01*
X103848700Y-66231572D01*
X103848701Y-66231566D01*
X103849581Y-66227100D01*
X103858782Y-66042277D01*
X103862764Y-65962292D01*
X103862764Y-65962286D01*
X103862991Y-65957723D01*
X103837375Y-65689231D01*
X103792042Y-65503967D01*
X103774355Y-65431688D01*
X103773269Y-65427250D01*
X103672015Y-65177267D01*
X103535735Y-64944518D01*
X103417928Y-64797208D01*
X103370136Y-64737447D01*
X103370135Y-64737445D01*
X103367284Y-64733881D01*
X103170191Y-64549766D01*
X102948584Y-64396032D01*
X102944501Y-64394001D01*
X102944498Y-64393999D01*
X102804432Y-64324318D01*
X102707106Y-64275899D01*
X102702772Y-64274478D01*
X102702769Y-64274477D01*
X102455147Y-64193302D01*
X102455141Y-64193301D01*
X102450814Y-64191882D01*
X102446322Y-64191102D01*
X102188860Y-64146399D01*
X102188852Y-64146398D01*
X102185079Y-64145743D01*
X102173817Y-64145182D01*
X102101422Y-64141578D01*
X102101414Y-64141578D01*
X102099851Y-64141500D01*
X101931488Y-64141500D01*
X101929220Y-64141665D01*
X101929208Y-64141665D01*
X101798116Y-64151177D01*
X101730996Y-64156047D01*
X101726541Y-64157031D01*
X101726538Y-64157031D01*
X101472088Y-64213209D01*
X101472084Y-64213210D01*
X101467628Y-64214194D01*
X101382131Y-64246586D01*
X101219682Y-64308132D01*
X101219679Y-64308133D01*
X101215412Y-64309750D01*
X100979632Y-64440714D01*
X100765227Y-64604343D01*
X100576688Y-64797208D01*
X100417966Y-65015270D01*
X100415844Y-65019304D01*
X100294510Y-65249921D01*
X100294507Y-65249927D01*
X100292385Y-65253961D01*
X100290865Y-65258266D01*
X100290863Y-65258270D01*
X100204098Y-65503967D01*
X100202575Y-65508280D01*
X100150419Y-65772900D01*
X100150192Y-65777453D01*
X100150192Y-65777456D01*
X100137878Y-66024823D01*
X100137009Y-66042277D01*
X24858782Y-66042277D01*
X24862764Y-65962292D01*
X24862764Y-65962286D01*
X24862991Y-65957723D01*
X24837375Y-65689231D01*
X24792042Y-65503967D01*
X24774355Y-65431688D01*
X24773269Y-65427250D01*
X24672015Y-65177267D01*
X24535735Y-64944518D01*
X24417928Y-64797208D01*
X24370136Y-64737447D01*
X24370135Y-64737445D01*
X24367284Y-64733881D01*
X24170191Y-64549766D01*
X23948584Y-64396032D01*
X23944501Y-64394001D01*
X23944498Y-64393999D01*
X23815853Y-64330000D01*
X78926496Y-64330000D01*
X78927186Y-64336565D01*
X78934854Y-64409518D01*
X78946458Y-64519928D01*
X79005473Y-64701556D01*
X79100960Y-64866944D01*
X79228747Y-65008866D01*
X79383248Y-65121118D01*
X79389276Y-65123802D01*
X79389278Y-65123803D01*
X79500505Y-65173324D01*
X79557712Y-65198794D01*
X79651113Y-65218647D01*
X79738056Y-65237128D01*
X79738061Y-65237128D01*
X79744513Y-65238500D01*
X79935487Y-65238500D01*
X79941939Y-65237128D01*
X79941944Y-65237128D01*
X80028887Y-65218647D01*
X80122288Y-65198794D01*
X80179495Y-65173324D01*
X80290722Y-65123803D01*
X80290724Y-65123802D01*
X80296752Y-65121118D01*
X80451253Y-65008866D01*
X80579040Y-64866944D01*
X80674527Y-64701556D01*
X80733542Y-64519928D01*
X80745147Y-64409518D01*
X80752814Y-64336565D01*
X80753504Y-64330000D01*
X80743761Y-64237303D01*
X80734232Y-64146635D01*
X80734232Y-64146633D01*
X80733542Y-64140072D01*
X80674527Y-63958444D01*
X80579040Y-63793056D01*
X80478561Y-63681462D01*
X80456773Y-63657264D01*
X80946961Y-63657264D01*
X80962910Y-63819922D01*
X80965134Y-63826607D01*
X80965134Y-63826608D01*
X80976181Y-63859817D01*
X81014499Y-63975005D01*
X81099165Y-64114804D01*
X81212698Y-64232371D01*
X81218590Y-64236226D01*
X81218594Y-64236230D01*
X81302553Y-64291171D01*
X81349457Y-64321864D01*
X81376347Y-64331864D01*
X81496048Y-64376380D01*
X81496051Y-64376381D01*
X81502645Y-64378833D01*
X81509622Y-64379764D01*
X81657666Y-64399518D01*
X81657670Y-64399518D01*
X81664647Y-64400449D01*
X81671658Y-64399811D01*
X81671662Y-64399811D01*
X81820391Y-64386275D01*
X81827412Y-64385636D01*
X81834114Y-64383458D01*
X81834116Y-64383458D01*
X81976152Y-64337308D01*
X81976155Y-64337307D01*
X81982851Y-64335131D01*
X81988902Y-64331524D01*
X82117186Y-64255052D01*
X82117188Y-64255051D01*
X82123238Y-64251444D01*
X82241595Y-64138734D01*
X82332040Y-64002603D01*
X82383779Y-63866400D01*
X82387578Y-63856400D01*
X82387579Y-63856395D01*
X82390078Y-63849817D01*
X82391058Y-63842845D01*
X82412273Y-63691893D01*
X82412273Y-63691888D01*
X82412824Y-63687970D01*
X82412970Y-63677500D01*
X82413055Y-63671462D01*
X82413055Y-63671456D01*
X82413110Y-63667500D01*
X82413084Y-63667264D01*
X85216961Y-63667264D01*
X85232910Y-63829922D01*
X85235134Y-63836607D01*
X85235134Y-63836608D01*
X85258705Y-63907464D01*
X85284499Y-63985005D01*
X85288148Y-63991030D01*
X85363109Y-64114804D01*
X85369165Y-64124804D01*
X85374056Y-64129869D01*
X85374057Y-64129870D01*
X85390019Y-64146399D01*
X85482698Y-64242371D01*
X85488590Y-64246226D01*
X85488594Y-64246230D01*
X85537042Y-64277933D01*
X85619457Y-64331864D01*
X85655132Y-64345131D01*
X85766048Y-64386380D01*
X85766051Y-64386381D01*
X85772645Y-64388833D01*
X85779622Y-64389764D01*
X85927666Y-64409518D01*
X85927670Y-64409518D01*
X85934647Y-64410449D01*
X85941658Y-64409811D01*
X85941662Y-64409811D01*
X86090391Y-64396275D01*
X86097412Y-64395636D01*
X86104114Y-64393458D01*
X86104116Y-64393458D01*
X86246152Y-64347308D01*
X86246155Y-64347307D01*
X86252851Y-64345131D01*
X86281575Y-64328008D01*
X86387186Y-64265052D01*
X86387188Y-64265051D01*
X86393238Y-64261444D01*
X86511595Y-64148734D01*
X86602040Y-64012603D01*
X86624787Y-63952721D01*
X86657578Y-63866400D01*
X86657579Y-63866395D01*
X86660078Y-63859817D01*
X86661058Y-63852845D01*
X86682273Y-63701893D01*
X86682273Y-63701888D01*
X86682824Y-63697970D01*
X86683110Y-63677500D01*
X86664892Y-63515081D01*
X86611142Y-63360734D01*
X86524534Y-63222130D01*
X86519572Y-63217133D01*
X86414333Y-63111157D01*
X86414329Y-63111154D01*
X86409370Y-63106160D01*
X86393536Y-63096111D01*
X86356440Y-63072569D01*
X86271374Y-63018585D01*
X86246835Y-63009847D01*
X86124041Y-62966122D01*
X86124036Y-62966121D01*
X86117406Y-62963760D01*
X86110418Y-62962927D01*
X86110415Y-62962926D01*
X85999476Y-62949697D01*
X85955118Y-62944408D01*
X85948115Y-62945144D01*
X85948114Y-62945144D01*
X85799575Y-62960756D01*
X85799573Y-62960757D01*
X85792575Y-62961492D01*
X85711273Y-62989169D01*
X85644527Y-63011891D01*
X85644524Y-63011892D01*
X85637857Y-63014162D01*
X85498652Y-63099801D01*
X85487056Y-63111157D01*
X85389049Y-63207133D01*
X85381880Y-63214153D01*
X85293345Y-63351534D01*
X85290936Y-63358154D01*
X85290935Y-63358155D01*
X85267879Y-63421500D01*
X85237446Y-63505115D01*
X85216961Y-63667264D01*
X82413084Y-63667264D01*
X82399119Y-63542763D01*
X82395677Y-63512077D01*
X82395676Y-63512075D01*
X82394892Y-63505081D01*
X82341142Y-63350734D01*
X82283774Y-63258924D01*
X82258266Y-63218102D01*
X82258264Y-63218100D01*
X82254534Y-63212130D01*
X82249572Y-63207133D01*
X82144333Y-63101157D01*
X82144329Y-63101154D01*
X82139370Y-63096160D01*
X82123536Y-63086111D01*
X82017131Y-63018585D01*
X82001374Y-63008585D01*
X81976835Y-62999847D01*
X81854041Y-62956122D01*
X81854036Y-62956121D01*
X81847406Y-62953760D01*
X81840418Y-62952927D01*
X81840415Y-62952926D01*
X81729476Y-62939697D01*
X81685118Y-62934408D01*
X81678115Y-62935144D01*
X81678114Y-62935144D01*
X81529575Y-62950756D01*
X81529573Y-62950757D01*
X81522575Y-62951492D01*
X81441273Y-62979169D01*
X81374527Y-63001891D01*
X81374524Y-63001892D01*
X81367857Y-63004162D01*
X81361858Y-63007852D01*
X81361857Y-63007853D01*
X81338270Y-63022364D01*
X81228652Y-63089801D01*
X81111880Y-63204153D01*
X81023345Y-63341534D01*
X81020936Y-63348154D01*
X81020935Y-63348155D01*
X81017295Y-63358155D01*
X80967446Y-63495115D01*
X80946961Y-63657264D01*
X80456773Y-63657264D01*
X80455675Y-63656045D01*
X80455674Y-63656044D01*
X80451253Y-63651134D01*
X80296752Y-63538882D01*
X80290724Y-63536198D01*
X80290722Y-63536197D01*
X80128319Y-63463891D01*
X80128318Y-63463891D01*
X80122288Y-63461206D01*
X80028887Y-63441353D01*
X79941944Y-63422872D01*
X79941939Y-63422872D01*
X79935487Y-63421500D01*
X79744513Y-63421500D01*
X79738061Y-63422872D01*
X79738056Y-63422872D01*
X79651113Y-63441353D01*
X79557712Y-63461206D01*
X79551682Y-63463891D01*
X79551681Y-63463891D01*
X79389278Y-63536197D01*
X79389276Y-63536198D01*
X79383248Y-63538882D01*
X79228747Y-63651134D01*
X79224326Y-63656044D01*
X79224325Y-63656045D01*
X79201440Y-63681462D01*
X79100960Y-63793056D01*
X79005473Y-63958444D01*
X78946458Y-64140072D01*
X78945768Y-64146633D01*
X78945768Y-64146635D01*
X78936239Y-64237303D01*
X78926496Y-64330000D01*
X23815853Y-64330000D01*
X23804432Y-64324318D01*
X23707106Y-64275899D01*
X23702772Y-64274478D01*
X23702769Y-64274477D01*
X23455147Y-64193302D01*
X23455141Y-64193301D01*
X23450814Y-64191882D01*
X23446322Y-64191102D01*
X23188860Y-64146399D01*
X23188852Y-64146398D01*
X23185079Y-64145743D01*
X23173817Y-64145182D01*
X23101422Y-64141578D01*
X23101414Y-64141578D01*
X23099851Y-64141500D01*
X22931488Y-64141500D01*
X22929220Y-64141665D01*
X22929208Y-64141665D01*
X22798116Y-64151177D01*
X22730996Y-64156047D01*
X22726541Y-64157031D01*
X22726538Y-64157031D01*
X22472088Y-64213209D01*
X22472084Y-64213210D01*
X22467628Y-64214194D01*
X22382131Y-64246586D01*
X22219682Y-64308132D01*
X22219679Y-64308133D01*
X22215412Y-64309750D01*
X21979632Y-64440714D01*
X21765227Y-64604343D01*
X21576688Y-64797208D01*
X21417966Y-65015270D01*
X21415844Y-65019304D01*
X21294510Y-65249921D01*
X21294507Y-65249927D01*
X21292385Y-65253961D01*
X21290865Y-65258266D01*
X21290863Y-65258270D01*
X21204098Y-65503967D01*
X21202575Y-65508280D01*
X21150419Y-65772900D01*
X21150192Y-65777453D01*
X21150192Y-65777456D01*
X21137878Y-66024823D01*
X21137009Y-66042277D01*
X20511454Y-66042277D01*
X20512520Y-66022216D01*
X20512334Y-66022199D01*
X20512769Y-66017350D01*
X20513576Y-66012552D01*
X20513729Y-66000000D01*
X20509773Y-65972376D01*
X20508500Y-65954514D01*
X20508500Y-60970000D01*
X84706496Y-60970000D01*
X84726458Y-61159928D01*
X84785473Y-61341556D01*
X84880960Y-61506944D01*
X85008747Y-61648866D01*
X85163248Y-61761118D01*
X85169276Y-61763802D01*
X85169278Y-61763803D01*
X85331681Y-61836109D01*
X85337712Y-61838794D01*
X85431112Y-61858647D01*
X85518056Y-61877128D01*
X85518061Y-61877128D01*
X85524513Y-61878500D01*
X85715487Y-61878500D01*
X85721939Y-61877128D01*
X85721944Y-61877128D01*
X85808888Y-61858647D01*
X85902288Y-61838794D01*
X85908319Y-61836109D01*
X86070722Y-61763803D01*
X86070724Y-61763802D01*
X86076752Y-61761118D01*
X86231253Y-61648866D01*
X86359040Y-61506944D01*
X86454527Y-61341556D01*
X86513542Y-61159928D01*
X86533504Y-60970000D01*
X86513542Y-60780072D01*
X86454527Y-60598444D01*
X86359040Y-60433056D01*
X86231253Y-60291134D01*
X86076752Y-60178882D01*
X86070724Y-60176198D01*
X86070722Y-60176197D01*
X85908319Y-60103891D01*
X85908318Y-60103891D01*
X85902288Y-60101206D01*
X85808887Y-60081353D01*
X85721944Y-60062872D01*
X85721939Y-60062872D01*
X85715487Y-60061500D01*
X85524513Y-60061500D01*
X85518061Y-60062872D01*
X85518056Y-60062872D01*
X85431113Y-60081353D01*
X85337712Y-60101206D01*
X85331682Y-60103891D01*
X85331681Y-60103891D01*
X85169278Y-60176197D01*
X85169276Y-60176198D01*
X85163248Y-60178882D01*
X85008747Y-60291134D01*
X84880960Y-60433056D01*
X84785473Y-60598444D01*
X84726458Y-60780072D01*
X84706496Y-60970000D01*
X20508500Y-60970000D01*
X20508500Y-58286695D01*
X53047251Y-58286695D01*
X53060110Y-58509715D01*
X53061247Y-58514761D01*
X53061248Y-58514767D01*
X53075606Y-58578475D01*
X53109222Y-58727639D01*
X53193266Y-58934616D01*
X53244942Y-59018944D01*
X53307291Y-59120688D01*
X53309987Y-59125088D01*
X53456250Y-59293938D01*
X53628126Y-59436632D01*
X53821000Y-59549338D01*
X54029692Y-59629030D01*
X54034760Y-59630061D01*
X54034763Y-59630062D01*
X54142017Y-59651883D01*
X54248597Y-59673567D01*
X54253772Y-59673757D01*
X54253774Y-59673757D01*
X54466673Y-59681564D01*
X54466677Y-59681564D01*
X54471837Y-59681753D01*
X54476957Y-59681097D01*
X54476959Y-59681097D01*
X54688288Y-59654025D01*
X54688289Y-59654025D01*
X54693416Y-59653368D01*
X54698366Y-59651883D01*
X54902429Y-59590661D01*
X54902434Y-59590659D01*
X54907384Y-59589174D01*
X55107994Y-59490896D01*
X55289860Y-59361173D01*
X55448096Y-59203489D01*
X55507594Y-59120689D01*
X55578453Y-59022077D01*
X55579776Y-59023028D01*
X55626645Y-58979857D01*
X55696580Y-58967625D01*
X55762026Y-58995144D01*
X55789875Y-59026994D01*
X55849987Y-59125088D01*
X55996250Y-59293938D01*
X56168126Y-59436632D01*
X56361000Y-59549338D01*
X56569692Y-59629030D01*
X56574760Y-59630061D01*
X56574763Y-59630062D01*
X56682017Y-59651883D01*
X56788597Y-59673567D01*
X56793772Y-59673757D01*
X56793774Y-59673757D01*
X57006673Y-59681564D01*
X57006677Y-59681564D01*
X57011837Y-59681753D01*
X57016957Y-59681097D01*
X57016959Y-59681097D01*
X57228288Y-59654025D01*
X57228289Y-59654025D01*
X57233416Y-59653368D01*
X57238366Y-59651883D01*
X57442429Y-59590661D01*
X57442434Y-59590659D01*
X57447384Y-59589174D01*
X57647994Y-59490896D01*
X57829860Y-59361173D01*
X57988096Y-59203489D01*
X58047594Y-59120689D01*
X58118453Y-59022077D01*
X58119776Y-59023028D01*
X58166645Y-58979857D01*
X58236580Y-58967625D01*
X58302026Y-58995144D01*
X58329875Y-59026994D01*
X58389987Y-59125088D01*
X58536250Y-59293938D01*
X58708126Y-59436632D01*
X58901000Y-59549338D01*
X59109692Y-59629030D01*
X59114760Y-59630061D01*
X59114763Y-59630062D01*
X59222017Y-59651883D01*
X59328597Y-59673567D01*
X59333772Y-59673757D01*
X59333774Y-59673757D01*
X59546673Y-59681564D01*
X59546677Y-59681564D01*
X59551837Y-59681753D01*
X59556957Y-59681097D01*
X59556959Y-59681097D01*
X59768288Y-59654025D01*
X59768289Y-59654025D01*
X59773416Y-59653368D01*
X59778366Y-59651883D01*
X59982429Y-59590661D01*
X59982434Y-59590659D01*
X59987384Y-59589174D01*
X60187994Y-59490896D01*
X60369860Y-59361173D01*
X60528096Y-59203489D01*
X60587594Y-59120689D01*
X60658453Y-59022077D01*
X60659776Y-59023028D01*
X60706645Y-58979857D01*
X60776580Y-58967625D01*
X60842026Y-58995144D01*
X60869875Y-59026994D01*
X60929987Y-59125088D01*
X61076250Y-59293938D01*
X61248126Y-59436632D01*
X61441000Y-59549338D01*
X61649692Y-59629030D01*
X61654760Y-59630061D01*
X61654763Y-59630062D01*
X61762017Y-59651883D01*
X61868597Y-59673567D01*
X61873772Y-59673757D01*
X61873774Y-59673757D01*
X62086673Y-59681564D01*
X62086677Y-59681564D01*
X62091837Y-59681753D01*
X62096957Y-59681097D01*
X62096959Y-59681097D01*
X62308288Y-59654025D01*
X62308289Y-59654025D01*
X62313416Y-59653368D01*
X62318366Y-59651883D01*
X62522429Y-59590661D01*
X62522434Y-59590659D01*
X62527384Y-59589174D01*
X62727994Y-59490896D01*
X62909860Y-59361173D01*
X62977331Y-59293938D01*
X63018479Y-59252933D01*
X63080851Y-59219017D01*
X63151658Y-59224205D01*
X63208419Y-59266851D01*
X63225401Y-59297954D01*
X63266676Y-59408054D01*
X63275214Y-59423649D01*
X63351715Y-59525724D01*
X63364276Y-59538285D01*
X63466351Y-59614786D01*
X63481946Y-59623324D01*
X63602394Y-59668478D01*
X63617649Y-59672105D01*
X63668514Y-59677631D01*
X63675328Y-59678000D01*
X64297885Y-59678000D01*
X64313124Y-59673525D01*
X64314329Y-59672135D01*
X64316000Y-59664452D01*
X64316000Y-59659884D01*
X64824000Y-59659884D01*
X64828475Y-59675123D01*
X64829865Y-59676328D01*
X64837548Y-59677999D01*
X65464669Y-59677999D01*
X65471490Y-59677629D01*
X65522352Y-59672105D01*
X65537604Y-59668479D01*
X65658054Y-59623324D01*
X65673649Y-59614786D01*
X65775724Y-59538285D01*
X65788285Y-59525724D01*
X65864786Y-59423649D01*
X65873324Y-59408054D01*
X65918478Y-59287606D01*
X65922105Y-59272351D01*
X65927631Y-59221486D01*
X65928000Y-59214672D01*
X65928000Y-58592115D01*
X65923525Y-58576876D01*
X65922135Y-58575671D01*
X65914452Y-58574000D01*
X64842115Y-58574000D01*
X64826876Y-58578475D01*
X64825671Y-58579865D01*
X64824000Y-58587548D01*
X64824000Y-59659884D01*
X64316000Y-59659884D01*
X64316000Y-58047885D01*
X64824000Y-58047885D01*
X64828475Y-58063124D01*
X64829865Y-58064329D01*
X64837548Y-58066000D01*
X65909884Y-58066000D01*
X65925123Y-58061525D01*
X65926328Y-58060135D01*
X65927999Y-58052452D01*
X65927999Y-57425331D01*
X65927629Y-57418510D01*
X65922105Y-57367648D01*
X65918479Y-57352396D01*
X65873324Y-57231946D01*
X65864786Y-57216351D01*
X65788285Y-57114276D01*
X65775724Y-57101715D01*
X65673649Y-57025214D01*
X65658054Y-57016676D01*
X65537606Y-56971522D01*
X65522351Y-56967895D01*
X65471486Y-56962369D01*
X65464672Y-56962000D01*
X64842115Y-56962000D01*
X64826876Y-56966475D01*
X64825671Y-56967865D01*
X64824000Y-56975548D01*
X64824000Y-58047885D01*
X64316000Y-58047885D01*
X64316000Y-56980116D01*
X64311525Y-56964877D01*
X64310135Y-56963672D01*
X64302452Y-56962001D01*
X63675331Y-56962001D01*
X63668510Y-56962371D01*
X63617648Y-56967895D01*
X63602396Y-56971521D01*
X63481946Y-57016676D01*
X63466351Y-57025214D01*
X63364276Y-57101715D01*
X63351715Y-57114276D01*
X63275214Y-57216351D01*
X63266676Y-57231946D01*
X63225297Y-57342322D01*
X63182655Y-57399087D01*
X63116093Y-57423786D01*
X63046744Y-57408578D01*
X63014121Y-57382891D01*
X62963151Y-57326876D01*
X62963145Y-57326870D01*
X62959670Y-57323051D01*
X62955619Y-57319852D01*
X62955615Y-57319848D01*
X62788414Y-57187800D01*
X62788410Y-57187798D01*
X62784359Y-57184598D01*
X62588789Y-57076638D01*
X62583920Y-57074914D01*
X62583916Y-57074912D01*
X62383087Y-57003795D01*
X62383083Y-57003794D01*
X62378212Y-57002069D01*
X62373119Y-57001162D01*
X62373116Y-57001161D01*
X62163373Y-56963800D01*
X62163367Y-56963799D01*
X62158284Y-56962894D01*
X62084452Y-56961992D01*
X61940081Y-56960228D01*
X61940079Y-56960228D01*
X61934911Y-56960165D01*
X61714091Y-56993955D01*
X61501756Y-57063357D01*
X61471443Y-57079137D01*
X61335317Y-57150000D01*
X61303607Y-57166507D01*
X61299474Y-57169610D01*
X61299471Y-57169612D01*
X61216450Y-57231946D01*
X61124965Y-57300635D01*
X60970629Y-57462138D01*
X60863201Y-57619621D01*
X60808293Y-57664621D01*
X60737768Y-57672792D01*
X60674021Y-57641538D01*
X60653324Y-57617054D01*
X60572822Y-57492617D01*
X60572820Y-57492614D01*
X60570014Y-57488277D01*
X60419670Y-57323051D01*
X60415619Y-57319852D01*
X60415615Y-57319848D01*
X60248414Y-57187800D01*
X60248410Y-57187798D01*
X60244359Y-57184598D01*
X60048789Y-57076638D01*
X60043920Y-57074914D01*
X60043916Y-57074912D01*
X59843087Y-57003795D01*
X59843083Y-57003794D01*
X59838212Y-57002069D01*
X59833119Y-57001162D01*
X59833116Y-57001161D01*
X59623373Y-56963800D01*
X59623367Y-56963799D01*
X59618284Y-56962894D01*
X59544452Y-56961992D01*
X59400081Y-56960228D01*
X59400079Y-56960228D01*
X59394911Y-56960165D01*
X59174091Y-56993955D01*
X58961756Y-57063357D01*
X58931443Y-57079137D01*
X58795317Y-57150000D01*
X58763607Y-57166507D01*
X58759474Y-57169610D01*
X58759471Y-57169612D01*
X58676450Y-57231946D01*
X58584965Y-57300635D01*
X58430629Y-57462138D01*
X58323201Y-57619621D01*
X58268293Y-57664621D01*
X58197768Y-57672792D01*
X58134021Y-57641538D01*
X58113324Y-57617054D01*
X58032822Y-57492617D01*
X58032820Y-57492614D01*
X58030014Y-57488277D01*
X57879670Y-57323051D01*
X57875619Y-57319852D01*
X57875615Y-57319848D01*
X57708414Y-57187800D01*
X57708410Y-57187798D01*
X57704359Y-57184598D01*
X57508789Y-57076638D01*
X57478034Y-57065747D01*
X57417272Y-57044230D01*
X57359735Y-57002636D01*
X57333819Y-56936538D01*
X57347753Y-56866923D01*
X57396330Y-56816339D01*
X57400726Y-56813801D01*
X57406752Y-56811118D01*
X57561253Y-56698866D01*
X57667876Y-56580449D01*
X57684621Y-56561852D01*
X57684622Y-56561851D01*
X57689040Y-56556944D01*
X57770076Y-56416586D01*
X57781223Y-56397279D01*
X57781224Y-56397278D01*
X57784527Y-56391556D01*
X57843542Y-56209928D01*
X57847047Y-56176586D01*
X57862814Y-56026565D01*
X57863504Y-56020000D01*
X57847109Y-55864009D01*
X57844298Y-55837264D01*
X75836961Y-55837264D01*
X75852910Y-55999922D01*
X75855134Y-56006607D01*
X75855134Y-56006608D01*
X75865837Y-56038781D01*
X75904499Y-56155005D01*
X75908148Y-56161030D01*
X75983109Y-56284804D01*
X75989165Y-56294804D01*
X75994056Y-56299869D01*
X75994057Y-56299870D01*
X76003612Y-56309764D01*
X76102698Y-56412371D01*
X76108590Y-56416226D01*
X76108594Y-56416230D01*
X76186563Y-56467251D01*
X76239457Y-56501864D01*
X76275132Y-56515131D01*
X76386048Y-56556380D01*
X76386051Y-56556381D01*
X76392645Y-56558833D01*
X76399622Y-56559764D01*
X76547666Y-56579518D01*
X76547670Y-56579518D01*
X76554647Y-56580449D01*
X76561658Y-56579811D01*
X76561662Y-56579811D01*
X76710391Y-56566275D01*
X76717412Y-56565636D01*
X76724114Y-56563458D01*
X76724116Y-56563458D01*
X76866152Y-56517308D01*
X76866155Y-56517307D01*
X76872851Y-56515131D01*
X76901575Y-56498008D01*
X77007186Y-56435052D01*
X77007188Y-56435051D01*
X77013238Y-56431444D01*
X77131595Y-56318734D01*
X77222040Y-56182603D01*
X77272461Y-56049870D01*
X77277578Y-56036400D01*
X77277579Y-56036395D01*
X77280078Y-56029817D01*
X77281458Y-56020000D01*
X77302273Y-55871893D01*
X77302273Y-55871888D01*
X77302824Y-55867970D01*
X77303110Y-55847500D01*
X77300840Y-55827264D01*
X78376961Y-55827264D01*
X78392910Y-55989922D01*
X78395134Y-55996607D01*
X78395134Y-55996608D01*
X78405099Y-56026565D01*
X78444499Y-56145005D01*
X78448148Y-56151030D01*
X78517251Y-56265131D01*
X78529165Y-56284804D01*
X78534056Y-56289869D01*
X78534057Y-56289870D01*
X78556261Y-56312863D01*
X78642698Y-56402371D01*
X78648590Y-56406226D01*
X78648594Y-56406230D01*
X78732553Y-56461171D01*
X78779457Y-56491864D01*
X78806347Y-56501864D01*
X78926048Y-56546380D01*
X78926051Y-56546381D01*
X78932645Y-56548833D01*
X78939622Y-56549764D01*
X79087666Y-56569518D01*
X79087670Y-56569518D01*
X79094647Y-56570449D01*
X79101658Y-56569811D01*
X79101662Y-56569811D01*
X79250391Y-56556275D01*
X79257412Y-56555636D01*
X79264114Y-56553458D01*
X79264116Y-56553458D01*
X79406152Y-56507308D01*
X79406155Y-56507307D01*
X79412851Y-56505131D01*
X79441575Y-56488008D01*
X79547186Y-56425052D01*
X79547188Y-56425051D01*
X79553238Y-56421444D01*
X79671595Y-56308734D01*
X79762040Y-56172603D01*
X79775470Y-56137247D01*
X79817578Y-56026400D01*
X79817579Y-56026395D01*
X79820078Y-56019817D01*
X79821058Y-56012845D01*
X79842273Y-55861893D01*
X79842273Y-55861888D01*
X79842824Y-55857970D01*
X79842970Y-55847500D01*
X79843055Y-55841462D01*
X79843055Y-55841456D01*
X79843110Y-55837500D01*
X79833287Y-55749922D01*
X79825677Y-55682077D01*
X79825676Y-55682075D01*
X79824892Y-55675081D01*
X79771142Y-55520734D01*
X79767408Y-55514759D01*
X79767406Y-55514754D01*
X79702502Y-55410884D01*
X79683366Y-55342515D01*
X79704232Y-55274654D01*
X79758473Y-55228846D01*
X79828870Y-55219635D01*
X79883417Y-55242179D01*
X79914456Y-55264730D01*
X79923248Y-55271118D01*
X79929276Y-55273802D01*
X79929278Y-55273803D01*
X80091681Y-55346109D01*
X80097712Y-55348794D01*
X80191113Y-55368647D01*
X80278056Y-55387128D01*
X80278061Y-55387128D01*
X80284513Y-55388500D01*
X80475487Y-55388500D01*
X80481939Y-55387128D01*
X80481944Y-55387128D01*
X80568888Y-55368647D01*
X80662288Y-55348794D01*
X80668463Y-55346045D01*
X80693633Y-55334838D01*
X80759780Y-55305388D01*
X80830146Y-55295954D01*
X80894443Y-55326060D01*
X80932257Y-55386149D01*
X80936034Y-55436287D01*
X80924103Y-55530734D01*
X80916961Y-55587264D01*
X80932910Y-55749922D01*
X80935134Y-55756607D01*
X80935134Y-55756608D01*
X80956312Y-55820270D01*
X80984499Y-55905005D01*
X81069165Y-56044804D01*
X81182698Y-56162371D01*
X81188590Y-56166226D01*
X81188594Y-56166230D01*
X81222587Y-56188474D01*
X81319457Y-56251864D01*
X81355132Y-56265131D01*
X81466048Y-56306380D01*
X81466051Y-56306381D01*
X81472645Y-56308833D01*
X81479622Y-56309764D01*
X81627666Y-56329518D01*
X81627670Y-56329518D01*
X81634647Y-56330449D01*
X81641658Y-56329811D01*
X81641662Y-56329811D01*
X81790391Y-56316275D01*
X81797412Y-56315636D01*
X81804114Y-56313458D01*
X81804116Y-56313458D01*
X81946152Y-56267308D01*
X81946155Y-56267307D01*
X81952851Y-56265131D01*
X82034924Y-56216206D01*
X82087186Y-56185052D01*
X82087188Y-56185051D01*
X82093238Y-56181444D01*
X82211595Y-56068734D01*
X82302040Y-55932603D01*
X82326592Y-55867970D01*
X82357578Y-55786400D01*
X82357579Y-55786395D01*
X82360078Y-55779817D01*
X82363340Y-55756608D01*
X82382273Y-55621893D01*
X82382273Y-55621888D01*
X82382824Y-55617970D01*
X82383110Y-55597500D01*
X82364892Y-55435081D01*
X82311142Y-55280734D01*
X82246856Y-55177853D01*
X82228266Y-55148102D01*
X82228264Y-55148100D01*
X82224534Y-55142130D01*
X82218568Y-55136122D01*
X82114333Y-55031157D01*
X82114329Y-55031154D01*
X82109370Y-55026160D01*
X81971374Y-54938585D01*
X81946835Y-54929847D01*
X81824041Y-54886122D01*
X81824036Y-54886121D01*
X81817406Y-54883760D01*
X81810418Y-54882927D01*
X81810415Y-54882926D01*
X81699476Y-54869697D01*
X81655118Y-54864408D01*
X81648115Y-54865144D01*
X81648114Y-54865144D01*
X81499575Y-54880756D01*
X81499573Y-54880757D01*
X81492575Y-54881492D01*
X81430810Y-54902518D01*
X81407202Y-54910555D01*
X81336270Y-54913573D01*
X81274966Y-54877763D01*
X81242754Y-54814494D01*
X81246764Y-54752340D01*
X81271503Y-54676203D01*
X81273542Y-54669928D01*
X81286161Y-54549870D01*
X81292814Y-54486565D01*
X81293504Y-54480000D01*
X81292814Y-54473435D01*
X81274232Y-54296635D01*
X81274232Y-54296633D01*
X81273542Y-54290072D01*
X81214527Y-54108444D01*
X81208209Y-54097500D01*
X81202299Y-54087264D01*
X82976961Y-54087264D01*
X82992910Y-54249922D01*
X82995134Y-54256607D01*
X82995134Y-54256608D01*
X83006266Y-54290072D01*
X83044499Y-54405005D01*
X83129165Y-54544804D01*
X83242698Y-54662371D01*
X83248590Y-54666226D01*
X83248594Y-54666230D01*
X83332553Y-54721171D01*
X83379457Y-54751864D01*
X83415132Y-54765131D01*
X83526048Y-54806380D01*
X83526051Y-54806381D01*
X83532645Y-54808833D01*
X83539622Y-54809764D01*
X83687666Y-54829518D01*
X83687670Y-54829518D01*
X83694647Y-54830449D01*
X83701658Y-54829811D01*
X83701662Y-54829811D01*
X83850391Y-54816275D01*
X83857412Y-54815636D01*
X83864114Y-54813458D01*
X83864116Y-54813458D01*
X84006152Y-54767308D01*
X84006155Y-54767307D01*
X84012851Y-54765131D01*
X84041575Y-54748008D01*
X84147186Y-54685052D01*
X84147188Y-54685051D01*
X84153238Y-54681444D01*
X84271595Y-54568734D01*
X84362040Y-54432603D01*
X84375470Y-54397247D01*
X84417578Y-54286400D01*
X84417579Y-54286395D01*
X84420078Y-54279817D01*
X84423340Y-54256608D01*
X84442273Y-54121893D01*
X84442273Y-54121888D01*
X84442824Y-54117970D01*
X84443110Y-54097500D01*
X84424892Y-53935081D01*
X84371142Y-53780734D01*
X84284534Y-53642130D01*
X84279572Y-53637133D01*
X84174333Y-53531157D01*
X84174329Y-53531154D01*
X84169370Y-53526160D01*
X84153536Y-53516111D01*
X84116440Y-53492569D01*
X84031374Y-53438585D01*
X83978650Y-53419811D01*
X83884041Y-53386122D01*
X83884036Y-53386121D01*
X83877406Y-53383760D01*
X83870418Y-53382927D01*
X83870415Y-53382926D01*
X83759476Y-53369697D01*
X83715118Y-53364408D01*
X83708115Y-53365144D01*
X83708114Y-53365144D01*
X83559575Y-53380756D01*
X83559573Y-53380757D01*
X83552575Y-53381492D01*
X83508842Y-53396380D01*
X83404527Y-53431891D01*
X83404524Y-53431892D01*
X83397857Y-53434162D01*
X83258652Y-53519801D01*
X83247056Y-53531157D01*
X83165313Y-53611206D01*
X83141880Y-53634153D01*
X83053345Y-53771534D01*
X83050936Y-53778154D01*
X83050935Y-53778155D01*
X83043985Y-53797251D01*
X82997446Y-53925115D01*
X82976961Y-54087264D01*
X81202299Y-54087264D01*
X81122341Y-53948774D01*
X81119040Y-53943056D01*
X80991253Y-53801134D01*
X80836752Y-53688882D01*
X80830724Y-53686198D01*
X80830722Y-53686197D01*
X80668319Y-53613891D01*
X80668318Y-53613891D01*
X80662288Y-53611206D01*
X80568887Y-53591353D01*
X80481944Y-53572872D01*
X80481939Y-53572872D01*
X80475487Y-53571500D01*
X80284513Y-53571500D01*
X80278061Y-53572872D01*
X80278056Y-53572872D01*
X80191113Y-53591353D01*
X80097712Y-53611206D01*
X80091682Y-53613891D01*
X80091681Y-53613891D01*
X79929278Y-53686197D01*
X79929276Y-53686198D01*
X79923248Y-53688882D01*
X79768747Y-53801134D01*
X79640960Y-53943056D01*
X79637659Y-53948774D01*
X79551792Y-54097500D01*
X79545473Y-54108444D01*
X79486458Y-54290072D01*
X79485768Y-54296633D01*
X79485768Y-54296635D01*
X79467186Y-54473435D01*
X79466496Y-54480000D01*
X79467186Y-54486565D01*
X79473840Y-54549870D01*
X79486458Y-54669928D01*
X79545473Y-54851556D01*
X79548776Y-54857278D01*
X79548777Y-54857279D01*
X79564066Y-54883760D01*
X79640960Y-55016944D01*
X79645380Y-55021852D01*
X79649259Y-55027192D01*
X79647977Y-55028124D01*
X79675215Y-55084874D01*
X79666455Y-55155328D01*
X79620996Y-55209862D01*
X79553269Y-55231161D01*
X79483351Y-55211571D01*
X79431374Y-55178585D01*
X79375996Y-55158866D01*
X79284041Y-55126122D01*
X79284036Y-55126121D01*
X79277406Y-55123760D01*
X79270418Y-55122927D01*
X79270415Y-55122926D01*
X79159476Y-55109697D01*
X79115118Y-55104408D01*
X79108115Y-55105144D01*
X79108114Y-55105144D01*
X78959575Y-55120756D01*
X78959573Y-55120757D01*
X78952575Y-55121492D01*
X78906630Y-55137133D01*
X78804527Y-55171891D01*
X78804524Y-55171892D01*
X78797857Y-55174162D01*
X78791858Y-55177852D01*
X78791857Y-55177853D01*
X78768270Y-55192364D01*
X78658652Y-55259801D01*
X78641947Y-55276160D01*
X78566375Y-55350166D01*
X78541880Y-55374153D01*
X78453345Y-55511534D01*
X78450936Y-55518154D01*
X78450935Y-55518155D01*
X78447295Y-55528155D01*
X78397446Y-55665115D01*
X78376961Y-55827264D01*
X77300840Y-55827264D01*
X77284892Y-55685081D01*
X77231142Y-55530734D01*
X77144534Y-55392130D01*
X77138595Y-55386149D01*
X77034333Y-55281157D01*
X77034329Y-55281154D01*
X77029370Y-55276160D01*
X77021426Y-55271118D01*
X76940301Y-55219635D01*
X76891374Y-55188585D01*
X76866835Y-55179847D01*
X76744041Y-55136122D01*
X76744036Y-55136121D01*
X76737406Y-55133760D01*
X76730418Y-55132927D01*
X76730415Y-55132926D01*
X76619476Y-55119697D01*
X76575118Y-55114408D01*
X76568115Y-55115144D01*
X76568114Y-55115144D01*
X76419575Y-55130756D01*
X76419573Y-55130757D01*
X76412575Y-55131492D01*
X76346778Y-55153891D01*
X76264527Y-55181891D01*
X76264524Y-55181892D01*
X76257857Y-55184162D01*
X76118652Y-55269801D01*
X76107488Y-55280734D01*
X76012092Y-55374153D01*
X76001880Y-55384153D01*
X75913345Y-55521534D01*
X75910936Y-55528154D01*
X75910935Y-55528155D01*
X75891967Y-55580269D01*
X75857446Y-55675115D01*
X75836961Y-55837264D01*
X57844298Y-55837264D01*
X57844232Y-55836635D01*
X57844232Y-55836633D01*
X57843542Y-55830072D01*
X57784527Y-55648444D01*
X57689040Y-55483056D01*
X57652143Y-55442077D01*
X57565675Y-55346045D01*
X57565674Y-55346044D01*
X57561253Y-55341134D01*
X57406752Y-55228882D01*
X57400724Y-55226198D01*
X57400722Y-55226197D01*
X57238319Y-55153891D01*
X57238318Y-55153891D01*
X57232288Y-55151206D01*
X57114278Y-55126122D01*
X57051944Y-55112872D01*
X57051939Y-55112872D01*
X57045487Y-55111500D01*
X56854513Y-55111500D01*
X56848061Y-55112872D01*
X56848056Y-55112872D01*
X56785722Y-55126122D01*
X56667712Y-55151206D01*
X56661682Y-55153891D01*
X56661681Y-55153891D01*
X56499278Y-55226197D01*
X56499276Y-55226198D01*
X56493248Y-55228882D01*
X56338747Y-55341134D01*
X56334326Y-55346044D01*
X56334325Y-55346045D01*
X56247858Y-55442077D01*
X56210960Y-55483056D01*
X56115473Y-55648444D01*
X56056458Y-55830072D01*
X56055768Y-55836633D01*
X56055768Y-55836635D01*
X56052891Y-55864009D01*
X56036496Y-56020000D01*
X56037186Y-56026565D01*
X56052954Y-56176586D01*
X56056458Y-56209928D01*
X56115473Y-56391556D01*
X56118776Y-56397278D01*
X56118777Y-56397279D01*
X56129924Y-56416586D01*
X56210960Y-56556944D01*
X56215378Y-56561851D01*
X56215379Y-56561852D01*
X56232124Y-56580449D01*
X56338747Y-56698866D01*
X56493248Y-56811118D01*
X56499272Y-56813800D01*
X56502741Y-56815803D01*
X56551733Y-56867187D01*
X56565167Y-56936901D01*
X56538778Y-57002811D01*
X56478883Y-57044685D01*
X56421756Y-57063357D01*
X56391443Y-57079137D01*
X56255317Y-57150000D01*
X56223607Y-57166507D01*
X56219474Y-57169610D01*
X56219471Y-57169612D01*
X56136450Y-57231946D01*
X56044965Y-57300635D01*
X55890629Y-57462138D01*
X55783201Y-57619621D01*
X55728293Y-57664621D01*
X55657768Y-57672792D01*
X55594021Y-57641538D01*
X55573324Y-57617054D01*
X55492822Y-57492617D01*
X55492820Y-57492614D01*
X55490014Y-57488277D01*
X55339670Y-57323051D01*
X55335619Y-57319852D01*
X55335615Y-57319848D01*
X55168414Y-57187800D01*
X55168410Y-57187798D01*
X55164359Y-57184598D01*
X54968789Y-57076638D01*
X54963920Y-57074914D01*
X54963916Y-57074912D01*
X54763087Y-57003795D01*
X54763083Y-57003794D01*
X54758212Y-57002069D01*
X54753119Y-57001162D01*
X54753116Y-57001161D01*
X54543373Y-56963800D01*
X54543367Y-56963799D01*
X54538284Y-56962894D01*
X54464452Y-56961992D01*
X54320081Y-56960228D01*
X54320079Y-56960228D01*
X54314911Y-56960165D01*
X54094091Y-56993955D01*
X53881756Y-57063357D01*
X53851443Y-57079137D01*
X53715317Y-57150000D01*
X53683607Y-57166507D01*
X53679474Y-57169610D01*
X53679471Y-57169612D01*
X53596450Y-57231946D01*
X53504965Y-57300635D01*
X53350629Y-57462138D01*
X53224743Y-57646680D01*
X53130688Y-57849305D01*
X53070989Y-58064570D01*
X53047251Y-58286695D01*
X20508500Y-58286695D01*
X20508500Y-57150000D01*
X24676496Y-57150000D01*
X24677186Y-57156565D01*
X24695086Y-57326870D01*
X24696458Y-57339928D01*
X24755473Y-57521556D01*
X24850960Y-57686944D01*
X24978747Y-57828866D01*
X25133248Y-57941118D01*
X25139276Y-57943802D01*
X25139278Y-57943803D01*
X25301681Y-58016109D01*
X25307712Y-58018794D01*
X25401112Y-58038647D01*
X25488056Y-58057128D01*
X25488061Y-58057128D01*
X25494513Y-58058500D01*
X25685487Y-58058500D01*
X25691939Y-58057128D01*
X25691944Y-58057128D01*
X25778888Y-58038647D01*
X25872288Y-58018794D01*
X25878319Y-58016109D01*
X26040722Y-57943803D01*
X26040724Y-57943802D01*
X26046752Y-57941118D01*
X26201253Y-57828866D01*
X26329040Y-57686944D01*
X26424527Y-57521556D01*
X26483542Y-57339928D01*
X26484915Y-57326870D01*
X26502814Y-57156565D01*
X26503504Y-57150000D01*
X26496056Y-57079137D01*
X26484232Y-56966635D01*
X26484232Y-56966633D01*
X26483542Y-56960072D01*
X26424527Y-56778444D01*
X26329040Y-56613056D01*
X26280218Y-56558833D01*
X26205675Y-56476045D01*
X26205674Y-56476044D01*
X26201253Y-56471134D01*
X26046752Y-56358882D01*
X26040724Y-56356198D01*
X26040722Y-56356197D01*
X25878319Y-56283891D01*
X25878318Y-56283891D01*
X25872288Y-56281206D01*
X25745791Y-56254318D01*
X25691944Y-56242872D01*
X25691939Y-56242872D01*
X25685487Y-56241500D01*
X25494513Y-56241500D01*
X25488061Y-56242872D01*
X25488056Y-56242872D01*
X25434209Y-56254318D01*
X25307712Y-56281206D01*
X25301682Y-56283891D01*
X25301681Y-56283891D01*
X25139278Y-56356197D01*
X25139276Y-56356198D01*
X25133248Y-56358882D01*
X24978747Y-56471134D01*
X24974326Y-56476044D01*
X24974325Y-56476045D01*
X24899783Y-56558833D01*
X24850960Y-56613056D01*
X24755473Y-56778444D01*
X24696458Y-56960072D01*
X24695768Y-56966633D01*
X24695768Y-56966635D01*
X24683944Y-57079137D01*
X24676496Y-57150000D01*
X20508500Y-57150000D01*
X20508500Y-52677264D01*
X84796961Y-52677264D01*
X84812910Y-52839922D01*
X84815134Y-52846607D01*
X84815134Y-52846608D01*
X84838704Y-52917463D01*
X84864499Y-52995005D01*
X84949165Y-53134804D01*
X85062698Y-53252371D01*
X85068590Y-53256226D01*
X85068594Y-53256230D01*
X85152553Y-53311171D01*
X85199457Y-53341864D01*
X85235132Y-53355131D01*
X85346048Y-53396380D01*
X85346051Y-53396381D01*
X85352645Y-53398833D01*
X85359622Y-53399764D01*
X85507666Y-53419518D01*
X85507670Y-53419518D01*
X85514647Y-53420449D01*
X85521658Y-53419811D01*
X85521662Y-53419811D01*
X85670391Y-53406275D01*
X85677412Y-53405636D01*
X85684114Y-53403458D01*
X85684116Y-53403458D01*
X85826152Y-53357308D01*
X85826155Y-53357307D01*
X85832851Y-53355131D01*
X85861575Y-53338008D01*
X85967186Y-53275052D01*
X85967188Y-53275051D01*
X85973238Y-53271444D01*
X86091595Y-53158734D01*
X86182040Y-53022603D01*
X86195470Y-52987247D01*
X86237578Y-52876400D01*
X86237579Y-52876395D01*
X86240078Y-52869817D01*
X86243340Y-52846608D01*
X86262273Y-52711893D01*
X86262273Y-52711888D01*
X86262824Y-52707970D01*
X86263110Y-52687500D01*
X86244892Y-52525081D01*
X86191142Y-52370734D01*
X86104534Y-52232130D01*
X86099572Y-52227133D01*
X85994333Y-52121157D01*
X85994329Y-52121154D01*
X85989370Y-52116160D01*
X85973960Y-52106380D01*
X85936440Y-52082569D01*
X85851374Y-52028585D01*
X85826835Y-52019847D01*
X85704041Y-51976122D01*
X85704036Y-51976121D01*
X85697406Y-51973760D01*
X85690418Y-51972927D01*
X85690415Y-51972926D01*
X85579476Y-51959697D01*
X85535118Y-51954408D01*
X85528115Y-51955144D01*
X85528114Y-51955144D01*
X85379575Y-51970756D01*
X85379573Y-51970757D01*
X85372575Y-51971492D01*
X85332743Y-51985052D01*
X85224527Y-52021891D01*
X85224524Y-52021892D01*
X85217857Y-52024162D01*
X85078652Y-52109801D01*
X84961880Y-52224153D01*
X84873345Y-52361534D01*
X84870936Y-52368154D01*
X84870935Y-52368155D01*
X84845395Y-52438325D01*
X84817446Y-52515115D01*
X84796961Y-52677264D01*
X20508500Y-52677264D01*
X20508500Y-51387264D01*
X74446961Y-51387264D01*
X74462910Y-51549922D01*
X74465134Y-51556607D01*
X74465134Y-51556608D01*
X74488705Y-51627464D01*
X74514499Y-51705005D01*
X74599165Y-51844804D01*
X74712698Y-51962371D01*
X74718590Y-51966226D01*
X74718594Y-51966230D01*
X74802553Y-52021171D01*
X74849457Y-52051864D01*
X74885132Y-52065131D01*
X74996048Y-52106380D01*
X74996051Y-52106381D01*
X75002645Y-52108833D01*
X75009622Y-52109764D01*
X75157666Y-52129518D01*
X75157670Y-52129518D01*
X75164647Y-52130449D01*
X75171658Y-52129811D01*
X75171662Y-52129811D01*
X75320391Y-52116275D01*
X75327412Y-52115636D01*
X75334114Y-52113458D01*
X75334116Y-52113458D01*
X75476152Y-52067308D01*
X75476155Y-52067307D01*
X75482851Y-52065131D01*
X75511575Y-52048008D01*
X75617186Y-51985052D01*
X75617188Y-51985051D01*
X75623238Y-51981444D01*
X75741595Y-51868734D01*
X75832040Y-51732603D01*
X75845470Y-51697247D01*
X75887578Y-51586400D01*
X75887579Y-51586395D01*
X75890078Y-51579817D01*
X75893340Y-51556608D01*
X75912273Y-51421893D01*
X75912273Y-51421888D01*
X75912824Y-51417970D01*
X75913110Y-51397500D01*
X75894892Y-51235081D01*
X75841142Y-51080734D01*
X75754534Y-50942130D01*
X75749572Y-50937133D01*
X75644333Y-50831157D01*
X75644329Y-50831154D01*
X75639370Y-50826160D01*
X75623536Y-50816111D01*
X75586440Y-50792569D01*
X75501374Y-50738585D01*
X75476835Y-50729847D01*
X75354041Y-50686122D01*
X75354036Y-50686121D01*
X75347406Y-50683760D01*
X75340418Y-50682927D01*
X75340415Y-50682926D01*
X75229476Y-50669697D01*
X75185118Y-50664408D01*
X75178115Y-50665144D01*
X75178114Y-50665144D01*
X75029575Y-50680756D01*
X75029573Y-50680757D01*
X75022575Y-50681492D01*
X74941273Y-50709169D01*
X74874527Y-50731891D01*
X74874524Y-50731892D01*
X74867857Y-50734162D01*
X74728652Y-50819801D01*
X74611880Y-50934153D01*
X74523345Y-51071534D01*
X74520936Y-51078154D01*
X74520935Y-51078155D01*
X74495395Y-51148325D01*
X74467446Y-51225115D01*
X74446961Y-51387264D01*
X20508500Y-51387264D01*
X20508500Y-49500000D01*
X94276496Y-49500000D01*
X94296458Y-49689928D01*
X94355473Y-49871556D01*
X94450960Y-50036944D01*
X94578747Y-50178866D01*
X94733248Y-50291118D01*
X94739276Y-50293802D01*
X94739278Y-50293803D01*
X94901681Y-50366109D01*
X94907712Y-50368794D01*
X95001112Y-50388647D01*
X95088056Y-50407128D01*
X95088061Y-50407128D01*
X95094513Y-50408500D01*
X95285487Y-50408500D01*
X95291939Y-50407128D01*
X95291944Y-50407128D01*
X95378888Y-50388647D01*
X95472288Y-50368794D01*
X95478319Y-50366109D01*
X95640722Y-50293803D01*
X95640724Y-50293802D01*
X95646752Y-50291118D01*
X95801253Y-50178866D01*
X95929040Y-50036944D01*
X96024527Y-49871556D01*
X96083542Y-49689928D01*
X96103504Y-49500000D01*
X96083542Y-49310072D01*
X96024527Y-49128444D01*
X95929040Y-48963056D01*
X95801253Y-48821134D01*
X95646752Y-48708882D01*
X95640724Y-48706198D01*
X95640722Y-48706197D01*
X95478319Y-48633891D01*
X95478318Y-48633891D01*
X95472288Y-48631206D01*
X95378887Y-48611353D01*
X95291944Y-48592872D01*
X95291939Y-48592872D01*
X95285487Y-48591500D01*
X95094513Y-48591500D01*
X95088061Y-48592872D01*
X95088056Y-48592872D01*
X95001112Y-48611353D01*
X94907712Y-48631206D01*
X94901682Y-48633891D01*
X94901681Y-48633891D01*
X94739278Y-48706197D01*
X94739276Y-48706198D01*
X94733248Y-48708882D01*
X94578747Y-48821134D01*
X94450960Y-48963056D01*
X94355473Y-49128444D01*
X94296458Y-49310072D01*
X94276496Y-49500000D01*
X20508500Y-49500000D01*
X20508500Y-44710000D01*
X76506496Y-44710000D01*
X76526458Y-44899928D01*
X76585473Y-45081556D01*
X76680960Y-45246944D01*
X76808747Y-45388866D01*
X76963248Y-45501118D01*
X76969276Y-45503802D01*
X76969278Y-45503803D01*
X77131681Y-45576109D01*
X77137712Y-45578794D01*
X77231113Y-45598647D01*
X77318056Y-45617128D01*
X77318061Y-45617128D01*
X77324513Y-45618500D01*
X77515487Y-45618500D01*
X77521939Y-45617128D01*
X77521944Y-45617128D01*
X77608887Y-45598647D01*
X77702288Y-45578794D01*
X77708319Y-45576109D01*
X77870722Y-45503803D01*
X77870724Y-45503802D01*
X77876752Y-45501118D01*
X78031253Y-45388866D01*
X78159040Y-45246944D01*
X78254527Y-45081556D01*
X78313542Y-44899928D01*
X78333504Y-44710000D01*
X78313542Y-44520072D01*
X78254527Y-44338444D01*
X78159040Y-44173056D01*
X78031253Y-44031134D01*
X77876752Y-43918882D01*
X77870724Y-43916198D01*
X77870722Y-43916197D01*
X77708319Y-43843891D01*
X77708318Y-43843891D01*
X77702288Y-43841206D01*
X77608887Y-43821353D01*
X77521944Y-43802872D01*
X77521939Y-43802872D01*
X77515487Y-43801500D01*
X77324513Y-43801500D01*
X77318061Y-43802872D01*
X77318056Y-43802872D01*
X77231113Y-43821353D01*
X77137712Y-43841206D01*
X77131682Y-43843891D01*
X77131681Y-43843891D01*
X76969278Y-43916197D01*
X76969276Y-43916198D01*
X76963248Y-43918882D01*
X76808747Y-44031134D01*
X76680960Y-44173056D01*
X76585473Y-44338444D01*
X76526458Y-44520072D01*
X76506496Y-44710000D01*
X20508500Y-44710000D01*
X20508500Y-43274669D01*
X60417001Y-43274669D01*
X60417371Y-43281490D01*
X60422895Y-43332352D01*
X60426521Y-43347604D01*
X60471676Y-43468054D01*
X60480214Y-43483649D01*
X60556715Y-43585724D01*
X60569276Y-43598285D01*
X60671351Y-43674786D01*
X60686946Y-43683324D01*
X60807394Y-43728478D01*
X60822649Y-43732105D01*
X60873514Y-43737631D01*
X60880328Y-43738000D01*
X61177885Y-43738000D01*
X61193124Y-43733525D01*
X61194329Y-43732135D01*
X61196000Y-43724452D01*
X61196000Y-42756004D01*
X61686500Y-42756004D01*
X61701277Y-42906713D01*
X61701968Y-42909002D01*
X61704000Y-42929724D01*
X61704000Y-43719884D01*
X61708475Y-43735123D01*
X61709865Y-43736328D01*
X61717548Y-43737999D01*
X62019669Y-43737999D01*
X62026490Y-43737629D01*
X62077352Y-43732105D01*
X62092604Y-43728479D01*
X62213056Y-43683323D01*
X62228466Y-43674886D01*
X62297823Y-43659716D01*
X62326235Y-43665040D01*
X62511180Y-43722290D01*
X62517305Y-43722934D01*
X62517306Y-43722934D01*
X62706622Y-43742832D01*
X62706623Y-43742832D01*
X62712750Y-43743476D01*
X62822090Y-43733525D01*
X62908457Y-43725665D01*
X62908460Y-43725664D01*
X62914596Y-43725106D01*
X62920502Y-43723368D01*
X62920506Y-43723367D01*
X63103120Y-43669620D01*
X63103119Y-43669620D01*
X63109029Y-43667881D01*
X63114486Y-43665028D01*
X63114489Y-43665027D01*
X63266182Y-43585724D01*
X63288460Y-43574077D01*
X63288462Y-43574077D01*
X63288645Y-43573981D01*
X63288663Y-43574016D01*
X63354441Y-43554111D01*
X63415409Y-43569271D01*
X63587565Y-43662356D01*
X63684372Y-43692323D01*
X63775293Y-43720468D01*
X63775296Y-43720469D01*
X63781180Y-43722290D01*
X63787305Y-43722934D01*
X63787306Y-43722934D01*
X63976622Y-43742832D01*
X63976623Y-43742832D01*
X63982750Y-43743476D01*
X64092090Y-43733525D01*
X64178457Y-43725665D01*
X64178460Y-43725664D01*
X64184596Y-43725106D01*
X64190502Y-43723368D01*
X64190506Y-43723367D01*
X64373120Y-43669620D01*
X64373119Y-43669620D01*
X64379029Y-43667881D01*
X64384486Y-43665028D01*
X64384489Y-43665027D01*
X64536182Y-43585724D01*
X64558645Y-43573981D01*
X64716601Y-43446981D01*
X64846881Y-43291719D01*
X64849845Y-43286327D01*
X64849848Y-43286323D01*
X64941556Y-43119506D01*
X64944523Y-43114109D01*
X65005807Y-42920916D01*
X65007401Y-42906713D01*
X65023107Y-42766683D01*
X65023500Y-42763183D01*
X65023500Y-42203996D01*
X65008723Y-42053287D01*
X64950142Y-41859258D01*
X64854990Y-41680302D01*
X64726890Y-41523237D01*
X64674884Y-41480214D01*
X64575472Y-41397973D01*
X64575469Y-41397971D01*
X64570722Y-41394044D01*
X64392435Y-41297644D01*
X64295628Y-41267677D01*
X64204707Y-41239532D01*
X64204704Y-41239531D01*
X64198820Y-41237710D01*
X64192695Y-41237066D01*
X64192694Y-41237066D01*
X64003378Y-41217168D01*
X64003377Y-41217168D01*
X63997250Y-41216524D01*
X63918709Y-41223672D01*
X63801543Y-41234335D01*
X63801540Y-41234336D01*
X63795404Y-41234894D01*
X63789498Y-41236632D01*
X63789494Y-41236633D01*
X63653442Y-41276676D01*
X63600971Y-41292119D01*
X63595514Y-41294972D01*
X63595511Y-41294973D01*
X63551849Y-41317799D01*
X63421540Y-41385923D01*
X63421538Y-41385923D01*
X63421355Y-41386019D01*
X63421337Y-41385984D01*
X63355559Y-41405889D01*
X63294591Y-41390729D01*
X63285815Y-41385984D01*
X63122435Y-41297644D01*
X63025628Y-41267677D01*
X62934707Y-41239532D01*
X62934704Y-41239531D01*
X62928820Y-41237710D01*
X62922695Y-41237066D01*
X62922694Y-41237066D01*
X62733378Y-41217168D01*
X62733377Y-41217168D01*
X62727250Y-41216524D01*
X62648709Y-41223672D01*
X62531543Y-41234335D01*
X62531540Y-41234336D01*
X62525404Y-41234894D01*
X62519498Y-41236632D01*
X62519494Y-41236633D01*
X62428188Y-41263506D01*
X62330971Y-41292119D01*
X62330771Y-41291441D01*
X62264727Y-41297956D01*
X62227677Y-41284680D01*
X62213063Y-41276679D01*
X62092606Y-41231522D01*
X62077351Y-41227895D01*
X62026486Y-41222369D01*
X62019672Y-41222000D01*
X61722115Y-41222000D01*
X61706876Y-41226475D01*
X61705671Y-41227865D01*
X61704000Y-41235548D01*
X61704000Y-42033758D01*
X61703215Y-42047803D01*
X61686500Y-42196817D01*
X61686500Y-42756004D01*
X61196000Y-42756004D01*
X61196000Y-42752115D01*
X61191525Y-42736876D01*
X61190135Y-42735671D01*
X61182452Y-42734000D01*
X60435116Y-42734000D01*
X60419877Y-42738475D01*
X60418672Y-42739865D01*
X60417001Y-42747548D01*
X60417001Y-43274669D01*
X20508500Y-43274669D01*
X20508500Y-42207885D01*
X60417000Y-42207885D01*
X60421475Y-42223124D01*
X60422865Y-42224329D01*
X60430548Y-42226000D01*
X61177885Y-42226000D01*
X61193124Y-42221525D01*
X61194329Y-42220135D01*
X61196000Y-42212452D01*
X61196000Y-41240116D01*
X61191525Y-41224877D01*
X61190135Y-41223672D01*
X61182452Y-41222001D01*
X60880331Y-41222001D01*
X60873510Y-41222371D01*
X60822648Y-41227895D01*
X60807396Y-41231521D01*
X60686946Y-41276676D01*
X60671351Y-41285214D01*
X60569276Y-41361715D01*
X60556715Y-41374276D01*
X60480214Y-41476351D01*
X60471676Y-41491946D01*
X60426522Y-41612394D01*
X60422895Y-41627649D01*
X60417369Y-41678514D01*
X60417000Y-41685328D01*
X60417000Y-42207885D01*
X20508500Y-42207885D01*
X20508500Y-40247500D01*
X77876807Y-40247500D01*
X77895542Y-40461642D01*
X77896966Y-40466955D01*
X77896966Y-40466957D01*
X77938924Y-40623543D01*
X77951178Y-40669277D01*
X78042024Y-40864096D01*
X78165319Y-41040181D01*
X78317319Y-41192181D01*
X78493403Y-41315476D01*
X78498381Y-41317797D01*
X78498384Y-41317799D01*
X78683241Y-41403999D01*
X78688223Y-41406322D01*
X78693531Y-41407744D01*
X78693533Y-41407745D01*
X78890543Y-41460534D01*
X78890545Y-41460534D01*
X78895858Y-41461958D01*
X79110000Y-41480693D01*
X79324142Y-41461958D01*
X79329455Y-41460534D01*
X79329457Y-41460534D01*
X79526467Y-41407745D01*
X79526469Y-41407744D01*
X79531777Y-41406322D01*
X79536759Y-41403999D01*
X79721616Y-41317799D01*
X79721619Y-41317797D01*
X79726597Y-41315476D01*
X79902681Y-41192181D01*
X80054681Y-41040181D01*
X80177976Y-40864096D01*
X80265805Y-40675747D01*
X80312723Y-40622462D01*
X80381000Y-40603001D01*
X80448960Y-40623543D01*
X80494195Y-40675747D01*
X80582024Y-40864096D01*
X80705319Y-41040181D01*
X80857319Y-41192181D01*
X81033403Y-41315476D01*
X81038381Y-41317797D01*
X81038384Y-41317799D01*
X81223241Y-41403999D01*
X81228223Y-41406322D01*
X81233531Y-41407744D01*
X81233533Y-41407745D01*
X81430543Y-41460534D01*
X81430545Y-41460534D01*
X81435858Y-41461958D01*
X81650000Y-41480693D01*
X81864142Y-41461958D01*
X81869455Y-41460534D01*
X81869457Y-41460534D01*
X82066467Y-41407745D01*
X82066469Y-41407744D01*
X82071777Y-41406322D01*
X82076759Y-41403999D01*
X82261616Y-41317799D01*
X82261619Y-41317797D01*
X82266597Y-41315476D01*
X82442681Y-41192181D01*
X82594681Y-41040181D01*
X82717976Y-40864096D01*
X82805805Y-40675747D01*
X82852723Y-40622462D01*
X82921000Y-40603001D01*
X82988960Y-40623543D01*
X83034195Y-40675747D01*
X83122024Y-40864096D01*
X83245319Y-41040181D01*
X83397319Y-41192181D01*
X83573403Y-41315476D01*
X83578381Y-41317797D01*
X83578384Y-41317799D01*
X83763241Y-41403999D01*
X83768223Y-41406322D01*
X83773531Y-41407744D01*
X83773533Y-41407745D01*
X83970543Y-41460534D01*
X83970545Y-41460534D01*
X83975858Y-41461958D01*
X84190000Y-41480693D01*
X84404142Y-41461958D01*
X84409455Y-41460534D01*
X84409457Y-41460534D01*
X84606467Y-41407745D01*
X84606469Y-41407744D01*
X84611777Y-41406322D01*
X84616759Y-41403999D01*
X84801616Y-41317799D01*
X84801619Y-41317797D01*
X84806597Y-41315476D01*
X84982681Y-41192181D01*
X85134681Y-41040181D01*
X85257976Y-40864096D01*
X85348822Y-40669277D01*
X85361077Y-40623543D01*
X85403034Y-40466957D01*
X85403034Y-40466955D01*
X85404458Y-40461642D01*
X85423193Y-40247500D01*
X85404458Y-40033358D01*
X85361366Y-39872538D01*
X85350245Y-39831033D01*
X85350244Y-39831031D01*
X85348822Y-39825723D01*
X85345805Y-39819253D01*
X85260299Y-39635885D01*
X85260297Y-39635882D01*
X85257976Y-39630904D01*
X85134681Y-39454819D01*
X84982681Y-39302819D01*
X84806597Y-39179524D01*
X84801619Y-39177203D01*
X84801616Y-39177201D01*
X84616759Y-39091001D01*
X84616758Y-39091000D01*
X84611777Y-39088678D01*
X84606469Y-39087256D01*
X84606467Y-39087255D01*
X84409457Y-39034466D01*
X84409455Y-39034466D01*
X84404142Y-39033042D01*
X84190000Y-39014307D01*
X83975858Y-39033042D01*
X83970545Y-39034466D01*
X83970543Y-39034466D01*
X83773533Y-39087255D01*
X83773531Y-39087256D01*
X83768223Y-39088678D01*
X83763243Y-39091000D01*
X83763241Y-39091001D01*
X83578385Y-39177201D01*
X83578382Y-39177203D01*
X83573404Y-39179524D01*
X83397319Y-39302819D01*
X83245319Y-39454819D01*
X83122024Y-39630904D01*
X83119703Y-39635882D01*
X83119701Y-39635885D01*
X83034195Y-39819253D01*
X82987277Y-39872538D01*
X82919000Y-39891999D01*
X82851040Y-39871457D01*
X82805805Y-39819253D01*
X82720299Y-39635885D01*
X82720297Y-39635882D01*
X82717976Y-39630904D01*
X82594681Y-39454819D01*
X82442681Y-39302819D01*
X82266597Y-39179524D01*
X82261619Y-39177203D01*
X82261616Y-39177201D01*
X82076759Y-39091001D01*
X82076758Y-39091000D01*
X82071777Y-39088678D01*
X82066469Y-39087256D01*
X82066467Y-39087255D01*
X81869457Y-39034466D01*
X81869455Y-39034466D01*
X81864142Y-39033042D01*
X81650000Y-39014307D01*
X81435858Y-39033042D01*
X81430545Y-39034466D01*
X81430543Y-39034466D01*
X81233533Y-39087255D01*
X81233531Y-39087256D01*
X81228223Y-39088678D01*
X81223243Y-39091000D01*
X81223241Y-39091001D01*
X81038385Y-39177201D01*
X81038382Y-39177203D01*
X81033404Y-39179524D01*
X80857319Y-39302819D01*
X80705319Y-39454819D01*
X80582024Y-39630904D01*
X80579703Y-39635882D01*
X80579701Y-39635885D01*
X80494195Y-39819253D01*
X80447277Y-39872538D01*
X80379000Y-39891999D01*
X80311040Y-39871457D01*
X80265805Y-39819253D01*
X80180299Y-39635885D01*
X80180297Y-39635882D01*
X80177976Y-39630904D01*
X80054681Y-39454819D01*
X79902681Y-39302819D01*
X79726597Y-39179524D01*
X79721619Y-39177203D01*
X79721616Y-39177201D01*
X79536759Y-39091001D01*
X79536758Y-39091000D01*
X79531777Y-39088678D01*
X79526469Y-39087256D01*
X79526467Y-39087255D01*
X79329457Y-39034466D01*
X79329455Y-39034466D01*
X79324142Y-39033042D01*
X79110000Y-39014307D01*
X78895858Y-39033042D01*
X78890545Y-39034466D01*
X78890543Y-39034466D01*
X78693533Y-39087255D01*
X78693531Y-39087256D01*
X78688223Y-39088678D01*
X78683243Y-39091000D01*
X78683241Y-39091001D01*
X78498385Y-39177201D01*
X78498382Y-39177203D01*
X78493404Y-39179524D01*
X78317319Y-39302819D01*
X78165319Y-39454819D01*
X78042024Y-39630904D01*
X78039703Y-39635882D01*
X78039701Y-39635885D01*
X77954195Y-39819253D01*
X77951178Y-39825723D01*
X77949756Y-39831031D01*
X77949755Y-39831033D01*
X77938634Y-39872538D01*
X77895542Y-40033358D01*
X77876807Y-40247500D01*
X20508500Y-40247500D01*
X20508500Y-39060000D01*
X54186496Y-39060000D01*
X54206458Y-39249928D01*
X54265473Y-39431556D01*
X54360960Y-39596944D01*
X54365378Y-39601851D01*
X54365379Y-39601852D01*
X54484325Y-39733955D01*
X54488747Y-39738866D01*
X54643248Y-39851118D01*
X54649276Y-39853802D01*
X54649278Y-39853803D01*
X54811681Y-39926109D01*
X54817712Y-39928794D01*
X54911113Y-39948647D01*
X54998056Y-39967128D01*
X54998061Y-39967128D01*
X55004513Y-39968500D01*
X55195487Y-39968500D01*
X55201939Y-39967128D01*
X55201944Y-39967128D01*
X55288887Y-39948647D01*
X55382288Y-39928794D01*
X55388319Y-39926109D01*
X55550722Y-39853803D01*
X55550724Y-39853802D01*
X55556752Y-39851118D01*
X55711253Y-39738866D01*
X55715675Y-39733955D01*
X55834621Y-39601852D01*
X55834622Y-39601851D01*
X55839040Y-39596944D01*
X55934527Y-39431556D01*
X55993542Y-39249928D01*
X56013504Y-39060000D01*
X55993542Y-38870072D01*
X55934527Y-38688444D01*
X55839040Y-38523056D01*
X55711253Y-38381134D01*
X55556752Y-38268882D01*
X55550724Y-38266198D01*
X55550722Y-38266197D01*
X55388319Y-38193891D01*
X55388318Y-38193891D01*
X55382288Y-38191206D01*
X55288887Y-38171353D01*
X55201944Y-38152872D01*
X55201939Y-38152872D01*
X55195487Y-38151500D01*
X55004513Y-38151500D01*
X54998061Y-38152872D01*
X54998056Y-38152872D01*
X54911113Y-38171353D01*
X54817712Y-38191206D01*
X54811682Y-38193891D01*
X54811681Y-38193891D01*
X54649278Y-38266197D01*
X54649276Y-38266198D01*
X54643248Y-38268882D01*
X54488747Y-38381134D01*
X54360960Y-38523056D01*
X54265473Y-38688444D01*
X54206458Y-38870072D01*
X54186496Y-39060000D01*
X20508500Y-39060000D01*
X20508500Y-35621014D01*
X50556961Y-35621014D01*
X50572910Y-35783672D01*
X50575134Y-35790357D01*
X50575134Y-35790358D01*
X50598705Y-35861214D01*
X50624499Y-35938755D01*
X50709165Y-36078554D01*
X50822698Y-36196121D01*
X50828590Y-36199976D01*
X50828594Y-36199980D01*
X50912553Y-36254921D01*
X50959457Y-36285614D01*
X50995132Y-36298881D01*
X51106048Y-36340130D01*
X51106051Y-36340131D01*
X51112645Y-36342583D01*
X51119622Y-36343514D01*
X51267666Y-36363268D01*
X51267670Y-36363268D01*
X51274647Y-36364199D01*
X51281658Y-36363561D01*
X51281662Y-36363561D01*
X51430391Y-36350025D01*
X51437412Y-36349386D01*
X51444114Y-36347208D01*
X51444116Y-36347208D01*
X51586152Y-36301058D01*
X51586155Y-36301057D01*
X51592851Y-36298881D01*
X51621575Y-36281758D01*
X51727186Y-36218802D01*
X51727188Y-36218801D01*
X51733238Y-36215194D01*
X51851595Y-36102484D01*
X51942040Y-35966353D01*
X51955470Y-35930997D01*
X51997578Y-35820150D01*
X51997579Y-35820145D01*
X52000078Y-35813567D01*
X52003340Y-35790358D01*
X52022273Y-35655643D01*
X52022273Y-35655638D01*
X52022824Y-35651720D01*
X52023110Y-35631250D01*
X52004892Y-35468831D01*
X51951142Y-35314484D01*
X51864534Y-35175880D01*
X51859572Y-35170883D01*
X51754333Y-35064907D01*
X51754329Y-35064904D01*
X51749370Y-35059910D01*
X51733536Y-35049861D01*
X51664593Y-35006109D01*
X51611374Y-34972335D01*
X51586835Y-34963597D01*
X51464041Y-34919872D01*
X51464036Y-34919871D01*
X51457406Y-34917510D01*
X51450418Y-34916677D01*
X51450415Y-34916676D01*
X51339476Y-34903447D01*
X51295118Y-34898158D01*
X51288115Y-34898894D01*
X51288114Y-34898894D01*
X51139575Y-34914506D01*
X51139573Y-34914507D01*
X51132575Y-34915242D01*
X51051273Y-34942919D01*
X50984527Y-34965641D01*
X50984524Y-34965642D01*
X50977857Y-34967912D01*
X50838652Y-35053551D01*
X50721880Y-35167903D01*
X50633345Y-35305284D01*
X50630936Y-35311904D01*
X50630935Y-35311905D01*
X50605396Y-35382074D01*
X50577446Y-35458865D01*
X50556961Y-35621014D01*
X20508500Y-35621014D01*
X20508500Y-34140000D01*
X80326496Y-34140000D01*
X80346458Y-34329928D01*
X80405473Y-34511556D01*
X80500960Y-34676944D01*
X80628747Y-34818866D01*
X80727843Y-34890864D01*
X80764520Y-34917511D01*
X80783248Y-34931118D01*
X80789276Y-34933802D01*
X80789278Y-34933803D01*
X80860788Y-34965641D01*
X80957712Y-35008794D01*
X81051113Y-35028647D01*
X81138056Y-35047128D01*
X81138061Y-35047128D01*
X81144513Y-35048500D01*
X81335487Y-35048500D01*
X81341939Y-35047128D01*
X81341944Y-35047128D01*
X81428887Y-35028647D01*
X81522288Y-35008794D01*
X81619212Y-34965641D01*
X81690722Y-34933803D01*
X81690724Y-34933802D01*
X81696752Y-34931118D01*
X81715481Y-34917511D01*
X81752157Y-34890864D01*
X81851253Y-34818866D01*
X81979040Y-34676944D01*
X82074527Y-34511556D01*
X82133542Y-34329928D01*
X82153504Y-34140000D01*
X82133542Y-33950072D01*
X82074527Y-33768444D01*
X81979040Y-33603056D01*
X81851253Y-33461134D01*
X81696752Y-33348882D01*
X81690724Y-33346198D01*
X81690722Y-33346197D01*
X81528319Y-33273891D01*
X81528318Y-33273891D01*
X81522288Y-33271206D01*
X81428887Y-33251353D01*
X81341944Y-33232872D01*
X81341939Y-33232872D01*
X81335487Y-33231500D01*
X81144513Y-33231500D01*
X81138061Y-33232872D01*
X81138056Y-33232872D01*
X81051113Y-33251353D01*
X80957712Y-33271206D01*
X80951682Y-33273891D01*
X80951681Y-33273891D01*
X80789278Y-33346197D01*
X80789276Y-33346198D01*
X80783248Y-33348882D01*
X80628747Y-33461134D01*
X80500960Y-33603056D01*
X80405473Y-33768444D01*
X80346458Y-33950072D01*
X80326496Y-34140000D01*
X20508500Y-34140000D01*
X20508500Y-32650000D01*
X21486496Y-32650000D01*
X21506458Y-32839928D01*
X21565473Y-33021556D01*
X21660960Y-33186944D01*
X21788747Y-33328866D01*
X21943248Y-33441118D01*
X21949276Y-33443802D01*
X21949278Y-33443803D01*
X21999235Y-33466045D01*
X22117712Y-33518794D01*
X22211113Y-33538647D01*
X22298056Y-33557128D01*
X22298061Y-33557128D01*
X22304513Y-33558500D01*
X22495487Y-33558500D01*
X22501939Y-33557128D01*
X22501944Y-33557128D01*
X22588887Y-33538647D01*
X22682288Y-33518794D01*
X22800765Y-33466045D01*
X22850722Y-33443803D01*
X22850724Y-33443802D01*
X22856752Y-33441118D01*
X23011253Y-33328866D01*
X23139040Y-33186944D01*
X23234527Y-33021556D01*
X23293542Y-32839928D01*
X23313504Y-32650000D01*
X23293542Y-32460072D01*
X23234527Y-32278444D01*
X23139040Y-32113056D01*
X23011253Y-31971134D01*
X22856752Y-31858882D01*
X22850724Y-31856198D01*
X22850722Y-31856197D01*
X22688319Y-31783891D01*
X22688318Y-31783891D01*
X22682288Y-31781206D01*
X22588888Y-31761353D01*
X22501944Y-31742872D01*
X22501939Y-31742872D01*
X22495487Y-31741500D01*
X22304513Y-31741500D01*
X22298061Y-31742872D01*
X22298056Y-31742872D01*
X22211112Y-31761353D01*
X22117712Y-31781206D01*
X22111682Y-31783891D01*
X22111681Y-31783891D01*
X21949278Y-31856197D01*
X21949276Y-31856198D01*
X21943248Y-31858882D01*
X21788747Y-31971134D01*
X21660960Y-32113056D01*
X21565473Y-32278444D01*
X21506458Y-32460072D01*
X21486496Y-32650000D01*
X20508500Y-32650000D01*
X20508500Y-30616121D01*
X41735933Y-30616121D01*
X41745227Y-30628135D01*
X41779146Y-30651885D01*
X41788641Y-30657368D01*
X41973413Y-30743528D01*
X41983705Y-30747274D01*
X42180632Y-30800040D01*
X42191425Y-30801943D01*
X42394525Y-30819712D01*
X42405475Y-30819712D01*
X42608575Y-30801943D01*
X42619368Y-30800040D01*
X42816295Y-30747274D01*
X42826587Y-30743528D01*
X43011359Y-30657368D01*
X43020854Y-30651885D01*
X43055607Y-30627551D01*
X43063983Y-30617072D01*
X43056916Y-30603627D01*
X42412811Y-29959521D01*
X42398868Y-29951908D01*
X42397034Y-29952039D01*
X42390420Y-29956290D01*
X41742360Y-30604351D01*
X41735933Y-30616121D01*
X20508500Y-30616121D01*
X20508500Y-29592975D01*
X41167788Y-29592975D01*
X41185557Y-29796075D01*
X41187460Y-29806868D01*
X41240226Y-30003795D01*
X41243972Y-30014087D01*
X41330135Y-30198864D01*
X41335613Y-30208350D01*
X41359949Y-30243107D01*
X41370428Y-30251483D01*
X41383872Y-30244417D01*
X42027979Y-29600311D01*
X42034356Y-29588632D01*
X42764408Y-29588632D01*
X42764539Y-29590466D01*
X42768790Y-29597080D01*
X43416851Y-30245140D01*
X43428621Y-30251567D01*
X43440635Y-30242272D01*
X43464387Y-30208350D01*
X43469865Y-30198864D01*
X43555529Y-30015156D01*
X43602446Y-29961871D01*
X43670724Y-29942410D01*
X43738683Y-29962952D01*
X43783919Y-30015156D01*
X43869421Y-30198514D01*
X43872024Y-30204096D01*
X43995319Y-30380181D01*
X44147319Y-30532181D01*
X44323403Y-30655476D01*
X44328381Y-30657797D01*
X44328384Y-30657799D01*
X44512231Y-30743528D01*
X44518223Y-30746322D01*
X44523531Y-30747744D01*
X44523533Y-30747745D01*
X44720543Y-30800534D01*
X44720545Y-30800534D01*
X44725858Y-30801958D01*
X44940000Y-30820693D01*
X45154142Y-30801958D01*
X45159455Y-30800534D01*
X45159457Y-30800534D01*
X45356467Y-30747745D01*
X45356469Y-30747744D01*
X45361777Y-30746322D01*
X45367769Y-30743528D01*
X45551616Y-30657799D01*
X45551619Y-30657797D01*
X45556597Y-30655476D01*
X45732681Y-30532181D01*
X45884681Y-30380181D01*
X46007976Y-30204096D01*
X46013841Y-30191520D01*
X46095805Y-30015747D01*
X46142723Y-29962462D01*
X46211000Y-29943001D01*
X46278960Y-29963543D01*
X46324195Y-30015747D01*
X46406160Y-30191520D01*
X46412024Y-30204096D01*
X46535319Y-30380181D01*
X46687319Y-30532181D01*
X46863403Y-30655476D01*
X46868381Y-30657797D01*
X46868384Y-30657799D01*
X47052231Y-30743528D01*
X47058223Y-30746322D01*
X47063531Y-30747744D01*
X47063533Y-30747745D01*
X47260543Y-30800534D01*
X47260545Y-30800534D01*
X47265858Y-30801958D01*
X47480000Y-30820693D01*
X47694142Y-30801958D01*
X47699455Y-30800534D01*
X47699457Y-30800534D01*
X47896467Y-30747745D01*
X47896469Y-30747744D01*
X47901777Y-30746322D01*
X47907769Y-30743528D01*
X48091616Y-30657799D01*
X48091619Y-30657797D01*
X48096597Y-30655476D01*
X48272681Y-30532181D01*
X48424681Y-30380181D01*
X48547976Y-30204096D01*
X48550579Y-30198514D01*
X52184461Y-30198514D01*
X52200410Y-30361172D01*
X52202634Y-30367857D01*
X52202634Y-30367858D01*
X52226205Y-30438714D01*
X52251999Y-30516255D01*
X52255648Y-30522280D01*
X52319757Y-30628135D01*
X52336665Y-30656054D01*
X52450198Y-30773621D01*
X52456090Y-30777476D01*
X52456094Y-30777480D01*
X52490570Y-30800040D01*
X52586957Y-30863114D01*
X52622632Y-30876381D01*
X52733548Y-30917630D01*
X52733551Y-30917631D01*
X52740145Y-30920083D01*
X52747122Y-30921014D01*
X52895166Y-30940768D01*
X52895170Y-30940768D01*
X52902147Y-30941699D01*
X52909158Y-30941061D01*
X52909162Y-30941061D01*
X53057891Y-30927525D01*
X53064912Y-30926886D01*
X53071614Y-30924708D01*
X53071616Y-30924708D01*
X53213652Y-30878558D01*
X53213655Y-30878557D01*
X53220351Y-30876381D01*
X53247830Y-30860000D01*
X68006496Y-30860000D01*
X68007186Y-30866565D01*
X68008447Y-30878558D01*
X68026458Y-31049928D01*
X68085473Y-31231556D01*
X68180960Y-31396944D01*
X68308747Y-31538866D01*
X68463248Y-31651118D01*
X68469276Y-31653802D01*
X68469278Y-31653803D01*
X68631681Y-31726109D01*
X68637712Y-31728794D01*
X68731113Y-31748647D01*
X68818056Y-31767128D01*
X68818061Y-31767128D01*
X68824513Y-31768500D01*
X69015487Y-31768500D01*
X69021939Y-31767128D01*
X69021944Y-31767128D01*
X69108887Y-31748647D01*
X69202288Y-31728794D01*
X69208319Y-31726109D01*
X69370722Y-31653803D01*
X69370724Y-31653802D01*
X69376752Y-31651118D01*
X69531253Y-31538866D01*
X69659040Y-31396944D01*
X69754527Y-31231556D01*
X69813542Y-31049928D01*
X69831554Y-30878558D01*
X69832814Y-30866565D01*
X69833504Y-30860000D01*
X69821312Y-30743999D01*
X69814232Y-30676635D01*
X69814232Y-30676633D01*
X69813542Y-30670072D01*
X69754527Y-30488444D01*
X69659040Y-30323056D01*
X69594596Y-30251483D01*
X69535675Y-30186045D01*
X69535674Y-30186044D01*
X69531253Y-30181134D01*
X69376752Y-30068882D01*
X69370724Y-30066198D01*
X69370722Y-30066197D01*
X69208319Y-29993891D01*
X69208318Y-29993891D01*
X69202288Y-29991206D01*
X69108888Y-29971353D01*
X69021944Y-29952872D01*
X69021939Y-29952872D01*
X69015487Y-29951500D01*
X68824513Y-29951500D01*
X68818061Y-29952872D01*
X68818056Y-29952872D01*
X68731112Y-29971353D01*
X68637712Y-29991206D01*
X68631682Y-29993891D01*
X68631681Y-29993891D01*
X68469278Y-30066197D01*
X68469276Y-30066198D01*
X68463248Y-30068882D01*
X68308747Y-30181134D01*
X68304326Y-30186044D01*
X68304325Y-30186045D01*
X68245405Y-30251483D01*
X68180960Y-30323056D01*
X68085473Y-30488444D01*
X68026458Y-30670072D01*
X68025768Y-30676633D01*
X68025768Y-30676635D01*
X68018688Y-30743999D01*
X68006496Y-30860000D01*
X53247830Y-30860000D01*
X53249075Y-30859258D01*
X53354686Y-30796302D01*
X53354688Y-30796301D01*
X53360738Y-30792694D01*
X53479095Y-30679984D01*
X53569540Y-30543853D01*
X53582970Y-30508497D01*
X53625078Y-30397650D01*
X53625079Y-30397645D01*
X53627578Y-30391067D01*
X53630840Y-30367858D01*
X53649773Y-30233143D01*
X53649773Y-30233138D01*
X53650324Y-30229220D01*
X53650610Y-30208750D01*
X53635357Y-30072763D01*
X53633177Y-30053327D01*
X53633176Y-30053325D01*
X53632392Y-30046331D01*
X53578642Y-29891984D01*
X53492034Y-29753380D01*
X53487072Y-29748383D01*
X53381833Y-29642407D01*
X53381829Y-29642404D01*
X53376870Y-29637410D01*
X53361036Y-29627361D01*
X53298224Y-29587500D01*
X53238874Y-29549835D01*
X53214335Y-29541097D01*
X53091541Y-29497372D01*
X53091536Y-29497371D01*
X53084906Y-29495010D01*
X53077918Y-29494177D01*
X53077915Y-29494176D01*
X52966976Y-29480947D01*
X52922618Y-29475658D01*
X52915615Y-29476394D01*
X52915614Y-29476394D01*
X52767075Y-29492006D01*
X52767073Y-29492007D01*
X52760075Y-29492742D01*
X52678773Y-29520419D01*
X52612027Y-29543141D01*
X52612024Y-29543142D01*
X52605357Y-29545412D01*
X52466152Y-29631051D01*
X52349380Y-29745403D01*
X52260845Y-29882784D01*
X52258436Y-29889404D01*
X52258435Y-29889405D01*
X52239143Y-29942410D01*
X52204946Y-30036365D01*
X52184461Y-30198514D01*
X48550579Y-30198514D01*
X48553841Y-30191520D01*
X48636499Y-30014259D01*
X48636500Y-30014257D01*
X48638822Y-30009277D01*
X48651077Y-29963543D01*
X48693034Y-29806957D01*
X48693034Y-29806955D01*
X48694458Y-29801642D01*
X48713193Y-29587500D01*
X48694458Y-29373358D01*
X48652154Y-29215479D01*
X48640245Y-29171033D01*
X48640244Y-29171031D01*
X48638822Y-29165723D01*
X48547976Y-28970904D01*
X48424681Y-28794819D01*
X48272681Y-28642819D01*
X48096597Y-28519524D01*
X48091619Y-28517203D01*
X48091616Y-28517201D01*
X47906759Y-28431001D01*
X47906758Y-28431000D01*
X47901777Y-28428678D01*
X47896469Y-28427256D01*
X47896467Y-28427255D01*
X47699457Y-28374466D01*
X47699455Y-28374466D01*
X47694142Y-28373042D01*
X47480000Y-28354307D01*
X47265858Y-28373042D01*
X47260545Y-28374466D01*
X47260543Y-28374466D01*
X47063533Y-28427255D01*
X47063531Y-28427256D01*
X47058223Y-28428678D01*
X47053243Y-28431000D01*
X47053241Y-28431001D01*
X46868385Y-28517201D01*
X46868382Y-28517203D01*
X46863404Y-28519524D01*
X46687319Y-28642819D01*
X46535319Y-28794819D01*
X46412024Y-28970904D01*
X46409703Y-28975882D01*
X46409701Y-28975885D01*
X46324195Y-29159253D01*
X46277277Y-29212538D01*
X46209000Y-29231999D01*
X46141040Y-29211457D01*
X46095805Y-29159253D01*
X46010299Y-28975885D01*
X46010297Y-28975882D01*
X46007976Y-28970904D01*
X45884681Y-28794819D01*
X45732681Y-28642819D01*
X45556597Y-28519524D01*
X45551619Y-28517203D01*
X45551616Y-28517201D01*
X45366759Y-28431001D01*
X45366758Y-28431000D01*
X45361777Y-28428678D01*
X45356469Y-28427256D01*
X45356467Y-28427255D01*
X45159457Y-28374466D01*
X45159455Y-28374466D01*
X45154142Y-28373042D01*
X44940000Y-28354307D01*
X44725858Y-28373042D01*
X44720545Y-28374466D01*
X44720543Y-28374466D01*
X44523533Y-28427255D01*
X44523531Y-28427256D01*
X44518223Y-28428678D01*
X44513243Y-28431000D01*
X44513241Y-28431001D01*
X44328385Y-28517201D01*
X44328382Y-28517203D01*
X44323404Y-28519524D01*
X44147319Y-28642819D01*
X43995319Y-28794819D01*
X43872024Y-28970904D01*
X43869703Y-28975882D01*
X43869701Y-28975885D01*
X43783919Y-29159844D01*
X43737001Y-29213129D01*
X43668724Y-29232590D01*
X43600764Y-29212048D01*
X43555529Y-29159844D01*
X43469865Y-28976136D01*
X43464387Y-28966650D01*
X43440051Y-28931893D01*
X43429572Y-28923517D01*
X43416128Y-28930583D01*
X42772021Y-29574689D01*
X42764408Y-29588632D01*
X42034356Y-29588632D01*
X42035592Y-29586368D01*
X42035461Y-29584534D01*
X42031210Y-29577920D01*
X41383149Y-28929860D01*
X41371379Y-28923433D01*
X41359365Y-28932728D01*
X41335613Y-28966650D01*
X41330135Y-28976136D01*
X41243972Y-29160913D01*
X41240226Y-29171205D01*
X41187460Y-29368132D01*
X41185557Y-29378925D01*
X41167788Y-29582025D01*
X41167788Y-29592975D01*
X20508500Y-29592975D01*
X20508500Y-28557928D01*
X41736017Y-28557928D01*
X41743083Y-28571372D01*
X42387189Y-29215479D01*
X42401132Y-29223092D01*
X42402966Y-29222961D01*
X42409580Y-29218710D01*
X43057640Y-28570649D01*
X43064067Y-28558879D01*
X43054773Y-28546865D01*
X43020854Y-28523115D01*
X43011359Y-28517632D01*
X42826587Y-28431472D01*
X42816295Y-28427726D01*
X42619368Y-28374960D01*
X42608575Y-28373057D01*
X42405475Y-28355288D01*
X42394525Y-28355288D01*
X42191425Y-28373057D01*
X42180632Y-28374960D01*
X41983705Y-28427726D01*
X41973413Y-28431472D01*
X41788636Y-28517635D01*
X41779150Y-28523113D01*
X41744393Y-28547449D01*
X41736017Y-28557928D01*
X20508500Y-28557928D01*
X20508500Y-25780000D01*
X50296496Y-25780000D01*
X50316458Y-25969928D01*
X50375473Y-26151556D01*
X50470960Y-26316944D01*
X50475378Y-26321851D01*
X50475379Y-26321852D01*
X50564409Y-26420730D01*
X50598747Y-26458866D01*
X50753248Y-26571118D01*
X50759276Y-26573802D01*
X50759278Y-26573803D01*
X50834894Y-26607469D01*
X50927712Y-26648794D01*
X51021113Y-26668647D01*
X51108056Y-26687128D01*
X51108061Y-26687128D01*
X51114513Y-26688500D01*
X51305487Y-26688500D01*
X51311939Y-26687128D01*
X51311944Y-26687128D01*
X51398887Y-26668647D01*
X51492288Y-26648794D01*
X51585106Y-26607469D01*
X51660722Y-26573803D01*
X51660724Y-26573802D01*
X51666752Y-26571118D01*
X51821253Y-26458866D01*
X51853368Y-26423199D01*
X64321500Y-26423199D01*
X64321693Y-26425648D01*
X64321693Y-26425655D01*
X64324307Y-26458866D01*
X64336391Y-26612403D01*
X64337545Y-26617210D01*
X64337546Y-26617216D01*
X64354660Y-26688500D01*
X64395495Y-26858591D01*
X64397388Y-26863162D01*
X64397389Y-26863164D01*
X64474228Y-27048669D01*
X64492384Y-27092502D01*
X64624672Y-27308376D01*
X64789102Y-27500898D01*
X64981624Y-27665328D01*
X65197498Y-27797616D01*
X65202068Y-27799509D01*
X65202072Y-27799511D01*
X65426836Y-27892611D01*
X65431409Y-27894505D01*
X65516032Y-27914821D01*
X65672784Y-27952454D01*
X65672790Y-27952455D01*
X65677597Y-27953609D01*
X65930000Y-27973474D01*
X66182403Y-27953609D01*
X66187210Y-27952455D01*
X66187216Y-27952454D01*
X66343968Y-27914821D01*
X66428591Y-27894505D01*
X66433164Y-27892611D01*
X66657928Y-27799511D01*
X66657932Y-27799509D01*
X66662502Y-27797616D01*
X66878376Y-27665328D01*
X67070898Y-27500898D01*
X67104031Y-27462105D01*
X67225383Y-27320020D01*
X67284834Y-27281211D01*
X67355828Y-27280705D01*
X67391466Y-27297267D01*
X67421262Y-27317290D01*
X67626967Y-27407588D01*
X67632418Y-27408897D01*
X67632422Y-27408898D01*
X67838938Y-27458478D01*
X67845411Y-27460032D01*
X67905995Y-27463525D01*
X68064083Y-27472640D01*
X68064086Y-27472640D01*
X68069690Y-27472963D01*
X68292715Y-27445975D01*
X68507435Y-27379918D01*
X68512415Y-27377348D01*
X68512419Y-27377346D01*
X68702081Y-27279454D01*
X68702083Y-27279453D01*
X68707064Y-27276882D01*
X68885292Y-27140123D01*
X68889063Y-27135978D01*
X68889067Y-27135975D01*
X68936480Y-27083869D01*
X68997121Y-27046946D01*
X69068096Y-27048669D01*
X69117358Y-27078183D01*
X69234799Y-27191992D01*
X69421262Y-27317290D01*
X69626967Y-27407588D01*
X69632418Y-27408897D01*
X69632422Y-27408898D01*
X69838938Y-27458478D01*
X69845411Y-27460032D01*
X69905995Y-27463525D01*
X70064083Y-27472640D01*
X70064086Y-27472640D01*
X70069690Y-27472963D01*
X70292715Y-27445975D01*
X70507435Y-27379918D01*
X70512415Y-27377348D01*
X70512419Y-27377346D01*
X70702083Y-27279453D01*
X70702084Y-27279452D01*
X70707064Y-27276882D01*
X70711515Y-27273467D01*
X70717415Y-27268940D01*
X70783636Y-27243342D01*
X70853184Y-27257610D01*
X70894941Y-27293341D01*
X70911719Y-27315728D01*
X70924276Y-27328285D01*
X71026351Y-27404786D01*
X71041946Y-27413324D01*
X71162394Y-27458478D01*
X71177649Y-27462105D01*
X71228514Y-27467631D01*
X71235328Y-27468000D01*
X71757885Y-27468000D01*
X71773124Y-27463525D01*
X71774329Y-27462135D01*
X71776000Y-27454452D01*
X71776000Y-27449884D01*
X72284000Y-27449884D01*
X72288475Y-27465123D01*
X72289865Y-27466328D01*
X72297548Y-27467999D01*
X72824669Y-27467999D01*
X72831490Y-27467629D01*
X72884132Y-27461912D01*
X72954014Y-27474441D01*
X72986476Y-27497824D01*
X72989102Y-27500898D01*
X73181624Y-27665328D01*
X73397498Y-27797616D01*
X73402068Y-27799509D01*
X73402072Y-27799511D01*
X73626836Y-27892611D01*
X73631409Y-27894505D01*
X73716032Y-27914821D01*
X73872784Y-27952454D01*
X73872790Y-27952455D01*
X73877597Y-27953609D01*
X74130000Y-27973474D01*
X74382403Y-27953609D01*
X74387210Y-27952455D01*
X74387216Y-27952454D01*
X74543968Y-27914821D01*
X74628591Y-27894505D01*
X74633164Y-27892611D01*
X74857928Y-27799511D01*
X74857932Y-27799509D01*
X74862502Y-27797616D01*
X75078376Y-27665328D01*
X75270898Y-27500898D01*
X75435328Y-27308376D01*
X75567616Y-27092502D01*
X75585773Y-27048669D01*
X75662611Y-26863164D01*
X75662612Y-26863162D01*
X75664505Y-26858591D01*
X75705340Y-26688500D01*
X75722454Y-26617216D01*
X75722455Y-26617210D01*
X75723609Y-26612403D01*
X75735693Y-26458866D01*
X75738307Y-26425655D01*
X75738307Y-26425648D01*
X75738500Y-26423199D01*
X75738500Y-24996801D01*
X75737666Y-24986197D01*
X75727281Y-24854257D01*
X75723609Y-24807597D01*
X75718378Y-24785806D01*
X75665660Y-24566221D01*
X75664505Y-24561409D01*
X75662611Y-24556836D01*
X75569511Y-24332072D01*
X75569509Y-24332068D01*
X75567616Y-24327498D01*
X75435328Y-24111624D01*
X75270898Y-23919102D01*
X75078376Y-23754672D01*
X74862502Y-23622384D01*
X74857932Y-23620491D01*
X74857928Y-23620489D01*
X74633164Y-23527389D01*
X74633162Y-23527388D01*
X74628591Y-23525495D01*
X74505872Y-23496033D01*
X74387216Y-23467546D01*
X74387210Y-23467545D01*
X74382403Y-23466391D01*
X74130000Y-23446526D01*
X73877597Y-23466391D01*
X73872790Y-23467545D01*
X73872784Y-23467546D01*
X73754128Y-23496033D01*
X73631409Y-23525495D01*
X73626838Y-23527388D01*
X73626836Y-23527389D01*
X73402072Y-23620489D01*
X73402068Y-23620491D01*
X73397498Y-23622384D01*
X73181624Y-23754672D01*
X72989102Y-23919102D01*
X72986577Y-23922059D01*
X72924528Y-23955944D01*
X72884130Y-23958088D01*
X72831486Y-23952369D01*
X72824672Y-23952000D01*
X72302115Y-23952000D01*
X72286876Y-23956475D01*
X72285671Y-23957865D01*
X72284000Y-23965548D01*
X72284000Y-27449884D01*
X71776000Y-27449884D01*
X71776000Y-23970116D01*
X71771525Y-23954877D01*
X71770135Y-23953672D01*
X71762452Y-23952001D01*
X71235331Y-23952001D01*
X71228510Y-23952371D01*
X71177648Y-23957895D01*
X71162396Y-23961521D01*
X71041946Y-24006676D01*
X71026351Y-24015214D01*
X70924276Y-24091715D01*
X70911719Y-24104272D01*
X70892838Y-24129465D01*
X70835978Y-24171980D01*
X70765160Y-24177006D01*
X70721735Y-24158481D01*
X70643398Y-24105841D01*
X70643395Y-24105839D01*
X70638738Y-24102710D01*
X70433033Y-24012412D01*
X70427582Y-24011103D01*
X70427578Y-24011102D01*
X70220046Y-23961278D01*
X70220045Y-23961278D01*
X70214589Y-23959968D01*
X70126289Y-23954877D01*
X69995917Y-23947360D01*
X69995914Y-23947360D01*
X69990310Y-23947037D01*
X69767285Y-23974025D01*
X69552565Y-24040082D01*
X69547585Y-24042652D01*
X69547581Y-24042654D01*
X69395560Y-24121118D01*
X69352936Y-24143118D01*
X69174708Y-24279877D01*
X69170937Y-24284022D01*
X69170933Y-24284025D01*
X69123520Y-24336131D01*
X69062879Y-24373054D01*
X68991904Y-24371331D01*
X68942642Y-24341817D01*
X68867749Y-24269240D01*
X68829229Y-24231911D01*
X68829226Y-24231909D01*
X68825201Y-24228008D01*
X68638738Y-24102710D01*
X68433033Y-24012412D01*
X68427582Y-24011103D01*
X68427578Y-24011102D01*
X68220046Y-23961278D01*
X68220045Y-23961278D01*
X68214589Y-23959968D01*
X68126289Y-23954877D01*
X67995917Y-23947360D01*
X67995914Y-23947360D01*
X67990310Y-23947037D01*
X67767285Y-23974025D01*
X67552565Y-24040082D01*
X67547585Y-24042652D01*
X67547581Y-24042654D01*
X67378722Y-24129809D01*
X67309015Y-24143278D01*
X67243091Y-24116923D01*
X67225121Y-24099673D01*
X67074111Y-23922863D01*
X67074106Y-23922858D01*
X67070898Y-23919102D01*
X66878376Y-23754672D01*
X66662502Y-23622384D01*
X66657932Y-23620491D01*
X66657928Y-23620489D01*
X66433164Y-23527389D01*
X66433162Y-23527388D01*
X66428591Y-23525495D01*
X66305872Y-23496033D01*
X66187216Y-23467546D01*
X66187210Y-23467545D01*
X66182403Y-23466391D01*
X65930000Y-23446526D01*
X65677597Y-23466391D01*
X65672790Y-23467545D01*
X65672784Y-23467546D01*
X65554128Y-23496033D01*
X65431409Y-23525495D01*
X65426838Y-23527388D01*
X65426836Y-23527389D01*
X65202072Y-23620489D01*
X65202068Y-23620491D01*
X65197498Y-23622384D01*
X64981624Y-23754672D01*
X64789102Y-23919102D01*
X64624672Y-24111624D01*
X64492384Y-24327498D01*
X64490491Y-24332068D01*
X64490489Y-24332072D01*
X64397389Y-24556836D01*
X64395495Y-24561409D01*
X64394340Y-24566221D01*
X64341623Y-24785806D01*
X64336391Y-24807597D01*
X64332719Y-24854257D01*
X64322335Y-24986197D01*
X64321500Y-24996801D01*
X64321500Y-26423199D01*
X51853368Y-26423199D01*
X51855591Y-26420730D01*
X51944621Y-26321852D01*
X51944622Y-26321851D01*
X51949040Y-26316944D01*
X52044527Y-26151556D01*
X52103542Y-25969928D01*
X52123504Y-25780000D01*
X52103542Y-25590072D01*
X52044527Y-25408444D01*
X51949040Y-25243056D01*
X51821253Y-25101134D01*
X51666752Y-24988882D01*
X51660724Y-24986198D01*
X51660722Y-24986197D01*
X51498319Y-24913891D01*
X51498318Y-24913891D01*
X51492288Y-24911206D01*
X51398887Y-24891353D01*
X51311944Y-24872872D01*
X51311939Y-24872872D01*
X51305487Y-24871500D01*
X51114513Y-24871500D01*
X51108061Y-24872872D01*
X51108056Y-24872872D01*
X51021113Y-24891353D01*
X50927712Y-24911206D01*
X50921682Y-24913891D01*
X50921681Y-24913891D01*
X50759278Y-24986197D01*
X50759276Y-24986198D01*
X50753248Y-24988882D01*
X50598747Y-25101134D01*
X50470960Y-25243056D01*
X50375473Y-25408444D01*
X50316458Y-25590072D01*
X50296496Y-25780000D01*
X20508500Y-25780000D01*
X20508500Y-23053250D01*
X20509416Y-23042277D01*
X21137009Y-23042277D01*
X21162625Y-23310769D01*
X21163710Y-23315203D01*
X21163711Y-23315209D01*
X21214885Y-23524340D01*
X21226731Y-23572750D01*
X21327985Y-23822733D01*
X21403890Y-23952369D01*
X21439047Y-24012412D01*
X21464265Y-24055482D01*
X21537079Y-24146531D01*
X21584686Y-24206060D01*
X21632716Y-24266119D01*
X21829809Y-24450234D01*
X22051416Y-24603968D01*
X22055499Y-24605999D01*
X22055502Y-24606001D01*
X22171013Y-24663466D01*
X22292894Y-24724101D01*
X22297228Y-24725522D01*
X22297231Y-24725523D01*
X22544853Y-24806698D01*
X22544859Y-24806699D01*
X22549186Y-24808118D01*
X22553677Y-24808898D01*
X22553678Y-24808898D01*
X22811140Y-24853601D01*
X22811148Y-24853602D01*
X22814921Y-24854257D01*
X22818758Y-24854448D01*
X22898578Y-24858422D01*
X22898586Y-24858422D01*
X22900149Y-24858500D01*
X23068512Y-24858500D01*
X23070780Y-24858335D01*
X23070792Y-24858335D01*
X23201884Y-24848823D01*
X23269004Y-24843953D01*
X23273459Y-24842969D01*
X23273462Y-24842969D01*
X23527912Y-24786791D01*
X23527916Y-24786790D01*
X23532372Y-24785806D01*
X23658480Y-24738028D01*
X23780318Y-24691868D01*
X23780321Y-24691867D01*
X23784588Y-24690250D01*
X24020368Y-24559286D01*
X24234773Y-24395657D01*
X24245831Y-24384346D01*
X24347956Y-24279877D01*
X24423312Y-24202792D01*
X24582034Y-23984730D01*
X24665190Y-23826676D01*
X24705490Y-23750079D01*
X24705493Y-23750073D01*
X24707615Y-23746039D01*
X24751283Y-23622384D01*
X24795902Y-23496033D01*
X24795902Y-23496032D01*
X24797425Y-23491720D01*
X24829300Y-23330000D01*
X84346496Y-23330000D01*
X84347186Y-23336565D01*
X84363947Y-23496033D01*
X84366458Y-23519928D01*
X84425473Y-23701556D01*
X84428776Y-23707278D01*
X84428777Y-23707279D01*
X84451155Y-23746039D01*
X84520960Y-23866944D01*
X84525378Y-23871851D01*
X84525379Y-23871852D01*
X84606117Y-23961521D01*
X84648747Y-24008866D01*
X84712908Y-24055482D01*
X84795981Y-24115838D01*
X84803248Y-24121118D01*
X84809276Y-24123802D01*
X84809278Y-24123803D01*
X84887167Y-24158481D01*
X84977712Y-24198794D01*
X85071112Y-24218647D01*
X85158056Y-24237128D01*
X85158061Y-24237128D01*
X85164513Y-24238500D01*
X85355487Y-24238500D01*
X85361939Y-24237128D01*
X85361944Y-24237128D01*
X85448888Y-24218647D01*
X85542288Y-24198794D01*
X85632833Y-24158481D01*
X85710722Y-24123803D01*
X85710724Y-24123802D01*
X85716752Y-24121118D01*
X85724020Y-24115838D01*
X85807092Y-24055482D01*
X85871253Y-24008866D01*
X85913883Y-23961521D01*
X85994621Y-23871852D01*
X85994622Y-23871851D01*
X85999040Y-23866944D01*
X86068845Y-23746039D01*
X86091223Y-23707279D01*
X86091224Y-23707278D01*
X86094527Y-23701556D01*
X86153542Y-23519928D01*
X86156054Y-23496033D01*
X86172814Y-23336565D01*
X86173504Y-23330000D01*
X86153542Y-23140072D01*
X86121766Y-23042277D01*
X100137009Y-23042277D01*
X100162625Y-23310769D01*
X100163710Y-23315203D01*
X100163711Y-23315209D01*
X100214885Y-23524340D01*
X100226731Y-23572750D01*
X100327985Y-23822733D01*
X100403890Y-23952369D01*
X100439047Y-24012412D01*
X100464265Y-24055482D01*
X100537079Y-24146531D01*
X100584686Y-24206060D01*
X100632716Y-24266119D01*
X100829809Y-24450234D01*
X101051416Y-24603968D01*
X101055499Y-24605999D01*
X101055502Y-24606001D01*
X101171013Y-24663466D01*
X101292894Y-24724101D01*
X101297228Y-24725522D01*
X101297231Y-24725523D01*
X101544853Y-24806698D01*
X101544859Y-24806699D01*
X101549186Y-24808118D01*
X101553677Y-24808898D01*
X101553678Y-24808898D01*
X101811140Y-24853601D01*
X101811148Y-24853602D01*
X101814921Y-24854257D01*
X101818758Y-24854448D01*
X101898578Y-24858422D01*
X101898586Y-24858422D01*
X101900149Y-24858500D01*
X102068512Y-24858500D01*
X102070780Y-24858335D01*
X102070792Y-24858335D01*
X102201884Y-24848823D01*
X102269004Y-24843953D01*
X102273459Y-24842969D01*
X102273462Y-24842969D01*
X102527912Y-24786791D01*
X102527916Y-24786790D01*
X102532372Y-24785806D01*
X102658480Y-24738028D01*
X102780318Y-24691868D01*
X102780321Y-24691867D01*
X102784588Y-24690250D01*
X103020368Y-24559286D01*
X103234773Y-24395657D01*
X103245831Y-24384346D01*
X103347956Y-24279877D01*
X103423312Y-24202792D01*
X103582034Y-23984730D01*
X103665190Y-23826676D01*
X103705490Y-23750079D01*
X103705493Y-23750073D01*
X103707615Y-23746039D01*
X103751283Y-23622384D01*
X103795902Y-23496033D01*
X103795902Y-23496032D01*
X103797425Y-23491720D01*
X103849581Y-23227100D01*
X103853587Y-23146635D01*
X103862764Y-22962292D01*
X103862764Y-22962286D01*
X103862991Y-22957723D01*
X103837375Y-22689231D01*
X103829255Y-22656045D01*
X103774355Y-22431688D01*
X103773269Y-22427250D01*
X103672015Y-22177267D01*
X103535735Y-21944518D01*
X103417928Y-21797208D01*
X103370136Y-21737447D01*
X103370135Y-21737445D01*
X103367284Y-21733881D01*
X103170191Y-21549766D01*
X102948584Y-21396032D01*
X102944501Y-21394001D01*
X102944498Y-21393999D01*
X102779606Y-21311967D01*
X102707106Y-21275899D01*
X102702772Y-21274478D01*
X102702769Y-21274477D01*
X102455147Y-21193302D01*
X102455141Y-21193301D01*
X102450814Y-21191882D01*
X102446322Y-21191102D01*
X102188860Y-21146399D01*
X102188852Y-21146398D01*
X102185079Y-21145743D01*
X102173817Y-21145182D01*
X102101422Y-21141578D01*
X102101414Y-21141578D01*
X102099851Y-21141500D01*
X101931488Y-21141500D01*
X101929220Y-21141665D01*
X101929208Y-21141665D01*
X101798116Y-21151177D01*
X101730996Y-21156047D01*
X101726541Y-21157031D01*
X101726538Y-21157031D01*
X101472088Y-21213209D01*
X101472084Y-21213210D01*
X101467628Y-21214194D01*
X101341520Y-21261972D01*
X101219682Y-21308132D01*
X101219679Y-21308133D01*
X101215412Y-21309750D01*
X100979632Y-21440714D01*
X100765227Y-21604343D01*
X100576688Y-21797208D01*
X100417966Y-22015270D01*
X100415844Y-22019304D01*
X100294510Y-22249921D01*
X100294507Y-22249927D01*
X100292385Y-22253961D01*
X100290865Y-22258266D01*
X100290863Y-22258270D01*
X100219683Y-22459834D01*
X100202575Y-22508280D01*
X100177395Y-22636032D01*
X100163351Y-22707290D01*
X100150419Y-22772900D01*
X100150192Y-22777453D01*
X100150192Y-22777456D01*
X100137450Y-23033421D01*
X100137009Y-23042277D01*
X86121766Y-23042277D01*
X86094527Y-22958444D01*
X85999040Y-22793056D01*
X85980892Y-22772900D01*
X85875675Y-22656045D01*
X85875674Y-22656044D01*
X85871253Y-22651134D01*
X85716752Y-22538882D01*
X85710724Y-22536198D01*
X85710722Y-22536197D01*
X85548319Y-22463891D01*
X85548318Y-22463891D01*
X85542288Y-22461206D01*
X85448887Y-22441353D01*
X85361944Y-22422872D01*
X85361939Y-22422872D01*
X85355487Y-22421500D01*
X85164513Y-22421500D01*
X85158061Y-22422872D01*
X85158056Y-22422872D01*
X85071112Y-22441353D01*
X84977712Y-22461206D01*
X84971682Y-22463891D01*
X84971681Y-22463891D01*
X84809278Y-22536197D01*
X84809276Y-22536198D01*
X84803248Y-22538882D01*
X84648747Y-22651134D01*
X84644326Y-22656044D01*
X84644325Y-22656045D01*
X84539109Y-22772900D01*
X84520960Y-22793056D01*
X84425473Y-22958444D01*
X84366458Y-23140072D01*
X84346496Y-23330000D01*
X24829300Y-23330000D01*
X24849581Y-23227100D01*
X24853587Y-23146635D01*
X24862764Y-22962292D01*
X24862764Y-22962286D01*
X24862991Y-22957723D01*
X24837375Y-22689231D01*
X24829255Y-22656045D01*
X24774355Y-22431688D01*
X24773269Y-22427250D01*
X24672015Y-22177267D01*
X24535735Y-21944518D01*
X24417928Y-21797208D01*
X24370136Y-21737447D01*
X24370135Y-21737445D01*
X24367284Y-21733881D01*
X24170191Y-21549766D01*
X23948584Y-21396032D01*
X23944501Y-21394001D01*
X23944498Y-21393999D01*
X23779606Y-21311967D01*
X23707106Y-21275899D01*
X23702772Y-21274478D01*
X23702769Y-21274477D01*
X23455147Y-21193302D01*
X23455141Y-21193301D01*
X23450814Y-21191882D01*
X23446322Y-21191102D01*
X23188860Y-21146399D01*
X23188852Y-21146398D01*
X23185079Y-21145743D01*
X23173817Y-21145182D01*
X23101422Y-21141578D01*
X23101414Y-21141578D01*
X23099851Y-21141500D01*
X22931488Y-21141500D01*
X22929220Y-21141665D01*
X22929208Y-21141665D01*
X22798116Y-21151177D01*
X22730996Y-21156047D01*
X22726541Y-21157031D01*
X22726538Y-21157031D01*
X22472088Y-21213209D01*
X22472084Y-21213210D01*
X22467628Y-21214194D01*
X22341520Y-21261972D01*
X22219682Y-21308132D01*
X22219679Y-21308133D01*
X22215412Y-21309750D01*
X21979632Y-21440714D01*
X21765227Y-21604343D01*
X21576688Y-21797208D01*
X21417966Y-22015270D01*
X21415844Y-22019304D01*
X21294510Y-22249921D01*
X21294507Y-22249927D01*
X21292385Y-22253961D01*
X21290865Y-22258266D01*
X21290863Y-22258270D01*
X21219683Y-22459834D01*
X21202575Y-22508280D01*
X21177395Y-22636032D01*
X21163351Y-22707290D01*
X21150419Y-22772900D01*
X21150192Y-22777453D01*
X21150192Y-22777456D01*
X21137450Y-23033421D01*
X21137009Y-23042277D01*
X20509416Y-23042277D01*
X20510246Y-23032345D01*
X20512770Y-23017344D01*
X20512770Y-23017341D01*
X20513576Y-23012552D01*
X20513729Y-23000000D01*
X20513040Y-22995186D01*
X20513039Y-22995177D01*
X20511869Y-22987006D01*
X20510827Y-22961540D01*
X20526206Y-22707290D01*
X20528040Y-22692186D01*
X20555422Y-22542763D01*
X20579525Y-22411240D01*
X20583164Y-22396473D01*
X20628832Y-22249921D01*
X20668142Y-22123769D01*
X20673534Y-22109555D01*
X20790758Y-21849092D01*
X20797828Y-21835621D01*
X20945595Y-21591187D01*
X20954238Y-21578666D01*
X21130385Y-21353829D01*
X21140475Y-21342440D01*
X21342440Y-21140475D01*
X21353829Y-21130385D01*
X21578666Y-20954238D01*
X21591187Y-20945595D01*
X21835621Y-20797828D01*
X21849094Y-20790757D01*
X21891777Y-20771547D01*
X22109555Y-20673534D01*
X22123769Y-20668142D01*
X22396474Y-20583164D01*
X22411240Y-20579525D01*
X22620214Y-20541229D01*
X22692186Y-20528040D01*
X22707290Y-20526206D01*
X22957904Y-20511047D01*
X22984716Y-20512308D01*
X22984852Y-20512310D01*
X22993724Y-20513691D01*
X23002626Y-20512527D01*
X23002628Y-20512527D01*
X23017677Y-20510559D01*
X23025286Y-20509564D01*
X23041621Y-20508500D01*
X101950633Y-20508500D01*
X101970018Y-20510000D01*
G37*
%TD.AperFunction*%
%TD*%
M02*
